<svg width="577" height="228" viewBox="0 0 577 228" fill="none" xmlns="http://www.w3.org/2000/svg">
<path d="M0 5.99999C0 2.68628 2.68629 0 6 0H571C574.314 0 577 2.68629 577 6V227.6H0V5.99999Z" fill="white"/>
<rect x="301" y="25" width="218" height="54" rx="3" stroke="#16A249" stroke-width="2"/>
<path d="M316.992 55.2734L320.344 45.625H321.977L317.766 57H316.602L316.992 55.2734ZM313.859 45.625L317.18 55.2734L317.594 57H316.43L312.227 45.625H313.859ZM328.064 55.5547V51.2031C328.064 50.8698 327.996 50.5807 327.861 50.3359C327.731 50.0859 327.533 49.8932 327.267 49.7578C327.002 49.6224 326.673 49.5547 326.283 49.5547C325.918 49.5547 325.598 49.6172 325.322 49.7422C325.051 49.8672 324.837 50.0312 324.681 50.2344C324.53 50.4375 324.455 50.6562 324.455 50.8906H323.009C323.009 50.5885 323.087 50.2891 323.244 49.9922C323.4 49.6953 323.624 49.4271 323.916 49.1875C324.212 48.9427 324.567 48.75 324.978 48.6094C325.395 48.4635 325.858 48.3906 326.369 48.3906C326.983 48.3906 327.525 48.4948 327.994 48.7031C328.468 48.9115 328.837 49.2266 329.103 49.6484C329.374 50.0651 329.509 50.5885 329.509 51.2188V55.1562C329.509 55.4375 329.533 55.737 329.58 56.0547C329.632 56.3724 329.707 56.6458 329.806 56.875V57H328.298C328.226 56.8333 328.168 56.612 328.127 56.3359C328.085 56.0547 328.064 55.7943 328.064 55.5547ZM328.314 51.875L328.33 52.8906H326.869C326.457 52.8906 326.09 52.9245 325.767 52.9922C325.444 53.0547 325.173 53.151 324.955 53.2812C324.736 53.4115 324.569 53.5755 324.455 53.7734C324.34 53.9661 324.283 54.1927 324.283 54.4531C324.283 54.7188 324.343 54.9609 324.462 55.1797C324.582 55.3984 324.762 55.5729 325.002 55.7031C325.246 55.8281 325.546 55.8906 325.9 55.8906C326.343 55.8906 326.733 55.7969 327.072 55.6094C327.41 55.4219 327.679 55.1927 327.877 54.9219C328.08 54.651 328.189 54.388 328.205 54.1328L328.822 54.8281C328.785 55.0469 328.686 55.2891 328.525 55.5547C328.364 55.8203 328.147 56.0755 327.877 56.3203C327.611 56.5599 327.293 56.7604 326.923 56.9219C326.559 57.0781 326.147 57.1562 325.689 57.1562C325.116 57.1562 324.614 57.0443 324.181 56.8203C323.754 56.5964 323.421 56.2969 323.181 55.9219C322.947 55.5417 322.83 55.1172 322.83 54.6484C322.83 54.1953 322.918 53.7969 323.095 53.4531C323.272 53.1042 323.528 52.8151 323.861 52.5859C324.194 52.3516 324.595 52.1745 325.064 52.0547C325.533 51.9349 326.056 51.875 326.634 51.875H328.314ZM333.503 45V57H332.05V45H333.503ZM341.145 55.0469V48.5469H342.598V57H341.216L341.145 55.0469ZM341.419 53.2656L342.02 53.25C342.02 53.8125 341.96 54.3333 341.841 54.8125C341.726 55.2865 341.539 55.6979 341.278 56.0469C341.018 56.3958 340.677 56.6693 340.255 56.8672C339.833 57.0599 339.32 57.1562 338.716 57.1562C338.304 57.1562 337.927 57.0964 337.583 56.9766C337.244 56.8568 336.953 56.6719 336.708 56.4219C336.463 56.1719 336.273 55.8464 336.138 55.4453C336.007 55.0443 335.942 54.5625 335.942 54V48.5469H337.388V54.0156C337.388 54.3958 337.429 54.7109 337.513 54.9609C337.601 55.2057 337.718 55.401 337.864 55.5469C338.015 55.6875 338.182 55.7865 338.364 55.8438C338.552 55.901 338.744 55.9297 338.942 55.9297C339.557 55.9297 340.044 55.8125 340.403 55.5781C340.763 55.3385 341.02 55.0182 341.177 54.6172C341.338 54.2109 341.419 53.7604 341.419 53.2656ZM348.459 57.1562C347.871 57.1562 347.337 57.0573 346.858 56.8594C346.384 56.6562 345.975 56.3724 345.631 56.0078C345.293 55.6432 345.032 55.2109 344.85 54.7109C344.668 54.2109 344.577 53.6641 344.577 53.0703V52.7422C344.577 52.0547 344.678 51.4427 344.881 50.9062C345.084 50.3646 345.36 49.9062 345.709 49.5312C346.058 49.1562 346.454 48.8724 346.897 48.6797C347.34 48.487 347.798 48.3906 348.272 48.3906C348.876 48.3906 349.397 48.4948 349.834 48.7031C350.277 48.9115 350.639 49.2031 350.92 49.5781C351.202 49.9479 351.41 50.3854 351.545 50.8906C351.681 51.3906 351.748 51.9375 351.748 52.5312V53.1797H345.436V52H350.303V51.8906C350.282 51.5156 350.204 51.151 350.069 50.7969C349.939 50.4427 349.73 50.151 349.444 49.9219C349.157 49.6927 348.767 49.5781 348.272 49.5781C347.944 49.5781 347.642 49.6484 347.366 49.7891C347.09 49.9245 346.853 50.1276 346.655 50.3984C346.457 50.6693 346.303 51 346.194 51.3906C346.084 51.7812 346.03 52.2318 346.03 52.7422V53.0703C346.03 53.4714 346.084 53.849 346.194 54.2031C346.308 54.5521 346.472 54.8594 346.686 55.125C346.905 55.3906 347.168 55.599 347.475 55.75C347.788 55.901 348.142 55.9766 348.538 55.9766C349.048 55.9766 349.48 55.8724 349.834 55.6641C350.189 55.4557 350.498 55.1771 350.764 54.8281L351.639 55.5234C351.457 55.7995 351.225 56.0625 350.944 56.3125C350.663 56.5625 350.316 56.7656 349.905 56.9219C349.498 57.0781 349.017 57.1562 348.459 57.1562Z" fill="black" fill-opacity="0.87"/>
<path d="M491 54L496 49L501 54H491Z" fill="black" fill-opacity="0.54"/>
<rect width="38" height="2" transform="translate(312 24)" fill="white"/>
<path d="M322.164 28.0801V29H317.898V28.0801H322.164ZM318.121 20.4688V29H316.99V20.4688H318.121ZM327.183 27.916V24.6523C327.183 24.4023 327.132 24.1855 327.031 24.002C326.933 23.8145 326.785 23.6699 326.586 23.5684C326.386 23.4668 326.14 23.416 325.847 23.416C325.574 23.416 325.334 23.4629 325.127 23.5566C324.923 23.6504 324.763 23.7734 324.646 23.9258C324.533 24.0781 324.476 24.2422 324.476 24.418H323.392C323.392 24.1914 323.451 23.9668 323.568 23.7441C323.685 23.5215 323.853 23.3203 324.072 23.1406C324.295 22.957 324.56 22.8125 324.869 22.707C325.181 22.5977 325.529 22.543 325.912 22.543C326.373 22.543 326.779 22.6211 327.13 22.7773C327.486 22.9336 327.763 23.1699 327.963 23.4863C328.166 23.7988 328.267 24.1914 328.267 24.6641V27.6172C328.267 27.8281 328.285 28.0527 328.32 28.291C328.359 28.5293 328.416 28.7344 328.49 28.9062V29H327.359C327.304 28.875 327.261 28.709 327.23 28.502C327.199 28.291 327.183 28.0957 327.183 27.916ZM327.371 25.1562L327.382 25.918H326.287C325.978 25.918 325.703 25.9434 325.461 25.9941C325.218 26.041 325.015 26.1133 324.851 26.2109C324.687 26.3086 324.562 26.4316 324.476 26.5801C324.39 26.7246 324.347 26.8945 324.347 27.0898C324.347 27.2891 324.392 27.4707 324.482 27.6348C324.572 27.7988 324.707 27.9297 324.886 28.0273C325.07 28.1211 325.295 28.168 325.56 28.168C325.892 28.168 326.185 28.0977 326.439 27.957C326.693 27.8164 326.894 27.6445 327.043 27.4414C327.195 27.2383 327.277 27.041 327.289 26.8496L327.752 27.3711C327.724 27.5352 327.65 27.7168 327.529 27.916C327.408 28.1152 327.246 28.3066 327.043 28.4902C326.843 28.6699 326.605 28.8203 326.328 28.9414C326.054 29.0586 325.746 29.1172 325.402 29.1172C324.972 29.1172 324.595 29.0332 324.271 28.8652C323.951 28.6973 323.701 28.4727 323.521 28.1914C323.345 27.9062 323.257 27.5879 323.257 27.2363C323.257 26.8965 323.324 26.5977 323.457 26.3398C323.589 26.0781 323.781 25.8613 324.031 25.6895C324.281 25.5137 324.582 25.3809 324.933 25.291C325.285 25.2012 325.677 25.1562 326.111 25.1562H327.371ZM330.116 20H331.206V27.7695L331.113 29H330.116V20ZM335.489 25.7773V25.9004C335.489 26.3613 335.435 26.7891 335.325 27.1836C335.216 27.5742 335.056 27.9141 334.845 28.2031C334.634 28.4922 334.376 28.7168 334.071 28.877C333.767 29.0371 333.417 29.1172 333.023 29.1172C332.62 29.1172 332.267 29.0488 331.962 28.9121C331.661 28.7715 331.407 28.5703 331.2 28.3086C330.993 28.0469 330.827 27.7305 330.702 27.3594C330.581 26.9883 330.497 26.5703 330.45 26.1055V25.5664C330.497 25.0977 330.581 24.6777 330.702 24.3066C330.827 23.9355 330.993 23.6191 331.2 23.3574C331.407 23.0918 331.661 22.8906 331.962 22.7539C332.263 22.6133 332.613 22.543 333.011 22.543C333.409 22.543 333.763 22.6211 334.071 22.7773C334.38 22.9297 334.638 23.1484 334.845 23.4336C335.056 23.7188 335.216 24.0605 335.325 24.459C335.435 24.8535 335.489 25.293 335.489 25.7773ZM334.4 25.9004V25.7773C334.4 25.4609 334.37 25.1641 334.312 24.8867C334.253 24.6055 334.159 24.3594 334.03 24.1484C333.902 23.9336 333.732 23.7656 333.521 23.6445C333.31 23.5195 333.05 23.457 332.741 23.457C332.468 23.457 332.23 23.5039 332.027 23.5977C331.827 23.6914 331.657 23.8184 331.517 23.9785C331.376 24.1348 331.261 24.3145 331.171 24.5176C331.085 24.7168 331.021 24.9238 330.978 25.1387V26.5508C331.04 26.8242 331.142 27.0879 331.282 27.3418C331.427 27.5918 331.618 27.7969 331.857 27.957C332.099 28.1172 332.398 28.1973 332.753 28.1973C333.046 28.1973 333.296 28.1387 333.503 28.0215C333.714 27.9004 333.884 27.7344 334.013 27.5234C334.146 27.3125 334.243 27.0684 334.306 26.791C334.368 26.5137 334.4 26.2168 334.4 25.9004ZM339.641 29.1172C339.2 29.1172 338.8 29.043 338.44 28.8945C338.085 28.7422 337.778 28.5293 337.52 28.2559C337.266 27.9824 337.071 27.6582 336.934 27.2832C336.798 26.9082 336.729 26.498 336.729 26.0527V25.8066C336.729 25.291 336.805 24.832 336.958 24.4297C337.11 24.0234 337.317 23.6797 337.579 23.3984C337.841 23.1172 338.138 22.9043 338.47 22.7598C338.802 22.6152 339.145 22.543 339.501 22.543C339.954 22.543 340.345 22.6211 340.673 22.7773C341.005 22.9336 341.276 23.1523 341.487 23.4336C341.698 23.7109 341.854 24.0391 341.956 24.418C342.057 24.793 342.108 25.2031 342.108 25.6484V26.1348H337.374V25.25H341.024V25.168C341.009 24.8867 340.95 24.6133 340.848 24.3477C340.751 24.082 340.595 23.8633 340.38 23.6914C340.165 23.5195 339.872 23.4336 339.501 23.4336C339.255 23.4336 339.028 23.4863 338.821 23.5918C338.614 23.6934 338.436 23.8457 338.288 24.0488C338.139 24.252 338.024 24.5 337.942 24.793C337.86 25.0859 337.819 25.4238 337.819 25.8066V26.0527C337.819 26.3535 337.86 26.6367 337.942 26.9023C338.028 27.1641 338.151 27.3945 338.311 27.5938C338.475 27.793 338.673 27.9492 338.903 28.0625C339.138 28.1758 339.403 28.2324 339.7 28.2324C340.083 28.2324 340.407 28.1543 340.673 27.998C340.938 27.8418 341.171 27.6328 341.37 27.3711L342.026 27.8926C341.889 28.0996 341.716 28.2969 341.505 28.4844C341.294 28.6719 341.034 28.8242 340.725 28.9414C340.421 29.0586 340.059 29.1172 339.641 29.1172ZM344.702 20V29H343.612V20H344.702Z" fill="#16A249"/>
<g filter="url(#filter0_ddd_1412_16234)">
<g clip-path="url(#clip0_1412_16234)">
<rect x="300" y="80" width="220" height="124" rx="4" fill="white"/>
<path d="M317.797 99.625H319.258L322.984 108.898L326.703 99.625H328.172L323.547 111H322.406L317.797 99.625ZM317.32 99.625H318.609L318.82 106.562V111H317.32V99.625ZM327.352 99.625H328.641V111H327.141V106.562L327.352 99.625ZM334.728 111.156C334.14 111.156 333.606 111.057 333.127 110.859C332.653 110.656 332.244 110.372 331.9 110.008C331.561 109.643 331.301 109.211 331.119 108.711C330.936 108.211 330.845 107.664 330.845 107.07V106.742C330.845 106.055 330.947 105.443 331.15 104.906C331.353 104.365 331.629 103.906 331.978 103.531C332.327 103.156 332.723 102.872 333.166 102.68C333.608 102.487 334.067 102.391 334.541 102.391C335.145 102.391 335.666 102.495 336.103 102.703C336.546 102.911 336.908 103.203 337.189 103.578C337.47 103.948 337.679 104.385 337.814 104.891C337.949 105.391 338.017 105.938 338.017 106.531V107.18H331.705V106H336.572V105.891C336.551 105.516 336.473 105.151 336.337 104.797C336.207 104.443 335.999 104.151 335.712 103.922C335.426 103.693 335.035 103.578 334.541 103.578C334.212 103.578 333.91 103.648 333.634 103.789C333.358 103.924 333.121 104.128 332.923 104.398C332.726 104.669 332.572 105 332.462 105.391C332.353 105.781 332.298 106.232 332.298 106.742V107.07C332.298 107.471 332.353 107.849 332.462 108.203C332.577 108.552 332.741 108.859 332.955 109.125C333.173 109.391 333.436 109.599 333.744 109.75C334.056 109.901 334.41 109.977 334.806 109.977C335.317 109.977 335.749 109.872 336.103 109.664C336.457 109.456 336.767 109.177 337.033 108.828L337.908 109.523C337.726 109.799 337.494 110.062 337.212 110.312C336.931 110.562 336.585 110.766 336.173 110.922C335.767 111.078 335.285 111.156 334.728 111.156ZM341.3 104.352V111H339.855V102.547H341.222L341.3 104.352ZM340.956 106.453L340.355 106.43C340.36 105.852 340.446 105.318 340.612 104.828C340.779 104.333 341.014 103.904 341.316 103.539C341.618 103.174 341.977 102.893 342.394 102.695C342.816 102.492 343.282 102.391 343.792 102.391C344.209 102.391 344.584 102.448 344.917 102.562C345.251 102.672 345.534 102.849 345.769 103.094C346.008 103.339 346.191 103.656 346.316 104.047C346.441 104.432 346.503 104.904 346.503 105.461V111H345.05V105.445C345.05 105.003 344.985 104.648 344.855 104.383C344.724 104.112 344.534 103.917 344.284 103.797C344.034 103.672 343.727 103.609 343.362 103.609C343.003 103.609 342.675 103.685 342.378 103.836C342.086 103.987 341.834 104.195 341.62 104.461C341.412 104.727 341.248 105.031 341.128 105.375C341.014 105.714 340.956 106.073 340.956 106.453ZM354.02 109.047V102.547H355.473V111H354.091L354.02 109.047ZM354.294 107.266L354.895 107.25C354.895 107.812 354.835 108.333 354.716 108.812C354.601 109.286 354.414 109.698 354.153 110.047C353.893 110.396 353.552 110.669 353.13 110.867C352.708 111.06 352.195 111.156 351.591 111.156C351.179 111.156 350.802 111.096 350.458 110.977C350.119 110.857 349.828 110.672 349.583 110.422C349.338 110.172 349.148 109.846 349.013 109.445C348.882 109.044 348.817 108.562 348.817 108V102.547H350.263V108.016C350.263 108.396 350.304 108.711 350.388 108.961C350.476 109.206 350.593 109.401 350.739 109.547C350.89 109.688 351.057 109.786 351.239 109.844C351.427 109.901 351.619 109.93 351.817 109.93C352.432 109.93 352.919 109.812 353.278 109.578C353.638 109.339 353.895 109.018 354.052 108.617C354.213 108.211 354.294 107.76 354.294 107.266ZM363.781 99.625V111H362.273V99.625H363.781ZM369.994 102.547V103.656H365.423V102.547H369.994ZM366.97 100.492H368.416V108.906C368.416 109.193 368.46 109.409 368.548 109.555C368.637 109.701 368.752 109.797 368.892 109.844C369.033 109.891 369.184 109.914 369.345 109.914C369.465 109.914 369.59 109.904 369.72 109.883C369.856 109.857 369.957 109.836 370.025 109.82L370.033 111C369.918 111.036 369.767 111.07 369.58 111.102C369.397 111.138 369.176 111.156 368.916 111.156C368.561 111.156 368.236 111.086 367.939 110.945C367.642 110.805 367.405 110.57 367.228 110.242C367.056 109.909 366.97 109.461 366.97 108.898V100.492ZM375.347 111.156C374.758 111.156 374.224 111.057 373.745 110.859C373.271 110.656 372.862 110.372 372.519 110.008C372.18 109.643 371.92 109.211 371.737 108.711C371.555 108.211 371.464 107.664 371.464 107.07V106.742C371.464 106.055 371.566 105.443 371.769 104.906C371.972 104.365 372.248 103.906 372.597 103.531C372.946 103.156 373.342 102.872 373.784 102.68C374.227 102.487 374.685 102.391 375.159 102.391C375.764 102.391 376.284 102.495 376.722 102.703C377.165 102.911 377.527 103.203 377.808 103.578C378.089 103.948 378.297 104.385 378.433 104.891C378.568 105.391 378.636 105.938 378.636 106.531V107.18H372.323V106H377.191V105.891C377.17 105.516 377.092 105.151 376.956 104.797C376.826 104.443 376.618 104.151 376.331 103.922C376.045 103.693 375.654 103.578 375.159 103.578C374.831 103.578 374.529 103.648 374.253 103.789C373.977 103.924 373.74 104.128 373.542 104.398C373.344 104.669 373.191 105 373.081 105.391C372.972 105.781 372.917 106.232 372.917 106.742V107.07C372.917 107.471 372.972 107.849 373.081 108.203C373.196 108.552 373.36 108.859 373.573 109.125C373.792 109.391 374.055 109.599 374.362 109.75C374.675 109.901 375.029 109.977 375.425 109.977C375.935 109.977 376.368 109.872 376.722 109.664C377.076 109.456 377.386 109.177 377.652 108.828L378.527 109.523C378.344 109.799 378.112 110.062 377.831 110.312C377.55 110.562 377.204 110.766 376.792 110.922C376.386 111.078 375.904 111.156 375.347 111.156ZM381.911 104.227V111H380.458V102.547H381.833L381.911 104.227ZM381.614 106.453L380.942 106.43C380.947 105.852 381.023 105.318 381.169 104.828C381.315 104.333 381.531 103.904 381.817 103.539C382.104 103.174 382.46 102.893 382.888 102.695C383.315 102.492 383.809 102.391 384.372 102.391C384.768 102.391 385.132 102.448 385.466 102.562C385.799 102.672 386.088 102.846 386.333 103.086C386.578 103.326 386.768 103.633 386.903 104.008C387.039 104.383 387.106 104.836 387.106 105.367V111H385.661V105.438C385.661 104.995 385.585 104.641 385.434 104.375C385.289 104.109 385.08 103.917 384.809 103.797C384.539 103.672 384.221 103.609 383.856 103.609C383.429 103.609 383.072 103.685 382.786 103.836C382.499 103.987 382.27 104.195 382.098 104.461C381.927 104.727 381.802 105.031 381.723 105.375C381.651 105.714 381.614 106.073 381.614 106.453ZM387.091 105.656L386.122 105.953C386.127 105.49 386.203 105.044 386.348 104.617C386.499 104.19 386.716 103.81 386.997 103.477C387.283 103.143 387.635 102.88 388.052 102.688C388.468 102.49 388.945 102.391 389.481 102.391C389.934 102.391 390.335 102.451 390.684 102.57C391.039 102.69 391.335 102.875 391.575 103.125C391.82 103.37 392.005 103.685 392.13 104.07C392.255 104.456 392.317 104.914 392.317 105.445V111H390.864V105.43C390.864 104.956 390.789 104.589 390.638 104.328C390.492 104.062 390.283 103.878 390.013 103.773C389.747 103.664 389.429 103.609 389.059 103.609C388.742 103.609 388.46 103.664 388.216 103.773C387.971 103.883 387.765 104.034 387.598 104.227C387.432 104.414 387.304 104.63 387.216 104.875C387.132 105.12 387.091 105.38 387.091 105.656Z" fill="black" fill-opacity="0.87"/>
<path d="M317.797 135.625H319.258L322.984 144.898L326.703 135.625H328.172L323.547 147H322.406L317.797 135.625ZM317.32 135.625H318.609L318.82 142.562V147H317.32V135.625ZM327.352 135.625H328.641V147H327.141V142.562L327.352 135.625ZM334.728 147.156C334.14 147.156 333.606 147.057 333.127 146.859C332.653 146.656 332.244 146.372 331.9 146.008C331.561 145.643 331.301 145.211 331.119 144.711C330.936 144.211 330.845 143.664 330.845 143.07V142.742C330.845 142.055 330.947 141.443 331.15 140.906C331.353 140.365 331.629 139.906 331.978 139.531C332.327 139.156 332.723 138.872 333.166 138.68C333.608 138.487 334.067 138.391 334.541 138.391C335.145 138.391 335.666 138.495 336.103 138.703C336.546 138.911 336.908 139.203 337.189 139.578C337.47 139.948 337.679 140.385 337.814 140.891C337.949 141.391 338.017 141.938 338.017 142.531V143.18H331.705V142H336.572V141.891C336.551 141.516 336.473 141.151 336.337 140.797C336.207 140.443 335.999 140.151 335.712 139.922C335.426 139.693 335.035 139.578 334.541 139.578C334.212 139.578 333.91 139.648 333.634 139.789C333.358 139.924 333.121 140.128 332.923 140.398C332.726 140.669 332.572 141 332.462 141.391C332.353 141.781 332.298 142.232 332.298 142.742V143.07C332.298 143.471 332.353 143.849 332.462 144.203C332.577 144.552 332.741 144.859 332.955 145.125C333.173 145.391 333.436 145.599 333.744 145.75C334.056 145.901 334.41 145.977 334.806 145.977C335.317 145.977 335.749 145.872 336.103 145.664C336.457 145.456 336.767 145.177 337.033 144.828L337.908 145.523C337.726 145.799 337.494 146.062 337.212 146.312C336.931 146.562 336.585 146.766 336.173 146.922C335.767 147.078 335.285 147.156 334.728 147.156ZM341.3 140.352V147H339.855V138.547H341.222L341.3 140.352ZM340.956 142.453L340.355 142.43C340.36 141.852 340.446 141.318 340.612 140.828C340.779 140.333 341.014 139.904 341.316 139.539C341.618 139.174 341.977 138.893 342.394 138.695C342.816 138.492 343.282 138.391 343.792 138.391C344.209 138.391 344.584 138.448 344.917 138.562C345.251 138.672 345.534 138.849 345.769 139.094C346.008 139.339 346.191 139.656 346.316 140.047C346.441 140.432 346.503 140.904 346.503 141.461V147H345.05V141.445C345.05 141.003 344.985 140.648 344.855 140.383C344.724 140.112 344.534 139.917 344.284 139.797C344.034 139.672 343.727 139.609 343.362 139.609C343.003 139.609 342.675 139.685 342.378 139.836C342.086 139.987 341.834 140.195 341.62 140.461C341.412 140.727 341.248 141.031 341.128 141.375C341.014 141.714 340.956 142.073 340.956 142.453ZM354.02 145.047V138.547H355.473V147H354.091L354.02 145.047ZM354.294 143.266L354.895 143.25C354.895 143.812 354.835 144.333 354.716 144.812C354.601 145.286 354.414 145.698 354.153 146.047C353.893 146.396 353.552 146.669 353.13 146.867C352.708 147.06 352.195 147.156 351.591 147.156C351.179 147.156 350.802 147.096 350.458 146.977C350.119 146.857 349.828 146.672 349.583 146.422C349.338 146.172 349.148 145.846 349.013 145.445C348.882 145.044 348.817 144.562 348.817 144V138.547H350.263V144.016C350.263 144.396 350.304 144.711 350.388 144.961C350.476 145.206 350.593 145.401 350.739 145.547C350.89 145.688 351.057 145.786 351.239 145.844C351.427 145.901 351.619 145.93 351.817 145.93C352.432 145.93 352.919 145.812 353.278 145.578C353.638 145.339 353.895 145.018 354.052 144.617C354.213 144.211 354.294 143.76 354.294 143.266ZM363.781 135.625V147H362.273V135.625H363.781ZM369.994 138.547V139.656H365.423V138.547H369.994ZM366.97 136.492H368.416V144.906C368.416 145.193 368.46 145.409 368.548 145.555C368.637 145.701 368.752 145.797 368.892 145.844C369.033 145.891 369.184 145.914 369.345 145.914C369.465 145.914 369.59 145.904 369.72 145.883C369.856 145.857 369.957 145.836 370.025 145.82L370.033 147C369.918 147.036 369.767 147.07 369.58 147.102C369.397 147.138 369.176 147.156 368.916 147.156C368.561 147.156 368.236 147.086 367.939 146.945C367.642 146.805 367.405 146.57 367.228 146.242C367.056 145.909 366.97 145.461 366.97 144.898V136.492ZM375.347 147.156C374.758 147.156 374.224 147.057 373.745 146.859C373.271 146.656 372.862 146.372 372.519 146.008C372.18 145.643 371.92 145.211 371.737 144.711C371.555 144.211 371.464 143.664 371.464 143.07V142.742C371.464 142.055 371.566 141.443 371.769 140.906C371.972 140.365 372.248 139.906 372.597 139.531C372.946 139.156 373.342 138.872 373.784 138.68C374.227 138.487 374.685 138.391 375.159 138.391C375.764 138.391 376.284 138.495 376.722 138.703C377.165 138.911 377.527 139.203 377.808 139.578C378.089 139.948 378.297 140.385 378.433 140.891C378.568 141.391 378.636 141.938 378.636 142.531V143.18H372.323V142H377.191V141.891C377.17 141.516 377.092 141.151 376.956 140.797C376.826 140.443 376.618 140.151 376.331 139.922C376.045 139.693 375.654 139.578 375.159 139.578C374.831 139.578 374.529 139.648 374.253 139.789C373.977 139.924 373.74 140.128 373.542 140.398C373.344 140.669 373.191 141 373.081 141.391C372.972 141.781 372.917 142.232 372.917 142.742V143.07C372.917 143.471 372.972 143.849 373.081 144.203C373.196 144.552 373.36 144.859 373.573 145.125C373.792 145.391 374.055 145.599 374.362 145.75C374.675 145.901 375.029 145.977 375.425 145.977C375.935 145.977 376.368 145.872 376.722 145.664C377.076 145.456 377.386 145.177 377.652 144.828L378.527 145.523C378.344 145.799 378.112 146.062 377.831 146.312C377.55 146.562 377.204 146.766 376.792 146.922C376.386 147.078 375.904 147.156 375.347 147.156ZM381.911 140.227V147H380.458V138.547H381.833L381.911 140.227ZM381.614 142.453L380.942 142.43C380.947 141.852 381.023 141.318 381.169 140.828C381.315 140.333 381.531 139.904 381.817 139.539C382.104 139.174 382.46 138.893 382.888 138.695C383.315 138.492 383.809 138.391 384.372 138.391C384.768 138.391 385.132 138.448 385.466 138.562C385.799 138.672 386.088 138.846 386.333 139.086C386.578 139.326 386.768 139.633 386.903 140.008C387.039 140.383 387.106 140.836 387.106 141.367V147H385.661V141.438C385.661 140.995 385.585 140.641 385.434 140.375C385.289 140.109 385.08 139.917 384.809 139.797C384.539 139.672 384.221 139.609 383.856 139.609C383.429 139.609 383.072 139.685 382.786 139.836C382.499 139.987 382.27 140.195 382.098 140.461C381.927 140.727 381.802 141.031 381.723 141.375C381.651 141.714 381.614 142.073 381.614 142.453ZM387.091 141.656L386.122 141.953C386.127 141.49 386.203 141.044 386.348 140.617C386.499 140.19 386.716 139.81 386.997 139.477C387.283 139.143 387.635 138.88 388.052 138.688C388.468 138.49 388.945 138.391 389.481 138.391C389.934 138.391 390.335 138.451 390.684 138.57C391.039 138.69 391.335 138.875 391.575 139.125C391.82 139.37 392.005 139.685 392.13 140.07C392.255 140.456 392.317 140.914 392.317 141.445V147H390.864V141.43C390.864 140.956 390.789 140.589 390.638 140.328C390.492 140.062 390.283 139.878 390.013 139.773C389.747 139.664 389.429 139.609 389.059 139.609C388.742 139.609 388.46 139.664 388.216 139.773C387.971 139.883 387.765 140.034 387.598 140.227C387.432 140.414 387.304 140.63 387.216 140.875C387.132 141.12 387.091 141.38 387.091 141.656Z" fill="black" fill-opacity="0.87"/>
<path d="M317.797 171.625H319.258L322.984 180.898L326.703 171.625H328.172L323.547 183H322.406L317.797 171.625ZM317.32 171.625H318.609L318.82 178.562V183H317.32V171.625ZM327.352 171.625H328.641V183H327.141V178.562L327.352 171.625ZM334.728 183.156C334.14 183.156 333.606 183.057 333.127 182.859C332.653 182.656 332.244 182.372 331.9 182.008C331.561 181.643 331.301 181.211 331.119 180.711C330.936 180.211 330.845 179.664 330.845 179.07V178.742C330.845 178.055 330.947 177.443 331.15 176.906C331.353 176.365 331.629 175.906 331.978 175.531C332.327 175.156 332.723 174.872 333.166 174.68C333.608 174.487 334.067 174.391 334.541 174.391C335.145 174.391 335.666 174.495 336.103 174.703C336.546 174.911 336.908 175.203 337.189 175.578C337.47 175.948 337.679 176.385 337.814 176.891C337.949 177.391 338.017 177.938 338.017 178.531V179.18H331.705V178H336.572V177.891C336.551 177.516 336.473 177.151 336.337 176.797C336.207 176.443 335.999 176.151 335.712 175.922C335.426 175.693 335.035 175.578 334.541 175.578C334.212 175.578 333.91 175.648 333.634 175.789C333.358 175.924 333.121 176.128 332.923 176.398C332.726 176.669 332.572 177 332.462 177.391C332.353 177.781 332.298 178.232 332.298 178.742V179.07C332.298 179.471 332.353 179.849 332.462 180.203C332.577 180.552 332.741 180.859 332.955 181.125C333.173 181.391 333.436 181.599 333.744 181.75C334.056 181.901 334.41 181.977 334.806 181.977C335.317 181.977 335.749 181.872 336.103 181.664C336.457 181.456 336.767 181.177 337.033 180.828L337.908 181.523C337.726 181.799 337.494 182.062 337.212 182.312C336.931 182.562 336.585 182.766 336.173 182.922C335.767 183.078 335.285 183.156 334.728 183.156ZM341.3 176.352V183H339.855V174.547H341.222L341.3 176.352ZM340.956 178.453L340.355 178.43C340.36 177.852 340.446 177.318 340.612 176.828C340.779 176.333 341.014 175.904 341.316 175.539C341.618 175.174 341.977 174.893 342.394 174.695C342.816 174.492 343.282 174.391 343.792 174.391C344.209 174.391 344.584 174.448 344.917 174.562C345.251 174.672 345.534 174.849 345.769 175.094C346.008 175.339 346.191 175.656 346.316 176.047C346.441 176.432 346.503 176.904 346.503 177.461V183H345.05V177.445C345.05 177.003 344.985 176.648 344.855 176.383C344.724 176.112 344.534 175.917 344.284 175.797C344.034 175.672 343.727 175.609 343.362 175.609C343.003 175.609 342.675 175.685 342.378 175.836C342.086 175.987 341.834 176.195 341.62 176.461C341.412 176.727 341.248 177.031 341.128 177.375C341.014 177.714 340.956 178.073 340.956 178.453ZM354.02 181.047V174.547H355.473V183H354.091L354.02 181.047ZM354.294 179.266L354.895 179.25C354.895 179.812 354.835 180.333 354.716 180.812C354.601 181.286 354.414 181.698 354.153 182.047C353.893 182.396 353.552 182.669 353.13 182.867C352.708 183.06 352.195 183.156 351.591 183.156C351.179 183.156 350.802 183.096 350.458 182.977C350.119 182.857 349.828 182.672 349.583 182.422C349.338 182.172 349.148 181.846 349.013 181.445C348.882 181.044 348.817 180.562 348.817 180V174.547H350.263V180.016C350.263 180.396 350.304 180.711 350.388 180.961C350.476 181.206 350.593 181.401 350.739 181.547C350.89 181.688 351.057 181.786 351.239 181.844C351.427 181.901 351.619 181.93 351.817 181.93C352.432 181.93 352.919 181.812 353.278 181.578C353.638 181.339 353.895 181.018 354.052 180.617C354.213 180.211 354.294 179.76 354.294 179.266ZM363.781 171.625V183H362.273V171.625H363.781ZM369.994 174.547V175.656H365.423V174.547H369.994ZM366.97 172.492H368.416V180.906C368.416 181.193 368.46 181.409 368.548 181.555C368.637 181.701 368.752 181.797 368.892 181.844C369.033 181.891 369.184 181.914 369.345 181.914C369.465 181.914 369.59 181.904 369.72 181.883C369.856 181.857 369.957 181.836 370.025 181.82L370.033 183C369.918 183.036 369.767 183.07 369.58 183.102C369.397 183.138 369.176 183.156 368.916 183.156C368.561 183.156 368.236 183.086 367.939 182.945C367.642 182.805 367.405 182.57 367.228 182.242C367.056 181.909 366.97 181.461 366.97 180.898V172.492ZM375.347 183.156C374.758 183.156 374.224 183.057 373.745 182.859C373.271 182.656 372.862 182.372 372.519 182.008C372.18 181.643 371.92 181.211 371.737 180.711C371.555 180.211 371.464 179.664 371.464 179.07V178.742C371.464 178.055 371.566 177.443 371.769 176.906C371.972 176.365 372.248 175.906 372.597 175.531C372.946 175.156 373.342 174.872 373.784 174.68C374.227 174.487 374.685 174.391 375.159 174.391C375.764 174.391 376.284 174.495 376.722 174.703C377.165 174.911 377.527 175.203 377.808 175.578C378.089 175.948 378.297 176.385 378.433 176.891C378.568 177.391 378.636 177.938 378.636 178.531V179.18H372.323V178H377.191V177.891C377.17 177.516 377.092 177.151 376.956 176.797C376.826 176.443 376.618 176.151 376.331 175.922C376.045 175.693 375.654 175.578 375.159 175.578C374.831 175.578 374.529 175.648 374.253 175.789C373.977 175.924 373.74 176.128 373.542 176.398C373.344 176.669 373.191 177 373.081 177.391C372.972 177.781 372.917 178.232 372.917 178.742V179.07C372.917 179.471 372.972 179.849 373.081 180.203C373.196 180.552 373.36 180.859 373.573 181.125C373.792 181.391 374.055 181.599 374.362 181.75C374.675 181.901 375.029 181.977 375.425 181.977C375.935 181.977 376.368 181.872 376.722 181.664C377.076 181.456 377.386 181.177 377.652 180.828L378.527 181.523C378.344 181.799 378.112 182.062 377.831 182.312C377.55 182.562 377.204 182.766 376.792 182.922C376.386 183.078 375.904 183.156 375.347 183.156ZM381.911 176.227V183H380.458V174.547H381.833L381.911 176.227ZM381.614 178.453L380.942 178.43C380.947 177.852 381.023 177.318 381.169 176.828C381.315 176.333 381.531 175.904 381.817 175.539C382.104 175.174 382.46 174.893 382.888 174.695C383.315 174.492 383.809 174.391 384.372 174.391C384.768 174.391 385.132 174.448 385.466 174.562C385.799 174.672 386.088 174.846 386.333 175.086C386.578 175.326 386.768 175.633 386.903 176.008C387.039 176.383 387.106 176.836 387.106 177.367V183H385.661V177.438C385.661 176.995 385.585 176.641 385.434 176.375C385.289 176.109 385.08 175.917 384.809 175.797C384.539 175.672 384.221 175.609 383.856 175.609C383.429 175.609 383.072 175.685 382.786 175.836C382.499 175.987 382.27 176.195 382.098 176.461C381.927 176.727 381.802 177.031 381.723 177.375C381.651 177.714 381.614 178.073 381.614 178.453ZM387.091 177.656L386.122 177.953C386.127 177.49 386.203 177.044 386.348 176.617C386.499 176.19 386.716 175.81 386.997 175.477C387.283 175.143 387.635 174.88 388.052 174.688C388.468 174.49 388.945 174.391 389.481 174.391C389.934 174.391 390.335 174.451 390.684 174.57C391.039 174.69 391.335 174.875 391.575 175.125C391.82 175.37 392.005 175.685 392.13 176.07C392.255 176.456 392.317 176.914 392.317 177.445V183H390.864V177.43C390.864 176.956 390.789 176.589 390.638 176.328C390.492 176.062 390.283 175.878 390.013 175.773C389.747 175.664 389.429 175.609 389.059 175.609C388.742 175.609 388.46 175.664 388.216 175.773C387.971 175.883 387.765 176.034 387.598 176.227C387.432 176.414 387.304 176.63 387.216 176.875C387.132 177.12 387.091 177.38 387.091 177.656Z" fill="black" fill-opacity="0.87"/>
</g>
</g>
<g clip-path="url(#clip1_1412_16234)">
<rect x="300" y="80" width="220" height="124" rx="4" fill="white"/>
<path d="M317.797 99.625H319.258L322.984 108.898L326.703 99.625H328.172L323.547 111H322.406L317.797 99.625ZM317.32 99.625H318.609L318.82 106.562V111H317.32V99.625ZM327.352 99.625H328.641V111H327.141V106.562L327.352 99.625ZM334.728 111.156C334.14 111.156 333.606 111.057 333.127 110.859C332.653 110.656 332.244 110.372 331.9 110.008C331.561 109.643 331.301 109.211 331.119 108.711C330.936 108.211 330.845 107.664 330.845 107.07V106.742C330.845 106.055 330.947 105.443 331.15 104.906C331.353 104.365 331.629 103.906 331.978 103.531C332.327 103.156 332.723 102.872 333.166 102.68C333.608 102.487 334.067 102.391 334.541 102.391C335.145 102.391 335.666 102.495 336.103 102.703C336.546 102.911 336.908 103.203 337.189 103.578C337.47 103.948 337.679 104.385 337.814 104.891C337.949 105.391 338.017 105.938 338.017 106.531V107.18H331.705V106H336.572V105.891C336.551 105.516 336.473 105.151 336.337 104.797C336.207 104.443 335.999 104.151 335.712 103.922C335.426 103.693 335.035 103.578 334.541 103.578C334.212 103.578 333.91 103.648 333.634 103.789C333.358 103.924 333.121 104.128 332.923 104.398C332.726 104.669 332.572 105 332.462 105.391C332.353 105.781 332.298 106.232 332.298 106.742V107.07C332.298 107.471 332.353 107.849 332.462 108.203C332.577 108.552 332.741 108.859 332.955 109.125C333.173 109.391 333.436 109.599 333.744 109.75C334.056 109.901 334.41 109.977 334.806 109.977C335.317 109.977 335.749 109.872 336.103 109.664C336.457 109.456 336.767 109.177 337.033 108.828L337.908 109.523C337.726 109.799 337.494 110.062 337.212 110.312C336.931 110.562 336.585 110.766 336.173 110.922C335.767 111.078 335.285 111.156 334.728 111.156ZM341.3 104.352V111H339.855V102.547H341.222L341.3 104.352ZM340.956 106.453L340.355 106.43C340.36 105.852 340.446 105.318 340.612 104.828C340.779 104.333 341.014 103.904 341.316 103.539C341.618 103.174 341.977 102.893 342.394 102.695C342.816 102.492 343.282 102.391 343.792 102.391C344.209 102.391 344.584 102.448 344.917 102.562C345.251 102.672 345.534 102.849 345.769 103.094C346.008 103.339 346.191 103.656 346.316 104.047C346.441 104.432 346.503 104.904 346.503 105.461V111H345.05V105.445C345.05 105.003 344.985 104.648 344.855 104.383C344.724 104.112 344.534 103.917 344.284 103.797C344.034 103.672 343.727 103.609 343.362 103.609C343.003 103.609 342.675 103.685 342.378 103.836C342.086 103.987 341.834 104.195 341.62 104.461C341.412 104.727 341.248 105.031 341.128 105.375C341.014 105.714 340.956 106.073 340.956 106.453ZM354.02 109.047V102.547H355.473V111H354.091L354.02 109.047ZM354.294 107.266L354.895 107.25C354.895 107.812 354.835 108.333 354.716 108.812C354.601 109.286 354.414 109.698 354.153 110.047C353.893 110.396 353.552 110.669 353.13 110.867C352.708 111.06 352.195 111.156 351.591 111.156C351.179 111.156 350.802 111.096 350.458 110.977C350.119 110.857 349.828 110.672 349.583 110.422C349.338 110.172 349.148 109.846 349.013 109.445C348.882 109.044 348.817 108.562 348.817 108V102.547H350.263V108.016C350.263 108.396 350.304 108.711 350.388 108.961C350.476 109.206 350.593 109.401 350.739 109.547C350.89 109.688 351.057 109.786 351.239 109.844C351.427 109.901 351.619 109.93 351.817 109.93C352.432 109.93 352.919 109.812 353.278 109.578C353.638 109.339 353.895 109.018 354.052 108.617C354.213 108.211 354.294 107.76 354.294 107.266ZM363.781 99.625V111H362.273V99.625H363.781ZM369.994 102.547V103.656H365.423V102.547H369.994ZM366.97 100.492H368.416V108.906C368.416 109.193 368.46 109.409 368.548 109.555C368.637 109.701 368.752 109.797 368.892 109.844C369.033 109.891 369.184 109.914 369.345 109.914C369.465 109.914 369.59 109.904 369.72 109.883C369.856 109.857 369.957 109.836 370.025 109.82L370.033 111C369.918 111.036 369.767 111.07 369.58 111.102C369.397 111.138 369.176 111.156 368.916 111.156C368.561 111.156 368.236 111.086 367.939 110.945C367.642 110.805 367.405 110.57 367.228 110.242C367.056 109.909 366.97 109.461 366.97 108.898V100.492ZM375.347 111.156C374.758 111.156 374.224 111.057 373.745 110.859C373.271 110.656 372.862 110.372 372.519 110.008C372.18 109.643 371.92 109.211 371.737 108.711C371.555 108.211 371.464 107.664 371.464 107.07V106.742C371.464 106.055 371.566 105.443 371.769 104.906C371.972 104.365 372.248 103.906 372.597 103.531C372.946 103.156 373.342 102.872 373.784 102.68C374.227 102.487 374.685 102.391 375.159 102.391C375.764 102.391 376.284 102.495 376.722 102.703C377.165 102.911 377.527 103.203 377.808 103.578C378.089 103.948 378.297 104.385 378.433 104.891C378.568 105.391 378.636 105.938 378.636 106.531V107.18H372.323V106H377.191V105.891C377.17 105.516 377.092 105.151 376.956 104.797C376.826 104.443 376.618 104.151 376.331 103.922C376.045 103.693 375.654 103.578 375.159 103.578C374.831 103.578 374.529 103.648 374.253 103.789C373.977 103.924 373.74 104.128 373.542 104.398C373.344 104.669 373.191 105 373.081 105.391C372.972 105.781 372.917 106.232 372.917 106.742V107.07C372.917 107.471 372.972 107.849 373.081 108.203C373.196 108.552 373.36 108.859 373.573 109.125C373.792 109.391 374.055 109.599 374.362 109.75C374.675 109.901 375.029 109.977 375.425 109.977C375.935 109.977 376.368 109.872 376.722 109.664C377.076 109.456 377.386 109.177 377.652 108.828L378.527 109.523C378.344 109.799 378.112 110.062 377.831 110.312C377.55 110.562 377.204 110.766 376.792 110.922C376.386 111.078 375.904 111.156 375.347 111.156ZM381.911 104.227V111H380.458V102.547H381.833L381.911 104.227ZM381.614 106.453L380.942 106.43C380.947 105.852 381.023 105.318 381.169 104.828C381.315 104.333 381.531 103.904 381.817 103.539C382.104 103.174 382.46 102.893 382.888 102.695C383.315 102.492 383.809 102.391 384.372 102.391C384.768 102.391 385.132 102.448 385.466 102.562C385.799 102.672 386.088 102.846 386.333 103.086C386.578 103.326 386.768 103.633 386.903 104.008C387.039 104.383 387.106 104.836 387.106 105.367V111H385.661V105.438C385.661 104.995 385.585 104.641 385.434 104.375C385.289 104.109 385.08 103.917 384.809 103.797C384.539 103.672 384.221 103.609 383.856 103.609C383.429 103.609 383.072 103.685 382.786 103.836C382.499 103.987 382.27 104.195 382.098 104.461C381.927 104.727 381.802 105.031 381.723 105.375C381.651 105.714 381.614 106.073 381.614 106.453ZM387.091 105.656L386.122 105.953C386.127 105.49 386.203 105.044 386.348 104.617C386.499 104.19 386.716 103.81 386.997 103.477C387.283 103.143 387.635 102.88 388.052 102.688C388.468 102.49 388.945 102.391 389.481 102.391C389.934 102.391 390.335 102.451 390.684 102.57C391.039 102.69 391.335 102.875 391.575 103.125C391.82 103.37 392.005 103.685 392.13 104.07C392.255 104.456 392.317 104.914 392.317 105.445V111H390.864V105.43C390.864 104.956 390.789 104.589 390.638 104.328C390.492 104.062 390.283 103.878 390.013 103.773C389.747 103.664 389.429 103.609 389.059 103.609C388.742 103.609 388.46 103.664 388.216 103.773C387.971 103.883 387.765 104.034 387.598 104.227C387.432 104.414 387.304 104.63 387.216 104.875C387.132 105.12 387.091 105.38 387.091 105.656Z" fill="black" fill-opacity="0.87"/>
<rect x="300.25" y="123.25" width="219.5" height="0.5" stroke="black" stroke-opacity="0.12" stroke-width="0.5"/>
<path d="M317.797 135.625H319.258L322.984 144.898L326.703 135.625H328.172L323.547 147H322.406L317.797 135.625ZM317.32 135.625H318.609L318.82 142.562V147H317.32V135.625ZM327.352 135.625H328.641V147H327.141V142.562L327.352 135.625ZM334.728 147.156C334.14 147.156 333.606 147.057 333.127 146.859C332.653 146.656 332.244 146.372 331.9 146.008C331.561 145.643 331.301 145.211 331.119 144.711C330.936 144.211 330.845 143.664 330.845 143.07V142.742C330.845 142.055 330.947 141.443 331.15 140.906C331.353 140.365 331.629 139.906 331.978 139.531C332.327 139.156 332.723 138.872 333.166 138.68C333.608 138.487 334.067 138.391 334.541 138.391C335.145 138.391 335.666 138.495 336.103 138.703C336.546 138.911 336.908 139.203 337.189 139.578C337.47 139.948 337.679 140.385 337.814 140.891C337.949 141.391 338.017 141.938 338.017 142.531V143.18H331.705V142H336.572V141.891C336.551 141.516 336.473 141.151 336.337 140.797C336.207 140.443 335.999 140.151 335.712 139.922C335.426 139.693 335.035 139.578 334.541 139.578C334.212 139.578 333.91 139.648 333.634 139.789C333.358 139.924 333.121 140.128 332.923 140.398C332.726 140.669 332.572 141 332.462 141.391C332.353 141.781 332.298 142.232 332.298 142.742V143.07C332.298 143.471 332.353 143.849 332.462 144.203C332.577 144.552 332.741 144.859 332.955 145.125C333.173 145.391 333.436 145.599 333.744 145.75C334.056 145.901 334.41 145.977 334.806 145.977C335.317 145.977 335.749 145.872 336.103 145.664C336.457 145.456 336.767 145.177 337.033 144.828L337.908 145.523C337.726 145.799 337.494 146.062 337.212 146.312C336.931 146.562 336.585 146.766 336.173 146.922C335.767 147.078 335.285 147.156 334.728 147.156ZM341.3 140.352V147H339.855V138.547H341.222L341.3 140.352ZM340.956 142.453L340.355 142.43C340.36 141.852 340.446 141.318 340.612 140.828C340.779 140.333 341.014 139.904 341.316 139.539C341.618 139.174 341.977 138.893 342.394 138.695C342.816 138.492 343.282 138.391 343.792 138.391C344.209 138.391 344.584 138.448 344.917 138.562C345.251 138.672 345.534 138.849 345.769 139.094C346.008 139.339 346.191 139.656 346.316 140.047C346.441 140.432 346.503 140.904 346.503 141.461V147H345.05V141.445C345.05 141.003 344.985 140.648 344.855 140.383C344.724 140.112 344.534 139.917 344.284 139.797C344.034 139.672 343.727 139.609 343.362 139.609C343.003 139.609 342.675 139.685 342.378 139.836C342.086 139.987 341.834 140.195 341.62 140.461C341.412 140.727 341.248 141.031 341.128 141.375C341.014 141.714 340.956 142.073 340.956 142.453ZM354.02 145.047V138.547H355.473V147H354.091L354.02 145.047ZM354.294 143.266L354.895 143.25C354.895 143.812 354.835 144.333 354.716 144.812C354.601 145.286 354.414 145.698 354.153 146.047C353.893 146.396 353.552 146.669 353.13 146.867C352.708 147.06 352.195 147.156 351.591 147.156C351.179 147.156 350.802 147.096 350.458 146.977C350.119 146.857 349.828 146.672 349.583 146.422C349.338 146.172 349.148 145.846 349.013 145.445C348.882 145.044 348.817 144.562 348.817 144V138.547H350.263V144.016C350.263 144.396 350.304 144.711 350.388 144.961C350.476 145.206 350.593 145.401 350.739 145.547C350.89 145.688 351.057 145.786 351.239 145.844C351.427 145.901 351.619 145.93 351.817 145.93C352.432 145.93 352.919 145.812 353.278 145.578C353.638 145.339 353.895 145.018 354.052 144.617C354.213 144.211 354.294 143.76 354.294 143.266ZM363.781 135.625V147H362.273V135.625H363.781ZM369.994 138.547V139.656H365.423V138.547H369.994ZM366.97 136.492H368.416V144.906C368.416 145.193 368.46 145.409 368.548 145.555C368.637 145.701 368.752 145.797 368.892 145.844C369.033 145.891 369.184 145.914 369.345 145.914C369.465 145.914 369.59 145.904 369.72 145.883C369.856 145.857 369.957 145.836 370.025 145.82L370.033 147C369.918 147.036 369.767 147.07 369.58 147.102C369.397 147.138 369.176 147.156 368.916 147.156C368.561 147.156 368.236 147.086 367.939 146.945C367.642 146.805 367.405 146.57 367.228 146.242C367.056 145.909 366.97 145.461 366.97 144.898V136.492ZM375.347 147.156C374.758 147.156 374.224 147.057 373.745 146.859C373.271 146.656 372.862 146.372 372.519 146.008C372.18 145.643 371.92 145.211 371.737 144.711C371.555 144.211 371.464 143.664 371.464 143.07V142.742C371.464 142.055 371.566 141.443 371.769 140.906C371.972 140.365 372.248 139.906 372.597 139.531C372.946 139.156 373.342 138.872 373.784 138.68C374.227 138.487 374.685 138.391 375.159 138.391C375.764 138.391 376.284 138.495 376.722 138.703C377.165 138.911 377.527 139.203 377.808 139.578C378.089 139.948 378.297 140.385 378.433 140.891C378.568 141.391 378.636 141.938 378.636 142.531V143.18H372.323V142H377.191V141.891C377.17 141.516 377.092 141.151 376.956 140.797C376.826 140.443 376.618 140.151 376.331 139.922C376.045 139.693 375.654 139.578 375.159 139.578C374.831 139.578 374.529 139.648 374.253 139.789C373.977 139.924 373.74 140.128 373.542 140.398C373.344 140.669 373.191 141 373.081 141.391C372.972 141.781 372.917 142.232 372.917 142.742V143.07C372.917 143.471 372.972 143.849 373.081 144.203C373.196 144.552 373.36 144.859 373.573 145.125C373.792 145.391 374.055 145.599 374.362 145.75C374.675 145.901 375.029 145.977 375.425 145.977C375.935 145.977 376.368 145.872 376.722 145.664C377.076 145.456 377.386 145.177 377.652 144.828L378.527 145.523C378.344 145.799 378.112 146.062 377.831 146.312C377.55 146.562 377.204 146.766 376.792 146.922C376.386 147.078 375.904 147.156 375.347 147.156ZM381.911 140.227V147H380.458V138.547H381.833L381.911 140.227ZM381.614 142.453L380.942 142.43C380.947 141.852 381.023 141.318 381.169 140.828C381.315 140.333 381.531 139.904 381.817 139.539C382.104 139.174 382.46 138.893 382.888 138.695C383.315 138.492 383.809 138.391 384.372 138.391C384.768 138.391 385.132 138.448 385.466 138.562C385.799 138.672 386.088 138.846 386.333 139.086C386.578 139.326 386.768 139.633 386.903 140.008C387.039 140.383 387.106 140.836 387.106 141.367V147H385.661V141.438C385.661 140.995 385.585 140.641 385.434 140.375C385.289 140.109 385.08 139.917 384.809 139.797C384.539 139.672 384.221 139.609 383.856 139.609C383.429 139.609 383.072 139.685 382.786 139.836C382.499 139.987 382.27 140.195 382.098 140.461C381.927 140.727 381.802 141.031 381.723 141.375C381.651 141.714 381.614 142.073 381.614 142.453ZM387.091 141.656L386.122 141.953C386.127 141.49 386.203 141.044 386.348 140.617C386.499 140.19 386.716 139.81 386.997 139.477C387.283 139.143 387.635 138.88 388.052 138.688C388.468 138.49 388.945 138.391 389.481 138.391C389.934 138.391 390.335 138.451 390.684 138.57C391.039 138.69 391.335 138.875 391.575 139.125C391.82 139.37 392.005 139.685 392.13 140.07C392.255 140.456 392.317 140.914 392.317 141.445V147H390.864V141.43C390.864 140.956 390.789 140.589 390.638 140.328C390.492 140.062 390.283 139.878 390.013 139.773C389.747 139.664 389.429 139.609 389.059 139.609C388.742 139.609 388.46 139.664 388.216 139.773C387.971 139.883 387.765 140.034 387.598 140.227C387.432 140.414 387.304 140.63 387.216 140.875C387.132 141.12 387.091 141.38 387.091 141.656Z" fill="black" fill-opacity="0.87"/>
<rect x="300.25" y="159.25" width="219.5" height="0.5" stroke="black" stroke-opacity="0.12" stroke-width="0.5"/>
<path d="M317.797 171.625H319.258L322.984 180.898L326.703 171.625H328.172L323.547 183H322.406L317.797 171.625ZM317.32 171.625H318.609L318.82 178.562V183H317.32V171.625ZM327.352 171.625H328.641V183H327.141V178.562L327.352 171.625ZM334.728 183.156C334.14 183.156 333.606 183.057 333.127 182.859C332.653 182.656 332.244 182.372 331.9 182.008C331.561 181.643 331.301 181.211 331.119 180.711C330.936 180.211 330.845 179.664 330.845 179.07V178.742C330.845 178.055 330.947 177.443 331.15 176.906C331.353 176.365 331.629 175.906 331.978 175.531C332.327 175.156 332.723 174.872 333.166 174.68C333.608 174.487 334.067 174.391 334.541 174.391C335.145 174.391 335.666 174.495 336.103 174.703C336.546 174.911 336.908 175.203 337.189 175.578C337.47 175.948 337.679 176.385 337.814 176.891C337.949 177.391 338.017 177.938 338.017 178.531V179.18H331.705V178H336.572V177.891C336.551 177.516 336.473 177.151 336.337 176.797C336.207 176.443 335.999 176.151 335.712 175.922C335.426 175.693 335.035 175.578 334.541 175.578C334.212 175.578 333.91 175.648 333.634 175.789C333.358 175.924 333.121 176.128 332.923 176.398C332.726 176.669 332.572 177 332.462 177.391C332.353 177.781 332.298 178.232 332.298 178.742V179.07C332.298 179.471 332.353 179.849 332.462 180.203C332.577 180.552 332.741 180.859 332.955 181.125C333.173 181.391 333.436 181.599 333.744 181.75C334.056 181.901 334.41 181.977 334.806 181.977C335.317 181.977 335.749 181.872 336.103 181.664C336.457 181.456 336.767 181.177 337.033 180.828L337.908 181.523C337.726 181.799 337.494 182.062 337.212 182.312C336.931 182.562 336.585 182.766 336.173 182.922C335.767 183.078 335.285 183.156 334.728 183.156ZM341.3 176.352V183H339.855V174.547H341.222L341.3 176.352ZM340.956 178.453L340.355 178.43C340.36 177.852 340.446 177.318 340.612 176.828C340.779 176.333 341.014 175.904 341.316 175.539C341.618 175.174 341.977 174.893 342.394 174.695C342.816 174.492 343.282 174.391 343.792 174.391C344.209 174.391 344.584 174.448 344.917 174.562C345.251 174.672 345.534 174.849 345.769 175.094C346.008 175.339 346.191 175.656 346.316 176.047C346.441 176.432 346.503 176.904 346.503 177.461V183H345.05V177.445C345.05 177.003 344.985 176.648 344.855 176.383C344.724 176.112 344.534 175.917 344.284 175.797C344.034 175.672 343.727 175.609 343.362 175.609C343.003 175.609 342.675 175.685 342.378 175.836C342.086 175.987 341.834 176.195 341.62 176.461C341.412 176.727 341.248 177.031 341.128 177.375C341.014 177.714 340.956 178.073 340.956 178.453ZM354.02 181.047V174.547H355.473V183H354.091L354.02 181.047ZM354.294 179.266L354.895 179.25C354.895 179.812 354.835 180.333 354.716 180.812C354.601 181.286 354.414 181.698 354.153 182.047C353.893 182.396 353.552 182.669 353.13 182.867C352.708 183.06 352.195 183.156 351.591 183.156C351.179 183.156 350.802 183.096 350.458 182.977C350.119 182.857 349.828 182.672 349.583 182.422C349.338 182.172 349.148 181.846 349.013 181.445C348.882 181.044 348.817 180.562 348.817 180V174.547H350.263V180.016C350.263 180.396 350.304 180.711 350.388 180.961C350.476 181.206 350.593 181.401 350.739 181.547C350.89 181.688 351.057 181.786 351.239 181.844C351.427 181.901 351.619 181.93 351.817 181.93C352.432 181.93 352.919 181.812 353.278 181.578C353.638 181.339 353.895 181.018 354.052 180.617C354.213 180.211 354.294 179.76 354.294 179.266ZM363.781 171.625V183H362.273V171.625H363.781ZM369.994 174.547V175.656H365.423V174.547H369.994ZM366.97 172.492H368.416V180.906C368.416 181.193 368.46 181.409 368.548 181.555C368.637 181.701 368.752 181.797 368.892 181.844C369.033 181.891 369.184 181.914 369.345 181.914C369.465 181.914 369.59 181.904 369.72 181.883C369.856 181.857 369.957 181.836 370.025 181.82L370.033 183C369.918 183.036 369.767 183.07 369.58 183.102C369.397 183.138 369.176 183.156 368.916 183.156C368.561 183.156 368.236 183.086 367.939 182.945C367.642 182.805 367.405 182.57 367.228 182.242C367.056 181.909 366.97 181.461 366.97 180.898V172.492ZM375.347 183.156C374.758 183.156 374.224 183.057 373.745 182.859C373.271 182.656 372.862 182.372 372.519 182.008C372.18 181.643 371.92 181.211 371.737 180.711C371.555 180.211 371.464 179.664 371.464 179.07V178.742C371.464 178.055 371.566 177.443 371.769 176.906C371.972 176.365 372.248 175.906 372.597 175.531C372.946 175.156 373.342 174.872 373.784 174.68C374.227 174.487 374.685 174.391 375.159 174.391C375.764 174.391 376.284 174.495 376.722 174.703C377.165 174.911 377.527 175.203 377.808 175.578C378.089 175.948 378.297 176.385 378.433 176.891C378.568 177.391 378.636 177.938 378.636 178.531V179.18H372.323V178H377.191V177.891C377.17 177.516 377.092 177.151 376.956 176.797C376.826 176.443 376.618 176.151 376.331 175.922C376.045 175.693 375.654 175.578 375.159 175.578C374.831 175.578 374.529 175.648 374.253 175.789C373.977 175.924 373.74 176.128 373.542 176.398C373.344 176.669 373.191 177 373.081 177.391C372.972 177.781 372.917 178.232 372.917 178.742V179.07C372.917 179.471 372.972 179.849 373.081 180.203C373.196 180.552 373.36 180.859 373.573 181.125C373.792 181.391 374.055 181.599 374.362 181.75C374.675 181.901 375.029 181.977 375.425 181.977C375.935 181.977 376.368 181.872 376.722 181.664C377.076 181.456 377.386 181.177 377.652 180.828L378.527 181.523C378.344 181.799 378.112 182.062 377.831 182.312C377.55 182.562 377.204 182.766 376.792 182.922C376.386 183.078 375.904 183.156 375.347 183.156ZM381.911 176.227V183H380.458V174.547H381.833L381.911 176.227ZM381.614 178.453L380.942 178.43C380.947 177.852 381.023 177.318 381.169 176.828C381.315 176.333 381.531 175.904 381.817 175.539C382.104 175.174 382.46 174.893 382.888 174.695C383.315 174.492 383.809 174.391 384.372 174.391C384.768 174.391 385.132 174.448 385.466 174.562C385.799 174.672 386.088 174.846 386.333 175.086C386.578 175.326 386.768 175.633 386.903 176.008C387.039 176.383 387.106 176.836 387.106 177.367V183H385.661V177.438C385.661 176.995 385.585 176.641 385.434 176.375C385.289 176.109 385.08 175.917 384.809 175.797C384.539 175.672 384.221 175.609 383.856 175.609C383.429 175.609 383.072 175.685 382.786 175.836C382.499 175.987 382.27 176.195 382.098 176.461C381.927 176.727 381.802 177.031 381.723 177.375C381.651 177.714 381.614 178.073 381.614 178.453ZM387.091 177.656L386.122 177.953C386.127 177.49 386.203 177.044 386.348 176.617C386.499 176.19 386.716 175.81 386.997 175.477C387.283 175.143 387.635 174.88 388.052 174.688C388.468 174.49 388.945 174.391 389.481 174.391C389.934 174.391 390.335 174.451 390.684 174.57C391.039 174.69 391.335 174.875 391.575 175.125C391.82 175.37 392.005 175.685 392.13 176.07C392.255 176.456 392.317 176.914 392.317 177.445V183H390.864V177.43C390.864 176.956 390.789 176.589 390.638 176.328C390.492 176.062 390.283 175.878 390.013 175.773C389.747 175.664 389.429 175.609 389.059 175.609C388.742 175.609 388.46 175.664 388.216 175.773C387.971 175.883 387.765 176.034 387.598 176.227C387.432 176.414 387.304 176.63 387.216 176.875C387.132 177.12 387.091 177.38 387.091 177.656Z" fill="black" fill-opacity="0.87"/>
<rect x="300.25" y="195.25" width="219.5" height="0.5" stroke="black" stroke-opacity="0.12" stroke-width="0.5"/>
</g>
<rect x="56.5" y="24.5" width="219" height="55" rx="3.5" stroke="black" stroke-opacity="0.23"/>
<path d="M72.9922 55.2734L76.3438 45.625H77.9766L73.7656 57H72.6016L72.9922 55.2734ZM69.8594 45.625L73.1797 55.2734L73.5938 57H72.4297L68.2266 45.625H69.8594ZM84.0641 55.5547V51.2031C84.0641 50.8698 83.9964 50.5807 83.8609 50.3359C83.7307 50.0859 83.5328 49.8932 83.2672 49.7578C83.0016 49.6224 82.6734 49.5547 82.2828 49.5547C81.9182 49.5547 81.5979 49.6172 81.3219 49.7422C81.051 49.8672 80.8375 50.0312 80.6812 50.2344C80.5302 50.4375 80.4547 50.6562 80.4547 50.8906H79.0094C79.0094 50.5885 79.0875 50.2891 79.2437 49.9922C79.4 49.6953 79.624 49.4271 79.9156 49.1875C80.2125 48.9427 80.5667 48.75 80.9781 48.6094C81.3948 48.4635 81.8583 48.3906 82.3687 48.3906C82.9833 48.3906 83.525 48.4948 83.9937 48.7031C84.4677 48.9115 84.8375 49.2266 85.1031 49.6484C85.374 50.0651 85.5094 50.5885 85.5094 51.2188V55.1562C85.5094 55.4375 85.5328 55.737 85.5797 56.0547C85.6318 56.3724 85.7073 56.6458 85.8062 56.875V57H84.2984C84.2255 56.8333 84.1682 56.612 84.1266 56.3359C84.0849 56.0547 84.0641 55.7943 84.0641 55.5547ZM84.3141 51.875L84.3297 52.8906H82.8687C82.4573 52.8906 82.0901 52.9245 81.7672 52.9922C81.4443 53.0547 81.1734 53.151 80.9547 53.2812C80.7359 53.4115 80.5693 53.5755 80.4547 53.7734C80.3401 53.9661 80.2828 54.1927 80.2828 54.4531C80.2828 54.7188 80.3427 54.9609 80.4625 55.1797C80.5823 55.3984 80.762 55.5729 81.0016 55.7031C81.2464 55.8281 81.5458 55.8906 81.9 55.8906C82.3427 55.8906 82.7333 55.7969 83.0719 55.6094C83.4104 55.4219 83.6786 55.1927 83.8766 54.9219C84.0797 54.651 84.1891 54.388 84.2047 54.1328L84.8219 54.8281C84.7854 55.0469 84.6865 55.2891 84.525 55.5547C84.3635 55.8203 84.1474 56.0755 83.8766 56.3203C83.6109 56.5599 83.2932 56.7604 82.9234 56.9219C82.5589 57.0781 82.1474 57.1562 81.6891 57.1562C81.1161 57.1562 80.6135 57.0443 80.1812 56.8203C79.7542 56.5964 79.4208 56.2969 79.1812 55.9219C78.9469 55.5417 78.8297 55.1172 78.8297 54.6484C78.8297 54.1953 78.9182 53.7969 79.0953 53.4531C79.2724 53.1042 79.5276 52.8151 79.8609 52.5859C80.1943 52.3516 80.5953 52.1745 81.0641 52.0547C81.5328 51.9349 82.0562 51.875 82.6344 51.875H84.3141ZM89.5031 45V57H88.05V45H89.5031ZM97.1453 55.0469V48.5469H98.5984V57H97.2156L97.1453 55.0469ZM97.4188 53.2656L98.0203 53.25C98.0203 53.8125 97.9604 54.3333 97.8406 54.8125C97.726 55.2865 97.5385 55.6979 97.2781 56.0469C97.0177 56.3958 96.6766 56.6693 96.2547 56.8672C95.8328 57.0599 95.3198 57.1562 94.7156 57.1562C94.3042 57.1562 93.9266 57.0964 93.5828 56.9766C93.2443 56.8568 92.9526 56.6719 92.7078 56.4219C92.463 56.1719 92.2729 55.8464 92.1375 55.4453C92.0073 55.0443 91.9422 54.5625 91.9422 54V48.5469H93.3875V54.0156C93.3875 54.3958 93.4292 54.7109 93.5125 54.9609C93.601 55.2057 93.7182 55.401 93.8641 55.5469C94.0151 55.6875 94.1818 55.7865 94.3641 55.8438C94.5516 55.901 94.7443 55.9297 94.9422 55.9297C95.5568 55.9297 96.0438 55.8125 96.4031 55.5781C96.7625 55.3385 97.0203 55.0182 97.1766 54.6172C97.338 54.2109 97.4188 53.7604 97.4188 53.2656ZM104.459 57.1562C103.871 57.1562 103.337 57.0573 102.858 56.8594C102.384 56.6562 101.975 56.3724 101.631 56.0078C101.293 55.6432 101.032 55.2109 100.85 54.7109C100.668 54.2109 100.577 53.6641 100.577 53.0703V52.7422C100.577 52.0547 100.678 51.4427 100.881 50.9062C101.084 50.3646 101.36 49.9062 101.709 49.5312C102.058 49.1562 102.454 48.8724 102.897 48.6797C103.34 48.487 103.798 48.3906 104.272 48.3906C104.876 48.3906 105.397 48.4948 105.834 48.7031C106.277 48.9115 106.639 49.2031 106.92 49.5781C107.202 49.9479 107.41 50.3854 107.545 50.8906C107.681 51.3906 107.748 51.9375 107.748 52.5312V53.1797H101.436V52H106.303V51.8906C106.282 51.5156 106.204 51.151 106.069 50.7969C105.939 50.4427 105.73 50.151 105.444 49.9219C105.157 49.6927 104.767 49.5781 104.272 49.5781C103.944 49.5781 103.642 49.6484 103.366 49.7891C103.09 49.9245 102.853 50.1276 102.655 50.3984C102.457 50.6693 102.303 51 102.194 51.3906C102.084 51.7812 102.03 52.2318 102.03 52.7422V53.0703C102.03 53.4714 102.084 53.849 102.194 54.2031C102.308 54.5521 102.472 54.8594 102.686 55.125C102.905 55.3906 103.168 55.599 103.475 55.75C103.788 55.901 104.142 55.9766 104.538 55.9766C105.048 55.9766 105.48 55.8724 105.834 55.6641C106.189 55.4557 106.498 55.1771 106.764 54.8281L107.639 55.5234C107.457 55.7995 107.225 56.0625 106.944 56.3125C106.663 56.5625 106.316 56.7656 105.905 56.9219C105.498 57.0781 105.017 57.1562 104.459 57.1562Z" fill="black" fill-opacity="0.87"/>
<path d="M247 49.5L252 54.5L257 49.5H247Z" fill="black" fill-opacity="0.54"/>
<rect width="38" height="2" transform="translate(68 24)" fill="white"/>
<path d="M78.1641 28.0801V29H73.8984V28.0801H78.1641ZM74.1211 20.4688V29H72.9902V20.4688H74.1211ZM83.1832 27.916V24.6523C83.1832 24.4023 83.1324 24.1855 83.0309 24.002C82.9332 23.8145 82.7848 23.6699 82.5855 23.5684C82.3863 23.4668 82.1402 23.416 81.8473 23.416C81.5738 23.416 81.3336 23.4629 81.1266 23.5566C80.9234 23.6504 80.7633 23.7734 80.6461 23.9258C80.5328 24.0781 80.4762 24.2422 80.4762 24.418H79.3922C79.3922 24.1914 79.4508 23.9668 79.568 23.7441C79.6852 23.5215 79.8531 23.3203 80.0719 23.1406C80.2945 22.957 80.5602 22.8125 80.8688 22.707C81.1813 22.5977 81.5289 22.543 81.9117 22.543C82.3727 22.543 82.7789 22.6211 83.1305 22.7773C83.4859 22.9336 83.7633 23.1699 83.9625 23.4863C84.1656 23.7988 84.2672 24.1914 84.2672 24.6641V27.6172C84.2672 27.8281 84.2848 28.0527 84.3199 28.291C84.359 28.5293 84.4156 28.7344 84.4898 28.9062V29H83.359C83.3043 28.875 83.2613 28.709 83.2301 28.502C83.1988 28.291 83.1832 28.0957 83.1832 27.916ZM83.3707 25.1562L83.3824 25.918H82.2867C81.9781 25.918 81.7027 25.9434 81.4605 25.9941C81.2184 26.041 81.0152 26.1133 80.8512 26.2109C80.6871 26.3086 80.5621 26.4316 80.4762 26.5801C80.3902 26.7246 80.3473 26.8945 80.3473 27.0898C80.3473 27.2891 80.3922 27.4707 80.482 27.6348C80.5719 27.7988 80.7066 27.9297 80.8863 28.0273C81.0699 28.1211 81.2945 28.168 81.5602 28.168C81.8922 28.168 82.1852 28.0977 82.4391 27.957C82.693 27.8164 82.8941 27.6445 83.0426 27.4414C83.1949 27.2383 83.277 27.041 83.2887 26.8496L83.7516 27.3711C83.7242 27.5352 83.65 27.7168 83.5289 27.916C83.4078 28.1152 83.2457 28.3066 83.0426 28.4902C82.8434 28.6699 82.6051 28.8203 82.3277 28.9414C82.0543 29.0586 81.7457 29.1172 81.402 29.1172C80.9723 29.1172 80.5953 29.0332 80.2711 28.8652C79.9508 28.6973 79.7008 28.4727 79.5211 28.1914C79.3453 27.9062 79.2574 27.5879 79.2574 27.2363C79.2574 26.8965 79.3238 26.5977 79.4566 26.3398C79.5895 26.0781 79.7809 25.8613 80.0309 25.6895C80.2809 25.5137 80.5816 25.3809 80.9332 25.291C81.2848 25.2012 81.6773 25.1562 82.1109 25.1562H83.3707ZM86.1164 20H87.2063V27.7695L87.1125 29H86.1164V20ZM91.4895 25.7773V25.9004C91.4895 26.3613 91.4348 26.7891 91.3254 27.1836C91.216 27.5742 91.0559 27.9141 90.8449 28.2031C90.634 28.4922 90.3762 28.7168 90.0715 28.877C89.7668 29.0371 89.4172 29.1172 89.0227 29.1172C88.6203 29.1172 88.2668 29.0488 87.9621 28.9121C87.6613 28.7715 87.4074 28.5703 87.2004 28.3086C86.9934 28.0469 86.8273 27.7305 86.7023 27.3594C86.5813 26.9883 86.4973 26.5703 86.4504 26.1055V25.5664C86.4973 25.0977 86.5813 24.6777 86.7023 24.3066C86.8273 23.9355 86.9934 23.6191 87.2004 23.3574C87.4074 23.0918 87.6613 22.8906 87.9621 22.7539C88.2629 22.6133 88.6125 22.543 89.0109 22.543C89.4094 22.543 89.7629 22.6211 90.0715 22.7773C90.3801 22.9297 90.6379 23.1484 90.8449 23.4336C91.0559 23.7188 91.216 24.0605 91.3254 24.459C91.4348 24.8535 91.4895 25.293 91.4895 25.7773ZM90.3996 25.9004V25.7773C90.3996 25.4609 90.3703 25.1641 90.3117 24.8867C90.2531 24.6055 90.1594 24.3594 90.0305 24.1484C89.9016 23.9336 89.7316 23.7656 89.5207 23.6445C89.3098 23.5195 89.05 23.457 88.7414 23.457C88.468 23.457 88.2297 23.5039 88.0266 23.5977C87.8273 23.6914 87.6574 23.8184 87.5168 23.9785C87.3762 24.1348 87.2609 24.3145 87.1711 24.5176C87.0852 24.7168 87.0207 24.9238 86.9777 25.1387V26.5508C87.0402 26.8242 87.1418 27.0879 87.2824 27.3418C87.427 27.5918 87.6184 27.7969 87.8566 27.957C88.0988 28.1172 88.3977 28.1973 88.7531 28.1973C89.0461 28.1973 89.2961 28.1387 89.5031 28.0215C89.7141 27.9004 89.884 27.7344 90.0129 27.5234C90.1457 27.3125 90.2434 27.0684 90.3059 26.791C90.3684 26.5137 90.3996 26.2168 90.3996 25.9004ZM95.6414 29.1172C95.2 29.1172 94.7996 29.043 94.4402 28.8945C94.0848 28.7422 93.7781 28.5293 93.5203 28.2559C93.2664 27.9824 93.0711 27.6582 92.9344 27.2832C92.7977 26.9082 92.7293 26.498 92.7293 26.0527V25.8066C92.7293 25.291 92.8055 24.832 92.9578 24.4297C93.1102 24.0234 93.3172 23.6797 93.5789 23.3984C93.8406 23.1172 94.1375 22.9043 94.4695 22.7598C94.8016 22.6152 95.1453 22.543 95.5008 22.543C95.9539 22.543 96.3445 22.6211 96.6727 22.7773C97.0047 22.9336 97.2762 23.1523 97.4871 23.4336C97.698 23.7109 97.8543 24.0391 97.9559 24.418C98.0574 24.793 98.1082 25.2031 98.1082 25.6484V26.1348H93.3738V25.25H97.0242V25.168C97.0086 24.8867 96.95 24.6133 96.8484 24.3477C96.7508 24.082 96.5945 23.8633 96.3797 23.6914C96.1648 23.5195 95.8719 23.4336 95.5008 23.4336C95.2547 23.4336 95.0281 23.4863 94.8211 23.5918C94.6141 23.6934 94.4363 23.8457 94.2879 24.0488C94.1395 24.252 94.0242 24.5 93.9422 24.793C93.8602 25.0859 93.8191 25.4238 93.8191 25.8066V26.0527C93.8191 26.3535 93.8602 26.6367 93.9422 26.9023C94.0281 27.1641 94.1512 27.3945 94.3113 27.5938C94.4754 27.793 94.6727 27.9492 94.9031 28.0625C95.1375 28.1758 95.4031 28.2324 95.7 28.2324C96.0828 28.2324 96.407 28.1543 96.6727 27.998C96.9383 27.8418 97.1707 27.6328 97.3699 27.3711L98.0262 27.8926C97.8895 28.0996 97.7156 28.2969 97.5047 28.4844C97.2938 28.6719 97.034 28.8242 96.7254 28.9414C96.4207 29.0586 96.0594 29.1172 95.6414 29.1172ZM100.702 20V29H99.6117V20H100.702Z" fill="black" fill-opacity="0.6"/>
<path d="M202.5 137.5H202V138H202.5V137.5ZM278 137.5L273 134.613V140.387L278 137.5ZM202 88V137.5H203V88H202ZM202.5 138H273.5V137H202.5V138Z" fill="black"/>
<path d="M222 164.08C221.2 164.08 220.475 163.92 219.824 163.6C219.173 163.28 218.613 162.848 218.144 162.304C217.675 161.749 217.312 161.131 217.056 160.448C216.8 159.755 216.672 159.045 216.672 158.32C216.672 157.563 216.805 156.843 217.072 156.16C217.339 155.467 217.712 154.853 218.192 154.32C218.683 153.776 219.253 153.349 219.904 153.04C220.555 152.72 221.259 152.56 222.016 152.56C222.816 152.56 223.541 152.725 224.192 153.056C224.843 153.387 225.397 153.829 225.856 154.384C226.325 154.939 226.688 155.557 226.944 156.24C227.2 156.923 227.328 157.621 227.328 158.336C227.328 159.093 227.195 159.819 226.928 160.512C226.661 161.195 226.288 161.808 225.808 162.352C225.328 162.885 224.763 163.307 224.112 163.616C223.461 163.925 222.757 164.08 222 164.08ZM217.792 158.32C217.792 158.939 217.893 159.536 218.096 160.112C218.299 160.677 218.587 161.184 218.96 161.632C219.333 162.069 219.776 162.421 220.288 162.688C220.811 162.944 221.381 163.072 222 163.072C222.651 163.072 223.232 162.939 223.744 162.672C224.267 162.395 224.709 162.032 225.072 161.584C225.445 161.125 225.728 160.613 225.92 160.048C226.112 159.483 226.208 158.907 226.208 158.32C226.208 157.701 226.107 157.109 225.904 156.544C225.701 155.979 225.408 155.472 225.024 155.024C224.651 154.576 224.208 154.224 223.696 153.968C223.184 153.712 222.619 153.584 222 153.584C221.36 153.584 220.779 153.717 220.256 153.984C219.744 154.251 219.301 154.613 218.928 155.072C218.565 155.52 218.283 156.027 218.08 156.592C217.888 157.157 217.792 157.733 217.792 158.32ZM233.559 164.16C232.866 164.16 232.242 163.979 231.687 163.616C231.143 163.253 230.711 162.805 230.391 162.272V167.408H229.303V155.664H230.279V157.28C230.61 156.757 231.052 156.336 231.607 156.016C232.162 155.685 232.754 155.52 233.383 155.52C233.959 155.52 234.487 155.643 234.967 155.888C235.447 156.123 235.863 156.443 236.215 156.848C236.567 157.253 236.839 157.717 237.031 158.24C237.234 158.752 237.335 159.285 237.335 159.84C237.335 160.619 237.175 161.339 236.855 162C236.546 162.651 236.108 163.173 235.543 163.568C234.978 163.963 234.316 164.16 233.559 164.16ZM233.255 163.2C233.714 163.2 234.124 163.109 234.487 162.928C234.85 162.736 235.159 162.48 235.415 162.16C235.682 161.84 235.884 161.483 236.023 161.088C236.162 160.683 236.231 160.267 236.231 159.84C236.231 159.392 236.151 158.965 235.991 158.56C235.842 158.155 235.623 157.797 235.335 157.488C235.047 157.179 234.716 156.933 234.343 156.752C233.97 156.571 233.564 156.48 233.127 156.48C232.85 156.48 232.562 156.533 232.263 156.64C231.964 156.747 231.676 156.901 231.399 157.104C231.132 157.296 230.908 157.515 230.727 157.76C230.546 158.005 230.434 158.267 230.391 158.544V161.104C230.562 161.499 230.791 161.856 231.079 162.176C231.367 162.485 231.698 162.736 232.071 162.928C232.455 163.109 232.85 163.2 233.255 163.2ZM242.928 164.16C242.331 164.16 241.776 164.048 241.264 163.824C240.752 163.589 240.309 163.275 239.936 162.88C239.563 162.475 239.269 162.011 239.056 161.488C238.853 160.965 238.752 160.405 238.752 159.808C238.752 159.029 238.928 158.315 239.28 157.664C239.643 157.013 240.139 156.496 240.768 156.112C241.397 155.717 242.112 155.52 242.912 155.52C243.733 155.52 244.448 155.717 245.056 156.112C245.675 156.507 246.16 157.029 246.512 157.68C246.864 158.32 247.04 159.024 247.04 159.792C247.04 159.877 247.04 159.963 247.04 160.048C247.04 160.123 247.035 160.181 247.024 160.224H239.888C239.941 160.821 240.107 161.355 240.384 161.824C240.672 162.283 241.04 162.651 241.488 162.928C241.947 163.195 242.443 163.328 242.976 163.328C243.52 163.328 244.032 163.189 244.512 162.912C245.003 162.635 245.344 162.272 245.536 161.824L246.48 162.08C246.309 162.475 246.048 162.832 245.696 163.152C245.344 163.472 244.928 163.723 244.448 163.904C243.979 164.075 243.472 164.16 242.928 164.16ZM239.856 159.44H246.016C245.973 158.832 245.808 158.299 245.52 157.84C245.243 157.381 244.875 157.024 244.416 156.768C243.968 156.501 243.472 156.368 242.928 156.368C242.384 156.368 241.888 156.501 241.44 156.768C240.992 157.024 240.624 157.387 240.336 157.856C240.059 158.315 239.899 158.843 239.856 159.44ZM255.877 164H254.789V159.344C254.789 158.363 254.645 157.648 254.357 157.2C254.069 156.741 253.615 156.512 252.997 156.512C252.57 156.512 252.149 156.619 251.733 156.832C251.317 157.035 250.949 157.317 250.629 157.68C250.319 158.032 250.095 158.437 249.957 158.896V164H248.869V155.664H249.861V157.552C250.085 157.147 250.378 156.795 250.741 156.496C251.103 156.187 251.514 155.947 251.973 155.776C252.431 155.605 252.906 155.52 253.397 155.52C253.855 155.52 254.245 155.605 254.565 155.776C254.885 155.947 255.141 156.192 255.333 156.512C255.525 156.821 255.663 157.2 255.749 157.648C255.834 158.085 255.877 158.576 255.877 159.12V164Z" fill="black"/>
<defs>
<filter id="filter0_ddd_1412_16234" x="284" y="67" width="252" height="156" filterUnits="userSpaceOnUse" color-interpolation-filters="sRGB">
<feFlood flood-opacity="0" result="BackgroundImageFix"/>
<feColorMatrix in="SourceAlpha" type="matrix" values="0 0 0 0 0 0 0 0 0 0 0 0 0 0 0 0 0 0 127 0" result="hardAlpha"/>
<feMorphology radius="2" operator="dilate" in="SourceAlpha" result="effect1_dropShadow_1412_16234"/>
<feOffset dy="3"/>
<feGaussianBlur stdDeviation="7"/>
<feColorMatrix type="matrix" values="0 0 0 0 0 0 0 0 0 0 0 0 0 0 0 0 0 0 0.12 0"/>
<feBlend mode="normal" in2="BackgroundImageFix" result="effect1_dropShadow_1412_16234"/>
<feColorMatrix in="SourceAlpha" type="matrix" values="0 0 0 0 0 0 0 0 0 0 0 0 0 0 0 0 0 0 127 0" result="hardAlpha"/>
<feMorphology radius="1" operator="dilate" in="SourceAlpha" result="effect2_dropShadow_1412_16234"/>
<feOffset dy="8"/>
<feGaussianBlur stdDeviation="5"/>
<feColorMatrix type="matrix" values="0 0 0 0 0 0 0 0 0 0 0 0 0 0 0 0 0 0 0.14 0"/>
<feBlend mode="normal" in2="effect1_dropShadow_1412_16234" result="effect2_dropShadow_1412_16234"/>
<feColorMatrix in="SourceAlpha" type="matrix" values="0 0 0 0 0 0 0 0 0 0 0 0 0 0 0 0 0 0 127 0" result="hardAlpha"/>
<feMorphology radius="3" operator="erode" in="SourceAlpha" result="effect3_dropShadow_1412_16234"/>
<feOffset dy="5"/>
<feGaussianBlur stdDeviation="2.5"/>
<feColorMatrix type="matrix" values="0 0 0 0 0 0 0 0 0 0 0 0 0 0 0 0 0 0 0.2 0"/>
<feBlend mode="normal" in2="effect2_dropShadow_1412_16234" result="effect3_dropShadow_1412_16234"/>
<feBlend mode="normal" in="SourceGraphic" in2="effect3_dropShadow_1412_16234" result="shape"/>
</filter>
<clipPath id="clip0_1412_16234">
<rect x="300" y="80" width="220" height="124" rx="4" fill="white"/>
</clipPath>
<clipPath id="clip1_1412_16234">
<rect x="300" y="80" width="220" height="124" rx="4" fill="white"/>
</clipPath>
</defs>
</svg>
