<svg width="577" height="228" viewBox="0 0 577 228" fill="none" xmlns="http://www.w3.org/2000/svg">
<path d="M0 5.99999C0 2.68628 2.68629 0 6 0H571C574.314 0 577 2.68629 577 6V227.6H0V5.99999Z" fill="white"/>
<rect x="77.5" y="123.5" width="219" height="55" rx="3.5" stroke="#D32F2F"/>
<path d="M93.9922 154.273L97.3438 144.625H98.9766L94.7656 156H93.6016L93.9922 154.273ZM90.8594 144.625L94.1797 154.273L94.5938 156H93.4297L89.2266 144.625H90.8594ZM105.064 154.555V150.203C105.064 149.87 104.996 149.581 104.861 149.336C104.731 149.086 104.533 148.893 104.267 148.758C104.002 148.622 103.673 148.555 103.283 148.555C102.918 148.555 102.598 148.617 102.322 148.742C102.051 148.867 101.837 149.031 101.681 149.234C101.53 149.438 101.455 149.656 101.455 149.891H100.009C100.009 149.589 100.087 149.289 100.244 148.992C100.4 148.695 100.624 148.427 100.916 148.188C101.212 147.943 101.567 147.75 101.978 147.609C102.395 147.464 102.858 147.391 103.369 147.391C103.983 147.391 104.525 147.495 104.994 147.703C105.468 147.911 105.837 148.227 106.103 148.648C106.374 149.065 106.509 149.589 106.509 150.219V154.156C106.509 154.438 106.533 154.737 106.58 155.055C106.632 155.372 106.707 155.646 106.806 155.875V156H105.298C105.226 155.833 105.168 155.612 105.127 155.336C105.085 155.055 105.064 154.794 105.064 154.555ZM105.314 150.875L105.33 151.891H103.869C103.457 151.891 103.09 151.924 102.767 151.992C102.444 152.055 102.173 152.151 101.955 152.281C101.736 152.411 101.569 152.576 101.455 152.773C101.34 152.966 101.283 153.193 101.283 153.453C101.283 153.719 101.343 153.961 101.462 154.18C101.582 154.398 101.762 154.573 102.002 154.703C102.246 154.828 102.546 154.891 102.9 154.891C103.343 154.891 103.733 154.797 104.072 154.609C104.41 154.422 104.679 154.193 104.877 153.922C105.08 153.651 105.189 153.388 105.205 153.133L105.822 153.828C105.785 154.047 105.686 154.289 105.525 154.555C105.364 154.82 105.147 155.076 104.877 155.32C104.611 155.56 104.293 155.76 103.923 155.922C103.559 156.078 103.147 156.156 102.689 156.156C102.116 156.156 101.614 156.044 101.181 155.82C100.754 155.596 100.421 155.297 100.181 154.922C99.9469 154.542 99.8297 154.117 99.8297 153.648C99.8297 153.195 99.9182 152.797 100.095 152.453C100.272 152.104 100.528 151.815 100.861 151.586C101.194 151.352 101.595 151.174 102.064 151.055C102.533 150.935 103.056 150.875 103.634 150.875H105.314ZM110.503 144V156H109.05V144H110.503ZM118.145 154.047V147.547H119.598V156H118.216L118.145 154.047ZM118.419 152.266L119.02 152.25C119.02 152.812 118.96 153.333 118.841 153.812C118.726 154.286 118.539 154.698 118.278 155.047C118.018 155.396 117.677 155.669 117.255 155.867C116.833 156.06 116.32 156.156 115.716 156.156C115.304 156.156 114.927 156.096 114.583 155.977C114.244 155.857 113.953 155.672 113.708 155.422C113.463 155.172 113.273 154.846 113.138 154.445C113.007 154.044 112.942 153.562 112.942 153V147.547H114.388V153.016C114.388 153.396 114.429 153.711 114.513 153.961C114.601 154.206 114.718 154.401 114.864 154.547C115.015 154.688 115.182 154.786 115.364 154.844C115.552 154.901 115.744 154.93 115.942 154.93C116.557 154.93 117.044 154.812 117.403 154.578C117.763 154.339 118.02 154.018 118.177 153.617C118.338 153.211 118.419 152.76 118.419 152.266ZM125.459 156.156C124.871 156.156 124.337 156.057 123.858 155.859C123.384 155.656 122.975 155.372 122.631 155.008C122.293 154.643 122.032 154.211 121.85 153.711C121.668 153.211 121.577 152.664 121.577 152.07V151.742C121.577 151.055 121.678 150.443 121.881 149.906C122.084 149.365 122.36 148.906 122.709 148.531C123.058 148.156 123.454 147.872 123.897 147.68C124.34 147.487 124.798 147.391 125.272 147.391C125.876 147.391 126.397 147.495 126.834 147.703C127.277 147.911 127.639 148.203 127.92 148.578C128.202 148.948 128.41 149.385 128.545 149.891C128.681 150.391 128.748 150.938 128.748 151.531V152.18H122.436V151H127.303V150.891C127.282 150.516 127.204 150.151 127.069 149.797C126.939 149.443 126.73 149.151 126.444 148.922C126.157 148.693 125.767 148.578 125.272 148.578C124.944 148.578 124.642 148.648 124.366 148.789C124.09 148.924 123.853 149.128 123.655 149.398C123.457 149.669 123.303 150 123.194 150.391C123.084 150.781 123.03 151.232 123.03 151.742V152.07C123.03 152.471 123.084 152.849 123.194 153.203C123.308 153.552 123.472 153.859 123.686 154.125C123.905 154.391 124.168 154.599 124.475 154.75C124.788 154.901 125.142 154.977 125.538 154.977C126.048 154.977 126.48 154.872 126.834 154.664C127.189 154.456 127.498 154.177 127.764 153.828L128.639 154.523C128.457 154.799 128.225 155.062 127.944 155.312C127.663 155.562 127.316 155.766 126.905 155.922C126.498 156.078 126.017 156.156 125.459 156.156Z" fill="black" fill-opacity="0.87"/>
<rect width="38" height="2" transform="translate(89 123)" fill="white"/>
<path d="M99.1641 127.08V128H94.8984V127.08H99.1641ZM95.1211 119.469V128H93.9902V119.469H95.1211ZM104.183 126.916V123.652C104.183 123.402 104.132 123.186 104.031 123.002C103.933 122.814 103.785 122.67 103.586 122.568C103.386 122.467 103.14 122.416 102.847 122.416C102.574 122.416 102.334 122.463 102.127 122.557C101.923 122.65 101.763 122.773 101.646 122.926C101.533 123.078 101.476 123.242 101.476 123.418H100.392C100.392 123.191 100.451 122.967 100.568 122.744C100.685 122.521 100.853 122.32 101.072 122.141C101.295 121.957 101.56 121.812 101.869 121.707C102.181 121.598 102.529 121.543 102.912 121.543C103.373 121.543 103.779 121.621 104.13 121.777C104.486 121.934 104.763 122.17 104.963 122.486C105.166 122.799 105.267 123.191 105.267 123.664V126.617C105.267 126.828 105.285 127.053 105.32 127.291C105.359 127.529 105.416 127.734 105.49 127.906V128H104.359C104.304 127.875 104.261 127.709 104.23 127.502C104.199 127.291 104.183 127.096 104.183 126.916ZM104.371 124.156L104.382 124.918H103.287C102.978 124.918 102.703 124.943 102.461 124.994C102.218 125.041 102.015 125.113 101.851 125.211C101.687 125.309 101.562 125.432 101.476 125.58C101.39 125.725 101.347 125.895 101.347 126.09C101.347 126.289 101.392 126.471 101.482 126.635C101.572 126.799 101.707 126.93 101.886 127.027C102.07 127.121 102.295 127.168 102.56 127.168C102.892 127.168 103.185 127.098 103.439 126.957C103.693 126.816 103.894 126.645 104.043 126.441C104.195 126.238 104.277 126.041 104.289 125.85L104.752 126.371C104.724 126.535 104.65 126.717 104.529 126.916C104.408 127.115 104.246 127.307 104.043 127.49C103.843 127.67 103.605 127.82 103.328 127.941C103.054 128.059 102.746 128.117 102.402 128.117C101.972 128.117 101.595 128.033 101.271 127.865C100.951 127.697 100.701 127.473 100.521 127.191C100.345 126.906 100.257 126.588 100.257 126.236C100.257 125.896 100.324 125.598 100.457 125.34C100.589 125.078 100.781 124.861 101.031 124.689C101.281 124.514 101.582 124.381 101.933 124.291C102.285 124.201 102.677 124.156 103.111 124.156H104.371ZM107.116 119H108.206V126.77L108.113 128H107.116V119ZM112.489 124.777V124.9C112.489 125.361 112.435 125.789 112.325 126.184C112.216 126.574 112.056 126.914 111.845 127.203C111.634 127.492 111.376 127.717 111.071 127.877C110.767 128.037 110.417 128.117 110.023 128.117C109.62 128.117 109.267 128.049 108.962 127.912C108.661 127.771 108.407 127.57 108.2 127.309C107.993 127.047 107.827 126.73 107.702 126.359C107.581 125.988 107.497 125.57 107.45 125.105V124.566C107.497 124.098 107.581 123.678 107.702 123.307C107.827 122.936 107.993 122.619 108.2 122.357C108.407 122.092 108.661 121.891 108.962 121.754C109.263 121.613 109.613 121.543 110.011 121.543C110.409 121.543 110.763 121.621 111.071 121.777C111.38 121.93 111.638 122.148 111.845 122.434C112.056 122.719 112.216 123.061 112.325 123.459C112.435 123.854 112.489 124.293 112.489 124.777ZM111.4 124.9V124.777C111.4 124.461 111.37 124.164 111.312 123.887C111.253 123.605 111.159 123.359 111.03 123.148C110.902 122.934 110.732 122.766 110.521 122.645C110.31 122.52 110.05 122.457 109.741 122.457C109.468 122.457 109.23 122.504 109.027 122.598C108.827 122.691 108.657 122.818 108.517 122.979C108.376 123.135 108.261 123.314 108.171 123.518C108.085 123.717 108.021 123.924 107.978 124.139V125.551C108.04 125.824 108.142 126.088 108.282 126.342C108.427 126.592 108.618 126.797 108.857 126.957C109.099 127.117 109.398 127.197 109.753 127.197C110.046 127.197 110.296 127.139 110.503 127.021C110.714 126.9 110.884 126.734 111.013 126.523C111.146 126.312 111.243 126.068 111.306 125.791C111.368 125.514 111.4 125.217 111.4 124.9ZM116.641 128.117C116.2 128.117 115.8 128.043 115.44 127.895C115.085 127.742 114.778 127.529 114.52 127.256C114.266 126.982 114.071 126.658 113.934 126.283C113.798 125.908 113.729 125.498 113.729 125.053V124.807C113.729 124.291 113.805 123.832 113.958 123.43C114.11 123.023 114.317 122.68 114.579 122.398C114.841 122.117 115.138 121.904 115.47 121.76C115.802 121.615 116.145 121.543 116.501 121.543C116.954 121.543 117.345 121.621 117.673 121.777C118.005 121.934 118.276 122.152 118.487 122.434C118.698 122.711 118.854 123.039 118.956 123.418C119.057 123.793 119.108 124.203 119.108 124.648V125.135H114.374V124.25H118.024V124.168C118.009 123.887 117.95 123.613 117.848 123.348C117.751 123.082 117.595 122.863 117.38 122.691C117.165 122.52 116.872 122.434 116.501 122.434C116.255 122.434 116.028 122.486 115.821 122.592C115.614 122.693 115.436 122.846 115.288 123.049C115.139 123.252 115.024 123.5 114.942 123.793C114.86 124.086 114.819 124.424 114.819 124.807V125.053C114.819 125.354 114.86 125.637 114.942 125.902C115.028 126.164 115.151 126.395 115.311 126.594C115.475 126.793 115.673 126.949 115.903 127.062C116.138 127.176 116.403 127.232 116.7 127.232C117.083 127.232 117.407 127.154 117.673 126.998C117.938 126.842 118.171 126.633 118.37 126.371L119.026 126.893C118.889 127.1 118.716 127.297 118.505 127.484C118.294 127.672 118.034 127.824 117.725 127.941C117.421 128.059 117.059 128.117 116.641 128.117ZM121.702 119V128H120.612V119H121.702Z" fill="#D32F2F"/>
<path d="M95.5625 191.137V192.057H90.9453V191.137H95.5625ZM91.1211 187.469V196H89.9902V187.469H91.1211ZM96.5469 187.469V196H95.4219V187.469H96.5469ZM101.423 196.117C100.982 196.117 100.582 196.043 100.222 195.895C99.8668 195.742 99.5602 195.529 99.3023 195.256C99.0484 194.982 98.8531 194.658 98.7164 194.283C98.5797 193.908 98.5113 193.498 98.5113 193.053V192.807C98.5113 192.291 98.5875 191.832 98.7398 191.43C98.8922 191.023 99.0992 190.68 99.3609 190.398C99.6227 190.117 99.9195 189.904 100.252 189.76C100.584 189.615 100.927 189.543 101.283 189.543C101.736 189.543 102.127 189.621 102.455 189.777C102.787 189.934 103.058 190.152 103.269 190.434C103.48 190.711 103.636 191.039 103.738 191.418C103.839 191.793 103.89 192.203 103.89 192.648V193.135H99.1559V192.25H102.806V192.168C102.791 191.887 102.732 191.613 102.63 191.348C102.533 191.082 102.377 190.863 102.162 190.691C101.947 190.52 101.654 190.434 101.283 190.434C101.037 190.434 100.81 190.486 100.603 190.592C100.396 190.693 100.218 190.846 100.07 191.049C99.9215 191.252 99.8062 191.5 99.7242 191.793C99.6422 192.086 99.6012 192.424 99.6012 192.807V193.053C99.6012 193.354 99.6422 193.637 99.7242 193.902C99.8102 194.164 99.9332 194.395 100.093 194.594C100.257 194.793 100.455 194.949 100.685 195.062C100.92 195.176 101.185 195.232 101.482 195.232C101.865 195.232 102.189 195.154 102.455 194.998C102.72 194.842 102.953 194.633 103.152 194.371L103.808 194.893C103.671 195.1 103.498 195.297 103.287 195.484C103.076 195.672 102.816 195.824 102.507 195.941C102.203 196.059 101.841 196.117 101.423 196.117ZM106.734 187V196H105.644V187H106.734ZM109.958 190.879V198.438H108.868V189.66H109.864L109.958 190.879ZM114.229 192.777V192.9C114.229 193.361 114.175 193.789 114.065 194.184C113.956 194.574 113.796 194.914 113.585 195.203C113.378 195.492 113.122 195.717 112.817 195.877C112.513 196.037 112.163 196.117 111.768 196.117C111.366 196.117 111.011 196.051 110.702 195.918C110.393 195.785 110.132 195.592 109.917 195.338C109.702 195.084 109.53 194.779 109.401 194.424C109.276 194.068 109.19 193.668 109.143 193.223V192.566C109.19 192.098 109.278 191.678 109.407 191.307C109.536 190.936 109.706 190.619 109.917 190.357C110.132 190.092 110.391 189.891 110.696 189.754C111.001 189.613 111.352 189.543 111.751 189.543C112.149 189.543 112.503 189.621 112.811 189.777C113.12 189.93 113.38 190.148 113.591 190.434C113.802 190.719 113.96 191.061 114.065 191.459C114.175 191.854 114.229 192.293 114.229 192.777ZM113.139 192.9V192.777C113.139 192.461 113.106 192.164 113.04 191.887C112.973 191.605 112.87 191.359 112.729 191.148C112.593 190.934 112.417 190.766 112.202 190.645C111.987 190.52 111.731 190.457 111.434 190.457C111.161 190.457 110.923 190.504 110.72 190.598C110.52 190.691 110.35 190.818 110.21 190.979C110.069 191.135 109.954 191.314 109.864 191.518C109.778 191.717 109.714 191.924 109.671 192.139V193.656C109.749 193.93 109.858 194.188 109.999 194.43C110.139 194.668 110.327 194.861 110.561 195.01C110.796 195.154 111.091 195.227 111.446 195.227C111.739 195.227 111.991 195.166 112.202 195.045C112.417 194.92 112.593 194.75 112.729 194.535C112.87 194.32 112.973 194.074 113.04 193.797C113.106 193.516 113.139 193.217 113.139 192.9ZM118.643 196.117C118.202 196.117 117.801 196.043 117.442 195.895C117.086 195.742 116.78 195.529 116.522 195.256C116.268 194.982 116.073 194.658 115.936 194.283C115.799 193.908 115.731 193.498 115.731 193.053V192.807C115.731 192.291 115.807 191.832 115.959 191.43C116.112 191.023 116.319 190.68 116.58 190.398C116.842 190.117 117.139 189.904 117.471 189.76C117.803 189.615 118.147 189.543 118.502 189.543C118.955 189.543 119.346 189.621 119.674 189.777C120.006 189.934 120.278 190.152 120.489 190.434C120.7 190.711 120.856 191.039 120.957 191.418C121.059 191.793 121.11 192.203 121.11 192.648V193.135H116.375V192.25H120.026V192.168C120.01 191.887 119.952 191.613 119.85 191.348C119.752 191.082 119.596 190.863 119.381 190.691C119.166 190.52 118.873 190.434 118.502 190.434C118.256 190.434 118.03 190.486 117.823 190.592C117.616 190.693 117.438 190.846 117.289 191.049C117.141 191.252 117.026 191.5 116.944 191.793C116.862 192.086 116.821 192.424 116.821 192.807V193.053C116.821 193.354 116.862 193.637 116.944 193.902C117.03 194.164 117.153 194.395 117.313 194.594C117.477 194.793 117.674 194.949 117.905 195.062C118.139 195.176 118.405 195.232 118.702 195.232C119.084 195.232 119.409 195.154 119.674 194.998C119.94 194.842 120.172 194.633 120.371 194.371L121.028 194.893C120.891 195.1 120.717 195.297 120.506 195.484C120.295 195.672 120.036 195.824 119.727 195.941C119.422 196.059 119.061 196.117 118.643 196.117ZM123.859 190.656V196H122.775V189.66H123.83L123.859 190.656ZM125.84 189.625L125.834 190.633C125.744 190.613 125.658 190.602 125.576 190.598C125.498 190.59 125.408 190.586 125.307 190.586C125.057 190.586 124.836 190.625 124.645 190.703C124.453 190.781 124.291 190.891 124.158 191.031C124.025 191.172 123.92 191.34 123.842 191.535C123.768 191.727 123.719 191.938 123.695 192.168L123.391 192.344C123.391 191.961 123.428 191.602 123.502 191.266C123.58 190.93 123.699 190.633 123.859 190.375C124.02 190.113 124.223 189.91 124.469 189.766C124.719 189.617 125.016 189.543 125.359 189.543C125.438 189.543 125.527 189.553 125.629 189.572C125.73 189.588 125.801 189.605 125.84 189.625ZM133.273 189.66V190.492H129.845V189.66H133.273ZM131.005 188.119H132.089V194.43C132.089 194.645 132.122 194.807 132.189 194.916C132.255 195.025 132.341 195.098 132.446 195.133C132.552 195.168 132.665 195.186 132.786 195.186C132.876 195.186 132.97 195.178 133.068 195.162C133.169 195.143 133.245 195.127 133.296 195.115L133.302 196C133.216 196.027 133.103 196.053 132.962 196.076C132.825 196.104 132.659 196.117 132.464 196.117C132.198 196.117 131.954 196.064 131.732 195.959C131.509 195.854 131.331 195.678 131.198 195.432C131.07 195.182 131.005 194.846 131.005 194.424V188.119ZM137.575 196.117C137.134 196.117 136.733 196.043 136.374 195.895C136.018 195.742 135.712 195.529 135.454 195.256C135.2 194.982 135.005 194.658 134.868 194.283C134.731 193.908 134.663 193.498 134.663 193.053V192.807C134.663 192.291 134.739 191.832 134.891 191.43C135.044 191.023 135.251 190.68 135.513 190.398C135.774 190.117 136.071 189.904 136.403 189.76C136.735 189.615 137.079 189.543 137.434 189.543C137.888 189.543 138.278 189.621 138.606 189.777C138.938 189.934 139.21 190.152 139.421 190.434C139.632 190.711 139.788 191.039 139.889 191.418C139.991 191.793 140.042 192.203 140.042 192.648V193.135H135.307V192.25H138.958V192.168C138.942 191.887 138.884 191.613 138.782 191.348C138.684 191.082 138.528 190.863 138.313 190.691C138.098 190.52 137.805 190.434 137.434 190.434C137.188 190.434 136.962 190.486 136.755 190.592C136.548 190.693 136.37 190.846 136.221 191.049C136.073 191.252 135.958 191.5 135.876 191.793C135.794 192.086 135.753 192.424 135.753 192.807V193.053C135.753 193.354 135.794 193.637 135.876 193.902C135.962 194.164 136.085 194.395 136.245 194.594C136.409 194.793 136.606 194.949 136.837 195.062C137.071 195.176 137.337 195.232 137.634 195.232C138.016 195.232 138.341 195.154 138.606 194.998C138.872 194.842 139.104 194.633 139.304 194.371L139.96 194.893C139.823 195.1 139.649 195.297 139.438 195.484C139.227 195.672 138.968 195.824 138.659 195.941C138.354 196.059 137.993 196.117 137.575 196.117ZM142.44 189.66L143.829 191.969L145.235 189.66H146.506L144.432 192.789L146.571 196H145.317L143.852 193.621L142.387 196H141.127L143.26 192.789L141.192 189.66H142.44ZM150.715 189.66V190.492H147.287V189.66H150.715ZM148.447 188.119H149.531V194.43C149.531 194.645 149.564 194.807 149.631 194.916C149.697 195.025 149.783 195.098 149.889 195.133C149.994 195.168 150.107 195.186 150.229 195.186C150.318 195.186 150.412 195.178 150.51 195.162C150.611 195.143 150.688 195.127 150.738 195.115L150.744 196C150.658 196.027 150.545 196.053 150.404 196.076C150.268 196.104 150.102 196.117 149.906 196.117C149.641 196.117 149.396 196.064 149.174 195.959C148.951 195.854 148.773 195.678 148.641 195.432C148.512 195.182 148.447 194.846 148.447 194.424V188.119Z" fill="#D32F2F"/>
<rect x="37.5" y="31.5" width="219" height="55" rx="3.5" stroke="black"/>
<path d="M53.9922 62.2734L57.3438 52.625H58.9766L54.7656 64H53.6016L53.9922 62.2734ZM50.8594 52.625L54.1797 62.2734L54.5938 64H53.4297L49.2266 52.625H50.8594ZM65.0641 62.5547V58.2031C65.0641 57.8698 64.9964 57.5807 64.8609 57.3359C64.7307 57.0859 64.5328 56.8932 64.2672 56.7578C64.0016 56.6224 63.6734 56.5547 63.2828 56.5547C62.9182 56.5547 62.5979 56.6172 62.3219 56.7422C62.051 56.8672 61.8375 57.0312 61.6812 57.2344C61.5302 57.4375 61.4547 57.6562 61.4547 57.8906H60.0094C60.0094 57.5885 60.0875 57.2891 60.2437 56.9922C60.4 56.6953 60.624 56.4271 60.9156 56.1875C61.2125 55.9427 61.5667 55.75 61.9781 55.6094C62.3948 55.4635 62.8583 55.3906 63.3687 55.3906C63.9833 55.3906 64.525 55.4948 64.9937 55.7031C65.4677 55.9115 65.8375 56.2266 66.1031 56.6484C66.374 57.0651 66.5094 57.5885 66.5094 58.2188V62.1562C66.5094 62.4375 66.5328 62.737 66.5797 63.0547C66.6318 63.3724 66.7073 63.6458 66.8062 63.875V64H65.2984C65.2255 63.8333 65.1682 63.612 65.1266 63.3359C65.0849 63.0547 65.0641 62.7943 65.0641 62.5547ZM65.3141 58.875L65.3297 59.8906H63.8687C63.4573 59.8906 63.0901 59.9245 62.7672 59.9922C62.4443 60.0547 62.1734 60.151 61.9547 60.2812C61.7359 60.4115 61.5693 60.5755 61.4547 60.7734C61.3401 60.9661 61.2828 61.1927 61.2828 61.4531C61.2828 61.7188 61.3427 61.9609 61.4625 62.1797C61.5823 62.3984 61.762 62.5729 62.0016 62.7031C62.2464 62.8281 62.5458 62.8906 62.9 62.8906C63.3427 62.8906 63.7333 62.7969 64.0719 62.6094C64.4104 62.4219 64.6786 62.1927 64.8766 61.9219C65.0797 61.651 65.1891 61.388 65.2047 61.1328L65.8219 61.8281C65.7854 62.0469 65.6865 62.2891 65.525 62.5547C65.3635 62.8203 65.1474 63.0755 64.8766 63.3203C64.6109 63.5599 64.2932 63.7604 63.9234 63.9219C63.5589 64.0781 63.1474 64.1562 62.6891 64.1562C62.1161 64.1562 61.6135 64.0443 61.1812 63.8203C60.7542 63.5964 60.4208 63.2969 60.1812 62.9219C59.9469 62.5417 59.8297 62.1172 59.8297 61.6484C59.8297 61.1953 59.9182 60.7969 60.0953 60.4531C60.2724 60.1042 60.5276 59.8151 60.8609 59.5859C61.1943 59.3516 61.5953 59.1745 62.0641 59.0547C62.5328 58.9349 63.0562 58.875 63.6344 58.875H65.3141ZM70.5031 52V64H69.05V52H70.5031ZM78.1453 62.0469V55.5469H79.5984V64H78.2156L78.1453 62.0469ZM78.4188 60.2656L79.0203 60.25C79.0203 60.8125 78.9604 61.3333 78.8406 61.8125C78.726 62.2865 78.5385 62.6979 78.2781 63.0469C78.0177 63.3958 77.6766 63.6693 77.2547 63.8672C76.8328 64.0599 76.3198 64.1562 75.7156 64.1562C75.3042 64.1562 74.9266 64.0964 74.5828 63.9766C74.2443 63.8568 73.9526 63.6719 73.7078 63.4219C73.463 63.1719 73.2729 62.8464 73.1375 62.4453C73.0073 62.0443 72.9422 61.5625 72.9422 61V55.5469H74.3875V61.0156C74.3875 61.3958 74.4292 61.7109 74.5125 61.9609C74.601 62.2057 74.7182 62.401 74.8641 62.5469C75.0151 62.6875 75.1818 62.7865 75.3641 62.8438C75.5516 62.901 75.7443 62.9297 75.9422 62.9297C76.5568 62.9297 77.0438 62.8125 77.4031 62.5781C77.7625 62.3385 78.0203 62.0182 78.1766 61.6172C78.338 61.2109 78.4188 60.7604 78.4188 60.2656ZM85.4594 64.1562C84.8708 64.1562 84.337 64.0573 83.8578 63.8594C83.3839 63.6562 82.975 63.3724 82.6313 63.0078C82.2927 62.6432 82.0323 62.2109 81.85 61.7109C81.6677 61.2109 81.5766 60.6641 81.5766 60.0703V59.7422C81.5766 59.0547 81.6781 58.4427 81.8813 57.9062C82.0844 57.3646 82.3604 56.9062 82.7094 56.5312C83.0583 56.1562 83.4542 55.8724 83.8969 55.6797C84.3396 55.487 84.7979 55.3906 85.2719 55.3906C85.876 55.3906 86.3969 55.4948 86.8344 55.7031C87.2771 55.9115 87.6391 56.2031 87.9203 56.5781C88.2016 56.9479 88.4099 57.3854 88.5453 57.8906C88.6807 58.3906 88.7484 58.9375 88.7484 59.5312V60.1797H82.4359V59H87.3031V58.8906C87.2823 58.5156 87.2042 58.151 87.0688 57.7969C86.9385 57.4427 86.7302 57.151 86.4438 56.9219C86.1573 56.6927 85.7667 56.5781 85.2719 56.5781C84.9438 56.5781 84.6417 56.6484 84.3656 56.7891C84.0896 56.9245 83.8526 57.1276 83.6547 57.3984C83.4568 57.6693 83.3031 58 83.1938 58.3906C83.0844 58.7812 83.0297 59.2318 83.0297 59.7422V60.0703C83.0297 60.4714 83.0844 60.849 83.1938 61.2031C83.3083 61.5521 83.4724 61.8594 83.6859 62.125C83.9047 62.3906 84.1677 62.599 84.475 62.75C84.7875 62.901 85.1417 62.9766 85.5375 62.9766C86.0479 62.9766 86.4802 62.8724 86.8344 62.6641C87.1885 62.4557 87.4984 62.1771 87.7641 61.8281L88.6391 62.5234C88.4568 62.7995 88.225 63.0625 87.9438 63.3125C87.6625 63.5625 87.3161 63.7656 86.9047 63.9219C86.4984 64.0781 86.0167 64.1562 85.4594 64.1562Z" fill="black" fill-opacity="0.87"/>
<rect width="38" height="2" transform="translate(49 31)" fill="white"/>
<path d="M59.1641 35.0801V36H54.8984V35.0801H59.1641ZM55.1211 27.4688V36H53.9902V27.4688H55.1211ZM64.1832 34.916V31.6523C64.1832 31.4023 64.1324 31.1855 64.0309 31.002C63.9332 30.8145 63.7848 30.6699 63.5855 30.5684C63.3863 30.4668 63.1402 30.416 62.8473 30.416C62.5738 30.416 62.3336 30.4629 62.1266 30.5566C61.9234 30.6504 61.7633 30.7734 61.6461 30.9258C61.5328 31.0781 61.4762 31.2422 61.4762 31.418H60.3922C60.3922 31.1914 60.4508 30.9668 60.568 30.7441C60.6852 30.5215 60.8531 30.3203 61.0719 30.1406C61.2945 29.957 61.5602 29.8125 61.8688 29.707C62.1813 29.5977 62.5289 29.543 62.9117 29.543C63.3727 29.543 63.7789 29.6211 64.1305 29.7773C64.4859 29.9336 64.7633 30.1699 64.9625 30.4863C65.1656 30.7988 65.2672 31.1914 65.2672 31.6641V34.6172C65.2672 34.8281 65.2848 35.0527 65.3199 35.291C65.359 35.5293 65.4156 35.7344 65.4898 35.9062V36H64.359C64.3043 35.875 64.2613 35.709 64.2301 35.502C64.1988 35.291 64.1832 35.0957 64.1832 34.916ZM64.3707 32.1562L64.3824 32.918H63.2867C62.9781 32.918 62.7027 32.9434 62.4605 32.9941C62.2184 33.041 62.0152 33.1133 61.8512 33.2109C61.6871 33.3086 61.5621 33.4316 61.4762 33.5801C61.3902 33.7246 61.3473 33.8945 61.3473 34.0898C61.3473 34.2891 61.3922 34.4707 61.482 34.6348C61.5719 34.7988 61.7066 34.9297 61.8863 35.0273C62.0699 35.1211 62.2945 35.168 62.5602 35.168C62.8922 35.168 63.1852 35.0977 63.4391 34.957C63.693 34.8164 63.8941 34.6445 64.0426 34.4414C64.1949 34.2383 64.277 34.041 64.2887 33.8496L64.7516 34.3711C64.7242 34.5352 64.65 34.7168 64.5289 34.916C64.4078 35.1152 64.2457 35.3066 64.0426 35.4902C63.8434 35.6699 63.6051 35.8203 63.3277 35.9414C63.0543 36.0586 62.7457 36.1172 62.402 36.1172C61.9723 36.1172 61.5953 36.0332 61.2711 35.8652C60.9508 35.6973 60.7008 35.4727 60.5211 35.1914C60.3453 34.9062 60.2574 34.5879 60.2574 34.2363C60.2574 33.8965 60.3238 33.5977 60.4566 33.3398C60.5895 33.0781 60.7809 32.8613 61.0309 32.6895C61.2809 32.5137 61.5816 32.3809 61.9332 32.291C62.2848 32.2012 62.6773 32.1562 63.1109 32.1562H64.3707ZM67.1164 27H68.2063V34.7695L68.1125 36H67.1164V27ZM72.4895 32.7773V32.9004C72.4895 33.3613 72.4348 33.7891 72.3254 34.1836C72.216 34.5742 72.0559 34.9141 71.8449 35.2031C71.634 35.4922 71.3762 35.7168 71.0715 35.877C70.7668 36.0371 70.4172 36.1172 70.0227 36.1172C69.6203 36.1172 69.2668 36.0488 68.9621 35.9121C68.6613 35.7715 68.4074 35.5703 68.2004 35.3086C67.9934 35.0469 67.8273 34.7305 67.7023 34.3594C67.5813 33.9883 67.4973 33.5703 67.4504 33.1055V32.5664C67.4973 32.0977 67.5813 31.6777 67.7023 31.3066C67.8273 30.9355 67.9934 30.6191 68.2004 30.3574C68.4074 30.0918 68.6613 29.8906 68.9621 29.7539C69.2629 29.6133 69.6125 29.543 70.0109 29.543C70.4094 29.543 70.7629 29.6211 71.0715 29.7773C71.3801 29.9297 71.6379 30.1484 71.8449 30.4336C72.0559 30.7188 72.216 31.0605 72.3254 31.459C72.4348 31.8535 72.4895 32.293 72.4895 32.7773ZM71.3996 32.9004V32.7773C71.3996 32.4609 71.3703 32.1641 71.3117 31.8867C71.2531 31.6055 71.1594 31.3594 71.0305 31.1484C70.9016 30.9336 70.7316 30.7656 70.5207 30.6445C70.3098 30.5195 70.05 30.457 69.7414 30.457C69.468 30.457 69.2297 30.5039 69.0266 30.5977C68.8273 30.6914 68.6574 30.8184 68.5168 30.9785C68.3762 31.1348 68.2609 31.3145 68.1711 31.5176C68.0852 31.7168 68.0207 31.9238 67.9777 32.1387V33.5508C68.0402 33.8242 68.1418 34.0879 68.2824 34.3418C68.427 34.5918 68.6184 34.7969 68.8566 34.957C69.0988 35.1172 69.3977 35.1973 69.7531 35.1973C70.0461 35.1973 70.2961 35.1387 70.5031 35.0215C70.7141 34.9004 70.884 34.7344 71.0129 34.5234C71.1457 34.3125 71.2434 34.0684 71.3059 33.791C71.3684 33.5137 71.3996 33.2168 71.3996 32.9004ZM76.6414 36.1172C76.2 36.1172 75.7996 36.043 75.4402 35.8945C75.0848 35.7422 74.7781 35.5293 74.5203 35.2559C74.2664 34.9824 74.0711 34.6582 73.9344 34.2832C73.7977 33.9082 73.7293 33.498 73.7293 33.0527V32.8066C73.7293 32.291 73.8055 31.832 73.9578 31.4297C74.1102 31.0234 74.3172 30.6797 74.5789 30.3984C74.8406 30.1172 75.1375 29.9043 75.4695 29.7598C75.8016 29.6152 76.1453 29.543 76.5008 29.543C76.9539 29.543 77.3445 29.6211 77.6727 29.7773C78.0047 29.9336 78.2762 30.1523 78.4871 30.4336C78.698 30.7109 78.8543 31.0391 78.9559 31.418C79.0574 31.793 79.1082 32.2031 79.1082 32.6484V33.1348H74.3738V32.25H78.0242V32.168C78.0086 31.8867 77.95 31.6133 77.8484 31.3477C77.7508 31.082 77.5945 30.8633 77.3797 30.6914C77.1648 30.5195 76.8719 30.4336 76.5008 30.4336C76.2547 30.4336 76.0281 30.4863 75.8211 30.5918C75.6141 30.6934 75.4363 30.8457 75.2879 31.0488C75.1395 31.252 75.0242 31.5 74.9422 31.793C74.8602 32.0859 74.8191 32.4238 74.8191 32.8066V33.0527C74.8191 33.3535 74.8602 33.6367 74.9422 33.9023C75.0281 34.1641 75.1512 34.3945 75.3113 34.5938C75.4754 34.793 75.6727 34.9492 75.9031 35.0625C76.1375 35.1758 76.4031 35.2324 76.7 35.2324C77.0828 35.2324 77.407 35.1543 77.6727 34.998C77.9383 34.8418 78.1707 34.6328 78.3699 34.3711L79.0262 34.8926C78.8895 35.0996 78.7156 35.2969 78.5047 35.4844C78.2938 35.6719 78.034 35.8242 77.7254 35.9414C77.4207 36.0586 77.0594 36.1172 76.6414 36.1172ZM81.7016 27V36H80.6117V27H81.7016Z" fill="black" fill-opacity="0.6"/>
<rect x="282" y="33" width="218" height="54" rx="3" stroke="#16A249" stroke-width="2"/>
<path d="M297.992 63.2734L301.344 53.625H302.977L298.766 65H297.602L297.992 63.2734ZM294.859 53.625L298.18 63.2734L298.594 65H297.43L293.227 53.625H294.859ZM309.064 63.5547V59.2031C309.064 58.8698 308.996 58.5807 308.861 58.3359C308.731 58.0859 308.533 57.8932 308.267 57.7578C308.002 57.6224 307.673 57.5547 307.283 57.5547C306.918 57.5547 306.598 57.6172 306.322 57.7422C306.051 57.8672 305.837 58.0312 305.681 58.2344C305.53 58.4375 305.455 58.6562 305.455 58.8906H304.009C304.009 58.5885 304.087 58.2891 304.244 57.9922C304.4 57.6953 304.624 57.4271 304.916 57.1875C305.212 56.9427 305.567 56.75 305.978 56.6094C306.395 56.4635 306.858 56.3906 307.369 56.3906C307.983 56.3906 308.525 56.4948 308.994 56.7031C309.468 56.9115 309.837 57.2266 310.103 57.6484C310.374 58.0651 310.509 58.5885 310.509 59.2188V63.1562C310.509 63.4375 310.533 63.737 310.58 64.0547C310.632 64.3724 310.707 64.6458 310.806 64.875V65H309.298C309.226 64.8333 309.168 64.612 309.127 64.3359C309.085 64.0547 309.064 63.7943 309.064 63.5547ZM309.314 59.875L309.33 60.8906H307.869C307.457 60.8906 307.09 60.9245 306.767 60.9922C306.444 61.0547 306.173 61.151 305.955 61.2812C305.736 61.4115 305.569 61.5755 305.455 61.7734C305.34 61.9661 305.283 62.1927 305.283 62.4531C305.283 62.7188 305.343 62.9609 305.462 63.1797C305.582 63.3984 305.762 63.5729 306.002 63.7031C306.246 63.8281 306.546 63.8906 306.9 63.8906C307.343 63.8906 307.733 63.7969 308.072 63.6094C308.41 63.4219 308.679 63.1927 308.877 62.9219C309.08 62.651 309.189 62.388 309.205 62.1328L309.822 62.8281C309.785 63.0469 309.686 63.2891 309.525 63.5547C309.364 63.8203 309.147 64.0755 308.877 64.3203C308.611 64.5599 308.293 64.7604 307.923 64.9219C307.559 65.0781 307.147 65.1562 306.689 65.1562C306.116 65.1562 305.614 65.0443 305.181 64.8203C304.754 64.5964 304.421 64.2969 304.181 63.9219C303.947 63.5417 303.83 63.1172 303.83 62.6484C303.83 62.1953 303.918 61.7969 304.095 61.4531C304.272 61.1042 304.528 60.8151 304.861 60.5859C305.194 60.3516 305.595 60.1745 306.064 60.0547C306.533 59.9349 307.056 59.875 307.634 59.875H309.314ZM314.503 53V65H313.05V53H314.503ZM322.145 63.0469V56.5469H323.598V65H322.216L322.145 63.0469ZM322.419 61.2656L323.02 61.25C323.02 61.8125 322.96 62.3333 322.841 62.8125C322.726 63.2865 322.539 63.6979 322.278 64.0469C322.018 64.3958 321.677 64.6693 321.255 64.8672C320.833 65.0599 320.32 65.1562 319.716 65.1562C319.304 65.1562 318.927 65.0964 318.583 64.9766C318.244 64.8568 317.953 64.6719 317.708 64.4219C317.463 64.1719 317.273 63.8464 317.138 63.4453C317.007 63.0443 316.942 62.5625 316.942 62V56.5469H318.388V62.0156C318.388 62.3958 318.429 62.7109 318.513 62.9609C318.601 63.2057 318.718 63.401 318.864 63.5469C319.015 63.6875 319.182 63.7865 319.364 63.8438C319.552 63.901 319.744 63.9297 319.942 63.9297C320.557 63.9297 321.044 63.8125 321.403 63.5781C321.763 63.3385 322.02 63.0182 322.177 62.6172C322.338 62.2109 322.419 61.7604 322.419 61.2656ZM329.459 65.1562C328.871 65.1562 328.337 65.0573 327.858 64.8594C327.384 64.6562 326.975 64.3724 326.631 64.0078C326.293 63.6432 326.032 63.2109 325.85 62.7109C325.668 62.2109 325.577 61.6641 325.577 61.0703V60.7422C325.577 60.0547 325.678 59.4427 325.881 58.9062C326.084 58.3646 326.36 57.9062 326.709 57.5312C327.058 57.1562 327.454 56.8724 327.897 56.6797C328.34 56.487 328.798 56.3906 329.272 56.3906C329.876 56.3906 330.397 56.4948 330.834 56.7031C331.277 56.9115 331.639 57.2031 331.92 57.5781C332.202 57.9479 332.41 58.3854 332.545 58.8906C332.681 59.3906 332.748 59.9375 332.748 60.5312V61.1797H326.436V60H331.303V59.8906C331.282 59.5156 331.204 59.151 331.069 58.7969C330.939 58.4427 330.73 58.151 330.444 57.9219C330.157 57.6927 329.767 57.5781 329.272 57.5781C328.944 57.5781 328.642 57.6484 328.366 57.7891C328.09 57.9245 327.853 58.1276 327.655 58.3984C327.457 58.6693 327.303 59 327.194 59.3906C327.084 59.7812 327.03 60.2318 327.03 60.7422V61.0703C327.03 61.4714 327.084 61.849 327.194 62.2031C327.308 62.5521 327.472 62.8594 327.686 63.125C327.905 63.3906 328.168 63.599 328.475 63.75C328.788 63.901 329.142 63.9766 329.538 63.9766C330.048 63.9766 330.48 63.8724 330.834 63.6641C331.189 63.4557 331.498 63.1771 331.764 62.8281L332.639 63.5234C332.457 63.7995 332.225 64.0625 331.944 64.3125C331.663 64.5625 331.316 64.7656 330.905 64.9219C330.498 65.0781 330.017 65.1562 329.459 65.1562Z" fill="black" fill-opacity="0.87"/>
<rect width="38" height="2" transform="translate(293 32)" fill="white"/>
<path d="M303.164 36.0801V37H298.898V36.0801H303.164ZM299.121 28.4688V37H297.99V28.4688H299.121ZM308.183 35.916V32.6523C308.183 32.4023 308.132 32.1855 308.031 32.002C307.933 31.8145 307.785 31.6699 307.586 31.5684C307.386 31.4668 307.14 31.416 306.847 31.416C306.574 31.416 306.334 31.4629 306.127 31.5566C305.923 31.6504 305.763 31.7734 305.646 31.9258C305.533 32.0781 305.476 32.2422 305.476 32.418H304.392C304.392 32.1914 304.451 31.9668 304.568 31.7441C304.685 31.5215 304.853 31.3203 305.072 31.1406C305.295 30.957 305.56 30.8125 305.869 30.707C306.181 30.5977 306.529 30.543 306.912 30.543C307.373 30.543 307.779 30.6211 308.13 30.7773C308.486 30.9336 308.763 31.1699 308.963 31.4863C309.166 31.7988 309.267 32.1914 309.267 32.6641V35.6172C309.267 35.8281 309.285 36.0527 309.32 36.291C309.359 36.5293 309.416 36.7344 309.49 36.9062V37H308.359C308.304 36.875 308.261 36.709 308.23 36.502C308.199 36.291 308.183 36.0957 308.183 35.916ZM308.371 33.1562L308.382 33.918H307.287C306.978 33.918 306.703 33.9434 306.461 33.9941C306.218 34.041 306.015 34.1133 305.851 34.2109C305.687 34.3086 305.562 34.4316 305.476 34.5801C305.39 34.7246 305.347 34.8945 305.347 35.0898C305.347 35.2891 305.392 35.4707 305.482 35.6348C305.572 35.7988 305.707 35.9297 305.886 36.0273C306.07 36.1211 306.295 36.168 306.56 36.168C306.892 36.168 307.185 36.0977 307.439 35.957C307.693 35.8164 307.894 35.6445 308.043 35.4414C308.195 35.2383 308.277 35.041 308.289 34.8496L308.752 35.3711C308.724 35.5352 308.65 35.7168 308.529 35.916C308.408 36.1152 308.246 36.3066 308.043 36.4902C307.843 36.6699 307.605 36.8203 307.328 36.9414C307.054 37.0586 306.746 37.1172 306.402 37.1172C305.972 37.1172 305.595 37.0332 305.271 36.8652C304.951 36.6973 304.701 36.4727 304.521 36.1914C304.345 35.9062 304.257 35.5879 304.257 35.2363C304.257 34.8965 304.324 34.5977 304.457 34.3398C304.589 34.0781 304.781 33.8613 305.031 33.6895C305.281 33.5137 305.582 33.3809 305.933 33.291C306.285 33.2012 306.677 33.1562 307.111 33.1562H308.371ZM311.116 28H312.206V35.7695L312.113 37H311.116V28ZM316.489 33.7773V33.9004C316.489 34.3613 316.435 34.7891 316.325 35.1836C316.216 35.5742 316.056 35.9141 315.845 36.2031C315.634 36.4922 315.376 36.7168 315.071 36.877C314.767 37.0371 314.417 37.1172 314.023 37.1172C313.62 37.1172 313.267 37.0488 312.962 36.9121C312.661 36.7715 312.407 36.5703 312.2 36.3086C311.993 36.0469 311.827 35.7305 311.702 35.3594C311.581 34.9883 311.497 34.5703 311.45 34.1055V33.5664C311.497 33.0977 311.581 32.6777 311.702 32.3066C311.827 31.9355 311.993 31.6191 312.2 31.3574C312.407 31.0918 312.661 30.8906 312.962 30.7539C313.263 30.6133 313.613 30.543 314.011 30.543C314.409 30.543 314.763 30.6211 315.071 30.7773C315.38 30.9297 315.638 31.1484 315.845 31.4336C316.056 31.7188 316.216 32.0605 316.325 32.459C316.435 32.8535 316.489 33.293 316.489 33.7773ZM315.4 33.9004V33.7773C315.4 33.4609 315.37 33.1641 315.312 32.8867C315.253 32.6055 315.159 32.3594 315.03 32.1484C314.902 31.9336 314.732 31.7656 314.521 31.6445C314.31 31.5195 314.05 31.457 313.741 31.457C313.468 31.457 313.23 31.5039 313.027 31.5977C312.827 31.6914 312.657 31.8184 312.517 31.9785C312.376 32.1348 312.261 32.3145 312.171 32.5176C312.085 32.7168 312.021 32.9238 311.978 33.1387V34.5508C312.04 34.8242 312.142 35.0879 312.282 35.3418C312.427 35.5918 312.618 35.7969 312.857 35.957C313.099 36.1172 313.398 36.1973 313.753 36.1973C314.046 36.1973 314.296 36.1387 314.503 36.0215C314.714 35.9004 314.884 35.7344 315.013 35.5234C315.146 35.3125 315.243 35.0684 315.306 34.791C315.368 34.5137 315.4 34.2168 315.4 33.9004ZM320.641 37.1172C320.2 37.1172 319.8 37.043 319.44 36.8945C319.085 36.7422 318.778 36.5293 318.52 36.2559C318.266 35.9824 318.071 35.6582 317.934 35.2832C317.798 34.9082 317.729 34.498 317.729 34.0527V33.8066C317.729 33.291 317.805 32.832 317.958 32.4297C318.11 32.0234 318.317 31.6797 318.579 31.3984C318.841 31.1172 319.138 30.9043 319.47 30.7598C319.802 30.6152 320.145 30.543 320.501 30.543C320.954 30.543 321.345 30.6211 321.673 30.7773C322.005 30.9336 322.276 31.1523 322.487 31.4336C322.698 31.7109 322.854 32.0391 322.956 32.418C323.057 32.793 323.108 33.2031 323.108 33.6484V34.1348H318.374V33.25H322.024V33.168C322.009 32.8867 321.95 32.6133 321.848 32.3477C321.751 32.082 321.595 31.8633 321.38 31.6914C321.165 31.5195 320.872 31.4336 320.501 31.4336C320.255 31.4336 320.028 31.4863 319.821 31.5918C319.614 31.6934 319.436 31.8457 319.288 32.0488C319.139 32.252 319.024 32.5 318.942 32.793C318.86 33.0859 318.819 33.4238 318.819 33.8066V34.0527C318.819 34.3535 318.86 34.6367 318.942 34.9023C319.028 35.1641 319.151 35.3945 319.311 35.5938C319.475 35.793 319.673 35.9492 319.903 36.0625C320.138 36.1758 320.403 36.2324 320.7 36.2324C321.083 36.2324 321.407 36.1543 321.673 35.998C321.938 35.8418 322.171 35.6328 322.37 35.3711L323.026 35.8926C322.889 36.0996 322.716 36.2969 322.505 36.4844C322.294 36.6719 322.034 36.8242 321.725 36.9414C321.421 37.0586 321.059 37.1172 320.641 37.1172ZM325.702 28V37H324.612V28H325.702Z" fill="#16A249"/>
<rect x="321.5" y="123.5" width="219" height="55" rx="3.5" stroke="black" stroke-opacity="0.23"/>
<path d="M337.992 154.273L341.344 144.625H342.977L338.766 156H337.602L337.992 154.273ZM334.859 144.625L338.18 154.273L338.594 156H337.43L333.227 144.625H334.859ZM349.064 154.555V150.203C349.064 149.87 348.996 149.581 348.861 149.336C348.731 149.086 348.533 148.893 348.267 148.758C348.002 148.622 347.673 148.555 347.283 148.555C346.918 148.555 346.598 148.617 346.322 148.742C346.051 148.867 345.837 149.031 345.681 149.234C345.53 149.438 345.455 149.656 345.455 149.891H344.009C344.009 149.589 344.087 149.289 344.244 148.992C344.4 148.695 344.624 148.427 344.916 148.188C345.212 147.943 345.567 147.75 345.978 147.609C346.395 147.464 346.858 147.391 347.369 147.391C347.983 147.391 348.525 147.495 348.994 147.703C349.468 147.911 349.837 148.227 350.103 148.648C350.374 149.065 350.509 149.589 350.509 150.219V154.156C350.509 154.438 350.533 154.737 350.58 155.055C350.632 155.372 350.707 155.646 350.806 155.875V156H349.298C349.226 155.833 349.168 155.612 349.127 155.336C349.085 155.055 349.064 154.794 349.064 154.555ZM349.314 150.875L349.33 151.891H347.869C347.457 151.891 347.09 151.924 346.767 151.992C346.444 152.055 346.173 152.151 345.955 152.281C345.736 152.411 345.569 152.576 345.455 152.773C345.34 152.966 345.283 153.193 345.283 153.453C345.283 153.719 345.343 153.961 345.462 154.18C345.582 154.398 345.762 154.573 346.002 154.703C346.246 154.828 346.546 154.891 346.9 154.891C347.343 154.891 347.733 154.797 348.072 154.609C348.41 154.422 348.679 154.193 348.877 153.922C349.08 153.651 349.189 153.388 349.205 153.133L349.822 153.828C349.785 154.047 349.686 154.289 349.525 154.555C349.364 154.82 349.147 155.076 348.877 155.32C348.611 155.56 348.293 155.76 347.923 155.922C347.559 156.078 347.147 156.156 346.689 156.156C346.116 156.156 345.614 156.044 345.181 155.82C344.754 155.596 344.421 155.297 344.181 154.922C343.947 154.542 343.83 154.117 343.83 153.648C343.83 153.195 343.918 152.797 344.095 152.453C344.272 152.104 344.528 151.815 344.861 151.586C345.194 151.352 345.595 151.174 346.064 151.055C346.533 150.935 347.056 150.875 347.634 150.875H349.314ZM354.503 144V156H353.05V144H354.503ZM362.145 154.047V147.547H363.598V156H362.216L362.145 154.047ZM362.419 152.266L363.02 152.25C363.02 152.812 362.96 153.333 362.841 153.812C362.726 154.286 362.539 154.698 362.278 155.047C362.018 155.396 361.677 155.669 361.255 155.867C360.833 156.06 360.32 156.156 359.716 156.156C359.304 156.156 358.927 156.096 358.583 155.977C358.244 155.857 357.953 155.672 357.708 155.422C357.463 155.172 357.273 154.846 357.138 154.445C357.007 154.044 356.942 153.562 356.942 153V147.547H358.388V153.016C358.388 153.396 358.429 153.711 358.513 153.961C358.601 154.206 358.718 154.401 358.864 154.547C359.015 154.688 359.182 154.786 359.364 154.844C359.552 154.901 359.744 154.93 359.942 154.93C360.557 154.93 361.044 154.812 361.403 154.578C361.763 154.339 362.02 154.018 362.177 153.617C362.338 153.211 362.419 152.76 362.419 152.266ZM369.459 156.156C368.871 156.156 368.337 156.057 367.858 155.859C367.384 155.656 366.975 155.372 366.631 155.008C366.293 154.643 366.032 154.211 365.85 153.711C365.668 153.211 365.577 152.664 365.577 152.07V151.742C365.577 151.055 365.678 150.443 365.881 149.906C366.084 149.365 366.36 148.906 366.709 148.531C367.058 148.156 367.454 147.872 367.897 147.68C368.34 147.487 368.798 147.391 369.272 147.391C369.876 147.391 370.397 147.495 370.834 147.703C371.277 147.911 371.639 148.203 371.92 148.578C372.202 148.948 372.41 149.385 372.545 149.891C372.681 150.391 372.748 150.938 372.748 151.531V152.18H366.436V151H371.303V150.891C371.282 150.516 371.204 150.151 371.069 149.797C370.939 149.443 370.73 149.151 370.444 148.922C370.157 148.693 369.767 148.578 369.272 148.578C368.944 148.578 368.642 148.648 368.366 148.789C368.09 148.924 367.853 149.128 367.655 149.398C367.457 149.669 367.303 150 367.194 150.391C367.084 150.781 367.03 151.232 367.03 151.742V152.07C367.03 152.471 367.084 152.849 367.194 153.203C367.308 153.552 367.472 153.859 367.686 154.125C367.905 154.391 368.168 154.599 368.475 154.75C368.788 154.901 369.142 154.977 369.538 154.977C370.048 154.977 370.48 154.872 370.834 154.664C371.189 154.456 371.498 154.177 371.764 153.828L372.639 154.523C372.457 154.799 372.225 155.062 371.944 155.312C371.663 155.562 371.316 155.766 370.905 155.922C370.498 156.078 370.017 156.156 369.459 156.156Z" fill="black" fill-opacity="0.87"/>
<rect width="38" height="2" transform="translate(333 123)" fill="white"/>
<path d="M343.164 127.08V128H338.898V127.08H343.164ZM339.121 119.469V128H337.99V119.469H339.121ZM348.183 126.916V123.652C348.183 123.402 348.132 123.186 348.031 123.002C347.933 122.814 347.785 122.67 347.586 122.568C347.386 122.467 347.14 122.416 346.847 122.416C346.574 122.416 346.334 122.463 346.127 122.557C345.923 122.65 345.763 122.773 345.646 122.926C345.533 123.078 345.476 123.242 345.476 123.418H344.392C344.392 123.191 344.451 122.967 344.568 122.744C344.685 122.521 344.853 122.32 345.072 122.141C345.295 121.957 345.56 121.812 345.869 121.707C346.181 121.598 346.529 121.543 346.912 121.543C347.373 121.543 347.779 121.621 348.13 121.777C348.486 121.934 348.763 122.17 348.963 122.486C349.166 122.799 349.267 123.191 349.267 123.664V126.617C349.267 126.828 349.285 127.053 349.32 127.291C349.359 127.529 349.416 127.734 349.49 127.906V128H348.359C348.304 127.875 348.261 127.709 348.23 127.502C348.199 127.291 348.183 127.096 348.183 126.916ZM348.371 124.156L348.382 124.918H347.287C346.978 124.918 346.703 124.943 346.461 124.994C346.218 125.041 346.015 125.113 345.851 125.211C345.687 125.309 345.562 125.432 345.476 125.58C345.39 125.725 345.347 125.895 345.347 126.09C345.347 126.289 345.392 126.471 345.482 126.635C345.572 126.799 345.707 126.93 345.886 127.027C346.07 127.121 346.295 127.168 346.56 127.168C346.892 127.168 347.185 127.098 347.439 126.957C347.693 126.816 347.894 126.645 348.043 126.441C348.195 126.238 348.277 126.041 348.289 125.85L348.752 126.371C348.724 126.535 348.65 126.717 348.529 126.916C348.408 127.115 348.246 127.307 348.043 127.49C347.843 127.67 347.605 127.82 347.328 127.941C347.054 128.059 346.746 128.117 346.402 128.117C345.972 128.117 345.595 128.033 345.271 127.865C344.951 127.697 344.701 127.473 344.521 127.191C344.345 126.906 344.257 126.588 344.257 126.236C344.257 125.896 344.324 125.598 344.457 125.34C344.589 125.078 344.781 124.861 345.031 124.689C345.281 124.514 345.582 124.381 345.933 124.291C346.285 124.201 346.677 124.156 347.111 124.156H348.371ZM351.116 119H352.206V126.77L352.113 128H351.116V119ZM356.489 124.777V124.9C356.489 125.361 356.435 125.789 356.325 126.184C356.216 126.574 356.056 126.914 355.845 127.203C355.634 127.492 355.376 127.717 355.071 127.877C354.767 128.037 354.417 128.117 354.023 128.117C353.62 128.117 353.267 128.049 352.962 127.912C352.661 127.771 352.407 127.57 352.2 127.309C351.993 127.047 351.827 126.73 351.702 126.359C351.581 125.988 351.497 125.57 351.45 125.105V124.566C351.497 124.098 351.581 123.678 351.702 123.307C351.827 122.936 351.993 122.619 352.2 122.357C352.407 122.092 352.661 121.891 352.962 121.754C353.263 121.613 353.613 121.543 354.011 121.543C354.409 121.543 354.763 121.621 355.071 121.777C355.38 121.93 355.638 122.148 355.845 122.434C356.056 122.719 356.216 123.061 356.325 123.459C356.435 123.854 356.489 124.293 356.489 124.777ZM355.4 124.9V124.777C355.4 124.461 355.37 124.164 355.312 123.887C355.253 123.605 355.159 123.359 355.03 123.148C354.902 122.934 354.732 122.766 354.521 122.645C354.31 122.52 354.05 122.457 353.741 122.457C353.468 122.457 353.23 122.504 353.027 122.598C352.827 122.691 352.657 122.818 352.517 122.979C352.376 123.135 352.261 123.314 352.171 123.518C352.085 123.717 352.021 123.924 351.978 124.139V125.551C352.04 125.824 352.142 126.088 352.282 126.342C352.427 126.592 352.618 126.797 352.857 126.957C353.099 127.117 353.398 127.197 353.753 127.197C354.046 127.197 354.296 127.139 354.503 127.021C354.714 126.9 354.884 126.734 355.013 126.523C355.146 126.312 355.243 126.068 355.306 125.791C355.368 125.514 355.4 125.217 355.4 124.9ZM360.641 128.117C360.2 128.117 359.8 128.043 359.44 127.895C359.085 127.742 358.778 127.529 358.52 127.256C358.266 126.982 358.071 126.658 357.934 126.283C357.798 125.908 357.729 125.498 357.729 125.053V124.807C357.729 124.291 357.805 123.832 357.958 123.43C358.11 123.023 358.317 122.68 358.579 122.398C358.841 122.117 359.138 121.904 359.47 121.76C359.802 121.615 360.145 121.543 360.501 121.543C360.954 121.543 361.345 121.621 361.673 121.777C362.005 121.934 362.276 122.152 362.487 122.434C362.698 122.711 362.854 123.039 362.956 123.418C363.057 123.793 363.108 124.203 363.108 124.648V125.135H358.374V124.25H362.024V124.168C362.009 123.887 361.95 123.613 361.848 123.348C361.751 123.082 361.595 122.863 361.38 122.691C361.165 122.52 360.872 122.434 360.501 122.434C360.255 122.434 360.028 122.486 359.821 122.592C359.614 122.693 359.436 122.846 359.288 123.049C359.139 123.252 359.024 123.5 358.942 123.793C358.86 124.086 358.819 124.424 358.819 124.807V125.053C358.819 125.354 358.86 125.637 358.942 125.902C359.028 126.164 359.151 126.395 359.311 126.594C359.475 126.793 359.673 126.949 359.903 127.062C360.138 127.176 360.403 127.232 360.7 127.232C361.083 127.232 361.407 127.154 361.673 126.998C361.938 126.842 362.171 126.633 362.37 126.371L363.026 126.893C362.889 127.1 362.716 127.297 362.505 127.484C362.294 127.672 362.034 127.824 361.725 127.941C361.421 128.059 361.059 128.117 360.641 128.117ZM365.702 119V128H364.612V119H365.702Z" fill="black" fill-opacity="0.6"/>
</svg>
