<svg width="577" height="229" viewBox="0 0 577 229" fill="none" xmlns="http://www.w3.org/2000/svg">
<path d="M0 6.59997C0 3.28626 2.68629 0.599976 6 0.599976H571C574.314 0.599976 577 3.28627 577 6.59998V228.2H0V6.59997Z" fill="#1C1917"/>
<rect x="56.5" y="25.1" width="219" height="55" rx="3.5" stroke="white" stroke-opacity="0.23"/>
<path d="M72.9922 55.8734L76.3438 46.225H77.9766L73.7656 57.6H72.6016L72.9922 55.8734ZM69.8594 46.225L73.1797 55.8734L73.5938 57.6H72.4297L68.2266 46.225H69.8594ZM84.0641 56.1547V51.8031C84.0641 51.4698 83.9964 51.1807 83.8609 50.9359C83.7307 50.6859 83.5328 50.4932 83.2672 50.3578C83.0016 50.2224 82.6734 50.1547 82.2828 50.1547C81.9182 50.1547 81.5979 50.2172 81.3219 50.3422C81.051 50.4672 80.8375 50.6312 80.6812 50.8344C80.5302 51.0375 80.4547 51.2562 80.4547 51.4906H79.0094C79.0094 51.1885 79.0875 50.889 79.2437 50.5922C79.4 50.2953 79.624 50.0271 79.9156 49.7875C80.2125 49.5427 80.5667 49.35 80.9781 49.2094C81.3948 49.0635 81.8583 48.9906 82.3687 48.9906C82.9833 48.9906 83.525 49.0948 83.9937 49.3031C84.4677 49.5114 84.8375 49.8265 85.1031 50.2484C85.374 50.6651 85.5094 51.1885 85.5094 51.8187V55.7562C85.5094 56.0375 85.5328 56.337 85.5797 56.6547C85.6318 56.9724 85.7073 57.2458 85.8062 57.475V57.6H84.2984C84.2255 57.4333 84.1682 57.212 84.1266 56.9359C84.0849 56.6547 84.0641 56.3942 84.0641 56.1547ZM84.3141 52.475L84.3297 53.4906H82.8687C82.4573 53.4906 82.0901 53.5245 81.7672 53.5922C81.4443 53.6547 81.1734 53.751 80.9547 53.8812C80.7359 54.0114 80.5693 54.1755 80.4547 54.3734C80.3401 54.5661 80.2828 54.7927 80.2828 55.0531C80.2828 55.3187 80.3427 55.5609 80.4625 55.7797C80.5823 55.9984 80.762 56.1729 81.0016 56.3031C81.2464 56.4281 81.5458 56.4906 81.9 56.4906C82.3427 56.4906 82.7333 56.3969 83.0719 56.2094C83.4104 56.0219 83.6786 55.7927 83.8766 55.5219C84.0797 55.251 84.1891 54.988 84.2047 54.7328L84.8219 55.4281C84.7854 55.6469 84.6865 55.889 84.525 56.1547C84.3635 56.4203 84.1474 56.6755 83.8766 56.9203C83.6109 57.1599 83.2932 57.3604 82.9234 57.5219C82.5589 57.6781 82.1474 57.7562 81.6891 57.7562C81.1161 57.7562 80.6135 57.6442 80.1812 57.4203C79.7542 57.1963 79.4208 56.8969 79.1812 56.5219C78.9469 56.1416 78.8297 55.7172 78.8297 55.2484C78.8297 54.7953 78.9182 54.3969 79.0953 54.0531C79.2724 53.7041 79.5276 53.4151 79.8609 53.1859C80.1943 52.9515 80.5953 52.7745 81.0641 52.6547C81.5328 52.5349 82.0562 52.475 82.6344 52.475H84.3141ZM89.5031 45.6V57.6H88.05V45.6H89.5031ZM97.1453 55.6469V49.1469H98.5984V57.6H97.2156L97.1453 55.6469ZM97.4188 53.8656L98.0203 53.85C98.0203 54.4125 97.9604 54.9333 97.8406 55.4125C97.726 55.8864 97.5385 56.2979 97.2781 56.6469C97.0177 56.9958 96.6766 57.2692 96.2547 57.4672C95.8328 57.6599 95.3198 57.7562 94.7156 57.7562C94.3042 57.7562 93.9266 57.6963 93.5828 57.5765C93.2443 57.4567 92.9526 57.2719 92.7078 57.0219C92.463 56.7719 92.2729 56.4463 92.1375 56.0453C92.0073 55.6442 91.9422 55.1625 91.9422 54.6V49.1469H93.3875V54.6156C93.3875 54.9958 93.4292 55.3109 93.5125 55.5609C93.601 55.8057 93.7182 56.001 93.8641 56.1469C94.0151 56.2875 94.1818 56.3864 94.3641 56.4437C94.5516 56.501 94.7443 56.5297 94.9422 56.5297C95.5568 56.5297 96.0438 56.4125 96.4031 56.1781C96.7625 55.9385 97.0203 55.6182 97.1766 55.2172C97.338 54.8109 97.4188 54.3604 97.4188 53.8656ZM104.459 57.7562C103.871 57.7562 103.337 57.6573 102.858 57.4594C102.384 57.2562 101.975 56.9724 101.631 56.6078C101.293 56.2432 101.032 55.8109 100.85 55.3109C100.668 54.8109 100.577 54.264 100.577 53.6703V53.3422C100.577 52.6547 100.678 52.0427 100.881 51.5062C101.084 50.9646 101.36 50.5062 101.709 50.1312C102.058 49.7562 102.454 49.4724 102.897 49.2797C103.34 49.087 103.798 48.9906 104.272 48.9906C104.876 48.9906 105.397 49.0948 105.834 49.3031C106.277 49.5114 106.639 49.8031 106.92 50.1781C107.202 50.5479 107.41 50.9854 107.545 51.4906C107.681 51.9906 107.748 52.5375 107.748 53.1312V53.7797H101.436V52.6H106.303V52.4906C106.282 52.1156 106.204 51.751 106.069 51.3969C105.939 51.0427 105.73 50.751 105.444 50.5219C105.157 50.2927 104.767 50.1781 104.272 50.1781C103.944 50.1781 103.642 50.2484 103.366 50.389C103.09 50.5245 102.853 50.7276 102.655 50.9984C102.457 51.2692 102.303 51.6 102.194 51.9906C102.084 52.3812 102.03 52.8317 102.03 53.3422V53.6703C102.03 54.0713 102.084 54.4489 102.194 54.8031C102.308 55.1521 102.472 55.4594 102.686 55.725C102.905 55.9906 103.168 56.1989 103.475 56.35C103.788 56.501 104.142 56.5765 104.538 56.5765C105.048 56.5765 105.48 56.4724 105.834 56.264C106.189 56.0557 106.498 55.7771 106.764 55.4281L107.639 56.1234C107.457 56.3995 107.225 56.6625 106.944 56.9125C106.663 57.1625 106.316 57.3656 105.905 57.5219C105.498 57.6781 105.017 57.7562 104.459 57.7562Z" fill="white"/>
<path d="M247 50.1L252 55.1L257 50.1H247Z" fill="white" fill-opacity="0.56"/>
<rect width="38" height="2" transform="translate(68 24.6)" fill="#1C1917"/>
<path d="M78.1641 28.6801V29.6H73.8984V28.6801H78.1641ZM74.1211 21.0687V29.6H72.9902V21.0687H74.1211ZM83.1832 28.516V25.2523C83.1832 25.0023 83.1324 24.7855 83.0309 24.6019C82.9332 24.4144 82.7848 24.2699 82.5855 24.1683C82.3863 24.0668 82.1402 24.016 81.8473 24.016C81.5738 24.016 81.3336 24.0629 81.1266 24.1566C80.9234 24.2504 80.7633 24.3734 80.6461 24.5258C80.5328 24.6781 80.4762 24.8422 80.4762 25.0179H79.3922C79.3922 24.7914 79.4508 24.5668 79.568 24.3441C79.6852 24.1215 79.8531 23.9203 80.0719 23.7406C80.2945 23.557 80.5602 23.4125 80.8688 23.307C81.1813 23.1976 81.5289 23.1429 81.9117 23.1429C82.3727 23.1429 82.7789 23.2211 83.1305 23.3773C83.4859 23.5336 83.7633 23.7699 83.9625 24.0863C84.1656 24.3988 84.2672 24.7914 84.2672 25.264V28.2172C84.2672 28.4281 84.2848 28.6527 84.3199 28.891C84.359 29.1293 84.4156 29.3344 84.4898 29.5062V29.6H83.359C83.3043 29.475 83.2613 29.309 83.2301 29.1019C83.1988 28.891 83.1832 28.6957 83.1832 28.516ZM83.3707 25.7562L83.3824 26.5179H82.2867C81.9781 26.5179 81.7027 26.5433 81.4605 26.5941C81.2184 26.641 81.0152 26.7133 80.8512 26.8109C80.6871 26.9086 80.5621 27.0316 80.4762 27.1801C80.3902 27.3246 80.3473 27.4945 80.3473 27.6898C80.3473 27.889 80.3922 28.0707 80.482 28.2347C80.5719 28.3988 80.7066 28.5297 80.8863 28.6273C81.0699 28.7211 81.2945 28.7679 81.5602 28.7679C81.8922 28.7679 82.1852 28.6976 82.4391 28.557C82.693 28.4164 82.8941 28.2445 83.0426 28.0414C83.1949 27.8383 83.277 27.641 83.2887 27.4496L83.7516 27.9711C83.7242 28.1351 83.65 28.3168 83.5289 28.516C83.4078 28.7152 83.2457 28.9066 83.0426 29.0902C82.8434 29.2699 82.6051 29.4203 82.3277 29.5414C82.0543 29.6586 81.7457 29.7172 81.402 29.7172C80.9723 29.7172 80.5953 29.6332 80.2711 29.4652C79.9508 29.2972 79.7008 29.0726 79.5211 28.7914C79.3453 28.5062 79.2574 28.1879 79.2574 27.8363C79.2574 27.4965 79.3238 27.1976 79.4566 26.9398C79.5895 26.6781 79.7809 26.4613 80.0309 26.2894C80.2809 26.1136 80.5816 25.9808 80.9332 25.891C81.2848 25.8011 81.6773 25.7562 82.1109 25.7562H83.3707ZM86.1164 20.6H87.2063V28.3695L87.1125 29.6H86.1164V20.6ZM91.4895 26.3773V26.5004C91.4895 26.9613 91.4348 27.389 91.3254 27.7836C91.216 28.1742 91.0559 28.514 90.8449 28.8031C90.634 29.0922 90.3762 29.3168 90.0715 29.4769C89.7668 29.6371 89.4172 29.7172 89.0227 29.7172C88.6203 29.7172 88.2668 29.6488 87.9621 29.5121C87.6613 29.3715 87.4074 29.1703 87.2004 28.9086C86.9934 28.6469 86.8273 28.3304 86.7023 27.9594C86.5813 27.5883 86.4973 27.1703 86.4504 26.7054V26.1664C86.4973 25.6976 86.5813 25.2777 86.7023 24.9066C86.8273 24.5355 86.9934 24.2191 87.2004 23.9574C87.4074 23.6918 87.6613 23.4906 87.9621 23.3539C88.2629 23.2133 88.6125 23.1429 89.0109 23.1429C89.4094 23.1429 89.7629 23.2211 90.0715 23.3773C90.3801 23.5297 90.6379 23.7484 90.8449 24.0336C91.0559 24.3187 91.216 24.6605 91.3254 25.059C91.4348 25.4535 91.4895 25.8929 91.4895 26.3773ZM90.3996 26.5004V26.3773C90.3996 26.0609 90.3703 25.764 90.3117 25.4867C90.2531 25.2054 90.1594 24.9594 90.0305 24.7484C89.9016 24.5336 89.7316 24.3656 89.5207 24.2445C89.3098 24.1195 89.05 24.057 88.7414 24.057C88.468 24.057 88.2297 24.1039 88.0266 24.1976C87.8273 24.2914 87.6574 24.4183 87.5168 24.5785C87.3762 24.7347 87.2609 24.9144 87.1711 25.1176C87.0852 25.3168 87.0207 25.5238 86.9777 25.7386V27.1508C87.0402 27.4242 87.1418 27.6879 87.2824 27.9418C87.427 28.1918 87.6184 28.3969 87.8566 28.557C88.0988 28.7172 88.3977 28.7972 88.7531 28.7972C89.0461 28.7972 89.2961 28.7386 89.5031 28.6215C89.7141 28.5004 89.884 28.3344 90.0129 28.1234C90.1457 27.9125 90.2434 27.6683 90.3059 27.391C90.3684 27.1136 90.3996 26.8168 90.3996 26.5004ZM95.6414 29.7172C95.2 29.7172 94.7996 29.6429 94.4402 29.4945C94.0848 29.3422 93.7781 29.1293 93.5203 28.8558C93.2664 28.5824 93.0711 28.2582 92.9344 27.8832C92.7977 27.5082 92.7293 27.098 92.7293 26.6527V26.4066C92.7293 25.891 92.8055 25.432 92.9578 25.0297C93.1102 24.6234 93.3172 24.2797 93.5789 23.9984C93.8406 23.7172 94.1375 23.5043 94.4695 23.3597C94.8016 23.2152 95.1453 23.1429 95.5008 23.1429C95.9539 23.1429 96.3445 23.2211 96.6727 23.3773C97.0047 23.5336 97.2762 23.7523 97.4871 24.0336C97.698 24.3109 97.8543 24.639 97.9559 25.0179C98.0574 25.3929 98.1082 25.8031 98.1082 26.2484V26.7347H93.3738V25.85H97.0242V25.7679C97.0086 25.4867 96.95 25.2133 96.8484 24.9476C96.7508 24.682 96.5945 24.4633 96.3797 24.2914C96.1648 24.1195 95.8719 24.0336 95.5008 24.0336C95.2547 24.0336 95.0281 24.0863 94.8211 24.1918C94.6141 24.2933 94.4363 24.4457 94.2879 24.6488C94.1395 24.8519 94.0242 25.1 93.9422 25.3929C93.8602 25.6859 93.8191 26.0238 93.8191 26.4066V26.6527C93.8191 26.9535 93.8602 27.2367 93.9422 27.5023C94.0281 27.764 94.1512 27.9945 94.3113 28.1937C94.4754 28.3929 94.6727 28.5492 94.9031 28.6625C95.1375 28.7758 95.4031 28.8324 95.7 28.8324C96.0828 28.8324 96.407 28.7543 96.6727 28.598C96.9383 28.4418 97.1707 28.2328 97.3699 27.9711L98.0262 28.4926C97.8895 28.6996 97.7156 28.8969 97.5047 29.0844C97.2938 29.2719 97.034 29.4242 96.7254 29.5414C96.4207 29.6586 96.0594 29.7172 95.6414 29.7172ZM100.702 20.6V29.6H99.6117V20.6H100.702Z" fill="white" fill-opacity="0.7"/>
<rect x="301" y="25.6" width="218" height="54" rx="3" stroke="#16A249" stroke-width="2"/>
<path d="M316.992 55.8734L320.344 46.225H321.977L317.766 57.6H316.602L316.992 55.8734ZM313.859 46.225L317.18 55.8734L317.594 57.6H316.43L312.227 46.225H313.859ZM328.064 56.1547V51.8031C328.064 51.4698 327.996 51.1807 327.861 50.9359C327.731 50.6859 327.533 50.4932 327.267 50.3578C327.002 50.2224 326.673 50.1547 326.283 50.1547C325.918 50.1547 325.598 50.2172 325.322 50.3422C325.051 50.4672 324.837 50.6312 324.681 50.8344C324.53 51.0375 324.455 51.2562 324.455 51.4906H323.009C323.009 51.1885 323.087 50.889 323.244 50.5922C323.4 50.2953 323.624 50.0271 323.916 49.7875C324.212 49.5427 324.567 49.35 324.978 49.2094C325.395 49.0635 325.858 48.9906 326.369 48.9906C326.983 48.9906 327.525 49.0948 327.994 49.3031C328.468 49.5114 328.837 49.8265 329.103 50.2484C329.374 50.6651 329.509 51.1885 329.509 51.8187V55.7562C329.509 56.0375 329.533 56.337 329.58 56.6547C329.632 56.9724 329.707 57.2458 329.806 57.475V57.6H328.298C328.226 57.4333 328.168 57.212 328.127 56.9359C328.085 56.6547 328.064 56.3942 328.064 56.1547ZM328.314 52.475L328.33 53.4906H326.869C326.457 53.4906 326.09 53.5245 325.767 53.5922C325.444 53.6547 325.173 53.751 324.955 53.8812C324.736 54.0114 324.569 54.1755 324.455 54.3734C324.34 54.5661 324.283 54.7927 324.283 55.0531C324.283 55.3187 324.343 55.5609 324.462 55.7797C324.582 55.9984 324.762 56.1729 325.002 56.3031C325.246 56.4281 325.546 56.4906 325.9 56.4906C326.343 56.4906 326.733 56.3969 327.072 56.2094C327.41 56.0219 327.679 55.7927 327.877 55.5219C328.08 55.251 328.189 54.988 328.205 54.7328L328.822 55.4281C328.785 55.6469 328.686 55.889 328.525 56.1547C328.364 56.4203 328.147 56.6755 327.877 56.9203C327.611 57.1599 327.293 57.3604 326.923 57.5219C326.559 57.6781 326.147 57.7562 325.689 57.7562C325.116 57.7562 324.614 57.6442 324.181 57.4203C323.754 57.1963 323.421 56.8969 323.181 56.5219C322.947 56.1416 322.83 55.7172 322.83 55.2484C322.83 54.7953 322.918 54.3969 323.095 54.0531C323.272 53.7041 323.528 53.4151 323.861 53.1859C324.194 52.9515 324.595 52.7745 325.064 52.6547C325.533 52.5349 326.056 52.475 326.634 52.475H328.314ZM333.503 45.6V57.6H332.05V45.6H333.503ZM341.145 55.6469V49.1469H342.598V57.6H341.216L341.145 55.6469ZM341.419 53.8656L342.02 53.85C342.02 54.4125 341.96 54.9333 341.841 55.4125C341.726 55.8864 341.539 56.2979 341.278 56.6469C341.018 56.9958 340.677 57.2692 340.255 57.4672C339.833 57.6599 339.32 57.7562 338.716 57.7562C338.304 57.7562 337.927 57.6963 337.583 57.5765C337.244 57.4567 336.953 57.2719 336.708 57.0219C336.463 56.7719 336.273 56.4463 336.138 56.0453C336.007 55.6442 335.942 55.1625 335.942 54.6V49.1469H337.388V54.6156C337.388 54.9958 337.429 55.3109 337.513 55.5609C337.601 55.8057 337.718 56.001 337.864 56.1469C338.015 56.2875 338.182 56.3864 338.364 56.4437C338.552 56.501 338.744 56.5297 338.942 56.5297C339.557 56.5297 340.044 56.4125 340.403 56.1781C340.763 55.9385 341.02 55.6182 341.177 55.2172C341.338 54.8109 341.419 54.3604 341.419 53.8656ZM348.459 57.7562C347.871 57.7562 347.337 57.6573 346.858 57.4594C346.384 57.2562 345.975 56.9724 345.631 56.6078C345.293 56.2432 345.032 55.8109 344.85 55.3109C344.668 54.8109 344.577 54.264 344.577 53.6703V53.3422C344.577 52.6547 344.678 52.0427 344.881 51.5062C345.084 50.9646 345.36 50.5062 345.709 50.1312C346.058 49.7562 346.454 49.4724 346.897 49.2797C347.34 49.087 347.798 48.9906 348.272 48.9906C348.876 48.9906 349.397 49.0948 349.834 49.3031C350.277 49.5114 350.639 49.8031 350.92 50.1781C351.202 50.5479 351.41 50.9854 351.545 51.4906C351.681 51.9906 351.748 52.5375 351.748 53.1312V53.7797H345.436V52.6H350.303V52.4906C350.282 52.1156 350.204 51.751 350.069 51.3969C349.939 51.0427 349.73 50.751 349.444 50.5219C349.157 50.2927 348.767 50.1781 348.272 50.1781C347.944 50.1781 347.642 50.2484 347.366 50.389C347.09 50.5245 346.853 50.7276 346.655 50.9984C346.457 51.2692 346.303 51.6 346.194 51.9906C346.084 52.3812 346.03 52.8317 346.03 53.3422V53.6703C346.03 54.0713 346.084 54.4489 346.194 54.8031C346.308 55.1521 346.472 55.4594 346.686 55.725C346.905 55.9906 347.168 56.1989 347.475 56.35C347.788 56.501 348.142 56.5765 348.538 56.5765C349.048 56.5765 349.48 56.4724 349.834 56.264C350.189 56.0557 350.498 55.7771 350.764 55.4281L351.639 56.1234C351.457 56.3995 351.225 56.6625 350.944 56.9125C350.663 57.1625 350.316 57.3656 349.905 57.5219C349.498 57.6781 349.017 57.7562 348.459 57.7562Z" fill="white" fill-opacity="0.87"/>
<path d="M491 54.6L496 49.6L501 54.6H491Z" fill="white" fill-opacity="0.54"/>
<rect width="38" height="2" transform="translate(312 24.6)" fill="#1C1917"/>
<path d="M322.164 28.6801V29.6H317.898V28.6801H322.164ZM318.121 21.0687V29.6H316.99V21.0687H318.121ZM327.183 28.516V25.2523C327.183 25.0023 327.132 24.7855 327.031 24.6019C326.933 24.4144 326.785 24.2699 326.586 24.1683C326.386 24.0668 326.14 24.016 325.847 24.016C325.574 24.016 325.334 24.0629 325.127 24.1566C324.923 24.2504 324.763 24.3734 324.646 24.5258C324.533 24.6781 324.476 24.8422 324.476 25.0179H323.392C323.392 24.7914 323.451 24.5668 323.568 24.3441C323.685 24.1215 323.853 23.9203 324.072 23.7406C324.295 23.557 324.56 23.4125 324.869 23.307C325.181 23.1976 325.529 23.1429 325.912 23.1429C326.373 23.1429 326.779 23.2211 327.13 23.3773C327.486 23.5336 327.763 23.7699 327.963 24.0863C328.166 24.3988 328.267 24.7914 328.267 25.264V28.2172C328.267 28.4281 328.285 28.6527 328.32 28.891C328.359 29.1293 328.416 29.3344 328.49 29.5062V29.6H327.359C327.304 29.475 327.261 29.309 327.23 29.1019C327.199 28.891 327.183 28.6957 327.183 28.516ZM327.371 25.7562L327.382 26.5179H326.287C325.978 26.5179 325.703 26.5433 325.461 26.5941C325.218 26.641 325.015 26.7133 324.851 26.8109C324.687 26.9086 324.562 27.0316 324.476 27.1801C324.39 27.3246 324.347 27.4945 324.347 27.6898C324.347 27.889 324.392 28.0707 324.482 28.2347C324.572 28.3988 324.707 28.5297 324.886 28.6273C325.07 28.7211 325.295 28.7679 325.56 28.7679C325.892 28.7679 326.185 28.6976 326.439 28.557C326.693 28.4164 326.894 28.2445 327.043 28.0414C327.195 27.8383 327.277 27.641 327.289 27.4496L327.752 27.9711C327.724 28.1351 327.65 28.3168 327.529 28.516C327.408 28.7152 327.246 28.9066 327.043 29.0902C326.843 29.2699 326.605 29.4203 326.328 29.5414C326.054 29.6586 325.746 29.7172 325.402 29.7172C324.972 29.7172 324.595 29.6332 324.271 29.4652C323.951 29.2972 323.701 29.0726 323.521 28.7914C323.345 28.5062 323.257 28.1879 323.257 27.8363C323.257 27.4965 323.324 27.1976 323.457 26.9398C323.589 26.6781 323.781 26.4613 324.031 26.2894C324.281 26.1136 324.582 25.9808 324.933 25.891C325.285 25.8011 325.677 25.7562 326.111 25.7562H327.371ZM330.116 20.6H331.206V28.3695L331.113 29.6H330.116V20.6ZM335.489 26.3773V26.5004C335.489 26.9613 335.435 27.389 335.325 27.7836C335.216 28.1742 335.056 28.514 334.845 28.8031C334.634 29.0922 334.376 29.3168 334.071 29.4769C333.767 29.6371 333.417 29.7172 333.023 29.7172C332.62 29.7172 332.267 29.6488 331.962 29.5121C331.661 29.3715 331.407 29.1703 331.2 28.9086C330.993 28.6469 330.827 28.3304 330.702 27.9594C330.581 27.5883 330.497 27.1703 330.45 26.7054V26.1664C330.497 25.6976 330.581 25.2777 330.702 24.9066C330.827 24.5355 330.993 24.2191 331.2 23.9574C331.407 23.6918 331.661 23.4906 331.962 23.3539C332.263 23.2133 332.613 23.1429 333.011 23.1429C333.409 23.1429 333.763 23.2211 334.071 23.3773C334.38 23.5297 334.638 23.7484 334.845 24.0336C335.056 24.3187 335.216 24.6605 335.325 25.059C335.435 25.4535 335.489 25.8929 335.489 26.3773ZM334.4 26.5004V26.3773C334.4 26.0609 334.37 25.764 334.312 25.4867C334.253 25.2054 334.159 24.9594 334.03 24.7484C333.902 24.5336 333.732 24.3656 333.521 24.2445C333.31 24.1195 333.05 24.057 332.741 24.057C332.468 24.057 332.23 24.1039 332.027 24.1976C331.827 24.2914 331.657 24.4183 331.517 24.5785C331.376 24.7347 331.261 24.9144 331.171 25.1176C331.085 25.3168 331.021 25.5238 330.978 25.7386V27.1508C331.04 27.4242 331.142 27.6879 331.282 27.9418C331.427 28.1918 331.618 28.3969 331.857 28.557C332.099 28.7172 332.398 28.7972 332.753 28.7972C333.046 28.7972 333.296 28.7386 333.503 28.6215C333.714 28.5004 333.884 28.3344 334.013 28.1234C334.146 27.9125 334.243 27.6683 334.306 27.391C334.368 27.1136 334.4 26.8168 334.4 26.5004ZM339.641 29.7172C339.2 29.7172 338.8 29.6429 338.44 29.4945C338.085 29.3422 337.778 29.1293 337.52 28.8558C337.266 28.5824 337.071 28.2582 336.934 27.8832C336.798 27.5082 336.729 27.098 336.729 26.6527V26.4066C336.729 25.891 336.805 25.432 336.958 25.0297C337.11 24.6234 337.317 24.2797 337.579 23.9984C337.841 23.7172 338.138 23.5043 338.47 23.3597C338.802 23.2152 339.145 23.1429 339.501 23.1429C339.954 23.1429 340.345 23.2211 340.673 23.3773C341.005 23.5336 341.276 23.7523 341.487 24.0336C341.698 24.3109 341.854 24.639 341.956 25.0179C342.057 25.3929 342.108 25.8031 342.108 26.2484V26.7347H337.374V25.85H341.024V25.7679C341.009 25.4867 340.95 25.2133 340.848 24.9476C340.751 24.682 340.595 24.4633 340.38 24.2914C340.165 24.1195 339.872 24.0336 339.501 24.0336C339.255 24.0336 339.028 24.0863 338.821 24.1918C338.614 24.2933 338.436 24.4457 338.288 24.6488C338.139 24.8519 338.024 25.1 337.942 25.3929C337.86 25.6859 337.819 26.0238 337.819 26.4066V26.6527C337.819 26.9535 337.86 27.2367 337.942 27.5023C338.028 27.764 338.151 27.9945 338.311 28.1937C338.475 28.3929 338.673 28.5492 338.903 28.6625C339.138 28.7758 339.403 28.8324 339.7 28.8324C340.083 28.8324 340.407 28.7543 340.673 28.598C340.938 28.4418 341.171 28.2328 341.37 27.9711L342.026 28.4926C341.889 28.6996 341.716 28.8969 341.505 29.0844C341.294 29.2719 341.034 29.4242 340.725 29.5414C340.421 29.6586 340.059 29.7172 339.641 29.7172ZM344.702 20.6V29.6H343.612V20.6H344.702Z" fill="#BBBAB9"/>
<g filter="url(#filter0_ddd_1412_16233)">
<g clip-path="url(#clip0_1412_16233)">
<rect x="300" y="80.6" width="220" height="124" rx="4" fill="#252525"/>
<path d="M317.797 100.225H319.258L322.984 109.498L326.703 100.225H328.172L323.547 111.6H322.406L317.797 100.225ZM317.32 100.225H318.609L318.82 107.162V111.6H317.32V100.225ZM327.352 100.225H328.641V111.6H327.141V107.162L327.352 100.225ZM334.728 111.756C334.14 111.756 333.606 111.657 333.127 111.459C332.653 111.256 332.244 110.972 331.9 110.608C331.561 110.243 331.301 109.811 331.119 109.311C330.936 108.811 330.845 108.264 330.845 107.67V107.342C330.845 106.655 330.947 106.043 331.15 105.506C331.353 104.965 331.629 104.506 331.978 104.131C332.327 103.756 332.723 103.472 333.166 103.28C333.608 103.087 334.067 102.991 334.541 102.991C335.145 102.991 335.666 103.095 336.103 103.303C336.546 103.511 336.908 103.803 337.189 104.178C337.47 104.548 337.679 104.985 337.814 105.491C337.949 105.991 338.017 106.537 338.017 107.131V107.78H331.705V106.6H336.572V106.491C336.551 106.116 336.473 105.751 336.337 105.397C336.207 105.043 335.999 104.751 335.712 104.522C335.426 104.293 335.035 104.178 334.541 104.178C334.212 104.178 333.91 104.248 333.634 104.389C333.358 104.524 333.121 104.728 332.923 104.998C332.726 105.269 332.572 105.6 332.462 105.991C332.353 106.381 332.298 106.832 332.298 107.342V107.67C332.298 108.071 332.353 108.449 332.462 108.803C332.577 109.152 332.741 109.459 332.955 109.725C333.173 109.991 333.436 110.199 333.744 110.35C334.056 110.501 334.41 110.577 334.806 110.577C335.317 110.577 335.749 110.472 336.103 110.264C336.457 110.056 336.767 109.777 337.033 109.428L337.908 110.123C337.726 110.399 337.494 110.662 337.212 110.912C336.931 111.162 336.585 111.366 336.173 111.522C335.767 111.678 335.285 111.756 334.728 111.756ZM341.3 104.952V111.6H339.855V103.147H341.222L341.3 104.952ZM340.956 107.053L340.355 107.03C340.36 106.452 340.446 105.918 340.612 105.428C340.779 104.933 341.014 104.504 341.316 104.139C341.618 103.774 341.977 103.493 342.394 103.295C342.816 103.092 343.282 102.991 343.792 102.991C344.209 102.991 344.584 103.048 344.917 103.162C345.251 103.272 345.534 103.449 345.769 103.694C346.008 103.939 346.191 104.256 346.316 104.647C346.441 105.032 346.503 105.504 346.503 106.061V111.6H345.05V106.045C345.05 105.603 344.985 105.248 344.855 104.983C344.724 104.712 344.534 104.517 344.284 104.397C344.034 104.272 343.727 104.209 343.362 104.209C343.003 104.209 342.675 104.285 342.378 104.436C342.086 104.587 341.834 104.795 341.62 105.061C341.412 105.327 341.248 105.631 341.128 105.975C341.014 106.314 340.956 106.673 340.956 107.053ZM354.02 109.647V103.147H355.473V111.6H354.091L354.02 109.647ZM354.294 107.866L354.895 107.85C354.895 108.412 354.835 108.933 354.716 109.412C354.601 109.886 354.414 110.298 354.153 110.647C353.893 110.996 353.552 111.269 353.13 111.467C352.708 111.66 352.195 111.756 351.591 111.756C351.179 111.756 350.802 111.696 350.458 111.577C350.119 111.457 349.828 111.272 349.583 111.022C349.338 110.772 349.148 110.446 349.013 110.045C348.882 109.644 348.817 109.162 348.817 108.6V103.147H350.263V108.616C350.263 108.996 350.304 109.311 350.388 109.561C350.476 109.806 350.593 110.001 350.739 110.147C350.89 110.287 351.057 110.386 351.239 110.444C351.427 110.501 351.619 110.53 351.817 110.53C352.432 110.53 352.919 110.412 353.278 110.178C353.638 109.939 353.895 109.618 354.052 109.217C354.213 108.811 354.294 108.36 354.294 107.866ZM363.781 100.225V111.6H362.273V100.225H363.781ZM369.994 103.147V104.256H365.423V103.147H369.994ZM366.97 101.092H368.416V109.506C368.416 109.793 368.46 110.009 368.548 110.155C368.637 110.3 368.752 110.397 368.892 110.444C369.033 110.491 369.184 110.514 369.345 110.514C369.465 110.514 369.59 110.504 369.72 110.483C369.856 110.457 369.957 110.436 370.025 110.42L370.033 111.6C369.918 111.636 369.767 111.67 369.58 111.702C369.397 111.738 369.176 111.756 368.916 111.756C368.561 111.756 368.236 111.686 367.939 111.545C367.642 111.405 367.405 111.17 367.228 110.842C367.056 110.509 366.97 110.061 366.97 109.498V101.092ZM375.347 111.756C374.758 111.756 374.224 111.657 373.745 111.459C373.271 111.256 372.862 110.972 372.519 110.608C372.18 110.243 371.92 109.811 371.737 109.311C371.555 108.811 371.464 108.264 371.464 107.67V107.342C371.464 106.655 371.566 106.043 371.769 105.506C371.972 104.965 372.248 104.506 372.597 104.131C372.946 103.756 373.342 103.472 373.784 103.28C374.227 103.087 374.685 102.991 375.159 102.991C375.764 102.991 376.284 103.095 376.722 103.303C377.165 103.511 377.527 103.803 377.808 104.178C378.089 104.548 378.297 104.985 378.433 105.491C378.568 105.991 378.636 106.537 378.636 107.131V107.78H372.323V106.6H377.191V106.491C377.17 106.116 377.092 105.751 376.956 105.397C376.826 105.043 376.618 104.751 376.331 104.522C376.045 104.293 375.654 104.178 375.159 104.178C374.831 104.178 374.529 104.248 374.253 104.389C373.977 104.524 373.74 104.728 373.542 104.998C373.344 105.269 373.191 105.6 373.081 105.991C372.972 106.381 372.917 106.832 372.917 107.342V107.67C372.917 108.071 372.972 108.449 373.081 108.803C373.196 109.152 373.36 109.459 373.573 109.725C373.792 109.991 374.055 110.199 374.362 110.35C374.675 110.501 375.029 110.577 375.425 110.577C375.935 110.577 376.368 110.472 376.722 110.264C377.076 110.056 377.386 109.777 377.652 109.428L378.527 110.123C378.344 110.399 378.112 110.662 377.831 110.912C377.55 111.162 377.204 111.366 376.792 111.522C376.386 111.678 375.904 111.756 375.347 111.756ZM381.911 104.827V111.6H380.458V103.147H381.833L381.911 104.827ZM381.614 107.053L380.942 107.03C380.947 106.452 381.023 105.918 381.169 105.428C381.315 104.933 381.531 104.504 381.817 104.139C382.104 103.774 382.46 103.493 382.888 103.295C383.315 103.092 383.809 102.991 384.372 102.991C384.768 102.991 385.132 103.048 385.466 103.162C385.799 103.272 386.088 103.446 386.333 103.686C386.578 103.925 386.768 104.233 386.903 104.608C387.039 104.983 387.106 105.436 387.106 105.967V111.6H385.661V106.037C385.661 105.595 385.585 105.241 385.434 104.975C385.289 104.709 385.08 104.517 384.809 104.397C384.539 104.272 384.221 104.209 383.856 104.209C383.429 104.209 383.072 104.285 382.786 104.436C382.499 104.587 382.27 104.795 382.098 105.061C381.927 105.327 381.802 105.631 381.723 105.975C381.651 106.314 381.614 106.673 381.614 107.053ZM387.091 106.256L386.122 106.553C386.127 106.09 386.203 105.644 386.348 105.217C386.499 104.79 386.716 104.41 386.997 104.077C387.283 103.743 387.635 103.48 388.052 103.287C388.468 103.09 388.945 102.991 389.481 102.991C389.934 102.991 390.335 103.05 390.684 103.17C391.039 103.29 391.335 103.475 391.575 103.725C391.82 103.97 392.005 104.285 392.13 104.67C392.255 105.056 392.317 105.514 392.317 106.045V111.6H390.864V106.03C390.864 105.556 390.789 105.189 390.638 104.928C390.492 104.662 390.283 104.478 390.013 104.373C389.747 104.264 389.429 104.209 389.059 104.209C388.742 104.209 388.46 104.264 388.216 104.373C387.971 104.483 387.765 104.634 387.598 104.827C387.432 105.014 387.304 105.23 387.216 105.475C387.132 105.72 387.091 105.98 387.091 106.256Z" fill="white" fill-opacity="0.87"/>
<rect x="300.25" y="123.85" width="219.5" height="0.5" stroke="white" stroke-opacity="0.12" stroke-width="0.5"/>
<path d="M317.797 136.225H319.258L322.984 145.498L326.703 136.225H328.172L323.547 147.6H322.406L317.797 136.225ZM317.32 136.225H318.609L318.82 143.162V147.6H317.32V136.225ZM327.352 136.225H328.641V147.6H327.141V143.162L327.352 136.225ZM334.728 147.756C334.14 147.756 333.606 147.657 333.127 147.459C332.653 147.256 332.244 146.972 331.9 146.608C331.561 146.243 331.301 145.811 331.119 145.311C330.936 144.811 330.845 144.264 330.845 143.67V143.342C330.845 142.655 330.947 142.043 331.15 141.506C331.353 140.965 331.629 140.506 331.978 140.131C332.327 139.756 332.723 139.472 333.166 139.28C333.608 139.087 334.067 138.991 334.541 138.991C335.145 138.991 335.666 139.095 336.103 139.303C336.546 139.511 336.908 139.803 337.189 140.178C337.47 140.548 337.679 140.985 337.814 141.491C337.949 141.991 338.017 142.537 338.017 143.131V143.78H331.705V142.6H336.572V142.491C336.551 142.116 336.473 141.751 336.337 141.397C336.207 141.043 335.999 140.751 335.712 140.522C335.426 140.293 335.035 140.178 334.541 140.178C334.212 140.178 333.91 140.248 333.634 140.389C333.358 140.524 333.121 140.728 332.923 140.998C332.726 141.269 332.572 141.6 332.462 141.991C332.353 142.381 332.298 142.832 332.298 143.342V143.67C332.298 144.071 332.353 144.449 332.462 144.803C332.577 145.152 332.741 145.459 332.955 145.725C333.173 145.991 333.436 146.199 333.744 146.35C334.056 146.501 334.41 146.577 334.806 146.577C335.317 146.577 335.749 146.472 336.103 146.264C336.457 146.056 336.767 145.777 337.033 145.428L337.908 146.123C337.726 146.399 337.494 146.662 337.212 146.912C336.931 147.162 336.585 147.366 336.173 147.522C335.767 147.678 335.285 147.756 334.728 147.756ZM341.3 140.952V147.6H339.855V139.147H341.222L341.3 140.952ZM340.956 143.053L340.355 143.03C340.36 142.452 340.446 141.918 340.612 141.428C340.779 140.933 341.014 140.504 341.316 140.139C341.618 139.774 341.977 139.493 342.394 139.295C342.816 139.092 343.282 138.991 343.792 138.991C344.209 138.991 344.584 139.048 344.917 139.162C345.251 139.272 345.534 139.449 345.769 139.694C346.008 139.939 346.191 140.256 346.316 140.647C346.441 141.032 346.503 141.504 346.503 142.061V147.6H345.05V142.045C345.05 141.603 344.985 141.248 344.855 140.983C344.724 140.712 344.534 140.517 344.284 140.397C344.034 140.272 343.727 140.209 343.362 140.209C343.003 140.209 342.675 140.285 342.378 140.436C342.086 140.587 341.834 140.795 341.62 141.061C341.412 141.327 341.248 141.631 341.128 141.975C341.014 142.314 340.956 142.673 340.956 143.053ZM354.02 145.647V139.147H355.473V147.6H354.091L354.02 145.647ZM354.294 143.866L354.895 143.85C354.895 144.412 354.835 144.933 354.716 145.412C354.601 145.886 354.414 146.298 354.153 146.647C353.893 146.996 353.552 147.269 353.13 147.467C352.708 147.66 352.195 147.756 351.591 147.756C351.179 147.756 350.802 147.696 350.458 147.577C350.119 147.457 349.828 147.272 349.583 147.022C349.338 146.772 349.148 146.446 349.013 146.045C348.882 145.644 348.817 145.162 348.817 144.6V139.147H350.263V144.616C350.263 144.996 350.304 145.311 350.388 145.561C350.476 145.806 350.593 146.001 350.739 146.147C350.89 146.287 351.057 146.386 351.239 146.444C351.427 146.501 351.619 146.53 351.817 146.53C352.432 146.53 352.919 146.412 353.278 146.178C353.638 145.939 353.895 145.618 354.052 145.217C354.213 144.811 354.294 144.36 354.294 143.866ZM363.781 136.225V147.6H362.273V136.225H363.781ZM369.994 139.147V140.256H365.423V139.147H369.994ZM366.97 137.092H368.416V145.506C368.416 145.793 368.46 146.009 368.548 146.155C368.637 146.3 368.752 146.397 368.892 146.444C369.033 146.491 369.184 146.514 369.345 146.514C369.465 146.514 369.59 146.504 369.72 146.483C369.856 146.457 369.957 146.436 370.025 146.42L370.033 147.6C369.918 147.636 369.767 147.67 369.58 147.702C369.397 147.738 369.176 147.756 368.916 147.756C368.561 147.756 368.236 147.686 367.939 147.545C367.642 147.405 367.405 147.17 367.228 146.842C367.056 146.509 366.97 146.061 366.97 145.498V137.092ZM375.347 147.756C374.758 147.756 374.224 147.657 373.745 147.459C373.271 147.256 372.862 146.972 372.519 146.608C372.18 146.243 371.92 145.811 371.737 145.311C371.555 144.811 371.464 144.264 371.464 143.67V143.342C371.464 142.655 371.566 142.043 371.769 141.506C371.972 140.965 372.248 140.506 372.597 140.131C372.946 139.756 373.342 139.472 373.784 139.28C374.227 139.087 374.685 138.991 375.159 138.991C375.764 138.991 376.284 139.095 376.722 139.303C377.165 139.511 377.527 139.803 377.808 140.178C378.089 140.548 378.297 140.985 378.433 141.491C378.568 141.991 378.636 142.537 378.636 143.131V143.78H372.323V142.6H377.191V142.491C377.17 142.116 377.092 141.751 376.956 141.397C376.826 141.043 376.618 140.751 376.331 140.522C376.045 140.293 375.654 140.178 375.159 140.178C374.831 140.178 374.529 140.248 374.253 140.389C373.977 140.524 373.74 140.728 373.542 140.998C373.344 141.269 373.191 141.6 373.081 141.991C372.972 142.381 372.917 142.832 372.917 143.342V143.67C372.917 144.071 372.972 144.449 373.081 144.803C373.196 145.152 373.36 145.459 373.573 145.725C373.792 145.991 374.055 146.199 374.362 146.35C374.675 146.501 375.029 146.577 375.425 146.577C375.935 146.577 376.368 146.472 376.722 146.264C377.076 146.056 377.386 145.777 377.652 145.428L378.527 146.123C378.344 146.399 378.112 146.662 377.831 146.912C377.55 147.162 377.204 147.366 376.792 147.522C376.386 147.678 375.904 147.756 375.347 147.756ZM381.911 140.827V147.6H380.458V139.147H381.833L381.911 140.827ZM381.614 143.053L380.942 143.03C380.947 142.452 381.023 141.918 381.169 141.428C381.315 140.933 381.531 140.504 381.817 140.139C382.104 139.774 382.46 139.493 382.888 139.295C383.315 139.092 383.809 138.991 384.372 138.991C384.768 138.991 385.132 139.048 385.466 139.162C385.799 139.272 386.088 139.446 386.333 139.686C386.578 139.925 386.768 140.233 386.903 140.608C387.039 140.983 387.106 141.436 387.106 141.967V147.6H385.661V142.037C385.661 141.595 385.585 141.241 385.434 140.975C385.289 140.709 385.08 140.517 384.809 140.397C384.539 140.272 384.221 140.209 383.856 140.209C383.429 140.209 383.072 140.285 382.786 140.436C382.499 140.587 382.27 140.795 382.098 141.061C381.927 141.327 381.802 141.631 381.723 141.975C381.651 142.314 381.614 142.673 381.614 143.053ZM387.091 142.256L386.122 142.553C386.127 142.09 386.203 141.644 386.348 141.217C386.499 140.79 386.716 140.41 386.997 140.077C387.283 139.743 387.635 139.48 388.052 139.287C388.468 139.09 388.945 138.991 389.481 138.991C389.934 138.991 390.335 139.05 390.684 139.17C391.039 139.29 391.335 139.475 391.575 139.725C391.82 139.97 392.005 140.285 392.13 140.67C392.255 141.056 392.317 141.514 392.317 142.045V147.6H390.864V142.03C390.864 141.556 390.789 141.189 390.638 140.928C390.492 140.662 390.283 140.478 390.013 140.373C389.747 140.264 389.429 140.209 389.059 140.209C388.742 140.209 388.46 140.264 388.216 140.373C387.971 140.483 387.765 140.634 387.598 140.827C387.432 141.014 387.304 141.23 387.216 141.475C387.132 141.72 387.091 141.98 387.091 142.256Z" fill="white" fill-opacity="0.87"/>
<rect x="300.25" y="159.85" width="219.5" height="0.5" stroke="white" stroke-opacity="0.12" stroke-width="0.5"/>
<path d="M317.797 172.225H319.258L322.984 181.498L326.703 172.225H328.172L323.547 183.6H322.406L317.797 172.225ZM317.32 172.225H318.609L318.82 179.162V183.6H317.32V172.225ZM327.352 172.225H328.641V183.6H327.141V179.162L327.352 172.225ZM334.728 183.756C334.14 183.756 333.606 183.657 333.127 183.459C332.653 183.256 332.244 182.972 331.9 182.608C331.561 182.243 331.301 181.811 331.119 181.311C330.936 180.811 330.845 180.264 330.845 179.67V179.342C330.845 178.655 330.947 178.043 331.15 177.506C331.353 176.965 331.629 176.506 331.978 176.131C332.327 175.756 332.723 175.472 333.166 175.28C333.608 175.087 334.067 174.991 334.541 174.991C335.145 174.991 335.666 175.095 336.103 175.303C336.546 175.511 336.908 175.803 337.189 176.178C337.47 176.548 337.679 176.985 337.814 177.491C337.949 177.991 338.017 178.537 338.017 179.131V179.78H331.705V178.6H336.572V178.491C336.551 178.116 336.473 177.751 336.337 177.397C336.207 177.043 335.999 176.751 335.712 176.522C335.426 176.293 335.035 176.178 334.541 176.178C334.212 176.178 333.91 176.248 333.634 176.389C333.358 176.524 333.121 176.728 332.923 176.998C332.726 177.269 332.572 177.6 332.462 177.991C332.353 178.381 332.298 178.832 332.298 179.342V179.67C332.298 180.071 332.353 180.449 332.462 180.803C332.577 181.152 332.741 181.459 332.955 181.725C333.173 181.991 333.436 182.199 333.744 182.35C334.056 182.501 334.41 182.577 334.806 182.577C335.317 182.577 335.749 182.472 336.103 182.264C336.457 182.056 336.767 181.777 337.033 181.428L337.908 182.123C337.726 182.399 337.494 182.662 337.212 182.912C336.931 183.162 336.585 183.366 336.173 183.522C335.767 183.678 335.285 183.756 334.728 183.756ZM341.3 176.952V183.6H339.855V175.147H341.222L341.3 176.952ZM340.956 179.053L340.355 179.03C340.36 178.452 340.446 177.918 340.612 177.428C340.779 176.933 341.014 176.504 341.316 176.139C341.618 175.774 341.977 175.493 342.394 175.295C342.816 175.092 343.282 174.991 343.792 174.991C344.209 174.991 344.584 175.048 344.917 175.162C345.251 175.272 345.534 175.449 345.769 175.694C346.008 175.939 346.191 176.256 346.316 176.647C346.441 177.032 346.503 177.504 346.503 178.061V183.6H345.05V178.045C345.05 177.603 344.985 177.248 344.855 176.983C344.724 176.712 344.534 176.517 344.284 176.397C344.034 176.272 343.727 176.209 343.362 176.209C343.003 176.209 342.675 176.285 342.378 176.436C342.086 176.587 341.834 176.795 341.62 177.061C341.412 177.327 341.248 177.631 341.128 177.975C341.014 178.314 340.956 178.673 340.956 179.053ZM354.02 181.647V175.147H355.473V183.6H354.091L354.02 181.647ZM354.294 179.866L354.895 179.85C354.895 180.412 354.835 180.933 354.716 181.412C354.601 181.886 354.414 182.298 354.153 182.647C353.893 182.996 353.552 183.269 353.13 183.467C352.708 183.66 352.195 183.756 351.591 183.756C351.179 183.756 350.802 183.696 350.458 183.577C350.119 183.457 349.828 183.272 349.583 183.022C349.338 182.772 349.148 182.446 349.013 182.045C348.882 181.644 348.817 181.162 348.817 180.6V175.147H350.263V180.616C350.263 180.996 350.304 181.311 350.388 181.561C350.476 181.806 350.593 182.001 350.739 182.147C350.89 182.287 351.057 182.386 351.239 182.444C351.427 182.501 351.619 182.53 351.817 182.53C352.432 182.53 352.919 182.412 353.278 182.178C353.638 181.939 353.895 181.618 354.052 181.217C354.213 180.811 354.294 180.36 354.294 179.866ZM363.781 172.225V183.6H362.273V172.225H363.781ZM369.994 175.147V176.256H365.423V175.147H369.994ZM366.97 173.092H368.416V181.506C368.416 181.793 368.46 182.009 368.548 182.155C368.637 182.3 368.752 182.397 368.892 182.444C369.033 182.491 369.184 182.514 369.345 182.514C369.465 182.514 369.59 182.504 369.72 182.483C369.856 182.457 369.957 182.436 370.025 182.42L370.033 183.6C369.918 183.636 369.767 183.67 369.58 183.702C369.397 183.738 369.176 183.756 368.916 183.756C368.561 183.756 368.236 183.686 367.939 183.545C367.642 183.405 367.405 183.17 367.228 182.842C367.056 182.509 366.97 182.061 366.97 181.498V173.092ZM375.347 183.756C374.758 183.756 374.224 183.657 373.745 183.459C373.271 183.256 372.862 182.972 372.519 182.608C372.18 182.243 371.92 181.811 371.737 181.311C371.555 180.811 371.464 180.264 371.464 179.67V179.342C371.464 178.655 371.566 178.043 371.769 177.506C371.972 176.965 372.248 176.506 372.597 176.131C372.946 175.756 373.342 175.472 373.784 175.28C374.227 175.087 374.685 174.991 375.159 174.991C375.764 174.991 376.284 175.095 376.722 175.303C377.165 175.511 377.527 175.803 377.808 176.178C378.089 176.548 378.297 176.985 378.433 177.491C378.568 177.991 378.636 178.537 378.636 179.131V179.78H372.323V178.6H377.191V178.491C377.17 178.116 377.092 177.751 376.956 177.397C376.826 177.043 376.618 176.751 376.331 176.522C376.045 176.293 375.654 176.178 375.159 176.178C374.831 176.178 374.529 176.248 374.253 176.389C373.977 176.524 373.74 176.728 373.542 176.998C373.344 177.269 373.191 177.6 373.081 177.991C372.972 178.381 372.917 178.832 372.917 179.342V179.67C372.917 180.071 372.972 180.449 373.081 180.803C373.196 181.152 373.36 181.459 373.573 181.725C373.792 181.991 374.055 182.199 374.362 182.35C374.675 182.501 375.029 182.577 375.425 182.577C375.935 182.577 376.368 182.472 376.722 182.264C377.076 182.056 377.386 181.777 377.652 181.428L378.527 182.123C378.344 182.399 378.112 182.662 377.831 182.912C377.55 183.162 377.204 183.366 376.792 183.522C376.386 183.678 375.904 183.756 375.347 183.756ZM381.911 176.827V183.6H380.458V175.147H381.833L381.911 176.827ZM381.614 179.053L380.942 179.03C380.947 178.452 381.023 177.918 381.169 177.428C381.315 176.933 381.531 176.504 381.817 176.139C382.104 175.774 382.46 175.493 382.888 175.295C383.315 175.092 383.809 174.991 384.372 174.991C384.768 174.991 385.132 175.048 385.466 175.162C385.799 175.272 386.088 175.446 386.333 175.686C386.578 175.925 386.768 176.233 386.903 176.608C387.039 176.983 387.106 177.436 387.106 177.967V183.6H385.661V178.037C385.661 177.595 385.585 177.241 385.434 176.975C385.289 176.709 385.08 176.517 384.809 176.397C384.539 176.272 384.221 176.209 383.856 176.209C383.429 176.209 383.072 176.285 382.786 176.436C382.499 176.587 382.27 176.795 382.098 177.061C381.927 177.327 381.802 177.631 381.723 177.975C381.651 178.314 381.614 178.673 381.614 179.053ZM387.091 178.256L386.122 178.553C386.127 178.09 386.203 177.644 386.348 177.217C386.499 176.79 386.716 176.41 386.997 176.077C387.283 175.743 387.635 175.48 388.052 175.287C388.468 175.09 388.945 174.991 389.481 174.991C389.934 174.991 390.335 175.05 390.684 175.17C391.039 175.29 391.335 175.475 391.575 175.725C391.82 175.97 392.005 176.285 392.13 176.67C392.255 177.056 392.317 177.514 392.317 178.045V183.6H390.864V178.03C390.864 177.556 390.789 177.189 390.638 176.928C390.492 176.662 390.283 176.478 390.013 176.373C389.747 176.264 389.429 176.209 389.059 176.209C388.742 176.209 388.46 176.264 388.216 176.373C387.971 176.483 387.765 176.634 387.598 176.827C387.432 177.014 387.304 177.23 387.216 177.475C387.132 177.72 387.091 177.98 387.091 178.256Z" fill="white" fill-opacity="0.87"/>
<rect x="300.25" y="195.85" width="219.5" height="0.5" stroke="white" stroke-opacity="0.12" stroke-width="0.5"/>
</g>
</g>
<path d="M212 138.1H211.5V138.6H212V138.1ZM287.5 138.1L282.5 135.213V140.987L287.5 138.1ZM211.5 88.6V138.1H212.5V88.6H211.5ZM212 138.6H283V137.6H212V138.6Z" fill="#F2F2F2"/>
<path d="M235 168.68C234.2 168.68 233.475 168.52 232.824 168.2C232.173 167.88 231.613 167.448 231.144 166.904C230.675 166.349 230.312 165.731 230.056 165.048C229.8 164.355 229.672 163.645 229.672 162.92C229.672 162.163 229.805 161.443 230.072 160.76C230.339 160.067 230.712 159.453 231.192 158.92C231.683 158.376 232.253 157.949 232.904 157.64C233.555 157.32 234.259 157.16 235.016 157.16C235.816 157.16 236.541 157.325 237.192 157.656C237.843 157.987 238.397 158.429 238.856 158.984C239.325 159.539 239.688 160.157 239.944 160.84C240.2 161.523 240.328 162.221 240.328 162.936C240.328 163.693 240.195 164.419 239.928 165.112C239.661 165.795 239.288 166.408 238.808 166.952C238.328 167.485 237.763 167.907 237.112 168.216C236.461 168.525 235.757 168.68 235 168.68ZM230.792 162.92C230.792 163.539 230.893 164.136 231.096 164.712C231.299 165.277 231.587 165.784 231.96 166.232C232.333 166.669 232.776 167.021 233.288 167.288C233.811 167.544 234.381 167.672 235 167.672C235.651 167.672 236.232 167.539 236.744 167.272C237.267 166.995 237.709 166.632 238.072 166.184C238.445 165.725 238.728 165.213 238.92 164.648C239.112 164.083 239.208 163.507 239.208 162.92C239.208 162.301 239.107 161.709 238.904 161.144C238.701 160.579 238.408 160.072 238.024 159.624C237.651 159.176 237.208 158.824 236.696 158.568C236.184 158.312 235.619 158.184 235 158.184C234.36 158.184 233.779 158.317 233.256 158.584C232.744 158.851 232.301 159.213 231.928 159.672C231.565 160.12 231.283 160.627 231.08 161.192C230.888 161.757 230.792 162.333 230.792 162.92ZM246.559 168.76C245.866 168.76 245.242 168.579 244.687 168.216C244.143 167.853 243.711 167.405 243.391 166.872V172.008H242.303V160.264H243.279V161.88C243.61 161.357 244.052 160.936 244.607 160.616C245.162 160.285 245.754 160.12 246.383 160.12C246.959 160.12 247.487 160.243 247.967 160.488C248.447 160.723 248.863 161.043 249.215 161.448C249.567 161.853 249.839 162.317 250.031 162.84C250.234 163.352 250.335 163.885 250.335 164.44C250.335 165.219 250.175 165.939 249.855 166.6C249.546 167.251 249.108 167.773 248.543 168.168C247.978 168.563 247.316 168.76 246.559 168.76ZM246.255 167.8C246.714 167.8 247.124 167.709 247.487 167.528C247.85 167.336 248.159 167.08 248.415 166.76C248.682 166.44 248.884 166.083 249.023 165.688C249.162 165.283 249.231 164.867 249.231 164.44C249.231 163.992 249.151 163.565 248.991 163.16C248.842 162.755 248.623 162.397 248.335 162.088C248.047 161.779 247.716 161.533 247.343 161.352C246.97 161.171 246.564 161.08 246.127 161.08C245.85 161.08 245.562 161.133 245.263 161.24C244.964 161.347 244.676 161.501 244.399 161.704C244.132 161.896 243.908 162.115 243.727 162.36C243.546 162.605 243.434 162.867 243.391 163.144V165.704C243.562 166.099 243.791 166.456 244.079 166.776C244.367 167.085 244.698 167.336 245.071 167.528C245.455 167.709 245.85 167.8 246.255 167.8ZM255.928 168.76C255.331 168.76 254.776 168.648 254.264 168.424C253.752 168.189 253.309 167.875 252.936 167.48C252.563 167.075 252.269 166.611 252.056 166.088C251.853 165.565 251.752 165.005 251.752 164.408C251.752 163.629 251.928 162.915 252.28 162.264C252.643 161.613 253.139 161.096 253.768 160.712C254.397 160.317 255.112 160.12 255.912 160.12C256.733 160.12 257.448 160.317 258.056 160.712C258.675 161.107 259.16 161.629 259.512 162.28C259.864 162.92 260.04 163.624 260.04 164.392C260.04 164.477 260.04 164.563 260.04 164.648C260.04 164.723 260.035 164.781 260.024 164.824H252.888C252.941 165.421 253.107 165.955 253.384 166.424C253.672 166.883 254.04 167.251 254.488 167.528C254.947 167.795 255.443 167.928 255.976 167.928C256.52 167.928 257.032 167.789 257.512 167.512C258.003 167.235 258.344 166.872 258.536 166.424L259.48 166.68C259.309 167.075 259.048 167.432 258.696 167.752C258.344 168.072 257.928 168.323 257.448 168.504C256.979 168.675 256.472 168.76 255.928 168.76ZM252.856 164.04H259.016C258.973 163.432 258.808 162.899 258.52 162.44C258.243 161.981 257.875 161.624 257.416 161.368C256.968 161.101 256.472 160.968 255.928 160.968C255.384 160.968 254.888 161.101 254.44 161.368C253.992 161.624 253.624 161.987 253.336 162.456C253.059 162.915 252.899 163.443 252.856 164.04ZM268.877 168.6H267.789V163.944C267.789 162.963 267.645 162.248 267.357 161.8C267.069 161.341 266.615 161.112 265.997 161.112C265.57 161.112 265.149 161.219 264.733 161.432C264.317 161.635 263.949 161.917 263.629 162.28C263.319 162.632 263.095 163.037 262.957 163.496V168.6H261.869V160.264H262.861V162.152C263.085 161.747 263.378 161.395 263.741 161.096C264.103 160.787 264.514 160.547 264.973 160.376C265.431 160.205 265.906 160.12 266.397 160.12C266.855 160.12 267.245 160.205 267.565 160.376C267.885 160.547 268.141 160.792 268.333 161.112C268.525 161.421 268.663 161.8 268.749 162.248C268.834 162.685 268.877 163.176 268.877 163.72V168.6Z" fill="#F2F2F2"/>
<defs>
<filter id="filter0_ddd_1412_16233" x="284" y="67.6" width="252" height="156" filterUnits="userSpaceOnUse" color-interpolation-filters="sRGB">
<feFlood flood-opacity="0" result="BackgroundImageFix"/>
<feColorMatrix in="SourceAlpha" type="matrix" values="0 0 0 0 0 0 0 0 0 0 0 0 0 0 0 0 0 0 127 0" result="hardAlpha"/>
<feMorphology radius="2" operator="dilate" in="SourceAlpha" result="effect1_dropShadow_1412_16233"/>
<feOffset dy="3"/>
<feGaussianBlur stdDeviation="7"/>
<feColorMatrix type="matrix" values="0 0 0 0 0 0 0 0 0 0 0 0 0 0 0 0 0 0 0.12 0"/>
<feBlend mode="normal" in2="BackgroundImageFix" result="effect1_dropShadow_1412_16233"/>
<feColorMatrix in="SourceAlpha" type="matrix" values="0 0 0 0 0 0 0 0 0 0 0 0 0 0 0 0 0 0 127 0" result="hardAlpha"/>
<feMorphology radius="1" operator="dilate" in="SourceAlpha" result="effect2_dropShadow_1412_16233"/>
<feOffset dy="8"/>
<feGaussianBlur stdDeviation="5"/>
<feColorMatrix type="matrix" values="0 0 0 0 0 0 0 0 0 0 0 0 0 0 0 0 0 0 0.14 0"/>
<feBlend mode="normal" in2="effect1_dropShadow_1412_16233" result="effect2_dropShadow_1412_16233"/>
<feColorMatrix in="SourceAlpha" type="matrix" values="0 0 0 0 0 0 0 0 0 0 0 0 0 0 0 0 0 0 127 0" result="hardAlpha"/>
<feMorphology radius="3" operator="erode" in="SourceAlpha" result="effect3_dropShadow_1412_16233"/>
<feOffset dy="5"/>
<feGaussianBlur stdDeviation="2.5"/>
<feColorMatrix type="matrix" values="0 0 0 0 0 0 0 0 0 0 0 0 0 0 0 0 0 0 0.2 0"/>
<feBlend mode="normal" in2="effect2_dropShadow_1412_16233" result="effect3_dropShadow_1412_16233"/>
<feBlend mode="normal" in="SourceGraphic" in2="effect3_dropShadow_1412_16233" result="shape"/>
</filter>
<clipPath id="clip0_1412_16233">
<rect x="300" y="80.6" width="220" height="124" rx="4" fill="white"/>
</clipPath>
</defs>
</svg>
