<svg width="577" height="228" viewBox="0 0 577 228" fill="none" xmlns="http://www.w3.org/2000/svg">
<path d="M0 5.99999C0 2.68628 2.68629 0 6 0H571C574.314 0 577 2.68629 577 6V227.6H0V5.99999Z" fill="white"/>
<g filter="url(#filter0_ddd_1412_16494)">
<rect x="53" y="62" width="243" height="42" rx="4" fill="#16A249"/>
<path d="M149.083 83.1807H146.366L146.351 81.8403H148.724C149.125 81.8403 149.464 81.7817 149.742 81.6646C150.025 81.5425 150.24 81.3691 150.387 81.1445C150.533 80.915 150.606 80.6392 150.606 80.3169C150.606 79.9604 150.538 79.6699 150.401 79.4453C150.265 79.2207 150.055 79.0571 149.771 78.9546C149.493 78.8521 149.137 78.8008 148.702 78.8008H146.922V88H145.084V77.3359H148.702C149.288 77.3359 149.811 77.3921 150.27 77.5044C150.733 77.6167 151.126 77.7925 151.449 78.0317C151.776 78.2661 152.022 78.564 152.188 78.9253C152.359 79.2866 152.445 79.7163 152.445 80.2144C152.445 80.6538 152.34 81.0566 152.13 81.4229C151.92 81.7842 151.61 82.0796 151.2 82.3091C150.79 82.5386 150.279 82.6753 149.669 82.7192L149.083 83.1807ZM149.002 88H145.787L146.615 86.5425H149.002C149.417 86.5425 149.764 86.4741 150.042 86.3374C150.321 86.1958 150.528 86.0029 150.665 85.7588C150.807 85.5098 150.877 85.2192 150.877 84.8872C150.877 84.5405 150.816 84.2402 150.694 83.9863C150.572 83.7275 150.379 83.5298 150.116 83.3931C149.852 83.2515 149.508 83.1807 149.083 83.1807H147.018L147.032 81.8403H149.72L150.138 82.3457C150.724 82.3652 151.205 82.4946 151.581 82.7339C151.961 82.9731 152.245 83.2832 152.43 83.6641C152.616 84.0449 152.708 84.4551 152.708 84.8945C152.708 85.5732 152.56 86.1421 152.262 86.6011C151.969 87.0601 151.546 87.4092 150.995 87.6484C150.443 87.8828 149.779 88 149.002 88ZM161.005 77.3359H162.836V84.4624C162.836 85.2729 162.661 85.9517 162.309 86.4985C161.958 87.0454 161.479 87.458 160.874 87.7363C160.273 88.0098 159.602 88.1465 158.859 88.1465C158.093 88.1465 157.409 88.0098 156.809 87.7363C156.208 87.458 155.734 87.0454 155.388 86.4985C155.046 85.9517 154.875 85.2729 154.875 84.4624V77.3359H156.706V84.4624C156.706 84.9751 156.794 85.3975 156.97 85.7295C157.146 86.0566 157.395 86.2983 157.717 86.4546C158.039 86.6108 158.42 86.689 158.859 86.689C159.299 86.689 159.677 86.6108 159.995 86.4546C160.317 86.2983 160.566 86.0566 160.742 85.7295C160.918 85.3975 161.005 84.9751 161.005 84.4624V77.3359ZM169.683 77.3359V88H167.859V77.3359H169.683ZM173.03 77.3359V78.8008H164.542V77.3359H173.03ZM179.401 77.3359V88H177.577V77.3359H179.401ZM182.748 77.3359V78.8008H174.259V77.3359H182.748ZM192.913 82.375V82.9609C192.913 83.7666 192.808 84.4893 192.598 85.1289C192.388 85.7686 192.088 86.313 191.697 86.7622C191.311 87.2114 190.847 87.5557 190.305 87.7949C189.763 88.0293 189.163 88.1465 188.504 88.1465C187.849 88.1465 187.251 88.0293 186.709 87.7949C186.172 87.5557 185.706 87.2114 185.31 86.7622C184.915 86.313 184.607 85.7686 184.387 85.1289C184.173 84.4893 184.065 83.7666 184.065 82.9609V82.375C184.065 81.5693 184.173 80.8491 184.387 80.2144C184.602 79.5747 184.905 79.0303 185.296 78.5811C185.691 78.127 186.157 77.7827 186.694 77.5483C187.236 77.3091 187.835 77.1895 188.489 77.1895C189.148 77.1895 189.749 77.3091 190.291 77.5483C190.833 77.7827 191.299 78.127 191.69 78.5811C192.08 79.0303 192.381 79.5747 192.59 80.2144C192.805 80.8491 192.913 81.5693 192.913 82.375ZM191.074 82.9609V82.3604C191.074 81.7646 191.016 81.2397 190.899 80.7856C190.786 80.3267 190.618 79.9434 190.393 79.6357C190.173 79.3232 189.903 79.0889 189.58 78.9326C189.258 78.7715 188.894 78.6909 188.489 78.6909C188.084 78.6909 187.722 78.7715 187.405 78.9326C187.088 79.0889 186.817 79.3232 186.592 79.6357C186.372 79.9434 186.204 80.3267 186.087 80.7856C185.969 81.2397 185.911 81.7646 185.911 82.3604V82.9609C185.911 83.5566 185.969 84.084 186.087 84.543C186.204 85.002 186.375 85.3901 186.599 85.7075C186.829 86.02 187.102 86.2568 187.42 86.418C187.737 86.5742 188.098 86.6523 188.504 86.6523C188.914 86.6523 189.278 86.5742 189.595 86.418C189.912 86.2568 190.181 86.02 190.401 85.7075C190.62 85.3901 190.786 85.002 190.899 84.543C191.016 84.084 191.074 83.5566 191.074 82.9609ZM203.671 77.3359V88H201.832L197.05 80.3608V88H195.211V77.3359H197.05L201.847 84.9897V77.3359H203.671Z" fill="white"/>
</g>
<g filter="url(#filter1_ddd_1412_16494)">
<rect x="160" y="96" width="243" height="42" rx="4" fill="#12853C"/>
<path d="M256.083 117.181H253.366L253.351 115.84H255.724C256.125 115.84 256.464 115.782 256.742 115.665C257.025 115.542 257.24 115.369 257.387 115.145C257.533 114.915 257.606 114.639 257.606 114.317C257.606 113.96 257.538 113.67 257.401 113.445C257.265 113.221 257.055 113.057 256.771 112.955C256.493 112.852 256.137 112.801 255.702 112.801H253.922V122H252.084V111.336H255.702C256.288 111.336 256.811 111.392 257.27 111.504C257.733 111.617 258.126 111.792 258.449 112.032C258.776 112.266 259.022 112.564 259.188 112.925C259.359 113.287 259.445 113.716 259.445 114.214C259.445 114.654 259.34 115.057 259.13 115.423C258.92 115.784 258.61 116.08 258.2 116.309C257.79 116.539 257.279 116.675 256.669 116.719L256.083 117.181ZM256.002 122H252.787L253.615 120.542H256.002C256.417 120.542 256.764 120.474 257.042 120.337C257.321 120.196 257.528 120.003 257.665 119.759C257.807 119.51 257.877 119.219 257.877 118.887C257.877 118.541 257.816 118.24 257.694 117.986C257.572 117.728 257.379 117.53 257.116 117.393C256.852 117.251 256.508 117.181 256.083 117.181H254.018L254.032 115.84H256.72L257.138 116.346C257.724 116.365 258.205 116.495 258.581 116.734C258.961 116.973 259.245 117.283 259.43 117.664C259.616 118.045 259.708 118.455 259.708 118.895C259.708 119.573 259.56 120.142 259.262 120.601C258.969 121.06 258.546 121.409 257.995 121.648C257.443 121.883 256.779 122 256.002 122ZM268.005 111.336H269.836V118.462C269.836 119.273 269.661 119.952 269.309 120.499C268.958 121.045 268.479 121.458 267.874 121.736C267.273 122.01 266.602 122.146 265.859 122.146C265.093 122.146 264.409 122.01 263.809 121.736C263.208 121.458 262.734 121.045 262.388 120.499C262.046 119.952 261.875 119.273 261.875 118.462V111.336H263.706V118.462C263.706 118.975 263.794 119.397 263.97 119.729C264.146 120.057 264.395 120.298 264.717 120.455C265.039 120.611 265.42 120.689 265.859 120.689C266.299 120.689 266.677 120.611 266.995 120.455C267.317 120.298 267.566 120.057 267.742 119.729C267.918 119.397 268.005 118.975 268.005 118.462V111.336ZM276.683 111.336V122H274.859V111.336H276.683ZM280.03 111.336V112.801H271.542V111.336H280.03ZM286.401 111.336V122H284.577V111.336H286.401ZM289.748 111.336V112.801H281.259V111.336H289.748ZM299.913 116.375V116.961C299.913 117.767 299.808 118.489 299.598 119.129C299.388 119.769 299.088 120.313 298.697 120.762C298.311 121.211 297.847 121.556 297.305 121.795C296.763 122.029 296.163 122.146 295.504 122.146C294.849 122.146 294.251 122.029 293.709 121.795C293.172 121.556 292.706 121.211 292.31 120.762C291.915 120.313 291.607 119.769 291.387 119.129C291.173 118.489 291.065 117.767 291.065 116.961V116.375C291.065 115.569 291.173 114.849 291.387 114.214C291.602 113.575 291.905 113.03 292.296 112.581C292.691 112.127 293.157 111.783 293.694 111.548C294.236 111.309 294.835 111.189 295.489 111.189C296.148 111.189 296.749 111.309 297.291 111.548C297.833 111.783 298.299 112.127 298.69 112.581C299.08 113.03 299.381 113.575 299.59 114.214C299.805 114.849 299.913 115.569 299.913 116.375ZM298.074 116.961V116.36C298.074 115.765 298.016 115.24 297.899 114.786C297.786 114.327 297.618 113.943 297.393 113.636C297.173 113.323 296.903 113.089 296.58 112.933C296.258 112.771 295.894 112.691 295.489 112.691C295.084 112.691 294.722 112.771 294.405 112.933C294.088 113.089 293.817 113.323 293.592 113.636C293.372 113.943 293.204 114.327 293.087 114.786C292.969 115.24 292.911 115.765 292.911 116.36V116.961C292.911 117.557 292.969 118.084 293.087 118.543C293.204 119.002 293.375 119.39 293.599 119.708C293.829 120.02 294.102 120.257 294.42 120.418C294.737 120.574 295.098 120.652 295.504 120.652C295.914 120.652 296.278 120.574 296.595 120.418C296.912 120.257 297.181 120.02 297.401 119.708C297.62 119.39 297.786 119.002 297.899 118.543C298.016 118.084 298.074 117.557 298.074 116.961ZM310.671 111.336V122H308.832L304.05 114.361V122H302.211V111.336H304.05L308.847 118.99V111.336H310.671Z" fill="white"/>
</g>
<g filter="url(#filter2_ddd_1412_16494)">
<rect x="281" y="125" width="243" height="42" rx="4" fill="#7D7D7D"/>
<path d="M377.083 146.181H374.366L374.351 144.84H376.724C377.125 144.84 377.464 144.782 377.742 144.665C378.025 144.542 378.24 144.369 378.387 144.145C378.533 143.915 378.606 143.639 378.606 143.317C378.606 142.96 378.538 142.67 378.401 142.445C378.265 142.221 378.055 142.057 377.771 141.955C377.493 141.852 377.137 141.801 376.702 141.801H374.922V151H373.084V140.336H376.702C377.288 140.336 377.811 140.392 378.27 140.504C378.733 140.617 379.126 140.792 379.449 141.032C379.776 141.266 380.022 141.564 380.188 141.925C380.359 142.287 380.445 142.716 380.445 143.214C380.445 143.654 380.34 144.057 380.13 144.423C379.92 144.784 379.61 145.08 379.2 145.309C378.79 145.539 378.279 145.675 377.669 145.719L377.083 146.181ZM377.002 151H373.787L374.615 149.542H377.002C377.417 149.542 377.764 149.474 378.042 149.337C378.321 149.196 378.528 149.003 378.665 148.759C378.807 148.51 378.877 148.219 378.877 147.887C378.877 147.541 378.816 147.24 378.694 146.986C378.572 146.728 378.379 146.53 378.116 146.393C377.852 146.251 377.508 146.181 377.083 146.181H375.018L375.032 144.84H377.72L378.138 145.346C378.724 145.365 379.205 145.495 379.581 145.734C379.961 145.973 380.245 146.283 380.43 146.664C380.616 147.045 380.708 147.455 380.708 147.895C380.708 148.573 380.56 149.142 380.262 149.601C379.969 150.06 379.546 150.409 378.995 150.648C378.443 150.883 377.779 151 377.002 151ZM389.005 140.336H390.836V147.462C390.836 148.273 390.661 148.952 390.309 149.499C389.958 150.045 389.479 150.458 388.874 150.736C388.273 151.01 387.602 151.146 386.859 151.146C386.093 151.146 385.409 151.01 384.809 150.736C384.208 150.458 383.734 150.045 383.388 149.499C383.046 148.952 382.875 148.273 382.875 147.462V140.336H384.706V147.462C384.706 147.975 384.794 148.397 384.97 148.729C385.146 149.057 385.395 149.298 385.717 149.455C386.039 149.611 386.42 149.689 386.859 149.689C387.299 149.689 387.677 149.611 387.995 149.455C388.317 149.298 388.566 149.057 388.742 148.729C388.918 148.397 389.005 147.975 389.005 147.462V140.336ZM397.683 140.336V151H395.859V140.336H397.683ZM401.03 140.336V141.801H392.542V140.336H401.03ZM407.401 140.336V151H405.577V140.336H407.401ZM410.748 140.336V141.801H402.259V140.336H410.748ZM420.913 145.375V145.961C420.913 146.767 420.808 147.489 420.598 148.129C420.388 148.769 420.088 149.313 419.697 149.762C419.311 150.211 418.847 150.556 418.305 150.795C417.763 151.029 417.163 151.146 416.504 151.146C415.849 151.146 415.251 151.029 414.709 150.795C414.172 150.556 413.706 150.211 413.31 149.762C412.915 149.313 412.607 148.769 412.387 148.129C412.173 147.489 412.065 146.767 412.065 145.961V145.375C412.065 144.569 412.173 143.849 412.387 143.214C412.602 142.575 412.905 142.03 413.296 141.581C413.691 141.127 414.157 140.783 414.694 140.548C415.236 140.309 415.835 140.189 416.489 140.189C417.148 140.189 417.749 140.309 418.291 140.548C418.833 140.783 419.299 141.127 419.69 141.581C420.08 142.03 420.381 142.575 420.59 143.214C420.805 143.849 420.913 144.569 420.913 145.375ZM419.074 145.961V145.36C419.074 144.765 419.016 144.24 418.899 143.786C418.786 143.327 418.618 142.943 418.393 142.636C418.173 142.323 417.903 142.089 417.58 141.933C417.258 141.771 416.894 141.691 416.489 141.691C416.084 141.691 415.722 141.771 415.405 141.933C415.088 142.089 414.817 142.323 414.592 142.636C414.372 142.943 414.204 143.327 414.087 143.786C413.969 144.24 413.911 144.765 413.911 145.36V145.961C413.911 146.557 413.969 147.084 414.087 147.543C414.204 148.002 414.375 148.39 414.599 148.708C414.829 149.02 415.102 149.257 415.42 149.418C415.737 149.574 416.098 149.652 416.504 149.652C416.914 149.652 417.278 149.574 417.595 149.418C417.912 149.257 418.181 149.02 418.401 148.708C418.62 148.39 418.786 148.002 418.899 147.543C419.016 147.084 419.074 146.557 419.074 145.961ZM431.671 140.336V151H429.832L425.05 143.361V151H423.211V140.336H425.05L429.847 147.99V140.336H431.671Z" fill="white"/>
</g>
<defs>
<filter id="filter0_ddd_1412_16494" x="48" y="58" width="253" height="52" filterUnits="userSpaceOnUse" color-interpolation-filters="sRGB">
<feFlood flood-opacity="0" result="BackgroundImageFix"/>
<feColorMatrix in="SourceAlpha" type="matrix" values="0 0 0 0 0 0 0 0 0 0 0 0 0 0 0 0 0 0 127 0" result="hardAlpha"/>
<feOffset dy="1"/>
<feGaussianBlur stdDeviation="2.5"/>
<feColorMatrix type="matrix" values="0 0 0 0 0 0 0 0 0 0 0 0 0 0 0 0 0 0 0.12 0"/>
<feBlend mode="normal" in2="BackgroundImageFix" result="effect1_dropShadow_1412_16494"/>
<feColorMatrix in="SourceAlpha" type="matrix" values="0 0 0 0 0 0 0 0 0 0 0 0 0 0 0 0 0 0 127 0" result="hardAlpha"/>
<feOffset dy="2"/>
<feGaussianBlur stdDeviation="1"/>
<feColorMatrix type="matrix" values="0 0 0 0 0 0 0 0 0 0 0 0 0 0 0 0 0 0 0.14 0"/>
<feBlend mode="normal" in2="effect1_dropShadow_1412_16494" result="effect2_dropShadow_1412_16494"/>
<feColorMatrix in="SourceAlpha" type="matrix" values="0 0 0 0 0 0 0 0 0 0 0 0 0 0 0 0 0 0 127 0" result="hardAlpha"/>
<feMorphology radius="2" operator="erode" in="SourceAlpha" result="effect3_dropShadow_1412_16494"/>
<feOffset dy="3"/>
<feGaussianBlur stdDeviation="0.5"/>
<feColorMatrix type="matrix" values="0 0 0 0 0 0 0 0 0 0 0 0 0 0 0 0 0 0 0.2 0"/>
<feBlend mode="normal" in2="effect2_dropShadow_1412_16494" result="effect3_dropShadow_1412_16494"/>
<feBlend mode="normal" in="SourceGraphic" in2="effect3_dropShadow_1412_16494" result="shape"/>
</filter>
<filter id="filter1_ddd_1412_16494" x="155" y="92" width="253" height="52" filterUnits="userSpaceOnUse" color-interpolation-filters="sRGB">
<feFlood flood-opacity="0" result="BackgroundImageFix"/>
<feColorMatrix in="SourceAlpha" type="matrix" values="0 0 0 0 0 0 0 0 0 0 0 0 0 0 0 0 0 0 127 0" result="hardAlpha"/>
<feOffset dy="1"/>
<feGaussianBlur stdDeviation="2.5"/>
<feColorMatrix type="matrix" values="0 0 0 0 0 0 0 0 0 0 0 0 0 0 0 0 0 0 0.12 0"/>
<feBlend mode="normal" in2="BackgroundImageFix" result="effect1_dropShadow_1412_16494"/>
<feColorMatrix in="SourceAlpha" type="matrix" values="0 0 0 0 0 0 0 0 0 0 0 0 0 0 0 0 0 0 127 0" result="hardAlpha"/>
<feOffset dy="2"/>
<feGaussianBlur stdDeviation="1"/>
<feColorMatrix type="matrix" values="0 0 0 0 0 0 0 0 0 0 0 0 0 0 0 0 0 0 0.14 0"/>
<feBlend mode="normal" in2="effect1_dropShadow_1412_16494" result="effect2_dropShadow_1412_16494"/>
<feColorMatrix in="SourceAlpha" type="matrix" values="0 0 0 0 0 0 0 0 0 0 0 0 0 0 0 0 0 0 127 0" result="hardAlpha"/>
<feMorphology radius="2" operator="erode" in="SourceAlpha" result="effect3_dropShadow_1412_16494"/>
<feOffset dy="3"/>
<feGaussianBlur stdDeviation="0.5"/>
<feColorMatrix type="matrix" values="0 0 0 0 0 0 0 0 0 0 0 0 0 0 0 0 0 0 0.2 0"/>
<feBlend mode="normal" in2="effect2_dropShadow_1412_16494" result="effect3_dropShadow_1412_16494"/>
<feBlend mode="normal" in="SourceGraphic" in2="effect3_dropShadow_1412_16494" result="shape"/>
</filter>
<filter id="filter2_ddd_1412_16494" x="276" y="121" width="253" height="52" filterUnits="userSpaceOnUse" color-interpolation-filters="sRGB">
<feFlood flood-opacity="0" result="BackgroundImageFix"/>
<feColorMatrix in="SourceAlpha" type="matrix" values="0 0 0 0 0 0 0 0 0 0 0 0 0 0 0 0 0 0 127 0" result="hardAlpha"/>
<feOffset dy="1"/>
<feGaussianBlur stdDeviation="2.5"/>
<feColorMatrix type="matrix" values="0 0 0 0 0 0 0 0 0 0 0 0 0 0 0 0 0 0 0.12 0"/>
<feBlend mode="normal" in2="BackgroundImageFix" result="effect1_dropShadow_1412_16494"/>
<feColorMatrix in="SourceAlpha" type="matrix" values="0 0 0 0 0 0 0 0 0 0 0 0 0 0 0 0 0 0 127 0" result="hardAlpha"/>
<feOffset dy="2"/>
<feGaussianBlur stdDeviation="1"/>
<feColorMatrix type="matrix" values="0 0 0 0 0 0 0 0 0 0 0 0 0 0 0 0 0 0 0.14 0"/>
<feBlend mode="normal" in2="effect1_dropShadow_1412_16494" result="effect2_dropShadow_1412_16494"/>
<feColorMatrix in="SourceAlpha" type="matrix" values="0 0 0 0 0 0 0 0 0 0 0 0 0 0 0 0 0 0 127 0" result="hardAlpha"/>
<feMorphology radius="2" operator="erode" in="SourceAlpha" result="effect3_dropShadow_1412_16494"/>
<feOffset dy="3"/>
<feGaussianBlur stdDeviation="0.5"/>
<feColorMatrix type="matrix" values="0 0 0 0 0 0 0 0 0 0 0 0 0 0 0 0 0 0 0.2 0"/>
<feBlend mode="normal" in2="effect2_dropShadow_1412_16494" result="effect3_dropShadow_1412_16494"/>
<feBlend mode="normal" in="SourceGraphic" in2="effect3_dropShadow_1412_16494" result="shape"/>
</filter>
</defs>
</svg>
