<svg width="577" height="228" viewBox="0 0 577 228" fill="none" xmlns="http://www.w3.org/2000/svg">
<g clip-path="url(#clip0_1412_16231)">
<path d="M0 5.99999C0 2.68628 2.68629 0 6 0H571C574.314 0 577 2.68629 577 6V227.6H0V5.99999Z" fill="#D5D5D5"/>
<g filter="url(#filter0_d_1412_16231)">
<rect x="97" y="18" width="384.577" height="373.705" rx="16" fill="white"/>
<path d="M121.5 46.8L127.2 52.4C127.6 52.8 128.2 52.8 128.6 52.4C129 52 129 51.4 128.6 51L123.7 46L128.6 41C129 40.6 129 40 128.6 39.6C128.4 39.4 128.2 39.3 127.9 39.3C127.6 39.3 127.4 39.4 127.2 39.6L121.5 45.2C121.1 45.7 121.1 46.3 121.5 46.8C121.5 46.7 121.5 46.7 121.5 46.8Z" fill="#797B86"/>
<path d="M237.265 51H235.156L238.996 40.0909H241.436L245.282 51H243.172L240.259 42.3281H240.173L237.265 51ZM237.334 46.7227H243.087V48.31H237.334V46.7227ZM249.943 54.2386C249.25 54.2386 248.655 54.1445 248.158 53.9563C247.661 53.7717 247.261 53.5231 246.96 53.2106C246.658 52.8981 246.448 52.5518 246.331 52.1719L248.068 51.7511C248.146 51.9109 248.259 52.0689 248.408 52.2251C248.558 52.3849 248.758 52.5163 249.01 52.6193C249.266 52.7259 249.587 52.7791 249.975 52.7791C250.521 52.7791 250.974 52.646 251.333 52.3796C251.691 52.1168 251.871 51.6836 251.871 51.0799V49.5298H251.775C251.676 49.7287 251.53 49.9329 251.338 50.1424C251.15 50.3519 250.9 50.5277 250.587 50.6697C250.278 50.8118 249.889 50.8828 249.421 50.8828C248.792 50.8828 248.222 50.7354 247.711 50.4407C247.203 50.1424 246.798 49.6985 246.496 49.109C246.198 48.516 246.049 47.7738 246.049 46.8825C246.049 45.984 246.198 45.2259 246.496 44.608C246.798 43.9865 247.205 43.516 247.716 43.1964C248.227 42.8732 248.797 42.7116 249.426 42.7116C249.905 42.7116 250.299 42.7933 250.608 42.9567C250.921 43.1165 251.169 43.31 251.354 43.5373C251.539 43.761 251.679 43.9723 251.775 44.1712H251.881V42.8182H253.783V51.1332C253.783 51.8327 253.616 52.4116 253.282 52.8697C252.949 53.3278 252.492 53.6705 251.913 53.8977C251.335 54.125 250.678 54.2386 249.943 54.2386ZM249.959 49.37C250.367 49.37 250.715 49.2706 251.003 49.0717C251.29 48.8729 251.509 48.587 251.658 48.2141C251.807 47.8413 251.881 47.3938 251.881 46.8718C251.881 46.3569 251.807 45.9059 251.658 45.5188C251.512 45.1317 251.296 44.8317 251.008 44.6186C250.724 44.402 250.374 44.2937 249.959 44.2937C249.529 44.2937 249.17 44.4055 248.883 44.6293C248.595 44.853 248.378 45.1602 248.233 45.5508C248.087 45.9379 248.014 46.3782 248.014 46.8718C248.014 47.3725 248.087 47.8111 248.233 48.1875C248.382 48.5604 248.6 48.8516 248.888 49.0611C249.179 49.267 249.536 49.37 249.959 49.37ZM259.328 51.1598C258.529 51.1598 257.837 50.984 257.251 50.6325C256.665 50.2809 256.21 49.7891 255.887 49.157C255.568 48.5249 255.408 47.7862 255.408 46.9411C255.408 46.0959 255.568 45.3555 255.887 44.7198C256.21 44.0842 256.665 43.5906 257.251 43.239C257.837 42.8874 258.529 42.7116 259.328 42.7116C260.127 42.7116 260.82 42.8874 261.406 43.239C261.992 43.5906 262.444 44.0842 262.764 44.7198C263.087 45.3555 263.249 46.0959 263.249 46.9411C263.249 47.7862 263.087 48.5249 262.764 49.157C262.444 49.7891 261.992 50.2809 261.406 50.6325C260.82 50.984 260.127 51.1598 259.328 51.1598ZM259.339 49.6151C259.772 49.6151 260.134 49.4961 260.426 49.2582C260.717 49.0167 260.933 48.6935 261.075 48.2887C261.221 47.8839 261.294 47.4329 261.294 46.9357C261.294 46.435 261.221 45.9822 261.075 45.5774C260.933 45.169 260.717 44.8441 260.426 44.6026C260.134 44.3612 259.772 44.2404 259.339 44.2404C258.895 44.2404 258.526 44.3612 258.231 44.6026C257.94 44.8441 257.721 45.169 257.576 45.5774C257.434 45.9822 257.363 46.435 257.363 46.9357C257.363 47.4329 257.434 47.8839 257.576 48.2887C257.721 48.6935 257.94 49.0167 258.231 49.2582C258.526 49.4961 258.895 49.6151 259.339 49.6151ZM271.352 44.9808L269.594 45.1726C269.544 44.995 269.457 44.8281 269.333 44.6719C269.212 44.5156 269.049 44.3896 268.843 44.2937C268.637 44.1978 268.385 44.1499 268.087 44.1499C267.685 44.1499 267.348 44.2369 267.075 44.4109C266.805 44.5849 266.672 44.8104 266.675 45.0874C266.672 45.3253 266.759 45.5188 266.936 45.668C267.117 45.8171 267.415 45.9396 267.831 46.0355L269.227 46.3338C270.001 46.5007 270.576 46.7653 270.952 47.1275C271.332 47.4897 271.524 47.9638 271.528 48.5497C271.524 49.0646 271.373 49.5192 271.075 49.9134C270.78 50.304 270.37 50.6094 269.844 50.8295C269.319 51.0497 268.715 51.1598 268.033 51.1598C267.032 51.1598 266.226 50.9503 265.615 50.5312C265.004 50.1087 264.64 49.521 264.523 48.7681L266.403 48.587C266.489 48.9563 266.67 49.2351 266.947 49.4233C267.224 49.6115 267.584 49.7056 268.028 49.7056C268.486 49.7056 268.854 49.6115 269.131 49.4233C269.411 49.2351 269.551 49.0025 269.551 48.7255C269.551 48.4911 269.461 48.2976 269.28 48.1449C269.102 47.9922 268.825 47.875 268.449 47.7933L267.053 47.5004C266.268 47.337 265.688 47.0618 265.311 46.6747C264.935 46.2841 264.749 45.7905 264.752 45.1939C264.749 44.6896 264.885 44.2528 265.162 43.8835C265.443 43.5107 265.832 43.223 266.329 43.0206C266.83 42.8146 267.407 42.7116 268.06 42.7116C269.019 42.7116 269.773 42.9158 270.324 43.3242C270.878 43.7326 271.221 44.2848 271.352 44.9808ZM277.203 42.8182V44.3097H272.5V42.8182H277.203ZM273.661 40.858H275.589V48.5391C275.589 48.7983 275.628 48.9972 275.706 49.1357C275.788 49.2706 275.895 49.3629 276.026 49.4126C276.157 49.4624 276.303 49.4872 276.463 49.4872C276.584 49.4872 276.694 49.4783 276.793 49.4606C276.896 49.4428 276.974 49.4268 277.028 49.4126L277.352 50.9201C277.249 50.9556 277.102 50.9947 276.91 51.0373C276.722 51.0799 276.491 51.1048 276.218 51.1119C275.735 51.1261 275.3 51.0533 274.913 50.8935C274.526 50.7301 274.219 50.478 273.991 50.1371C273.768 49.7962 273.657 49.37 273.661 48.8587V40.858ZM282.297 51.1598C281.498 51.1598 280.805 50.984 280.22 50.6325C279.634 50.2809 279.179 49.7891 278.856 49.157C278.536 48.5249 278.377 47.7862 278.377 46.9411C278.377 46.0959 278.536 45.3555 278.856 44.7198C279.179 44.0842 279.634 43.5906 280.22 43.239C280.805 42.8874 281.498 42.7116 282.297 42.7116C283.096 42.7116 283.788 42.8874 284.374 43.239C284.96 43.5906 285.413 44.0842 285.733 44.7198C286.056 45.3555 286.217 46.0959 286.217 46.9411C286.217 47.7862 286.056 48.5249 285.733 49.157C285.413 49.7891 284.96 50.2809 284.374 50.6325C283.788 50.984 283.096 51.1598 282.297 51.1598ZM282.308 49.6151C282.741 49.6151 283.103 49.4961 283.394 49.2582C283.685 49.0167 283.902 48.6935 284.044 48.2887C284.19 47.8839 284.263 47.4329 284.263 46.9357C284.263 46.435 284.19 45.9822 284.044 45.5774C283.902 45.169 283.685 44.8441 283.394 44.6026C283.103 44.3612 282.741 44.2404 282.308 44.2404C281.864 44.2404 281.494 44.3612 281.2 44.6026C280.908 44.8441 280.69 45.169 280.544 45.5774C280.402 45.9822 280.331 46.435 280.331 46.9357C280.331 47.4329 280.402 47.8839 280.544 48.2887C280.69 48.6935 280.908 49.0167 281.2 49.2582C281.494 49.4961 281.864 49.6151 282.308 49.6151ZM291.553 51V49.5724L295.341 45.8597C295.703 45.494 296.005 45.169 296.246 44.8849C296.488 44.6009 296.669 44.3256 296.79 44.0593C296.91 43.793 296.971 43.5089 296.971 43.207C296.971 42.8626 296.893 42.5678 296.736 42.3228C296.58 42.0742 296.365 41.8825 296.092 41.7475C295.818 41.6126 295.508 41.5451 295.16 41.5451C294.801 41.5451 294.487 41.6197 294.217 41.7688C293.947 41.9144 293.737 42.1222 293.588 42.392C293.443 42.6619 293.37 42.9833 293.37 43.3562H291.49C291.49 42.6637 291.648 42.0618 291.964 41.5504C292.28 41.0391 292.715 40.6431 293.269 40.3626C293.826 40.082 294.465 39.9418 295.186 39.9418C295.918 39.9418 296.561 40.0785 297.115 40.3519C297.669 40.6254 298.098 41 298.404 41.4759C298.713 41.9517 298.867 42.495 298.867 43.1058C298.867 43.5142 298.789 43.9155 298.633 44.3097C298.476 44.7038 298.201 45.1406 297.807 45.62C297.416 46.0994 296.868 46.68 296.161 47.3619L294.281 49.2741V49.3487H299.032V51H291.553ZM304.902 51.2077C304.025 51.2077 303.272 50.9858 302.644 50.5419C302.019 50.0945 301.537 49.4499 301.2 48.6083C300.866 47.7631 300.699 46.7457 300.699 45.5561C300.703 44.3665 300.872 43.3544 301.205 42.5199C301.543 41.6818 302.024 41.0426 302.649 40.6023C303.278 40.1619 304.029 39.9418 304.902 39.9418C305.776 39.9418 306.527 40.1619 307.155 40.6023C307.784 41.0426 308.265 41.6818 308.599 42.5199C308.936 43.358 309.105 44.37 309.105 45.5561C309.105 46.7493 308.936 47.7685 308.599 48.6136C308.265 49.4553 307.784 50.098 307.155 50.5419C306.53 50.9858 305.779 51.2077 304.902 51.2077ZM304.902 49.5405C305.584 49.5405 306.122 49.2049 306.516 48.5337C306.914 47.859 307.113 46.8665 307.113 45.5561C307.113 44.6896 307.022 43.9616 306.841 43.3722C306.66 42.7827 306.404 42.3388 306.074 42.0405C305.744 41.7386 305.353 41.5877 304.902 41.5877C304.224 41.5877 303.688 41.9251 303.294 42.5998C302.899 43.271 302.7 44.2564 302.697 45.5561C302.693 46.4261 302.78 47.1577 302.958 47.7507C303.139 48.3437 303.395 48.7912 303.725 49.093C304.055 49.3913 304.448 49.5405 304.902 49.5405ZM310.875 51V49.5724L314.662 45.8597C315.024 45.494 315.326 45.169 315.568 44.8849C315.809 44.6009 315.99 44.3256 316.111 44.0593C316.232 43.793 316.292 43.5089 316.292 43.207C316.292 42.8626 316.214 42.5678 316.058 42.3228C315.901 42.0742 315.687 41.8825 315.413 41.7475C315.14 41.6126 314.829 41.5451 314.481 41.5451C314.122 41.5451 313.808 41.6197 313.538 41.7688C313.268 41.9144 313.059 42.1222 312.91 42.392C312.764 42.6619 312.691 42.9833 312.691 43.3562H310.811C310.811 42.6637 310.969 42.0618 311.285 41.5504C311.601 41.0391 312.036 40.6431 312.59 40.3626C313.147 40.082 313.787 39.9418 314.508 39.9418C315.239 39.9418 315.882 40.0785 316.436 40.3519C316.99 40.6254 317.419 41 317.725 41.4759C318.034 41.9517 318.188 42.495 318.188 43.1058C318.188 43.5142 318.11 43.9155 317.954 44.3097C317.798 44.7038 317.522 45.1406 317.128 45.62C316.738 46.0994 316.189 46.68 315.482 47.3619L313.602 49.2741V49.3487L318.353 49.3487V51H310.875ZM319.76 48.9759V47.4045L324.389 40.0909H325.699V42.3281H324.9L321.784 47.266V47.3512H328.245V48.9759H319.76ZM324.964 51V48.4964L324.985 47.7933V40.0909H326.85V51H324.964Z" fill="#0E0E0F"/>
<path d="M341.538 43.8775C341.397 43.7378 341.207 43.6594 341.009 43.6594C340.811 43.6594 340.621 43.7378 340.48 43.8775L337.788 46.5325L335.133 43.8775C334.992 43.7378 334.802 43.6594 334.604 43.6594C334.406 43.6594 334.216 43.7378 334.075 43.8775C334.005 43.9472 333.949 44.0302 333.911 44.1216C333.873 44.213 333.854 44.311 333.854 44.41C333.854 44.509 333.873 44.6071 333.911 44.6985C333.949 44.7898 334.005 44.8728 334.075 44.9425L337.255 48.1225C337.325 48.1928 337.408 48.2486 337.499 48.2867C337.591 48.3248 337.689 48.3444 337.788 48.3444C337.887 48.3444 337.985 48.3248 338.076 48.2867C338.168 48.2486 338.251 48.1928 338.32 48.1225L341.538 44.9425C341.608 44.8728 341.664 44.7898 341.702 44.6985C341.74 44.6071 341.76 44.509 341.76 44.41C341.76 44.311 341.74 44.213 341.702 44.1216C341.664 44.0302 341.608 43.9472 341.538 43.8775Z" fill="#797B86"/>
<path d="M457.117 45.29L451.457 39.64C451.364 39.5463 451.253 39.4719 451.131 39.4211C451.01 39.3704 450.879 39.3442 450.747 39.3442C450.615 39.3442 450.484 39.3704 450.362 39.4211C450.24 39.4719 450.13 39.5463 450.037 39.64C449.851 39.8274 449.746 40.0809 449.746 40.345C449.746 40.6092 449.851 40.8627 450.037 41.05L454.987 46.05L450.037 51C449.851 51.1874 449.746 51.4409 449.746 51.705C449.746 51.9692 449.851 52.2227 450.037 52.41C450.13 52.5045 450.24 52.5797 450.362 52.6312C450.484 52.6827 450.615 52.7095 450.747 52.71C450.879 52.7095 451.01 52.6827 451.132 52.6312C451.254 52.5797 451.364 52.5045 451.457 52.41L457.117 46.76C457.218 46.6664 457.299 46.5527 457.355 46.4262C457.41 46.2997 457.439 46.1631 457.439 46.025C457.439 45.8869 457.41 45.7503 457.355 45.6238C457.299 45.4973 457.218 45.3837 457.117 45.29Z" fill="#797B86"/>
<path d="M133.051 93.1992C133.015 92.8581 132.861 92.5924 132.59 92.4023C132.322 92.2122 131.973 92.1172 131.543 92.1172C131.241 92.1172 130.982 92.1628 130.766 92.2539C130.55 92.3451 130.385 92.4687 130.27 92.625C130.155 92.7812 130.097 92.9596 130.094 93.1602C130.094 93.3268 130.132 93.4714 130.208 93.5937C130.286 93.7161 130.391 93.8203 130.524 93.9062C130.657 93.9896 130.804 94.0599 130.965 94.1172C131.127 94.1745 131.29 94.2227 131.454 94.2617L132.204 94.4492C132.506 94.5195 132.796 94.6146 133.075 94.7344C133.356 94.8542 133.607 95.0052 133.829 95.1875C134.053 95.3698 134.23 95.5898 134.36 95.8477C134.49 96.1055 134.555 96.4076 134.555 96.7539C134.555 97.2227 134.435 97.6354 134.196 97.9922C133.956 98.3464 133.61 98.6237 133.157 98.8242C132.706 99.0221 132.161 99.1211 131.52 99.1211C130.898 99.1211 130.357 99.0247 129.899 98.832C129.443 98.6393 129.086 98.3581 128.829 97.9883C128.573 97.6185 128.435 97.168 128.415 96.6367H129.84C129.861 96.9154 129.947 97.1471 130.098 97.332C130.249 97.5169 130.446 97.6549 130.688 97.7461C130.933 97.8372 131.206 97.8828 131.508 97.8828C131.823 97.8828 132.099 97.8359 132.336 97.7422C132.576 97.6458 132.763 97.513 132.899 97.3437C133.034 97.1719 133.103 96.9714 133.106 96.7422C133.103 96.5339 133.042 96.362 132.922 96.2266C132.803 96.0885 132.635 95.974 132.418 95.8828C132.205 95.7891 131.955 95.7057 131.668 95.6328L130.758 95.3984C130.099 95.2292 129.579 94.9727 129.196 94.6289C128.816 94.2826 128.625 93.8229 128.625 93.25C128.625 92.7786 128.753 92.3659 129.008 92.0117C129.266 91.6576 129.616 91.3828 130.059 91.1875C130.502 90.9896 131.003 90.8906 131.563 90.8906C132.131 90.8906 132.628 90.9896 133.055 91.1875C133.485 91.3828 133.822 91.6549 134.067 92.0039C134.312 92.3503 134.438 92.7487 134.446 93.1992H133.051ZM138.441 99.1172C137.839 99.1172 137.32 98.9922 136.882 98.7422C136.447 98.4896 136.113 98.1328 135.878 97.6719C135.644 97.2083 135.527 96.6628 135.527 96.0352C135.527 95.418 135.644 94.8763 135.878 94.4102C136.115 93.9414 136.446 93.5768 136.871 93.3164C137.295 93.0534 137.794 92.9219 138.367 92.9219C138.736 92.9219 139.085 92.9818 139.414 93.1016C139.744 93.2187 140.036 93.401 140.289 93.6484C140.544 93.8958 140.744 94.2109 140.89 94.5937C141.036 94.974 141.109 95.4271 141.109 95.9531V96.3867H136.191V95.4336H139.753C139.751 95.1628 139.692 94.9219 139.578 94.7109C139.463 94.4974 139.303 94.3294 139.097 94.207C138.894 94.0846 138.657 94.0234 138.386 94.0234C138.097 94.0234 137.843 94.0937 137.624 94.2344C137.406 94.3724 137.235 94.5547 137.113 94.7812C136.993 95.0052 136.932 95.2513 136.929 95.5195V96.3516C136.929 96.7005 136.993 97 137.121 97.25C137.248 97.4974 137.427 97.6875 137.656 97.8203C137.885 97.9505 138.153 98.0156 138.46 98.0156C138.666 98.0156 138.852 97.987 139.019 97.9297C139.186 97.8698 139.33 97.7826 139.453 97.668C139.575 97.5534 139.667 97.4115 139.73 97.2422L141.05 97.3906C140.967 97.7396 140.808 98.0443 140.574 98.3047C140.342 98.5625 140.045 98.763 139.683 98.9062C139.321 99.0469 138.907 99.1172 138.441 99.1172ZM144.915 101.375C144.407 101.375 143.971 101.306 143.606 101.168C143.241 101.033 142.948 100.85 142.727 100.621C142.506 100.392 142.352 100.138 142.266 99.8594L143.54 99.5508C143.597 99.668 143.68 99.7839 143.79 99.8984C143.899 100.016 144.046 100.112 144.231 100.188C144.418 100.266 144.654 100.305 144.938 100.305C145.339 100.305 145.671 100.207 145.934 100.012C146.197 99.819 146.329 99.5013 146.329 99.0586V97.9219H146.258C146.185 98.0677 146.079 98.2174 145.938 98.3711C145.8 98.5247 145.616 98.6536 145.387 98.7578C145.161 98.862 144.875 98.9141 144.532 98.9141C144.071 98.9141 143.653 98.806 143.278 98.5898C142.905 98.3711 142.609 98.0456 142.387 97.6133C142.168 97.1784 142.059 96.6341 142.059 95.9805C142.059 95.3216 142.168 94.7656 142.387 94.3125C142.609 93.8568 142.907 93.5117 143.282 93.2773C143.657 93.0404 144.075 92.9219 144.536 92.9219C144.887 92.9219 145.176 92.9818 145.403 93.1016C145.632 93.2187 145.814 93.3607 145.95 93.5273C146.085 93.6914 146.188 93.8464 146.258 93.9922H146.336V93H147.731V99.0977C147.731 99.6107 147.609 100.035 147.364 100.371C147.119 100.707 146.784 100.958 146.36 101.125C145.935 101.292 145.454 101.375 144.915 101.375ZM144.926 97.8047C145.226 97.8047 145.481 97.7318 145.692 97.5859C145.903 97.4401 146.063 97.2305 146.172 96.957C146.282 96.6836 146.336 96.3555 146.336 95.9727C146.336 95.5951 146.282 95.2643 146.172 94.9805C146.066 94.6966 145.907 94.4766 145.696 94.3203C145.487 94.1615 145.231 94.082 144.926 94.082C144.611 94.082 144.348 94.1641 144.137 94.3281C143.926 94.4922 143.767 94.7174 143.661 95.0039C143.554 95.2878 143.5 95.6107 143.5 95.9727C143.5 96.3398 143.554 96.6615 143.661 96.9375C143.77 97.2109 143.93 97.4245 144.141 97.5781C144.355 97.7292 144.616 97.8047 144.926 97.8047Z" fill="#797B86"/>
<path d="M180.353 92.6903V91.4755H186.736V92.6903H184.263V99.4755H182.826V92.6903H180.353ZM189.69 99.5927C189.088 99.5927 188.569 99.4677 188.131 99.2177C187.696 98.965 187.362 98.6083 187.127 98.1473C186.893 97.6838 186.776 97.1382 186.776 96.5106C186.776 95.8934 186.893 95.3518 187.127 94.8856C187.364 94.4169 187.695 94.0523 188.12 93.7919C188.544 93.5288 189.043 93.3973 189.616 93.3973C189.985 93.3973 190.334 93.4572 190.663 93.577C190.993 93.6942 191.285 93.8765 191.538 94.1239C191.793 94.3713 191.993 94.6864 192.139 95.0692C192.285 95.4494 192.358 95.9025 192.358 96.4286V96.8622H187.44V95.9091H191.002C191 95.6382 190.941 95.3973 190.827 95.1864C190.712 94.9729 190.552 94.8049 190.346 94.6825C190.143 94.5601 189.906 94.4989 189.635 94.4989C189.346 94.4989 189.092 94.5692 188.874 94.7098C188.655 94.8479 188.484 95.0302 188.362 95.2567C188.242 95.4807 188.181 95.7268 188.178 95.995V96.827C188.178 97.176 188.242 97.4755 188.37 97.7255C188.497 97.9729 188.676 98.163 188.905 98.2958C189.134 98.426 189.402 98.4911 189.709 98.4911C189.915 98.4911 190.101 98.4624 190.268 98.4052C190.435 98.3453 190.579 98.258 190.702 98.1434C190.824 98.0288 190.916 97.8869 190.979 97.7177L192.299 97.8661C192.216 98.215 192.057 98.5197 191.823 98.7802C191.591 99.038 191.294 99.2385 190.932 99.3817C190.57 99.5223 190.156 99.5927 189.69 99.5927ZM193.554 99.4755V93.4755H194.925V94.4755H194.988C195.097 94.1291 195.285 93.8622 195.55 93.6747C195.819 93.4846 196.124 93.3895 196.468 93.3895C196.546 93.3895 196.634 93.3934 196.73 93.4012C196.829 93.4065 196.911 93.4156 196.976 93.4286V94.7294C196.916 94.7085 196.821 94.6903 196.691 94.6747C196.563 94.6565 196.44 94.6473 196.32 94.6473C196.062 94.6473 195.83 94.7033 195.624 94.8153C195.421 94.9247 195.261 95.077 195.144 95.2723C195.027 95.4677 194.968 95.6929 194.968 95.9481V99.4755H193.554Z" fill="#797B86"/>
<path d="M231.921 96.788H233.233L234.011 97.7958L234.565 98.452L235.897 100.163H234.491L233.585 99.0145L233.198 98.4677L231.921 96.788ZM236.089 95.4755C236.089 96.3374 235.927 97.0757 235.604 97.6903C235.284 98.3023 234.847 98.771 234.292 99.0966C233.74 99.4221 233.114 99.5848 232.413 99.5848C231.713 99.5848 231.085 99.4221 230.53 99.0966C229.978 98.7684 229.541 98.2984 229.218 97.6864C228.897 97.0718 228.737 96.3348 228.737 95.4755C228.737 94.6135 228.897 93.8765 229.218 93.2645C229.541 92.6499 229.978 92.1799 230.53 91.8544C231.085 91.5288 231.713 91.3661 232.413 91.3661C233.114 91.3661 233.74 91.5288 234.292 91.8544C234.847 92.1799 235.284 92.6499 235.604 93.2645C235.927 93.8765 236.089 94.6135 236.089 95.4755ZM234.632 95.4755C234.632 94.8687 234.537 94.357 234.347 93.9403C234.159 93.521 233.899 93.2046 233.565 92.9911C233.232 92.7749 232.848 92.6669 232.413 92.6669C231.978 92.6669 231.594 92.7749 231.261 92.9911C230.927 93.2046 230.666 93.521 230.476 93.9403C230.288 94.357 230.194 94.8687 230.194 95.4755C230.194 96.0822 230.288 96.5953 230.476 97.0145C230.666 97.4312 230.927 97.7476 231.261 97.9637C231.594 98.1773 231.978 98.2841 232.413 98.2841C232.848 98.2841 233.232 98.1773 233.565 97.9637C233.899 97.7476 234.159 97.4312 234.347 97.0145C234.537 96.5953 234.632 96.0822 234.632 95.4755ZM241.231 96.952V93.4755H242.645V99.4755H241.274V98.4091H241.212C241.076 98.745 240.854 99.0197 240.544 99.2333C240.237 99.4468 239.858 99.5536 239.407 99.5536C239.014 99.5536 238.666 99.4663 238.364 99.2919C238.065 99.1148 237.83 98.8583 237.661 98.5223C237.492 98.1838 237.407 97.7749 237.407 97.2958V93.4755H238.821V97.077C238.821 97.4572 238.925 97.7593 239.134 97.9833C239.342 98.2072 239.616 98.3192 239.954 98.3192C240.162 98.3192 240.364 98.2684 240.56 98.1669C240.755 98.0653 240.915 97.9143 241.04 97.7137C241.168 97.5106 241.231 97.2567 241.231 96.952ZM245.826 99.5966C245.446 99.5966 245.103 99.5288 244.799 99.3934C244.497 99.2554 244.257 99.0523 244.08 98.7841C243.906 98.5158 243.818 98.1851 243.818 97.7919C243.818 97.4533 243.881 97.1734 244.006 96.952C244.131 96.7307 244.301 96.5536 244.518 96.4208C244.734 96.288 244.977 96.1877 245.248 96.12C245.521 96.0497 245.804 95.9989 246.096 95.9677C246.447 95.9312 246.732 95.8986 246.951 95.87C247.17 95.8387 247.329 95.7919 247.428 95.7294C247.529 95.6643 247.58 95.564 247.58 95.4286V95.4052C247.58 95.1109 247.493 94.883 247.318 94.7216C247.144 94.5601 246.893 94.4794 246.564 94.4794C246.218 94.4794 245.943 94.5549 245.74 94.7059C245.54 94.857 245.404 95.0354 245.334 95.2411L244.014 95.0536C244.118 94.689 244.29 94.3843 244.529 94.1395C244.769 93.8921 245.062 93.7072 245.408 93.5848C245.755 93.4598 246.137 93.3973 246.557 93.3973C246.846 93.3973 247.133 93.4312 247.42 93.4989C247.706 93.5666 247.968 93.6786 248.205 93.8348C248.442 93.9885 248.632 94.1981 248.775 94.4637C248.921 94.7294 248.994 95.0614 248.994 95.4598V99.4755H247.635V98.6512H247.588C247.502 98.8179 247.381 98.9742 247.225 99.12C247.071 99.2632 246.877 99.3791 246.643 99.4677C246.411 99.5536 246.139 99.5966 245.826 99.5966ZM246.193 98.5575C246.477 98.5575 246.723 98.5015 246.932 98.3895C247.14 98.2749 247.3 98.1239 247.412 97.9364C247.527 97.7489 247.584 97.5445 247.584 97.3231V96.6161C247.54 96.6525 247.464 96.6864 247.357 96.7177C247.253 96.7489 247.136 96.7762 247.006 96.7997C246.876 96.8231 246.747 96.844 246.619 96.8622C246.492 96.8804 246.381 96.896 246.287 96.9091C246.076 96.9377 245.887 96.9846 245.721 97.0497C245.554 97.1148 245.423 97.2059 245.326 97.3231C245.23 97.4377 245.182 97.5861 245.182 97.7684C245.182 98.0288 245.277 98.2255 245.467 98.3583C245.657 98.4911 245.899 98.5575 246.193 98.5575Z" fill="#797B86"/>
<path d="M284.013 96.3125H285.326L286.103 97.3203L286.658 97.9766L287.99 99.6875H286.583L285.677 98.5391L285.291 97.9922L284.013 96.3125ZM288.181 95C288.181 95.862 288.02 96.6003 287.697 97.2148C287.376 97.8268 286.939 98.2956 286.384 98.6211C285.832 98.9466 285.206 99.1094 284.505 99.1094C283.805 99.1094 283.177 98.9466 282.623 98.6211C282.07 98.293 281.633 97.8229 281.31 97.2109C280.99 96.5964 280.83 95.8594 280.83 95C280.83 94.138 280.99 93.401 281.31 92.7891C281.633 92.1745 282.07 91.7044 282.623 91.3789C283.177 91.0534 283.805 90.8906 284.505 90.8906C285.206 90.8906 285.832 91.0534 286.384 91.3789C286.939 91.7044 287.376 92.1745 287.697 92.7891C288.02 93.401 288.181 94.138 288.181 95ZM286.724 95C286.724 94.3932 286.629 93.8815 286.439 93.4648C286.251 93.0456 285.991 92.7292 285.658 92.5156C285.324 92.2995 284.94 92.1914 284.505 92.1914C284.07 92.1914 283.686 92.2995 283.353 92.5156C283.02 92.7292 282.758 93.0456 282.568 93.4648C282.38 93.8815 282.287 94.3932 282.287 95C282.287 95.6068 282.38 96.1198 282.568 96.5391C282.758 96.9557 283.02 97.2721 283.353 97.4883C283.686 97.7018 284.07 97.8086 284.505 97.8086C284.94 97.8086 285.324 97.7018 285.658 97.4883C285.991 97.2721 286.251 96.9557 286.439 96.5391C286.629 96.1198 286.724 95.6068 286.724 95ZM293.324 96.4766V93H294.738V99H293.367V97.9336H293.304C293.169 98.2695 292.946 98.5443 292.636 98.7578C292.329 98.9714 291.95 99.0781 291.499 99.0781C291.106 99.0781 290.759 98.9909 290.457 98.8164C290.157 98.6393 289.923 98.3828 289.753 98.0469C289.584 97.7083 289.499 97.2995 289.499 96.8203V93H290.914V96.6016C290.914 96.9818 291.018 97.2839 291.226 97.5078C291.434 97.7318 291.708 97.8437 292.046 97.8437C292.255 97.8437 292.457 97.793 292.652 97.6914C292.847 97.5898 293.007 97.4388 293.132 97.2383C293.26 97.0352 293.324 96.7812 293.324 96.4766ZM296.192 99V93H297.606V99H296.192ZM296.903 92.1484C296.679 92.1484 296.486 92.0742 296.325 91.9258C296.163 91.7747 296.083 91.5937 296.083 91.3828C296.083 91.1693 296.163 90.9883 296.325 90.8398C296.486 90.6888 296.679 90.6133 296.903 90.6133C297.129 90.6133 297.322 90.6888 297.481 90.8398C297.642 90.9883 297.723 91.1693 297.723 91.3828C297.723 91.5937 297.642 91.7747 297.481 91.9258C297.322 92.0742 297.129 92.1484 296.903 92.1484Z" fill="#797B86"/>
<path d="M334.932 93.6747C334.896 93.3335 334.742 93.0679 334.471 92.8778C334.203 92.6877 333.854 92.5927 333.424 92.5927C333.122 92.5927 332.863 92.6382 332.647 92.7294C332.431 92.8205 332.265 92.9442 332.151 93.1005C332.036 93.2567 331.978 93.4351 331.975 93.6356C331.975 93.8023 332.013 93.9468 332.088 94.0692C332.166 94.1916 332.272 94.2958 332.405 94.3817C332.538 94.465 332.685 94.5354 332.846 94.5927C333.008 94.6499 333.17 94.6981 333.334 94.7372L334.084 94.9247C334.387 94.995 334.677 95.09 334.956 95.2098C335.237 95.3296 335.488 95.4807 335.709 95.663C335.933 95.8453 336.11 96.0653 336.241 96.3231C336.371 96.5809 336.436 96.883 336.436 97.2294C336.436 97.6981 336.316 98.1109 336.077 98.4677C335.837 98.8218 335.491 99.0992 335.038 99.2997C334.587 99.4976 334.041 99.5966 333.401 99.5966C332.778 99.5966 332.238 99.5002 331.78 99.3075C331.324 99.1148 330.967 98.8335 330.709 98.4637C330.454 98.094 330.316 97.6434 330.295 97.1122H331.721C331.742 97.3908 331.828 97.6226 331.979 97.8075C332.13 97.9924 332.327 98.1304 332.569 98.2216C332.814 98.3127 333.087 98.3583 333.389 98.3583C333.704 98.3583 333.98 98.3114 334.217 98.2177C334.457 98.1213 334.644 97.9885 334.78 97.8192C334.915 97.6473 334.984 97.4468 334.987 97.2177C334.984 97.0093 334.923 96.8374 334.803 96.702C334.683 96.564 334.515 96.4494 334.299 96.3583C334.086 96.2645 333.836 96.1812 333.549 96.1083L332.639 95.8739C331.98 95.7046 331.459 95.4481 331.077 95.1044C330.696 94.758 330.506 94.2984 330.506 93.7255C330.506 93.2541 330.634 92.8413 330.889 92.4872C331.147 92.133 331.497 91.8583 331.94 91.663C332.383 91.465 332.884 91.3661 333.444 91.3661C334.012 91.3661 334.509 91.465 334.936 91.663C335.366 91.8583 335.703 92.1304 335.948 92.4794C336.193 92.8257 336.319 93.2242 336.327 93.6747H334.932ZM340.322 99.5927C339.72 99.5927 339.201 99.4677 338.763 99.2177C338.328 98.965 337.994 98.6083 337.759 98.1473C337.525 97.6838 337.408 97.1382 337.408 96.5106C337.408 95.8934 337.525 95.3518 337.759 94.8856C337.996 94.4169 338.327 94.0523 338.751 93.7919C339.176 93.5288 339.675 93.3973 340.248 93.3973C340.617 93.3973 340.966 93.4572 341.294 93.577C341.625 93.6942 341.917 93.8765 342.169 94.1239C342.425 94.3713 342.625 94.6864 342.771 95.0692C342.917 95.4494 342.99 95.9025 342.99 96.4286V96.8622H338.072V95.9091H341.634C341.632 95.6382 341.573 95.3973 341.458 95.1864C341.344 94.9729 341.184 94.8049 340.978 94.6825C340.775 94.5601 340.538 94.4989 340.267 94.4989C339.978 94.4989 339.724 94.5692 339.505 94.7098C339.287 94.8479 339.116 95.0302 338.994 95.2567C338.874 95.4807 338.813 95.7268 338.81 95.995V96.827C338.81 97.176 338.874 97.4755 339.001 97.7255C339.129 97.9729 339.307 98.163 339.537 98.2958C339.766 98.426 340.034 98.4911 340.341 98.4911C340.547 98.4911 340.733 98.4624 340.9 98.4052C341.067 98.3453 341.211 98.258 341.333 98.1434C341.456 98.0288 341.548 97.8869 341.611 97.7177L342.931 97.8661C342.848 98.215 342.689 98.5197 342.455 98.7802C342.223 99.038 341.926 99.2385 341.564 99.3817C341.202 99.5223 340.788 99.5927 340.322 99.5927ZM345.213 93.4755L346.424 95.6903L347.655 93.4755H349.151L347.342 96.4755L349.182 99.4755H347.694L346.424 97.3153L345.166 99.4755H343.666L345.495 96.4755L343.713 93.4755H345.213Z" fill="#797B86"/>
<path d="M384.967 93.6747C384.931 93.3335 384.777 93.0679 384.506 92.8778C384.238 92.6877 383.889 92.5927 383.459 92.5927C383.157 92.5927 382.898 92.6382 382.682 92.7294C382.466 92.8205 382.301 92.9442 382.186 93.1005C382.071 93.2567 382.013 93.4351 382.01 93.6356C382.01 93.8023 382.048 93.9468 382.124 94.0692C382.202 94.1916 382.307 94.2958 382.44 94.3817C382.573 94.465 382.72 94.5354 382.881 94.5927C383.043 94.6499 383.206 94.6981 383.37 94.7372L384.12 94.9247C384.422 94.995 384.712 95.09 384.991 95.2098C385.272 95.3296 385.523 95.4807 385.745 95.663C385.969 95.8453 386.146 96.0653 386.276 96.3231C386.406 96.5809 386.471 96.883 386.471 97.2294C386.471 97.6981 386.351 98.1109 386.112 98.4677C385.872 98.8218 385.526 99.0992 385.073 99.2997C384.622 99.4976 384.077 99.5966 383.436 99.5966C382.814 99.5966 382.273 99.5002 381.815 99.3075C381.359 99.1148 381.002 98.8335 380.745 98.4637C380.489 98.094 380.351 97.6434 380.331 97.1122H381.756C381.777 97.3908 381.863 97.6226 382.014 97.8075C382.165 97.9924 382.362 98.1304 382.604 98.2216C382.849 98.3127 383.122 98.3583 383.424 98.3583C383.739 98.3583 384.015 98.3114 384.252 98.2177C384.492 98.1213 384.68 97.9885 384.815 97.8192C384.95 97.6473 385.019 97.4468 385.022 97.2177C385.019 97.0093 384.958 96.8374 384.838 96.702C384.719 96.564 384.551 96.4494 384.334 96.3583C384.121 96.2645 383.871 96.1812 383.584 96.1083L382.674 95.8739C382.015 95.7046 381.495 95.4481 381.112 95.1044C380.732 94.758 380.541 94.2984 380.541 93.7255C380.541 93.2541 380.669 92.8413 380.924 92.4872C381.182 92.133 381.532 91.8583 381.975 91.663C382.418 91.465 382.919 91.3661 383.479 91.3661C384.047 91.3661 384.544 91.465 384.971 91.663C385.401 91.8583 385.738 92.1304 385.983 92.4794C386.228 92.8257 386.354 93.2242 386.362 93.6747H384.967ZM389.427 99.5966C389.047 99.5966 388.705 99.5288 388.4 99.3934C388.098 99.2554 387.858 99.0523 387.681 98.7841C387.507 98.5158 387.419 98.1851 387.419 97.7919C387.419 97.4533 387.482 97.1734 387.607 96.952C387.732 96.7307 387.902 96.5536 388.119 96.4208C388.335 96.288 388.578 96.1877 388.849 96.12C389.123 96.0497 389.405 95.9989 389.697 95.9677C390.048 95.9312 390.333 95.8986 390.552 95.87C390.771 95.8387 390.93 95.7919 391.029 95.7294C391.13 95.6643 391.181 95.564 391.181 95.4286V95.4052C391.181 95.1109 391.094 94.883 390.919 94.7216C390.745 94.5601 390.494 94.4794 390.166 94.4794C389.819 94.4794 389.544 94.5549 389.341 94.7059C389.141 94.857 389.005 95.0354 388.935 95.2411L387.615 95.0536C387.719 94.689 387.891 94.3843 388.13 94.1395C388.37 93.8921 388.663 93.7072 389.009 93.5848C389.356 93.4598 389.738 93.3973 390.158 93.3973C390.447 93.3973 390.735 93.4312 391.021 93.4989C391.307 93.5666 391.569 93.6786 391.806 93.8348C392.043 93.9885 392.233 94.1981 392.376 94.4637C392.522 94.7294 392.595 95.0614 392.595 95.4598V99.4755H391.236V98.6512H391.189C391.103 98.8179 390.982 98.9742 390.826 99.12C390.672 99.2632 390.478 99.3791 390.244 99.4677C390.012 99.5536 389.74 99.5966 389.427 99.5966ZM389.794 98.5575C390.078 98.5575 390.324 98.5015 390.533 98.3895C390.741 98.2749 390.901 98.1239 391.013 97.9364C391.128 97.7489 391.185 97.5445 391.185 97.3231V96.6161C391.141 96.6525 391.065 96.6864 390.958 96.7177C390.854 96.7489 390.737 96.7762 390.607 96.7997C390.477 96.8231 390.348 96.844 390.22 96.8622C390.093 96.8804 389.982 96.896 389.888 96.9091C389.677 96.9377 389.488 96.9846 389.322 97.0497C389.155 97.1148 389.024 97.2059 388.927 97.3231C388.831 97.4377 388.783 97.5861 388.783 97.7684C388.783 98.0288 388.878 98.2255 389.068 98.3583C389.258 98.4911 389.5 98.5575 389.794 98.5575ZM394.08 99.4755V91.4755H395.494V94.4677H395.552C395.625 94.3218 395.728 94.1669 395.861 94.0028C395.994 93.8361 396.173 93.6942 396.4 93.577C396.626 93.4572 396.916 93.3973 397.267 93.3973C397.731 93.3973 398.149 93.5158 398.521 93.7528C398.896 93.9872 399.193 94.3348 399.412 94.7958C399.633 95.2541 399.744 95.8166 399.744 96.4833C399.744 97.1421 399.636 97.702 399.419 98.163C399.203 98.6239 398.909 98.9755 398.537 99.2177C398.164 99.4598 397.742 99.5809 397.271 99.5809C396.927 99.5809 396.642 99.5236 396.416 99.4091C396.189 99.2945 396.007 99.1565 395.869 98.995C395.733 98.8309 395.628 98.676 395.552 98.5302H395.47V99.4755H394.08ZM395.466 96.4755C395.466 96.8635 395.521 97.2033 395.63 97.495C395.742 97.7867 395.902 98.0145 396.111 98.1786C396.322 98.34 396.577 98.4208 396.876 98.4208C397.189 98.4208 397.451 98.3374 397.662 98.1708C397.873 98.0015 398.031 97.771 398.138 97.4794C398.248 97.1851 398.302 96.8505 398.302 96.4755C398.302 96.1031 398.249 95.7723 398.142 95.4833C398.035 95.1942 397.876 94.9677 397.666 94.8036C397.455 94.6395 397.192 94.5575 396.876 94.5575C396.574 94.5575 396.318 94.6369 396.107 94.7958C395.896 94.9546 395.736 95.1773 395.626 95.4637C395.52 95.7502 395.466 96.0874 395.466 96.4755Z" fill="#797B86"/>
<path d="M431.625 99.4755H428.915V91.4755H431.68C432.474 91.4755 433.157 91.6356 433.727 91.9559C434.3 92.2736 434.74 92.7307 435.047 93.327C435.355 93.9234 435.508 94.6369 435.508 95.4677C435.508 96.301 435.353 97.0171 435.043 97.6161C434.736 98.215 434.292 98.6747 433.711 98.995C433.133 99.3153 432.438 99.4755 431.625 99.4755ZM430.364 98.2216H431.555C432.112 98.2216 432.577 98.12 432.95 97.9169C433.322 97.7111 433.602 97.4052 433.79 96.9989C433.977 96.59 434.071 96.0796 434.071 95.4677C434.071 94.8557 433.977 94.3479 433.79 93.9442C433.602 93.538 433.325 93.2346 432.958 93.0341C432.593 92.8309 432.14 92.7294 431.598 92.7294H430.364V98.2216ZM439.44 99.5927C438.854 99.5927 438.346 99.4637 437.916 99.2059C437.487 98.9481 437.153 98.5874 436.916 98.1239C436.682 97.6604 436.565 97.1187 436.565 96.4989C436.565 95.8791 436.682 95.3361 436.916 94.87C437.153 94.4038 437.487 94.0419 437.916 93.7841C438.346 93.5262 438.854 93.3973 439.44 93.3973C440.026 93.3973 440.534 93.5262 440.963 93.7841C441.393 94.0419 441.725 94.4038 441.959 94.87C442.196 95.3361 442.315 95.8791 442.315 96.4989C442.315 97.1187 442.196 97.6604 441.959 98.1239C441.725 98.5874 441.393 98.9481 440.963 99.2059C440.534 99.4637 440.026 99.5927 439.44 99.5927ZM439.448 98.4598C439.765 98.4598 440.031 98.3726 440.245 98.1981C440.458 98.021 440.617 97.7841 440.721 97.4872C440.828 97.1903 440.881 96.8596 440.881 96.495C440.881 96.1278 440.828 95.7958 440.721 95.4989C440.617 95.1994 440.458 94.9611 440.245 94.7841C440.031 94.607 439.765 94.5184 439.448 94.5184C439.122 94.5184 438.851 94.607 438.635 94.7841C438.422 94.9611 438.262 95.1994 438.155 95.4989C438.051 95.7958 437.999 96.1278 437.999 96.495C437.999 96.8596 438.051 97.1903 438.155 97.4872C438.262 97.7841 438.422 98.021 438.635 98.1981C438.851 98.3726 439.122 98.4598 439.448 98.4598ZM443.515 99.4755V93.4755H444.867V94.495H444.937C445.062 94.1512 445.269 93.883 445.558 93.6903C445.847 93.495 446.192 93.3973 446.593 93.3973C446.999 93.3973 447.342 93.4963 447.621 93.6942C447.902 93.8895 448.1 94.1565 448.214 94.495H448.277C448.41 94.1617 448.634 93.896 448.949 93.6981C449.266 93.4976 449.643 93.3973 450.078 93.3973C450.63 93.3973 451.08 93.5718 451.429 93.9208C451.778 94.2697 451.953 94.7788 451.953 95.4481V99.4755H450.535V95.6669C450.535 95.2945 450.436 95.0223 450.238 94.8505C450.04 94.676 449.798 94.5887 449.511 94.5887C449.17 94.5887 448.903 94.6955 448.71 94.9091C448.52 95.12 448.425 95.3947 448.425 95.7333V99.4755H447.039V95.6083C447.039 95.2984 446.945 95.051 446.757 94.8661C446.572 94.6812 446.33 94.5887 446.031 94.5887C445.828 94.5887 445.643 94.6408 445.476 94.745C445.309 94.8466 445.177 94.9911 445.078 95.1786C444.979 95.3635 444.929 95.5796 444.929 95.827V99.4755H443.515Z" fill="#797B86"/>
<path d="M130.092 151.951V150.992L133.693 147.05C134.116 146.589 134.464 146.187 134.737 145.847C135.01 145.502 135.213 145.179 135.344 144.877C135.479 144.572 135.547 144.252 135.547 143.918C135.547 143.535 135.454 143.203 135.27 142.922C135.089 142.642 134.84 142.425 134.524 142.272C134.208 142.12 133.853 142.043 133.459 142.043C133.04 142.043 132.674 142.13 132.361 142.304C132.052 142.475 131.813 142.714 131.642 143.023C131.475 143.332 131.392 143.695 131.392 144.11H130.135C130.135 143.471 130.282 142.91 130.577 142.427C130.872 141.944 131.273 141.567 131.781 141.298C132.292 141.028 132.866 140.893 133.501 140.893C134.14 140.893 134.707 141.028 135.2 141.298C135.694 141.567 136.081 141.931 136.362 142.389C136.642 142.848 136.782 143.357 136.782 143.918C136.782 144.32 136.71 144.712 136.564 145.095C136.422 145.475 136.173 145.9 135.818 146.369C135.467 146.834 134.978 147.402 134.353 148.073L131.903 150.694V150.779H136.974V151.951H130.092ZM142.647 140.893C143.095 140.896 143.542 140.981 143.99 141.148C144.437 141.315 144.845 141.592 145.215 141.979C145.584 142.363 145.88 142.887 146.104 143.551C146.328 144.215 146.44 145.048 146.44 146.049C146.44 147.018 146.347 147.88 146.163 148.632C145.982 149.382 145.719 150.014 145.374 150.529C145.034 151.044 144.618 151.434 144.128 151.701C143.641 151.967 143.091 152.1 142.477 152.1C141.866 152.1 141.321 151.979 140.841 151.738C140.366 151.493 139.975 151.154 139.67 150.72C139.368 150.284 139.174 149.778 139.089 149.202H140.389C140.506 149.703 140.738 150.117 141.086 150.443C141.438 150.767 141.901 150.928 142.477 150.928C143.318 150.928 143.982 150.561 144.469 149.826C144.959 149.09 145.204 148.052 145.204 146.709H145.119C144.92 147.008 144.684 147.265 144.41 147.482C144.137 147.698 143.833 147.865 143.499 147.983C143.166 148.1 142.811 148.158 142.434 148.158C141.809 148.158 141.236 148.004 140.714 147.695C140.195 147.382 139.78 146.954 139.467 146.411C139.158 145.864 139.004 145.239 139.004 144.536C139.004 143.869 139.153 143.258 139.451 142.704C139.753 142.146 140.176 141.702 140.719 141.372C141.266 141.042 141.909 140.882 142.647 140.893ZM142.647 142.065C142.2 142.065 141.797 142.176 141.438 142.4C141.083 142.62 140.801 142.919 140.591 143.295C140.385 143.668 140.282 144.082 140.282 144.536C140.282 144.991 140.382 145.404 140.58 145.777C140.783 146.147 141.058 146.441 141.406 146.662C141.758 146.878 142.157 146.986 142.605 146.986C142.942 146.986 143.256 146.921 143.547 146.789C143.839 146.654 144.092 146.472 144.309 146.241C144.529 146.006 144.702 145.742 144.826 145.447C144.95 145.149 145.012 144.838 145.012 144.515C145.012 144.089 144.909 143.689 144.703 143.316C144.501 142.943 144.22 142.642 143.862 142.411C143.507 142.18 143.102 142.065 142.647 142.065Z" fill="#D6D8E1"/>
<path d="M183.905 152.1C183.202 152.1 182.575 151.979 182.024 151.738C181.477 151.496 181.042 151.161 180.719 150.731C180.4 150.298 180.226 149.795 180.197 149.224H181.54C181.568 149.575 181.689 149.879 181.902 150.135C182.115 150.387 182.394 150.582 182.738 150.72C183.083 150.859 183.464 150.928 183.883 150.928C184.352 150.928 184.768 150.847 185.13 150.683C185.492 150.52 185.776 150.293 185.982 150.001C186.188 149.71 186.291 149.373 186.291 148.989C186.291 148.588 186.192 148.235 185.993 147.929C185.794 147.62 185.503 147.379 185.119 147.205C184.736 147.031 184.267 146.944 183.713 146.944H182.839V145.772H183.713C184.146 145.772 184.526 145.694 184.853 145.538C185.183 145.381 185.441 145.161 185.625 144.877C185.813 144.593 185.908 144.259 185.908 143.876C185.908 143.506 185.826 143.185 185.662 142.912C185.499 142.638 185.268 142.425 184.97 142.272C184.675 142.12 184.327 142.043 183.926 142.043C183.55 142.043 183.194 142.113 182.861 142.251C182.53 142.386 182.261 142.583 182.051 142.842C181.841 143.098 181.728 143.407 181.71 143.769H180.432C180.453 143.197 180.625 142.697 180.948 142.267C181.272 141.834 181.694 141.496 182.216 141.255C182.742 141.013 183.319 140.893 183.947 140.893C184.622 140.893 185.201 141.029 185.684 141.303C186.167 141.573 186.538 141.93 186.797 142.374C187.056 142.817 187.186 143.297 187.186 143.812C187.186 144.426 187.024 144.95 186.701 145.383C186.382 145.816 185.947 146.116 185.396 146.283V146.369C186.085 146.482 186.623 146.775 187.01 147.247C187.397 147.716 187.591 148.297 187.591 148.989C187.591 149.582 187.429 150.115 187.106 150.587C186.786 151.056 186.35 151.425 185.796 151.695C185.242 151.965 184.611 152.1 183.905 152.1ZM193.328 152.1C192.525 152.1 191.841 151.882 191.277 151.445C190.712 151.005 190.281 150.367 189.982 149.533C189.684 148.695 189.535 147.682 189.535 146.496C189.535 145.317 189.684 144.311 189.982 143.476C190.284 142.638 190.718 141.999 191.282 141.559C191.85 141.115 192.532 140.893 193.328 140.893C194.123 140.893 194.803 141.115 195.368 141.559C195.936 141.999 196.369 142.638 196.667 143.476C196.969 144.311 197.12 145.317 197.12 146.496C197.12 147.682 196.971 148.695 196.673 149.533C196.374 150.367 195.943 151.005 195.378 151.445C194.814 151.882 194.13 152.1 193.328 152.1ZM193.328 150.928C194.123 150.928 194.741 150.545 195.181 149.778C195.622 149.011 195.842 147.917 195.842 146.496C195.842 145.552 195.741 144.747 195.538 144.083C195.339 143.419 195.052 142.913 194.675 142.565C194.302 142.217 193.853 142.043 193.328 142.043C192.539 142.043 191.923 142.432 191.479 143.21C191.035 143.984 190.813 145.079 190.813 146.496C190.813 147.441 190.913 148.244 191.112 148.904C191.311 149.565 191.596 150.067 191.969 150.412C192.346 150.756 192.799 150.928 193.328 150.928Z" fill="#D6D8E1"/>
<path d="M235.474 152.1C234.771 152.1 234.144 151.979 233.594 151.738C233.047 151.496 232.612 151.161 232.289 150.731C231.969 150.298 231.795 149.795 231.767 149.224H233.109C233.137 149.575 233.258 149.879 233.471 150.135C233.684 150.387 233.963 150.582 234.307 150.72C234.652 150.859 235.034 150.928 235.453 150.928C235.921 150.928 236.337 150.847 236.699 150.683C237.061 150.52 237.345 150.293 237.551 150.001C237.757 149.71 237.86 149.373 237.86 148.989C237.86 148.588 237.761 148.235 237.562 147.929C237.363 147.62 237.072 147.379 236.689 147.205C236.305 147.031 235.836 146.944 235.282 146.944H234.409V145.772H235.282C235.715 145.772 236.095 145.694 236.422 145.538C236.752 145.381 237.01 145.161 237.195 144.877C237.383 144.593 237.477 144.259 237.477 143.876C237.477 143.506 237.395 143.185 237.232 142.912C237.068 142.638 236.838 142.425 236.539 142.272C236.245 142.12 235.897 142.043 235.495 142.043C235.119 142.043 234.764 142.113 234.43 142.251C234.1 142.386 233.83 142.583 233.62 142.842C233.411 143.098 233.297 143.407 233.279 143.769H232.001C232.022 143.197 232.195 142.697 232.518 142.267C232.841 141.834 233.263 141.496 233.785 141.255C234.311 141.013 234.888 140.893 235.517 140.893C236.191 140.893 236.77 141.029 237.253 141.303C237.736 141.573 238.107 141.93 238.366 142.374C238.626 142.817 238.755 143.297 238.755 143.812C238.755 144.426 238.594 144.95 238.271 145.383C237.951 145.816 237.516 146.116 236.965 146.283V146.369C237.654 146.482 238.192 146.775 238.579 147.247C238.967 147.716 239.16 148.297 239.16 148.989C239.16 149.582 238.999 150.115 238.675 150.587C238.356 151.056 237.919 151.425 237.365 151.695C236.811 151.965 236.181 152.1 235.474 152.1ZM245.174 141.042V151.951H243.853V142.427H243.789L241.126 144.195V142.853L243.853 141.042H245.174Z" fill="#D6D8E1"/>
<path d="M290.767 141.042V151.951H289.446V142.427H289.382L286.718 144.195V142.853L289.446 141.042H290.767Z" fill="#45454A"/>
<path d="M336.245 151.951V150.992L339.846 147.05C340.268 146.589 340.616 146.187 340.89 145.847C341.163 145.502 341.366 145.179 341.497 144.877C341.632 144.572 341.7 144.252 341.7 143.918C341.7 143.535 341.607 143.203 341.423 142.922C341.241 142.642 340.993 142.425 340.677 142.272C340.361 142.12 340.006 142.043 339.611 142.043C339.192 142.043 338.827 142.13 338.514 142.304C338.205 142.475 337.965 142.714 337.795 143.023C337.628 143.332 337.545 143.695 337.545 144.11H336.288C336.288 143.471 336.435 142.91 336.73 142.427C337.024 141.944 337.426 141.567 337.934 141.298C338.445 141.028 339.018 140.893 339.654 140.893C340.293 140.893 340.86 141.028 341.353 141.298C341.847 141.567 342.234 141.931 342.514 142.389C342.795 142.848 342.935 143.357 342.935 143.918C342.935 144.32 342.863 144.712 342.717 145.095C342.575 145.475 342.326 145.9 341.971 146.369C341.62 146.834 341.131 147.402 340.506 148.073L338.056 150.694V150.779H343.127V151.951H336.245Z" fill="#45454A"/>
<path d="M390.065 152.1C389.362 152.1 388.735 151.979 388.185 151.738C387.638 151.496 387.203 151.161 386.879 150.731C386.56 150.298 386.386 149.795 386.357 149.224H387.7C387.728 149.575 387.849 149.879 388.062 150.135C388.275 150.387 388.554 150.582 388.898 150.72C389.243 150.859 389.624 150.928 390.044 150.928C390.512 150.928 390.928 150.847 391.29 150.683C391.652 150.52 391.936 150.293 392.142 150.001C392.348 149.71 392.451 149.373 392.451 148.989C392.451 148.588 392.352 148.235 392.153 147.929C391.954 147.62 391.663 147.379 391.279 147.205C390.896 147.031 390.427 146.944 389.873 146.944H388.999V145.772H389.873C390.306 145.772 390.686 145.694 391.013 145.538C391.343 145.381 391.601 145.161 391.785 144.877C391.974 144.593 392.068 144.259 392.068 143.876C392.068 143.506 391.986 143.185 391.823 142.912C391.659 142.638 391.428 142.425 391.13 142.272C390.835 142.12 390.487 142.043 390.086 142.043C389.71 142.043 389.355 142.113 389.021 142.251C388.691 142.386 388.421 142.583 388.211 142.842C388.002 143.098 387.888 143.407 387.87 143.769H386.592C386.613 143.197 386.785 142.697 387.109 142.267C387.432 141.834 387.854 141.496 388.376 141.255C388.902 141.013 389.479 140.893 390.107 140.893C390.782 140.893 391.361 141.029 391.844 141.303C392.327 141.573 392.698 141.93 392.957 142.374C393.216 142.817 393.346 143.297 393.346 143.812C393.346 144.426 393.185 144.95 392.861 145.383C392.542 145.816 392.107 146.116 391.556 146.283V146.369C392.245 146.482 392.783 146.775 393.17 147.247C393.557 147.716 393.751 148.297 393.751 148.989C393.751 149.582 393.589 150.115 393.266 150.587C392.947 151.056 392.51 151.425 391.956 151.695C391.402 151.965 390.772 152.1 390.065 152.1Z" fill="#45454A"/>
<path d="M436.455 149.714V148.627L441.249 141.042H442.037V142.725H441.504L437.882 148.457V148.542H444.338V149.714H436.455ZM441.59 151.951V149.383V148.877V141.042H442.847V151.951H441.59Z" fill="#45454A"/>
<path d="M138.159 203.051C137.534 203.051 136.972 202.927 136.471 202.678C135.97 202.43 135.569 202.089 135.267 201.655C134.965 201.222 134.8 200.729 134.772 200.175H136.05C136.1 200.668 136.323 201.077 136.721 201.4C137.122 201.719 137.602 201.879 138.159 201.879C138.607 201.879 139.005 201.774 139.353 201.565C139.704 201.355 139.979 201.068 140.178 200.702C140.381 200.333 140.482 199.915 140.482 199.45C140.482 198.974 140.377 198.55 140.168 198.177C139.962 197.801 139.678 197.504 139.315 197.288C138.953 197.071 138.539 196.961 138.074 196.957C137.74 196.954 137.398 197.005 137.046 197.112C136.695 197.215 136.405 197.348 136.178 197.511L134.942 197.362L135.603 191.993H141.27V193.165H136.711L136.327 196.382H136.391C136.615 196.204 136.895 196.057 137.233 195.94C137.57 195.823 137.922 195.764 138.287 195.764C138.955 195.764 139.55 195.924 140.072 196.243C140.597 196.56 141.009 196.993 141.308 197.543C141.609 198.094 141.76 198.722 141.76 199.429C141.76 200.125 141.604 200.746 141.292 201.293C140.983 201.837 140.556 202.266 140.013 202.582C139.47 202.895 138.852 203.051 138.159 203.051Z" fill="#45454A"/>
<path d="M188.623 203.051C188.176 203.044 187.729 202.959 187.281 202.795C186.834 202.632 186.425 202.357 186.056 201.97C185.687 201.579 185.39 201.052 185.166 200.388C184.943 199.72 184.831 198.882 184.831 197.873C184.831 196.908 184.921 196.052 185.103 195.306C185.284 194.557 185.546 193.926 185.891 193.415C186.235 192.9 186.651 192.509 187.137 192.243C187.627 191.977 188.18 191.844 188.794 191.844C189.405 191.844 189.948 191.966 190.424 192.211C190.903 192.453 191.294 192.79 191.596 193.223C191.898 193.656 192.093 194.155 192.182 194.72H190.882C190.761 194.23 190.527 193.823 190.179 193.5C189.831 193.177 189.369 193.015 188.794 193.015C187.949 193.015 187.283 193.383 186.796 194.118C186.313 194.853 186.07 195.885 186.067 197.213H186.152C186.351 196.911 186.587 196.654 186.86 196.441C187.137 196.224 187.443 196.057 187.777 195.94C188.11 195.823 188.464 195.764 188.837 195.764C189.462 195.764 190.033 195.92 190.552 196.233C191.07 196.542 191.486 196.97 191.798 197.517C192.111 198.06 192.267 198.683 192.267 199.386C192.267 200.061 192.116 200.679 191.814 201.24C191.512 201.797 191.088 202.241 190.541 202.572C189.998 202.898 189.359 203.058 188.623 203.051ZM188.623 201.879C189.071 201.879 189.472 201.767 189.827 201.544C190.186 201.32 190.468 201.02 190.674 200.643C190.884 200.267 190.989 199.848 190.989 199.386C190.989 198.935 190.887 198.525 190.685 198.156C190.486 197.783 190.211 197.486 189.859 197.266C189.511 197.046 189.114 196.936 188.666 196.936C188.329 196.936 188.014 197.003 187.723 197.138C187.432 197.27 187.176 197.451 186.956 197.682C186.74 197.913 186.569 198.177 186.445 198.475C186.321 198.77 186.258 199.081 186.258 199.408C186.258 199.841 186.36 200.246 186.562 200.622C186.768 200.998 187.049 201.302 187.404 201.533C187.762 201.764 188.169 201.879 188.623 201.879Z" fill="#45454A"/>
<path d="M236.106 202.902L240.985 193.25V193.165H235.36V191.993H242.349V193.229L237.491 202.902H236.106Z" fill="#45454A"/>
<path d="M289.291 203.051C288.559 203.051 287.913 202.921 287.352 202.662C286.794 202.399 286.359 202.039 286.047 201.581C285.734 201.119 285.58 200.594 285.583 200.004C285.58 199.542 285.67 199.116 285.855 198.726C286.039 198.332 286.292 198.003 286.611 197.74C286.934 197.474 287.295 197.305 287.693 197.234V197.17C287.171 197.035 286.755 196.742 286.446 196.291C286.137 195.837 285.984 195.32 285.988 194.741C285.984 194.187 286.125 193.692 286.409 193.255C286.693 192.818 287.084 192.474 287.581 192.222C288.081 191.97 288.651 191.844 289.291 191.844C289.923 191.844 290.487 191.97 290.984 192.222C291.482 192.474 291.872 192.818 292.156 193.255C292.444 193.692 292.59 194.187 292.593 194.741C292.59 195.32 292.432 195.837 292.119 196.291C291.81 196.742 291.4 197.035 290.889 197.17V197.234C291.283 197.305 291.638 197.474 291.954 197.74C292.27 198.003 292.522 198.332 292.71 198.726C292.899 199.116 292.994 199.542 292.998 200.004C292.994 200.594 292.835 201.119 292.519 201.581C292.206 202.039 291.771 202.399 291.213 202.662C290.66 202.921 290.019 203.051 289.291 203.051ZM289.291 201.879C289.784 201.879 290.21 201.799 290.569 201.639C290.928 201.48 291.205 201.254 291.4 200.963C291.595 200.672 291.695 200.331 291.698 199.94C291.695 199.528 291.588 199.164 291.379 198.848C291.169 198.532 290.883 198.284 290.521 198.102C290.162 197.921 289.752 197.831 289.291 197.831C288.825 197.831 288.41 197.921 288.044 198.102C287.682 198.284 287.396 198.532 287.187 198.848C286.981 199.164 286.879 199.528 286.883 199.94C286.879 200.331 286.973 200.672 287.165 200.963C287.361 201.254 287.639 201.48 288.001 201.639C288.364 201.799 288.793 201.879 289.291 201.879ZM289.291 196.702C289.681 196.702 290.027 196.623 290.329 196.467C290.635 196.311 290.874 196.093 291.048 195.812C291.222 195.531 291.311 195.203 291.315 194.827C291.311 194.457 291.224 194.136 291.054 193.862C290.883 193.585 290.647 193.372 290.345 193.223C290.043 193.071 289.692 192.994 289.291 192.994C288.882 192.994 288.525 193.071 288.22 193.223C287.914 193.372 287.678 193.585 287.511 193.862C287.345 194.136 287.263 194.457 287.266 194.827C287.263 195.203 287.346 195.531 287.517 195.812C287.691 196.093 287.93 196.311 288.236 196.467C288.541 196.623 288.893 196.702 289.291 196.702Z" fill="#45454A"/>
<path d="M339.579 191.844C340.026 191.847 340.474 191.932 340.921 192.099C341.369 192.266 341.777 192.543 342.146 192.93C342.516 193.314 342.812 193.838 343.036 194.502C343.26 195.166 343.371 195.998 343.371 197C343.371 197.969 343.279 198.83 343.094 199.583C342.913 200.333 342.651 200.965 342.306 201.48C341.965 201.995 341.55 202.385 341.06 202.652C340.573 202.918 340.023 203.051 339.408 203.051C338.798 203.051 338.252 202.93 337.773 202.689C337.297 202.444 336.907 202.105 336.601 201.671C336.299 201.235 336.106 200.729 336.021 200.153H337.32C337.437 200.654 337.67 201.068 338.018 201.394C338.37 201.718 338.833 201.879 339.408 201.879C340.25 201.879 340.914 201.512 341.401 200.777C341.891 200.041 342.136 199.003 342.136 197.66H342.05C341.852 197.959 341.615 198.216 341.342 198.433C341.069 198.649 340.765 198.816 340.431 198.933C340.097 199.051 339.742 199.109 339.366 199.109C338.741 199.109 338.167 198.955 337.645 198.646C337.127 198.333 336.711 197.905 336.399 197.362C336.09 196.815 335.935 196.19 335.935 195.487C335.935 194.819 336.084 194.209 336.383 193.655C336.685 193.097 337.107 192.653 337.651 192.323C338.197 191.993 338.84 191.833 339.579 191.844ZM339.579 193.015C339.131 193.015 338.728 193.127 338.37 193.351C338.015 193.571 337.732 193.87 337.523 194.246C337.317 194.619 337.214 195.033 337.214 195.487C337.214 195.942 337.313 196.355 337.512 196.728C337.714 197.098 337.99 197.392 338.338 197.612C338.689 197.829 339.089 197.937 339.536 197.937C339.874 197.937 340.188 197.872 340.479 197.74C340.77 197.605 341.024 197.422 341.241 197.192C341.461 196.957 341.633 196.693 341.757 196.398C341.882 196.1 341.944 195.789 341.944 195.466C341.944 195.04 341.841 194.64 341.635 194.267C341.433 193.894 341.152 193.593 340.793 193.362C340.438 193.131 340.033 193.015 339.579 193.015Z" fill="#45454A"/>
<path d="M386.816 191.993V202.902H385.495V193.378H385.431L382.767 195.146V193.804L385.495 191.993H386.816ZM393.511 203.051C392.709 203.051 392.025 202.833 391.46 202.396C390.896 201.955 390.464 201.318 390.166 200.484C389.868 199.645 389.719 198.633 389.719 197.447C389.719 196.268 389.868 195.262 390.166 194.427C390.468 193.589 390.901 192.95 391.466 192.509C392.034 192.066 392.716 191.844 393.511 191.844C394.307 191.844 394.987 192.066 395.551 192.509C396.12 192.95 396.553 193.589 396.851 194.427C397.153 195.262 397.304 196.268 397.304 197.447C397.304 198.633 397.155 199.645 396.856 200.484C396.558 201.318 396.127 201.955 395.562 202.396C394.997 202.833 394.314 203.051 393.511 203.051ZM393.511 201.879C394.307 201.879 394.925 201.496 395.365 200.729C395.805 199.962 396.025 198.868 396.025 197.447C396.025 196.503 395.924 195.698 395.722 195.034C395.523 194.37 395.235 193.864 394.859 193.516C394.486 193.168 394.037 192.994 393.511 192.994C392.723 192.994 392.107 193.383 391.663 194.161C391.219 194.935 390.997 196.03 390.997 197.447C390.997 198.392 391.096 199.194 391.295 199.855C391.494 200.515 391.78 201.018 392.153 201.362C392.529 201.707 392.982 201.879 393.511 201.879Z" fill="#45454A"/>
<path d="M438.385 191.993V202.902H437.064V193.378H437L434.337 195.146V193.804L437.064 191.993H438.385ZM445.358 191.993V202.902H444.037V193.378H443.973L441.309 195.146V193.804L444.037 191.993H445.358Z" fill="#45454A"/>
</g>
<rect x="319" y="132" width="38" height="38" rx="8" fill="#0E0E0F"/>
<path d="M334.311 156V154.572L338.099 150.86C338.461 150.494 338.763 150.169 339.004 149.885C339.246 149.601 339.427 149.326 339.547 149.059C339.668 148.793 339.729 148.509 339.729 148.207C339.729 147.863 339.65 147.568 339.494 147.323C339.338 147.074 339.123 146.882 338.85 146.748C338.576 146.613 338.265 146.545 337.917 146.545C337.559 146.545 337.244 146.62 336.975 146.769C336.705 146.914 336.495 147.122 336.346 147.392C336.2 147.662 336.128 147.983 336.128 148.356H334.247C334.247 147.664 334.405 147.062 334.721 146.55C335.037 146.039 335.472 145.643 336.026 145.363C336.584 145.082 337.223 144.942 337.944 144.942C338.676 144.942 339.318 145.078 339.872 145.352C340.426 145.625 340.856 146 341.161 146.476C341.47 146.952 341.625 147.495 341.625 148.106C341.625 148.514 341.547 148.915 341.39 149.31C341.234 149.704 340.959 150.141 340.565 150.62C340.174 151.099 339.626 151.68 338.919 152.362L337.039 154.274V154.349H341.79V156H334.311Z" fill="white"/>
</g>
<defs>
<filter id="filter0_d_1412_16231" x="87" y="12" width="404.577" height="393.705" filterUnits="userSpaceOnUse" color-interpolation-filters="sRGB">
<feFlood flood-opacity="0" result="BackgroundImageFix"/>
<feColorMatrix in="SourceAlpha" type="matrix" values="0 0 0 0 0 0 0 0 0 0 0 0 0 0 0 0 0 0 127 0" result="hardAlpha"/>
<feOffset dy="4"/>
<feGaussianBlur stdDeviation="5"/>
<feColorMatrix type="matrix" values="0 0 0 0 0 0 0 0 0 0 0 0 0 0 0 0 0 0 0.15 0"/>
<feBlend mode="normal" in2="BackgroundImageFix" result="effect1_dropShadow_1412_16231"/>
<feBlend mode="normal" in="SourceGraphic" in2="effect1_dropShadow_1412_16231" result="shape"/>
</filter>
<clipPath id="clip0_1412_16231">
<path d="M0 5.99999C0 2.68628 2.68629 0 6 0H571C574.314 0 577 2.68629 577 6V227.6H0V5.99999Z" fill="white"/>
</clipPath>
</defs>
</svg>
