<svg width="577" height="229" viewBox="0 0 577 229" fill="none" xmlns="http://www.w3.org/2000/svg">
<path d="M0 6.59997C0 3.28626 2.68629 0.599976 6 0.599976H571C574.314 0.599976 577 3.28627 577 6.59998V228.2H0V6.59997Z" fill="#1C1917"/>
<g clip-path="url(#clip0_1412_16351)">
<rect x="323" y="30.6" width="42" height="42" rx="21" fill="#16A249" fill-opacity="0.3"/>
<path d="M344 41.6C338.48 41.6 334 46.08 334 51.6C334 57.12 338.48 61.6 344 61.6C349.52 61.6 354 57.12 354 51.6C354 46.08 349.52 41.6 344 41.6ZM344 59.6C339.58 59.6 336 56.02 336 51.6C336 47.18 339.58 43.6 344 43.6C348.42 43.6 352 47.18 352 51.6C352 56.02 348.42 59.6 344 59.6Z" fill="white" fill-opacity="0.6"/>
<path d="M373.219 55.3734V56.6H367.531V55.3734H373.219ZM367.828 45.225V56.6H366.32V45.225H367.828ZM379.861 55.1547V50.8031C379.861 50.4698 379.793 50.1807 379.658 49.9359C379.528 49.6859 379.33 49.4932 379.064 49.3578C378.798 49.2224 378.47 49.1547 378.08 49.1547C377.715 49.1547 377.395 49.2172 377.119 49.3422C376.848 49.4672 376.634 49.6312 376.478 49.8344C376.327 50.0375 376.252 50.2562 376.252 50.4906H374.806C374.806 50.1885 374.884 49.889 375.041 49.5922C375.197 49.2953 375.421 49.0271 375.712 48.7875C376.009 48.5427 376.364 48.35 376.775 48.2094C377.192 48.0635 377.655 47.9906 378.166 47.9906C378.78 47.9906 379.322 48.0948 379.791 48.3031C380.265 48.5114 380.634 48.8265 380.9 49.2484C381.171 49.6651 381.306 50.1885 381.306 50.8187V54.7562C381.306 55.0375 381.33 55.337 381.377 55.6547C381.429 55.9724 381.504 56.2458 381.603 56.475V56.6H380.095C380.022 56.4333 379.965 56.212 379.923 55.9359C379.882 55.6547 379.861 55.3942 379.861 55.1547ZM380.111 51.475L380.127 52.4906H378.666C378.254 52.4906 377.887 52.5245 377.564 52.5922C377.241 52.6547 376.97 52.751 376.752 52.8812C376.533 53.0114 376.366 53.1755 376.252 53.3734C376.137 53.5661 376.08 53.7927 376.08 54.0531C376.08 54.3187 376.14 54.5609 376.259 54.7797C376.379 54.9984 376.559 55.1729 376.798 55.3031C377.043 55.4281 377.343 55.4906 377.697 55.4906C378.14 55.4906 378.53 55.3969 378.869 55.2094C379.207 55.0219 379.476 54.7927 379.673 54.5219C379.877 54.251 379.986 53.988 380.002 53.7328L380.619 54.4281C380.582 54.6469 380.483 54.889 380.322 55.1547C380.16 55.4203 379.944 55.6755 379.673 55.9203C379.408 56.1599 379.09 56.3604 378.72 56.5219C378.356 56.6781 377.944 56.7562 377.486 56.7562C376.913 56.7562 376.41 56.6442 375.978 56.4203C375.551 56.1963 375.218 55.8969 374.978 55.5219C374.744 55.1416 374.627 54.7172 374.627 54.2484C374.627 53.7953 374.715 53.3969 374.892 53.0531C375.069 52.7041 375.324 52.4151 375.658 52.1859C375.991 51.9515 376.392 51.7745 376.861 51.6547C377.33 51.5349 377.853 51.475 378.431 51.475H380.111ZM383.722 44.6H385.175V54.9594L385.05 56.6H383.722V44.6ZM390.886 52.3031V52.4672C390.886 53.0817 390.813 53.6521 390.667 54.1781C390.521 54.6989 390.308 55.1521 390.027 55.5375C389.745 55.9229 389.402 56.2224 388.995 56.4359C388.589 56.6495 388.123 56.7562 387.597 56.7562C387.06 56.7562 386.589 56.6651 386.183 56.4828C385.782 56.2953 385.443 56.0271 385.167 55.6781C384.891 55.3291 384.67 54.9073 384.503 54.4125C384.342 53.9177 384.23 53.3604 384.167 52.7406V52.0219C384.23 51.3969 384.342 50.837 384.503 50.3422C384.67 49.8474 384.891 49.4255 385.167 49.0765C385.443 48.7224 385.782 48.4541 386.183 48.2719C386.584 48.0844 387.05 47.9906 387.581 47.9906C388.112 47.9906 388.584 48.0948 388.995 48.3031C389.407 48.5062 389.751 48.7979 390.027 49.1781C390.308 49.5583 390.521 50.014 390.667 50.5453C390.813 51.0713 390.886 51.6573 390.886 52.3031ZM389.433 52.4672V52.3031C389.433 51.8812 389.394 51.4854 389.316 51.1156C389.237 50.7406 389.112 50.4125 388.941 50.1312C388.769 49.8448 388.542 49.6208 388.261 49.4594C387.98 49.2927 387.633 49.2094 387.222 49.2094C386.857 49.2094 386.54 49.2719 386.269 49.3969C386.003 49.5219 385.777 49.6911 385.589 49.9047C385.402 50.113 385.248 50.3526 385.128 50.6234C385.014 50.889 384.928 51.1651 384.87 51.4515V53.3344C384.954 53.6989 385.089 54.0505 385.277 54.389C385.469 54.7224 385.724 54.9958 386.042 55.2094C386.365 55.4229 386.764 55.5297 387.237 55.5297C387.628 55.5297 387.961 55.4515 388.237 55.2953C388.519 55.1338 388.745 54.9125 388.917 54.6312C389.094 54.35 389.224 54.0245 389.308 53.6547C389.391 53.2849 389.433 52.889 389.433 52.4672ZM396.372 56.7562C395.783 56.7562 395.249 56.6573 394.77 56.4594C394.296 56.2562 393.888 55.9724 393.544 55.6078C393.205 55.2432 392.945 54.8109 392.763 54.3109C392.58 53.8109 392.489 53.264 392.489 52.6703V52.3422C392.489 51.6547 392.591 51.0427 392.794 50.5062C392.997 49.9646 393.273 49.5062 393.622 49.1312C393.971 48.7562 394.367 48.4724 394.809 48.2797C395.252 48.087 395.71 47.9906 396.184 47.9906C396.789 47.9906 397.309 48.0948 397.747 48.3031C398.19 48.5114 398.552 48.8031 398.833 49.1781C399.114 49.5479 399.322 49.9854 399.458 50.4906C399.593 50.9906 399.661 51.5375 399.661 52.1312V52.7797H393.348V51.6H398.216V51.4906C398.195 51.1156 398.117 50.751 397.981 50.3969C397.851 50.0427 397.643 49.751 397.356 49.5219C397.07 49.2927 396.679 49.1781 396.184 49.1781C395.856 49.1781 395.554 49.2484 395.278 49.389C395.002 49.5245 394.765 49.7276 394.567 49.9984C394.369 50.2692 394.216 50.6 394.106 50.9906C393.997 51.3812 393.942 51.8317 393.942 52.3422V52.6703C393.942 53.0713 393.997 53.4489 394.106 53.8031C394.221 54.1521 394.385 54.4594 394.598 54.725C394.817 54.9906 395.08 55.1989 395.388 55.35C395.7 55.501 396.054 55.5765 396.45 55.5765C396.96 55.5765 397.393 55.4724 397.747 55.264C398.101 55.0557 398.411 54.7771 398.677 54.4281L399.552 55.1234C399.369 55.3995 399.138 55.6625 398.856 55.9125C398.575 56.1625 398.229 56.3656 397.817 56.5219C397.411 56.6781 396.929 56.7562 396.372 56.7562ZM403.069 44.6V56.6H401.616V44.6H403.069Z" fill="white" fill-opacity="0.87"/>
</g>
<g clip-path="url(#clip1_1412_16351)">
<rect x="323" y="93.6" width="42" height="42" rx="21" fill="#16A249" fill-opacity="0.3"/>
<path d="M344 109.6C341.24 109.6 339 111.84 339 114.6C339 117.36 341.24 119.6 344 119.6C346.76 119.6 349 117.36 349 114.6C349 111.84 346.76 109.6 344 109.6ZM344 104.6C338.48 104.6 334 109.08 334 114.6C334 120.12 338.48 124.6 344 124.6C349.52 124.6 354 120.12 354 114.6C354 109.08 349.52 104.6 344 104.6ZM344 122.6C339.58 122.6 336 119.02 336 114.6C336 110.18 339.58 106.6 344 106.6C348.42 106.6 352 110.18 352 114.6C352 119.02 348.42 122.6 344 122.6Z" fill="#16A249"/>
<path d="M373.219 118.373V119.6H367.531V118.373H373.219ZM367.828 108.225V119.6H366.32V108.225H367.828ZM379.861 118.155V113.803C379.861 113.47 379.793 113.181 379.658 112.936C379.528 112.686 379.33 112.493 379.064 112.358C378.798 112.222 378.47 112.155 378.08 112.155C377.715 112.155 377.395 112.217 377.119 112.342C376.848 112.467 376.634 112.631 376.478 112.834C376.327 113.037 376.252 113.256 376.252 113.491H374.806C374.806 113.189 374.884 112.889 375.041 112.592C375.197 112.295 375.421 112.027 375.712 111.787C376.009 111.543 376.364 111.35 376.775 111.209C377.192 111.064 377.655 110.991 378.166 110.991C378.78 110.991 379.322 111.095 379.791 111.303C380.265 111.511 380.634 111.827 380.9 112.248C381.171 112.665 381.306 113.189 381.306 113.819V117.756C381.306 118.037 381.33 118.337 381.377 118.655C381.429 118.972 381.504 119.246 381.603 119.475V119.6H380.095C380.022 119.433 379.965 119.212 379.923 118.936C379.882 118.655 379.861 118.394 379.861 118.155ZM380.111 114.475L380.127 115.491H378.666C378.254 115.491 377.887 115.524 377.564 115.592C377.241 115.655 376.97 115.751 376.752 115.881C376.533 116.011 376.366 116.175 376.252 116.373C376.137 116.566 376.08 116.793 376.08 117.053C376.08 117.319 376.14 117.561 376.259 117.78C376.379 117.998 376.559 118.173 376.798 118.303C377.043 118.428 377.343 118.491 377.697 118.491C378.14 118.491 378.53 118.397 378.869 118.209C379.207 118.022 379.476 117.793 379.673 117.522C379.877 117.251 379.986 116.988 380.002 116.733L380.619 117.428C380.582 117.647 380.483 117.889 380.322 118.155C380.16 118.42 379.944 118.675 379.673 118.92C379.408 119.16 379.09 119.36 378.72 119.522C378.356 119.678 377.944 119.756 377.486 119.756C376.913 119.756 376.41 119.644 375.978 119.42C375.551 119.196 375.218 118.897 374.978 118.522C374.744 118.142 374.627 117.717 374.627 117.248C374.627 116.795 374.715 116.397 374.892 116.053C375.069 115.704 375.324 115.415 375.658 115.186C375.991 114.952 376.392 114.774 376.861 114.655C377.33 114.535 377.853 114.475 378.431 114.475H380.111ZM383.722 107.6H385.175V117.959L385.05 119.6H383.722V107.6ZM390.886 115.303V115.467C390.886 116.082 390.813 116.652 390.667 117.178C390.521 117.699 390.308 118.152 390.027 118.537C389.745 118.923 389.402 119.222 388.995 119.436C388.589 119.649 388.123 119.756 387.597 119.756C387.06 119.756 386.589 119.665 386.183 119.483C385.782 119.295 385.443 119.027 385.167 118.678C384.891 118.329 384.67 117.907 384.503 117.412C384.342 116.918 384.23 116.36 384.167 115.741V115.022C384.23 114.397 384.342 113.837 384.503 113.342C384.67 112.847 384.891 112.425 385.167 112.077C385.443 111.722 385.782 111.454 386.183 111.272C386.584 111.084 387.05 110.991 387.581 110.991C388.112 110.991 388.584 111.095 388.995 111.303C389.407 111.506 389.751 111.798 390.027 112.178C390.308 112.558 390.521 113.014 390.667 113.545C390.813 114.071 390.886 114.657 390.886 115.303ZM389.433 115.467V115.303C389.433 114.881 389.394 114.485 389.316 114.116C389.237 113.741 389.112 113.412 388.941 113.131C388.769 112.845 388.542 112.621 388.261 112.459C387.98 112.293 387.633 112.209 387.222 112.209C386.857 112.209 386.54 112.272 386.269 112.397C386.003 112.522 385.777 112.691 385.589 112.905C385.402 113.113 385.248 113.353 385.128 113.623C385.014 113.889 384.928 114.165 384.87 114.452V116.334C384.954 116.699 385.089 117.05 385.277 117.389C385.469 117.722 385.724 117.996 386.042 118.209C386.365 118.423 386.764 118.53 387.237 118.53C387.628 118.53 387.961 118.452 388.237 118.295C388.519 118.134 388.745 117.912 388.917 117.631C389.094 117.35 389.224 117.024 389.308 116.655C389.391 116.285 389.433 115.889 389.433 115.467ZM396.372 119.756C395.783 119.756 395.249 119.657 394.77 119.459C394.296 119.256 393.888 118.972 393.544 118.608C393.205 118.243 392.945 117.811 392.763 117.311C392.58 116.811 392.489 116.264 392.489 115.67V115.342C392.489 114.655 392.591 114.043 392.794 113.506C392.997 112.965 393.273 112.506 393.622 112.131C393.971 111.756 394.367 111.472 394.809 111.28C395.252 111.087 395.71 110.991 396.184 110.991C396.789 110.991 397.309 111.095 397.747 111.303C398.19 111.511 398.552 111.803 398.833 112.178C399.114 112.548 399.322 112.985 399.458 113.491C399.593 113.991 399.661 114.537 399.661 115.131V115.78H393.348V114.6H398.216V114.491C398.195 114.116 398.117 113.751 397.981 113.397C397.851 113.043 397.643 112.751 397.356 112.522C397.07 112.293 396.679 112.178 396.184 112.178C395.856 112.178 395.554 112.248 395.278 112.389C395.002 112.524 394.765 112.728 394.567 112.998C394.369 113.269 394.216 113.6 394.106 113.991C393.997 114.381 393.942 114.832 393.942 115.342V115.67C393.942 116.071 393.997 116.449 394.106 116.803C394.221 117.152 394.385 117.459 394.598 117.725C394.817 117.991 395.08 118.199 395.388 118.35C395.7 118.501 396.054 118.577 396.45 118.577C396.96 118.577 397.393 118.472 397.747 118.264C398.101 118.056 398.411 117.777 398.677 117.428L399.552 118.123C399.369 118.399 399.138 118.662 398.856 118.912C398.575 119.162 398.229 119.366 397.817 119.522C397.411 119.678 396.929 119.756 396.372 119.756ZM403.069 107.6V119.6H401.616V107.6H403.069Z" fill="white" fill-opacity="0.87"/>
</g>
<g clip-path="url(#clip2_1412_16351)">
<path d="M344 172.6C341.24 172.6 339 174.84 339 177.6C339 180.36 341.24 182.6 344 182.6C346.76 182.6 349 180.36 349 177.6C349 174.84 346.76 172.6 344 172.6ZM344 167.6C338.48 167.6 334 172.08 334 177.6C334 183.12 338.48 187.6 344 187.6C349.52 187.6 354 183.12 354 177.6C354 172.08 349.52 167.6 344 167.6ZM344 185.6C339.58 185.6 336 182.02 336 177.6C336 173.18 339.58 169.6 344 169.6C348.42 169.6 352 173.18 352 177.6C352 182.02 348.42 185.6 344 185.6Z" fill="#717171" fill-opacity="0.6"/>
<path d="M373.219 181.373V182.6H367.531V181.373H373.219ZM367.828 171.225V182.6H366.32V171.225H367.828ZM379.861 181.155V176.803C379.861 176.47 379.793 176.181 379.658 175.936C379.528 175.686 379.33 175.493 379.064 175.358C378.798 175.222 378.47 175.155 378.08 175.155C377.715 175.155 377.395 175.217 377.119 175.342C376.848 175.467 376.634 175.631 376.478 175.834C376.327 176.037 376.252 176.256 376.252 176.491H374.806C374.806 176.189 374.884 175.889 375.041 175.592C375.197 175.295 375.421 175.027 375.712 174.787C376.009 174.543 376.364 174.35 376.775 174.209C377.192 174.064 377.655 173.991 378.166 173.991C378.78 173.991 379.322 174.095 379.791 174.303C380.265 174.511 380.634 174.827 380.9 175.248C381.171 175.665 381.306 176.189 381.306 176.819V180.756C381.306 181.037 381.33 181.337 381.377 181.655C381.429 181.972 381.504 182.246 381.603 182.475V182.6H380.095C380.022 182.433 379.965 182.212 379.923 181.936C379.882 181.655 379.861 181.394 379.861 181.155ZM380.111 177.475L380.127 178.491H378.666C378.254 178.491 377.887 178.524 377.564 178.592C377.241 178.655 376.97 178.751 376.752 178.881C376.533 179.011 376.366 179.175 376.252 179.373C376.137 179.566 376.08 179.793 376.08 180.053C376.08 180.319 376.14 180.561 376.259 180.78C376.379 180.998 376.559 181.173 376.798 181.303C377.043 181.428 377.343 181.491 377.697 181.491C378.14 181.491 378.53 181.397 378.869 181.209C379.207 181.022 379.476 180.793 379.673 180.522C379.877 180.251 379.986 179.988 380.002 179.733L380.619 180.428C380.582 180.647 380.483 180.889 380.322 181.155C380.16 181.42 379.944 181.675 379.673 181.92C379.408 182.16 379.09 182.36 378.72 182.522C378.356 182.678 377.944 182.756 377.486 182.756C376.913 182.756 376.41 182.644 375.978 182.42C375.551 182.196 375.218 181.897 374.978 181.522C374.744 181.142 374.627 180.717 374.627 180.248C374.627 179.795 374.715 179.397 374.892 179.053C375.069 178.704 375.324 178.415 375.658 178.186C375.991 177.952 376.392 177.774 376.861 177.655C377.33 177.535 377.853 177.475 378.431 177.475H380.111ZM383.722 170.6H385.175V180.959L385.05 182.6H383.722V170.6ZM390.886 178.303V178.467C390.886 179.082 390.813 179.652 390.667 180.178C390.521 180.699 390.308 181.152 390.027 181.537C389.745 181.923 389.402 182.222 388.995 182.436C388.589 182.649 388.123 182.756 387.597 182.756C387.06 182.756 386.589 182.665 386.183 182.483C385.782 182.295 385.443 182.027 385.167 181.678C384.891 181.329 384.67 180.907 384.503 180.412C384.342 179.918 384.23 179.36 384.167 178.741V178.022C384.23 177.397 384.342 176.837 384.503 176.342C384.67 175.847 384.891 175.425 385.167 175.077C385.443 174.722 385.782 174.454 386.183 174.272C386.584 174.084 387.05 173.991 387.581 173.991C388.112 173.991 388.584 174.095 388.995 174.303C389.407 174.506 389.751 174.798 390.027 175.178C390.308 175.558 390.521 176.014 390.667 176.545C390.813 177.071 390.886 177.657 390.886 178.303ZM389.433 178.467V178.303C389.433 177.881 389.394 177.485 389.316 177.116C389.237 176.741 389.112 176.412 388.941 176.131C388.769 175.845 388.542 175.621 388.261 175.459C387.98 175.293 387.633 175.209 387.222 175.209C386.857 175.209 386.54 175.272 386.269 175.397C386.003 175.522 385.777 175.691 385.589 175.905C385.402 176.113 385.248 176.353 385.128 176.623C385.014 176.889 384.928 177.165 384.87 177.452V179.334C384.954 179.699 385.089 180.05 385.277 180.389C385.469 180.722 385.724 180.996 386.042 181.209C386.365 181.423 386.764 181.53 387.237 181.53C387.628 181.53 387.961 181.452 388.237 181.295C388.519 181.134 388.745 180.912 388.917 180.631C389.094 180.35 389.224 180.024 389.308 179.655C389.391 179.285 389.433 178.889 389.433 178.467ZM396.372 182.756C395.783 182.756 395.249 182.657 394.77 182.459C394.296 182.256 393.888 181.972 393.544 181.608C393.205 181.243 392.945 180.811 392.763 180.311C392.58 179.811 392.489 179.264 392.489 178.67V178.342C392.489 177.655 392.591 177.043 392.794 176.506C392.997 175.965 393.273 175.506 393.622 175.131C393.971 174.756 394.367 174.472 394.809 174.28C395.252 174.087 395.71 173.991 396.184 173.991C396.789 173.991 397.309 174.095 397.747 174.303C398.19 174.511 398.552 174.803 398.833 175.178C399.114 175.548 399.322 175.985 399.458 176.491C399.593 176.991 399.661 177.537 399.661 178.131V178.78H393.348V177.6H398.216V177.491C398.195 177.116 398.117 176.751 397.981 176.397C397.851 176.043 397.643 175.751 397.356 175.522C397.07 175.293 396.679 175.178 396.184 175.178C395.856 175.178 395.554 175.248 395.278 175.389C395.002 175.524 394.765 175.728 394.567 175.998C394.369 176.269 394.216 176.6 394.106 176.991C393.997 177.381 393.942 177.832 393.942 178.342V178.67C393.942 179.071 393.997 179.449 394.106 179.803C394.221 180.152 394.385 180.459 394.598 180.725C394.817 180.991 395.08 181.199 395.388 181.35C395.7 181.501 396.054 181.577 396.45 181.577C396.96 181.577 397.393 181.472 397.747 181.264C398.101 181.056 398.411 180.777 398.677 180.428L399.552 181.123C399.369 181.399 399.138 181.662 398.856 181.912C398.575 182.162 398.229 182.366 397.817 182.522C397.411 182.678 396.929 182.756 396.372 182.756ZM403.069 170.6V182.6H401.616V170.6H403.069Z" fill="#717171" fill-opacity="0.87"/>
</g>
<g clip-path="url(#clip3_1412_16351)">
<path d="M192 41.6C186.48 41.6 182 46.08 182 51.6C182 57.12 186.48 61.6 192 61.6C197.52 61.6 202 57.12 202 51.6C202 46.08 197.52 41.6 192 41.6ZM192 59.6C187.58 59.6 184 56.02 184 51.6C184 47.18 187.58 43.6 192 43.6C196.42 43.6 200 47.18 200 51.6C200 56.02 196.42 59.6 192 59.6Z" fill="white" fill-opacity="0.6"/>
<path d="M221.219 55.3734V56.6H215.531V55.3734H221.219ZM215.828 45.225V56.6H214.32V45.225H215.828ZM227.861 55.1547V50.8031C227.861 50.4698 227.793 50.1807 227.658 49.9359C227.528 49.6859 227.33 49.4932 227.064 49.3578C226.798 49.2224 226.47 49.1547 226.08 49.1547C225.715 49.1547 225.395 49.2172 225.119 49.3422C224.848 49.4672 224.634 49.6312 224.478 49.8344C224.327 50.0375 224.252 50.2562 224.252 50.4906H222.806C222.806 50.1885 222.884 49.889 223.041 49.5922C223.197 49.2953 223.421 49.0271 223.712 48.7875C224.009 48.5427 224.364 48.35 224.775 48.2094C225.192 48.0635 225.655 47.9906 226.166 47.9906C226.78 47.9906 227.322 48.0948 227.791 48.3031C228.265 48.5114 228.634 48.8265 228.9 49.2484C229.171 49.6651 229.306 50.1885 229.306 50.8187V54.7562C229.306 55.0375 229.33 55.337 229.377 55.6547C229.429 55.9724 229.504 56.2458 229.603 56.475V56.6H228.095C228.022 56.4333 227.965 56.212 227.923 55.9359C227.882 55.6547 227.861 55.3942 227.861 55.1547ZM228.111 51.475L228.127 52.4906H226.666C226.254 52.4906 225.887 52.5245 225.564 52.5922C225.241 52.6547 224.97 52.751 224.752 52.8812C224.533 53.0114 224.366 53.1755 224.252 53.3734C224.137 53.5661 224.08 53.7927 224.08 54.0531C224.08 54.3187 224.14 54.5609 224.259 54.7797C224.379 54.9984 224.559 55.1729 224.798 55.3031C225.043 55.4281 225.343 55.4906 225.697 55.4906C226.14 55.4906 226.53 55.3969 226.869 55.2094C227.207 55.0219 227.476 54.7927 227.673 54.5219C227.877 54.251 227.986 53.988 228.002 53.7328L228.619 54.4281C228.582 54.6469 228.483 54.889 228.322 55.1547C228.16 55.4203 227.944 55.6755 227.673 55.9203C227.408 56.1599 227.09 56.3604 226.72 56.5219C226.356 56.6781 225.944 56.7562 225.486 56.7562C224.913 56.7562 224.41 56.6442 223.978 56.4203C223.551 56.1963 223.218 55.8969 222.978 55.5219C222.744 55.1416 222.627 54.7172 222.627 54.2484C222.627 53.7953 222.715 53.3969 222.892 53.0531C223.069 52.7041 223.324 52.4151 223.658 52.1859C223.991 51.9515 224.392 51.7745 224.861 51.6547C225.33 51.5349 225.853 51.475 226.431 51.475H228.111ZM231.722 44.6H233.175V54.9594L233.05 56.6H231.722V44.6ZM238.886 52.3031V52.4672C238.886 53.0817 238.813 53.6521 238.667 54.1781C238.521 54.6989 238.308 55.1521 238.027 55.5375C237.745 55.9229 237.402 56.2224 236.995 56.4359C236.589 56.6495 236.123 56.7562 235.597 56.7562C235.06 56.7562 234.589 56.6651 234.183 56.4828C233.782 56.2953 233.443 56.0271 233.167 55.6781C232.891 55.3291 232.67 54.9073 232.503 54.4125C232.342 53.9177 232.23 53.3604 232.167 52.7406V52.0219C232.23 51.3969 232.342 50.837 232.503 50.3422C232.67 49.8474 232.891 49.4255 233.167 49.0765C233.443 48.7224 233.782 48.4541 234.183 48.2719C234.584 48.0844 235.05 47.9906 235.581 47.9906C236.112 47.9906 236.584 48.0948 236.995 48.3031C237.407 48.5062 237.751 48.7979 238.027 49.1781C238.308 49.5583 238.521 50.014 238.667 50.5453C238.813 51.0713 238.886 51.6573 238.886 52.3031ZM237.433 52.4672V52.3031C237.433 51.8812 237.394 51.4854 237.316 51.1156C237.237 50.7406 237.112 50.4125 236.941 50.1312C236.769 49.8448 236.542 49.6208 236.261 49.4594C235.98 49.2927 235.633 49.2094 235.222 49.2094C234.857 49.2094 234.54 49.2719 234.269 49.3969C234.003 49.5219 233.777 49.6911 233.589 49.9047C233.402 50.113 233.248 50.3526 233.128 50.6234C233.014 50.889 232.928 51.1651 232.87 51.4515V53.3344C232.954 53.6989 233.089 54.0505 233.277 54.389C233.469 54.7224 233.724 54.9958 234.042 55.2094C234.365 55.4229 234.764 55.5297 235.237 55.5297C235.628 55.5297 235.961 55.4515 236.237 55.2953C236.519 55.1338 236.745 54.9125 236.917 54.6312C237.094 54.35 237.224 54.0245 237.308 53.6547C237.391 53.2849 237.433 52.889 237.433 52.4672ZM244.372 56.7562C243.783 56.7562 243.249 56.6573 242.77 56.4594C242.296 56.2562 241.888 55.9724 241.544 55.6078C241.205 55.2432 240.945 54.8109 240.763 54.3109C240.58 53.8109 240.489 53.264 240.489 52.6703V52.3422C240.489 51.6547 240.591 51.0427 240.794 50.5062C240.997 49.9646 241.273 49.5062 241.622 49.1312C241.971 48.7562 242.367 48.4724 242.809 48.2797C243.252 48.087 243.71 47.9906 244.184 47.9906C244.789 47.9906 245.309 48.0948 245.747 48.3031C246.19 48.5114 246.552 48.8031 246.833 49.1781C247.114 49.5479 247.322 49.9854 247.458 50.4906C247.593 50.9906 247.661 51.5375 247.661 52.1312V52.7797H241.348V51.6H246.216V51.4906C246.195 51.1156 246.117 50.751 245.981 50.3969C245.851 50.0427 245.643 49.751 245.356 49.5219C245.07 49.2927 244.679 49.1781 244.184 49.1781C243.856 49.1781 243.554 49.2484 243.278 49.389C243.002 49.5245 242.765 49.7276 242.567 49.9984C242.369 50.2692 242.216 50.6 242.106 50.9906C241.997 51.3812 241.942 51.8317 241.942 52.3422V52.6703C241.942 53.0713 241.997 53.4489 242.106 53.8031C242.221 54.1521 242.385 54.4594 242.598 54.725C242.817 54.9906 243.08 55.1989 243.388 55.35C243.7 55.501 244.054 55.5765 244.45 55.5765C244.96 55.5765 245.393 55.4724 245.747 55.264C246.101 55.0557 246.411 54.7771 246.677 54.4281L247.552 55.1234C247.369 55.3995 247.138 55.6625 246.856 55.9125C246.575 56.1625 246.229 56.3656 245.817 56.5219C245.411 56.6781 244.929 56.7562 244.372 56.7562ZM251.069 44.6V56.6H249.616V44.6H251.069Z" fill="white" fill-opacity="0.87"/>
</g>
<g clip-path="url(#clip4_1412_16351)">
<path d="M192 109.6C189.24 109.6 187 111.84 187 114.6C187 117.36 189.24 119.6 192 119.6C194.76 119.6 197 117.36 197 114.6C197 111.84 194.76 109.6 192 109.6ZM192 104.6C186.48 104.6 182 109.08 182 114.6C182 120.12 186.48 124.6 192 124.6C197.52 124.6 202 120.12 202 114.6C202 109.08 197.52 104.6 192 104.6ZM192 122.6C187.58 122.6 184 119.02 184 114.6C184 110.18 187.58 106.6 192 106.6C196.42 106.6 200 110.18 200 114.6C200 119.02 196.42 122.6 192 122.6Z" fill="#16A249"/>
<path d="M221.219 118.373V119.6H215.531V118.373H221.219ZM215.828 108.225V119.6H214.32V108.225H215.828ZM227.861 118.155V113.803C227.861 113.47 227.793 113.181 227.658 112.936C227.528 112.686 227.33 112.493 227.064 112.358C226.798 112.222 226.47 112.155 226.08 112.155C225.715 112.155 225.395 112.217 225.119 112.342C224.848 112.467 224.634 112.631 224.478 112.834C224.327 113.037 224.252 113.256 224.252 113.491H222.806C222.806 113.189 222.884 112.889 223.041 112.592C223.197 112.295 223.421 112.027 223.712 111.787C224.009 111.543 224.364 111.35 224.775 111.209C225.192 111.064 225.655 110.991 226.166 110.991C226.78 110.991 227.322 111.095 227.791 111.303C228.265 111.511 228.634 111.827 228.9 112.248C229.171 112.665 229.306 113.189 229.306 113.819V117.756C229.306 118.037 229.33 118.337 229.377 118.655C229.429 118.972 229.504 119.246 229.603 119.475V119.6H228.095C228.022 119.433 227.965 119.212 227.923 118.936C227.882 118.655 227.861 118.394 227.861 118.155ZM228.111 114.475L228.127 115.491H226.666C226.254 115.491 225.887 115.524 225.564 115.592C225.241 115.655 224.97 115.751 224.752 115.881C224.533 116.011 224.366 116.175 224.252 116.373C224.137 116.566 224.08 116.793 224.08 117.053C224.08 117.319 224.14 117.561 224.259 117.78C224.379 117.998 224.559 118.173 224.798 118.303C225.043 118.428 225.343 118.491 225.697 118.491C226.14 118.491 226.53 118.397 226.869 118.209C227.207 118.022 227.476 117.793 227.673 117.522C227.877 117.251 227.986 116.988 228.002 116.733L228.619 117.428C228.582 117.647 228.483 117.889 228.322 118.155C228.16 118.42 227.944 118.675 227.673 118.92C227.408 119.16 227.09 119.36 226.72 119.522C226.356 119.678 225.944 119.756 225.486 119.756C224.913 119.756 224.41 119.644 223.978 119.42C223.551 119.196 223.218 118.897 222.978 118.522C222.744 118.142 222.627 117.717 222.627 117.248C222.627 116.795 222.715 116.397 222.892 116.053C223.069 115.704 223.324 115.415 223.658 115.186C223.991 114.952 224.392 114.774 224.861 114.655C225.33 114.535 225.853 114.475 226.431 114.475H228.111ZM231.722 107.6H233.175V117.959L233.05 119.6H231.722V107.6ZM238.886 115.303V115.467C238.886 116.082 238.813 116.652 238.667 117.178C238.521 117.699 238.308 118.152 238.027 118.537C237.745 118.923 237.402 119.222 236.995 119.436C236.589 119.649 236.123 119.756 235.597 119.756C235.06 119.756 234.589 119.665 234.183 119.483C233.782 119.295 233.443 119.027 233.167 118.678C232.891 118.329 232.67 117.907 232.503 117.412C232.342 116.918 232.23 116.36 232.167 115.741V115.022C232.23 114.397 232.342 113.837 232.503 113.342C232.67 112.847 232.891 112.425 233.167 112.077C233.443 111.722 233.782 111.454 234.183 111.272C234.584 111.084 235.05 110.991 235.581 110.991C236.112 110.991 236.584 111.095 236.995 111.303C237.407 111.506 237.751 111.798 238.027 112.178C238.308 112.558 238.521 113.014 238.667 113.545C238.813 114.071 238.886 114.657 238.886 115.303ZM237.433 115.467V115.303C237.433 114.881 237.394 114.485 237.316 114.116C237.237 113.741 237.112 113.412 236.941 113.131C236.769 112.845 236.542 112.621 236.261 112.459C235.98 112.293 235.633 112.209 235.222 112.209C234.857 112.209 234.54 112.272 234.269 112.397C234.003 112.522 233.777 112.691 233.589 112.905C233.402 113.113 233.248 113.353 233.128 113.623C233.014 113.889 232.928 114.165 232.87 114.452V116.334C232.954 116.699 233.089 117.05 233.277 117.389C233.469 117.722 233.724 117.996 234.042 118.209C234.365 118.423 234.764 118.53 235.237 118.53C235.628 118.53 235.961 118.452 236.237 118.295C236.519 118.134 236.745 117.912 236.917 117.631C237.094 117.35 237.224 117.024 237.308 116.655C237.391 116.285 237.433 115.889 237.433 115.467ZM244.372 119.756C243.783 119.756 243.249 119.657 242.77 119.459C242.296 119.256 241.888 118.972 241.544 118.608C241.205 118.243 240.945 117.811 240.763 117.311C240.58 116.811 240.489 116.264 240.489 115.67V115.342C240.489 114.655 240.591 114.043 240.794 113.506C240.997 112.965 241.273 112.506 241.622 112.131C241.971 111.756 242.367 111.472 242.809 111.28C243.252 111.087 243.71 110.991 244.184 110.991C244.789 110.991 245.309 111.095 245.747 111.303C246.19 111.511 246.552 111.803 246.833 112.178C247.114 112.548 247.322 112.985 247.458 113.491C247.593 113.991 247.661 114.537 247.661 115.131V115.78H241.348V114.6H246.216V114.491C246.195 114.116 246.117 113.751 245.981 113.397C245.851 113.043 245.643 112.751 245.356 112.522C245.07 112.293 244.679 112.178 244.184 112.178C243.856 112.178 243.554 112.248 243.278 112.389C243.002 112.524 242.765 112.728 242.567 112.998C242.369 113.269 242.216 113.6 242.106 113.991C241.997 114.381 241.942 114.832 241.942 115.342V115.67C241.942 116.071 241.997 116.449 242.106 116.803C242.221 117.152 242.385 117.459 242.598 117.725C242.817 117.991 243.08 118.199 243.388 118.35C243.7 118.501 244.054 118.577 244.45 118.577C244.96 118.577 245.393 118.472 245.747 118.264C246.101 118.056 246.411 117.777 246.677 117.428L247.552 118.123C247.369 118.399 247.138 118.662 246.856 118.912C246.575 119.162 246.229 119.366 245.817 119.522C245.411 119.678 244.929 119.756 244.372 119.756ZM251.069 107.6V119.6H249.616V107.6H251.069Z" fill="white" fill-opacity="0.87"/>
</g>
<g clip-path="url(#clip5_1412_16351)">
<path d="M192 167.6C186.48 167.6 182 172.08 182 177.6C182 183.12 186.48 187.6 192 187.6C197.52 187.6 202 183.12 202 177.6C202 172.08 197.52 167.6 192 167.6ZM192 185.6C187.58 185.6 184 182.02 184 177.6C184 173.18 187.58 169.6 192 169.6C196.42 169.6 200 173.18 200 177.6C200 182.02 196.42 185.6 192 185.6Z" fill="#717171" fill-opacity="0.6"/>
<path d="M221.219 181.373V182.6H215.531V181.373H221.219ZM215.828 171.225V182.6H214.32V171.225H215.828ZM227.861 181.155V176.803C227.861 176.47 227.793 176.181 227.658 175.936C227.528 175.686 227.33 175.493 227.064 175.358C226.798 175.222 226.47 175.155 226.08 175.155C225.715 175.155 225.395 175.217 225.119 175.342C224.848 175.467 224.634 175.631 224.478 175.834C224.327 176.037 224.252 176.256 224.252 176.491H222.806C222.806 176.189 222.884 175.889 223.041 175.592C223.197 175.295 223.421 175.027 223.712 174.787C224.009 174.543 224.364 174.35 224.775 174.209C225.192 174.064 225.655 173.991 226.166 173.991C226.78 173.991 227.322 174.095 227.791 174.303C228.265 174.511 228.634 174.827 228.9 175.248C229.171 175.665 229.306 176.189 229.306 176.819V180.756C229.306 181.037 229.33 181.337 229.377 181.655C229.429 181.972 229.504 182.246 229.603 182.475V182.6H228.095C228.022 182.433 227.965 182.212 227.923 181.936C227.882 181.655 227.861 181.394 227.861 181.155ZM228.111 177.475L228.127 178.491H226.666C226.254 178.491 225.887 178.524 225.564 178.592C225.241 178.655 224.97 178.751 224.752 178.881C224.533 179.011 224.366 179.175 224.252 179.373C224.137 179.566 224.08 179.793 224.08 180.053C224.08 180.319 224.14 180.561 224.259 180.78C224.379 180.998 224.559 181.173 224.798 181.303C225.043 181.428 225.343 181.491 225.697 181.491C226.14 181.491 226.53 181.397 226.869 181.209C227.207 181.022 227.476 180.793 227.673 180.522C227.877 180.251 227.986 179.988 228.002 179.733L228.619 180.428C228.582 180.647 228.483 180.889 228.322 181.155C228.16 181.42 227.944 181.675 227.673 181.92C227.408 182.16 227.09 182.36 226.72 182.522C226.356 182.678 225.944 182.756 225.486 182.756C224.913 182.756 224.41 182.644 223.978 182.42C223.551 182.196 223.218 181.897 222.978 181.522C222.744 181.142 222.627 180.717 222.627 180.248C222.627 179.795 222.715 179.397 222.892 179.053C223.069 178.704 223.324 178.415 223.658 178.186C223.991 177.952 224.392 177.774 224.861 177.655C225.33 177.535 225.853 177.475 226.431 177.475H228.111ZM231.722 170.6H233.175V180.959L233.05 182.6H231.722V170.6ZM238.886 178.303V178.467C238.886 179.082 238.813 179.652 238.667 180.178C238.521 180.699 238.308 181.152 238.027 181.537C237.745 181.923 237.402 182.222 236.995 182.436C236.589 182.649 236.123 182.756 235.597 182.756C235.06 182.756 234.589 182.665 234.183 182.483C233.782 182.295 233.443 182.027 233.167 181.678C232.891 181.329 232.67 180.907 232.503 180.412C232.342 179.918 232.23 179.36 232.167 178.741V178.022C232.23 177.397 232.342 176.837 232.503 176.342C232.67 175.847 232.891 175.425 233.167 175.077C233.443 174.722 233.782 174.454 234.183 174.272C234.584 174.084 235.05 173.991 235.581 173.991C236.112 173.991 236.584 174.095 236.995 174.303C237.407 174.506 237.751 174.798 238.027 175.178C238.308 175.558 238.521 176.014 238.667 176.545C238.813 177.071 238.886 177.657 238.886 178.303ZM237.433 178.467V178.303C237.433 177.881 237.394 177.485 237.316 177.116C237.237 176.741 237.112 176.412 236.941 176.131C236.769 175.845 236.542 175.621 236.261 175.459C235.98 175.293 235.633 175.209 235.222 175.209C234.857 175.209 234.54 175.272 234.269 175.397C234.003 175.522 233.777 175.691 233.589 175.905C233.402 176.113 233.248 176.353 233.128 176.623C233.014 176.889 232.928 177.165 232.87 177.452V179.334C232.954 179.699 233.089 180.05 233.277 180.389C233.469 180.722 233.724 180.996 234.042 181.209C234.365 181.423 234.764 181.53 235.237 181.53C235.628 181.53 235.961 181.452 236.237 181.295C236.519 181.134 236.745 180.912 236.917 180.631C237.094 180.35 237.224 180.024 237.308 179.655C237.391 179.285 237.433 178.889 237.433 178.467ZM244.372 182.756C243.783 182.756 243.249 182.657 242.77 182.459C242.296 182.256 241.888 181.972 241.544 181.608C241.205 181.243 240.945 180.811 240.763 180.311C240.58 179.811 240.489 179.264 240.489 178.67V178.342C240.489 177.655 240.591 177.043 240.794 176.506C240.997 175.965 241.273 175.506 241.622 175.131C241.971 174.756 242.367 174.472 242.809 174.28C243.252 174.087 243.71 173.991 244.184 173.991C244.789 173.991 245.309 174.095 245.747 174.303C246.19 174.511 246.552 174.803 246.833 175.178C247.114 175.548 247.322 175.985 247.458 176.491C247.593 176.991 247.661 177.537 247.661 178.131V178.78H241.348V177.6H246.216V177.491C246.195 177.116 246.117 176.751 245.981 176.397C245.851 176.043 245.643 175.751 245.356 175.522C245.07 175.293 244.679 175.178 244.184 175.178C243.856 175.178 243.554 175.248 243.278 175.389C243.002 175.524 242.765 175.728 242.567 175.998C242.369 176.269 242.216 176.6 242.106 176.991C241.997 177.381 241.942 177.832 241.942 178.342V178.67C241.942 179.071 241.997 179.449 242.106 179.803C242.221 180.152 242.385 180.459 242.598 180.725C242.817 180.991 243.08 181.199 243.388 181.35C243.7 181.501 244.054 181.577 244.45 181.577C244.96 181.577 245.393 181.472 245.747 181.264C246.101 181.056 246.411 180.777 246.677 180.428L247.552 181.123C247.369 181.399 247.138 181.662 246.856 181.912C246.575 182.162 246.229 182.366 245.817 182.522C245.411 182.678 244.929 182.756 244.372 182.756ZM251.069 170.6V182.6H249.616V170.6H251.069Z" fill="#717171" fill-opacity="0.87"/>
</g>
<defs>
<clipPath id="clip0_1412_16351">
<rect width="83" height="42" fill="white" transform="translate(323 30.6)"/>
</clipPath>
<clipPath id="clip1_1412_16351">
<rect width="83" height="42" fill="white" transform="translate(323 93.6)"/>
</clipPath>
<clipPath id="clip2_1412_16351">
<rect width="83" height="42" fill="white" transform="translate(323 156.6)"/>
</clipPath>
<clipPath id="clip3_1412_16351">
<rect width="82" height="42" fill="white" transform="translate(171 30.6)"/>
</clipPath>
<clipPath id="clip4_1412_16351">
<rect width="82" height="42" fill="white" transform="translate(171 93.6)"/>
</clipPath>
<clipPath id="clip5_1412_16351">
<rect width="82" height="42" fill="white" transform="translate(171 156.6)"/>
</clipPath>
</defs>
</svg>
