<svg width="577" height="228" viewBox="0 0 577 228" fill="none" xmlns="http://www.w3.org/2000/svg">
<path d="M0.5 5.99999C0.5 2.96243 2.96243 0.5 6 0.5H571C574.038 0.5 576.5 2.96243 576.5 6V227.1H0.5V5.99999Z" fill="#D4D4D4"/>
<path d="M0.5 5.99999C0.5 2.96243 2.96243 0.5 6 0.5H571C574.038 0.5 576.5 2.96243 576.5 6V227.1H0.5V5.99999Z" stroke="#E4E4E7"/>
<g filter="url(#filter0_d_1412_16355)">
<rect x="129" y="80" width="320" height="68" fill="white"/>
</g>
<path d="M178.707 105.793L173.707 100.793C173.519 100.605 173.265 100.5 173 100.5C172.735 100.5 172.481 100.605 172.293 100.793L167.293 105.793C167.2 105.885 167.126 105.995 167.076 106.117C167.025 106.238 167 106.369 167 106.5V112.5C167 112.633 167.053 112.76 167.146 112.854C167.24 112.947 167.367 113 167.5 113H171.5C171.633 113 171.76 112.947 171.854 112.854C171.947 112.76 172 112.633 172 112.5V109H174V112.5C174 112.633 174.053 112.76 174.146 112.854C174.24 112.947 174.367 113 174.5 113H178.5C178.633 113 178.76 112.947 178.854 112.854C178.947 112.76 179 112.633 179 112.5V106.5C179 106.369 178.975 106.238 178.924 106.117C178.874 105.995 178.8 105.885 178.707 105.793ZM178 112H175V108.5C175 108.367 174.947 108.24 174.854 108.146C174.76 108.053 174.633 108 174.5 108H171.5C171.367 108 171.24 108.053 171.146 108.146C171.053 108.24 171 108.367 171 108.5V112H168V106.5L173 101.5L178 106.5V112Z" fill="#16A249"/>
<path d="M166.368 120.32V126H165.272V123.576H162.696V126H161.592V120.32H162.696V122.616H165.272V120.32H166.368ZM169.977 126.04C169.561 126.04 169.182 125.96 168.841 125.8C168.505 125.64 168.214 125.424 167.969 125.152C167.729 124.875 167.542 124.565 167.409 124.224C167.276 123.877 167.209 123.523 167.209 123.16C167.209 122.781 167.278 122.421 167.417 122.08C167.561 121.733 167.756 121.427 168.001 121.16C168.252 120.888 168.545 120.675 168.881 120.52C169.222 120.36 169.596 120.28 170.001 120.28C170.412 120.28 170.785 120.363 171.121 120.528C171.462 120.693 171.753 120.915 171.993 121.192C172.233 121.469 172.42 121.779 172.553 122.12C172.686 122.461 172.753 122.813 172.753 123.176C172.753 123.549 172.684 123.909 172.545 124.256C172.406 124.597 172.212 124.904 171.961 125.176C171.716 125.443 171.422 125.653 171.081 125.808C170.745 125.963 170.377 126.04 169.977 126.04ZM168.329 123.16C168.329 123.405 168.366 123.643 168.441 123.872C168.516 124.101 168.622 124.307 168.761 124.488C168.905 124.664 169.078 124.805 169.281 124.912C169.489 125.013 169.724 125.064 169.985 125.064C170.252 125.064 170.489 125.011 170.697 124.904C170.905 124.792 171.078 124.645 171.217 124.464C171.356 124.277 171.46 124.072 171.529 123.848C171.604 123.619 171.641 123.389 171.641 123.16C171.641 122.915 171.601 122.68 171.521 122.456C171.446 122.227 171.337 122.024 171.193 121.848C171.054 121.667 170.881 121.525 170.673 121.424C170.47 121.317 170.241 121.264 169.985 121.264C169.713 121.264 169.473 121.32 169.265 121.432C169.062 121.539 168.892 121.683 168.753 121.864C168.614 122.045 168.508 122.248 168.433 122.472C168.364 122.696 168.329 122.925 168.329 123.16ZM178.232 126V122.272L176.776 125.048H176.16L174.704 122.272V126H173.6V120.32H174.784L176.464 123.552L178.16 120.32H179.336V126H178.232ZM184.466 125.032V126H180.522V120.32H184.394V121.288H181.626V122.656H184.018V123.552H181.626V125.032H184.466Z" fill="#16A249"/>
<path d="M253.125 101.5C251.834 101.5 250.704 102.055 250 102.993C249.296 102.055 248.166 101.5 246.875 101.5C245.848 101.501 244.863 101.91 244.136 102.636C243.41 103.363 243.001 104.348 243 105.375C243 109.75 249.487 113.291 249.763 113.438C249.836 113.477 249.917 113.497 250 113.497C250.083 113.497 250.164 113.477 250.237 113.438C250.513 113.291 257 109.75 257 105.375C256.999 104.348 256.59 103.363 255.864 102.636C255.137 101.91 254.152 101.501 253.125 101.5ZM250 112.425C248.859 111.76 244 108.731 244 105.375C244.001 104.613 244.304 103.882 244.843 103.343C245.382 102.804 246.113 102.501 246.875 102.5C248.091 102.5 249.111 103.148 249.537 104.188C249.575 104.279 249.639 104.358 249.722 104.413C249.804 104.468 249.901 104.498 250 104.498C250.099 104.498 250.196 104.468 250.278 104.413C250.361 104.358 250.425 104.279 250.462 104.188C250.889 103.146 251.909 102.5 253.125 102.5C253.887 102.501 254.618 102.804 255.157 103.343C255.696 103.882 255.999 104.613 256 105.375C256 108.726 251.14 111.759 250 112.425Z" fill="#161616" fill-opacity="0.6"/>
<path d="M228.712 126V120.32H232.44V120.816H229.272V122.904H231.944V123.368H229.272V126H228.712ZM234.691 120.32H235.163L237.523 126H236.931L236.195 124.224H233.643L232.915 126H232.315L234.691 120.32ZM236.067 123.784L234.923 120.976L233.763 123.784H236.067ZM237.844 120.32L239.876 125.304L241.9 120.32H242.484L240.132 126H239.62L237.26 120.32H237.844ZM245.367 126.04C244.967 126.04 244.605 125.96 244.279 125.8C243.954 125.64 243.674 125.424 243.439 125.152C243.205 124.875 243.023 124.565 242.895 124.224C242.767 123.877 242.703 123.523 242.703 123.16C242.703 122.781 242.77 122.421 242.903 122.08C243.037 121.733 243.223 121.427 243.463 121.16C243.709 120.888 243.994 120.675 244.319 120.52C244.645 120.36 244.997 120.28 245.375 120.28C245.775 120.28 246.138 120.363 246.463 120.528C246.789 120.693 247.066 120.915 247.295 121.192C247.53 121.469 247.711 121.779 247.839 122.12C247.967 122.461 248.031 122.811 248.031 123.168C248.031 123.547 247.965 123.909 247.831 124.256C247.698 124.597 247.511 124.904 247.271 125.176C247.031 125.443 246.749 125.653 246.423 125.808C246.098 125.963 245.746 126.04 245.367 126.04ZM243.263 123.16C243.263 123.469 243.314 123.768 243.415 124.056C243.517 124.339 243.661 124.592 243.847 124.816C244.034 125.035 244.255 125.211 244.511 125.344C244.773 125.472 245.058 125.536 245.367 125.536C245.693 125.536 245.983 125.469 246.239 125.336C246.501 125.197 246.722 125.016 246.903 124.792C247.09 124.563 247.231 124.307 247.327 124.024C247.423 123.741 247.471 123.453 247.471 123.16C247.471 122.851 247.421 122.555 247.319 122.272C247.218 121.989 247.071 121.736 246.879 121.512C246.693 121.288 246.471 121.112 246.215 120.984C245.959 120.856 245.677 120.792 245.367 120.792C245.047 120.792 244.757 120.859 244.495 120.992C244.239 121.125 244.018 121.307 243.831 121.536C243.65 121.76 243.509 122.013 243.407 122.296C243.311 122.579 243.263 122.867 243.263 123.16ZM249.087 126V120.32H251.487C251.732 120.32 251.956 120.371 252.159 120.472C252.362 120.573 252.538 120.712 252.687 120.888C252.842 121.059 252.959 121.251 253.039 121.464C253.124 121.672 253.167 121.885 253.167 122.104C253.167 122.376 253.114 122.632 253.007 122.872C252.906 123.112 252.759 123.315 252.567 123.48C252.38 123.645 252.159 123.755 251.903 123.808L253.295 126H252.663L251.327 123.904H249.647V126H249.087ZM249.647 123.408H251.503C251.727 123.408 251.922 123.347 252.087 123.224C252.252 123.101 252.38 122.941 252.471 122.744C252.562 122.541 252.607 122.328 252.607 122.104C252.607 121.875 252.554 121.664 252.447 121.472C252.346 121.275 252.207 121.117 252.031 121C251.86 120.877 251.668 120.816 251.455 120.816H249.647V123.408ZM254.314 126V120.32H254.874V126H254.314ZM260.33 120.816H258.306V126H257.746V120.816H255.722V120.32H260.33V120.816ZM263.273 126.04C262.873 126.04 262.511 125.96 262.185 125.8C261.86 125.64 261.58 125.424 261.345 125.152C261.111 124.875 260.929 124.565 260.801 124.224C260.673 123.877 260.609 123.523 260.609 123.16C260.609 122.781 260.676 122.421 260.809 122.08C260.943 121.733 261.129 121.427 261.369 121.16C261.615 120.888 261.9 120.675 262.225 120.52C262.551 120.36 262.903 120.28 263.281 120.28C263.681 120.28 264.044 120.363 264.369 120.528C264.695 120.693 264.972 120.915 265.201 121.192C265.436 121.469 265.617 121.779 265.745 122.12C265.873 122.461 265.937 122.811 265.937 123.168C265.937 123.547 265.871 123.909 265.737 124.256C265.604 124.597 265.417 124.904 265.177 125.176C264.937 125.443 264.655 125.653 264.329 125.808C264.004 125.963 263.652 126.04 263.273 126.04ZM261.169 123.16C261.169 123.469 261.22 123.768 261.321 124.056C261.423 124.339 261.567 124.592 261.753 124.816C261.94 125.035 262.161 125.211 262.417 125.344C262.679 125.472 262.964 125.536 263.273 125.536C263.599 125.536 263.889 125.469 264.145 125.336C264.407 125.197 264.628 125.016 264.809 124.792C264.996 124.563 265.137 124.307 265.233 124.024C265.329 123.741 265.377 123.453 265.377 123.16C265.377 122.851 265.327 122.555 265.225 122.272C265.124 121.989 264.977 121.736 264.785 121.512C264.599 121.288 264.377 121.112 264.121 120.984C263.865 120.856 263.583 120.792 263.273 120.792C262.953 120.792 262.663 120.859 262.401 120.992C262.145 121.125 261.924 121.307 261.737 121.536C261.556 121.76 261.415 122.013 261.313 122.296C261.217 122.579 261.169 122.867 261.169 123.16ZM270.313 121.384C270.233 121.293 270.14 121.213 270.033 121.144C269.927 121.069 269.807 121.005 269.673 120.952C269.54 120.899 269.396 120.856 269.241 120.824C269.092 120.792 268.932 120.776 268.761 120.776C268.265 120.776 267.9 120.872 267.665 121.064C267.436 121.251 267.321 121.507 267.321 121.832C267.321 122.056 267.375 122.232 267.481 122.36C267.593 122.488 267.767 122.592 268.001 122.672C268.236 122.752 268.535 122.835 268.897 122.92C269.303 123.005 269.652 123.107 269.945 123.224C270.239 123.341 270.465 123.501 270.625 123.704C270.785 123.901 270.865 124.171 270.865 124.512C270.865 124.773 270.815 125 270.713 125.192C270.612 125.384 270.471 125.544 270.289 125.672C270.108 125.8 269.892 125.896 269.641 125.96C269.391 126.019 269.116 126.048 268.817 126.048C268.524 126.048 268.241 126.019 267.969 125.96C267.703 125.896 267.449 125.805 267.209 125.688C266.969 125.565 266.745 125.411 266.537 125.224L266.817 124.768C266.919 124.875 267.039 124.976 267.177 125.072C267.321 125.163 267.479 125.245 267.649 125.32C267.825 125.395 268.012 125.453 268.209 125.496C268.412 125.533 268.62 125.552 268.833 125.552C269.287 125.552 269.639 125.469 269.889 125.304C270.145 125.139 270.273 124.893 270.273 124.568C270.273 124.333 270.209 124.147 270.081 124.008C269.953 123.864 269.761 123.747 269.505 123.656C269.249 123.565 268.935 123.477 268.561 123.392C268.167 123.301 267.833 123.2 267.561 123.088C267.289 122.976 267.084 122.829 266.945 122.648C266.812 122.461 266.745 122.216 266.745 121.912C266.745 121.56 266.831 121.264 267.001 121.024C267.177 120.779 267.417 120.595 267.721 120.472C268.025 120.344 268.375 120.28 268.769 120.28C269.02 120.28 269.252 120.307 269.465 120.36C269.684 120.408 269.884 120.48 270.065 120.576C270.252 120.672 270.425 120.792 270.585 120.936L270.313 121.384Z" fill="#161616" fill-opacity="0.6"/>
<path d="M337.854 112.646L334.725 109.518C335.632 108.429 336.084 107.032 335.987 105.618C335.891 104.204 335.253 102.882 334.206 101.926C333.16 100.971 331.785 100.455 330.368 100.488C328.951 100.52 327.601 101.097 326.599 102.099C325.597 103.101 325.02 104.451 324.988 105.868C324.956 107.285 325.471 108.66 326.426 109.706C327.382 110.753 328.704 111.391 330.118 111.487C331.532 111.584 332.929 111.131 334.018 110.224L337.146 113.354C337.193 113.4 337.248 113.437 337.309 113.462C337.369 113.487 337.434 113.5 337.5 113.5C337.566 113.5 337.631 113.487 337.692 113.462C337.752 113.437 337.807 113.4 337.854 113.354C337.9 113.307 337.937 113.252 337.962 113.191C337.987 113.131 338 113.066 338 113C338 112.934 337.987 112.869 337.962 112.809C337.937 112.748 337.9 112.693 337.854 112.646ZM326 106C326 105.11 326.264 104.24 326.759 103.5C327.253 102.76 327.956 102.183 328.778 101.843C329.6 101.502 330.505 101.413 331.378 101.586C332.251 101.76 333.053 102.189 333.682 102.818C334.311 103.447 334.74 104.249 334.914 105.122C335.087 105.995 334.998 106.9 334.658 107.722C334.317 108.544 333.74 109.247 333 109.742C332.26 110.236 331.39 110.5 330.5 110.5C329.307 110.499 328.163 110.024 327.32 109.181C326.476 108.337 326.001 107.193 326 106Z" fill="#161616" fill-opacity="0.6"/>
<path d="M319.984 124.536C319.984 124.819 319.912 125.072 319.768 125.296C319.624 125.515 319.429 125.688 319.184 125.816C318.944 125.939 318.68 126 318.392 126H315.712V120.32H318.448C318.715 120.32 318.944 120.392 319.136 120.536C319.333 120.675 319.483 120.856 319.584 121.08C319.691 121.299 319.744 121.528 319.744 121.768C319.744 122.051 319.672 122.312 319.528 122.552C319.384 122.792 319.184 122.971 318.928 123.088C319.253 123.184 319.509 123.363 319.696 123.624C319.888 123.885 319.984 124.189 319.984 124.536ZM319.424 124.44C319.424 124.248 319.381 124.072 319.296 123.912C319.211 123.747 319.093 123.613 318.944 123.512C318.8 123.411 318.635 123.36 318.448 123.36H316.272V125.512H318.392C318.584 125.512 318.757 125.461 318.912 125.36C319.067 125.259 319.189 125.128 319.28 124.968C319.376 124.803 319.424 124.627 319.424 124.44ZM316.272 120.808V122.904H318.224C318.411 122.904 318.576 122.856 318.72 122.76C318.864 122.659 318.979 122.528 319.064 122.368C319.149 122.208 319.192 122.037 319.192 121.856C319.192 121.664 319.152 121.491 319.072 121.336C318.992 121.176 318.883 121.048 318.744 120.952C318.605 120.856 318.448 120.808 318.272 120.808H316.272ZM323.352 126.04C322.904 126.04 322.525 125.96 322.216 125.8C321.907 125.64 321.661 125.427 321.48 125.16C321.299 124.888 321.165 124.581 321.08 124.24C321 123.899 320.96 123.547 320.96 123.184V120.32H321.512V123.184C321.512 123.477 321.541 123.765 321.6 124.048C321.664 124.331 321.765 124.584 321.904 124.808C322.043 125.032 322.229 125.211 322.464 125.344C322.699 125.472 322.992 125.536 323.344 125.536C323.707 125.536 324.005 125.469 324.24 125.336C324.48 125.197 324.667 125.016 324.8 124.792C324.939 124.568 325.037 124.317 325.096 124.04C325.155 123.757 325.184 123.472 325.184 123.184V120.32H325.744V123.184C325.744 123.563 325.701 123.925 325.616 124.272C325.531 124.619 325.392 124.923 325.2 125.184C325.013 125.445 324.768 125.653 324.464 125.808C324.16 125.963 323.789 126.04 323.352 126.04ZM330.399 121.384C330.319 121.293 330.226 121.213 330.119 121.144C330.013 121.069 329.893 121.005 329.759 120.952C329.626 120.899 329.482 120.856 329.327 120.824C329.178 120.792 329.018 120.776 328.847 120.776C328.351 120.776 327.986 120.872 327.751 121.064C327.522 121.251 327.407 121.507 327.407 121.832C327.407 122.056 327.461 122.232 327.567 122.36C327.679 122.488 327.853 122.592 328.087 122.672C328.322 122.752 328.621 122.835 328.983 122.92C329.389 123.005 329.738 123.107 330.031 123.224C330.325 123.341 330.551 123.501 330.711 123.704C330.871 123.901 330.951 124.171 330.951 124.512C330.951 124.773 330.901 125 330.799 125.192C330.698 125.384 330.557 125.544 330.375 125.672C330.194 125.8 329.978 125.896 329.727 125.96C329.477 126.019 329.202 126.048 328.903 126.048C328.61 126.048 328.327 126.019 328.055 125.96C327.789 125.896 327.535 125.805 327.295 125.688C327.055 125.565 326.831 125.411 326.623 125.224L326.903 124.768C327.005 124.875 327.125 124.976 327.263 125.072C327.407 125.163 327.565 125.245 327.735 125.32C327.911 125.395 328.098 125.453 328.295 125.496C328.498 125.533 328.706 125.552 328.919 125.552C329.373 125.552 329.725 125.469 329.975 125.304C330.231 125.139 330.359 124.893 330.359 124.568C330.359 124.333 330.295 124.147 330.167 124.008C330.039 123.864 329.847 123.747 329.591 123.656C329.335 123.565 329.021 123.477 328.647 123.392C328.253 123.301 327.919 123.2 327.647 123.088C327.375 122.976 327.17 122.829 327.031 122.648C326.898 122.461 326.831 122.216 326.831 121.912C326.831 121.56 326.917 121.264 327.087 121.024C327.263 120.779 327.503 120.595 327.807 120.472C328.111 120.344 328.461 120.28 328.855 120.28C329.106 120.28 329.338 120.307 329.551 120.36C329.77 120.408 329.97 120.48 330.151 120.576C330.338 120.672 330.511 120.792 330.671 120.936L330.399 121.384ZM331.563 123.12C331.563 122.773 331.621 122.435 331.739 122.104C331.861 121.768 332.037 121.464 332.267 121.192C332.496 120.915 332.779 120.696 333.115 120.536C333.451 120.371 333.832 120.288 334.259 120.288C334.765 120.288 335.197 120.405 335.555 120.64C335.917 120.869 336.184 121.165 336.355 121.528L335.915 121.8C335.792 121.549 335.637 121.352 335.451 121.208C335.264 121.059 335.064 120.952 334.851 120.888C334.643 120.824 334.435 120.792 334.227 120.792C333.885 120.792 333.584 120.861 333.323 121C333.061 121.133 332.84 121.315 332.659 121.544C332.483 121.768 332.349 122.021 332.259 122.304C332.168 122.581 332.123 122.864 332.123 123.152C332.123 123.467 332.176 123.768 332.283 124.056C332.389 124.344 332.539 124.6 332.731 124.824C332.923 125.043 333.147 125.219 333.403 125.352C333.664 125.48 333.947 125.544 334.251 125.544C334.464 125.544 334.683 125.507 334.907 125.432C335.131 125.357 335.339 125.243 335.531 125.088C335.728 124.933 335.885 124.733 336.003 124.488L336.467 124.728C336.349 125.011 336.168 125.251 335.923 125.448C335.677 125.645 335.403 125.795 335.099 125.896C334.8 125.997 334.507 126.048 334.219 126.048C333.829 126.048 333.472 125.965 333.147 125.8C332.821 125.629 332.539 125.405 332.299 125.128C332.064 124.845 331.883 124.531 331.755 124.184C331.627 123.832 331.563 123.477 331.563 123.12ZM339.105 120.32H339.577L341.937 126H341.345L340.609 124.224H338.057L337.329 126H336.729L339.105 120.32ZM340.481 123.784L339.337 120.976L338.177 123.784H340.481ZM342.751 126V120.32H345.151C345.396 120.32 345.62 120.371 345.823 120.472C346.026 120.573 346.202 120.712 346.351 120.888C346.506 121.059 346.623 121.251 346.703 121.464C346.788 121.672 346.831 121.885 346.831 122.104C346.831 122.376 346.778 122.632 346.671 122.872C346.57 123.112 346.423 123.315 346.231 123.48C346.044 123.645 345.823 123.755 345.567 123.808L346.959 126H346.327L344.991 123.904H343.311V126H342.751ZM343.311 123.408H345.167C345.391 123.408 345.586 123.347 345.751 123.224C345.916 123.101 346.044 122.941 346.135 122.744C346.226 122.541 346.271 122.328 346.271 122.104C346.271 121.875 346.218 121.664 346.111 121.472C346.01 121.275 345.871 121.117 345.695 121C345.524 120.877 345.332 120.816 345.119 120.816H343.311V123.408Z" fill="#161616" fill-opacity="0.6"/>
<path d="M410.932 112.25C409.981 110.604 408.514 109.424 406.802 108.865C407.649 108.361 408.306 107.593 408.674 106.679C409.042 105.764 409.1 104.755 408.839 103.805C408.577 102.854 408.011 102.016 407.227 101.419C406.444 100.822 405.485 100.498 404.5 100.498C403.514 100.498 402.556 100.822 401.772 101.419C400.989 102.016 400.423 102.854 400.161 103.805C399.9 104.755 399.957 105.764 400.325 106.679C400.693 107.593 401.351 108.361 402.198 108.865C400.486 109.424 399.019 110.604 398.067 112.25C398.033 112.307 398.009 112.37 397.999 112.436C397.989 112.502 397.993 112.57 398.009 112.634C398.025 112.699 398.055 112.76 398.095 112.813C398.135 112.866 398.186 112.911 398.244 112.944C398.301 112.978 398.365 112.999 398.432 113.008C398.498 113.016 398.565 113.011 398.629 112.993C398.694 112.975 398.754 112.944 398.806 112.902C398.858 112.86 398.901 112.809 398.933 112.75C400.111 110.715 402.192 109.5 404.5 109.5C406.808 109.5 408.889 110.715 410.067 112.75C410.099 112.809 410.142 112.86 410.194 112.902C410.246 112.944 410.306 112.975 410.371 112.993C410.435 113.011 410.502 113.016 410.568 113.008C410.635 112.999 410.698 112.978 410.756 112.944C410.814 112.911 410.865 112.866 410.905 112.813C410.945 112.76 410.974 112.699 410.991 112.634C411.007 112.57 411.011 112.502 411.001 112.436C410.99 112.37 410.967 112.307 410.932 112.25ZM401 105C401 104.308 401.205 103.631 401.59 103.055C401.974 102.48 402.521 102.031 403.161 101.766C403.8 101.502 404.504 101.432 405.183 101.567C405.862 101.702 406.485 102.036 406.975 102.525C407.464 103.015 407.798 103.638 407.933 104.317C408.068 104.996 407.998 105.7 407.734 106.339C407.469 106.979 407.02 107.526 406.444 107.91C405.869 108.295 405.192 108.5 404.5 108.5C403.572 108.499 402.682 108.13 402.026 107.474C401.37 106.818 401.001 105.928 401 105Z" fill="#161616" fill-opacity="0.6"/>
<path d="M391.712 126V120.32H394.064C394.309 120.32 394.533 120.371 394.736 120.472C394.944 120.573 395.123 120.712 395.272 120.888C395.421 121.059 395.539 121.251 395.624 121.464C395.709 121.672 395.752 121.885 395.752 122.104C395.752 122.413 395.683 122.707 395.544 122.984C395.411 123.256 395.221 123.477 394.976 123.648C394.731 123.819 394.443 123.904 394.112 123.904H392.272V126H391.712ZM392.272 123.408H394.088C394.312 123.408 394.507 123.347 394.672 123.224C394.837 123.101 394.965 122.941 395.056 122.744C395.147 122.547 395.192 122.333 395.192 122.104C395.192 121.869 395.139 121.653 395.032 121.456C394.925 121.259 394.784 121.104 394.608 120.992C394.437 120.875 394.248 120.816 394.04 120.816H392.272V123.408ZM400.505 125.504V126H396.689V120.32H400.433V120.816H397.249V122.864H400.025V123.336H397.249V125.504H400.505ZM401.564 126V120.32H403.964C404.209 120.32 404.433 120.371 404.636 120.472C404.838 120.573 405.014 120.712 405.164 120.888C405.318 121.059 405.436 121.251 405.516 121.464C405.601 121.672 405.644 121.885 405.644 122.104C405.644 122.376 405.59 122.632 405.484 122.872C405.382 123.112 405.236 123.315 405.044 123.48C404.857 123.645 404.636 123.755 404.38 123.808L405.772 126H405.14L403.804 123.904H402.124V126H401.564ZM402.124 123.408H403.98C404.204 123.408 404.398 123.347 404.564 123.224C404.729 123.101 404.857 122.941 404.948 122.744C405.038 122.541 405.084 122.328 405.084 122.104C405.084 121.875 405.03 121.664 404.924 121.472C404.822 121.275 404.684 121.117 404.508 121C404.337 120.877 404.145 120.816 403.932 120.816H402.124V123.408ZM406.79 126V120.32H410.518V120.816H407.35V122.904H410.022V123.368H407.35V126H406.79ZM411.501 126V120.32H412.061V126H411.501ZM413.485 126V120.32H414.045V125.504H417.325V126H413.485Z" fill="#161616" fill-opacity="0.6"/>
<defs>
<filter id="filter0_d_1412_16355" x="113" y="63" width="352" height="100" filterUnits="userSpaceOnUse" color-interpolation-filters="sRGB">
<feFlood flood-opacity="0" result="BackgroundImageFix"/>
<feColorMatrix in="SourceAlpha" type="matrix" values="0 0 0 0 0 0 0 0 0 0 0 0 0 0 0 0 0 0 127 0" result="hardAlpha"/>
<feMorphology radius="4" operator="erode" in="SourceAlpha" result="effect1_dropShadow_1412_16355"/>
<feOffset dy="-1"/>
<feGaussianBlur stdDeviation="10"/>
<feComposite in2="hardAlpha" operator="out"/>
<feColorMatrix type="matrix" values="0 0 0 0 0 0 0 0 0 0 0 0 0 0 0 0 0 0 0.25 0"/>
<feBlend mode="normal" in2="BackgroundImageFix" result="effect1_dropShadow_1412_16355"/>
<feBlend mode="normal" in="SourceGraphic" in2="effect1_dropShadow_1412_16355" result="shape"/>
</filter>
</defs>
</svg>
