<svg width="577" height="228" viewBox="0 0 577 228" fill="none" xmlns="http://www.w3.org/2000/svg">
<path d="M0 5.99999C0 2.68628 2.68629 0 6 0H571C574.314 0 577 2.68629 577 6V227.6H0V5.99999Z" fill="white"/>
<rect x="323" y="30" width="42" height="42" rx="21" fill="#16A249" fill-opacity="0.3"/>
<path d="M344 41C338.48 41 334 45.48 334 51C334 56.52 338.48 61 344 61C349.52 61 354 56.52 354 51C354 45.48 349.52 41 344 41ZM344 59C339.58 59 336 55.42 336 51C336 46.58 339.58 43 344 43C348.42 43 352 46.58 352 51C352 55.42 348.42 59 344 59Z" fill="black" fill-opacity="0.6"/>
<path d="M373.219 54.7734V56H367.531V54.7734H373.219ZM367.828 44.625V56H366.32V44.625H367.828ZM379.861 54.5547V50.2031C379.861 49.8698 379.793 49.5807 379.658 49.3359C379.528 49.0859 379.33 48.8932 379.064 48.7578C378.798 48.6224 378.47 48.5547 378.08 48.5547C377.715 48.5547 377.395 48.6172 377.119 48.7422C376.848 48.8672 376.634 49.0312 376.478 49.2344C376.327 49.4375 376.252 49.6562 376.252 49.8906H374.806C374.806 49.5885 374.884 49.2891 375.041 48.9922C375.197 48.6953 375.421 48.4271 375.712 48.1875C376.009 47.9427 376.364 47.75 376.775 47.6094C377.192 47.4635 377.655 47.3906 378.166 47.3906C378.78 47.3906 379.322 47.4948 379.791 47.7031C380.265 47.9115 380.634 48.2266 380.9 48.6484C381.171 49.0651 381.306 49.5885 381.306 50.2188V54.1562C381.306 54.4375 381.33 54.737 381.377 55.0547C381.429 55.3724 381.504 55.6458 381.603 55.875V56H380.095C380.022 55.8333 379.965 55.612 379.923 55.3359C379.882 55.0547 379.861 54.7943 379.861 54.5547ZM380.111 50.875L380.127 51.8906H378.666C378.254 51.8906 377.887 51.9245 377.564 51.9922C377.241 52.0547 376.97 52.151 376.752 52.2812C376.533 52.4115 376.366 52.5755 376.252 52.7734C376.137 52.9661 376.08 53.1927 376.08 53.4531C376.08 53.7188 376.14 53.9609 376.259 54.1797C376.379 54.3984 376.559 54.5729 376.798 54.7031C377.043 54.8281 377.343 54.8906 377.697 54.8906C378.14 54.8906 378.53 54.7969 378.869 54.6094C379.207 54.4219 379.476 54.1927 379.673 53.9219C379.877 53.651 379.986 53.388 380.002 53.1328L380.619 53.8281C380.582 54.0469 380.483 54.2891 380.322 54.5547C380.16 54.8203 379.944 55.0755 379.673 55.3203C379.408 55.5599 379.09 55.7604 378.72 55.9219C378.356 56.0781 377.944 56.1562 377.486 56.1562C376.913 56.1562 376.41 56.0443 375.978 55.8203C375.551 55.5964 375.218 55.2969 374.978 54.9219C374.744 54.5417 374.627 54.1172 374.627 53.6484C374.627 53.1953 374.715 52.7969 374.892 52.4531C375.069 52.1042 375.324 51.8151 375.658 51.5859C375.991 51.3516 376.392 51.1745 376.861 51.0547C377.33 50.9349 377.853 50.875 378.431 50.875H380.111ZM383.722 44H385.175V54.3594L385.05 56H383.722V44ZM390.886 51.7031V51.8672C390.886 52.4818 390.813 53.0521 390.667 53.5781C390.521 54.099 390.308 54.5521 390.027 54.9375C389.745 55.3229 389.402 55.6224 388.995 55.8359C388.589 56.0495 388.123 56.1562 387.597 56.1562C387.06 56.1562 386.589 56.0651 386.183 55.8828C385.782 55.6953 385.443 55.4271 385.167 55.0781C384.891 54.7292 384.67 54.3073 384.503 53.8125C384.342 53.3177 384.23 52.7604 384.167 52.1406V51.4219C384.23 50.7969 384.342 50.237 384.503 49.7422C384.67 49.2474 384.891 48.8255 385.167 48.4766C385.443 48.1224 385.782 47.8542 386.183 47.6719C386.584 47.4844 387.05 47.3906 387.581 47.3906C388.112 47.3906 388.584 47.4948 388.995 47.7031C389.407 47.9062 389.751 48.1979 390.027 48.5781C390.308 48.9583 390.521 49.4141 390.667 49.9453C390.813 50.4714 390.886 51.0573 390.886 51.7031ZM389.433 51.8672V51.7031C389.433 51.2812 389.394 50.8854 389.316 50.5156C389.237 50.1406 389.112 49.8125 388.941 49.5312C388.769 49.2448 388.542 49.0208 388.261 48.8594C387.98 48.6927 387.633 48.6094 387.222 48.6094C386.857 48.6094 386.54 48.6719 386.269 48.7969C386.003 48.9219 385.777 49.0911 385.589 49.3047C385.402 49.513 385.248 49.7526 385.128 50.0234C385.014 50.2891 384.928 50.5651 384.87 50.8516V52.7344C384.954 53.099 385.089 53.4505 385.277 53.7891C385.469 54.1224 385.724 54.3958 386.042 54.6094C386.365 54.8229 386.764 54.9297 387.237 54.9297C387.628 54.9297 387.961 54.8516 388.237 54.6953C388.519 54.5339 388.745 54.3125 388.917 54.0312C389.094 53.75 389.224 53.4245 389.308 53.0547C389.391 52.6849 389.433 52.2891 389.433 51.8672ZM396.372 56.1562C395.783 56.1562 395.249 56.0573 394.77 55.8594C394.296 55.6562 393.888 55.3724 393.544 55.0078C393.205 54.6432 392.945 54.2109 392.763 53.7109C392.58 53.2109 392.489 52.6641 392.489 52.0703V51.7422C392.489 51.0547 392.591 50.4427 392.794 49.9062C392.997 49.3646 393.273 48.9062 393.622 48.5312C393.971 48.1562 394.367 47.8724 394.809 47.6797C395.252 47.487 395.71 47.3906 396.184 47.3906C396.789 47.3906 397.309 47.4948 397.747 47.7031C398.19 47.9115 398.552 48.2031 398.833 48.5781C399.114 48.9479 399.322 49.3854 399.458 49.8906C399.593 50.3906 399.661 50.9375 399.661 51.5312V52.1797H393.348V51H398.216V50.8906C398.195 50.5156 398.117 50.151 397.981 49.7969C397.851 49.4427 397.643 49.151 397.356 48.9219C397.07 48.6927 396.679 48.5781 396.184 48.5781C395.856 48.5781 395.554 48.6484 395.278 48.7891C395.002 48.9245 394.765 49.1276 394.567 49.3984C394.369 49.6693 394.216 50 394.106 50.3906C393.997 50.7812 393.942 51.2318 393.942 51.7422V52.0703C393.942 52.4714 393.997 52.849 394.106 53.2031C394.221 53.5521 394.385 53.8594 394.598 54.125C394.817 54.3906 395.08 54.599 395.388 54.75C395.7 54.901 396.054 54.9766 396.45 54.9766C396.96 54.9766 397.393 54.8724 397.747 54.6641C398.101 54.4557 398.411 54.1771 398.677 53.8281L399.552 54.5234C399.369 54.7995 399.138 55.0625 398.856 55.3125C398.575 55.5625 398.229 55.7656 397.817 55.9219C397.411 56.0781 396.929 56.1562 396.372 56.1562ZM403.069 44V56H401.616V44H403.069Z" fill="black" fill-opacity="0.87"/>
<rect x="323" y="93" width="42" height="42" rx="21" fill="#16A249" fill-opacity="0.3"/>
<path d="M344 109C341.24 109 339 111.24 339 114C339 116.76 341.24 119 344 119C346.76 119 349 116.76 349 114C349 111.24 346.76 109 344 109ZM344 104C338.48 104 334 108.48 334 114C334 119.52 338.48 124 344 124C349.52 124 354 119.52 354 114C354 108.48 349.52 104 344 104ZM344 122C339.58 122 336 118.42 336 114C336 109.58 339.58 106 344 106C348.42 106 352 109.58 352 114C352 118.42 348.42 122 344 122Z" fill="#16A249"/>
<path d="M373.219 117.773V119H367.531V117.773H373.219ZM367.828 107.625V119H366.32V107.625H367.828ZM379.861 117.555V113.203C379.861 112.87 379.793 112.581 379.658 112.336C379.528 112.086 379.33 111.893 379.064 111.758C378.798 111.622 378.47 111.555 378.08 111.555C377.715 111.555 377.395 111.617 377.119 111.742C376.848 111.867 376.634 112.031 376.478 112.234C376.327 112.438 376.252 112.656 376.252 112.891H374.806C374.806 112.589 374.884 112.289 375.041 111.992C375.197 111.695 375.421 111.427 375.712 111.188C376.009 110.943 376.364 110.75 376.775 110.609C377.192 110.464 377.655 110.391 378.166 110.391C378.78 110.391 379.322 110.495 379.791 110.703C380.265 110.911 380.634 111.227 380.9 111.648C381.171 112.065 381.306 112.589 381.306 113.219V117.156C381.306 117.438 381.33 117.737 381.377 118.055C381.429 118.372 381.504 118.646 381.603 118.875V119H380.095C380.022 118.833 379.965 118.612 379.923 118.336C379.882 118.055 379.861 117.794 379.861 117.555ZM380.111 113.875L380.127 114.891H378.666C378.254 114.891 377.887 114.924 377.564 114.992C377.241 115.055 376.97 115.151 376.752 115.281C376.533 115.411 376.366 115.576 376.252 115.773C376.137 115.966 376.08 116.193 376.08 116.453C376.08 116.719 376.14 116.961 376.259 117.18C376.379 117.398 376.559 117.573 376.798 117.703C377.043 117.828 377.343 117.891 377.697 117.891C378.14 117.891 378.53 117.797 378.869 117.609C379.207 117.422 379.476 117.193 379.673 116.922C379.877 116.651 379.986 116.388 380.002 116.133L380.619 116.828C380.582 117.047 380.483 117.289 380.322 117.555C380.16 117.82 379.944 118.076 379.673 118.32C379.408 118.56 379.09 118.76 378.72 118.922C378.356 119.078 377.944 119.156 377.486 119.156C376.913 119.156 376.41 119.044 375.978 118.82C375.551 118.596 375.218 118.297 374.978 117.922C374.744 117.542 374.627 117.117 374.627 116.648C374.627 116.195 374.715 115.797 374.892 115.453C375.069 115.104 375.324 114.815 375.658 114.586C375.991 114.352 376.392 114.174 376.861 114.055C377.33 113.935 377.853 113.875 378.431 113.875H380.111ZM383.722 107H385.175V117.359L385.05 119H383.722V107ZM390.886 114.703V114.867C390.886 115.482 390.813 116.052 390.667 116.578C390.521 117.099 390.308 117.552 390.027 117.938C389.745 118.323 389.402 118.622 388.995 118.836C388.589 119.049 388.123 119.156 387.597 119.156C387.06 119.156 386.589 119.065 386.183 118.883C385.782 118.695 385.443 118.427 385.167 118.078C384.891 117.729 384.67 117.307 384.503 116.812C384.342 116.318 384.23 115.76 384.167 115.141V114.422C384.23 113.797 384.342 113.237 384.503 112.742C384.67 112.247 384.891 111.826 385.167 111.477C385.443 111.122 385.782 110.854 386.183 110.672C386.584 110.484 387.05 110.391 387.581 110.391C388.112 110.391 388.584 110.495 388.995 110.703C389.407 110.906 389.751 111.198 390.027 111.578C390.308 111.958 390.521 112.414 390.667 112.945C390.813 113.471 390.886 114.057 390.886 114.703ZM389.433 114.867V114.703C389.433 114.281 389.394 113.885 389.316 113.516C389.237 113.141 389.112 112.812 388.941 112.531C388.769 112.245 388.542 112.021 388.261 111.859C387.98 111.693 387.633 111.609 387.222 111.609C386.857 111.609 386.54 111.672 386.269 111.797C386.003 111.922 385.777 112.091 385.589 112.305C385.402 112.513 385.248 112.753 385.128 113.023C385.014 113.289 384.928 113.565 384.87 113.852V115.734C384.954 116.099 385.089 116.451 385.277 116.789C385.469 117.122 385.724 117.396 386.042 117.609C386.365 117.823 386.764 117.93 387.237 117.93C387.628 117.93 387.961 117.852 388.237 117.695C388.519 117.534 388.745 117.312 388.917 117.031C389.094 116.75 389.224 116.424 389.308 116.055C389.391 115.685 389.433 115.289 389.433 114.867ZM396.372 119.156C395.783 119.156 395.249 119.057 394.77 118.859C394.296 118.656 393.888 118.372 393.544 118.008C393.205 117.643 392.945 117.211 392.763 116.711C392.58 116.211 392.489 115.664 392.489 115.07V114.742C392.489 114.055 392.591 113.443 392.794 112.906C392.997 112.365 393.273 111.906 393.622 111.531C393.971 111.156 394.367 110.872 394.809 110.68C395.252 110.487 395.71 110.391 396.184 110.391C396.789 110.391 397.309 110.495 397.747 110.703C398.19 110.911 398.552 111.203 398.833 111.578C399.114 111.948 399.322 112.385 399.458 112.891C399.593 113.391 399.661 113.938 399.661 114.531V115.18H393.348V114H398.216V113.891C398.195 113.516 398.117 113.151 397.981 112.797C397.851 112.443 397.643 112.151 397.356 111.922C397.07 111.693 396.679 111.578 396.184 111.578C395.856 111.578 395.554 111.648 395.278 111.789C395.002 111.924 394.765 112.128 394.567 112.398C394.369 112.669 394.216 113 394.106 113.391C393.997 113.781 393.942 114.232 393.942 114.742V115.07C393.942 115.471 393.997 115.849 394.106 116.203C394.221 116.552 394.385 116.859 394.598 117.125C394.817 117.391 395.08 117.599 395.388 117.75C395.7 117.901 396.054 117.977 396.45 117.977C396.96 117.977 397.393 117.872 397.747 117.664C398.101 117.456 398.411 117.177 398.677 116.828L399.552 117.523C399.369 117.799 399.138 118.062 398.856 118.312C398.575 118.562 398.229 118.766 397.817 118.922C397.411 119.078 396.929 119.156 396.372 119.156ZM403.069 107V119H401.616V107H403.069Z" fill="black" fill-opacity="0.87"/>
<path d="M344 172C341.24 172 339 174.24 339 177C339 179.76 341.24 182 344 182C346.76 182 349 179.76 349 177C349 174.24 346.76 172 344 172ZM344 167C338.48 167 334 171.48 334 177C334 182.52 338.48 187 344 187C349.52 187 354 182.52 354 177C354 171.48 349.52 167 344 167ZM344 185C339.58 185 336 181.42 336 177C336 172.58 339.58 169 344 169C348.42 169 352 172.58 352 177C352 181.42 348.42 185 344 185Z" fill="black" fill-opacity="0.6"/>
<path d="M373.219 180.773V182H367.531V180.773H373.219ZM367.828 170.625V182H366.32V170.625H367.828ZM379.861 180.555V176.203C379.861 175.87 379.793 175.581 379.658 175.336C379.528 175.086 379.33 174.893 379.064 174.758C378.798 174.622 378.47 174.555 378.08 174.555C377.715 174.555 377.395 174.617 377.119 174.742C376.848 174.867 376.634 175.031 376.478 175.234C376.327 175.438 376.252 175.656 376.252 175.891H374.806C374.806 175.589 374.884 175.289 375.041 174.992C375.197 174.695 375.421 174.427 375.712 174.188C376.009 173.943 376.364 173.75 376.775 173.609C377.192 173.464 377.655 173.391 378.166 173.391C378.78 173.391 379.322 173.495 379.791 173.703C380.265 173.911 380.634 174.227 380.9 174.648C381.171 175.065 381.306 175.589 381.306 176.219V180.156C381.306 180.438 381.33 180.737 381.377 181.055C381.429 181.372 381.504 181.646 381.603 181.875V182H380.095C380.022 181.833 379.965 181.612 379.923 181.336C379.882 181.055 379.861 180.794 379.861 180.555ZM380.111 176.875L380.127 177.891H378.666C378.254 177.891 377.887 177.924 377.564 177.992C377.241 178.055 376.97 178.151 376.752 178.281C376.533 178.411 376.366 178.576 376.252 178.773C376.137 178.966 376.08 179.193 376.08 179.453C376.08 179.719 376.14 179.961 376.259 180.18C376.379 180.398 376.559 180.573 376.798 180.703C377.043 180.828 377.343 180.891 377.697 180.891C378.14 180.891 378.53 180.797 378.869 180.609C379.207 180.422 379.476 180.193 379.673 179.922C379.877 179.651 379.986 179.388 380.002 179.133L380.619 179.828C380.582 180.047 380.483 180.289 380.322 180.555C380.16 180.82 379.944 181.076 379.673 181.32C379.408 181.56 379.09 181.76 378.72 181.922C378.356 182.078 377.944 182.156 377.486 182.156C376.913 182.156 376.41 182.044 375.978 181.82C375.551 181.596 375.218 181.297 374.978 180.922C374.744 180.542 374.627 180.117 374.627 179.648C374.627 179.195 374.715 178.797 374.892 178.453C375.069 178.104 375.324 177.815 375.658 177.586C375.991 177.352 376.392 177.174 376.861 177.055C377.33 176.935 377.853 176.875 378.431 176.875H380.111ZM383.722 170H385.175V180.359L385.05 182H383.722V170ZM390.886 177.703V177.867C390.886 178.482 390.813 179.052 390.667 179.578C390.521 180.099 390.308 180.552 390.027 180.938C389.745 181.323 389.402 181.622 388.995 181.836C388.589 182.049 388.123 182.156 387.597 182.156C387.06 182.156 386.589 182.065 386.183 181.883C385.782 181.695 385.443 181.427 385.167 181.078C384.891 180.729 384.67 180.307 384.503 179.812C384.342 179.318 384.23 178.76 384.167 178.141V177.422C384.23 176.797 384.342 176.237 384.503 175.742C384.67 175.247 384.891 174.826 385.167 174.477C385.443 174.122 385.782 173.854 386.183 173.672C386.584 173.484 387.05 173.391 387.581 173.391C388.112 173.391 388.584 173.495 388.995 173.703C389.407 173.906 389.751 174.198 390.027 174.578C390.308 174.958 390.521 175.414 390.667 175.945C390.813 176.471 390.886 177.057 390.886 177.703ZM389.433 177.867V177.703C389.433 177.281 389.394 176.885 389.316 176.516C389.237 176.141 389.112 175.812 388.941 175.531C388.769 175.245 388.542 175.021 388.261 174.859C387.98 174.693 387.633 174.609 387.222 174.609C386.857 174.609 386.54 174.672 386.269 174.797C386.003 174.922 385.777 175.091 385.589 175.305C385.402 175.513 385.248 175.753 385.128 176.023C385.014 176.289 384.928 176.565 384.87 176.852V178.734C384.954 179.099 385.089 179.451 385.277 179.789C385.469 180.122 385.724 180.396 386.042 180.609C386.365 180.823 386.764 180.93 387.237 180.93C387.628 180.93 387.961 180.852 388.237 180.695C388.519 180.534 388.745 180.312 388.917 180.031C389.094 179.75 389.224 179.424 389.308 179.055C389.391 178.685 389.433 178.289 389.433 177.867ZM396.372 182.156C395.783 182.156 395.249 182.057 394.77 181.859C394.296 181.656 393.888 181.372 393.544 181.008C393.205 180.643 392.945 180.211 392.763 179.711C392.58 179.211 392.489 178.664 392.489 178.07V177.742C392.489 177.055 392.591 176.443 392.794 175.906C392.997 175.365 393.273 174.906 393.622 174.531C393.971 174.156 394.367 173.872 394.809 173.68C395.252 173.487 395.71 173.391 396.184 173.391C396.789 173.391 397.309 173.495 397.747 173.703C398.19 173.911 398.552 174.203 398.833 174.578C399.114 174.948 399.322 175.385 399.458 175.891C399.593 176.391 399.661 176.938 399.661 177.531V178.18H393.348V177H398.216V176.891C398.195 176.516 398.117 176.151 397.981 175.797C397.851 175.443 397.643 175.151 397.356 174.922C397.07 174.693 396.679 174.578 396.184 174.578C395.856 174.578 395.554 174.648 395.278 174.789C395.002 174.924 394.765 175.128 394.567 175.398C394.369 175.669 394.216 176 394.106 176.391C393.997 176.781 393.942 177.232 393.942 177.742V178.07C393.942 178.471 393.997 178.849 394.106 179.203C394.221 179.552 394.385 179.859 394.598 180.125C394.817 180.391 395.08 180.599 395.388 180.75C395.7 180.901 396.054 180.977 396.45 180.977C396.96 180.977 397.393 180.872 397.747 180.664C398.101 180.456 398.411 180.177 398.677 179.828L399.552 180.523C399.369 180.799 399.138 181.062 398.856 181.312C398.575 181.562 398.229 181.766 397.817 181.922C397.411 182.078 396.929 182.156 396.372 182.156ZM403.069 170V182H401.616V170H403.069Z" fill="black" fill-opacity="0.87"/>
<g clip-path="url(#clip0_1412_16352)">
<path d="M192 41C186.48 41 182 45.48 182 51C182 56.52 186.48 61 192 61C197.52 61 202 56.52 202 51C202 45.48 197.52 41 192 41ZM192 59C187.58 59 184 55.42 184 51C184 46.58 187.58 43 192 43C196.42 43 200 46.58 200 51C200 55.42 196.42 59 192 59Z" fill="black" fill-opacity="0.6"/>
<path d="M221.219 54.7734V56H215.531V54.7734H221.219ZM215.828 44.625V56H214.32V44.625H215.828ZM227.861 54.5547V50.2031C227.861 49.8698 227.793 49.5807 227.658 49.3359C227.528 49.0859 227.33 48.8932 227.064 48.7578C226.798 48.6224 226.47 48.5547 226.08 48.5547C225.715 48.5547 225.395 48.6172 225.119 48.7422C224.848 48.8672 224.634 49.0312 224.478 49.2344C224.327 49.4375 224.252 49.6562 224.252 49.8906H222.806C222.806 49.5885 222.884 49.2891 223.041 48.9922C223.197 48.6953 223.421 48.4271 223.712 48.1875C224.009 47.9427 224.364 47.75 224.775 47.6094C225.192 47.4635 225.655 47.3906 226.166 47.3906C226.78 47.3906 227.322 47.4948 227.791 47.7031C228.265 47.9115 228.634 48.2266 228.9 48.6484C229.171 49.0651 229.306 49.5885 229.306 50.2188V54.1562C229.306 54.4375 229.33 54.737 229.377 55.0547C229.429 55.3724 229.504 55.6458 229.603 55.875V56H228.095C228.022 55.8333 227.965 55.612 227.923 55.3359C227.882 55.0547 227.861 54.7943 227.861 54.5547ZM228.111 50.875L228.127 51.8906H226.666C226.254 51.8906 225.887 51.9245 225.564 51.9922C225.241 52.0547 224.97 52.151 224.752 52.2812C224.533 52.4115 224.366 52.5755 224.252 52.7734C224.137 52.9661 224.08 53.1927 224.08 53.4531C224.08 53.7188 224.14 53.9609 224.259 54.1797C224.379 54.3984 224.559 54.5729 224.798 54.7031C225.043 54.8281 225.343 54.8906 225.697 54.8906C226.14 54.8906 226.53 54.7969 226.869 54.6094C227.207 54.4219 227.476 54.1927 227.673 53.9219C227.877 53.651 227.986 53.388 228.002 53.1328L228.619 53.8281C228.582 54.0469 228.483 54.2891 228.322 54.5547C228.16 54.8203 227.944 55.0755 227.673 55.3203C227.408 55.5599 227.09 55.7604 226.72 55.9219C226.356 56.0781 225.944 56.1562 225.486 56.1562C224.913 56.1562 224.41 56.0443 223.978 55.8203C223.551 55.5964 223.218 55.2969 222.978 54.9219C222.744 54.5417 222.627 54.1172 222.627 53.6484C222.627 53.1953 222.715 52.7969 222.892 52.4531C223.069 52.1042 223.324 51.8151 223.658 51.5859C223.991 51.3516 224.392 51.1745 224.861 51.0547C225.33 50.9349 225.853 50.875 226.431 50.875H228.111ZM231.722 44H233.175V54.3594L233.05 56H231.722V44ZM238.886 51.7031V51.8672C238.886 52.4818 238.813 53.0521 238.667 53.5781C238.521 54.099 238.308 54.5521 238.027 54.9375C237.745 55.3229 237.402 55.6224 236.995 55.8359C236.589 56.0495 236.123 56.1562 235.597 56.1562C235.06 56.1562 234.589 56.0651 234.183 55.8828C233.782 55.6953 233.443 55.4271 233.167 55.0781C232.891 54.7292 232.67 54.3073 232.503 53.8125C232.342 53.3177 232.23 52.7604 232.167 52.1406V51.4219C232.23 50.7969 232.342 50.237 232.503 49.7422C232.67 49.2474 232.891 48.8255 233.167 48.4766C233.443 48.1224 233.782 47.8542 234.183 47.6719C234.584 47.4844 235.05 47.3906 235.581 47.3906C236.112 47.3906 236.584 47.4948 236.995 47.7031C237.407 47.9062 237.751 48.1979 238.027 48.5781C238.308 48.9583 238.521 49.4141 238.667 49.9453C238.813 50.4714 238.886 51.0573 238.886 51.7031ZM237.433 51.8672V51.7031C237.433 51.2812 237.394 50.8854 237.316 50.5156C237.237 50.1406 237.112 49.8125 236.941 49.5312C236.769 49.2448 236.542 49.0208 236.261 48.8594C235.98 48.6927 235.633 48.6094 235.222 48.6094C234.857 48.6094 234.54 48.6719 234.269 48.7969C234.003 48.9219 233.777 49.0911 233.589 49.3047C233.402 49.513 233.248 49.7526 233.128 50.0234C233.014 50.2891 232.928 50.5651 232.87 50.8516V52.7344C232.954 53.099 233.089 53.4505 233.277 53.7891C233.469 54.1224 233.724 54.3958 234.042 54.6094C234.365 54.8229 234.764 54.9297 235.237 54.9297C235.628 54.9297 235.961 54.8516 236.237 54.6953C236.519 54.5339 236.745 54.3125 236.917 54.0312C237.094 53.75 237.224 53.4245 237.308 53.0547C237.391 52.6849 237.433 52.2891 237.433 51.8672ZM244.372 56.1562C243.783 56.1562 243.249 56.0573 242.77 55.8594C242.296 55.6562 241.888 55.3724 241.544 55.0078C241.205 54.6432 240.945 54.2109 240.763 53.7109C240.58 53.2109 240.489 52.6641 240.489 52.0703V51.7422C240.489 51.0547 240.591 50.4427 240.794 49.9062C240.997 49.3646 241.273 48.9062 241.622 48.5312C241.971 48.1562 242.367 47.8724 242.809 47.6797C243.252 47.487 243.71 47.3906 244.184 47.3906C244.789 47.3906 245.309 47.4948 245.747 47.7031C246.19 47.9115 246.552 48.2031 246.833 48.5781C247.114 48.9479 247.322 49.3854 247.458 49.8906C247.593 50.3906 247.661 50.9375 247.661 51.5312V52.1797H241.348V51H246.216V50.8906C246.195 50.5156 246.117 50.151 245.981 49.7969C245.851 49.4427 245.643 49.151 245.356 48.9219C245.07 48.6927 244.679 48.5781 244.184 48.5781C243.856 48.5781 243.554 48.6484 243.278 48.7891C243.002 48.9245 242.765 49.1276 242.567 49.3984C242.369 49.6693 242.216 50 242.106 50.3906C241.997 50.7812 241.942 51.2318 241.942 51.7422V52.0703C241.942 52.4714 241.997 52.849 242.106 53.2031C242.221 53.5521 242.385 53.8594 242.598 54.125C242.817 54.3906 243.08 54.599 243.388 54.75C243.7 54.901 244.054 54.9766 244.45 54.9766C244.96 54.9766 245.393 54.8724 245.747 54.6641C246.101 54.4557 246.411 54.1771 246.677 53.8281L247.552 54.5234C247.369 54.7995 247.138 55.0625 246.856 55.3125C246.575 55.5625 246.229 55.7656 245.817 55.9219C245.411 56.0781 244.929 56.1562 244.372 56.1562ZM251.069 44V56H249.616V44H251.069Z" fill="black" fill-opacity="0.87"/>
</g>
<g clip-path="url(#clip1_1412_16352)">
<path d="M192 109C189.24 109 187 111.24 187 114C187 116.76 189.24 119 192 119C194.76 119 197 116.76 197 114C197 111.24 194.76 109 192 109ZM192 104C186.48 104 182 108.48 182 114C182 119.52 186.48 124 192 124C197.52 124 202 119.52 202 114C202 108.48 197.52 104 192 104ZM192 122C187.58 122 184 118.42 184 114C184 109.58 187.58 106 192 106C196.42 106 200 109.58 200 114C200 118.42 196.42 122 192 122Z" fill="#16A249"/>
<path d="M221.219 117.773V119H215.531V117.773H221.219ZM215.828 107.625V119H214.32V107.625H215.828ZM227.861 117.555V113.203C227.861 112.87 227.793 112.581 227.658 112.336C227.528 112.086 227.33 111.893 227.064 111.758C226.798 111.622 226.47 111.555 226.08 111.555C225.715 111.555 225.395 111.617 225.119 111.742C224.848 111.867 224.634 112.031 224.478 112.234C224.327 112.438 224.252 112.656 224.252 112.891H222.806C222.806 112.589 222.884 112.289 223.041 111.992C223.197 111.695 223.421 111.427 223.712 111.188C224.009 110.943 224.364 110.75 224.775 110.609C225.192 110.464 225.655 110.391 226.166 110.391C226.78 110.391 227.322 110.495 227.791 110.703C228.265 110.911 228.634 111.227 228.9 111.648C229.171 112.065 229.306 112.589 229.306 113.219V117.156C229.306 117.438 229.33 117.737 229.377 118.055C229.429 118.372 229.504 118.646 229.603 118.875V119H228.095C228.022 118.833 227.965 118.612 227.923 118.336C227.882 118.055 227.861 117.794 227.861 117.555ZM228.111 113.875L228.127 114.891H226.666C226.254 114.891 225.887 114.924 225.564 114.992C225.241 115.055 224.97 115.151 224.752 115.281C224.533 115.411 224.366 115.576 224.252 115.773C224.137 115.966 224.08 116.193 224.08 116.453C224.08 116.719 224.14 116.961 224.259 117.18C224.379 117.398 224.559 117.573 224.798 117.703C225.043 117.828 225.343 117.891 225.697 117.891C226.14 117.891 226.53 117.797 226.869 117.609C227.207 117.422 227.476 117.193 227.673 116.922C227.877 116.651 227.986 116.388 228.002 116.133L228.619 116.828C228.582 117.047 228.483 117.289 228.322 117.555C228.16 117.82 227.944 118.076 227.673 118.32C227.408 118.56 227.09 118.76 226.72 118.922C226.356 119.078 225.944 119.156 225.486 119.156C224.913 119.156 224.41 119.044 223.978 118.82C223.551 118.596 223.218 118.297 222.978 117.922C222.744 117.542 222.627 117.117 222.627 116.648C222.627 116.195 222.715 115.797 222.892 115.453C223.069 115.104 223.324 114.815 223.658 114.586C223.991 114.352 224.392 114.174 224.861 114.055C225.33 113.935 225.853 113.875 226.431 113.875H228.111ZM231.722 107H233.175V117.359L233.05 119H231.722V107ZM238.886 114.703V114.867C238.886 115.482 238.813 116.052 238.667 116.578C238.521 117.099 238.308 117.552 238.027 117.938C237.745 118.323 237.402 118.622 236.995 118.836C236.589 119.049 236.123 119.156 235.597 119.156C235.06 119.156 234.589 119.065 234.183 118.883C233.782 118.695 233.443 118.427 233.167 118.078C232.891 117.729 232.67 117.307 232.503 116.812C232.342 116.318 232.23 115.76 232.167 115.141V114.422C232.23 113.797 232.342 113.237 232.503 112.742C232.67 112.247 232.891 111.826 233.167 111.477C233.443 111.122 233.782 110.854 234.183 110.672C234.584 110.484 235.05 110.391 235.581 110.391C236.112 110.391 236.584 110.495 236.995 110.703C237.407 110.906 237.751 111.198 238.027 111.578C238.308 111.958 238.521 112.414 238.667 112.945C238.813 113.471 238.886 114.057 238.886 114.703ZM237.433 114.867V114.703C237.433 114.281 237.394 113.885 237.316 113.516C237.237 113.141 237.112 112.812 236.941 112.531C236.769 112.245 236.542 112.021 236.261 111.859C235.98 111.693 235.633 111.609 235.222 111.609C234.857 111.609 234.54 111.672 234.269 111.797C234.003 111.922 233.777 112.091 233.589 112.305C233.402 112.513 233.248 112.753 233.128 113.023C233.014 113.289 232.928 113.565 232.87 113.852V115.734C232.954 116.099 233.089 116.451 233.277 116.789C233.469 117.122 233.724 117.396 234.042 117.609C234.365 117.823 234.764 117.93 235.237 117.93C235.628 117.93 235.961 117.852 236.237 117.695C236.519 117.534 236.745 117.312 236.917 117.031C237.094 116.75 237.224 116.424 237.308 116.055C237.391 115.685 237.433 115.289 237.433 114.867ZM244.372 119.156C243.783 119.156 243.249 119.057 242.77 118.859C242.296 118.656 241.888 118.372 241.544 118.008C241.205 117.643 240.945 117.211 240.763 116.711C240.58 116.211 240.489 115.664 240.489 115.07V114.742C240.489 114.055 240.591 113.443 240.794 112.906C240.997 112.365 241.273 111.906 241.622 111.531C241.971 111.156 242.367 110.872 242.809 110.68C243.252 110.487 243.71 110.391 244.184 110.391C244.789 110.391 245.309 110.495 245.747 110.703C246.19 110.911 246.552 111.203 246.833 111.578C247.114 111.948 247.322 112.385 247.458 112.891C247.593 113.391 247.661 113.938 247.661 114.531V115.18H241.348V114H246.216V113.891C246.195 113.516 246.117 113.151 245.981 112.797C245.851 112.443 245.643 112.151 245.356 111.922C245.07 111.693 244.679 111.578 244.184 111.578C243.856 111.578 243.554 111.648 243.278 111.789C243.002 111.924 242.765 112.128 242.567 112.398C242.369 112.669 242.216 113 242.106 113.391C241.997 113.781 241.942 114.232 241.942 114.742V115.07C241.942 115.471 241.997 115.849 242.106 116.203C242.221 116.552 242.385 116.859 242.598 117.125C242.817 117.391 243.08 117.599 243.388 117.75C243.7 117.901 244.054 117.977 244.45 117.977C244.96 117.977 245.393 117.872 245.747 117.664C246.101 117.456 246.411 117.177 246.677 116.828L247.552 117.523C247.369 117.799 247.138 118.062 246.856 118.312C246.575 118.562 246.229 118.766 245.817 118.922C245.411 119.078 244.929 119.156 244.372 119.156ZM251.069 107V119H249.616V107H251.069Z" fill="black" fill-opacity="0.87"/>
</g>
<g clip-path="url(#clip2_1412_16352)">
<path d="M192 167C186.48 167 182 171.48 182 177C182 182.52 186.48 187 192 187C197.52 187 202 182.52 202 177C202 171.48 197.52 167 192 167ZM192 185C187.58 185 184 181.42 184 177C184 172.58 187.58 169 192 169C196.42 169 200 172.58 200 177C200 181.42 196.42 185 192 185Z" fill="black" fill-opacity="0.6"/>
<path d="M221.219 180.773V182H215.531V180.773H221.219ZM215.828 170.625V182H214.32V170.625H215.828ZM227.861 180.555V176.203C227.861 175.87 227.793 175.581 227.658 175.336C227.528 175.086 227.33 174.893 227.064 174.758C226.798 174.622 226.47 174.555 226.08 174.555C225.715 174.555 225.395 174.617 225.119 174.742C224.848 174.867 224.634 175.031 224.478 175.234C224.327 175.438 224.252 175.656 224.252 175.891H222.806C222.806 175.589 222.884 175.289 223.041 174.992C223.197 174.695 223.421 174.427 223.712 174.188C224.009 173.943 224.364 173.75 224.775 173.609C225.192 173.464 225.655 173.391 226.166 173.391C226.78 173.391 227.322 173.495 227.791 173.703C228.265 173.911 228.634 174.227 228.9 174.648C229.171 175.065 229.306 175.589 229.306 176.219V180.156C229.306 180.438 229.33 180.737 229.377 181.055C229.429 181.372 229.504 181.646 229.603 181.875V182H228.095C228.022 181.833 227.965 181.612 227.923 181.336C227.882 181.055 227.861 180.794 227.861 180.555ZM228.111 176.875L228.127 177.891H226.666C226.254 177.891 225.887 177.924 225.564 177.992C225.241 178.055 224.97 178.151 224.752 178.281C224.533 178.411 224.366 178.576 224.252 178.773C224.137 178.966 224.08 179.193 224.08 179.453C224.08 179.719 224.14 179.961 224.259 180.18C224.379 180.398 224.559 180.573 224.798 180.703C225.043 180.828 225.343 180.891 225.697 180.891C226.14 180.891 226.53 180.797 226.869 180.609C227.207 180.422 227.476 180.193 227.673 179.922C227.877 179.651 227.986 179.388 228.002 179.133L228.619 179.828C228.582 180.047 228.483 180.289 228.322 180.555C228.16 180.82 227.944 181.076 227.673 181.32C227.408 181.56 227.09 181.76 226.72 181.922C226.356 182.078 225.944 182.156 225.486 182.156C224.913 182.156 224.41 182.044 223.978 181.82C223.551 181.596 223.218 181.297 222.978 180.922C222.744 180.542 222.627 180.117 222.627 179.648C222.627 179.195 222.715 178.797 222.892 178.453C223.069 178.104 223.324 177.815 223.658 177.586C223.991 177.352 224.392 177.174 224.861 177.055C225.33 176.935 225.853 176.875 226.431 176.875H228.111ZM231.722 170H233.175V180.359L233.05 182H231.722V170ZM238.886 177.703V177.867C238.886 178.482 238.813 179.052 238.667 179.578C238.521 180.099 238.308 180.552 238.027 180.938C237.745 181.323 237.402 181.622 236.995 181.836C236.589 182.049 236.123 182.156 235.597 182.156C235.06 182.156 234.589 182.065 234.183 181.883C233.782 181.695 233.443 181.427 233.167 181.078C232.891 180.729 232.67 180.307 232.503 179.812C232.342 179.318 232.23 178.76 232.167 178.141V177.422C232.23 176.797 232.342 176.237 232.503 175.742C232.67 175.247 232.891 174.826 233.167 174.477C233.443 174.122 233.782 173.854 234.183 173.672C234.584 173.484 235.05 173.391 235.581 173.391C236.112 173.391 236.584 173.495 236.995 173.703C237.407 173.906 237.751 174.198 238.027 174.578C238.308 174.958 238.521 175.414 238.667 175.945C238.813 176.471 238.886 177.057 238.886 177.703ZM237.433 177.867V177.703C237.433 177.281 237.394 176.885 237.316 176.516C237.237 176.141 237.112 175.812 236.941 175.531C236.769 175.245 236.542 175.021 236.261 174.859C235.98 174.693 235.633 174.609 235.222 174.609C234.857 174.609 234.54 174.672 234.269 174.797C234.003 174.922 233.777 175.091 233.589 175.305C233.402 175.513 233.248 175.753 233.128 176.023C233.014 176.289 232.928 176.565 232.87 176.852V178.734C232.954 179.099 233.089 179.451 233.277 179.789C233.469 180.122 233.724 180.396 234.042 180.609C234.365 180.823 234.764 180.93 235.237 180.93C235.628 180.93 235.961 180.852 236.237 180.695C236.519 180.534 236.745 180.312 236.917 180.031C237.094 179.75 237.224 179.424 237.308 179.055C237.391 178.685 237.433 178.289 237.433 177.867ZM244.372 182.156C243.783 182.156 243.249 182.057 242.77 181.859C242.296 181.656 241.888 181.372 241.544 181.008C241.205 180.643 240.945 180.211 240.763 179.711C240.58 179.211 240.489 178.664 240.489 178.07V177.742C240.489 177.055 240.591 176.443 240.794 175.906C240.997 175.365 241.273 174.906 241.622 174.531C241.971 174.156 242.367 173.872 242.809 173.68C243.252 173.487 243.71 173.391 244.184 173.391C244.789 173.391 245.309 173.495 245.747 173.703C246.19 173.911 246.552 174.203 246.833 174.578C247.114 174.948 247.322 175.385 247.458 175.891C247.593 176.391 247.661 176.938 247.661 177.531V178.18H241.348V177H246.216V176.891C246.195 176.516 246.117 176.151 245.981 175.797C245.851 175.443 245.643 175.151 245.356 174.922C245.07 174.693 244.679 174.578 244.184 174.578C243.856 174.578 243.554 174.648 243.278 174.789C243.002 174.924 242.765 175.128 242.567 175.398C242.369 175.669 242.216 176 242.106 176.391C241.997 176.781 241.942 177.232 241.942 177.742V178.07C241.942 178.471 241.997 178.849 242.106 179.203C242.221 179.552 242.385 179.859 242.598 180.125C242.817 180.391 243.08 180.599 243.388 180.75C243.7 180.901 244.054 180.977 244.45 180.977C244.96 180.977 245.393 180.872 245.747 180.664C246.101 180.456 246.411 180.177 246.677 179.828L247.552 180.523C247.369 180.799 247.138 181.062 246.856 181.312C246.575 181.562 246.229 181.766 245.817 181.922C245.411 182.078 244.929 182.156 244.372 182.156ZM251.069 170V182H249.616V170H251.069Z" fill="black" fill-opacity="0.87"/>
</g>
<defs>
<clipPath id="clip0_1412_16352">
<rect width="82" height="42" fill="white" transform="translate(171 30)"/>
</clipPath>
<clipPath id="clip1_1412_16352">
<rect width="82" height="42" fill="white" transform="translate(171 93)"/>
</clipPath>
<clipPath id="clip2_1412_16352">
<rect width="82" height="42" fill="white" transform="translate(171 156)"/>
</clipPath>
</defs>
</svg>
