<svg width="577" height="229" viewBox="0 0 577 229" fill="none" xmlns="http://www.w3.org/2000/svg">
<path d="M0 6.59997C0 3.28626 2.68629 0.599976 6 0.599976H571C574.314 0.599976 577 3.28627 577 6.59998V228.2H0V6.59997Z" fill="#1C1917"/>
<rect x="37.5" y="32.1" width="219" height="55" rx="3.5" stroke="white"/>
<path d="M53.9922 62.8734L57.3438 53.225H58.9766L54.7656 64.6H53.6016L53.9922 62.8734ZM50.8594 53.225L54.1797 62.8734L54.5938 64.6H53.4297L49.2266 53.225H50.8594ZM65.0641 63.1547V58.8031C65.0641 58.4698 64.9964 58.1807 64.8609 57.9359C64.7307 57.6859 64.5328 57.4932 64.2672 57.3578C64.0016 57.2224 63.6734 57.1547 63.2828 57.1547C62.9182 57.1547 62.5979 57.2172 62.3219 57.3422C62.051 57.4672 61.8375 57.6312 61.6812 57.8344C61.5302 58.0375 61.4547 58.2562 61.4547 58.4906H60.0094C60.0094 58.1885 60.0875 57.889 60.2437 57.5922C60.4 57.2953 60.624 57.0271 60.9156 56.7875C61.2125 56.5427 61.5667 56.35 61.9781 56.2094C62.3948 56.0635 62.8583 55.9906 63.3687 55.9906C63.9833 55.9906 64.525 56.0948 64.9937 56.3031C65.4677 56.5114 65.8375 56.8265 66.1031 57.2484C66.374 57.6651 66.5094 58.1885 66.5094 58.8187V62.7562C66.5094 63.0375 66.5328 63.337 66.5797 63.6547C66.6318 63.9724 66.7073 64.2458 66.8062 64.475V64.6H65.2984C65.2255 64.4333 65.1682 64.212 65.1266 63.9359C65.0849 63.6547 65.0641 63.3942 65.0641 63.1547ZM65.3141 59.475L65.3297 60.4906H63.8687C63.4573 60.4906 63.0901 60.5245 62.7672 60.5922C62.4443 60.6547 62.1734 60.751 61.9547 60.8812C61.7359 61.0114 61.5693 61.1755 61.4547 61.3734C61.3401 61.5661 61.2828 61.7927 61.2828 62.0531C61.2828 62.3187 61.3427 62.5609 61.4625 62.7797C61.5823 62.9984 61.762 63.1729 62.0016 63.3031C62.2464 63.4281 62.5458 63.4906 62.9 63.4906C63.3427 63.4906 63.7333 63.3969 64.0719 63.2094C64.4104 63.0219 64.6786 62.7927 64.8766 62.5219C65.0797 62.251 65.1891 61.988 65.2047 61.7328L65.8219 62.4281C65.7854 62.6469 65.6865 62.889 65.525 63.1547C65.3635 63.4203 65.1474 63.6755 64.8766 63.9203C64.6109 64.1599 64.2932 64.3604 63.9234 64.5219C63.5589 64.6781 63.1474 64.7562 62.6891 64.7562C62.1161 64.7562 61.6135 64.6442 61.1812 64.4203C60.7542 64.1963 60.4208 63.8969 60.1812 63.5219C59.9469 63.1416 59.8297 62.7172 59.8297 62.2484C59.8297 61.7953 59.9182 61.3969 60.0953 61.0531C60.2724 60.7041 60.5276 60.4151 60.8609 60.1859C61.1943 59.9515 61.5953 59.7745 62.0641 59.6547C62.5328 59.5349 63.0562 59.475 63.6344 59.475H65.3141ZM70.5031 52.6V64.6H69.05V52.6H70.5031ZM78.1453 62.6469V56.1469H79.5984V64.6H78.2156L78.1453 62.6469ZM78.4188 60.8656L79.0203 60.85C79.0203 61.4125 78.9604 61.9333 78.8406 62.4125C78.726 62.8864 78.5385 63.2979 78.2781 63.6469C78.0177 63.9958 77.6766 64.2692 77.2547 64.4672C76.8328 64.6599 76.3198 64.7562 75.7156 64.7562C75.3042 64.7562 74.9266 64.6963 74.5828 64.5765C74.2443 64.4567 73.9526 64.2719 73.7078 64.0219C73.463 63.7719 73.2729 63.4463 73.1375 63.0453C73.0073 62.6442 72.9422 62.1625 72.9422 61.6V56.1469H74.3875V61.6156C74.3875 61.9958 74.4292 62.3109 74.5125 62.5609C74.601 62.8057 74.7182 63.001 74.8641 63.1469C75.0151 63.2875 75.1818 63.3864 75.3641 63.4437C75.5516 63.501 75.7443 63.5297 75.9422 63.5297C76.5568 63.5297 77.0438 63.4125 77.4031 63.1781C77.7625 62.9385 78.0203 62.6182 78.1766 62.2172C78.338 61.8109 78.4188 61.3604 78.4188 60.8656ZM85.4594 64.7562C84.8708 64.7562 84.337 64.6573 83.8578 64.4594C83.3839 64.2562 82.975 63.9724 82.6313 63.6078C82.2927 63.2432 82.0323 62.8109 81.85 62.3109C81.6677 61.8109 81.5766 61.264 81.5766 60.6703V60.3422C81.5766 59.6547 81.6781 59.0427 81.8813 58.5062C82.0844 57.9646 82.3604 57.5062 82.7094 57.1312C83.0583 56.7562 83.4542 56.4724 83.8969 56.2797C84.3396 56.087 84.7979 55.9906 85.2719 55.9906C85.876 55.9906 86.3969 56.0948 86.8344 56.3031C87.2771 56.5114 87.6391 56.8031 87.9203 57.1781C88.2016 57.5479 88.4099 57.9854 88.5453 58.4906C88.6807 58.9906 88.7484 59.5375 88.7484 60.1312V60.7797H82.4359V59.6H87.3031V59.4906C87.2823 59.1156 87.2042 58.751 87.0688 58.3969C86.9385 58.0427 86.7302 57.751 86.4438 57.5219C86.1573 57.2927 85.7667 57.1781 85.2719 57.1781C84.9438 57.1781 84.6417 57.2484 84.3656 57.389C84.0896 57.5245 83.8526 57.7276 83.6547 57.9984C83.4568 58.2692 83.3031 58.6 83.1938 58.9906C83.0844 59.3812 83.0297 59.8317 83.0297 60.3422V60.6703C83.0297 61.0713 83.0844 61.4489 83.1938 61.8031C83.3083 62.1521 83.4724 62.4594 83.6859 62.725C83.9047 62.9906 84.1677 63.1989 84.475 63.35C84.7875 63.501 85.1417 63.5765 85.5375 63.5765C86.0479 63.5765 86.4802 63.4724 86.8344 63.264C87.1885 63.0557 87.4984 62.7771 87.7641 62.4281L88.6391 63.1234C88.4568 63.3995 88.225 63.6625 87.9438 63.9125C87.6625 64.1625 87.3161 64.3656 86.9047 64.5219C86.4984 64.6781 86.0167 64.7562 85.4594 64.7562Z" fill="white"/>
<rect width="38" height="2" transform="translate(49 31.6)" fill="#121212"/>
<path d="M59.1641 35.6801V36.6H54.8984V35.6801H59.1641ZM55.1211 28.0687V36.6H53.9902V28.0687H55.1211ZM64.1832 35.516V32.2523C64.1832 32.0023 64.1324 31.7855 64.0309 31.6019C63.9332 31.4144 63.7848 31.2699 63.5855 31.1683C63.3863 31.0668 63.1402 31.016 62.8473 31.016C62.5738 31.016 62.3336 31.0629 62.1266 31.1566C61.9234 31.2504 61.7633 31.3734 61.6461 31.5258C61.5328 31.6781 61.4762 31.8422 61.4762 32.0179H60.3922C60.3922 31.7914 60.4508 31.5668 60.568 31.3441C60.6852 31.1215 60.8531 30.9203 61.0719 30.7406C61.2945 30.557 61.5602 30.4125 61.8688 30.307C62.1813 30.1976 62.5289 30.1429 62.9117 30.1429C63.3727 30.1429 63.7789 30.2211 64.1305 30.3773C64.4859 30.5336 64.7633 30.7699 64.9625 31.0863C65.1656 31.3988 65.2672 31.7914 65.2672 32.264V35.2172C65.2672 35.4281 65.2848 35.6527 65.3199 35.891C65.359 36.1293 65.4156 36.3344 65.4898 36.5062V36.6H64.359C64.3043 36.475 64.2613 36.309 64.2301 36.1019C64.1988 35.891 64.1832 35.6957 64.1832 35.516ZM64.3707 32.7562L64.3824 33.5179H63.2867C62.9781 33.5179 62.7027 33.5433 62.4605 33.5941C62.2184 33.641 62.0152 33.7133 61.8512 33.8109C61.6871 33.9086 61.5621 34.0316 61.4762 34.1801C61.3902 34.3246 61.3473 34.4945 61.3473 34.6898C61.3473 34.889 61.3922 35.0707 61.482 35.2347C61.5719 35.3988 61.7066 35.5297 61.8863 35.6273C62.0699 35.7211 62.2945 35.7679 62.5602 35.7679C62.8922 35.7679 63.1852 35.6976 63.4391 35.557C63.693 35.4164 63.8941 35.2445 64.0426 35.0414C64.1949 34.8383 64.277 34.641 64.2887 34.4496L64.7516 34.9711C64.7242 35.1351 64.65 35.3168 64.5289 35.516C64.4078 35.7152 64.2457 35.9066 64.0426 36.0902C63.8434 36.2699 63.6051 36.4203 63.3277 36.5414C63.0543 36.6586 62.7457 36.7172 62.402 36.7172C61.9723 36.7172 61.5953 36.6332 61.2711 36.4652C60.9508 36.2972 60.7008 36.0726 60.5211 35.7914C60.3453 35.5062 60.2574 35.1879 60.2574 34.8363C60.2574 34.4965 60.3238 34.1976 60.4566 33.9398C60.5895 33.6781 60.7809 33.4613 61.0309 33.2894C61.2809 33.1136 61.5816 32.9808 61.9332 32.891C62.2848 32.8011 62.6773 32.7562 63.1109 32.7562H64.3707ZM67.1164 27.6H68.2063V35.3695L68.1125 36.6H67.1164V27.6ZM72.4895 33.3773V33.5004C72.4895 33.9613 72.4348 34.389 72.3254 34.7836C72.216 35.1742 72.0559 35.514 71.8449 35.8031C71.634 36.0922 71.3762 36.3168 71.0715 36.4769C70.7668 36.6371 70.4172 36.7172 70.0227 36.7172C69.6203 36.7172 69.2668 36.6488 68.9621 36.5121C68.6613 36.3715 68.4074 36.1703 68.2004 35.9086C67.9934 35.6469 67.8273 35.3304 67.7023 34.9594C67.5813 34.5883 67.4973 34.1703 67.4504 33.7054V33.1664C67.4973 32.6976 67.5813 32.2777 67.7023 31.9066C67.8273 31.5355 67.9934 31.2191 68.2004 30.9574C68.4074 30.6918 68.6613 30.4906 68.9621 30.3539C69.2629 30.2133 69.6125 30.1429 70.0109 30.1429C70.4094 30.1429 70.7629 30.2211 71.0715 30.3773C71.3801 30.5297 71.6379 30.7484 71.8449 31.0336C72.0559 31.3187 72.216 31.6605 72.3254 32.059C72.4348 32.4535 72.4895 32.8929 72.4895 33.3773ZM71.3996 33.5004V33.3773C71.3996 33.0609 71.3703 32.764 71.3117 32.4867C71.2531 32.2054 71.1594 31.9594 71.0305 31.7484C70.9016 31.5336 70.7316 31.3656 70.5207 31.2445C70.3098 31.1195 70.05 31.057 69.7414 31.057C69.468 31.057 69.2297 31.1039 69.0266 31.1976C68.8273 31.2914 68.6574 31.4183 68.5168 31.5785C68.3762 31.7347 68.2609 31.9144 68.1711 32.1176C68.0852 32.3168 68.0207 32.5238 67.9777 32.7386V34.1508C68.0402 34.4242 68.1418 34.6879 68.2824 34.9418C68.427 35.1918 68.6184 35.3969 68.8566 35.557C69.0988 35.7172 69.3977 35.7972 69.7531 35.7972C70.0461 35.7972 70.2961 35.7386 70.5031 35.6215C70.7141 35.5004 70.884 35.3344 71.0129 35.1234C71.1457 34.9125 71.2434 34.6683 71.3059 34.391C71.3684 34.1136 71.3996 33.8168 71.3996 33.5004ZM76.6414 36.7172C76.2 36.7172 75.7996 36.6429 75.4402 36.4945C75.0848 36.3422 74.7781 36.1293 74.5203 35.8558C74.2664 35.5824 74.0711 35.2582 73.9344 34.8832C73.7977 34.5082 73.7293 34.098 73.7293 33.6527V33.4066C73.7293 32.891 73.8055 32.432 73.9578 32.0297C74.1102 31.6234 74.3172 31.2797 74.5789 30.9984C74.8406 30.7172 75.1375 30.5043 75.4695 30.3597C75.8016 30.2152 76.1453 30.1429 76.5008 30.1429C76.9539 30.1429 77.3445 30.2211 77.6727 30.3773C78.0047 30.5336 78.2762 30.7523 78.4871 31.0336C78.698 31.3109 78.8543 31.639 78.9559 32.0179C79.0574 32.3929 79.1082 32.8031 79.1082 33.2484V33.7347H74.3738V32.85H78.0242V32.7679C78.0086 32.4867 77.95 32.2133 77.8484 31.9476C77.7508 31.682 77.5945 31.4633 77.3797 31.2914C77.1648 31.1195 76.8719 31.0336 76.5008 31.0336C76.2547 31.0336 76.0281 31.0863 75.8211 31.1918C75.6141 31.2933 75.4363 31.4457 75.2879 31.6488C75.1395 31.8519 75.0242 32.1 74.9422 32.3929C74.8602 32.6859 74.8191 33.0238 74.8191 33.4066V33.6527C74.8191 33.9535 74.8602 34.2367 74.9422 34.5023C75.0281 34.764 75.1512 34.9945 75.3113 35.1937C75.4754 35.3929 75.6727 35.5492 75.9031 35.6625C76.1375 35.7758 76.4031 35.8324 76.7 35.8324C77.0828 35.8324 77.407 35.7543 77.6727 35.598C77.9383 35.4418 78.1707 35.2328 78.3699 34.9711L79.0262 35.4926C78.8895 35.6996 78.7156 35.8969 78.5047 36.0844C78.2938 36.2719 78.034 36.4242 77.7254 36.5414C77.4207 36.6586 77.0594 36.7172 76.6414 36.7172ZM81.7016 27.6V36.6H80.6117V27.6H81.7016Z" fill="white" fill-opacity="0.7"/>
<rect x="282" y="32.6" width="218" height="54" rx="3" stroke="#16A249" stroke-width="2"/>
<path d="M297.992 62.8734L301.344 53.225H302.977L298.766 64.6H297.602L297.992 62.8734ZM294.859 53.225L298.18 62.8734L298.594 64.6H297.43L293.227 53.225H294.859ZM309.064 63.1547V58.8031C309.064 58.4698 308.996 58.1807 308.861 57.9359C308.731 57.6859 308.533 57.4932 308.267 57.3578C308.002 57.2224 307.673 57.1547 307.283 57.1547C306.918 57.1547 306.598 57.2172 306.322 57.3422C306.051 57.4672 305.837 57.6312 305.681 57.8344C305.53 58.0375 305.455 58.2562 305.455 58.4906H304.009C304.009 58.1885 304.087 57.889 304.244 57.5922C304.4 57.2953 304.624 57.0271 304.916 56.7875C305.212 56.5427 305.567 56.35 305.978 56.2094C306.395 56.0635 306.858 55.9906 307.369 55.9906C307.983 55.9906 308.525 56.0948 308.994 56.3031C309.468 56.5114 309.837 56.8265 310.103 57.2484C310.374 57.6651 310.509 58.1885 310.509 58.8187V62.7562C310.509 63.0375 310.533 63.337 310.58 63.6547C310.632 63.9724 310.707 64.2458 310.806 64.475V64.6H309.298C309.226 64.4333 309.168 64.212 309.127 63.9359C309.085 63.6547 309.064 63.3942 309.064 63.1547ZM309.314 59.475L309.33 60.4906H307.869C307.457 60.4906 307.09 60.5245 306.767 60.5922C306.444 60.6547 306.173 60.751 305.955 60.8812C305.736 61.0114 305.569 61.1755 305.455 61.3734C305.34 61.5661 305.283 61.7927 305.283 62.0531C305.283 62.3187 305.343 62.5609 305.462 62.7797C305.582 62.9984 305.762 63.1729 306.002 63.3031C306.246 63.4281 306.546 63.4906 306.9 63.4906C307.343 63.4906 307.733 63.3969 308.072 63.2094C308.41 63.0219 308.679 62.7927 308.877 62.5219C309.08 62.251 309.189 61.988 309.205 61.7328L309.822 62.4281C309.785 62.6469 309.686 62.889 309.525 63.1547C309.364 63.4203 309.147 63.6755 308.877 63.9203C308.611 64.1599 308.293 64.3604 307.923 64.5219C307.559 64.6781 307.147 64.7562 306.689 64.7562C306.116 64.7562 305.614 64.6442 305.181 64.4203C304.754 64.1963 304.421 63.8969 304.181 63.5219C303.947 63.1416 303.83 62.7172 303.83 62.2484C303.83 61.7953 303.918 61.3969 304.095 61.0531C304.272 60.7041 304.528 60.4151 304.861 60.1859C305.194 59.9515 305.595 59.7745 306.064 59.6547C306.533 59.5349 307.056 59.475 307.634 59.475H309.314ZM314.503 52.6V64.6H313.05V52.6H314.503ZM322.145 62.6469V56.1469H323.598V64.6H322.216L322.145 62.6469ZM322.419 60.8656L323.02 60.85C323.02 61.4125 322.96 61.9333 322.841 62.4125C322.726 62.8864 322.539 63.2979 322.278 63.6469C322.018 63.9958 321.677 64.2692 321.255 64.4672C320.833 64.6599 320.32 64.7562 319.716 64.7562C319.304 64.7562 318.927 64.6963 318.583 64.5765C318.244 64.4567 317.953 64.2719 317.708 64.0219C317.463 63.7719 317.273 63.4463 317.138 63.0453C317.007 62.6442 316.942 62.1625 316.942 61.6V56.1469H318.388V61.6156C318.388 61.9958 318.429 62.3109 318.513 62.5609C318.601 62.8057 318.718 63.001 318.864 63.1469C319.015 63.2875 319.182 63.3864 319.364 63.4437C319.552 63.501 319.744 63.5297 319.942 63.5297C320.557 63.5297 321.044 63.4125 321.403 63.1781C321.763 62.9385 322.02 62.6182 322.177 62.2172C322.338 61.8109 322.419 61.3604 322.419 60.8656ZM329.459 64.7562C328.871 64.7562 328.337 64.6573 327.858 64.4594C327.384 64.2562 326.975 63.9724 326.631 63.6078C326.293 63.2432 326.032 62.8109 325.85 62.3109C325.668 61.8109 325.577 61.264 325.577 60.6703V60.3422C325.577 59.6547 325.678 59.0427 325.881 58.5062C326.084 57.9646 326.36 57.5062 326.709 57.1312C327.058 56.7562 327.454 56.4724 327.897 56.2797C328.34 56.087 328.798 55.9906 329.272 55.9906C329.876 55.9906 330.397 56.0948 330.834 56.3031C331.277 56.5114 331.639 56.8031 331.92 57.1781C332.202 57.5479 332.41 57.9854 332.545 58.4906C332.681 58.9906 332.748 59.5375 332.748 60.1312V60.7797H326.436V59.6H331.303V59.4906C331.282 59.1156 331.204 58.751 331.069 58.3969C330.939 58.0427 330.73 57.751 330.444 57.5219C330.157 57.2927 329.767 57.1781 329.272 57.1781C328.944 57.1781 328.642 57.2484 328.366 57.389C328.09 57.5245 327.853 57.7276 327.655 57.9984C327.457 58.2692 327.303 58.6 327.194 58.9906C327.084 59.3812 327.03 59.8317 327.03 60.3422V60.6703C327.03 61.0713 327.084 61.4489 327.194 61.8031C327.308 62.1521 327.472 62.4594 327.686 62.725C327.905 62.9906 328.168 63.1989 328.475 63.35C328.788 63.501 329.142 63.5765 329.538 63.5765C330.048 63.5765 330.48 63.4724 330.834 63.264C331.189 63.0557 331.498 62.7771 331.764 62.4281L332.639 63.1234C332.457 63.3995 332.225 63.6625 331.944 63.9125C331.663 64.1625 331.316 64.3656 330.905 64.5219C330.498 64.6781 330.017 64.7562 329.459 64.7562Z" fill="white"/>
<rect width="38" height="2" transform="translate(293 31.6)" fill="#121212"/>
<path d="M303.164 35.6801V36.6H298.898V35.6801H303.164ZM299.121 28.0687V36.6H297.99V28.0687H299.121ZM308.183 35.516V32.2523C308.183 32.0023 308.132 31.7855 308.031 31.6019C307.933 31.4144 307.785 31.2699 307.586 31.1683C307.386 31.0668 307.14 31.016 306.847 31.016C306.574 31.016 306.334 31.0629 306.127 31.1566C305.923 31.2504 305.763 31.3734 305.646 31.5258C305.533 31.6781 305.476 31.8422 305.476 32.0179H304.392C304.392 31.7914 304.451 31.5668 304.568 31.3441C304.685 31.1215 304.853 30.9203 305.072 30.7406C305.295 30.557 305.56 30.4125 305.869 30.307C306.181 30.1976 306.529 30.1429 306.912 30.1429C307.373 30.1429 307.779 30.2211 308.13 30.3773C308.486 30.5336 308.763 30.7699 308.963 31.0863C309.166 31.3988 309.267 31.7914 309.267 32.264V35.2172C309.267 35.4281 309.285 35.6527 309.32 35.891C309.359 36.1293 309.416 36.3344 309.49 36.5062V36.6H308.359C308.304 36.475 308.261 36.309 308.23 36.1019C308.199 35.891 308.183 35.6957 308.183 35.516ZM308.371 32.7562L308.382 33.5179H307.287C306.978 33.5179 306.703 33.5433 306.461 33.5941C306.218 33.641 306.015 33.7133 305.851 33.8109C305.687 33.9086 305.562 34.0316 305.476 34.1801C305.39 34.3246 305.347 34.4945 305.347 34.6898C305.347 34.889 305.392 35.0707 305.482 35.2347C305.572 35.3988 305.707 35.5297 305.886 35.6273C306.07 35.7211 306.295 35.7679 306.56 35.7679C306.892 35.7679 307.185 35.6976 307.439 35.557C307.693 35.4164 307.894 35.2445 308.043 35.0414C308.195 34.8383 308.277 34.641 308.289 34.4496L308.752 34.9711C308.724 35.1351 308.65 35.3168 308.529 35.516C308.408 35.7152 308.246 35.9066 308.043 36.0902C307.843 36.2699 307.605 36.4203 307.328 36.5414C307.054 36.6586 306.746 36.7172 306.402 36.7172C305.972 36.7172 305.595 36.6332 305.271 36.4652C304.951 36.2972 304.701 36.0726 304.521 35.7914C304.345 35.5062 304.257 35.1879 304.257 34.8363C304.257 34.4965 304.324 34.1976 304.457 33.9398C304.589 33.6781 304.781 33.4613 305.031 33.2894C305.281 33.1136 305.582 32.9808 305.933 32.891C306.285 32.8011 306.677 32.7562 307.111 32.7562H308.371ZM311.116 27.6H312.206V35.3695L312.113 36.6H311.116V27.6ZM316.489 33.3773V33.5004C316.489 33.9613 316.435 34.389 316.325 34.7836C316.216 35.1742 316.056 35.514 315.845 35.8031C315.634 36.0922 315.376 36.3168 315.071 36.4769C314.767 36.6371 314.417 36.7172 314.023 36.7172C313.62 36.7172 313.267 36.6488 312.962 36.5121C312.661 36.3715 312.407 36.1703 312.2 35.9086C311.993 35.6469 311.827 35.3304 311.702 34.9594C311.581 34.5883 311.497 34.1703 311.45 33.7054V33.1664C311.497 32.6976 311.581 32.2777 311.702 31.9066C311.827 31.5355 311.993 31.2191 312.2 30.9574C312.407 30.6918 312.661 30.4906 312.962 30.3539C313.263 30.2133 313.613 30.1429 314.011 30.1429C314.409 30.1429 314.763 30.2211 315.071 30.3773C315.38 30.5297 315.638 30.7484 315.845 31.0336C316.056 31.3187 316.216 31.6605 316.325 32.059C316.435 32.4535 316.489 32.8929 316.489 33.3773ZM315.4 33.5004V33.3773C315.4 33.0609 315.37 32.764 315.312 32.4867C315.253 32.2054 315.159 31.9594 315.03 31.7484C314.902 31.5336 314.732 31.3656 314.521 31.2445C314.31 31.1195 314.05 31.057 313.741 31.057C313.468 31.057 313.23 31.1039 313.027 31.1976C312.827 31.2914 312.657 31.4183 312.517 31.5785C312.376 31.7347 312.261 31.9144 312.171 32.1176C312.085 32.3168 312.021 32.5238 311.978 32.7386V34.1508C312.04 34.4242 312.142 34.6879 312.282 34.9418C312.427 35.1918 312.618 35.3969 312.857 35.557C313.099 35.7172 313.398 35.7972 313.753 35.7972C314.046 35.7972 314.296 35.7386 314.503 35.6215C314.714 35.5004 314.884 35.3344 315.013 35.1234C315.146 34.9125 315.243 34.6683 315.306 34.391C315.368 34.1136 315.4 33.8168 315.4 33.5004ZM320.641 36.7172C320.2 36.7172 319.8 36.6429 319.44 36.4945C319.085 36.3422 318.778 36.1293 318.52 35.8558C318.266 35.5824 318.071 35.2582 317.934 34.8832C317.798 34.5082 317.729 34.098 317.729 33.6527V33.4066C317.729 32.891 317.805 32.432 317.958 32.0297C318.11 31.6234 318.317 31.2797 318.579 30.9984C318.841 30.7172 319.138 30.5043 319.47 30.3597C319.802 30.2152 320.145 30.1429 320.501 30.1429C320.954 30.1429 321.345 30.2211 321.673 30.3773C322.005 30.5336 322.276 30.7523 322.487 31.0336C322.698 31.3109 322.854 31.639 322.956 32.0179C323.057 32.3929 323.108 32.8031 323.108 33.2484V33.7347H318.374V32.85H322.024V32.7679C322.009 32.4867 321.95 32.2133 321.848 31.9476C321.751 31.682 321.595 31.4633 321.38 31.2914C321.165 31.1195 320.872 31.0336 320.501 31.0336C320.255 31.0336 320.028 31.0863 319.821 31.1918C319.614 31.2933 319.436 31.4457 319.288 31.6488C319.139 31.8519 319.024 32.1 318.942 32.3929C318.86 32.6859 318.819 33.0238 318.819 33.4066V33.6527C318.819 33.9535 318.86 34.2367 318.942 34.5023C319.028 34.764 319.151 34.9945 319.311 35.1937C319.475 35.3929 319.673 35.5492 319.903 35.6625C320.138 35.7758 320.403 35.8324 320.7 35.8324C321.083 35.8324 321.407 35.7543 321.673 35.598C321.938 35.4418 322.171 35.2328 322.37 34.9711L323.026 35.4926C322.889 35.6996 322.716 35.8969 322.505 36.0844C322.294 36.2719 322.034 36.4242 321.725 36.5414C321.421 36.6586 321.059 36.7172 320.641 36.7172ZM325.702 27.6V36.6H324.612V27.6H325.702Z" fill="#16A249"/>
<rect x="321.5" y="119.1" width="219" height="55" rx="3.5" stroke="white" stroke-opacity="0.23"/>
<path d="M337.992 149.873L341.344 140.225H342.977L338.766 151.6H337.602L337.992 149.873ZM334.859 140.225L338.18 149.873L338.594 151.6H337.43L333.227 140.225H334.859ZM349.064 150.155V145.803C349.064 145.47 348.996 145.181 348.861 144.936C348.731 144.686 348.533 144.493 348.267 144.358C348.002 144.222 347.673 144.155 347.283 144.155C346.918 144.155 346.598 144.217 346.322 144.342C346.051 144.467 345.837 144.631 345.681 144.834C345.53 145.037 345.455 145.256 345.455 145.491H344.009C344.009 145.189 344.087 144.889 344.244 144.592C344.4 144.295 344.624 144.027 344.916 143.787C345.212 143.543 345.567 143.35 345.978 143.209C346.395 143.064 346.858 142.991 347.369 142.991C347.983 142.991 348.525 143.095 348.994 143.303C349.468 143.511 349.837 143.827 350.103 144.248C350.374 144.665 350.509 145.189 350.509 145.819V149.756C350.509 150.037 350.533 150.337 350.58 150.655C350.632 150.972 350.707 151.246 350.806 151.475V151.6H349.298C349.226 151.433 349.168 151.212 349.127 150.936C349.085 150.655 349.064 150.394 349.064 150.155ZM349.314 146.475L349.33 147.491H347.869C347.457 147.491 347.09 147.524 346.767 147.592C346.444 147.655 346.173 147.751 345.955 147.881C345.736 148.011 345.569 148.175 345.455 148.373C345.34 148.566 345.283 148.793 345.283 149.053C345.283 149.319 345.343 149.561 345.462 149.78C345.582 149.998 345.762 150.173 346.002 150.303C346.246 150.428 346.546 150.491 346.9 150.491C347.343 150.491 347.733 150.397 348.072 150.209C348.41 150.022 348.679 149.793 348.877 149.522C349.08 149.251 349.189 148.988 349.205 148.733L349.822 149.428C349.785 149.647 349.686 149.889 349.525 150.155C349.364 150.42 349.147 150.675 348.877 150.92C348.611 151.16 348.293 151.36 347.923 151.522C347.559 151.678 347.147 151.756 346.689 151.756C346.116 151.756 345.614 151.644 345.181 151.42C344.754 151.196 344.421 150.897 344.181 150.522C343.947 150.142 343.83 149.717 343.83 149.248C343.83 148.795 343.918 148.397 344.095 148.053C344.272 147.704 344.528 147.415 344.861 147.186C345.194 146.952 345.595 146.774 346.064 146.655C346.533 146.535 347.056 146.475 347.634 146.475H349.314ZM354.503 139.6V151.6H353.05V139.6H354.503ZM362.145 149.647V143.147H363.598V151.6H362.216L362.145 149.647ZM362.419 147.866L363.02 147.85C363.02 148.412 362.96 148.933 362.841 149.412C362.726 149.886 362.539 150.298 362.278 150.647C362.018 150.996 361.677 151.269 361.255 151.467C360.833 151.66 360.32 151.756 359.716 151.756C359.304 151.756 358.927 151.696 358.583 151.577C358.244 151.457 357.953 151.272 357.708 151.022C357.463 150.772 357.273 150.446 357.138 150.045C357.007 149.644 356.942 149.162 356.942 148.6V143.147H358.388V148.616C358.388 148.996 358.429 149.311 358.513 149.561C358.601 149.806 358.718 150.001 358.864 150.147C359.015 150.287 359.182 150.386 359.364 150.444C359.552 150.501 359.744 150.53 359.942 150.53C360.557 150.53 361.044 150.412 361.403 150.178C361.763 149.939 362.02 149.618 362.177 149.217C362.338 148.811 362.419 148.36 362.419 147.866ZM369.459 151.756C368.871 151.756 368.337 151.657 367.858 151.459C367.384 151.256 366.975 150.972 366.631 150.608C366.293 150.243 366.032 149.811 365.85 149.311C365.668 148.811 365.577 148.264 365.577 147.67V147.342C365.577 146.655 365.678 146.043 365.881 145.506C366.084 144.965 366.36 144.506 366.709 144.131C367.058 143.756 367.454 143.472 367.897 143.28C368.34 143.087 368.798 142.991 369.272 142.991C369.876 142.991 370.397 143.095 370.834 143.303C371.277 143.511 371.639 143.803 371.92 144.178C372.202 144.548 372.41 144.985 372.545 145.491C372.681 145.991 372.748 146.537 372.748 147.131V147.78H366.436V146.6H371.303V146.491C371.282 146.116 371.204 145.751 371.069 145.397C370.939 145.043 370.73 144.751 370.444 144.522C370.157 144.293 369.767 144.178 369.272 144.178C368.944 144.178 368.642 144.248 368.366 144.389C368.09 144.524 367.853 144.728 367.655 144.998C367.457 145.269 367.303 145.6 367.194 145.991C367.084 146.381 367.03 146.832 367.03 147.342V147.67C367.03 148.071 367.084 148.449 367.194 148.803C367.308 149.152 367.472 149.459 367.686 149.725C367.905 149.991 368.168 150.199 368.475 150.35C368.788 150.501 369.142 150.577 369.538 150.577C370.048 150.577 370.48 150.472 370.834 150.264C371.189 150.056 371.498 149.777 371.764 149.428L372.639 150.123C372.457 150.399 372.225 150.662 371.944 150.912C371.663 151.162 371.316 151.366 370.905 151.522C370.498 151.678 370.017 151.756 369.459 151.756Z" fill="white"/>
<rect width="38" height="2" transform="translate(333 118.6)" fill="#121212"/>
<path d="M343.164 122.68V123.6H338.898V122.68H343.164ZM339.121 115.069V123.6H337.99V115.069H339.121ZM348.183 122.516V119.252C348.183 119.002 348.132 118.786 348.031 118.602C347.933 118.414 347.785 118.27 347.586 118.168C347.386 118.067 347.14 118.016 346.847 118.016C346.574 118.016 346.334 118.063 346.127 118.157C345.923 118.25 345.763 118.373 345.646 118.526C345.533 118.678 345.476 118.842 345.476 119.018H344.392C344.392 118.791 344.451 118.567 344.568 118.344C344.685 118.121 344.853 117.92 345.072 117.741C345.295 117.557 345.56 117.412 345.869 117.307C346.181 117.198 346.529 117.143 346.912 117.143C347.373 117.143 347.779 117.221 348.13 117.377C348.486 117.534 348.763 117.77 348.963 118.086C349.166 118.399 349.267 118.791 349.267 119.264V122.217C349.267 122.428 349.285 122.653 349.32 122.891C349.359 123.129 349.416 123.334 349.49 123.506V123.6H348.359C348.304 123.475 348.261 123.309 348.23 123.102C348.199 122.891 348.183 122.696 348.183 122.516ZM348.371 119.756L348.382 120.518H347.287C346.978 120.518 346.703 120.543 346.461 120.594C346.218 120.641 346.015 120.713 345.851 120.811C345.687 120.909 345.562 121.032 345.476 121.18C345.39 121.325 345.347 121.495 345.347 121.69C345.347 121.889 345.392 122.071 345.482 122.235C345.572 122.399 345.707 122.53 345.886 122.627C346.07 122.721 346.295 122.768 346.56 122.768C346.892 122.768 347.185 122.698 347.439 122.557C347.693 122.416 347.894 122.245 348.043 122.041C348.195 121.838 348.277 121.641 348.289 121.45L348.752 121.971C348.724 122.135 348.65 122.317 348.529 122.516C348.408 122.715 348.246 122.907 348.043 123.09C347.843 123.27 347.605 123.42 347.328 123.541C347.054 123.659 346.746 123.717 346.402 123.717C345.972 123.717 345.595 123.633 345.271 123.465C344.951 123.297 344.701 123.073 344.521 122.791C344.345 122.506 344.257 122.188 344.257 121.836C344.257 121.496 344.324 121.198 344.457 120.94C344.589 120.678 344.781 120.461 345.031 120.289C345.281 120.114 345.582 119.981 345.933 119.891C346.285 119.801 346.677 119.756 347.111 119.756H348.371ZM351.116 114.6H352.206V122.37L352.113 123.6H351.116V114.6ZM356.489 120.377V120.5C356.489 120.961 356.435 121.389 356.325 121.784C356.216 122.174 356.056 122.514 355.845 122.803C355.634 123.092 355.376 123.317 355.071 123.477C354.767 123.637 354.417 123.717 354.023 123.717C353.62 123.717 353.267 123.649 352.962 123.512C352.661 123.371 352.407 123.17 352.2 122.909C351.993 122.647 351.827 122.33 351.702 121.959C351.581 121.588 351.497 121.17 351.45 120.705V120.166C351.497 119.698 351.581 119.278 351.702 118.907C351.827 118.536 351.993 118.219 352.2 117.957C352.407 117.692 352.661 117.491 352.962 117.354C353.263 117.213 353.613 117.143 354.011 117.143C354.409 117.143 354.763 117.221 355.071 117.377C355.38 117.53 355.638 117.748 355.845 118.034C356.056 118.319 356.216 118.661 356.325 119.059C356.435 119.453 356.489 119.893 356.489 120.377ZM355.4 120.5V120.377C355.4 120.061 355.37 119.764 355.312 119.487C355.253 119.205 355.159 118.959 355.03 118.748C354.902 118.534 354.732 118.366 354.521 118.245C354.31 118.12 354.05 118.057 353.741 118.057C353.468 118.057 353.23 118.104 353.027 118.198C352.827 118.291 352.657 118.418 352.517 118.578C352.376 118.735 352.261 118.914 352.171 119.118C352.085 119.317 352.021 119.524 351.978 119.739V121.151C352.04 121.424 352.142 121.688 352.282 121.942C352.427 122.192 352.618 122.397 352.857 122.557C353.099 122.717 353.398 122.797 353.753 122.797C354.046 122.797 354.296 122.739 354.503 122.621C354.714 122.5 354.884 122.334 355.013 122.123C355.146 121.912 355.243 121.668 355.306 121.391C355.368 121.114 355.4 120.817 355.4 120.5ZM360.641 123.717C360.2 123.717 359.8 123.643 359.44 123.495C359.085 123.342 358.778 123.129 358.52 122.856C358.266 122.582 358.071 122.258 357.934 121.883C357.798 121.508 357.729 121.098 357.729 120.653V120.407C357.729 119.891 357.805 119.432 357.958 119.03C358.11 118.623 358.317 118.28 358.579 117.998C358.841 117.717 359.138 117.504 359.47 117.36C359.802 117.215 360.145 117.143 360.501 117.143C360.954 117.143 361.345 117.221 361.673 117.377C362.005 117.534 362.276 117.752 362.487 118.034C362.698 118.311 362.854 118.639 362.956 119.018C363.057 119.393 363.108 119.803 363.108 120.248V120.735H358.374V119.85H362.024V119.768C362.009 119.487 361.95 119.213 361.848 118.948C361.751 118.682 361.595 118.463 361.38 118.291C361.165 118.12 360.872 118.034 360.501 118.034C360.255 118.034 360.028 118.086 359.821 118.192C359.614 118.293 359.436 118.446 359.288 118.649C359.139 118.852 359.024 119.1 358.942 119.393C358.86 119.686 358.819 120.024 358.819 120.407V120.653C358.819 120.953 358.86 121.237 358.942 121.502C359.028 121.764 359.151 121.995 359.311 122.194C359.475 122.393 359.673 122.549 359.903 122.662C360.138 122.776 360.403 122.832 360.7 122.832C361.083 122.832 361.407 122.754 361.673 122.598C361.938 122.442 362.171 122.233 362.37 121.971L363.026 122.493C362.889 122.7 362.716 122.897 362.505 123.084C362.294 123.272 362.034 123.424 361.725 123.541C361.421 123.659 361.059 123.717 360.641 123.717ZM365.702 114.6V123.6H364.612V114.6H365.702Z" fill="white" fill-opacity="0.7"/>
<rect x="77.5" y="119.1" width="219" height="55" rx="3.5" stroke="#F44336"/>
<path d="M93.9922 149.873L97.3438 140.225H98.9766L94.7656 151.6H93.6016L93.9922 149.873ZM90.8594 140.225L94.1797 149.873L94.5938 151.6H93.4297L89.2266 140.225H90.8594ZM105.064 150.155V145.803C105.064 145.47 104.996 145.181 104.861 144.936C104.731 144.686 104.533 144.493 104.267 144.358C104.002 144.222 103.673 144.155 103.283 144.155C102.918 144.155 102.598 144.217 102.322 144.342C102.051 144.467 101.837 144.631 101.681 144.834C101.53 145.037 101.455 145.256 101.455 145.491H100.009C100.009 145.189 100.087 144.889 100.244 144.592C100.4 144.295 100.624 144.027 100.916 143.787C101.212 143.543 101.567 143.35 101.978 143.209C102.395 143.064 102.858 142.991 103.369 142.991C103.983 142.991 104.525 143.095 104.994 143.303C105.468 143.511 105.837 143.827 106.103 144.248C106.374 144.665 106.509 145.189 106.509 145.819V149.756C106.509 150.037 106.533 150.337 106.58 150.655C106.632 150.972 106.707 151.246 106.806 151.475V151.6H105.298C105.226 151.433 105.168 151.212 105.127 150.936C105.085 150.655 105.064 150.394 105.064 150.155ZM105.314 146.475L105.33 147.491H103.869C103.457 147.491 103.09 147.524 102.767 147.592C102.444 147.655 102.173 147.751 101.955 147.881C101.736 148.011 101.569 148.175 101.455 148.373C101.34 148.566 101.283 148.793 101.283 149.053C101.283 149.319 101.343 149.561 101.462 149.78C101.582 149.998 101.762 150.173 102.002 150.303C102.246 150.428 102.546 150.491 102.9 150.491C103.343 150.491 103.733 150.397 104.072 150.209C104.41 150.022 104.679 149.793 104.877 149.522C105.08 149.251 105.189 148.988 105.205 148.733L105.822 149.428C105.785 149.647 105.686 149.889 105.525 150.155C105.364 150.42 105.147 150.675 104.877 150.92C104.611 151.16 104.293 151.36 103.923 151.522C103.559 151.678 103.147 151.756 102.689 151.756C102.116 151.756 101.614 151.644 101.181 151.42C100.754 151.196 100.421 150.897 100.181 150.522C99.9469 150.142 99.8297 149.717 99.8297 149.248C99.8297 148.795 99.9182 148.397 100.095 148.053C100.272 147.704 100.528 147.415 100.861 147.186C101.194 146.952 101.595 146.774 102.064 146.655C102.533 146.535 103.056 146.475 103.634 146.475H105.314ZM110.503 139.6V151.6H109.05V139.6H110.503ZM118.145 149.647V143.147H119.598V151.6H118.216L118.145 149.647ZM118.419 147.866L119.02 147.85C119.02 148.412 118.96 148.933 118.841 149.412C118.726 149.886 118.539 150.298 118.278 150.647C118.018 150.996 117.677 151.269 117.255 151.467C116.833 151.66 116.32 151.756 115.716 151.756C115.304 151.756 114.927 151.696 114.583 151.577C114.244 151.457 113.953 151.272 113.708 151.022C113.463 150.772 113.273 150.446 113.138 150.045C113.007 149.644 112.942 149.162 112.942 148.6V143.147H114.388V148.616C114.388 148.996 114.429 149.311 114.513 149.561C114.601 149.806 114.718 150.001 114.864 150.147C115.015 150.287 115.182 150.386 115.364 150.444C115.552 150.501 115.744 150.53 115.942 150.53C116.557 150.53 117.044 150.412 117.403 150.178C117.763 149.939 118.02 149.618 118.177 149.217C118.338 148.811 118.419 148.36 118.419 147.866ZM125.459 151.756C124.871 151.756 124.337 151.657 123.858 151.459C123.384 151.256 122.975 150.972 122.631 150.608C122.293 150.243 122.032 149.811 121.85 149.311C121.668 148.811 121.577 148.264 121.577 147.67V147.342C121.577 146.655 121.678 146.043 121.881 145.506C122.084 144.965 122.36 144.506 122.709 144.131C123.058 143.756 123.454 143.472 123.897 143.28C124.34 143.087 124.798 142.991 125.272 142.991C125.876 142.991 126.397 143.095 126.834 143.303C127.277 143.511 127.639 143.803 127.92 144.178C128.202 144.548 128.41 144.985 128.545 145.491C128.681 145.991 128.748 146.537 128.748 147.131V147.78H122.436V146.6H127.303V146.491C127.282 146.116 127.204 145.751 127.069 145.397C126.939 145.043 126.73 144.751 126.444 144.522C126.157 144.293 125.767 144.178 125.272 144.178C124.944 144.178 124.642 144.248 124.366 144.389C124.09 144.524 123.853 144.728 123.655 144.998C123.457 145.269 123.303 145.6 123.194 145.991C123.084 146.381 123.03 146.832 123.03 147.342V147.67C123.03 148.071 123.084 148.449 123.194 148.803C123.308 149.152 123.472 149.459 123.686 149.725C123.905 149.991 124.168 150.199 124.475 150.35C124.788 150.501 125.142 150.577 125.538 150.577C126.048 150.577 126.48 150.472 126.834 150.264C127.189 150.056 127.498 149.777 127.764 149.428L128.639 150.123C128.457 150.399 128.225 150.662 127.944 150.912C127.663 151.162 127.316 151.366 126.905 151.522C126.498 151.678 126.017 151.756 125.459 151.756Z" fill="white"/>
<rect width="38" height="2" transform="translate(89 118.6)" fill="#121212"/>
<path d="M99.1641 122.68V123.6H94.8984V122.68H99.1641ZM95.1211 115.069V123.6H93.9902V115.069H95.1211ZM104.183 122.516V119.252C104.183 119.002 104.132 118.786 104.031 118.602C103.933 118.414 103.785 118.27 103.586 118.168C103.386 118.067 103.14 118.016 102.847 118.016C102.574 118.016 102.334 118.063 102.127 118.157C101.923 118.25 101.763 118.373 101.646 118.526C101.533 118.678 101.476 118.842 101.476 119.018H100.392C100.392 118.791 100.451 118.567 100.568 118.344C100.685 118.121 100.853 117.92 101.072 117.741C101.295 117.557 101.56 117.412 101.869 117.307C102.181 117.198 102.529 117.143 102.912 117.143C103.373 117.143 103.779 117.221 104.13 117.377C104.486 117.534 104.763 117.77 104.963 118.086C105.166 118.399 105.267 118.791 105.267 119.264V122.217C105.267 122.428 105.285 122.653 105.32 122.891C105.359 123.129 105.416 123.334 105.49 123.506V123.6H104.359C104.304 123.475 104.261 123.309 104.23 123.102C104.199 122.891 104.183 122.696 104.183 122.516ZM104.371 119.756L104.382 120.518H103.287C102.978 120.518 102.703 120.543 102.461 120.594C102.218 120.641 102.015 120.713 101.851 120.811C101.687 120.909 101.562 121.032 101.476 121.18C101.39 121.325 101.347 121.495 101.347 121.69C101.347 121.889 101.392 122.071 101.482 122.235C101.572 122.399 101.707 122.53 101.886 122.627C102.07 122.721 102.295 122.768 102.56 122.768C102.892 122.768 103.185 122.698 103.439 122.557C103.693 122.416 103.894 122.245 104.043 122.041C104.195 121.838 104.277 121.641 104.289 121.45L104.752 121.971C104.724 122.135 104.65 122.317 104.529 122.516C104.408 122.715 104.246 122.907 104.043 123.09C103.843 123.27 103.605 123.42 103.328 123.541C103.054 123.659 102.746 123.717 102.402 123.717C101.972 123.717 101.595 123.633 101.271 123.465C100.951 123.297 100.701 123.073 100.521 122.791C100.345 122.506 100.257 122.188 100.257 121.836C100.257 121.496 100.324 121.198 100.457 120.94C100.589 120.678 100.781 120.461 101.031 120.289C101.281 120.114 101.582 119.981 101.933 119.891C102.285 119.801 102.677 119.756 103.111 119.756H104.371ZM107.116 114.6H108.206V122.37L108.113 123.6H107.116V114.6ZM112.489 120.377V120.5C112.489 120.961 112.435 121.389 112.325 121.784C112.216 122.174 112.056 122.514 111.845 122.803C111.634 123.092 111.376 123.317 111.071 123.477C110.767 123.637 110.417 123.717 110.023 123.717C109.62 123.717 109.267 123.649 108.962 123.512C108.661 123.371 108.407 123.17 108.2 122.909C107.993 122.647 107.827 122.33 107.702 121.959C107.581 121.588 107.497 121.17 107.45 120.705V120.166C107.497 119.698 107.581 119.278 107.702 118.907C107.827 118.536 107.993 118.219 108.2 117.957C108.407 117.692 108.661 117.491 108.962 117.354C109.263 117.213 109.613 117.143 110.011 117.143C110.409 117.143 110.763 117.221 111.071 117.377C111.38 117.53 111.638 117.748 111.845 118.034C112.056 118.319 112.216 118.661 112.325 119.059C112.435 119.453 112.489 119.893 112.489 120.377ZM111.4 120.5V120.377C111.4 120.061 111.37 119.764 111.312 119.487C111.253 119.205 111.159 118.959 111.03 118.748C110.902 118.534 110.732 118.366 110.521 118.245C110.31 118.12 110.05 118.057 109.741 118.057C109.468 118.057 109.23 118.104 109.027 118.198C108.827 118.291 108.657 118.418 108.517 118.578C108.376 118.735 108.261 118.914 108.171 119.118C108.085 119.317 108.021 119.524 107.978 119.739V121.151C108.04 121.424 108.142 121.688 108.282 121.942C108.427 122.192 108.618 122.397 108.857 122.557C109.099 122.717 109.398 122.797 109.753 122.797C110.046 122.797 110.296 122.739 110.503 122.621C110.714 122.5 110.884 122.334 111.013 122.123C111.146 121.912 111.243 121.668 111.306 121.391C111.368 121.114 111.4 120.817 111.4 120.5ZM116.641 123.717C116.2 123.717 115.8 123.643 115.44 123.495C115.085 123.342 114.778 123.129 114.52 122.856C114.266 122.582 114.071 122.258 113.934 121.883C113.798 121.508 113.729 121.098 113.729 120.653V120.407C113.729 119.891 113.805 119.432 113.958 119.03C114.11 118.623 114.317 118.28 114.579 117.998C114.841 117.717 115.138 117.504 115.47 117.36C115.802 117.215 116.145 117.143 116.501 117.143C116.954 117.143 117.345 117.221 117.673 117.377C118.005 117.534 118.276 117.752 118.487 118.034C118.698 118.311 118.854 118.639 118.956 119.018C119.057 119.393 119.108 119.803 119.108 120.248V120.735H114.374V119.85H118.024V119.768C118.009 119.487 117.95 119.213 117.848 118.948C117.751 118.682 117.595 118.463 117.38 118.291C117.165 118.12 116.872 118.034 116.501 118.034C116.255 118.034 116.028 118.086 115.821 118.192C115.614 118.293 115.436 118.446 115.288 118.649C115.139 118.852 115.024 119.1 114.942 119.393C114.86 119.686 114.819 120.024 114.819 120.407V120.653C114.819 120.953 114.86 121.237 114.942 121.502C115.028 121.764 115.151 121.995 115.311 122.194C115.475 122.393 115.673 122.549 115.903 122.662C116.138 122.776 116.403 122.832 116.7 122.832C117.083 122.832 117.407 122.754 117.673 122.598C117.938 122.442 118.171 122.233 118.37 121.971L119.026 122.493C118.889 122.7 118.716 122.897 118.505 123.084C118.294 123.272 118.034 123.424 117.725 123.541C117.421 123.659 117.059 123.717 116.641 123.717ZM121.702 114.6V123.6H120.612V114.6H121.702Z" fill="#F44336"/>
<path d="M95.5625 186.737V187.657H90.9453V186.737H95.5625ZM91.1211 183.069V191.6H89.9902V183.069H91.1211ZM96.5469 183.069V191.6H95.4219V183.069H96.5469ZM101.423 191.717C100.982 191.717 100.582 191.643 100.222 191.495C99.8668 191.342 99.5602 191.129 99.3023 190.856C99.0484 190.582 98.8531 190.258 98.7164 189.883C98.5797 189.508 98.5113 189.098 98.5113 188.653V188.407C98.5113 187.891 98.5875 187.432 98.7398 187.03C98.8922 186.623 99.0992 186.28 99.3609 185.998C99.6227 185.717 99.9195 185.504 100.252 185.36C100.584 185.215 100.927 185.143 101.283 185.143C101.736 185.143 102.127 185.221 102.455 185.377C102.787 185.534 103.058 185.752 103.269 186.034C103.48 186.311 103.636 186.639 103.738 187.018C103.839 187.393 103.89 187.803 103.89 188.248V188.735H99.1559V187.85H102.806V187.768C102.791 187.487 102.732 187.213 102.63 186.948C102.533 186.682 102.377 186.463 102.162 186.291C101.947 186.12 101.654 186.034 101.283 186.034C101.037 186.034 100.81 186.086 100.603 186.192C100.396 186.293 100.218 186.446 100.07 186.649C99.9215 186.852 99.8062 187.1 99.7242 187.393C99.6422 187.686 99.6012 188.024 99.6012 188.407V188.653C99.6012 188.953 99.6422 189.237 99.7242 189.502C99.8102 189.764 99.9332 189.995 100.093 190.194C100.257 190.393 100.455 190.549 100.685 190.662C100.92 190.776 101.185 190.832 101.482 190.832C101.865 190.832 102.189 190.754 102.455 190.598C102.72 190.442 102.953 190.233 103.152 189.971L103.808 190.493C103.671 190.7 103.498 190.897 103.287 191.084C103.076 191.272 102.816 191.424 102.507 191.541C102.203 191.659 101.841 191.717 101.423 191.717ZM106.734 182.6V191.6H105.644V182.6H106.734ZM109.958 186.479V194.037H108.868V185.26H109.864L109.958 186.479ZM114.229 188.377V188.5C114.229 188.961 114.175 189.389 114.065 189.784C113.956 190.174 113.796 190.514 113.585 190.803C113.378 191.092 113.122 191.317 112.817 191.477C112.513 191.637 112.163 191.717 111.768 191.717C111.366 191.717 111.011 191.651 110.702 191.518C110.393 191.385 110.132 191.192 109.917 190.938C109.702 190.684 109.53 190.379 109.401 190.024C109.276 189.668 109.19 189.268 109.143 188.823V188.166C109.19 187.698 109.278 187.278 109.407 186.907C109.536 186.536 109.706 186.219 109.917 185.957C110.132 185.692 110.391 185.491 110.696 185.354C111.001 185.213 111.352 185.143 111.751 185.143C112.149 185.143 112.503 185.221 112.811 185.377C113.12 185.53 113.38 185.748 113.591 186.034C113.802 186.319 113.96 186.661 114.065 187.059C114.175 187.453 114.229 187.893 114.229 188.377ZM113.139 188.5V188.377C113.139 188.061 113.106 187.764 113.04 187.487C112.973 187.205 112.87 186.959 112.729 186.748C112.593 186.534 112.417 186.366 112.202 186.245C111.987 186.12 111.731 186.057 111.434 186.057C111.161 186.057 110.923 186.104 110.72 186.198C110.52 186.291 110.35 186.418 110.21 186.578C110.069 186.735 109.954 186.914 109.864 187.118C109.778 187.317 109.714 187.524 109.671 187.739V189.256C109.749 189.53 109.858 189.787 109.999 190.03C110.139 190.268 110.327 190.461 110.561 190.61C110.796 190.754 111.091 190.827 111.446 190.827C111.739 190.827 111.991 190.766 112.202 190.645C112.417 190.52 112.593 190.35 112.729 190.135C112.87 189.92 112.973 189.674 113.04 189.397C113.106 189.116 113.139 188.817 113.139 188.5ZM118.643 191.717C118.202 191.717 117.801 191.643 117.442 191.495C117.086 191.342 116.78 191.129 116.522 190.856C116.268 190.582 116.073 190.258 115.936 189.883C115.799 189.508 115.731 189.098 115.731 188.653V188.407C115.731 187.891 115.807 187.432 115.959 187.03C116.112 186.623 116.319 186.28 116.58 185.998C116.842 185.717 117.139 185.504 117.471 185.36C117.803 185.215 118.147 185.143 118.502 185.143C118.955 185.143 119.346 185.221 119.674 185.377C120.006 185.534 120.278 185.752 120.489 186.034C120.7 186.311 120.856 186.639 120.957 187.018C121.059 187.393 121.11 187.803 121.11 188.248V188.735H116.375V187.85H120.026V187.768C120.01 187.487 119.952 187.213 119.85 186.948C119.752 186.682 119.596 186.463 119.381 186.291C119.166 186.12 118.873 186.034 118.502 186.034C118.256 186.034 118.03 186.086 117.823 186.192C117.616 186.293 117.438 186.446 117.289 186.649C117.141 186.852 117.026 187.1 116.944 187.393C116.862 187.686 116.821 188.024 116.821 188.407V188.653C116.821 188.953 116.862 189.237 116.944 189.502C117.03 189.764 117.153 189.995 117.313 190.194C117.477 190.393 117.674 190.549 117.905 190.662C118.139 190.776 118.405 190.832 118.702 190.832C119.084 190.832 119.409 190.754 119.674 190.598C119.94 190.442 120.172 190.233 120.371 189.971L121.028 190.493C120.891 190.7 120.717 190.897 120.506 191.084C120.295 191.272 120.036 191.424 119.727 191.541C119.422 191.659 119.061 191.717 118.643 191.717ZM123.859 186.256V191.6H122.775V185.26H123.83L123.859 186.256ZM125.84 185.225L125.834 186.233C125.744 186.213 125.658 186.202 125.576 186.198C125.498 186.19 125.408 186.186 125.307 186.186C125.057 186.186 124.836 186.225 124.645 186.303C124.453 186.381 124.291 186.491 124.158 186.631C124.025 186.772 123.92 186.94 123.842 187.135C123.768 187.327 123.719 187.537 123.695 187.768L123.391 187.944C123.391 187.561 123.428 187.202 123.502 186.866C123.58 186.53 123.699 186.233 123.859 185.975C124.02 185.713 124.223 185.51 124.469 185.366C124.719 185.217 125.016 185.143 125.359 185.143C125.438 185.143 125.527 185.153 125.629 185.172C125.73 185.188 125.801 185.205 125.84 185.225ZM133.273 185.26V186.092H129.845V185.26H133.273ZM131.005 183.719H132.089V190.03C132.089 190.245 132.122 190.407 132.189 190.516C132.255 190.625 132.341 190.698 132.446 190.733C132.552 190.768 132.665 190.786 132.786 190.786C132.876 190.786 132.97 190.778 133.068 190.762C133.169 190.743 133.245 190.727 133.296 190.715L133.302 191.6C133.216 191.627 133.103 191.653 132.962 191.676C132.825 191.703 132.659 191.717 132.464 191.717C132.198 191.717 131.954 191.664 131.732 191.559C131.509 191.453 131.331 191.278 131.198 191.032C131.07 190.782 131.005 190.446 131.005 190.024V183.719ZM137.575 191.717C137.134 191.717 136.733 191.643 136.374 191.495C136.018 191.342 135.712 191.129 135.454 190.856C135.2 190.582 135.005 190.258 134.868 189.883C134.731 189.508 134.663 189.098 134.663 188.653V188.407C134.663 187.891 134.739 187.432 134.891 187.03C135.044 186.623 135.251 186.28 135.513 185.998C135.774 185.717 136.071 185.504 136.403 185.36C136.735 185.215 137.079 185.143 137.434 185.143C137.888 185.143 138.278 185.221 138.606 185.377C138.938 185.534 139.21 185.752 139.421 186.034C139.632 186.311 139.788 186.639 139.889 187.018C139.991 187.393 140.042 187.803 140.042 188.248V188.735H135.307V187.85H138.958V187.768C138.942 187.487 138.884 187.213 138.782 186.948C138.684 186.682 138.528 186.463 138.313 186.291C138.098 186.12 137.805 186.034 137.434 186.034C137.188 186.034 136.962 186.086 136.755 186.192C136.548 186.293 136.37 186.446 136.221 186.649C136.073 186.852 135.958 187.1 135.876 187.393C135.794 187.686 135.753 188.024 135.753 188.407V188.653C135.753 188.953 135.794 189.237 135.876 189.502C135.962 189.764 136.085 189.995 136.245 190.194C136.409 190.393 136.606 190.549 136.837 190.662C137.071 190.776 137.337 190.832 137.634 190.832C138.016 190.832 138.341 190.754 138.606 190.598C138.872 190.442 139.104 190.233 139.304 189.971L139.96 190.493C139.823 190.7 139.649 190.897 139.438 191.084C139.227 191.272 138.968 191.424 138.659 191.541C138.354 191.659 137.993 191.717 137.575 191.717ZM142.44 185.26L143.829 187.569L145.235 185.26H146.506L144.432 188.389L146.571 191.6H145.317L143.852 189.221L142.387 191.6H141.127L143.26 188.389L141.192 185.26H142.44ZM150.715 185.26V186.092H147.287V185.26H150.715ZM148.447 183.719H149.531V190.03C149.531 190.245 149.564 190.407 149.631 190.516C149.697 190.625 149.783 190.698 149.889 190.733C149.994 190.768 150.107 190.786 150.229 190.786C150.318 190.786 150.412 190.778 150.51 190.762C150.611 190.743 150.688 190.727 150.738 190.715L150.744 191.6C150.658 191.627 150.545 191.653 150.404 191.676C150.268 191.703 150.102 191.717 149.906 191.717C149.641 191.717 149.396 191.664 149.174 191.559C148.951 191.453 148.773 191.278 148.641 191.032C148.512 190.782 148.447 190.446 148.447 190.024V183.719Z" fill="#F44336"/>
</svg>
