<svg width="577" height="229" viewBox="0 0 577 229" fill="none" xmlns="http://www.w3.org/2000/svg">
<g clip-path="url(#clip0_1412_16230)">
<path d="M0 6.59997C0 3.28626 2.68629 0.599976 6 0.599976H571C574.314 0.599976 577 3.28627 577 6.59998V228.2H0V6.59997Z" fill="#1C1917"/>
<g filter="url(#filter0_d_1412_16230)">
<rect x="97" y="18.6" width="384.577" height="373.705" rx="16" fill="#262626"/>
<path d="M121.5 47.4L127.2 53C127.6 53.4 128.2 53.4 128.6 53C129 52.6 129 52 128.6 51.6L123.7 46.6L128.6 41.6C129 41.2 129 40.6 128.6 40.2C128.4 40 128.2 39.9 127.9 39.9C127.6 39.9 127.4 40 127.2 40.2L121.5 45.8C121.1 46.3 121.1 46.9 121.5 47.4C121.5 47.3 121.5 47.3 121.5 47.4Z" fill="white"/>
<path d="M237.265 51.6H235.156L238.996 40.6909H241.436L245.282 51.6H243.172L240.259 42.9281H240.173L237.265 51.6ZM237.334 47.3226H243.087V48.91H237.334V47.3226ZM249.943 54.8386C249.25 54.8386 248.655 54.7445 248.158 54.5563C247.661 54.3716 247.261 54.1231 246.96 53.8106C246.658 53.4981 246.448 53.1518 246.331 52.7719L248.068 52.351C248.146 52.5108 248.259 52.6689 248.408 52.8251C248.558 52.9849 248.758 53.1163 249.01 53.2193C249.266 53.3258 249.587 53.3791 249.975 53.3791C250.521 53.3791 250.974 53.2459 251.333 52.9796C251.691 52.7168 251.871 52.2836 251.871 51.6799V50.1298H251.775C251.676 50.3287 251.53 50.5329 251.338 50.7424C251.15 50.9519 250.9 51.1277 250.587 51.2697C250.278 51.4118 249.889 51.4828 249.421 51.4828C248.792 51.4828 248.222 51.3354 247.711 51.0407C247.203 50.7424 246.798 50.2985 246.496 49.709C246.198 49.116 246.049 48.3738 246.049 47.4824C246.049 46.584 246.198 45.8258 246.496 45.2079C246.798 44.5865 247.205 44.116 247.716 43.7964C248.227 43.4732 248.797 43.3116 249.426 43.3116C249.905 43.3116 250.299 43.3933 250.608 43.5567C250.921 43.7165 251.169 43.91 251.354 44.1373C251.539 44.361 251.679 44.5723 251.775 44.7711H251.881V43.4182H253.783V51.7331C253.783 52.4327 253.616 53.0116 253.282 53.4696C252.949 53.9277 252.492 54.2704 251.913 54.4977C251.335 54.725 250.678 54.8386 249.943 54.8386ZM249.959 49.97C250.367 49.97 250.715 49.8706 251.003 49.6717C251.29 49.4728 251.509 49.187 251.658 48.8141C251.807 48.4412 251.881 47.9938 251.881 47.4718C251.881 46.9569 251.807 46.5059 251.658 46.1188C251.512 45.7317 251.296 45.4317 251.008 45.2186C250.724 45.002 250.374 44.8937 249.959 44.8937C249.529 44.8937 249.17 45.0055 248.883 45.2292C248.595 45.453 248.378 45.7601 248.233 46.1508C248.087 46.5378 248.014 46.9782 248.014 47.4718C248.014 47.9725 248.087 48.4111 248.233 48.7875C248.382 49.1603 248.6 49.4515 248.888 49.6611C249.179 49.867 249.536 49.97 249.959 49.97ZM259.328 51.7598C258.529 51.7598 257.837 51.584 257.251 51.2324C256.665 50.8809 256.21 50.389 255.887 49.7569C255.568 49.1248 255.408 48.3862 255.408 47.541C255.408 46.6959 255.568 45.9554 255.887 45.3198C256.21 44.6841 256.665 44.1905 257.251 43.839C257.837 43.4874 258.529 43.3116 259.328 43.3116C260.127 43.3116 260.82 43.4874 261.406 43.839C261.992 44.1905 262.444 44.6841 262.764 45.3198C263.087 45.9554 263.249 46.6959 263.249 47.541C263.249 48.3862 263.087 49.1248 262.764 49.7569C262.444 50.389 261.992 50.8809 261.406 51.2324C260.82 51.584 260.127 51.7598 259.328 51.7598ZM259.339 50.215C259.772 50.215 260.134 50.0961 260.426 49.8581C260.717 49.6167 260.933 49.2935 261.075 48.8887C261.221 48.4839 261.294 48.0329 261.294 47.5357C261.294 47.035 261.221 46.5822 261.075 46.1774C260.933 45.769 260.717 45.4441 260.426 45.2026C260.134 44.9611 259.772 44.8404 259.339 44.8404C258.895 44.8404 258.526 44.9611 258.231 45.2026C257.94 45.4441 257.721 45.769 257.576 46.1774C257.434 46.5822 257.363 47.035 257.363 47.5357C257.363 48.0329 257.434 48.4839 257.576 48.8887C257.721 49.2935 257.94 49.6167 258.231 49.8581C258.526 50.0961 258.895 50.215 259.339 50.215ZM271.352 45.5808L269.594 45.7726C269.544 45.595 269.457 45.4281 269.333 45.2719C269.212 45.1156 269.049 44.9895 268.843 44.8937C268.637 44.7978 268.385 44.7498 268.087 44.7498C267.685 44.7498 267.348 44.8368 267.075 45.0108C266.805 45.1848 266.672 45.4103 266.675 45.6873C266.672 45.9253 266.759 46.1188 266.936 46.2679C267.117 46.4171 267.415 46.5396 267.831 46.6355L269.227 46.9338C270.001 47.1007 270.576 47.3652 270.952 47.7275C271.332 48.0897 271.524 48.5638 271.528 49.1497C271.524 49.6646 271.373 50.1192 271.075 50.5133C270.78 50.904 270.37 51.2094 269.844 51.4295C269.319 51.6497 268.715 51.7598 268.033 51.7598C267.032 51.7598 266.226 51.5503 265.615 51.1312C265.004 50.7086 264.64 50.1209 264.523 49.3681L266.403 49.187C266.489 49.5563 266.67 49.8351 266.947 50.0233C267.224 50.2115 267.584 50.3056 268.028 50.3056C268.486 50.3056 268.854 50.2115 269.131 50.0233C269.411 49.8351 269.551 49.6025 269.551 49.3255C269.551 49.0911 269.461 48.8976 269.28 48.7449C269.102 48.5922 268.825 48.475 268.449 48.3933L267.053 48.1003C266.268 47.937 265.688 47.6618 265.311 47.2747C264.935 46.8841 264.749 46.3905 264.752 45.7939C264.749 45.2896 264.885 44.8528 265.162 44.4835C265.443 44.1106 265.832 43.823 266.329 43.6206C266.83 43.4146 267.407 43.3116 268.06 43.3116C269.019 43.3116 269.773 43.5158 270.324 43.9242C270.878 44.3326 271.221 44.8848 271.352 45.5808ZM277.203 43.4182V44.9096H272.5V43.4182H277.203ZM273.661 41.4579H275.589V49.139C275.589 49.3983 275.628 49.5971 275.706 49.7356C275.788 49.8706 275.895 49.9629 276.026 50.0126C276.157 50.0623 276.303 50.0872 276.463 50.0872C276.584 50.0872 276.694 50.0783 276.793 50.0606C276.896 50.0428 276.974 50.0268 277.028 50.0126L277.352 51.5201C277.249 51.5556 277.102 51.5946 276.91 51.6373C276.722 51.6799 276.491 51.7047 276.218 51.7118C275.735 51.726 275.3 51.6532 274.913 51.4934C274.526 51.3301 274.219 51.078 273.991 50.737C273.768 50.3961 273.657 49.97 273.661 49.4586V41.4579ZM282.297 51.7598C281.498 51.7598 280.805 51.584 280.22 51.2324C279.634 50.8809 279.179 50.389 278.856 49.7569C278.536 49.1248 278.377 48.3862 278.377 47.541C278.377 46.6959 278.536 45.9554 278.856 45.3198C279.179 44.6841 279.634 44.1905 280.22 43.839C280.805 43.4874 281.498 43.3116 282.297 43.3116C283.096 43.3116 283.788 43.4874 284.374 43.839C284.96 44.1905 285.413 44.6841 285.733 45.3198C286.056 45.9554 286.217 46.6959 286.217 47.541C286.217 48.3862 286.056 49.1248 285.733 49.7569C285.413 50.389 284.96 50.8809 284.374 51.2324C283.788 51.584 283.096 51.7598 282.297 51.7598ZM282.308 50.215C282.741 50.215 283.103 50.0961 283.394 49.8581C283.685 49.6167 283.902 49.2935 284.044 48.8887C284.19 48.4839 284.263 48.0329 284.263 47.5357C284.263 47.035 284.19 46.5822 284.044 46.1774C283.902 45.769 283.685 45.4441 283.394 45.2026C283.103 44.9611 282.741 44.8404 282.308 44.8404C281.864 44.8404 281.494 44.9611 281.2 45.2026C280.908 45.4441 280.69 45.769 280.544 46.1774C280.402 46.5822 280.331 47.035 280.331 47.5357C280.331 48.0329 280.402 48.4839 280.544 48.8887C280.69 49.2935 280.908 49.6167 281.2 49.8581C281.494 50.0961 281.864 50.215 282.308 50.215ZM291.553 51.6V50.1724L295.341 46.4597C295.703 46.0939 296.005 45.769 296.246 45.4849C296.488 45.2008 296.669 44.9256 296.79 44.6593C296.91 44.3929 296.971 44.1089 296.971 43.807C296.971 43.4625 296.893 43.1678 296.736 42.9228C296.58 42.6742 296.365 42.4824 296.092 42.3475C295.818 42.2125 295.508 42.1451 295.16 42.1451C294.801 42.1451 294.487 42.2196 294.217 42.3688C293.947 42.5144 293.737 42.7221 293.588 42.992C293.443 43.2619 293.37 43.5833 293.37 43.9562H291.49C291.49 43.2637 291.648 42.6618 291.964 42.1504C292.28 41.639 292.715 41.2431 293.269 40.9625C293.826 40.682 294.465 40.5417 295.186 40.5417C295.918 40.5417 296.561 40.6785 297.115 40.9519C297.669 41.2253 298.098 41.6 298.404 42.0758C298.713 42.5517 298.867 43.095 298.867 43.7058C298.867 44.1142 298.789 44.5155 298.633 44.9096C298.476 45.3038 298.201 45.7406 297.807 46.22C297.416 46.6994 296.868 47.28 296.161 47.9618L294.281 49.8741V49.9487H299.032V51.6H291.553ZM304.902 51.8077C304.025 51.8077 303.272 51.5858 302.644 51.1419C302.019 50.6944 301.537 50.0499 301.2 49.2083C300.866 48.3631 300.699 47.3457 300.699 46.1561C300.703 44.9665 300.872 43.9544 301.205 43.1199C301.543 42.2818 302.024 41.6426 302.649 41.2022C303.278 40.7619 304.029 40.5417 304.902 40.5417C305.776 40.5417 306.527 40.7619 307.155 41.2022C307.784 41.6426 308.265 42.2818 308.599 43.1199C308.936 43.9579 309.105 44.97 309.105 46.1561C309.105 47.3493 308.936 48.3684 308.599 49.2136C308.265 50.0552 307.784 50.698 307.155 51.1419C306.53 51.5858 305.779 51.8077 304.902 51.8077ZM304.902 50.1405C305.584 50.1405 306.122 49.8049 306.516 49.1337C306.914 48.459 307.113 47.4665 307.113 46.1561C307.113 45.2896 307.022 44.5616 306.841 43.9721C306.66 43.3826 306.404 42.9388 306.074 42.6405C305.744 42.3386 305.353 42.1877 304.902 42.1877C304.224 42.1877 303.688 42.525 303.294 43.1998C302.899 43.8709 302.7 44.8564 302.697 46.1561C302.693 47.0261 302.78 47.7576 302.958 48.3507C303.139 48.9437 303.395 49.3912 303.725 49.693C304.055 49.9913 304.448 50.1405 304.902 50.1405ZM310.875 51.6V50.1724L314.662 46.4597C315.024 46.0939 315.326 45.769 315.568 45.4849C315.809 45.2008 315.99 44.9256 316.111 44.6593C316.232 44.3929 316.292 44.1089 316.292 43.807C316.292 43.4625 316.214 43.1678 316.058 42.9228C315.901 42.6742 315.687 42.4824 315.413 42.3475C315.14 42.2125 314.829 42.1451 314.481 42.1451C314.122 42.1451 313.808 42.2196 313.538 42.3688C313.268 42.5144 313.059 42.7221 312.91 42.992C312.764 43.2619 312.691 43.5833 312.691 43.9562H310.811C310.811 43.2637 310.969 42.6618 311.285 42.1504C311.601 41.639 312.036 41.2431 312.59 40.9625C313.147 40.682 313.787 40.5417 314.508 40.5417C315.239 40.5417 315.882 40.6785 316.436 40.9519C316.99 41.2253 317.419 41.6 317.725 42.0758C318.034 42.5517 318.188 43.095 318.188 43.7058C318.188 44.1142 318.11 44.5155 317.954 44.9096C317.798 45.3038 317.522 45.7406 317.128 46.22C316.738 46.6994 316.189 47.28 315.482 47.9618L313.602 49.8741V49.9487L318.353 49.9487V51.6H310.875ZM319.76 49.5758V48.0044L324.389 40.6909H325.699V42.9281H324.9L321.784 47.866V47.9512H328.245V49.5758H319.76ZM324.964 51.6V49.0964L324.985 48.3933V40.6909H326.85V51.6H324.964Z" fill="white"/>
<path d="M341.538 44.4774C341.397 44.3377 341.207 44.2593 341.009 44.2593C340.811 44.2593 340.621 44.3377 340.48 44.4774L337.788 47.1324L335.133 44.4774C334.992 44.3377 334.802 44.2593 334.604 44.2593C334.406 44.2593 334.216 44.3377 334.075 44.4774C334.005 44.5471 333.949 44.63 333.911 44.7214C333.873 44.8128 333.854 44.9109 333.854 45.0099C333.854 45.1089 333.873 45.2069 333.911 45.2983C333.949 45.3897 334.005 45.4726 334.075 45.5424L337.255 48.7224C337.325 48.7927 337.408 48.8485 337.499 48.8865C337.591 48.9246 337.689 48.9442 337.788 48.9442C337.887 48.9442 337.985 48.9246 338.076 48.8865C338.168 48.8485 338.251 48.7927 338.32 48.7224L341.538 45.5424C341.608 45.4726 341.664 45.3897 341.702 45.2983C341.74 45.2069 341.76 45.1089 341.76 45.0099C341.76 44.9109 341.74 44.8128 341.702 44.7214C341.664 44.63 341.608 44.5471 341.538 44.4774Z" fill="white"/>
<path d="M457.117 45.89L451.457 40.24C451.364 40.1463 451.253 40.0719 451.131 40.0211C451.01 39.9704 450.879 39.9442 450.747 39.9442C450.615 39.9442 450.484 39.9704 450.362 40.0211C450.24 40.0719 450.13 40.1463 450.037 40.24C449.851 40.4274 449.746 40.6808 449.746 40.945C449.746 41.2092 449.851 41.4627 450.037 41.65L454.987 46.65L450.037 51.6C449.851 51.7874 449.746 52.0408 449.746 52.305C449.746 52.5692 449.851 52.8226 450.037 53.01C450.13 53.1045 450.24 53.1797 450.362 53.2312C450.484 53.2827 450.615 53.3095 450.747 53.31C450.879 53.3095 451.01 53.2827 451.132 53.2312C451.254 53.1797 451.364 53.1045 451.457 53.01L457.117 47.36C457.218 47.2664 457.299 47.1527 457.355 47.0262C457.41 46.8997 457.439 46.7631 457.439 46.625C457.439 46.4869 457.41 46.3503 457.355 46.2238C457.299 46.0973 457.218 45.9837 457.117 45.89Z" fill="white"/>
<path d="M133.051 93.7992C133.015 93.458 132.861 93.1924 132.59 93.0023C132.322 92.8122 131.973 92.7172 131.543 92.7172C131.241 92.7172 130.982 92.7627 130.766 92.8539C130.55 92.945 130.385 93.0687 130.27 93.225C130.155 93.3812 130.097 93.5596 130.094 93.7601C130.094 93.9268 130.132 94.0713 130.208 94.1937C130.286 94.3161 130.391 94.4203 130.524 94.5062C130.657 94.5896 130.804 94.6599 130.965 94.7172C131.127 94.7745 131.29 94.8226 131.454 94.8617L132.204 95.0492C132.506 95.1195 132.796 95.2146 133.075 95.3344C133.356 95.4541 133.607 95.6052 133.829 95.7875C134.053 95.9698 134.23 96.1898 134.36 96.4476C134.49 96.7054 134.555 97.0075 134.555 97.3539C134.555 97.8226 134.435 98.2354 134.196 98.5922C133.956 98.9463 133.61 99.2237 133.157 99.4242C132.706 99.6221 132.161 99.7211 131.52 99.7211C130.898 99.7211 130.357 99.6247 129.899 99.432C129.443 99.2393 129.086 98.958 128.829 98.5883C128.573 98.2185 128.435 97.7679 128.415 97.2367H129.84C129.861 97.5153 129.947 97.7471 130.098 97.932C130.249 98.1169 130.446 98.2549 130.688 98.3461C130.933 98.4372 131.206 98.4828 131.508 98.4828C131.823 98.4828 132.099 98.4359 132.336 98.3422C132.576 98.2458 132.763 98.113 132.899 97.9437C133.034 97.7719 133.103 97.5713 133.106 97.3422C133.103 97.1338 133.042 96.962 132.922 96.8265C132.803 96.6885 132.635 96.5739 132.418 96.4828C132.205 96.389 131.955 96.3057 131.668 96.2328L130.758 95.9984C130.099 95.8291 129.579 95.5726 129.196 95.2289C128.816 94.8825 128.625 94.4229 128.625 93.85C128.625 93.3786 128.753 92.9659 129.008 92.6117C129.266 92.2575 129.616 91.9828 130.059 91.7875C130.502 91.5896 131.003 91.4906 131.563 91.4906C132.131 91.4906 132.628 91.5896 133.055 91.7875C133.485 91.9828 133.822 92.2549 134.067 92.6039C134.312 92.9502 134.438 93.3487 134.446 93.7992H133.051ZM138.441 99.7172C137.839 99.7172 137.32 99.5922 136.882 99.3422C136.447 99.0896 136.113 98.7328 135.878 98.2719C135.644 97.8083 135.527 97.2627 135.527 96.6351C135.527 96.0179 135.644 95.4763 135.878 95.0101C136.115 94.5414 136.446 94.1768 136.871 93.9164C137.295 93.6534 137.794 93.5219 138.367 93.5219C138.736 93.5219 139.085 93.5817 139.414 93.7015C139.744 93.8187 140.036 94.001 140.289 94.2484C140.544 94.4958 140.744 94.8109 140.89 95.1937C141.036 95.5739 141.109 96.0271 141.109 96.5531V96.9867H136.191V96.0336H139.753C139.751 95.7627 139.692 95.5219 139.578 95.3109C139.463 95.0974 139.303 94.9294 139.097 94.807C138.894 94.6846 138.657 94.6234 138.386 94.6234C138.097 94.6234 137.843 94.6937 137.624 94.8344C137.406 94.9724 137.235 95.1547 137.113 95.3812C136.993 95.6052 136.932 95.8513 136.929 96.1195V96.9515C136.929 97.3005 136.993 97.6 137.121 97.85C137.248 98.0974 137.427 98.2875 137.656 98.4203C137.885 98.5505 138.153 98.6156 138.46 98.6156C138.666 98.6156 138.852 98.587 139.019 98.5297C139.186 98.4698 139.33 98.3825 139.453 98.2679C139.575 98.1534 139.667 98.0114 139.73 97.8422L141.05 97.9906C140.967 98.3396 140.808 98.6442 140.574 98.9047C140.342 99.1625 140.045 99.363 139.683 99.5062C139.321 99.6469 138.907 99.7172 138.441 99.7172ZM144.915 101.975C144.407 101.975 143.971 101.906 143.606 101.768C143.241 101.633 142.948 101.45 142.727 101.221C142.506 100.992 142.352 100.738 142.266 100.459L143.54 100.151C143.597 100.268 143.68 100.384 143.79 100.498C143.899 100.616 144.046 100.712 144.231 100.787C144.418 100.866 144.654 100.905 144.938 100.905C145.339 100.905 145.671 100.807 145.934 100.612C146.197 100.419 146.329 100.101 146.329 99.6586V98.5219H146.258C146.185 98.6677 146.079 98.8174 145.938 98.9711C145.8 99.1247 145.616 99.2536 145.387 99.3578C145.161 99.462 144.875 99.514 144.532 99.514C144.071 99.514 143.653 99.406 143.278 99.1898C142.905 98.9711 142.609 98.6455 142.387 98.2133C142.168 97.7784 142.059 97.2341 142.059 96.5804C142.059 95.9216 142.168 95.3656 142.387 94.9125C142.609 94.4567 142.907 94.1117 143.282 93.8773C143.657 93.6403 144.075 93.5219 144.536 93.5219C144.887 93.5219 145.176 93.5817 145.403 93.7015C145.632 93.8187 145.814 93.9607 145.95 94.1273C146.085 94.2914 146.188 94.4463 146.258 94.5922H146.336V93.6H147.731V99.6976C147.731 100.211 147.609 100.635 147.364 100.971C147.119 101.307 146.784 101.558 146.36 101.725C145.935 101.892 145.454 101.975 144.915 101.975ZM144.926 98.4047C145.226 98.4047 145.481 98.3317 145.692 98.1859C145.903 98.0401 146.063 97.8304 146.172 97.557C146.282 97.2836 146.336 96.9554 146.336 96.5726C146.336 96.195 146.282 95.8643 146.172 95.5804C146.066 95.2966 145.907 95.0765 145.696 94.9203C145.487 94.7614 145.231 94.682 144.926 94.682C144.611 94.682 144.348 94.764 144.137 94.9281C143.926 95.0922 143.767 95.3174 143.661 95.6039C143.554 95.8877 143.5 96.2107 143.5 96.5726C143.5 96.9398 143.554 97.2614 143.661 97.5375C143.77 97.8109 143.93 98.0245 144.141 98.1781C144.355 98.3291 144.616 98.4047 144.926 98.4047Z" fill="#F2F2F2"/>
<path d="M180.353 93.2903V92.0754H186.736V93.2903H184.263V100.075H182.826V93.2903H180.353ZM189.69 100.193C189.088 100.193 188.569 100.068 188.131 99.8176C187.696 99.565 187.362 99.2083 187.127 98.7473C186.893 98.2838 186.776 97.7382 186.776 97.1106C186.776 96.4934 186.893 95.9517 187.127 95.4856C187.364 95.0168 187.695 94.6523 188.12 94.3918C188.544 94.1288 189.043 93.9973 189.616 93.9973C189.985 93.9973 190.334 94.0572 190.663 94.177C190.993 94.2942 191.285 94.4765 191.538 94.7239C191.793 94.9713 191.993 95.2864 192.139 95.6692C192.285 96.0494 192.358 96.5025 192.358 97.0286V97.4622H187.44V96.509H191.002C191 96.2382 190.941 95.9973 190.827 95.7864C190.712 95.5728 190.552 95.4049 190.346 95.2825C190.143 95.1601 189.906 95.0989 189.635 95.0989C189.346 95.0989 189.092 95.1692 188.874 95.3098C188.655 95.4478 188.484 95.6301 188.362 95.8567C188.242 96.0806 188.181 96.3267 188.178 96.595V97.427C188.178 97.776 188.242 98.0754 188.37 98.3254C188.497 98.5728 188.676 98.7629 188.905 98.8958C189.134 99.026 189.402 99.0911 189.709 99.0911C189.915 99.0911 190.101 99.0624 190.268 99.0051C190.435 98.9452 190.579 98.858 190.702 98.7434C190.824 98.6288 190.916 98.4869 190.979 98.3176L192.299 98.4661C192.216 98.815 192.057 99.1197 191.823 99.3801C191.591 99.6379 191.294 99.8385 190.932 99.9817C190.57 100.122 190.156 100.193 189.69 100.193ZM193.554 100.075V94.0754H194.925V95.0754H194.988C195.097 94.7291 195.285 94.4622 195.55 94.2747C195.819 94.0846 196.124 93.9895 196.468 93.9895C196.546 93.9895 196.634 93.9934 196.73 94.0012C196.829 94.0064 196.911 94.0155 196.976 94.0286V95.3293C196.916 95.3085 196.821 95.2903 196.691 95.2747C196.563 95.2564 196.44 95.2473 196.32 95.2473C196.062 95.2473 195.83 95.3033 195.624 95.4153C195.421 95.5247 195.261 95.677 195.144 95.8723C195.027 96.0676 194.968 96.2929 194.968 96.5481V100.075H193.554Z" fill="#F2F2F2"/>
<path d="M231.921 97.3879H233.233L234.011 98.3958L234.565 99.052L235.897 100.763H234.491L233.585 99.6145L233.198 99.0676L231.921 97.3879ZM236.089 96.0754C236.089 96.9374 235.927 97.6757 235.604 98.2903C235.284 98.9023 234.847 99.371 234.292 99.6965C233.74 100.022 233.114 100.185 232.413 100.185C231.713 100.185 231.085 100.022 230.53 99.6965C229.978 99.3684 229.541 98.8984 229.218 98.2864C228.897 97.6718 228.737 96.9348 228.737 96.0754C228.737 95.2135 228.897 94.4765 229.218 93.8645C229.541 93.2499 229.978 92.7799 230.53 92.4543C231.085 92.1288 231.713 91.9661 232.413 91.9661C233.114 91.9661 233.74 92.1288 234.292 92.4543C234.847 92.7799 235.284 93.2499 235.604 93.8645C235.927 94.4765 236.089 95.2135 236.089 96.0754ZM234.632 96.0754C234.632 95.4687 234.537 94.9569 234.347 94.5403C234.159 94.121 233.899 93.8046 233.565 93.5911C233.232 93.3749 232.848 93.2668 232.413 93.2668C231.978 93.2668 231.594 93.3749 231.261 93.5911C230.927 93.8046 230.666 94.121 230.476 94.5403C230.288 94.9569 230.194 95.4687 230.194 96.0754C230.194 96.6822 230.288 97.1952 230.476 97.6145C230.666 98.0312 230.927 98.3476 231.261 98.5637C231.594 98.7773 231.978 98.884 232.413 98.884C232.848 98.884 233.232 98.7773 233.565 98.5637C233.899 98.3476 234.159 98.0312 234.347 97.6145C234.537 97.1952 234.632 96.6822 234.632 96.0754ZM241.231 97.552V94.0754H242.645V100.075H241.274V99.009H241.212C241.076 99.345 240.854 99.6197 240.544 99.8333C240.237 100.047 239.858 100.154 239.407 100.154C239.014 100.154 238.666 100.066 238.364 99.8918C238.065 99.7148 237.83 99.4583 237.661 99.1223C237.492 98.7838 237.407 98.3749 237.407 97.8958V94.0754H238.821V97.677C238.821 98.0572 238.925 98.3593 239.134 98.5833C239.342 98.8072 239.616 98.9192 239.954 98.9192C240.162 98.9192 240.364 98.8684 240.56 98.7668C240.755 98.6653 240.915 98.5142 241.04 98.3137C241.168 98.1106 241.231 97.8567 241.231 97.552ZM245.826 100.197C245.446 100.197 245.103 100.129 244.799 99.9934C244.497 99.8554 244.257 99.6523 244.08 99.384C243.906 99.1158 243.818 98.7851 243.818 98.3918C243.818 98.0533 243.881 97.7734 244.006 97.552C244.131 97.3306 244.301 97.1536 244.518 97.0208C244.734 96.8879 244.977 96.7877 245.248 96.72C245.521 96.6497 245.804 96.5989 246.096 96.5676C246.447 96.5312 246.732 96.4986 246.951 96.47C247.17 96.4387 247.329 96.3918 247.428 96.3293C247.529 96.2642 247.58 96.164 247.58 96.0286V96.0051C247.58 95.7109 247.493 95.483 247.318 95.3215C247.144 95.1601 246.893 95.0793 246.564 95.0793C246.218 95.0793 245.943 95.1549 245.74 95.3059C245.54 95.4569 245.404 95.6353 245.334 95.8411L244.014 95.6536C244.118 95.289 244.29 94.9843 244.529 94.7395C244.769 94.4921 245.062 94.3072 245.408 94.1848C245.755 94.0598 246.137 93.9973 246.557 93.9973C246.846 93.9973 247.133 94.0312 247.42 94.0989C247.706 94.1666 247.968 94.2786 248.205 94.4348C248.442 94.5885 248.632 94.7981 248.775 95.0637C248.921 95.3293 248.994 95.6614 248.994 96.0598V100.075H247.635V99.2512H247.588C247.502 99.4179 247.381 99.5741 247.225 99.72C247.071 99.8632 246.877 99.9791 246.643 100.068C246.411 100.154 246.139 100.197 245.826 100.197ZM246.193 99.1575C246.477 99.1575 246.723 99.1015 246.932 98.9895C247.14 98.8749 247.3 98.7239 247.412 98.5364C247.527 98.3489 247.584 98.1444 247.584 97.9231V97.2161C247.54 97.2525 247.464 97.2864 247.357 97.3176C247.253 97.3489 247.136 97.3762 247.006 97.3997C246.876 97.4231 246.747 97.4439 246.619 97.4622C246.492 97.4804 246.381 97.496 246.287 97.509C246.076 97.5377 245.887 97.5846 245.721 97.6497C245.554 97.7148 245.423 97.8059 245.326 97.9231C245.23 98.0377 245.182 98.1861 245.182 98.3684C245.182 98.6288 245.277 98.8254 245.467 98.9583C245.657 99.0911 245.899 99.1575 246.193 99.1575Z" fill="#F2F2F2"/>
<path d="M284.013 96.9125H285.326L286.103 97.9203L286.658 98.5765L287.99 100.287H286.583L285.677 99.139L285.291 98.5922L284.013 96.9125ZM288.181 95.6C288.181 96.462 288.02 97.2002 287.697 97.8148C287.376 98.4268 286.939 98.8955 286.384 99.2211C285.832 99.5466 285.206 99.7094 284.505 99.7094C283.805 99.7094 283.177 99.5466 282.623 99.2211C282.07 98.8929 281.633 98.4229 281.31 97.8109C280.99 97.1963 280.83 96.4594 280.83 95.6C280.83 94.738 280.99 94.001 281.31 93.389C281.633 92.7745 282.07 92.3044 282.623 91.9789C283.177 91.6534 283.805 91.4906 284.505 91.4906C285.206 91.4906 285.832 91.6534 286.384 91.9789C286.939 92.3044 287.376 92.7745 287.697 93.389C288.02 94.001 288.181 94.738 288.181 95.6ZM286.724 95.6C286.724 94.9932 286.629 94.4815 286.439 94.0648C286.251 93.6455 285.991 93.3291 285.658 93.1156C285.324 92.8995 284.94 92.7914 284.505 92.7914C284.07 92.7914 283.686 92.8995 283.353 93.1156C283.02 93.3291 282.758 93.6455 282.568 94.0648C282.38 94.4815 282.287 94.9932 282.287 95.6C282.287 96.2067 282.38 96.7198 282.568 97.139C282.758 97.5557 283.02 97.8721 283.353 98.0883C283.686 98.3018 284.07 98.4086 284.505 98.4086C284.94 98.4086 285.324 98.3018 285.658 98.0883C285.991 97.8721 286.251 97.5557 286.439 97.139C286.629 96.7198 286.724 96.2067 286.724 95.6ZM293.324 97.0765V93.6H294.738V99.6H293.367V98.5336H293.304C293.169 98.8695 292.946 99.1442 292.636 99.3578C292.329 99.5713 291.95 99.6781 291.499 99.6781C291.106 99.6781 290.759 99.5909 290.457 99.4164C290.157 99.2393 289.923 98.9828 289.753 98.6469C289.584 98.3083 289.499 97.8995 289.499 97.4203V93.6H290.914V97.2015C290.914 97.5817 291.018 97.8838 291.226 98.1078C291.434 98.3317 291.708 98.4437 292.046 98.4437C292.255 98.4437 292.457 98.3929 292.652 98.2914C292.847 98.1898 293.007 98.0388 293.132 97.8383C293.26 97.6351 293.324 97.3812 293.324 97.0765ZM296.192 99.6V93.6H297.606V99.6H296.192ZM296.903 92.7484C296.679 92.7484 296.486 92.6742 296.325 92.5258C296.163 92.3747 296.083 92.1937 296.083 91.9828C296.083 91.7692 296.163 91.5883 296.325 91.4398C296.486 91.2888 296.679 91.2133 296.903 91.2133C297.129 91.2133 297.322 91.2888 297.481 91.4398C297.642 91.5883 297.723 91.7692 297.723 91.9828C297.723 92.1937 297.642 92.3747 297.481 92.5258C297.322 92.6742 297.129 92.7484 296.903 92.7484Z" fill="#F2F2F2"/>
<path d="M334.932 94.2747C334.896 93.9335 334.742 93.6679 334.471 93.4778C334.203 93.2877 333.854 93.1926 333.424 93.1926C333.122 93.1926 332.863 93.2382 332.647 93.3293C332.431 93.4205 332.265 93.5442 332.151 93.7004C332.036 93.8567 331.978 94.0351 331.975 94.2356C331.975 94.4023 332.013 94.5468 332.088 94.6692C332.166 94.7916 332.272 94.8958 332.405 94.9817C332.538 95.065 332.685 95.1353 332.846 95.1926C333.008 95.2499 333.17 95.2981 333.334 95.3372L334.084 95.5247C334.387 95.595 334.677 95.69 334.956 95.8098C335.237 95.9296 335.488 96.0806 335.709 96.2629C335.933 96.4452 336.11 96.6653 336.241 96.9231C336.371 97.1809 336.436 97.483 336.436 97.8293C336.436 98.2981 336.316 98.7109 336.077 99.0676C335.837 99.4218 335.491 99.6991 335.038 99.8997C334.587 100.098 334.041 100.197 333.401 100.197C332.778 100.197 332.238 100.1 331.78 99.9075C331.324 99.7148 330.967 99.4335 330.709 99.0637C330.454 98.6939 330.316 98.2434 330.295 97.7122H331.721C331.742 97.9908 331.828 98.2226 331.979 98.4075C332.13 98.5924 332.327 98.7304 332.569 98.8215C332.814 98.9127 333.087 98.9583 333.389 98.9583C333.704 98.9583 333.98 98.9114 334.217 98.8176C334.457 98.7213 334.644 98.5885 334.78 98.4192C334.915 98.2473 334.984 98.0468 334.987 97.8176C334.984 97.6093 334.923 97.4374 334.803 97.302C334.683 97.164 334.515 97.0494 334.299 96.9583C334.086 96.8645 333.836 96.7812 333.549 96.7083L332.639 96.4739C331.98 96.3046 331.459 96.0481 331.077 95.7043C330.696 95.358 330.506 94.8984 330.506 94.3254C330.506 93.8541 330.634 93.4413 330.889 93.0872C331.147 92.733 331.497 92.4583 331.94 92.2629C332.383 92.065 332.884 91.9661 333.444 91.9661C334.012 91.9661 334.509 92.065 334.936 92.2629C335.366 92.4583 335.703 92.7304 335.948 93.0793C336.193 93.4257 336.319 93.8241 336.327 94.2747H334.932ZM340.322 100.193C339.72 100.193 339.201 100.068 338.763 99.8176C338.328 99.565 337.994 99.2083 337.759 98.7473C337.525 98.2838 337.408 97.7382 337.408 97.1106C337.408 96.4934 337.525 95.9517 337.759 95.4856C337.996 95.0168 338.327 94.6523 338.751 94.3918C339.176 94.1288 339.675 93.9973 340.248 93.9973C340.617 93.9973 340.966 94.0572 341.294 94.177C341.625 94.2942 341.917 94.4765 342.169 94.7239C342.425 94.9713 342.625 95.2864 342.771 95.6692C342.917 96.0494 342.99 96.5025 342.99 97.0286V97.4622H338.072V96.509H341.634C341.632 96.2382 341.573 95.9973 341.458 95.7864C341.344 95.5728 341.184 95.4049 340.978 95.2825C340.775 95.1601 340.538 95.0989 340.267 95.0989C339.978 95.0989 339.724 95.1692 339.505 95.3098C339.287 95.4478 339.116 95.6301 338.994 95.8567C338.874 96.0806 338.813 96.3267 338.81 96.595V97.427C338.81 97.776 338.874 98.0754 339.001 98.3254C339.129 98.5728 339.307 98.7629 339.537 98.8958C339.766 99.026 340.034 99.0911 340.341 99.0911C340.547 99.0911 340.733 99.0624 340.9 99.0051C341.067 98.9452 341.211 98.858 341.333 98.7434C341.456 98.6288 341.548 98.4869 341.611 98.3176L342.931 98.4661C342.848 98.815 342.689 99.1197 342.455 99.3801C342.223 99.6379 341.926 99.8385 341.564 99.9817C341.202 100.122 340.788 100.193 340.322 100.193ZM345.213 94.0754L346.424 96.2903L347.655 94.0754H349.151L347.342 97.0754L349.182 100.075H347.694L346.424 97.9153L345.166 100.075H343.666L345.495 97.0754L343.713 94.0754H345.213Z" fill="#F2F2F2"/>
<path d="M384.967 94.2747C384.931 93.9335 384.777 93.6679 384.506 93.4778C384.238 93.2877 383.889 93.1926 383.459 93.1926C383.157 93.1926 382.898 93.2382 382.682 93.3293C382.466 93.4205 382.301 93.5442 382.186 93.7004C382.071 93.8567 382.013 94.0351 382.01 94.2356C382.01 94.4023 382.048 94.5468 382.124 94.6692C382.202 94.7916 382.307 94.8958 382.44 94.9817C382.573 95.065 382.72 95.1353 382.881 95.1926C383.043 95.2499 383.206 95.2981 383.37 95.3372L384.12 95.5247C384.422 95.595 384.712 95.69 384.991 95.8098C385.272 95.9296 385.523 96.0806 385.745 96.2629C385.969 96.4452 386.146 96.6653 386.276 96.9231C386.406 97.1809 386.471 97.483 386.471 97.8293C386.471 98.2981 386.351 98.7109 386.112 99.0676C385.872 99.4218 385.526 99.6991 385.073 99.8997C384.622 100.098 384.077 100.197 383.436 100.197C382.814 100.197 382.273 100.1 381.815 99.9075C381.359 99.7148 381.002 99.4335 380.745 99.0637C380.489 98.6939 380.351 98.2434 380.331 97.7122H381.756C381.777 97.9908 381.863 98.2226 382.014 98.4075C382.165 98.5924 382.362 98.7304 382.604 98.8215C382.849 98.9127 383.122 98.9583 383.424 98.9583C383.739 98.9583 384.015 98.9114 384.252 98.8176C384.492 98.7213 384.68 98.5885 384.815 98.4192C384.95 98.2473 385.019 98.0468 385.022 97.8176C385.019 97.6093 384.958 97.4374 384.838 97.302C384.719 97.164 384.551 97.0494 384.334 96.9583C384.121 96.8645 383.871 96.7812 383.584 96.7083L382.674 96.4739C382.015 96.3046 381.495 96.0481 381.112 95.7043C380.732 95.358 380.541 94.8984 380.541 94.3254C380.541 93.8541 380.669 93.4413 380.924 93.0872C381.182 92.733 381.532 92.4583 381.975 92.2629C382.418 92.065 382.919 91.9661 383.479 91.9661C384.047 91.9661 384.544 92.065 384.971 92.2629C385.401 92.4583 385.738 92.7304 385.983 93.0793C386.228 93.4257 386.354 93.8241 386.362 94.2747H384.967ZM389.427 100.197C389.047 100.197 388.705 100.129 388.4 99.9934C388.098 99.8554 387.858 99.6523 387.681 99.384C387.507 99.1158 387.419 98.7851 387.419 98.3918C387.419 98.0533 387.482 97.7734 387.607 97.552C387.732 97.3306 387.902 97.1536 388.119 97.0208C388.335 96.8879 388.578 96.7877 388.849 96.72C389.123 96.6497 389.405 96.5989 389.697 96.5676C390.048 96.5312 390.333 96.4986 390.552 96.47C390.771 96.4387 390.93 96.3918 391.029 96.3293C391.13 96.2642 391.181 96.164 391.181 96.0286V96.0051C391.181 95.7109 391.094 95.483 390.919 95.3215C390.745 95.1601 390.494 95.0793 390.166 95.0793C389.819 95.0793 389.544 95.1549 389.341 95.3059C389.141 95.4569 389.005 95.6353 388.935 95.8411L387.615 95.6536C387.719 95.289 387.891 94.9843 388.13 94.7395C388.37 94.4921 388.663 94.3072 389.009 94.1848C389.356 94.0598 389.738 93.9973 390.158 93.9973C390.447 93.9973 390.735 94.0312 391.021 94.0989C391.307 94.1666 391.569 94.2786 391.806 94.4348C392.043 94.5885 392.233 94.7981 392.376 95.0637C392.522 95.3293 392.595 95.6614 392.595 96.0598V100.075H391.236V99.2512H391.189C391.103 99.4179 390.982 99.5741 390.826 99.72C390.672 99.8632 390.478 99.9791 390.244 100.068C390.012 100.154 389.74 100.197 389.427 100.197ZM389.794 99.1575C390.078 99.1575 390.324 99.1015 390.533 98.9895C390.741 98.8749 390.901 98.7239 391.013 98.5364C391.128 98.3489 391.185 98.1444 391.185 97.9231V97.2161C391.141 97.2525 391.065 97.2864 390.958 97.3176C390.854 97.3489 390.737 97.3762 390.607 97.3997C390.477 97.4231 390.348 97.4439 390.22 97.4622C390.093 97.4804 389.982 97.496 389.888 97.509C389.677 97.5377 389.488 97.5846 389.322 97.6497C389.155 97.7148 389.024 97.8059 388.927 97.9231C388.831 98.0377 388.783 98.1861 388.783 98.3684C388.783 98.6288 388.878 98.8254 389.068 98.9583C389.258 99.0911 389.5 99.1575 389.794 99.1575ZM394.08 100.075V92.0754H395.494V95.0676H395.552C395.625 94.9218 395.728 94.7668 395.861 94.6028C395.994 94.4361 396.173 94.2942 396.4 94.177C396.626 94.0572 396.916 93.9973 397.267 93.9973C397.731 93.9973 398.149 94.1158 398.521 94.3528C398.896 94.5872 399.193 94.9348 399.412 95.3958C399.633 95.8541 399.744 96.4166 399.744 97.0833C399.744 97.7421 399.636 98.302 399.419 98.7629C399.203 99.2239 398.909 99.5754 398.537 99.8176C398.164 100.06 397.742 100.181 397.271 100.181C396.927 100.181 396.642 100.124 396.416 100.009C396.189 99.8944 396.007 99.7564 395.869 99.595C395.733 99.4309 395.628 99.276 395.552 99.1301H395.47V100.075H394.08ZM395.466 97.0754C395.466 97.4635 395.521 97.8033 395.63 98.095C395.742 98.3866 395.902 98.6145 396.111 98.7786C396.322 98.94 396.577 99.0208 396.876 99.0208C397.189 99.0208 397.451 98.9374 397.662 98.7708C397.873 98.6015 398.031 98.371 398.138 98.0793C398.248 97.7851 398.302 97.4504 398.302 97.0754C398.302 96.703 398.249 96.3723 398.142 96.0833C398.035 95.7942 397.876 95.5676 397.666 95.4036C397.455 95.2395 397.192 95.1575 396.876 95.1575C396.574 95.1575 396.318 95.2369 396.107 95.3958C395.896 95.5546 395.736 95.7773 395.626 96.0637C395.52 96.3502 395.466 96.6874 395.466 97.0754Z" fill="#F2F2F2"/>
<path d="M431.625 100.075H428.915V92.0754H431.68C432.474 92.0754 433.157 92.2356 433.727 92.5559C434.3 92.8736 434.74 93.3306 435.047 93.927C435.355 94.5234 435.508 95.2369 435.508 96.0676C435.508 96.901 435.353 97.6171 435.043 98.2161C434.736 98.815 434.292 99.2747 433.711 99.595C433.133 99.9153 432.438 100.075 431.625 100.075ZM430.364 98.8215H431.555C432.112 98.8215 432.577 98.72 432.95 98.5168C433.322 98.3111 433.602 98.0051 433.79 97.5989C433.977 97.19 434.071 96.6796 434.071 96.0676C434.071 95.4556 433.977 94.9478 433.79 94.5442C433.602 94.1379 433.325 93.8346 432.958 93.634C432.593 93.4309 432.14 93.3293 431.598 93.3293H430.364V98.8215ZM439.44 100.193C438.854 100.193 438.346 100.064 437.916 99.8059C437.487 99.5481 437.153 99.1874 436.916 98.7239C436.682 98.2603 436.565 97.7187 436.565 97.0989C436.565 96.4791 436.682 95.9361 436.916 95.47C437.153 95.0038 437.487 94.6418 437.916 94.384C438.346 94.1262 438.854 93.9973 439.44 93.9973C440.026 93.9973 440.534 94.1262 440.963 94.384C441.393 94.6418 441.725 95.0038 441.959 95.47C442.196 95.9361 442.315 96.4791 442.315 97.0989C442.315 97.7187 442.196 98.2603 441.959 98.7239C441.725 99.1874 441.393 99.5481 440.963 99.8059C440.534 100.064 440.026 100.193 439.44 100.193ZM439.448 99.0598C439.765 99.0598 440.031 98.9726 440.245 98.7981C440.458 98.621 440.617 98.384 440.721 98.0872C440.828 97.7903 440.881 97.4596 440.881 97.095C440.881 96.7278 440.828 96.3958 440.721 96.0989C440.617 95.7994 440.458 95.5611 440.245 95.384C440.031 95.2069 439.765 95.1184 439.448 95.1184C439.122 95.1184 438.851 95.2069 438.635 95.384C438.422 95.5611 438.262 95.7994 438.155 96.0989C438.051 96.3958 437.999 96.7278 437.999 97.095C437.999 97.4596 438.051 97.7903 438.155 98.0872C438.262 98.384 438.422 98.621 438.635 98.7981C438.851 98.9726 439.122 99.0598 439.448 99.0598ZM443.515 100.075V94.0754H444.867V95.095H444.937C445.062 94.7512 445.269 94.483 445.558 94.2903C445.847 94.095 446.192 93.9973 446.593 93.9973C446.999 93.9973 447.342 94.0963 447.621 94.2942C447.902 94.4895 448.1 94.7564 448.214 95.095H448.277C448.41 94.7616 448.634 94.496 448.949 94.2981C449.266 94.0976 449.643 93.9973 450.078 93.9973C450.63 93.9973 451.08 94.1718 451.429 94.5208C451.778 94.8697 451.953 95.3788 451.953 96.0481V100.075H450.535V96.2668C450.535 95.8944 450.436 95.6223 450.238 95.4504C450.04 95.276 449.798 95.1887 449.511 95.1887C449.17 95.1887 448.903 95.2955 448.71 95.509C448.52 95.72 448.425 95.9947 448.425 96.3333V100.075H447.039V96.2083C447.039 95.8984 446.945 95.651 446.757 95.4661C446.572 95.2812 446.33 95.1887 446.031 95.1887C445.828 95.1887 445.643 95.2408 445.476 95.345C445.309 95.4465 445.177 95.5911 445.078 95.7786C444.979 95.9635 444.929 96.1796 444.929 96.427V100.075H443.515Z" fill="#F2F2F2"/>
<path d="M130.092 152.551V151.592L133.693 147.65C134.116 147.189 134.464 146.787 134.737 146.446C135.01 146.102 135.213 145.779 135.344 145.477C135.479 145.172 135.547 144.852 135.547 144.518C135.547 144.135 135.454 143.803 135.27 143.522C135.089 143.242 134.84 143.025 134.524 142.872C134.208 142.72 133.853 142.643 133.459 142.643C133.04 142.643 132.674 142.73 132.361 142.904C132.052 143.075 131.813 143.314 131.642 143.623C131.475 143.932 131.392 144.295 131.392 144.71H130.135C130.135 144.071 130.282 143.51 130.577 143.027C130.872 142.544 131.273 142.167 131.781 141.897C132.292 141.628 132.866 141.493 133.501 141.493C134.14 141.493 134.707 141.628 135.2 141.897C135.694 142.167 136.081 142.531 136.362 142.989C136.642 143.448 136.782 143.957 136.782 144.518C136.782 144.92 136.71 145.312 136.564 145.695C136.422 146.075 136.173 146.5 135.818 146.969C135.467 147.434 134.978 148.002 134.353 148.673L131.903 151.294V151.379H136.974V152.551H130.092ZM142.647 141.493C143.095 141.496 143.542 141.581 143.99 141.748C144.437 141.915 144.845 142.192 145.215 142.579C145.584 142.963 145.88 143.487 146.104 144.151C146.328 144.815 146.44 145.647 146.44 146.649C146.44 147.618 146.347 148.48 146.163 149.232C145.982 149.982 145.719 150.614 145.374 151.129C145.034 151.644 144.618 152.034 144.128 152.301C143.641 152.567 143.091 152.7 142.477 152.7C141.866 152.7 141.321 152.579 140.841 152.338C140.366 152.093 139.975 151.754 139.67 151.32C139.368 150.884 139.174 150.378 139.089 149.802H140.389C140.506 150.303 140.738 150.717 141.086 151.043C141.438 151.367 141.901 151.528 142.477 151.528C143.318 151.528 143.982 151.161 144.469 150.426C144.959 149.69 145.204 148.652 145.204 147.309H145.119C144.92 147.608 144.684 147.865 144.41 148.082C144.137 148.298 143.833 148.465 143.499 148.583C143.166 148.7 142.811 148.758 142.434 148.758C141.809 148.758 141.236 148.604 140.714 148.295C140.195 147.982 139.78 147.554 139.467 147.011C139.158 146.464 139.004 145.839 139.004 145.136C139.004 144.469 139.153 143.858 139.451 143.304C139.753 142.746 140.176 142.302 140.719 141.972C141.266 141.642 141.909 141.482 142.647 141.493ZM142.647 142.665C142.2 142.665 141.797 142.776 141.438 143C141.083 143.22 140.801 143.519 140.591 143.895C140.385 144.268 140.282 144.682 140.282 145.136C140.282 145.591 140.382 146.004 140.58 146.377C140.783 146.747 141.058 147.041 141.406 147.261C141.758 147.478 142.157 147.586 142.605 147.586C142.942 147.586 143.256 147.521 143.547 147.389C143.839 147.254 144.092 147.071 144.309 146.841C144.529 146.606 144.702 146.342 144.826 146.047C144.95 145.749 145.012 145.438 145.012 145.115C145.012 144.689 144.909 144.289 144.703 143.916C144.501 143.543 144.22 143.242 143.862 143.011C143.507 142.78 143.102 142.665 142.647 142.665Z" fill="#A1A1AA"/>
<path d="M183.905 152.7C183.202 152.7 182.575 152.579 182.024 152.338C181.477 152.096 181.042 151.761 180.719 151.331C180.4 150.898 180.226 150.395 180.197 149.824H181.54C181.568 150.175 181.689 150.479 181.902 150.734C182.115 150.987 182.394 151.182 182.738 151.32C183.083 151.459 183.464 151.528 183.883 151.528C184.352 151.528 184.768 151.446 185.13 151.283C185.492 151.12 185.776 150.893 185.982 150.601C186.188 150.31 186.291 149.973 186.291 149.589C186.291 149.188 186.192 148.835 185.993 148.529C185.794 148.22 185.503 147.979 185.119 147.805C184.736 147.631 184.267 147.544 183.713 147.544H182.839V146.372H183.713C184.146 146.372 184.526 146.294 184.853 146.138C185.183 145.981 185.441 145.761 185.625 145.477C185.813 145.193 185.908 144.859 185.908 144.476C185.908 144.106 185.826 143.785 185.662 143.511C185.499 143.238 185.268 143.025 184.97 142.872C184.675 142.72 184.327 142.643 183.926 142.643C183.55 142.643 183.194 142.712 182.861 142.851C182.53 142.986 182.261 143.183 182.051 143.442C181.841 143.698 181.728 144.007 181.71 144.369H180.432C180.453 143.797 180.625 143.297 180.948 142.867C181.272 142.434 181.694 142.096 182.216 141.855C182.742 141.613 183.319 141.493 183.947 141.493C184.622 141.493 185.201 141.629 185.684 141.903C186.167 142.173 186.538 142.53 186.797 142.973C187.056 143.417 187.186 143.897 187.186 144.412C187.186 145.026 187.024 145.55 186.701 145.983C186.382 146.416 185.947 146.716 185.396 146.883V146.969C186.085 147.082 186.623 147.375 187.01 147.847C187.397 148.316 187.591 148.897 187.591 149.589C187.591 150.182 187.429 150.715 187.106 151.187C186.786 151.656 186.35 152.025 185.796 152.295C185.242 152.565 184.611 152.7 183.905 152.7ZM193.328 152.7C192.525 152.7 191.841 152.482 191.277 152.045C190.712 151.605 190.281 150.967 189.982 150.133C189.684 149.295 189.535 148.282 189.535 147.096C189.535 145.917 189.684 144.911 189.982 144.076C190.284 143.238 190.718 142.599 191.282 142.159C191.85 141.715 192.532 141.493 193.328 141.493C194.123 141.493 194.803 141.715 195.368 142.159C195.936 142.599 196.369 143.238 196.667 144.076C196.969 144.911 197.12 145.917 197.12 147.096C197.12 148.282 196.971 149.295 196.673 150.133C196.374 150.967 195.943 151.605 195.378 152.045C194.814 152.482 194.13 152.7 193.328 152.7ZM193.328 151.528C194.123 151.528 194.741 151.145 195.181 150.378C195.622 149.611 195.842 148.517 195.842 147.096C195.842 146.152 195.741 145.347 195.538 144.683C195.339 144.019 195.052 143.513 194.675 143.165C194.302 142.817 193.853 142.643 193.328 142.643C192.539 142.643 191.923 143.032 191.479 143.81C191.035 144.584 190.813 145.679 190.813 147.096C190.813 148.041 190.913 148.844 191.112 149.504C191.311 150.165 191.596 150.667 191.969 151.011C192.346 151.356 192.799 151.528 193.328 151.528Z" fill="#A1A1AA"/>
<path d="M235.474 152.7C234.771 152.7 234.144 152.579 233.594 152.338C233.047 152.096 232.612 151.761 232.289 151.331C231.969 150.898 231.795 150.395 231.767 149.824H233.109C233.137 150.175 233.258 150.479 233.471 150.734C233.684 150.987 233.963 151.182 234.307 151.32C234.652 151.459 235.034 151.528 235.453 151.528C235.921 151.528 236.337 151.446 236.699 151.283C237.061 151.12 237.345 150.893 237.551 150.601C237.757 150.31 237.86 149.973 237.86 149.589C237.86 149.188 237.761 148.835 237.562 148.529C237.363 148.22 237.072 147.979 236.689 147.805C236.305 147.631 235.836 147.544 235.282 147.544H234.409V146.372H235.282C235.715 146.372 236.095 146.294 236.422 146.138C236.752 145.981 237.01 145.761 237.195 145.477C237.383 145.193 237.477 144.859 237.477 144.476C237.477 144.106 237.395 143.785 237.232 143.511C237.068 143.238 236.838 143.025 236.539 142.872C236.245 142.72 235.897 142.643 235.495 142.643C235.119 142.643 234.764 142.712 234.43 142.851C234.1 142.986 233.83 143.183 233.62 143.442C233.411 143.698 233.297 144.007 233.279 144.369H232.001C232.022 143.797 232.195 143.297 232.518 142.867C232.841 142.434 233.263 142.096 233.785 141.855C234.311 141.613 234.888 141.493 235.517 141.493C236.191 141.493 236.77 141.629 237.253 141.903C237.736 142.173 238.107 142.53 238.366 142.973C238.626 143.417 238.755 143.897 238.755 144.412C238.755 145.026 238.594 145.55 238.271 145.983C237.951 146.416 237.516 146.716 236.965 146.883V146.969C237.654 147.082 238.192 147.375 238.579 147.847C238.967 148.316 239.16 148.897 239.16 149.589C239.16 150.182 238.999 150.715 238.675 151.187C238.356 151.656 237.919 152.025 237.365 152.295C236.811 152.565 236.181 152.7 235.474 152.7ZM245.174 141.642V152.551H243.853V143.027H243.789L241.126 144.795V143.453L243.853 141.642H245.174Z" fill="#A1A1AA"/>
<path d="M290.767 141.642V152.551H289.446V143.027H289.382L286.718 144.795V143.453L289.446 141.642H290.767Z" fill="#F2F2F2"/>
<path d="M336.245 152.551V151.592L339.846 147.65C340.268 147.189 340.616 146.787 340.89 146.446C341.163 146.102 341.366 145.779 341.497 145.477C341.632 145.172 341.7 144.852 341.7 144.518C341.7 144.135 341.607 143.803 341.423 143.522C341.241 143.242 340.993 143.025 340.677 142.872C340.361 142.72 340.006 142.643 339.611 142.643C339.192 142.643 338.827 142.73 338.514 142.904C338.205 143.075 337.965 143.314 337.795 143.623C337.628 143.932 337.545 144.295 337.545 144.71H336.288C336.288 144.071 336.435 143.51 336.73 143.027C337.024 142.544 337.426 142.167 337.934 141.897C338.445 141.628 339.018 141.493 339.654 141.493C340.293 141.493 340.86 141.628 341.353 141.897C341.847 142.167 342.234 142.531 342.514 142.989C342.795 143.448 342.935 143.957 342.935 144.518C342.935 144.92 342.863 145.312 342.717 145.695C342.575 146.075 342.326 146.5 341.971 146.969C341.62 147.434 341.131 148.002 340.506 148.673L338.056 151.294V151.379H343.127V152.551H336.245Z" fill="#45454A"/>
<path d="M390.065 152.7C389.362 152.7 388.735 152.579 388.185 152.338C387.638 152.096 387.203 151.761 386.879 151.331C386.56 150.898 386.386 150.395 386.357 149.824H387.7C387.728 150.175 387.849 150.479 388.062 150.734C388.275 150.987 388.554 151.182 388.898 151.32C389.243 151.459 389.624 151.528 390.044 151.528C390.512 151.528 390.928 151.446 391.29 151.283C391.652 151.12 391.936 150.893 392.142 150.601C392.348 150.31 392.451 149.973 392.451 149.589C392.451 149.188 392.352 148.835 392.153 148.529C391.954 148.22 391.663 147.979 391.279 147.805C390.896 147.631 390.427 147.544 389.873 147.544H388.999V146.372H389.873C390.306 146.372 390.686 146.294 391.013 146.138C391.343 145.981 391.601 145.761 391.785 145.477C391.974 145.193 392.068 144.859 392.068 144.476C392.068 144.106 391.986 143.785 391.823 143.511C391.659 143.238 391.428 143.025 391.13 142.872C390.835 142.72 390.487 142.643 390.086 142.643C389.71 142.643 389.355 142.712 389.021 142.851C388.691 142.986 388.421 143.183 388.211 143.442C388.002 143.698 387.888 144.007 387.87 144.369H386.592C386.613 143.797 386.785 143.297 387.109 142.867C387.432 142.434 387.854 142.096 388.376 141.855C388.902 141.613 389.479 141.493 390.107 141.493C390.782 141.493 391.361 141.629 391.844 141.903C392.327 142.173 392.698 142.53 392.957 142.973C393.216 143.417 393.346 143.897 393.346 144.412C393.346 145.026 393.185 145.55 392.861 145.983C392.542 146.416 392.107 146.716 391.556 146.883V146.969C392.245 147.082 392.783 147.375 393.17 147.847C393.557 148.316 393.751 148.897 393.751 149.589C393.751 150.182 393.589 150.715 393.266 151.187C392.947 151.656 392.51 152.025 391.956 152.295C391.402 152.565 390.772 152.7 390.065 152.7Z" fill="#F2F2F2"/>
<path d="M436.455 150.314V149.227L441.249 141.642H442.037V143.325H441.504L437.882 149.057V149.142H444.338V150.314H436.455ZM441.59 152.551V149.983V149.477V141.642H442.847V152.551H441.59Z" fill="#F2F2F2"/>
<path d="M138.159 203.651C137.534 203.651 136.972 203.527 136.471 203.278C135.97 203.03 135.569 202.689 135.267 202.255C134.965 201.822 134.8 201.329 134.772 200.775H136.05C136.1 201.268 136.323 201.677 136.721 202C137.122 202.319 137.602 202.479 138.159 202.479C138.607 202.479 139.005 202.374 139.353 202.165C139.704 201.955 139.979 201.668 140.178 201.302C140.381 200.933 140.482 200.515 140.482 200.05C140.482 199.574 140.377 199.15 140.168 198.777C139.962 198.401 139.678 198.104 139.315 197.887C138.953 197.671 138.539 197.561 138.074 197.557C137.74 197.554 137.398 197.605 137.046 197.712C136.695 197.815 136.405 197.948 136.178 198.111L134.942 197.962L135.603 192.593H141.27V193.765H136.711L136.327 196.982H136.391C136.615 196.804 136.895 196.657 137.233 196.54C137.57 196.423 137.922 196.364 138.287 196.364C138.955 196.364 139.55 196.524 140.072 196.843C140.597 197.16 141.009 197.593 141.308 198.143C141.609 198.694 141.76 199.322 141.76 200.029C141.76 200.725 141.604 201.346 141.292 201.893C140.983 202.436 140.556 202.866 140.013 203.182C139.47 203.495 138.852 203.651 138.159 203.651Z" fill="#F2F2F2"/>
<path d="M188.623 203.651C188.176 203.644 187.729 203.559 187.281 203.395C186.834 203.232 186.425 202.957 186.056 202.57C185.687 202.179 185.39 201.652 185.166 200.988C184.943 200.32 184.831 199.482 184.831 198.473C184.831 197.508 184.921 196.652 185.103 195.906C185.284 195.157 185.546 194.526 185.891 194.015C186.235 193.5 186.651 193.109 187.137 192.843C187.627 192.577 188.18 192.444 188.794 192.444C189.405 192.444 189.948 192.566 190.424 192.811C190.903 193.053 191.294 193.39 191.596 193.823C191.898 194.256 192.093 194.755 192.182 195.32H190.882C190.761 194.83 190.527 194.423 190.179 194.1C189.831 193.777 189.369 193.615 188.794 193.615C187.949 193.615 187.283 193.983 186.796 194.718C186.313 195.453 186.07 196.485 186.067 197.813H186.152C186.351 197.511 186.587 197.254 186.86 197.041C187.137 196.824 187.443 196.657 187.777 196.54C188.11 196.423 188.464 196.364 188.837 196.364C189.462 196.364 190.033 196.52 190.552 196.833C191.07 197.142 191.486 197.57 191.798 198.117C192.111 198.66 192.267 199.283 192.267 199.986C192.267 200.661 192.116 201.279 191.814 201.84C191.512 202.397 191.088 202.841 190.541 203.172C189.998 203.498 189.359 203.658 188.623 203.651ZM188.623 202.479C189.071 202.479 189.472 202.367 189.827 202.144C190.186 201.92 190.468 201.62 190.674 201.243C190.884 200.867 190.989 200.448 190.989 199.986C190.989 199.535 190.887 199.125 190.685 198.756C190.486 198.383 190.211 198.086 189.859 197.866C189.511 197.646 189.114 197.536 188.666 197.536C188.329 197.536 188.014 197.603 187.723 197.738C187.432 197.87 187.176 198.051 186.956 198.282C186.74 198.512 186.569 198.777 186.445 199.075C186.321 199.37 186.258 199.681 186.258 200.008C186.258 200.441 186.36 200.846 186.562 201.222C186.768 201.598 187.049 201.902 187.404 202.133C187.762 202.364 188.169 202.479 188.623 202.479Z" fill="#F2F2F2"/>
<path d="M236.106 203.502L240.985 193.85V193.765H235.36V192.593H242.349V193.829L237.491 203.502H236.106Z" fill="#F2F2F2"/>
<path d="M289.291 203.651C288.559 203.651 287.913 203.521 287.352 203.262C286.794 202.999 286.359 202.639 286.047 202.181C285.734 201.719 285.58 201.194 285.583 200.604C285.58 200.142 285.67 199.716 285.855 199.326C286.039 198.932 286.292 198.603 286.611 198.34C286.934 198.074 287.295 197.905 287.693 197.834V197.77C287.171 197.635 286.755 197.342 286.446 196.891C286.137 196.437 285.984 195.92 285.988 195.341C285.984 194.787 286.125 194.292 286.409 193.855C286.693 193.418 287.084 193.074 287.581 192.822C288.081 192.57 288.651 192.444 289.291 192.444C289.923 192.444 290.487 192.57 290.984 192.822C291.482 193.074 291.872 193.418 292.156 193.855C292.444 194.292 292.59 194.787 292.593 195.341C292.59 195.92 292.432 196.437 292.119 196.891C291.81 197.342 291.4 197.635 290.889 197.77V197.834C291.283 197.905 291.638 198.074 291.954 198.34C292.27 198.603 292.522 198.932 292.71 199.326C292.899 199.716 292.994 200.142 292.998 200.604C292.994 201.194 292.835 201.719 292.519 202.181C292.206 202.639 291.771 202.999 291.213 203.262C290.66 203.521 290.019 203.651 289.291 203.651ZM289.291 202.479C289.784 202.479 290.21 202.399 290.569 202.239C290.928 202.08 291.205 201.854 291.4 201.563C291.595 201.272 291.695 200.931 291.698 200.54C291.695 200.128 291.588 199.764 291.379 199.448C291.169 199.132 290.883 198.884 290.521 198.702C290.162 198.521 289.752 198.431 289.291 198.431C288.825 198.431 288.41 198.521 288.044 198.702C287.682 198.884 287.396 199.132 287.187 199.448C286.981 199.764 286.879 200.128 286.883 200.54C286.879 200.931 286.973 201.272 287.165 201.563C287.361 201.854 287.639 202.08 288.001 202.239C288.364 202.399 288.793 202.479 289.291 202.479ZM289.291 197.302C289.681 197.302 290.027 197.223 290.329 197.067C290.635 196.911 290.874 196.693 291.048 196.412C291.222 196.131 291.311 195.803 291.315 195.427C291.311 195.057 291.224 194.736 291.054 194.462C290.883 194.185 290.647 193.972 290.345 193.823C290.043 193.671 289.692 193.594 289.291 193.594C288.882 193.594 288.525 193.671 288.22 193.823C287.914 193.972 287.678 194.185 287.511 194.462C287.345 194.736 287.263 195.057 287.266 195.427C287.263 195.803 287.346 196.131 287.517 196.412C287.691 196.693 287.93 196.911 288.236 197.067C288.541 197.223 288.893 197.302 289.291 197.302Z" fill="#F2F2F2"/>
<path d="M339.579 192.444C340.026 192.447 340.474 192.532 340.921 192.699C341.369 192.866 341.777 193.143 342.146 193.53C342.516 193.914 342.812 194.438 343.036 195.102C343.26 195.766 343.371 196.598 343.371 197.6C343.371 198.569 343.279 199.43 343.094 200.183C342.913 200.933 342.651 201.565 342.306 202.08C341.965 202.595 341.55 202.985 341.06 203.251C340.573 203.518 340.023 203.651 339.408 203.651C338.798 203.651 338.252 203.53 337.773 203.289C337.297 203.044 336.907 202.705 336.601 202.271C336.299 201.835 336.106 201.329 336.021 200.753H337.32C337.437 201.254 337.67 201.668 338.018 201.994C338.37 202.318 338.833 202.479 339.408 202.479C340.25 202.479 340.914 202.112 341.401 201.376C341.891 200.641 342.136 199.603 342.136 198.26H342.05C341.852 198.559 341.615 198.816 341.342 199.033C341.069 199.249 340.765 199.416 340.431 199.533C340.097 199.651 339.742 199.709 339.366 199.709C338.741 199.709 338.167 199.555 337.645 199.246C337.127 198.933 336.711 198.505 336.399 197.962C336.09 197.415 335.935 196.79 335.935 196.087C335.935 195.419 336.084 194.809 336.383 194.255C336.685 193.697 337.107 193.253 337.651 192.923C338.197 192.593 338.84 192.433 339.579 192.444ZM339.579 193.615C339.131 193.615 338.728 193.727 338.37 193.951C338.015 194.171 337.732 194.47 337.523 194.846C337.317 195.219 337.214 195.633 337.214 196.087C337.214 196.542 337.313 196.955 337.512 197.328C337.714 197.697 337.99 197.992 338.338 198.212C338.689 198.429 339.089 198.537 339.536 198.537C339.874 198.537 340.188 198.472 340.479 198.34C340.77 198.205 341.024 198.022 341.241 197.792C341.461 197.557 341.633 197.293 341.757 196.998C341.882 196.7 341.944 196.389 341.944 196.066C341.944 195.64 341.841 195.24 341.635 194.867C341.433 194.494 341.152 194.193 340.793 193.962C340.438 193.731 340.033 193.615 339.579 193.615Z" fill="#F2F2F2"/>
<path d="M386.816 192.593V203.502H385.495V193.978H385.431L382.767 195.746V194.404L385.495 192.593H386.816ZM393.511 203.651C392.709 203.651 392.025 203.433 391.46 202.996C390.896 202.555 390.464 201.918 390.166 201.084C389.868 200.245 389.719 199.233 389.719 198.047C389.719 196.868 389.868 195.862 390.166 195.027C390.468 194.189 390.901 193.55 391.466 193.109C392.034 192.666 392.716 192.444 393.511 192.444C394.307 192.444 394.987 192.666 395.551 193.109C396.12 193.55 396.553 194.189 396.851 195.027C397.153 195.862 397.304 196.868 397.304 198.047C397.304 199.233 397.155 200.245 396.856 201.084C396.558 201.918 396.127 202.555 395.562 202.996C394.997 203.433 394.314 203.651 393.511 203.651ZM393.511 202.479C394.307 202.479 394.925 202.096 395.365 201.329C395.805 200.561 396.025 199.468 396.025 198.047C396.025 197.103 395.924 196.298 395.722 195.634C395.523 194.97 395.235 194.464 394.859 194.116C394.486 193.768 394.037 193.594 393.511 193.594C392.723 193.594 392.107 193.983 391.663 194.761C391.219 195.535 390.997 196.63 390.997 198.047C390.997 198.992 391.096 199.794 391.295 200.455C391.494 201.115 391.78 201.618 392.153 201.962C392.529 202.307 392.982 202.479 393.511 202.479Z" fill="#F2F2F2"/>
<path d="M438.385 192.593V203.502H437.064V193.978H437L434.337 195.746V194.404L437.064 192.593H438.385ZM445.358 192.593V203.502H444.037V193.978H443.973L441.309 195.746V194.404L444.037 192.593H445.358Z" fill="#F2F2F2"/>
</g>
<rect x="319" y="132.6" width="38" height="38" rx="8" fill="#0E0E0F"/>
<path d="M334.311 156.6V155.172L338.099 151.46C338.461 151.094 338.763 150.769 339.004 150.485C339.246 150.201 339.427 149.926 339.547 149.659C339.668 149.393 339.729 149.109 339.729 148.807C339.729 148.463 339.65 148.168 339.494 147.923C339.338 147.674 339.123 147.482 338.85 147.347C338.576 147.213 338.265 147.145 337.917 147.145C337.559 147.145 337.244 147.22 336.975 147.369C336.705 147.514 336.495 147.722 336.346 147.992C336.2 148.262 336.128 148.583 336.128 148.956H334.247C334.247 148.264 334.405 147.662 334.721 147.15C335.037 146.639 335.472 146.243 336.026 145.963C336.584 145.682 337.223 145.542 337.944 145.542C338.676 145.542 339.318 145.678 339.872 145.952C340.426 146.225 340.856 146.6 341.161 147.076C341.47 147.552 341.625 148.095 341.625 148.706C341.625 149.114 341.547 149.515 341.39 149.91C341.234 150.304 340.959 150.741 340.565 151.22C340.174 151.699 339.626 152.28 338.919 152.962L337.039 154.874V154.949H341.79V156.6H334.311Z" fill="white"/>
</g>
<defs>
<filter id="filter0_d_1412_16230" x="87" y="12.6" width="404.577" height="393.705" filterUnits="userSpaceOnUse" color-interpolation-filters="sRGB">
<feFlood flood-opacity="0" result="BackgroundImageFix"/>
<feColorMatrix in="SourceAlpha" type="matrix" values="0 0 0 0 0 0 0 0 0 0 0 0 0 0 0 0 0 0 127 0" result="hardAlpha"/>
<feOffset dy="4"/>
<feGaussianBlur stdDeviation="5"/>
<feColorMatrix type="matrix" values="0 0 0 0 0 0 0 0 0 0 0 0 0 0 0 0 0 0 0.15 0"/>
<feBlend mode="normal" in2="BackgroundImageFix" result="effect1_dropShadow_1412_16230"/>
<feBlend mode="normal" in="SourceGraphic" in2="effect1_dropShadow_1412_16230" result="shape"/>
</filter>
<clipPath id="clip0_1412_16230">
<path d="M0 6.59997C0 3.28626 2.68629 0.599976 6 0.599976H571C574.314 0.599976 577 3.28627 577 6.59998V228.2H0V6.59997Z" fill="white"/>
</clipPath>
</defs>
</svg>
