<svg width="577" height="229" viewBox="0 0 577 229" fill="none" xmlns="http://www.w3.org/2000/svg">
<path d="M0 6.59997C0 3.28626 2.68629 0.599976 6 0.599976H571C574.314 0.599976 577 3.28627 577 6.59998V228.2H0V6.59997Z" fill="#1C1917"/>
<g filter="url(#filter0_d_106_328)">
<rect x="129" y="80.6" width="320" height="68" fill="#252525"/>
</g>
<path d="M178.707 106.392L173.707 101.392C173.519 101.205 173.265 101.1 173 101.1C172.735 101.1 172.481 101.205 172.293 101.392L167.293 106.392C167.2 106.485 167.126 106.595 167.076 106.717C167.025 106.838 167 106.968 167 107.1V113.1C167 113.233 167.053 113.36 167.146 113.454C167.24 113.547 167.367 113.6 167.5 113.6H171.5C171.633 113.6 171.76 113.547 171.854 113.454C171.947 113.36 172 113.233 172 113.1V109.6H174V113.1C174 113.233 174.053 113.36 174.146 113.454C174.24 113.547 174.367 113.6 174.5 113.6H178.5C178.633 113.6 178.76 113.547 178.854 113.454C178.947 113.36 179 113.233 179 113.1V107.1C179 106.968 178.975 106.838 178.924 106.717C178.874 106.595 178.8 106.485 178.707 106.392ZM178 112.6H175V109.1C175 108.967 174.947 108.84 174.854 108.746C174.76 108.653 174.633 108.6 174.5 108.6H171.5C171.367 108.6 171.24 108.653 171.146 108.746C171.053 108.84 171 108.967 171 109.1V112.6H168V107.1L173 102.1L178 107.1V112.6Z" fill="#16A249"/>
<path d="M166.368 120.92V126.6H165.272V124.176H162.696V126.6H161.592V120.92H162.696V123.216H165.272V120.92H166.368ZM169.977 126.64C169.561 126.64 169.182 126.56 168.841 126.4C168.505 126.24 168.214 126.024 167.969 125.752C167.729 125.475 167.542 125.165 167.409 124.824C167.276 124.477 167.209 124.123 167.209 123.76C167.209 123.381 167.278 123.021 167.417 122.68C167.561 122.333 167.756 122.027 168.001 121.76C168.252 121.488 168.545 121.275 168.881 121.12C169.222 120.96 169.596 120.88 170.001 120.88C170.412 120.88 170.785 120.963 171.121 121.128C171.462 121.293 171.753 121.515 171.993 121.792C172.233 122.069 172.42 122.379 172.553 122.72C172.686 123.061 172.753 123.413 172.753 123.776C172.753 124.149 172.684 124.509 172.545 124.856C172.406 125.197 172.212 125.504 171.961 125.776C171.716 126.043 171.422 126.253 171.081 126.408C170.745 126.563 170.377 126.64 169.977 126.64ZM168.329 123.76C168.329 124.005 168.366 124.243 168.441 124.472C168.516 124.701 168.622 124.907 168.761 125.088C168.905 125.264 169.078 125.405 169.281 125.512C169.489 125.613 169.724 125.664 169.985 125.664C170.252 125.664 170.489 125.611 170.697 125.504C170.905 125.392 171.078 125.245 171.217 125.064C171.356 124.877 171.46 124.672 171.529 124.448C171.604 124.219 171.641 123.989 171.641 123.76C171.641 123.515 171.601 123.28 171.521 123.056C171.446 122.827 171.337 122.624 171.193 122.448C171.054 122.267 170.881 122.125 170.673 122.024C170.47 121.917 170.241 121.864 169.985 121.864C169.713 121.864 169.473 121.92 169.265 122.032C169.062 122.139 168.892 122.283 168.753 122.464C168.614 122.645 168.508 122.848 168.433 123.072C168.364 123.296 168.329 123.525 168.329 123.76ZM178.232 126.6V122.872L176.776 125.648H176.16L174.704 122.872V126.6H173.6V120.92H174.784L176.464 124.152L178.16 120.92H179.336V126.6H178.232ZM184.466 125.632V126.6H180.522V120.92H184.394V121.888H181.626V123.256H184.018V124.152H181.626V125.632H184.466Z" fill="#16A249"/>
<path d="M253.125 102.1C251.834 102.1 250.704 102.655 250 103.593C249.296 102.655 248.166 102.1 246.875 102.1C245.848 102.101 244.863 102.51 244.136 103.236C243.41 103.963 243.001 104.948 243 105.975C243 110.35 249.487 113.891 249.763 114.037C249.836 114.077 249.917 114.097 250 114.097C250.083 114.097 250.164 114.077 250.237 114.037C250.513 113.891 257 110.35 257 105.975C256.999 104.948 256.59 103.963 255.864 103.236C255.137 102.51 254.152 102.101 253.125 102.1ZM250 113.025C248.859 112.36 244 109.331 244 105.975C244.001 105.213 244.304 104.482 244.843 103.943C245.382 103.404 246.113 103.101 246.875 103.1C248.091 103.1 249.111 103.747 249.537 104.787C249.575 104.879 249.639 104.958 249.722 105.013C249.804 105.068 249.901 105.097 250 105.097C250.099 105.097 250.196 105.068 250.278 105.013C250.361 104.958 250.425 104.879 250.462 104.787C250.889 103.746 251.909 103.1 253.125 103.1C253.887 103.101 254.618 103.404 255.157 103.943C255.696 104.482 255.999 105.213 256 105.975C256 109.326 251.14 112.359 250 113.025Z" fill="white" fill-opacity="0.6"/>
<path d="M228.712 126.6V120.92H232.44V121.416H229.272V123.504H231.944V123.968H229.272V126.6H228.712ZM234.691 120.92H235.163L237.523 126.6H236.931L236.195 124.824H233.643L232.915 126.6H232.315L234.691 120.92ZM236.067 124.384L234.923 121.576L233.763 124.384H236.067ZM237.844 120.92L239.876 125.904L241.9 120.92H242.484L240.132 126.6H239.62L237.26 120.92H237.844ZM245.367 126.64C244.967 126.64 244.605 126.56 244.279 126.4C243.954 126.24 243.674 126.024 243.439 125.752C243.205 125.475 243.023 125.165 242.895 124.824C242.767 124.477 242.703 124.123 242.703 123.76C242.703 123.381 242.77 123.021 242.903 122.68C243.037 122.333 243.223 122.027 243.463 121.76C243.709 121.488 243.994 121.275 244.319 121.12C244.645 120.96 244.997 120.88 245.375 120.88C245.775 120.88 246.138 120.963 246.463 121.128C246.789 121.293 247.066 121.515 247.295 121.792C247.53 122.069 247.711 122.379 247.839 122.72C247.967 123.061 248.031 123.411 248.031 123.768C248.031 124.147 247.965 124.509 247.831 124.856C247.698 125.197 247.511 125.504 247.271 125.776C247.031 126.043 246.749 126.253 246.423 126.408C246.098 126.563 245.746 126.64 245.367 126.64ZM243.263 123.76C243.263 124.069 243.314 124.368 243.415 124.656C243.517 124.939 243.661 125.192 243.847 125.416C244.034 125.635 244.255 125.811 244.511 125.944C244.773 126.072 245.058 126.136 245.367 126.136C245.693 126.136 245.983 126.069 246.239 125.936C246.501 125.797 246.722 125.616 246.903 125.392C247.09 125.163 247.231 124.907 247.327 124.624C247.423 124.341 247.471 124.053 247.471 123.76C247.471 123.451 247.421 123.155 247.319 122.872C247.218 122.589 247.071 122.336 246.879 122.112C246.693 121.888 246.471 121.712 246.215 121.584C245.959 121.456 245.677 121.392 245.367 121.392C245.047 121.392 244.757 121.459 244.495 121.592C244.239 121.725 244.018 121.907 243.831 122.136C243.65 122.36 243.509 122.613 243.407 122.896C243.311 123.179 243.263 123.467 243.263 123.76ZM249.087 126.6V120.92H251.487C251.732 120.92 251.956 120.971 252.159 121.072C252.362 121.173 252.538 121.312 252.687 121.488C252.842 121.659 252.959 121.851 253.039 122.064C253.124 122.272 253.167 122.485 253.167 122.704C253.167 122.976 253.114 123.232 253.007 123.472C252.906 123.712 252.759 123.915 252.567 124.08C252.38 124.245 252.159 124.355 251.903 124.408L253.295 126.6H252.663L251.327 124.504H249.647V126.6H249.087ZM249.647 124.008H251.503C251.727 124.008 251.922 123.947 252.087 123.824C252.252 123.701 252.38 123.541 252.471 123.344C252.562 123.141 252.607 122.928 252.607 122.704C252.607 122.475 252.554 122.264 252.447 122.072C252.346 121.875 252.207 121.717 252.031 121.6C251.86 121.477 251.668 121.416 251.455 121.416H249.647V124.008ZM254.314 126.6V120.92H254.874V126.6H254.314ZM260.33 121.416H258.306V126.6H257.746V121.416H255.722V120.92H260.33V121.416ZM263.273 126.64C262.873 126.64 262.511 126.56 262.185 126.4C261.86 126.24 261.58 126.024 261.345 125.752C261.111 125.475 260.929 125.165 260.801 124.824C260.673 124.477 260.609 124.123 260.609 123.76C260.609 123.381 260.676 123.021 260.809 122.68C260.943 122.333 261.129 122.027 261.369 121.76C261.615 121.488 261.9 121.275 262.225 121.12C262.551 120.96 262.903 120.88 263.281 120.88C263.681 120.88 264.044 120.963 264.369 121.128C264.695 121.293 264.972 121.515 265.201 121.792C265.436 122.069 265.617 122.379 265.745 122.72C265.873 123.061 265.937 123.411 265.937 123.768C265.937 124.147 265.871 124.509 265.737 124.856C265.604 125.197 265.417 125.504 265.177 125.776C264.937 126.043 264.655 126.253 264.329 126.408C264.004 126.563 263.652 126.64 263.273 126.64ZM261.169 123.76C261.169 124.069 261.22 124.368 261.321 124.656C261.423 124.939 261.567 125.192 261.753 125.416C261.94 125.635 262.161 125.811 262.417 125.944C262.679 126.072 262.964 126.136 263.273 126.136C263.599 126.136 263.889 126.069 264.145 125.936C264.407 125.797 264.628 125.616 264.809 125.392C264.996 125.163 265.137 124.907 265.233 124.624C265.329 124.341 265.377 124.053 265.377 123.76C265.377 123.451 265.327 123.155 265.225 122.872C265.124 122.589 264.977 122.336 264.785 122.112C264.599 121.888 264.377 121.712 264.121 121.584C263.865 121.456 263.583 121.392 263.273 121.392C262.953 121.392 262.663 121.459 262.401 121.592C262.145 121.725 261.924 121.907 261.737 122.136C261.556 122.36 261.415 122.613 261.313 122.896C261.217 123.179 261.169 123.467 261.169 123.76ZM270.313 121.984C270.233 121.893 270.14 121.813 270.033 121.744C269.927 121.669 269.807 121.605 269.673 121.552C269.54 121.499 269.396 121.456 269.241 121.424C269.092 121.392 268.932 121.376 268.761 121.376C268.265 121.376 267.9 121.472 267.665 121.664C267.436 121.851 267.321 122.107 267.321 122.432C267.321 122.656 267.375 122.832 267.481 122.96C267.593 123.088 267.767 123.192 268.001 123.272C268.236 123.352 268.535 123.435 268.897 123.52C269.303 123.605 269.652 123.707 269.945 123.824C270.239 123.941 270.465 124.101 270.625 124.304C270.785 124.501 270.865 124.771 270.865 125.112C270.865 125.373 270.815 125.6 270.713 125.792C270.612 125.984 270.471 126.144 270.289 126.272C270.108 126.4 269.892 126.496 269.641 126.56C269.391 126.619 269.116 126.648 268.817 126.648C268.524 126.648 268.241 126.619 267.969 126.56C267.703 126.496 267.449 126.405 267.209 126.288C266.969 126.165 266.745 126.011 266.537 125.824L266.817 125.368C266.919 125.475 267.039 125.576 267.177 125.672C267.321 125.763 267.479 125.845 267.649 125.92C267.825 125.995 268.012 126.053 268.209 126.096C268.412 126.133 268.62 126.152 268.833 126.152C269.287 126.152 269.639 126.069 269.889 125.904C270.145 125.739 270.273 125.493 270.273 125.168C270.273 124.933 270.209 124.747 270.081 124.608C269.953 124.464 269.761 124.347 269.505 124.256C269.249 124.165 268.935 124.077 268.561 123.992C268.167 123.901 267.833 123.8 267.561 123.688C267.289 123.576 267.084 123.429 266.945 123.248C266.812 123.061 266.745 122.816 266.745 122.512C266.745 122.16 266.831 121.864 267.001 121.624C267.177 121.379 267.417 121.195 267.721 121.072C268.025 120.944 268.375 120.88 268.769 120.88C269.02 120.88 269.252 120.907 269.465 120.96C269.684 121.008 269.884 121.08 270.065 121.176C270.252 121.272 270.425 121.392 270.585 121.536L270.313 121.984Z" fill="white" fill-opacity="0.6"/>
<path d="M337.854 113.246L334.724 110.117C335.631 109.029 336.084 107.632 335.987 106.218C335.891 104.804 335.253 103.482 334.206 102.526C333.159 101.571 331.785 101.055 330.368 101.088C328.951 101.12 327.601 101.697 326.599 102.699C325.597 103.701 325.02 105.051 324.988 106.468C324.955 107.885 325.471 109.259 326.426 110.306C327.382 111.353 328.704 111.991 330.118 112.087C331.532 112.184 332.928 111.731 334.017 110.824L337.146 113.954C337.193 114 337.248 114.037 337.308 114.062C337.369 114.087 337.434 114.1 337.5 114.1C337.566 114.1 337.631 114.087 337.691 114.062C337.752 114.037 337.807 114 337.854 113.954C337.9 113.907 337.937 113.852 337.962 113.791C337.987 113.731 338 113.666 338 113.6C338 113.534 337.987 113.469 337.962 113.409C337.937 113.348 337.9 113.293 337.854 113.246ZM326 106.6C326 105.71 326.264 104.84 326.758 104.1C327.253 103.36 327.956 102.783 328.778 102.443C329.6 102.102 330.505 102.013 331.378 102.186C332.251 102.36 333.053 102.789 333.682 103.418C334.311 104.047 334.74 104.849 334.913 105.722C335.087 106.595 334.998 107.5 334.657 108.322C334.317 109.144 333.74 109.847 333 110.342C332.26 110.836 331.39 111.1 330.5 111.1C329.307 111.099 328.163 110.624 327.319 109.781C326.476 108.937 326.001 107.793 326 106.6Z" fill="white" fill-opacity="0.6"/>
<path d="M319.984 125.136C319.984 125.419 319.912 125.672 319.768 125.896C319.624 126.115 319.429 126.288 319.184 126.416C318.944 126.539 318.68 126.6 318.392 126.6H315.712V120.92H318.448C318.715 120.92 318.944 120.992 319.136 121.136C319.333 121.275 319.483 121.456 319.584 121.68C319.691 121.899 319.744 122.128 319.744 122.368C319.744 122.651 319.672 122.912 319.528 123.152C319.384 123.392 319.184 123.571 318.928 123.688C319.253 123.784 319.509 123.963 319.696 124.224C319.888 124.485 319.984 124.789 319.984 125.136ZM319.424 125.04C319.424 124.848 319.381 124.672 319.296 124.512C319.211 124.347 319.093 124.213 318.944 124.112C318.8 124.011 318.635 123.96 318.448 123.96H316.272V126.112H318.392C318.584 126.112 318.757 126.061 318.912 125.96C319.067 125.859 319.189 125.728 319.28 125.568C319.376 125.403 319.424 125.227 319.424 125.04ZM316.272 121.408V123.504H318.224C318.411 123.504 318.576 123.456 318.72 123.36C318.864 123.259 318.979 123.128 319.064 122.968C319.149 122.808 319.192 122.637 319.192 122.456C319.192 122.264 319.152 122.091 319.072 121.936C318.992 121.776 318.883 121.648 318.744 121.552C318.605 121.456 318.448 121.408 318.272 121.408H316.272ZM323.352 126.64C322.904 126.64 322.525 126.56 322.216 126.4C321.907 126.24 321.661 126.027 321.48 125.76C321.299 125.488 321.165 125.181 321.08 124.84C321 124.499 320.96 124.147 320.96 123.784V120.92H321.512V123.784C321.512 124.077 321.541 124.365 321.6 124.648C321.664 124.931 321.765 125.184 321.904 125.408C322.043 125.632 322.229 125.811 322.464 125.944C322.699 126.072 322.992 126.136 323.344 126.136C323.707 126.136 324.005 126.069 324.24 125.936C324.48 125.797 324.667 125.616 324.8 125.392C324.939 125.168 325.037 124.917 325.096 124.64C325.155 124.357 325.184 124.072 325.184 123.784V120.92H325.744V123.784C325.744 124.163 325.701 124.525 325.616 124.872C325.531 125.219 325.392 125.523 325.2 125.784C325.013 126.045 324.768 126.253 324.464 126.408C324.16 126.563 323.789 126.64 323.352 126.64ZM330.399 121.984C330.319 121.893 330.226 121.813 330.119 121.744C330.013 121.669 329.893 121.605 329.759 121.552C329.626 121.499 329.482 121.456 329.327 121.424C329.178 121.392 329.018 121.376 328.847 121.376C328.351 121.376 327.986 121.472 327.751 121.664C327.522 121.851 327.407 122.107 327.407 122.432C327.407 122.656 327.461 122.832 327.567 122.96C327.679 123.088 327.853 123.192 328.087 123.272C328.322 123.352 328.621 123.435 328.983 123.52C329.389 123.605 329.738 123.707 330.031 123.824C330.325 123.941 330.551 124.101 330.711 124.304C330.871 124.501 330.951 124.771 330.951 125.112C330.951 125.373 330.901 125.6 330.799 125.792C330.698 125.984 330.557 126.144 330.375 126.272C330.194 126.4 329.978 126.496 329.727 126.56C329.477 126.619 329.202 126.648 328.903 126.648C328.61 126.648 328.327 126.619 328.055 126.56C327.789 126.496 327.535 126.405 327.295 126.288C327.055 126.165 326.831 126.011 326.623 125.824L326.903 125.368C327.005 125.475 327.125 125.576 327.263 125.672C327.407 125.763 327.565 125.845 327.735 125.92C327.911 125.995 328.098 126.053 328.295 126.096C328.498 126.133 328.706 126.152 328.919 126.152C329.373 126.152 329.725 126.069 329.975 125.904C330.231 125.739 330.359 125.493 330.359 125.168C330.359 124.933 330.295 124.747 330.167 124.608C330.039 124.464 329.847 124.347 329.591 124.256C329.335 124.165 329.021 124.077 328.647 123.992C328.253 123.901 327.919 123.8 327.647 123.688C327.375 123.576 327.17 123.429 327.031 123.248C326.898 123.061 326.831 122.816 326.831 122.512C326.831 122.16 326.917 121.864 327.087 121.624C327.263 121.379 327.503 121.195 327.807 121.072C328.111 120.944 328.461 120.88 328.855 120.88C329.106 120.88 329.338 120.907 329.551 120.96C329.77 121.008 329.97 121.08 330.151 121.176C330.338 121.272 330.511 121.392 330.671 121.536L330.399 121.984ZM331.563 123.72C331.563 123.373 331.621 123.035 331.739 122.704C331.861 122.368 332.037 122.064 332.267 121.792C332.496 121.515 332.779 121.296 333.115 121.136C333.451 120.971 333.832 120.888 334.259 120.888C334.765 120.888 335.197 121.005 335.555 121.24C335.917 121.469 336.184 121.765 336.355 122.128L335.915 122.4C335.792 122.149 335.637 121.952 335.451 121.808C335.264 121.659 335.064 121.552 334.851 121.488C334.643 121.424 334.435 121.392 334.227 121.392C333.885 121.392 333.584 121.461 333.323 121.6C333.061 121.733 332.84 121.915 332.659 122.144C332.483 122.368 332.349 122.621 332.259 122.904C332.168 123.181 332.123 123.464 332.123 123.752C332.123 124.067 332.176 124.368 332.283 124.656C332.389 124.944 332.539 125.2 332.731 125.424C332.923 125.643 333.147 125.819 333.403 125.952C333.664 126.08 333.947 126.144 334.251 126.144C334.464 126.144 334.683 126.107 334.907 126.032C335.131 125.957 335.339 125.843 335.531 125.688C335.728 125.533 335.885 125.333 336.003 125.088L336.467 125.328C336.349 125.611 336.168 125.851 335.923 126.048C335.677 126.245 335.403 126.395 335.099 126.496C334.8 126.597 334.507 126.648 334.219 126.648C333.829 126.648 333.472 126.565 333.147 126.4C332.821 126.229 332.539 126.005 332.299 125.728C332.064 125.445 331.883 125.131 331.755 124.784C331.627 124.432 331.563 124.077 331.563 123.72ZM339.105 120.92H339.577L341.937 126.6H341.345L340.609 124.824H338.057L337.329 126.6H336.729L339.105 120.92ZM340.481 124.384L339.337 121.576L338.177 124.384H340.481ZM342.751 126.6V120.92H345.151C345.396 120.92 345.62 120.971 345.823 121.072C346.026 121.173 346.202 121.312 346.351 121.488C346.506 121.659 346.623 121.851 346.703 122.064C346.788 122.272 346.831 122.485 346.831 122.704C346.831 122.976 346.778 123.232 346.671 123.472C346.57 123.712 346.423 123.915 346.231 124.08C346.044 124.245 345.823 124.355 345.567 124.408L346.959 126.6H346.327L344.991 124.504H343.311V126.6H342.751ZM343.311 124.008H345.167C345.391 124.008 345.586 123.947 345.751 123.824C345.916 123.701 346.044 123.541 346.135 123.344C346.226 123.141 346.271 122.928 346.271 122.704C346.271 122.475 346.218 122.264 346.111 122.072C346.01 121.875 345.871 121.717 345.695 121.6C345.524 121.477 345.332 121.416 345.119 121.416H343.311V124.008Z" fill="white" fill-opacity="0.6"/>
<path d="M410.932 112.85C409.981 111.204 408.514 110.024 406.802 109.465C407.649 108.961 408.306 108.193 408.674 107.279C409.042 106.364 409.1 105.355 408.839 104.405C408.577 103.454 408.011 102.616 407.227 102.019C406.444 101.422 405.485 101.098 404.5 101.098C403.514 101.098 402.556 101.422 401.772 102.019C400.989 102.616 400.423 103.454 400.161 104.405C399.9 105.355 399.957 106.364 400.325 107.279C400.693 108.193 401.351 108.961 402.198 109.465C400.486 110.024 399.019 111.204 398.067 112.85C398.033 112.907 398.009 112.97 397.999 113.036C397.989 113.102 397.993 113.17 398.009 113.234C398.025 113.299 398.055 113.36 398.095 113.413C398.135 113.466 398.186 113.511 398.244 113.544C398.301 113.578 398.365 113.599 398.432 113.607C398.498 113.616 398.565 113.611 398.629 113.593C398.694 113.574 398.754 113.544 398.806 113.502C398.858 113.46 398.901 113.409 398.933 113.35C400.111 111.315 402.192 110.1 404.5 110.1C406.808 110.1 408.889 111.315 410.067 113.35C410.099 113.409 410.142 113.46 410.194 113.502C410.246 113.544 410.306 113.574 410.371 113.593C410.435 113.611 410.502 113.616 410.568 113.607C410.635 113.599 410.698 113.578 410.756 113.544C410.814 113.511 410.865 113.466 410.905 113.413C410.945 113.36 410.974 113.299 410.991 113.234C411.007 113.17 411.011 113.102 411.001 113.036C410.99 112.97 410.967 112.907 410.932 112.85ZM401 105.6C401 104.908 401.205 104.231 401.59 103.655C401.974 103.08 402.521 102.631 403.161 102.366C403.8 102.101 404.504 102.032 405.183 102.167C405.862 102.302 406.485 102.636 406.975 103.125C407.464 103.615 407.798 104.238 407.933 104.917C408.068 105.596 407.998 106.3 407.734 106.939C407.469 107.579 407.02 108.126 406.444 108.51C405.869 108.895 405.192 109.1 404.5 109.1C403.572 109.099 402.682 108.73 402.026 108.074C401.37 107.418 401.001 106.528 401 105.6Z" fill="white" fill-opacity="0.6"/>
<path d="M391.712 126.6V120.92H394.064C394.309 120.92 394.533 120.971 394.736 121.072C394.944 121.173 395.123 121.312 395.272 121.488C395.421 121.659 395.539 121.851 395.624 122.064C395.709 122.272 395.752 122.485 395.752 122.704C395.752 123.013 395.683 123.307 395.544 123.584C395.411 123.856 395.221 124.077 394.976 124.248C394.731 124.419 394.443 124.504 394.112 124.504H392.272V126.6H391.712ZM392.272 124.008H394.088C394.312 124.008 394.507 123.947 394.672 123.824C394.837 123.701 394.965 123.541 395.056 123.344C395.147 123.147 395.192 122.933 395.192 122.704C395.192 122.469 395.139 122.253 395.032 122.056C394.925 121.859 394.784 121.704 394.608 121.592C394.437 121.475 394.248 121.416 394.04 121.416H392.272V124.008ZM400.505 126.104V126.6H396.689V120.92H400.433V121.416H397.249V123.464H400.025V123.936H397.249V126.104H400.505ZM401.564 126.6V120.92H403.964C404.209 120.92 404.433 120.971 404.636 121.072C404.838 121.173 405.014 121.312 405.164 121.488C405.318 121.659 405.436 121.851 405.516 122.064C405.601 122.272 405.644 122.485 405.644 122.704C405.644 122.976 405.59 123.232 405.484 123.472C405.382 123.712 405.236 123.915 405.044 124.08C404.857 124.245 404.636 124.355 404.38 124.408L405.772 126.6H405.14L403.804 124.504H402.124V126.6H401.564ZM402.124 124.008H403.98C404.204 124.008 404.398 123.947 404.564 123.824C404.729 123.701 404.857 123.541 404.948 123.344C405.038 123.141 405.084 122.928 405.084 122.704C405.084 122.475 405.03 122.264 404.924 122.072C404.822 121.875 404.684 121.717 404.508 121.6C404.337 121.477 404.145 121.416 403.932 121.416H402.124V124.008ZM406.79 126.6V120.92H410.518V121.416H407.35V123.504H410.022V123.968H407.35V126.6H406.79ZM411.501 126.6V120.92H412.061V126.6H411.501ZM413.485 126.6V120.92H414.045V126.104H417.325V126.6H413.485Z" fill="white" fill-opacity="0.6"/>
<defs>
<filter id="filter0_d_106_328" x="113" y="63.6" width="352" height="100" filterUnits="userSpaceOnUse" color-interpolation-filters="sRGB">
<feFlood flood-opacity="0" result="BackgroundImageFix"/>
<feColorMatrix in="SourceAlpha" type="matrix" values="0 0 0 0 0 0 0 0 0 0 0 0 0 0 0 0 0 0 127 0" result="hardAlpha"/>
<feMorphology radius="4" operator="erode" in="SourceAlpha" result="effect1_dropShadow_106_328"/>
<feOffset dy="-1"/>
<feGaussianBlur stdDeviation="10"/>
<feComposite in2="hardAlpha" operator="out"/>
<feColorMatrix type="matrix" values="0 0 0 0 0 0 0 0 0 0 0 0 0 0 0 0 0 0 0.25 0"/>
<feBlend mode="normal" in2="BackgroundImageFix" result="effect1_dropShadow_106_328"/>
<feBlend mode="normal" in="SourceGraphic" in2="effect1_dropShadow_106_328" result="shape"/>
</filter>
</defs>
</svg>
