<svg width="577" height="229" viewBox="0 0 577 229" fill="none" xmlns="http://www.w3.org/2000/svg">
<path d="M0 6.59997C0 3.28626 2.68629 0.599976 6 0.599976H571C574.314 0.599976 577 3.28627 577 6.59998V228.2H0V6.59997Z" fill="#1C1917"/>
<g filter="url(#filter0_ddd_1412_16493)">
<g clip-path="url(#clip0_1412_16493)">
<rect x="53" y="62.6" width="243" height="42" rx="4" fill="#21C45D"/>
<path d="M149.083 83.7806H146.366L146.351 82.4403H148.724C149.125 82.4403 149.464 82.3817 149.742 82.2645C150.025 82.1425 150.24 81.9691 150.387 81.7445C150.533 81.515 150.606 81.2391 150.606 80.9169C150.606 80.5604 150.538 80.2699 150.401 80.0453C150.265 79.8207 150.055 79.6571 149.771 79.5546C149.493 79.452 149.137 79.4008 148.702 79.4008H146.922V88.6H145.084V77.9359H148.702C149.288 77.9359 149.811 77.9921 150.27 78.1044C150.733 78.2167 151.126 78.3925 151.449 78.6317C151.776 78.8661 152.022 79.1639 152.188 79.5253C152.359 79.8866 152.445 80.3163 152.445 80.8143C152.445 81.2538 152.34 81.6566 152.13 82.0228C151.92 82.3842 151.61 82.6796 151.2 82.9091C150.79 83.1385 150.279 83.2753 149.669 83.3192L149.083 83.7806ZM149.002 88.6H145.787L146.615 87.1425H149.002C149.417 87.1425 149.764 87.0741 150.042 86.9374C150.321 86.7958 150.528 86.6029 150.665 86.3588C150.807 86.1097 150.877 85.8192 150.877 85.4872C150.877 85.1405 150.816 84.8402 150.694 84.5863C150.572 84.3275 150.379 84.1298 150.116 83.993C149.852 83.8514 149.508 83.7806 149.083 83.7806H147.018L147.032 82.4403H149.72L150.138 82.9457C150.724 82.9652 151.205 83.0946 151.581 83.3339C151.961 83.5731 152.245 83.8832 152.43 84.264C152.616 84.6449 152.708 85.0551 152.708 85.4945C152.708 86.1732 152.56 86.7421 152.262 87.201C151.969 87.66 151.546 88.0092 150.995 88.2484C150.443 88.4828 149.779 88.6 149.002 88.6ZM161.005 77.9359H162.836V85.0624C162.836 85.8729 162.661 86.5516 162.309 87.0985C161.958 87.6454 161.479 88.058 160.874 88.3363C160.273 88.6097 159.602 88.7465 158.859 88.7465C158.093 88.7465 157.409 88.6097 156.809 88.3363C156.208 88.058 155.734 87.6454 155.388 87.0985C155.046 86.5516 154.875 85.8729 154.875 85.0624V77.9359H156.706V85.0624C156.706 85.5751 156.794 85.9974 156.97 86.3295C157.146 86.6566 157.395 86.8983 157.717 87.0546C158.039 87.2108 158.42 87.2889 158.859 87.2889C159.299 87.2889 159.677 87.2108 159.995 87.0546C160.317 86.8983 160.566 86.6566 160.742 86.3295C160.918 85.9974 161.005 85.5751 161.005 85.0624V77.9359ZM169.683 77.9359V88.6H167.859V77.9359H169.683ZM173.03 77.9359V79.4008H164.542V77.9359H173.03ZM179.401 77.9359V88.6H177.577V77.9359H179.401ZM182.748 77.9359V79.4008H174.259V77.9359H182.748ZM192.913 82.975V83.5609C192.913 84.3666 192.808 85.0892 192.598 85.7289C192.388 86.3685 192.088 86.913 191.697 87.3622C191.311 87.8114 190.847 88.1556 190.305 88.3949C189.763 88.6293 189.163 88.7465 188.504 88.7465C187.849 88.7465 187.251 88.6293 186.709 88.3949C186.172 88.1556 185.706 87.8114 185.31 87.3622C184.915 86.913 184.607 86.3685 184.387 85.7289C184.173 85.0892 184.065 84.3666 184.065 83.5609V82.975C184.065 82.1693 184.173 81.4491 184.387 80.8143C184.602 80.1747 184.905 79.6302 185.296 79.181C185.691 78.7269 186.157 78.3827 186.694 78.1483C187.236 77.9091 187.835 77.7894 188.489 77.7894C189.148 77.7894 189.749 77.9091 190.291 78.1483C190.833 78.3827 191.299 78.7269 191.69 79.181C192.08 79.6302 192.381 80.1747 192.59 80.8143C192.805 81.4491 192.913 82.1693 192.913 82.975ZM191.074 83.5609V82.9603C191.074 82.3646 191.016 81.8397 190.899 81.3856C190.786 80.9266 190.618 80.5433 190.393 80.2357C190.173 79.9232 189.903 79.6888 189.58 79.5326C189.258 79.3715 188.894 79.2909 188.489 79.2909C188.084 79.2909 187.722 79.3715 187.405 79.5326C187.088 79.6888 186.817 79.9232 186.592 80.2357C186.372 80.5433 186.204 80.9266 186.087 81.3856C185.969 81.8397 185.911 82.3646 185.911 82.9603V83.5609C185.911 84.1566 185.969 84.684 186.087 85.1429C186.204 85.6019 186.375 85.9901 186.599 86.3075C186.829 86.62 187.102 86.8568 187.42 87.0179C187.737 87.1742 188.098 87.2523 188.504 87.2523C188.914 87.2523 189.278 87.1742 189.595 87.0179C189.912 86.8568 190.181 86.62 190.401 86.3075C190.62 85.9901 190.786 85.6019 190.899 85.1429C191.016 84.684 191.074 84.1566 191.074 83.5609ZM203.671 77.9359V88.6H201.832L197.05 80.9608V88.6H195.211V77.9359H197.05L201.847 85.5897V77.9359H203.671Z" fill="white"/>
</g>
</g>
<g filter="url(#filter1_ddd_1412_16493)">
<g clip-path="url(#clip1_1412_16493)">
<rect x="160" y="96.6" width="243" height="42" rx="4" fill="#12853C"/>
<path d="M256.083 117.781H253.366L253.351 116.44H255.724C256.125 116.44 256.464 116.382 256.742 116.265C257.025 116.142 257.24 115.969 257.387 115.745C257.533 115.515 257.606 115.239 257.606 114.917C257.606 114.56 257.538 114.27 257.401 114.045C257.265 113.821 257.055 113.657 256.771 113.555C256.493 113.452 256.137 113.401 255.702 113.401H253.922V122.6H252.084V111.936H255.702C256.288 111.936 256.811 111.992 257.27 112.104C257.733 112.217 258.126 112.392 258.449 112.632C258.776 112.866 259.022 113.164 259.188 113.525C259.359 113.887 259.445 114.316 259.445 114.814C259.445 115.254 259.34 115.657 259.13 116.023C258.92 116.384 258.61 116.68 258.2 116.909C257.79 117.139 257.279 117.275 256.669 117.319L256.083 117.781ZM256.002 122.6H252.787L253.615 121.142H256.002C256.417 121.142 256.764 121.074 257.042 120.937C257.321 120.796 257.528 120.603 257.665 120.359C257.807 120.11 257.877 119.819 257.877 119.487C257.877 119.141 257.816 118.84 257.694 118.586C257.572 118.328 257.379 118.13 257.116 117.993C256.852 117.851 256.508 117.781 256.083 117.781H254.018L254.032 116.44H256.72L257.138 116.946C257.724 116.965 258.205 117.095 258.581 117.334C258.961 117.573 259.245 117.883 259.43 118.264C259.616 118.645 259.708 119.055 259.708 119.495C259.708 120.173 259.56 120.742 259.262 121.201C258.969 121.66 258.546 122.009 257.995 122.248C257.443 122.483 256.779 122.6 256.002 122.6ZM268.005 111.936H269.836V119.062C269.836 119.873 269.661 120.552 269.309 121.099C268.958 121.645 268.479 122.058 267.874 122.336C267.273 122.61 266.602 122.746 265.859 122.746C265.093 122.746 264.409 122.61 263.809 122.336C263.208 122.058 262.734 121.645 262.388 121.099C262.046 120.552 261.875 119.873 261.875 119.062V111.936H263.706V119.062C263.706 119.575 263.794 119.997 263.97 120.329C264.146 120.657 264.395 120.898 264.717 121.055C265.039 121.211 265.42 121.289 265.859 121.289C266.299 121.289 266.677 121.211 266.995 121.055C267.317 120.898 267.566 120.657 267.742 120.329C267.918 119.997 268.005 119.575 268.005 119.062V111.936ZM276.683 111.936V122.6H274.859V111.936H276.683ZM280.03 111.936V113.401H271.542V111.936H280.03ZM286.401 111.936V122.6H284.577V111.936H286.401ZM289.748 111.936V113.401H281.259V111.936H289.748ZM299.913 116.975V117.561C299.913 118.367 299.808 119.089 299.598 119.729C299.388 120.369 299.088 120.913 298.697 121.362C298.311 121.811 297.847 122.156 297.305 122.395C296.763 122.629 296.163 122.746 295.504 122.746C294.849 122.746 294.251 122.629 293.709 122.395C293.172 122.156 292.706 121.811 292.31 121.362C291.915 120.913 291.607 120.369 291.387 119.729C291.173 119.089 291.065 118.367 291.065 117.561V116.975C291.065 116.169 291.173 115.449 291.387 114.814C291.602 114.175 291.905 113.63 292.296 113.181C292.691 112.727 293.157 112.383 293.694 112.148C294.236 111.909 294.835 111.789 295.489 111.789C296.148 111.789 296.749 111.909 297.291 112.148C297.833 112.383 298.299 112.727 298.69 113.181C299.08 113.63 299.381 114.175 299.59 114.814C299.805 115.449 299.913 116.169 299.913 116.975ZM298.074 117.561V116.96C298.074 116.365 298.016 115.84 297.899 115.386C297.786 114.927 297.618 114.543 297.393 114.236C297.173 113.923 296.903 113.689 296.58 113.533C296.258 113.371 295.894 113.291 295.489 113.291C295.084 113.291 294.722 113.371 294.405 113.533C294.088 113.689 293.817 113.923 293.592 114.236C293.372 114.543 293.204 114.927 293.087 115.386C292.969 115.84 292.911 116.365 292.911 116.96V117.561C292.911 118.157 292.969 118.684 293.087 119.143C293.204 119.602 293.375 119.99 293.599 120.307C293.829 120.62 294.102 120.857 294.42 121.018C294.737 121.174 295.098 121.252 295.504 121.252C295.914 121.252 296.278 121.174 296.595 121.018C296.912 120.857 297.181 120.62 297.401 120.307C297.62 119.99 297.786 119.602 297.899 119.143C298.016 118.684 298.074 118.157 298.074 117.561ZM310.671 111.936V122.6H308.832L304.05 114.961V122.6H302.211V111.936H304.05L308.847 119.59V111.936H310.671Z" fill="white"/>
</g>
</g>
<g filter="url(#filter2_ddd_1412_16493)">
<g clip-path="url(#clip2_1412_16493)">
<rect x="281" y="125.6" width="243" height="42" rx="4" fill="#7D7D7D"/>
<path d="M377.083 146.781H374.366L374.351 145.44H376.724C377.125 145.44 377.464 145.382 377.742 145.265C378.025 145.142 378.24 144.969 378.387 144.745C378.533 144.515 378.606 144.239 378.606 143.917C378.606 143.56 378.538 143.27 378.401 143.045C378.265 142.821 378.055 142.657 377.771 142.555C377.493 142.452 377.137 142.401 376.702 142.401H374.922V151.6H373.084V140.936H376.702C377.288 140.936 377.811 140.992 378.27 141.104C378.733 141.217 379.126 141.392 379.449 141.632C379.776 141.866 380.022 142.164 380.188 142.525C380.359 142.887 380.445 143.316 380.445 143.814C380.445 144.254 380.34 144.657 380.13 145.023C379.92 145.384 379.61 145.68 379.2 145.909C378.79 146.139 378.279 146.275 377.669 146.319L377.083 146.781ZM377.002 151.6H373.787L374.615 150.142H377.002C377.417 150.142 377.764 150.074 378.042 149.937C378.321 149.796 378.528 149.603 378.665 149.359C378.807 149.11 378.877 148.819 378.877 148.487C378.877 148.141 378.816 147.84 378.694 147.586C378.572 147.328 378.379 147.13 378.116 146.993C377.852 146.851 377.508 146.781 377.083 146.781H375.018L375.032 145.44H377.72L378.138 145.946C378.724 145.965 379.205 146.095 379.581 146.334C379.961 146.573 380.245 146.883 380.43 147.264C380.616 147.645 380.708 148.055 380.708 148.495C380.708 149.173 380.56 149.742 380.262 150.201C379.969 150.66 379.546 151.009 378.995 151.248C378.443 151.483 377.779 151.6 377.002 151.6ZM389.005 140.936H390.836V148.062C390.836 148.873 390.661 149.552 390.309 150.099C389.958 150.645 389.479 151.058 388.874 151.336C388.273 151.61 387.602 151.746 386.859 151.746C386.093 151.746 385.409 151.61 384.809 151.336C384.208 151.058 383.734 150.645 383.388 150.099C383.046 149.552 382.875 148.873 382.875 148.062V140.936H384.706V148.062C384.706 148.575 384.794 148.997 384.97 149.329C385.146 149.657 385.395 149.898 385.717 150.055C386.039 150.211 386.42 150.289 386.859 150.289C387.299 150.289 387.677 150.211 387.995 150.055C388.317 149.898 388.566 149.657 388.742 149.329C388.918 148.997 389.005 148.575 389.005 148.062V140.936ZM397.683 140.936V151.6H395.859V140.936H397.683ZM401.03 140.936V142.401H392.542V140.936H401.03ZM407.401 140.936V151.6H405.577V140.936H407.401ZM410.748 140.936V142.401H402.259V140.936H410.748ZM420.913 145.975V146.561C420.913 147.367 420.808 148.089 420.598 148.729C420.388 149.369 420.088 149.913 419.697 150.362C419.311 150.811 418.847 151.156 418.305 151.395C417.763 151.629 417.163 151.746 416.504 151.746C415.849 151.746 415.251 151.629 414.709 151.395C414.172 151.156 413.706 150.811 413.31 150.362C412.915 149.913 412.607 149.369 412.387 148.729C412.173 148.089 412.065 147.367 412.065 146.561V145.975C412.065 145.169 412.173 144.449 412.387 143.814C412.602 143.175 412.905 142.63 413.296 142.181C413.691 141.727 414.157 141.383 414.694 141.148C415.236 140.909 415.835 140.789 416.489 140.789C417.148 140.789 417.749 140.909 418.291 141.148C418.833 141.383 419.299 141.727 419.69 142.181C420.08 142.63 420.381 143.175 420.59 143.814C420.805 144.449 420.913 145.169 420.913 145.975ZM419.074 146.561V145.96C419.074 145.365 419.016 144.84 418.899 144.386C418.786 143.927 418.618 143.543 418.393 143.236C418.173 142.923 417.903 142.689 417.58 142.533C417.258 142.371 416.894 142.291 416.489 142.291C416.084 142.291 415.722 142.371 415.405 142.533C415.088 142.689 414.817 142.923 414.592 143.236C414.372 143.543 414.204 143.927 414.087 144.386C413.969 144.84 413.911 145.365 413.911 145.96V146.561C413.911 147.157 413.969 147.684 414.087 148.143C414.204 148.602 414.375 148.99 414.599 149.307C414.829 149.62 415.102 149.857 415.42 150.018C415.737 150.174 416.098 150.252 416.504 150.252C416.914 150.252 417.278 150.174 417.595 150.018C417.912 149.857 418.181 149.62 418.401 149.307C418.62 148.99 418.786 148.602 418.899 148.143C419.016 147.684 419.074 147.157 419.074 146.561ZM431.671 140.936V151.6H429.832L425.05 143.961V151.6H423.211V140.936H425.05L429.847 148.59V140.936H431.671Z" fill="white"/>
</g>
</g>
<defs>
<filter id="filter0_ddd_1412_16493" x="48" y="58.6" width="253" height="52" filterUnits="userSpaceOnUse" color-interpolation-filters="sRGB">
<feFlood flood-opacity="0" result="BackgroundImageFix"/>
<feColorMatrix in="SourceAlpha" type="matrix" values="0 0 0 0 0 0 0 0 0 0 0 0 0 0 0 0 0 0 127 0" result="hardAlpha"/>
<feOffset dy="1"/>
<feGaussianBlur stdDeviation="2.5"/>
<feColorMatrix type="matrix" values="0 0 0 0 0 0 0 0 0 0 0 0 0 0 0 0 0 0 0.12 0"/>
<feBlend mode="normal" in2="BackgroundImageFix" result="effect1_dropShadow_1412_16493"/>
<feColorMatrix in="SourceAlpha" type="matrix" values="0 0 0 0 0 0 0 0 0 0 0 0 0 0 0 0 0 0 127 0" result="hardAlpha"/>
<feOffset dy="2"/>
<feGaussianBlur stdDeviation="1"/>
<feColorMatrix type="matrix" values="0 0 0 0 0 0 0 0 0 0 0 0 0 0 0 0 0 0 0.14 0"/>
<feBlend mode="normal" in2="effect1_dropShadow_1412_16493" result="effect2_dropShadow_1412_16493"/>
<feColorMatrix in="SourceAlpha" type="matrix" values="0 0 0 0 0 0 0 0 0 0 0 0 0 0 0 0 0 0 127 0" result="hardAlpha"/>
<feMorphology radius="2" operator="erode" in="SourceAlpha" result="effect3_dropShadow_1412_16493"/>
<feOffset dy="3"/>
<feGaussianBlur stdDeviation="0.5"/>
<feColorMatrix type="matrix" values="0 0 0 0 0 0 0 0 0 0 0 0 0 0 0 0 0 0 0.2 0"/>
<feBlend mode="normal" in2="effect2_dropShadow_1412_16493" result="effect3_dropShadow_1412_16493"/>
<feBlend mode="normal" in="SourceGraphic" in2="effect3_dropShadow_1412_16493" result="shape"/>
</filter>
<filter id="filter1_ddd_1412_16493" x="155" y="92.6" width="253" height="52" filterUnits="userSpaceOnUse" color-interpolation-filters="sRGB">
<feFlood flood-opacity="0" result="BackgroundImageFix"/>
<feColorMatrix in="SourceAlpha" type="matrix" values="0 0 0 0 0 0 0 0 0 0 0 0 0 0 0 0 0 0 127 0" result="hardAlpha"/>
<feOffset dy="1"/>
<feGaussianBlur stdDeviation="2.5"/>
<feColorMatrix type="matrix" values="0 0 0 0 0 0 0 0 0 0 0 0 0 0 0 0 0 0 0.12 0"/>
<feBlend mode="normal" in2="BackgroundImageFix" result="effect1_dropShadow_1412_16493"/>
<feColorMatrix in="SourceAlpha" type="matrix" values="0 0 0 0 0 0 0 0 0 0 0 0 0 0 0 0 0 0 127 0" result="hardAlpha"/>
<feOffset dy="2"/>
<feGaussianBlur stdDeviation="1"/>
<feColorMatrix type="matrix" values="0 0 0 0 0 0 0 0 0 0 0 0 0 0 0 0 0 0 0.14 0"/>
<feBlend mode="normal" in2="effect1_dropShadow_1412_16493" result="effect2_dropShadow_1412_16493"/>
<feColorMatrix in="SourceAlpha" type="matrix" values="0 0 0 0 0 0 0 0 0 0 0 0 0 0 0 0 0 0 127 0" result="hardAlpha"/>
<feMorphology radius="2" operator="erode" in="SourceAlpha" result="effect3_dropShadow_1412_16493"/>
<feOffset dy="3"/>
<feGaussianBlur stdDeviation="0.5"/>
<feColorMatrix type="matrix" values="0 0 0 0 0 0 0 0 0 0 0 0 0 0 0 0 0 0 0.2 0"/>
<feBlend mode="normal" in2="effect2_dropShadow_1412_16493" result="effect3_dropShadow_1412_16493"/>
<feBlend mode="normal" in="SourceGraphic" in2="effect3_dropShadow_1412_16493" result="shape"/>
</filter>
<filter id="filter2_ddd_1412_16493" x="276" y="121.6" width="253" height="52" filterUnits="userSpaceOnUse" color-interpolation-filters="sRGB">
<feFlood flood-opacity="0" result="BackgroundImageFix"/>
<feColorMatrix in="SourceAlpha" type="matrix" values="0 0 0 0 0 0 0 0 0 0 0 0 0 0 0 0 0 0 127 0" result="hardAlpha"/>
<feOffset dy="1"/>
<feGaussianBlur stdDeviation="2.5"/>
<feColorMatrix type="matrix" values="0 0 0 0 0 0 0 0 0 0 0 0 0 0 0 0 0 0 0.12 0"/>
<feBlend mode="normal" in2="BackgroundImageFix" result="effect1_dropShadow_1412_16493"/>
<feColorMatrix in="SourceAlpha" type="matrix" values="0 0 0 0 0 0 0 0 0 0 0 0 0 0 0 0 0 0 127 0" result="hardAlpha"/>
<feOffset dy="2"/>
<feGaussianBlur stdDeviation="1"/>
<feColorMatrix type="matrix" values="0 0 0 0 0 0 0 0 0 0 0 0 0 0 0 0 0 0 0.14 0"/>
<feBlend mode="normal" in2="effect1_dropShadow_1412_16493" result="effect2_dropShadow_1412_16493"/>
<feColorMatrix in="SourceAlpha" type="matrix" values="0 0 0 0 0 0 0 0 0 0 0 0 0 0 0 0 0 0 127 0" result="hardAlpha"/>
<feMorphology radius="2" operator="erode" in="SourceAlpha" result="effect3_dropShadow_1412_16493"/>
<feOffset dy="3"/>
<feGaussianBlur stdDeviation="0.5"/>
<feColorMatrix type="matrix" values="0 0 0 0 0 0 0 0 0 0 0 0 0 0 0 0 0 0 0.2 0"/>
<feBlend mode="normal" in2="effect2_dropShadow_1412_16493" result="effect3_dropShadow_1412_16493"/>
<feBlend mode="normal" in="SourceGraphic" in2="effect3_dropShadow_1412_16493" result="shape"/>
</filter>
<clipPath id="clip0_1412_16493">
<rect x="53" y="62.6" width="243" height="42" rx="4" fill="white"/>
</clipPath>
<clipPath id="clip1_1412_16493">
<rect x="160" y="96.6" width="243" height="42" rx="4" fill="white"/>
</clipPath>
<clipPath id="clip2_1412_16493">
<rect x="281" y="125.6" width="243" height="42" rx="4" fill="white"/>
</clipPath>
</defs>
</svg>
