<svg width="216" height="88" viewBox="0 0 216 88" fill="none" xmlns="http://www.w3.org/2000/svg">
<path d="M6 52.5H114C117.038 52.5 119.5 54.9624 119.5 58V82C119.5 85.0376 117.038 87.5 114 87.5H6C2.96244 87.5 0.5 85.0376 0.5 82V58C0.5 54.9624 2.96243 52.5 6 52.5Z" stroke="#E4E4E7"/>
<path d="M27.236 75.07C26.5733 75.07 25.9573 74.93 25.388 74.65C24.8187 74.3607 24.324 73.9733 23.904 73.488C23.484 73.0027 23.1573 72.4613 22.924 71.864C22.7 71.2667 22.588 70.6507 22.588 70.016C22.588 69.344 22.7 68.7093 22.924 68.112C23.1573 67.5053 23.4793 66.9687 23.89 66.502C24.3007 66.0353 24.786 65.6667 25.346 65.396C25.906 65.1253 26.5173 64.99 27.18 64.99C28.16 64.99 28.958 65.1907 29.574 65.592C30.19 65.9933 30.6567 66.516 30.974 67.16L30.218 67.664C29.9007 67.048 29.476 66.5953 28.944 66.306C28.412 66.0167 27.8193 65.872 27.166 65.872C26.6153 65.872 26.116 65.9887 25.668 66.222C25.2293 66.4553 24.8513 66.768 24.534 67.16C24.2167 67.552 23.974 67.9953 23.806 68.49C23.6473 68.9847 23.568 69.498 23.568 70.03C23.568 70.59 23.6613 71.122 23.848 71.626C24.0347 72.1207 24.3007 72.564 24.646 72.956C24.9913 73.3387 25.388 73.642 25.836 73.866C26.2933 74.0807 26.7833 74.188 27.306 74.188C27.9127 74.188 28.4867 74.0387 29.028 73.74C29.5693 73.432 30.0873 72.9607 30.582 72.326V73.362C29.6393 74.5007 28.524 75.07 27.236 75.07ZM30.428 70.87H28.216V70.114H31.254V75H30.428V70.87ZM36.2215 75.14C35.6988 75.14 35.2135 75.042 34.7655 74.846C34.3175 74.6407 33.9302 74.3653 33.6035 74.02C33.2768 73.6653 33.0202 73.2593 32.8335 72.802C32.6562 72.3447 32.5675 71.8547 32.5675 71.332C32.5675 70.6507 32.7215 70.0253 33.0295 69.456C33.3468 68.8867 33.7808 68.434 34.3315 68.098C34.8822 67.7527 35.5075 67.58 36.2075 67.58C36.9262 67.58 37.5515 67.7527 38.0835 68.098C38.6248 68.4433 39.0495 68.9007 39.3575 69.47C39.6655 70.03 39.8195 70.646 39.8195 71.318C39.8195 71.3927 39.8195 71.4673 39.8195 71.542C39.8195 71.6073 39.8148 71.6587 39.8055 71.696H33.5615C33.6082 72.2187 33.7528 72.6853 33.9955 73.096C34.2475 73.4973 34.5695 73.8193 34.9615 74.062C35.3628 74.2953 35.7968 74.412 36.2635 74.412C36.7395 74.412 37.1875 74.2907 37.6075 74.048C38.0368 73.8053 38.3355 73.488 38.5035 73.096L39.3295 73.32C39.1802 73.6653 38.9515 73.978 38.6435 74.258C38.3355 74.538 37.9715 74.7573 37.5515 74.916C37.1408 75.0653 36.6975 75.14 36.2215 75.14ZM33.5335 71.01H38.9235C38.8862 70.478 38.7415 70.0113 38.4895 69.61C38.2468 69.2087 37.9248 68.896 37.5235 68.672C37.1315 68.4387 36.6975 68.322 36.2215 68.322C35.7455 68.322 35.3115 68.4387 34.9195 68.672C34.5275 68.896 34.2055 69.2133 33.9535 69.624C33.7108 70.0253 33.5708 70.4873 33.5335 71.01ZM44.7199 74.65C44.6453 74.678 44.5286 74.7293 44.3699 74.804C44.2113 74.8787 44.0199 74.944 43.7959 75C43.5719 75.056 43.3293 75.084 43.0679 75.084C42.7973 75.084 42.5406 75.0327 42.2979 74.93C42.0646 74.8273 41.8779 74.6733 41.7379 74.468C41.5979 74.2533 41.5279 73.992 41.5279 73.684V68.462H40.5199V67.706H41.5279V65.242H42.4799V67.706H44.1599V68.462H42.4799V73.418C42.4986 73.6793 42.5919 73.8753 42.7599 74.006C42.9373 74.1367 43.1379 74.202 43.3619 74.202C43.6233 74.202 43.8613 74.16 44.0759 74.076C44.2906 73.9827 44.4213 73.9173 44.4679 73.88L44.7199 74.65ZM55.4837 66.922C55.3437 66.7633 55.1804 66.6233 54.9937 66.502C54.8071 66.3713 54.5971 66.2593 54.3637 66.166C54.1304 66.0727 53.8784 65.998 53.6077 65.942C53.3464 65.886 53.0664 65.858 52.7677 65.858C51.8997 65.858 51.2604 66.026 50.8497 66.362C50.4484 66.6887 50.2477 67.1367 50.2477 67.706C50.2477 68.098 50.3411 68.406 50.5277 68.63C50.7237 68.854 51.0271 69.036 51.4377 69.176C51.8484 69.316 52.3711 69.4607 53.0057 69.61C53.7151 69.7593 54.3264 69.9367 54.8397 70.142C55.3531 70.3473 55.7497 70.6273 56.0297 70.982C56.3097 71.3273 56.4497 71.7987 56.4497 72.396C56.4497 72.8533 56.3611 73.25 56.1837 73.586C56.0064 73.922 55.7591 74.202 55.4417 74.426C55.1244 74.65 54.7464 74.818 54.3077 74.93C53.8691 75.0327 53.3884 75.084 52.8657 75.084C52.3524 75.084 51.8577 75.0327 51.3817 74.93C50.9151 74.818 50.4717 74.6593 50.0517 74.454C49.6317 74.2393 49.2397 73.9687 48.8757 73.642L49.3657 72.844C49.5431 73.0307 49.7531 73.208 49.9957 73.376C50.2477 73.5347 50.5231 73.6793 50.8217 73.81C51.1297 73.9407 51.4564 74.0433 51.8017 74.118C52.1564 74.1833 52.5204 74.216 52.8937 74.216C53.6871 74.216 54.3031 74.0713 54.7417 73.782C55.1897 73.4927 55.4137 73.0633 55.4137 72.494C55.4137 72.0833 55.3017 71.7567 55.0777 71.514C54.8537 71.262 54.5177 71.0567 54.0697 70.898C53.6217 70.7393 53.0711 70.5853 52.4177 70.436C51.7271 70.2773 51.1437 70.1 50.6677 69.904C50.1917 69.708 49.8324 69.4513 49.5897 69.134C49.3564 68.8073 49.2397 68.378 49.2397 67.846C49.2397 67.23 49.3891 66.712 49.6877 66.292C49.9957 65.8627 50.4157 65.5407 50.9477 65.326C51.4797 65.102 52.0911 64.99 52.7817 64.99C53.2204 64.99 53.6264 65.0367 53.9997 65.13C54.3824 65.214 54.7324 65.34 55.0497 65.508C55.3764 65.676 55.6797 65.886 55.9597 66.138L55.4837 66.922ZM61.3586 74.65C61.2839 74.678 61.1673 74.7293 61.0086 74.804C60.8499 74.8787 60.6586 74.944 60.4346 75C60.2106 75.056 59.9679 75.084 59.7066 75.084C59.4359 75.084 59.1793 75.0327 58.9366 74.93C58.7033 74.8273 58.5166 74.6733 58.3766 74.468C58.2366 74.2533 58.1666 73.992 58.1666 73.684V68.462H57.1586V67.706H58.1666V65.242H59.1186V67.706H60.7986V68.462H59.1186V73.418C59.1373 73.6793 59.2306 73.8753 59.3986 74.006C59.5759 74.1367 59.7766 74.202 60.0006 74.202C60.2619 74.202 60.4999 74.16 60.7146 74.076C60.9293 73.9827 61.0599 73.9173 61.1066 73.88L61.3586 74.65ZM61.96 72.9C61.96 72.4427 62.0907 72.0507 62.352 71.724C62.6134 71.388 62.9727 71.1313 63.43 70.954C63.8967 70.7673 64.4334 70.674 65.04 70.674C65.3947 70.674 65.7634 70.702 66.146 70.758C66.5287 70.814 66.8694 70.898 67.168 71.01V70.394C67.168 69.778 66.986 69.288 66.622 68.924C66.258 68.56 65.754 68.378 65.11 68.378C64.718 68.378 64.3307 68.4527 63.948 68.602C63.5747 68.742 63.1827 68.952 62.772 69.232L62.408 68.56C62.884 68.2333 63.3507 67.9907 63.808 67.832C64.2654 67.664 64.732 67.58 65.208 67.58C66.104 67.58 66.8134 67.8367 67.336 68.35C67.8587 68.8633 68.12 69.5727 68.12 70.478V73.852C68.12 73.9827 68.148 74.0807 68.204 74.146C68.26 74.202 68.3487 74.2347 68.47 74.244V75C68.3674 75.0093 68.2787 75.0187 68.204 75.028C68.1294 75.0373 68.0734 75.0373 68.036 75.028C67.8027 75.0187 67.6254 74.944 67.504 74.804C67.3827 74.664 67.3174 74.5147 67.308 74.356L67.294 73.824C66.9674 74.244 66.5427 74.5707 66.02 74.804C65.4974 75.028 64.9654 75.14 64.424 75.14C63.9574 75.14 63.5327 75.042 63.15 74.846C62.7767 74.6407 62.4827 74.37 62.268 74.034C62.0627 73.6887 61.96 73.3107 61.96 72.9ZM66.846 73.46C66.9487 73.3293 67.028 73.2033 67.084 73.082C67.14 72.9607 67.168 72.8533 67.168 72.76V71.696C66.8507 71.5747 66.5194 71.4813 66.174 71.416C65.838 71.3507 65.4974 71.318 65.152 71.318C64.4707 71.318 63.92 71.4533 63.5 71.724C63.08 71.9947 62.87 72.3633 62.87 72.83C62.87 73.1007 62.94 73.3573 63.08 73.6C63.22 73.8333 63.4254 74.0293 63.696 74.188C63.9667 74.3373 64.284 74.412 64.648 74.412C65.1054 74.412 65.53 74.3233 65.922 74.146C66.3234 73.9687 66.6314 73.74 66.846 73.46ZM73.817 68.546C73.1823 68.5647 72.6223 68.742 72.137 69.078C71.661 69.414 71.325 69.876 71.129 70.464V75H70.177V67.706H71.073V69.456C71.325 68.9427 71.6563 68.5273 72.067 68.21C72.487 67.8927 72.9303 67.7153 73.397 67.678C73.4903 67.6687 73.5696 67.664 73.635 67.664C73.7096 67.664 73.7703 67.6687 73.817 67.678V68.546ZM78.5852 74.65C78.5105 74.678 78.3938 74.7293 78.2352 74.804C78.0765 74.8787 77.8852 74.944 77.6612 75C77.4372 75.056 77.1945 75.084 76.9332 75.084C76.6625 75.084 76.4058 75.0327 76.1632 74.93C75.9298 74.8273 75.7432 74.6733 75.6032 74.468C75.4632 74.2533 75.3932 73.992 75.3932 73.684V68.462H74.3852V67.706H75.3932V65.242H76.3452V67.706H78.0252V68.462H76.3452V73.418C76.3638 73.6793 76.4572 73.8753 76.6252 74.006C76.8025 74.1367 77.0032 74.202 77.2272 74.202C77.4885 74.202 77.7265 74.16 77.9412 74.076C78.1558 73.9827 78.2865 73.9173 78.3332 73.88L78.5852 74.65ZM82.8016 75.14C82.2789 75.14 81.7936 75.042 81.3456 74.846C80.8976 74.6407 80.5102 74.3653 80.1836 74.02C79.8569 73.6653 79.6002 73.2593 79.4136 72.802C79.2362 72.3447 79.1476 71.8547 79.1476 71.332C79.1476 70.6507 79.3016 70.0253 79.6096 69.456C79.9269 68.8867 80.3609 68.434 80.9116 68.098C81.4622 67.7527 82.0876 67.58 82.7876 67.58C83.5062 67.58 84.1316 67.7527 84.6636 68.098C85.2049 68.4433 85.6296 68.9007 85.9376 69.47C86.2456 70.03 86.3996 70.646 86.3996 71.318C86.3996 71.3927 86.3996 71.4673 86.3996 71.542C86.3996 71.6073 86.3949 71.6587 86.3856 71.696H80.1416C80.1882 72.2187 80.3329 72.6853 80.5756 73.096C80.8276 73.4973 81.1496 73.8193 81.5416 74.062C81.9429 74.2953 82.3769 74.412 82.8436 74.412C83.3196 74.412 83.7676 74.2907 84.1876 74.048C84.6169 73.8053 84.9156 73.488 85.0836 73.096L85.9096 73.32C85.7602 73.6653 85.5316 73.978 85.2236 74.258C84.9156 74.538 84.5516 74.7573 84.1316 74.916C83.7209 75.0653 83.2776 75.14 82.8016 75.14ZM80.1136 71.01H85.5036C85.4662 70.478 85.3216 70.0113 85.0696 69.61C84.8269 69.2087 84.5049 68.896 84.1036 68.672C83.7116 68.4387 83.2776 68.322 82.8016 68.322C82.3256 68.322 81.8916 68.4387 81.4996 68.672C81.1076 68.896 80.7856 69.2133 80.5336 69.624C80.2909 70.0253 80.1509 70.4873 80.1136 71.01ZM87.3784 71.374C87.3784 70.6833 87.5184 70.0533 87.7984 69.484C88.0877 68.9053 88.4844 68.4433 88.9884 68.098C89.4924 67.7527 90.0664 67.58 90.7104 67.58C91.317 67.58 91.8584 67.7433 92.3344 68.07C92.8197 68.3873 93.1977 68.7747 93.4684 69.232V64.78H94.4204V73.852C94.4204 73.9827 94.4484 74.0807 94.5044 74.146C94.5604 74.202 94.6444 74.2347 94.7564 74.244V75C94.5697 75.028 94.425 75.0373 94.3224 75.028C94.1264 75.0187 93.9537 74.9393 93.8044 74.79C93.655 74.6407 93.5804 74.4773 93.5804 74.3V73.586C93.291 74.062 92.899 74.44 92.4044 74.72C91.9097 75 91.3964 75.14 90.8644 75.14C90.3604 75.14 89.8937 75.0373 89.4644 74.832C89.0444 74.6267 88.6757 74.3467 88.3584 73.992C88.0504 73.6373 87.8077 73.236 87.6304 72.788C87.4624 72.3307 87.3784 71.8593 87.3784 71.374ZM93.4684 72.494V70.24C93.347 69.904 93.151 69.6007 92.8804 69.33C92.6097 69.05 92.3017 68.8307 91.9564 68.672C91.6204 68.504 91.2844 68.42 90.9484 68.42C90.5564 68.42 90.2017 68.504 89.8844 68.672C89.567 68.8307 89.2917 69.05 89.0584 69.33C88.8344 69.61 88.6617 69.9273 88.5404 70.282C88.419 70.6367 88.3584 71.0007 88.3584 71.374C88.3584 71.766 88.4237 72.1393 88.5544 72.494C88.6944 72.8487 88.8904 73.166 89.1424 73.446C89.3944 73.7167 89.6837 73.9267 90.0104 74.076C90.337 74.2253 90.6917 74.3 91.0744 74.3C91.317 74.3 91.569 74.2533 91.8304 74.16C92.0917 74.0667 92.339 73.9407 92.5724 73.782C92.815 73.614 93.0157 73.418 93.1744 73.194C93.333 72.97 93.431 72.7367 93.4684 72.494Z" fill="#09090B"/>
<path d="M48 32C48 28.6863 50.6863 26 54 26H162C165.314 26 168 28.6863 168 32V56C168 59.3137 165.314 62 162 62H54C50.6863 62 48 59.3137 48 56V32Z" fill="#F4F4F5"/>
<path d="M76.236 51.07C75.5733 51.07 74.9573 50.93 74.388 50.65C73.8187 50.3607 73.324 49.9733 72.904 49.488C72.484 49.0027 72.1573 48.4613 71.924 47.864C71.7 47.2667 71.588 46.6507 71.588 46.016C71.588 45.344 71.7 44.7093 71.924 44.112C72.1573 43.5053 72.4793 42.9687 72.89 42.502C73.3007 42.0353 73.786 41.6667 74.346 41.396C74.906 41.1253 75.5173 40.99 76.18 40.99C77.16 40.99 77.958 41.1907 78.574 41.592C79.19 41.9933 79.6567 42.516 79.974 43.16L79.218 43.664C78.9007 43.048 78.476 42.5953 77.944 42.306C77.412 42.0167 76.8193 41.872 76.166 41.872C75.6153 41.872 75.116 41.9887 74.668 42.222C74.2293 42.4553 73.8513 42.768 73.534 43.16C73.2167 43.552 72.974 43.9953 72.806 44.49C72.6473 44.9847 72.568 45.498 72.568 46.03C72.568 46.59 72.6613 47.122 72.848 47.626C73.0347 48.1207 73.3007 48.564 73.646 48.956C73.9913 49.3387 74.388 49.642 74.836 49.866C75.2933 50.0807 75.7833 50.188 76.306 50.188C76.9127 50.188 77.4867 50.0387 78.028 49.74C78.5693 49.432 79.0873 48.9607 79.582 48.326V49.362C78.6393 50.5007 77.524 51.07 76.236 51.07ZM79.428 46.87H77.216V46.114H80.254V51H79.428V46.87ZM85.2215 51.14C84.6988 51.14 84.2135 51.042 83.7655 50.846C83.3175 50.6407 82.9302 50.3653 82.6035 50.02C82.2768 49.6653 82.0202 49.2593 81.8335 48.802C81.6562 48.3447 81.5675 47.8547 81.5675 47.332C81.5675 46.6507 81.7215 46.0253 82.0295 45.456C82.3468 44.8867 82.7808 44.434 83.3315 44.098C83.8822 43.7527 84.5075 43.58 85.2075 43.58C85.9262 43.58 86.5515 43.7527 87.0835 44.098C87.6248 44.4433 88.0495 44.9007 88.3575 45.47C88.6655 46.03 88.8195 46.646 88.8195 47.318C88.8195 47.3927 88.8195 47.4673 88.8195 47.542C88.8195 47.6073 88.8148 47.6587 88.8055 47.696H82.5615C82.6082 48.2187 82.7528 48.6853 82.9955 49.096C83.2475 49.4973 83.5695 49.8193 83.9615 50.062C84.3628 50.2953 84.7968 50.412 85.2635 50.412C85.7395 50.412 86.1875 50.2907 86.6075 50.048C87.0368 49.8053 87.3355 49.488 87.5035 49.096L88.3295 49.32C88.1802 49.6653 87.9515 49.978 87.6435 50.258C87.3355 50.538 86.9715 50.7573 86.5515 50.916C86.1408 51.0653 85.6975 51.14 85.2215 51.14ZM82.5335 47.01H87.9235C87.8862 46.478 87.7415 46.0113 87.4895 45.61C87.2468 45.2087 86.9248 44.896 86.5235 44.672C86.1315 44.4387 85.6975 44.322 85.2215 44.322C84.7455 44.322 84.3115 44.4387 83.9195 44.672C83.5275 44.896 83.2055 45.2133 82.9535 45.624C82.7108 46.0253 82.5708 46.4873 82.5335 47.01ZM93.7199 50.65C93.6453 50.678 93.5286 50.7293 93.3699 50.804C93.2113 50.8787 93.0199 50.944 92.7959 51C92.5719 51.056 92.3293 51.084 92.0679 51.084C91.7973 51.084 91.5406 51.0327 91.2979 50.93C91.0646 50.8273 90.8779 50.6733 90.7379 50.468C90.5979 50.2533 90.5279 49.992 90.5279 49.684V44.462H89.5199V43.706H90.5279V41.242H91.4799V43.706H93.1599V44.462H91.4799V49.418C91.4986 49.6793 91.5919 49.8753 91.7599 50.006C91.9373 50.1367 92.1379 50.202 92.3619 50.202C92.6233 50.202 92.8613 50.16 93.0759 50.076C93.2906 49.9827 93.4213 49.9173 93.4679 49.88L93.7199 50.65ZM104.484 42.922C104.344 42.7633 104.18 42.6233 103.994 42.502C103.807 42.3713 103.597 42.2593 103.364 42.166C103.13 42.0727 102.878 41.998 102.608 41.942C102.346 41.886 102.066 41.858 101.768 41.858C100.9 41.858 100.26 42.026 99.8497 42.362C99.4484 42.6887 99.2477 43.1367 99.2477 43.706C99.2477 44.098 99.3411 44.406 99.5277 44.63C99.7237 44.854 100.027 45.036 100.438 45.176C100.848 45.316 101.371 45.4607 102.006 45.61C102.715 45.7593 103.326 45.9367 103.84 46.142C104.353 46.3473 104.75 46.6273 105.03 46.982C105.31 47.3273 105.45 47.7987 105.45 48.396C105.45 48.8533 105.361 49.25 105.184 49.586C105.006 49.922 104.759 50.202 104.442 50.426C104.124 50.65 103.746 50.818 103.308 50.93C102.869 51.0327 102.388 51.084 101.866 51.084C101.352 51.084 100.858 51.0327 100.382 50.93C99.9151 50.818 99.4717 50.6593 99.0517 50.454C98.6317 50.2393 98.2397 49.9687 97.8757 49.642L98.3657 48.844C98.5431 49.0307 98.7531 49.208 98.9957 49.376C99.2477 49.5347 99.5231 49.6793 99.8217 49.81C100.13 49.9407 100.456 50.0433 100.802 50.118C101.156 50.1833 101.52 50.216 101.894 50.216C102.687 50.216 103.303 50.0713 103.742 49.782C104.19 49.4927 104.414 49.0633 104.414 48.494C104.414 48.0833 104.302 47.7567 104.078 47.514C103.854 47.262 103.518 47.0567 103.07 46.898C102.622 46.7393 102.071 46.5853 101.418 46.436C100.727 46.2773 100.144 46.1 99.6677 45.904C99.1917 45.708 98.8324 45.4513 98.5897 45.134C98.3564 44.8073 98.2397 44.378 98.2397 43.846C98.2397 43.23 98.3891 42.712 98.6877 42.292C98.9957 41.8627 99.4157 41.5407 99.9477 41.326C100.48 41.102 101.091 40.99 101.782 40.99C102.22 40.99 102.626 41.0367 103 41.13C103.382 41.214 103.732 41.34 104.05 41.508C104.376 41.676 104.68 41.886 104.96 42.138L104.484 42.922ZM110.359 50.65C110.284 50.678 110.167 50.7293 110.009 50.804C109.85 50.8787 109.659 50.944 109.435 51C109.211 51.056 108.968 51.084 108.707 51.084C108.436 51.084 108.179 51.0327 107.937 50.93C107.703 50.8273 107.517 50.6733 107.377 50.468C107.237 50.2533 107.167 49.992 107.167 49.684V44.462H106.159V43.706H107.167V41.242H108.119V43.706H109.799V44.462H108.119V49.418C108.137 49.6793 108.231 49.8753 108.399 50.006C108.576 50.1367 108.777 50.202 109.001 50.202C109.262 50.202 109.5 50.16 109.715 50.076C109.929 49.9827 110.06 49.9173 110.107 49.88L110.359 50.65ZM110.96 48.9C110.96 48.4427 111.091 48.0507 111.352 47.724C111.613 47.388 111.973 47.1313 112.43 46.954C112.897 46.7673 113.433 46.674 114.04 46.674C114.395 46.674 114.763 46.702 115.146 46.758C115.529 46.814 115.869 46.898 116.168 47.01V46.394C116.168 45.778 115.986 45.288 115.622 44.924C115.258 44.56 114.754 44.378 114.11 44.378C113.718 44.378 113.331 44.4527 112.948 44.602C112.575 44.742 112.183 44.952 111.772 45.232L111.408 44.56C111.884 44.2333 112.351 43.9907 112.808 43.832C113.265 43.664 113.732 43.58 114.208 43.58C115.104 43.58 115.813 43.8367 116.336 44.35C116.859 44.8633 117.12 45.5727 117.12 46.478V49.852C117.12 49.9827 117.148 50.0807 117.204 50.146C117.26 50.202 117.349 50.2347 117.47 50.244V51C117.367 51.0093 117.279 51.0187 117.204 51.028C117.129 51.0373 117.073 51.0373 117.036 51.028C116.803 51.0187 116.625 50.944 116.504 50.804C116.383 50.664 116.317 50.5147 116.308 50.356L116.294 49.824C115.967 50.244 115.543 50.5707 115.02 50.804C114.497 51.028 113.965 51.14 113.424 51.14C112.957 51.14 112.533 51.042 112.15 50.846C111.777 50.6407 111.483 50.37 111.268 50.034C111.063 49.6887 110.96 49.3107 110.96 48.9ZM115.846 49.46C115.949 49.3293 116.028 49.2033 116.084 49.082C116.14 48.9607 116.168 48.8533 116.168 48.76V47.696C115.851 47.5747 115.519 47.4813 115.174 47.416C114.838 47.3507 114.497 47.318 114.152 47.318C113.471 47.318 112.92 47.4533 112.5 47.724C112.08 47.9947 111.87 48.3633 111.87 48.83C111.87 49.1007 111.94 49.3573 112.08 49.6C112.22 49.8333 112.425 50.0293 112.696 50.188C112.967 50.3373 113.284 50.412 113.648 50.412C114.105 50.412 114.53 50.3233 114.922 50.146C115.323 49.9687 115.631 49.74 115.846 49.46ZM122.817 44.546C122.182 44.5647 121.622 44.742 121.137 45.078C120.661 45.414 120.325 45.876 120.129 46.464V51H119.177V43.706H120.073V45.456C120.325 44.9427 120.656 44.5273 121.067 44.21C121.487 43.8927 121.93 43.7153 122.397 43.678C122.49 43.6687 122.57 43.664 122.635 43.664C122.71 43.664 122.77 43.6687 122.817 43.678V44.546ZM127.585 50.65C127.51 50.678 127.394 50.7293 127.235 50.804C127.076 50.8787 126.885 50.944 126.661 51C126.437 51.056 126.194 51.084 125.933 51.084C125.662 51.084 125.406 51.0327 125.163 50.93C124.93 50.8273 124.743 50.6733 124.603 50.468C124.463 50.2533 124.393 49.992 124.393 49.684V44.462H123.385V43.706H124.393V41.242H125.345V43.706H127.025V44.462H125.345V49.418C125.364 49.6793 125.457 49.8753 125.625 50.006C125.802 50.1367 126.003 50.202 126.227 50.202C126.488 50.202 126.726 50.16 126.941 50.076C127.156 49.9827 127.286 49.9173 127.333 49.88L127.585 50.65ZM131.802 51.14C131.279 51.14 130.794 51.042 130.346 50.846C129.898 50.6407 129.51 50.3653 129.184 50.02C128.857 49.6653 128.6 49.2593 128.414 48.802C128.236 48.3447 128.148 47.8547 128.148 47.332C128.148 46.6507 128.302 46.0253 128.61 45.456C128.927 44.8867 129.361 44.434 129.912 44.098C130.462 43.7527 131.088 43.58 131.788 43.58C132.506 43.58 133.132 43.7527 133.664 44.098C134.205 44.4433 134.63 44.9007 134.938 45.47C135.246 46.03 135.4 46.646 135.4 47.318C135.4 47.3927 135.4 47.4673 135.4 47.542C135.4 47.6073 135.395 47.6587 135.386 47.696H129.142C129.188 48.2187 129.333 48.6853 129.576 49.096C129.828 49.4973 130.15 49.8193 130.542 50.062C130.943 50.2953 131.377 50.412 131.844 50.412C132.32 50.412 132.768 50.2907 133.188 50.048C133.617 49.8053 133.916 49.488 134.084 49.096L134.91 49.32C134.76 49.6653 134.532 49.978 134.224 50.258C133.916 50.538 133.552 50.7573 133.132 50.916C132.721 51.0653 132.278 51.14 131.802 51.14ZM129.114 47.01H134.504C134.466 46.478 134.322 46.0113 134.07 45.61C133.827 45.2087 133.505 44.896 133.104 44.672C132.712 44.4387 132.278 44.322 131.802 44.322C131.326 44.322 130.892 44.4387 130.5 44.672C130.108 44.896 129.786 45.2133 129.534 45.624C129.291 46.0253 129.151 46.4873 129.114 47.01ZM136.378 47.374C136.378 46.6833 136.518 46.0533 136.798 45.484C137.088 44.9053 137.484 44.4433 137.988 44.098C138.492 43.7527 139.066 43.58 139.71 43.58C140.317 43.58 140.858 43.7433 141.334 44.07C141.82 44.3873 142.198 44.7747 142.468 45.232V40.78H143.42V49.852C143.42 49.9827 143.448 50.0807 143.504 50.146C143.56 50.202 143.644 50.2347 143.756 50.244V51C143.57 51.028 143.425 51.0373 143.322 51.028C143.126 51.0187 142.954 50.9393 142.804 50.79C142.655 50.6407 142.58 50.4773 142.58 50.3V49.586C142.291 50.062 141.899 50.44 141.404 50.72C140.91 51 140.396 51.14 139.864 51.14C139.36 51.14 138.894 51.0373 138.464 50.832C138.044 50.6267 137.676 50.3467 137.358 49.992C137.05 49.6373 136.808 49.236 136.63 48.788C136.462 48.3307 136.378 47.8593 136.378 47.374ZM142.468 48.494V46.24C142.347 45.904 142.151 45.6007 141.88 45.33C141.61 45.05 141.302 44.8307 140.956 44.672C140.62 44.504 140.284 44.42 139.948 44.42C139.556 44.42 139.202 44.504 138.884 44.672C138.567 44.8307 138.292 45.05 138.058 45.33C137.834 45.61 137.662 45.9273 137.54 46.282C137.419 46.6367 137.358 47.0007 137.358 47.374C137.358 47.766 137.424 48.1393 137.554 48.494C137.694 48.8487 137.89 49.166 138.142 49.446C138.394 49.7167 138.684 49.9267 139.01 50.076C139.337 50.2253 139.692 50.3 140.074 50.3C140.317 50.3 140.569 50.2533 140.83 50.16C141.092 50.0667 141.339 49.9407 141.572 49.782C141.815 49.614 142.016 49.418 142.174 49.194C142.333 48.97 142.431 48.7367 142.468 48.494Z" fill="#09090B"/>
<path d="M102 0.5H210C213.038 0.5 215.5 2.96243 215.5 6V30C215.5 33.0376 213.038 35.5 210 35.5H102C98.9624 35.5 96.5 33.0376 96.5 30V6C96.5 2.96243 98.9624 0.5 102 0.5Z" fill="#16A249" stroke="#16A249"/>
<path d="M124.236 23.07C123.573 23.07 122.957 22.93 122.388 22.65C121.819 22.3607 121.324 21.9733 120.904 21.488C120.484 21.0027 120.157 20.4613 119.924 19.864C119.7 19.2667 119.588 18.6507 119.588 18.016C119.588 17.344 119.7 16.7093 119.924 16.112C120.157 15.5053 120.479 14.9687 120.89 14.502C121.301 14.0353 121.786 13.6667 122.346 13.396C122.906 13.1253 123.517 12.99 124.18 12.99C125.16 12.99 125.958 13.1907 126.574 13.592C127.19 13.9933 127.657 14.516 127.974 15.16L127.218 15.664C126.901 15.048 126.476 14.5953 125.944 14.306C125.412 14.0167 124.819 13.872 124.166 13.872C123.615 13.872 123.116 13.9887 122.668 14.222C122.229 14.4553 121.851 14.768 121.534 15.16C121.217 15.552 120.974 15.9953 120.806 16.49C120.647 16.9847 120.568 17.498 120.568 18.03C120.568 18.59 120.661 19.122 120.848 19.626C121.035 20.1207 121.301 20.564 121.646 20.956C121.991 21.3387 122.388 21.642 122.836 21.866C123.293 22.0807 123.783 22.188 124.306 22.188C124.913 22.188 125.487 22.0387 126.028 21.74C126.569 21.432 127.087 20.9607 127.582 20.326V21.362C126.639 22.5007 125.524 23.07 124.236 23.07ZM127.428 18.87H125.216V18.114H128.254V23H127.428V18.87ZM133.221 23.14C132.699 23.14 132.213 23.042 131.765 22.846C131.317 22.6407 130.93 22.3653 130.603 22.02C130.277 21.6653 130.02 21.2593 129.833 20.802C129.656 20.3447 129.567 19.8547 129.567 19.332C129.567 18.6507 129.721 18.0253 130.029 17.456C130.347 16.8867 130.781 16.434 131.331 16.098C131.882 15.7527 132.507 15.58 133.207 15.58C133.926 15.58 134.551 15.7527 135.083 16.098C135.625 16.4433 136.049 16.9007 136.357 17.47C136.665 18.03 136.819 18.646 136.819 19.318C136.819 19.3927 136.819 19.4673 136.819 19.542C136.819 19.6073 136.815 19.6587 136.805 19.696H130.561C130.608 20.2187 130.753 20.6853 130.995 21.096C131.247 21.4973 131.569 21.8193 131.961 22.062C132.363 22.2953 132.797 22.412 133.263 22.412C133.739 22.412 134.187 22.2907 134.607 22.048C135.037 21.8053 135.335 21.488 135.503 21.096L136.329 21.32C136.18 21.6653 135.951 21.978 135.643 22.258C135.335 22.538 134.971 22.7573 134.551 22.916C134.141 23.0653 133.697 23.14 133.221 23.14ZM130.533 19.01H135.923C135.886 18.478 135.741 18.0113 135.489 17.61C135.247 17.2087 134.925 16.896 134.523 16.672C134.131 16.4387 133.697 16.322 133.221 16.322C132.745 16.322 132.311 16.4387 131.919 16.672C131.527 16.896 131.205 17.2133 130.953 17.624C130.711 18.0253 130.571 18.4873 130.533 19.01ZM141.72 22.65C141.645 22.678 141.529 22.7293 141.37 22.804C141.211 22.8787 141.02 22.944 140.796 23C140.572 23.056 140.329 23.084 140.068 23.084C139.797 23.084 139.541 23.0327 139.298 22.93C139.065 22.8273 138.878 22.6733 138.738 22.468C138.598 22.2533 138.528 21.992 138.528 21.684V16.462H137.52V15.706H138.528V13.242H139.48V15.706H141.16V16.462H139.48V21.418C139.499 21.6793 139.592 21.8753 139.76 22.006C139.937 22.1367 140.138 22.202 140.362 22.202C140.623 22.202 140.861 22.16 141.076 22.076C141.291 21.9827 141.421 21.9173 141.468 21.88L141.72 22.65ZM152.484 14.922C152.344 14.7633 152.18 14.6233 151.994 14.502C151.807 14.3713 151.597 14.2593 151.364 14.166C151.13 14.0727 150.878 13.998 150.608 13.942C150.346 13.886 150.066 13.858 149.768 13.858C148.9 13.858 148.26 14.026 147.85 14.362C147.448 14.6887 147.248 15.1367 147.248 15.706C147.248 16.098 147.341 16.406 147.528 16.63C147.724 16.854 148.027 17.036 148.438 17.176C148.848 17.316 149.371 17.4607 150.006 17.61C150.715 17.7593 151.326 17.9367 151.84 18.142C152.353 18.3473 152.75 18.6273 153.03 18.982C153.31 19.3273 153.45 19.7987 153.45 20.396C153.45 20.8533 153.361 21.25 153.184 21.586C153.006 21.922 152.759 22.202 152.442 22.426C152.124 22.65 151.746 22.818 151.308 22.93C150.869 23.0327 150.388 23.084 149.866 23.084C149.352 23.084 148.858 23.0327 148.382 22.93C147.915 22.818 147.472 22.6593 147.052 22.454C146.632 22.2393 146.24 21.9687 145.876 21.642L146.366 20.844C146.543 21.0307 146.753 21.208 146.996 21.376C147.248 21.5347 147.523 21.6793 147.822 21.81C148.13 21.9407 148.456 22.0433 148.802 22.118C149.156 22.1833 149.52 22.216 149.894 22.216C150.687 22.216 151.303 22.0713 151.742 21.782C152.19 21.4927 152.414 21.0633 152.414 20.494C152.414 20.0833 152.302 19.7567 152.078 19.514C151.854 19.262 151.518 19.0567 151.07 18.898C150.622 18.7393 150.071 18.5853 149.418 18.436C148.727 18.2773 148.144 18.1 147.668 17.904C147.192 17.708 146.832 17.4513 146.59 17.134C146.356 16.8073 146.24 16.378 146.24 15.846C146.24 15.23 146.389 14.712 146.688 14.292C146.996 13.8627 147.416 13.5407 147.948 13.326C148.48 13.102 149.091 12.99 149.782 12.99C150.22 12.99 150.626 13.0367 151 13.13C151.382 13.214 151.732 13.34 152.05 13.508C152.376 13.676 152.68 13.886 152.96 14.138L152.484 14.922ZM158.359 22.65C158.284 22.678 158.167 22.7293 158.009 22.804C157.85 22.8787 157.659 22.944 157.435 23C157.211 23.056 156.968 23.084 156.707 23.084C156.436 23.084 156.179 23.0327 155.937 22.93C155.703 22.8273 155.517 22.6733 155.377 22.468C155.237 22.2533 155.167 21.992 155.167 21.684V16.462H154.159V15.706H155.167V13.242H156.119V15.706H157.799V16.462H156.119V21.418C156.137 21.6793 156.231 21.8753 156.399 22.006C156.576 22.1367 156.777 22.202 157.001 22.202C157.262 22.202 157.5 22.16 157.715 22.076C157.929 21.9827 158.06 21.9173 158.107 21.88L158.359 22.65ZM158.96 20.9C158.96 20.4427 159.091 20.0507 159.352 19.724C159.613 19.388 159.973 19.1313 160.43 18.954C160.897 18.7673 161.433 18.674 162.04 18.674C162.395 18.674 162.763 18.702 163.146 18.758C163.529 18.814 163.869 18.898 164.168 19.01V18.394C164.168 17.778 163.986 17.288 163.622 16.924C163.258 16.56 162.754 16.378 162.11 16.378C161.718 16.378 161.331 16.4527 160.948 16.602C160.575 16.742 160.183 16.952 159.772 17.232L159.408 16.56C159.884 16.2333 160.351 15.9907 160.808 15.832C161.265 15.664 161.732 15.58 162.208 15.58C163.104 15.58 163.813 15.8367 164.336 16.35C164.859 16.8633 165.12 17.5727 165.12 18.478V21.852C165.12 21.9827 165.148 22.0807 165.204 22.146C165.26 22.202 165.349 22.2347 165.47 22.244V23C165.367 23.0093 165.279 23.0187 165.204 23.028C165.129 23.0373 165.073 23.0373 165.036 23.028C164.803 23.0187 164.625 22.944 164.504 22.804C164.383 22.664 164.317 22.5147 164.308 22.356L164.294 21.824C163.967 22.244 163.543 22.5707 163.02 22.804C162.497 23.028 161.965 23.14 161.424 23.14C160.957 23.14 160.533 23.042 160.15 22.846C159.777 22.6407 159.483 22.37 159.268 22.034C159.063 21.6887 158.96 21.3107 158.96 20.9ZM163.846 21.46C163.949 21.3293 164.028 21.2033 164.084 21.082C164.14 20.9607 164.168 20.8533 164.168 20.76V19.696C163.851 19.5747 163.519 19.4813 163.174 19.416C162.838 19.3507 162.497 19.318 162.152 19.318C161.471 19.318 160.92 19.4533 160.5 19.724C160.08 19.9947 159.87 20.3633 159.87 20.83C159.87 21.1007 159.94 21.3573 160.08 21.6C160.22 21.8333 160.425 22.0293 160.696 22.188C160.967 22.3373 161.284 22.412 161.648 22.412C162.105 22.412 162.53 22.3233 162.922 22.146C163.323 21.9687 163.631 21.74 163.846 21.46ZM170.817 16.546C170.182 16.5647 169.622 16.742 169.137 17.078C168.661 17.414 168.325 17.876 168.129 18.464V23H167.177V15.706H168.073V17.456C168.325 16.9427 168.656 16.5273 169.067 16.21C169.487 15.8927 169.93 15.7153 170.397 15.678C170.49 15.6687 170.57 15.664 170.635 15.664C170.71 15.664 170.77 15.6687 170.817 15.678V16.546ZM175.585 22.65C175.51 22.678 175.394 22.7293 175.235 22.804C175.076 22.8787 174.885 22.944 174.661 23C174.437 23.056 174.194 23.084 173.933 23.084C173.662 23.084 173.406 23.0327 173.163 22.93C172.93 22.8273 172.743 22.6733 172.603 22.468C172.463 22.2533 172.393 21.992 172.393 21.684V16.462H171.385V15.706H172.393V13.242H173.345V15.706H175.025V16.462H173.345V21.418C173.364 21.6793 173.457 21.8753 173.625 22.006C173.802 22.1367 174.003 22.202 174.227 22.202C174.488 22.202 174.726 22.16 174.941 22.076C175.156 21.9827 175.286 21.9173 175.333 21.88L175.585 22.65ZM179.802 23.14C179.279 23.14 178.794 23.042 178.346 22.846C177.898 22.6407 177.51 22.3653 177.184 22.02C176.857 21.6653 176.6 21.2593 176.414 20.802C176.236 20.3447 176.148 19.8547 176.148 19.332C176.148 18.6507 176.302 18.0253 176.61 17.456C176.927 16.8867 177.361 16.434 177.912 16.098C178.462 15.7527 179.088 15.58 179.788 15.58C180.506 15.58 181.132 15.7527 181.664 16.098C182.205 16.4433 182.63 16.9007 182.938 17.47C183.246 18.03 183.4 18.646 183.4 19.318C183.4 19.3927 183.4 19.4673 183.4 19.542C183.4 19.6073 183.395 19.6587 183.386 19.696H177.142C177.188 20.2187 177.333 20.6853 177.576 21.096C177.828 21.4973 178.15 21.8193 178.542 22.062C178.943 22.2953 179.377 22.412 179.844 22.412C180.32 22.412 180.768 22.2907 181.188 22.048C181.617 21.8053 181.916 21.488 182.084 21.096L182.91 21.32C182.76 21.6653 182.532 21.978 182.224 22.258C181.916 22.538 181.552 22.7573 181.132 22.916C180.721 23.0653 180.278 23.14 179.802 23.14ZM177.114 19.01H182.504C182.466 18.478 182.322 18.0113 182.07 17.61C181.827 17.2087 181.505 16.896 181.104 16.672C180.712 16.4387 180.278 16.322 179.802 16.322C179.326 16.322 178.892 16.4387 178.5 16.672C178.108 16.896 177.786 17.2133 177.534 17.624C177.291 18.0253 177.151 18.4873 177.114 19.01ZM184.378 19.374C184.378 18.6833 184.518 18.0533 184.798 17.484C185.088 16.9053 185.484 16.4433 185.988 16.098C186.492 15.7527 187.066 15.58 187.71 15.58C188.317 15.58 188.858 15.7433 189.334 16.07C189.82 16.3873 190.198 16.7747 190.468 17.232V12.78H191.42V21.852C191.42 21.9827 191.448 22.0807 191.504 22.146C191.56 22.202 191.644 22.2347 191.756 22.244V23C191.57 23.028 191.425 23.0373 191.322 23.028C191.126 23.0187 190.954 22.9393 190.804 22.79C190.655 22.6407 190.58 22.4773 190.58 22.3V21.586C190.291 22.062 189.899 22.44 189.404 22.72C188.91 23 188.396 23.14 187.864 23.14C187.36 23.14 186.894 23.0373 186.464 22.832C186.044 22.6267 185.676 22.3467 185.358 21.992C185.05 21.6373 184.808 21.236 184.63 20.788C184.462 20.3307 184.378 19.8593 184.378 19.374ZM190.468 20.494V18.24C190.347 17.904 190.151 17.6007 189.88 17.33C189.61 17.05 189.302 16.8307 188.956 16.672C188.62 16.504 188.284 16.42 187.948 16.42C187.556 16.42 187.202 16.504 186.884 16.672C186.567 16.8307 186.292 17.05 186.058 17.33C185.834 17.61 185.662 17.9273 185.54 18.282C185.419 18.6367 185.358 19.0007 185.358 19.374C185.358 19.766 185.424 20.1393 185.554 20.494C185.694 20.8487 185.89 21.166 186.142 21.446C186.394 21.7167 186.684 21.9267 187.01 22.076C187.337 22.2253 187.692 22.3 188.074 22.3C188.317 22.3 188.569 22.2533 188.83 22.16C189.092 22.0667 189.339 21.9407 189.572 21.782C189.815 21.614 190.016 21.418 190.174 21.194C190.333 20.97 190.431 20.7367 190.468 20.494Z" fill="#FFF0F1"/>
</svg>
