<svg width="216" height="89" viewBox="0 0 216 89" fill="none" xmlns="http://www.w3.org/2000/svg">
<path d="M0.5 55C0.5 51.9624 2.96243 49.5 6 49.5H162.223C165.261 49.5 167.723 51.9624 167.723 55V83C167.723 86.0376 165.261 88.5 162.223 88.5H6C2.96243 88.5 0.5 86.0376 0.5 83V55Z" fill="#1C1917"/>
<path d="M0.5 55C0.5 51.9624 2.96243 49.5 6 49.5H162.223C165.261 49.5 167.723 51.9624 167.723 55V83C167.723 86.0376 165.261 88.5 162.223 88.5H6C2.96243 88.5 0.5 86.0376 0.5 83V55Z" stroke="#27272A"/>
<path d="M16.98 70.49V66.206H17.932V70.322C17.932 71.1527 18.072 71.7733 18.352 72.184C18.6413 72.5947 19.066 72.8 19.626 72.8C19.9993 72.8 20.3587 72.7207 20.704 72.562C21.0587 72.394 21.3713 72.1607 21.642 71.862C21.9127 71.554 22.118 71.1993 22.258 70.798V66.206H23.21V72.352C23.21 72.4827 23.238 72.5807 23.294 72.646C23.35 72.702 23.434 72.7347 23.546 72.744V73.5C23.434 73.5093 23.3453 73.514 23.28 73.514C23.2147 73.5233 23.154 73.528 23.098 73.528C22.9113 73.5093 22.748 73.4347 22.608 73.304C22.4773 73.1733 22.4073 73.0147 22.398 72.828L22.37 71.848C22.0527 72.408 21.6187 72.8467 21.068 73.164C20.5267 73.4813 19.9387 73.64 19.304 73.64C18.5387 73.64 17.96 73.374 17.568 72.842C17.176 72.31 16.98 71.526 16.98 70.49ZM27.7565 73.64C27.1592 73.64 26.6038 73.542 26.0905 73.346C25.5772 73.15 25.1338 72.8513 24.7605 72.45L25.1525 71.778C25.5632 72.1607 25.9738 72.4407 26.3845 72.618C26.8045 72.786 27.2478 72.87 27.7145 72.87C28.2838 72.87 28.7458 72.758 29.1005 72.534C29.4552 72.3007 29.6325 71.9693 29.6325 71.54C29.6325 71.2507 29.5438 71.0313 29.3665 70.882C29.1985 70.7233 28.9512 70.5973 28.6245 70.504C28.3072 70.4013 27.9245 70.294 27.4765 70.182C26.9725 70.042 26.5478 69.8973 26.2025 69.748C25.8665 69.5893 25.6098 69.3933 25.4325 69.16C25.2645 68.9173 25.1805 68.6047 25.1805 68.222C25.1805 67.746 25.2972 67.354 25.5305 67.046C25.7732 66.7287 26.0998 66.4907 26.5105 66.332C26.9305 66.164 27.3972 66.08 27.9105 66.08C28.4705 66.08 28.9652 66.1687 29.3945 66.346C29.8238 66.5233 30.1738 66.7707 30.4445 67.088L29.9825 67.732C29.7212 67.4333 29.4085 67.214 29.0445 67.074C28.6898 66.9247 28.2932 66.85 27.8545 66.85C27.5558 66.85 27.2712 66.892 27.0005 66.976C26.7298 67.0507 26.5058 67.1813 26.3285 67.368C26.1605 67.5453 26.0765 67.7927 26.0765 68.11C26.0765 68.3713 26.1418 68.5767 26.2725 68.726C26.4032 68.866 26.5992 68.9873 26.8605 69.09C27.1218 69.1833 27.4438 69.286 27.8265 69.398C28.3772 69.5473 28.8578 69.7013 29.2685 69.86C29.6792 70.0093 29.9965 70.2053 30.2205 70.448C30.4445 70.6907 30.5565 71.0313 30.5565 71.47C30.5565 72.1513 30.2998 72.6833 29.7865 73.066C29.2732 73.4487 28.5965 73.64 27.7565 73.64ZM35.2801 73.64C34.7574 73.64 34.2721 73.542 33.8241 73.346C33.3761 73.1407 32.9887 72.8653 32.6621 72.52C32.3354 72.1653 32.0787 71.7593 31.8921 71.302C31.7147 70.8447 31.6261 70.3547 31.6261 69.832C31.6261 69.1507 31.7801 68.5253 32.0881 67.956C32.4054 67.3867 32.8394 66.934 33.3901 66.598C33.9407 66.2527 34.5661 66.08 35.2661 66.08C35.9847 66.08 36.6101 66.2527 37.1421 66.598C37.6834 66.9433 38.1081 67.4007 38.4161 67.97C38.7241 68.53 38.8781 69.146 38.8781 69.818C38.8781 69.8927 38.8781 69.9673 38.8781 70.042C38.8781 70.1073 38.8734 70.1587 38.8641 70.196H32.6201C32.6667 70.7187 32.8114 71.1853 33.0541 71.596C33.3061 71.9973 33.6281 72.3193 34.0201 72.562C34.4214 72.7953 34.8554 72.912 35.3221 72.912C35.7981 72.912 36.2461 72.7907 36.6661 72.548C37.0954 72.3053 37.3941 71.988 37.5621 71.596L38.3881 71.82C38.2387 72.1653 38.0101 72.478 37.7021 72.758C37.3941 73.038 37.0301 73.2573 36.6101 73.416C36.1994 73.5653 35.7561 73.64 35.2801 73.64ZM32.5921 69.51H37.9821C37.9447 68.978 37.8001 68.5113 37.5481 68.11C37.3054 67.7087 36.9834 67.396 36.5821 67.172C36.1901 66.9387 35.7561 66.822 35.2801 66.822C34.8041 66.822 34.3701 66.9387 33.9781 67.172C33.5861 67.396 33.2641 67.7133 33.0121 68.124C32.7694 68.5253 32.6294 68.9873 32.5921 69.51ZM43.9869 67.046C43.3522 67.0647 42.7922 67.242 42.3069 67.578C41.8309 67.914 41.4949 68.376 41.2989 68.964V73.5H40.3469V66.206H41.2429V67.956C41.4949 67.4427 41.8262 67.0273 42.2369 66.71C42.6569 66.3927 43.1002 66.2153 43.5669 66.178C43.6602 66.1687 43.7395 66.164 43.8049 66.164C43.8795 66.164 43.9402 66.1687 43.9869 66.178V67.046ZM49.9474 65.058C50.638 65.058 51.2867 65.1887 51.8934 65.45C52.5094 65.702 53.0507 66.066 53.5174 66.542C53.9934 67.0087 54.3667 67.5687 54.6374 68.222C54.908 68.8753 55.0434 69.5987 55.0434 70.392C55.0434 70.5507 55.0294 70.7653 55.0014 71.036C54.9827 71.3067 54.936 71.596 54.8614 71.904C54.7867 72.212 54.6747 72.506 54.5254 72.786C54.3854 73.0567 54.1894 73.2807 53.9374 73.458C53.6854 73.6353 53.3727 73.724 52.9994 73.724C52.6914 73.724 52.4534 73.6633 52.2854 73.542C52.1267 73.4207 52.0147 73.262 51.9494 73.066C51.8934 72.87 51.8514 72.66 51.8234 72.436C51.5714 72.7067 51.2354 72.94 50.8154 73.136C50.4047 73.332 49.952 73.43 49.4574 73.43C48.7947 73.43 48.2767 73.2527 47.9034 72.898C47.5394 72.5433 47.3574 72.0953 47.3574 71.554C47.3574 71.078 47.488 70.7047 47.7494 70.434C48.0107 70.1633 48.3374 69.972 48.7294 69.86C49.1307 69.7387 49.5367 69.678 49.9474 69.678C50.358 69.678 50.7174 69.72 51.0254 69.804C51.3427 69.8787 51.576 69.944 51.7254 70C51.7254 69.552 51.674 69.16 51.5714 68.824C51.478 68.488 51.3054 68.2267 51.0534 68.04C50.8014 67.844 50.4467 67.746 49.9894 67.746C49.6254 67.746 49.2754 67.8067 48.9394 67.928C48.6034 68.04 48.3 68.1987 48.0294 68.404L47.7774 67.858C48.1134 67.634 48.4727 67.4567 48.8554 67.326C49.238 67.1953 49.644 67.13 50.0734 67.13C50.596 67.13 51.0067 67.214 51.3054 67.382C51.6134 67.55 51.842 67.7787 51.9914 68.068C52.1407 68.348 52.2387 68.656 52.2854 68.992C52.332 69.328 52.3554 69.664 52.3554 70V71.806C52.3554 72.0767 52.3694 72.3193 52.3974 72.534C52.4347 72.7487 52.5047 72.9167 52.6074 73.038C52.71 73.15 52.8687 73.206 53.0834 73.206C53.3727 73.206 53.6107 73.108 53.7974 72.912C53.9934 72.716 54.1427 72.4687 54.2454 72.17C54.3574 71.8713 54.432 71.5587 54.4694 71.232C54.516 70.9053 54.5394 70.616 54.5394 70.364C54.5394 69.6827 54.4227 69.0527 54.1894 68.474C53.9654 67.886 53.6434 67.3727 53.2234 66.934C52.8034 66.4953 52.3134 66.1547 51.7534 65.912C51.1934 65.66 50.5867 65.534 49.9334 65.534C49.2894 65.534 48.6874 65.6507 48.1274 65.884C47.5674 66.1173 47.0727 66.4487 46.6434 66.878C46.214 67.298 45.878 67.802 45.6354 68.39C45.3927 68.9687 45.2714 69.5987 45.2714 70.28C45.2714 70.9427 45.3834 71.5633 45.6074 72.142C45.8407 72.7207 46.1627 73.2293 46.5734 73.668C46.9934 74.1067 47.4834 74.4473 48.0434 74.69C48.6034 74.942 49.21 75.068 49.8634 75.068C50.2554 75.068 50.624 75.0167 50.9694 74.914C51.3147 74.8207 51.66 74.6947 52.0054 74.536L52.1874 74.984C51.814 75.1707 51.4267 75.3107 51.0254 75.404C50.6334 75.4973 50.2414 75.544 49.8494 75.544C49.1494 75.544 48.4914 75.4133 47.8754 75.152C47.2687 74.8907 46.732 74.522 46.2654 74.046C45.7987 73.5793 45.43 73.024 45.1594 72.38C44.898 71.736 44.7674 71.036 44.7674 70.28C44.7674 69.4867 44.9074 68.7727 45.1874 68.138C45.4767 67.494 45.864 66.9433 46.3494 66.486C46.8347 66.0287 47.3854 65.6787 48.0014 65.436C48.6267 65.184 49.2754 65.058 49.9474 65.058ZM50.8014 72.52C51.0627 72.3987 51.2587 72.2633 51.3894 72.114C51.52 71.9553 51.604 71.7873 51.6414 71.61C51.688 71.4327 51.7114 71.26 51.7114 71.092V70.532C51.59 70.5227 51.3707 70.4713 51.0534 70.378C50.7454 70.2753 50.3674 70.224 49.9194 70.224C49.5927 70.224 49.28 70.2613 48.9814 70.336C48.692 70.4107 48.454 70.546 48.2674 70.742C48.09 70.9287 48.0014 71.19 48.0014 71.526C48.0014 71.7873 48.0667 72.016 48.1974 72.212C48.328 72.408 48.5054 72.562 48.7294 72.674C48.9534 72.7767 49.21 72.828 49.4994 72.828C49.7234 72.828 49.952 72.8 50.1854 72.744C50.4187 72.6787 50.624 72.604 50.8014 72.52ZM60.0262 73.64C59.5035 73.64 59.0182 73.542 58.5702 73.346C58.1222 73.1407 57.7348 72.8653 57.4082 72.52C57.0815 72.1653 56.8248 71.7593 56.6382 71.302C56.4608 70.8447 56.3722 70.3547 56.3722 69.832C56.3722 69.1507 56.5262 68.5253 56.8342 67.956C57.1515 67.3867 57.5855 66.934 58.1362 66.598C58.6868 66.2527 59.3122 66.08 60.0122 66.08C60.7308 66.08 61.3562 66.2527 61.8882 66.598C62.4295 66.9433 62.8542 67.4007 63.1622 67.97C63.4702 68.53 63.6242 69.146 63.6242 69.818C63.6242 69.8927 63.6242 69.9673 63.6242 70.042C63.6242 70.1073 63.6195 70.1587 63.6102 70.196H57.3662C57.4128 70.7187 57.5575 71.1853 57.8002 71.596C58.0522 71.9973 58.3742 72.3193 58.7662 72.562C59.1675 72.7953 59.6015 72.912 60.0682 72.912C60.5442 72.912 60.9922 72.7907 61.4122 72.548C61.8415 72.3053 62.1402 71.988 62.3082 71.596L63.1342 71.82C62.9848 72.1653 62.7562 72.478 62.4482 72.758C62.1402 73.038 61.7762 73.2573 61.3562 73.416C60.9455 73.5653 60.5022 73.64 60.0262 73.64ZM57.3382 69.51H62.7282C62.6908 68.978 62.5462 68.5113 62.2942 68.11C62.0515 67.7087 61.7295 67.396 61.3282 67.172C60.9362 66.9387 60.5022 66.822 60.0262 66.822C59.5502 66.822 59.1162 66.9387 58.7242 67.172C58.3322 67.396 58.0102 67.7133 57.7582 68.124C57.5155 68.5253 57.3755 68.9873 57.3382 69.51ZM65.0435 66.206L67.1855 69.062L67.2975 69.272L67.4095 69.062L69.5375 66.206H70.6155L67.8435 69.874L70.6155 73.5H69.5375L67.4095 70.658L67.2975 70.462L67.1855 70.658L65.0575 73.5H63.9795L66.7375 69.874L63.9795 66.206H65.0435ZM71.2179 71.4C71.2179 70.9427 71.3485 70.5507 71.6099 70.224C71.8712 69.888 72.2305 69.6313 72.6879 69.454C73.1545 69.2673 73.6912 69.174 74.2979 69.174C74.6525 69.174 75.0212 69.202 75.4039 69.258C75.7865 69.314 76.1272 69.398 76.4259 69.51V68.894C76.4259 68.278 76.2439 67.788 75.8799 67.424C75.5159 67.06 75.0119 66.878 74.3679 66.878C73.9759 66.878 73.5885 66.9527 73.2059 67.102C72.8325 67.242 72.4405 67.452 72.0299 67.732L71.6659 67.06C72.1419 66.7333 72.6085 66.4907 73.0659 66.332C73.5232 66.164 73.9899 66.08 74.4659 66.08C75.3619 66.08 76.0712 66.3367 76.5939 66.85C77.1165 67.3633 77.3779 68.0727 77.3779 68.978V72.352C77.3779 72.4827 77.4059 72.5807 77.4619 72.646C77.5179 72.702 77.6065 72.7347 77.7279 72.744V73.5C77.6252 73.5093 77.5365 73.5187 77.4619 73.528C77.3872 73.5373 77.3312 73.5373 77.2939 73.528C77.0605 73.5187 76.8832 73.444 76.7619 73.304C76.6405 73.164 76.5752 73.0147 76.5659 72.856L76.5519 72.324C76.2252 72.744 75.8005 73.0707 75.2779 73.304C74.7552 73.528 74.2232 73.64 73.6819 73.64C73.2152 73.64 72.7905 73.542 72.4079 73.346C72.0345 73.1407 71.7405 72.87 71.5259 72.534C71.3205 72.1887 71.2179 71.8107 71.2179 71.4ZM76.1039 71.96C76.2065 71.8293 76.2859 71.7033 76.3419 71.582C76.3979 71.4607 76.4259 71.3533 76.4259 71.26V70.196C76.1085 70.0747 75.7772 69.9813 75.4319 69.916C75.0959 69.8507 74.7552 69.818 74.4099 69.818C73.7285 69.818 73.1779 69.9533 72.7579 70.224C72.3379 70.4947 72.1279 70.8633 72.1279 71.33C72.1279 71.6007 72.1979 71.8573 72.3379 72.1C72.4779 72.3333 72.6832 72.5293 72.9539 72.688C73.2245 72.8373 73.5419 72.912 73.9059 72.912C74.3632 72.912 74.7879 72.8233 75.1799 72.646C75.5812 72.4687 75.8892 72.24 76.1039 71.96ZM90.2848 73.5H89.3328V69.426C89.3328 68.5767 89.1974 67.9513 88.9268 67.55C88.6561 67.1487 88.2548 66.948 87.7228 66.948C87.1721 66.948 86.6774 67.144 86.2388 67.536C85.8094 67.928 85.5061 68.432 85.3288 69.048V73.5H84.3768V69.426C84.3768 68.5673 84.2461 67.942 83.9848 67.55C83.7234 67.1487 83.3221 66.948 82.7808 66.948C82.2394 66.948 81.7494 67.1393 81.3108 67.522C80.8721 67.9047 80.5641 68.4087 80.3868 69.034V73.5H79.4348V66.206H80.3028V67.858C80.6108 67.2887 81.0028 66.85 81.4788 66.542C81.9641 66.234 82.5008 66.08 83.0888 66.08C83.6954 66.08 84.1854 66.2527 84.5588 66.598C84.9321 66.9433 85.1608 67.396 85.2448 67.956C85.5808 67.34 85.9821 66.8733 86.4488 66.556C86.9248 66.2387 87.4614 66.08 88.0588 66.08C88.4694 66.08 88.8148 66.1547 89.0948 66.304C89.3841 66.4533 89.6128 66.668 89.7808 66.948C89.9581 67.2187 90.0841 67.55 90.1588 67.942C90.2428 68.3247 90.2848 68.754 90.2848 69.23V73.5ZM96.024 73.64C95.4173 73.64 94.8713 73.4813 94.386 73.164C93.91 72.8467 93.532 72.4547 93.252 71.988V76.482H92.3V66.206H93.154V67.62C93.4433 67.1627 93.8307 66.794 94.316 66.514C94.8013 66.2247 95.3193 66.08 95.87 66.08C96.374 66.08 96.836 66.1873 97.256 66.402C97.676 66.6073 98.04 66.8873 98.348 67.242C98.656 67.5967 98.894 68.0027 99.062 68.46C99.2393 68.908 99.328 69.3747 99.328 69.86C99.328 70.5413 99.188 71.1713 98.908 71.75C98.6373 72.3193 98.2547 72.7767 97.76 73.122C97.2653 73.4673 96.6867 73.64 96.024 73.64ZM95.758 72.8C96.1593 72.8 96.5187 72.7207 96.836 72.562C97.1533 72.394 97.424 72.17 97.648 71.89C97.8813 71.61 98.0587 71.2973 98.18 70.952C98.3013 70.5973 98.362 70.2333 98.362 69.86C98.362 69.468 98.292 69.0947 98.152 68.74C98.0213 68.3853 97.83 68.0727 97.578 67.802C97.326 67.5313 97.0367 67.3167 96.71 67.158C96.3833 66.9993 96.0287 66.92 95.646 66.92C95.4033 66.92 95.1513 66.9667 94.89 67.06C94.6287 67.1533 94.3767 67.2887 94.134 67.466C93.9007 67.634 93.7047 67.8253 93.546 68.04C93.3873 68.2547 93.2893 68.4833 93.252 68.726V70.966C93.4013 71.3113 93.602 71.624 93.854 71.904C94.106 72.1747 94.3953 72.394 94.722 72.562C95.058 72.7207 95.4033 72.8 95.758 72.8ZM100.983 63.28H101.935V71.848C101.935 72.212 102 72.45 102.131 72.562C102.261 72.674 102.42 72.73 102.607 72.73C102.775 72.73 102.943 72.7113 103.111 72.674C103.279 72.6367 103.423 72.5993 103.545 72.562L103.713 73.332C103.535 73.4067 103.316 73.4673 103.055 73.514C102.803 73.5607 102.583 73.584 102.397 73.584C101.967 73.584 101.622 73.458 101.361 73.206C101.109 72.954 100.983 72.6087 100.983 72.17V63.28ZM107.905 73.64C107.382 73.64 106.897 73.542 106.449 73.346C106.001 73.1407 105.614 72.8653 105.287 72.52C104.96 72.1653 104.704 71.7593 104.517 71.302C104.34 70.8447 104.251 70.3547 104.251 69.832C104.251 69.1507 104.405 68.5253 104.713 67.956C105.03 67.3867 105.464 66.934 106.015 66.598C106.566 66.2527 107.191 66.08 107.891 66.08C108.61 66.08 109.235 66.2527 109.767 66.598C110.308 66.9433 110.733 67.4007 111.041 67.97C111.349 68.53 111.503 69.146 111.503 69.818C111.503 69.8927 111.503 69.9673 111.503 70.042C111.503 70.1073 111.498 70.1587 111.489 70.196H105.245C105.292 70.7187 105.436 71.1853 105.679 71.596C105.931 71.9973 106.253 72.3193 106.645 72.562C107.046 72.7953 107.48 72.912 107.947 72.912C108.423 72.912 108.871 72.7907 109.291 72.548C109.72 72.3053 110.019 71.988 110.187 71.596L111.013 71.82C110.864 72.1653 110.635 72.478 110.327 72.758C110.019 73.038 109.655 73.2573 109.235 73.416C108.824 73.5653 108.381 73.64 107.905 73.64ZM105.217 69.51H110.607C110.57 68.978 110.425 68.5113 110.173 68.11C109.93 67.7087 109.608 67.396 109.207 67.172C108.815 66.9387 108.381 66.822 107.905 66.822C107.429 66.822 106.995 66.9387 106.603 67.172C106.211 67.396 105.889 67.7133 105.637 68.124C105.394 68.5253 105.254 68.9873 105.217 69.51ZM112.832 73.5V72.128H113.658V73.5H112.832ZM118.515 73.64C117.983 73.64 117.493 73.542 117.045 73.346C116.606 73.1407 116.219 72.8607 115.883 72.506C115.556 72.1513 115.299 71.7453 115.113 71.288C114.935 70.8307 114.847 70.3453 114.847 69.832C114.847 69.1413 115.001 68.5113 115.309 67.942C115.617 67.3727 116.046 66.92 116.597 66.584C117.147 66.248 117.782 66.08 118.501 66.08C119.182 66.08 119.784 66.2387 120.307 66.556C120.829 66.864 121.217 67.284 121.469 67.816L120.545 68.11C120.339 67.7367 120.05 67.4473 119.677 67.242C119.313 67.0273 118.907 66.92 118.459 66.92C117.973 66.92 117.53 67.046 117.129 67.298C116.727 67.55 116.405 67.8953 116.163 68.334C115.929 68.7727 115.813 69.272 115.813 69.832C115.813 70.3827 115.934 70.882 116.177 71.33C116.419 71.778 116.741 72.1373 117.143 72.408C117.544 72.6693 117.987 72.8 118.473 72.8C118.79 72.8 119.093 72.744 119.383 72.632C119.681 72.52 119.938 72.3707 120.153 72.184C120.377 71.988 120.526 71.778 120.601 71.554L121.539 71.834C121.408 72.1793 121.189 72.492 120.881 72.772C120.582 73.0427 120.227 73.2573 119.817 73.416C119.415 73.5653 118.981 73.64 118.515 73.64ZM126.074 73.64C125.551 73.64 125.066 73.542 124.618 73.346C124.179 73.1407 123.797 72.8653 123.47 72.52C123.153 72.1653 122.905 71.764 122.728 71.316C122.551 70.8587 122.462 70.378 122.462 69.874C122.462 69.3513 122.551 68.866 122.728 68.418C122.905 67.9607 123.157 67.5593 123.484 67.214C123.811 66.8593 124.193 66.584 124.632 66.388C125.08 66.1827 125.565 66.08 126.088 66.08C126.611 66.08 127.091 66.1827 127.53 66.388C127.969 66.584 128.351 66.8593 128.678 67.214C129.005 67.5593 129.257 67.9607 129.434 68.418C129.611 68.866 129.7 69.3513 129.7 69.874C129.7 70.378 129.611 70.8587 129.434 71.316C129.257 71.764 129.005 72.1653 128.678 72.52C128.361 72.8653 127.978 73.1407 127.53 73.346C127.091 73.542 126.606 73.64 126.074 73.64ZM123.428 69.888C123.428 70.4293 123.545 70.924 123.778 71.372C124.021 71.8107 124.343 72.1607 124.744 72.422C125.145 72.674 125.589 72.8 126.074 72.8C126.559 72.8 127.003 72.6693 127.404 72.408C127.805 72.1467 128.127 71.792 128.37 71.344C128.613 70.8867 128.734 70.392 128.734 69.86C128.734 69.3187 128.613 68.824 128.37 68.376C128.127 67.928 127.805 67.5733 127.404 67.312C127.003 67.0507 126.559 66.92 126.074 66.92C125.589 66.92 125.145 67.0553 124.744 67.326C124.352 67.5967 124.035 67.956 123.792 68.404C123.549 68.8427 123.428 69.3373 123.428 69.888ZM142.142 73.5H141.19V69.426C141.19 68.5767 141.055 67.9513 140.784 67.55C140.514 67.1487 140.112 66.948 139.58 66.948C139.03 66.948 138.535 67.144 138.096 67.536C137.667 67.928 137.364 68.432 137.186 69.048V73.5H136.234V69.426C136.234 68.5673 136.104 67.942 135.842 67.55C135.581 67.1487 135.18 66.948 134.638 66.948C134.097 66.948 133.607 67.1393 133.168 67.522C132.73 67.9047 132.422 68.4087 132.244 69.034V73.5H131.292V66.206H132.16V67.858C132.468 67.2887 132.86 66.85 133.336 66.542C133.822 66.234 134.358 66.08 134.946 66.08C135.553 66.08 136.043 66.2527 136.416 66.598C136.79 66.9433 137.018 67.396 137.102 67.956C137.438 67.34 137.84 66.8733 138.306 66.556C138.782 66.2387 139.319 66.08 139.916 66.08C140.327 66.08 140.672 66.1547 140.952 66.304C141.242 66.4533 141.47 66.668 141.638 66.948C141.816 67.2187 141.942 67.55 142.016 67.942C142.1 68.3247 142.142 68.754 142.142 69.23V73.5Z" fill="#A1A1AA"/>
<path d="M25.293 34C25.293 29.8579 28.6508 26.5 32.793 26.5H185.016C189.158 26.5 192.516 29.8579 192.516 34V58C192.516 62.1421 189.158 65.5 185.016 65.5H32.793C28.6508 65.5 25.293 62.1421 25.293 58V34Z" fill="#1C1917"/>
<path d="M25.293 34C25.293 29.8579 28.6508 26.5 32.793 26.5H185.016C189.158 26.5 192.516 29.8579 192.516 34V58C192.516 62.1421 189.158 65.5 185.016 65.5H32.793C28.6508 65.5 25.293 62.1421 25.293 58V34Z" stroke="#27272A"/>
<path d="M54.793 52L51.9263 49.1333M53.4596 45.3333C53.4596 48.2789 51.0718 50.6667 48.1263 50.6667C45.1808 50.6667 42.793 48.2789 42.793 45.3333C42.793 42.3878 45.1808 40 48.1263 40C51.0718 40 53.4596 42.3878 53.4596 45.3333Z" stroke="#A1A1AA" stroke-width="2" stroke-linecap="round" stroke-linejoin="round"/>
<path d="M67.849 42.422C67.709 42.2633 67.5456 42.1233 67.359 42.002C67.1723 41.8713 66.9623 41.7593 66.729 41.666C66.4956 41.5727 66.2436 41.498 65.973 41.442C65.7116 41.386 65.4316 41.358 65.133 41.358C64.265 41.358 63.6256 41.526 63.215 41.862C62.8136 42.1887 62.613 42.6367 62.613 43.206C62.613 43.598 62.7063 43.906 62.893 44.13C63.089 44.354 63.3923 44.536 63.803 44.676C64.2136 44.816 64.7363 44.9607 65.371 45.11C66.0803 45.2593 66.6916 45.4367 67.205 45.642C67.7183 45.8473 68.115 46.1273 68.395 46.482C68.675 46.8273 68.815 47.2987 68.815 47.896C68.815 48.3533 68.7263 48.75 68.549 49.086C68.3716 49.422 68.1243 49.702 67.807 49.926C67.4896 50.15 67.1116 50.318 66.673 50.43C66.2343 50.5327 65.7536 50.584 65.231 50.584C64.7176 50.584 64.223 50.5327 63.747 50.43C63.2803 50.318 62.837 50.1593 62.417 49.954C61.997 49.7393 61.605 49.4687 61.241 49.142L61.731 48.344C61.9083 48.5307 62.1183 48.708 62.361 48.876C62.613 49.0347 62.8883 49.1793 63.187 49.31C63.495 49.4407 63.8216 49.5433 64.167 49.618C64.5216 49.6833 64.8856 49.716 65.259 49.716C66.0523 49.716 66.6683 49.5713 67.107 49.282C67.555 48.9927 67.779 48.5633 67.779 47.994C67.779 47.5833 67.667 47.2567 67.443 47.014C67.219 46.762 66.883 46.5567 66.435 46.398C65.987 46.2393 65.4363 46.0853 64.783 45.936C64.0923 45.7773 63.509 45.6 63.033 45.404C62.557 45.208 62.1976 44.9513 61.955 44.634C61.7216 44.3073 61.605 43.878 61.605 43.346C61.605 42.73 61.7543 42.212 62.053 41.792C62.361 41.3627 62.781 41.0407 63.313 40.826C63.845 40.602 64.4563 40.49 65.147 40.49C65.5856 40.49 65.9916 40.5367 66.365 40.63C66.7476 40.714 67.0976 40.84 67.415 41.008C67.7416 41.176 68.045 41.386 68.325 41.638L67.849 42.422ZM73.4969 50.64C72.9742 50.64 72.4889 50.542 72.0409 50.346C71.5929 50.1407 71.2055 49.8653 70.8789 49.52C70.5522 49.1653 70.2955 48.7593 70.1089 48.302C69.9315 47.8447 69.8429 47.3547 69.8429 46.832C69.8429 46.1507 69.9969 45.5253 70.3049 44.956C70.6222 44.3867 71.0562 43.934 71.6069 43.598C72.1575 43.2527 72.7829 43.08 73.4829 43.08C74.2015 43.08 74.8269 43.2527 75.3589 43.598C75.9002 43.9433 76.3249 44.4007 76.6329 44.97C76.9409 45.53 77.0949 46.146 77.0949 46.818C77.0949 46.8927 77.0949 46.9673 77.0949 47.042C77.0949 47.1073 77.0902 47.1587 77.0809 47.196H70.8369C70.8835 47.7187 71.0282 48.1853 71.2709 48.596C71.5229 48.9973 71.8449 49.3193 72.2369 49.562C72.6382 49.7953 73.0722 49.912 73.5389 49.912C74.0149 49.912 74.4629 49.7907 74.8829 49.548C75.3122 49.3053 75.6109 48.988 75.7789 48.596L76.6049 48.82C76.4555 49.1653 76.2269 49.478 75.9189 49.758C75.6109 50.038 75.2469 50.2573 74.8269 50.416C74.4162 50.5653 73.9729 50.64 73.4969 50.64ZM70.8089 46.51H76.1989C76.1615 45.978 76.0169 45.5113 75.7649 45.11C75.5222 44.7087 75.2002 44.396 74.7989 44.172C74.4069 43.9387 73.9729 43.822 73.4969 43.822C73.0209 43.822 72.5869 43.9387 72.1949 44.172C71.8029 44.396 71.4809 44.7133 71.2289 45.124C70.9862 45.5253 70.8462 45.9873 70.8089 46.51ZM77.9757 48.4C77.9757 47.9427 78.1063 47.5507 78.3677 47.224C78.629 46.888 78.9883 46.6313 79.4457 46.454C79.9123 46.2673 80.449 46.174 81.0557 46.174C81.4103 46.174 81.779 46.202 82.1617 46.258C82.5443 46.314 82.885 46.398 83.1837 46.51V45.894C83.1837 45.278 83.0017 44.788 82.6377 44.424C82.2737 44.06 81.7697 43.878 81.1257 43.878C80.7337 43.878 80.3463 43.9527 79.9637 44.102C79.5903 44.242 79.1983 44.452 78.7877 44.732L78.4237 44.06C78.8997 43.7333 79.3663 43.4907 79.8237 43.332C80.281 43.164 80.7477 43.08 81.2237 43.08C82.1197 43.08 82.829 43.3367 83.3517 43.85C83.8743 44.3633 84.1357 45.0727 84.1357 45.978V49.352C84.1357 49.4827 84.1637 49.5807 84.2197 49.646C84.2757 49.702 84.3643 49.7347 84.4857 49.744V50.5C84.383 50.5093 84.2943 50.5187 84.2197 50.528C84.145 50.5373 84.089 50.5373 84.0517 50.528C83.8183 50.5187 83.641 50.444 83.5197 50.304C83.3983 50.164 83.333 50.0147 83.3237 49.856L83.3097 49.324C82.983 49.744 82.5583 50.0707 82.0357 50.304C81.513 50.528 80.981 50.64 80.4397 50.64C79.973 50.64 79.5483 50.542 79.1657 50.346C78.7923 50.1407 78.4983 49.87 78.2837 49.534C78.0783 49.1887 77.9757 48.8107 77.9757 48.4ZM82.8617 48.96C82.9643 48.8293 83.0437 48.7033 83.0997 48.582C83.1557 48.4607 83.1837 48.3533 83.1837 48.26V47.196C82.8663 47.0747 82.535 46.9813 82.1897 46.916C81.8537 46.8507 81.513 46.818 81.1677 46.818C80.4863 46.818 79.9357 46.9533 79.5157 47.224C79.0957 47.4947 78.8857 47.8633 78.8857 48.33C78.8857 48.6007 78.9557 48.8573 79.0957 49.1C79.2357 49.3333 79.441 49.5293 79.7117 49.688C79.9823 49.8373 80.2997 49.912 80.6637 49.912C81.121 49.912 81.5457 49.8233 81.9377 49.646C82.339 49.4687 82.647 49.24 82.8617 48.96ZM89.8326 44.046C89.1979 44.0647 88.6379 44.242 88.1526 44.578C87.6766 44.914 87.3406 45.376 87.1446 45.964V50.5H86.1926V43.206H87.0886V44.956C87.3406 44.4427 87.6719 44.0273 88.0826 43.71C88.5026 43.3927 88.9459 43.2153 89.4126 43.178C89.5059 43.1687 89.5852 43.164 89.6506 43.164C89.7252 43.164 89.7859 43.1687 89.8326 43.178V44.046ZM94.0324 50.64C93.5004 50.64 93.0104 50.542 92.5624 50.346C92.1237 50.1407 91.7364 49.8607 91.4004 49.506C91.0737 49.1513 90.817 48.7453 90.6304 48.288C90.453 47.8307 90.3644 47.3453 90.3644 46.832C90.3644 46.1413 90.5184 45.5113 90.8264 44.942C91.1344 44.3727 91.5637 43.92 92.1144 43.584C92.665 43.248 93.2997 43.08 94.0184 43.08C94.6997 43.08 95.3017 43.2387 95.8244 43.556C96.347 43.864 96.7344 44.284 96.9864 44.816L96.0624 45.11C95.857 44.7367 95.5677 44.4473 95.1944 44.242C94.8304 44.0273 94.4244 43.92 93.9764 43.92C93.491 43.92 93.0477 44.046 92.6464 44.298C92.245 44.55 91.923 44.8953 91.6804 45.334C91.447 45.7727 91.3304 46.272 91.3304 46.832C91.3304 47.3827 91.4517 47.882 91.6944 48.33C91.937 48.778 92.259 49.1373 92.6604 49.408C93.0617 49.6693 93.505 49.8 93.9904 49.8C94.3077 49.8 94.611 49.744 94.9004 49.632C95.199 49.52 95.4557 49.3707 95.6704 49.184C95.8944 48.988 96.0437 48.778 96.1184 48.554L97.0564 48.834C96.9257 49.1793 96.7064 49.492 96.3984 49.772C96.0997 50.0427 95.745 50.2573 95.3344 50.416C94.933 50.5653 94.499 50.64 94.0324 50.64ZM104.684 50.5H103.732V46.426C103.732 45.6047 103.587 44.9887 103.298 44.578C103.009 44.158 102.593 43.948 102.052 43.948C101.697 43.948 101.343 44.0413 100.988 44.228C100.643 44.4053 100.335 44.6527 100.064 44.97C99.8026 45.278 99.616 45.6327 99.504 46.034V50.5H98.552V40.28H99.504V44.858C99.7933 44.3167 100.195 43.8873 100.708 43.57C101.231 43.2433 101.786 43.08 102.374 43.08C102.794 43.08 103.149 43.1547 103.438 43.304C103.737 43.4533 103.975 43.6727 104.152 43.962C104.339 44.242 104.474 44.5733 104.558 44.956C104.642 45.3293 104.684 45.754 104.684 46.23V50.5ZM110.142 50.5V49.128H110.968V50.5H110.142ZM112.795 50.5V49.128H113.621V50.5H112.795ZM115.447 50.5V49.128H116.273V50.5H115.447ZM118.099 50.5V49.128H118.925V50.5H118.099Z" fill="#A1A1AA"/>
<path d="M48.2769 6C48.2769 2.96243 50.7393 0.5 53.7769 0.5H210C213.038 0.5 215.5 2.96243 215.5 6V34C215.5 37.0376 213.038 39.5 210 39.5H53.7769C50.7393 39.5 48.2769 37.0376 48.2769 34V6Z" fill="#1C1917"/>
<path d="M48.2769 6C48.2769 2.96243 50.7393 0.5 53.7769 0.5H210C213.038 0.5 215.5 2.96243 215.5 6V34C215.5 37.0376 213.038 39.5 210 39.5H53.7769C50.7393 39.5 48.2769 37.0376 48.2769 34V6Z" stroke="#27272A"/>
<path d="M64.7569 21.49V17.206H65.7089V21.322C65.7089 22.1527 65.8489 22.7733 66.1289 23.184C66.4182 23.5947 66.8429 23.8 67.4029 23.8C67.7762 23.8 68.1355 23.7207 68.4809 23.562C68.8355 23.394 69.1482 23.1607 69.4189 22.862C69.6895 22.554 69.8949 22.1993 70.0349 21.798V17.206H70.9869V23.352C70.9869 23.4827 71.0149 23.5807 71.0709 23.646C71.1269 23.702 71.2109 23.7347 71.3229 23.744V24.5C71.2109 24.5093 71.1222 24.514 71.0569 24.514C70.9915 24.5233 70.9309 24.528 70.8749 24.528C70.6882 24.5093 70.5249 24.4347 70.3849 24.304C70.2542 24.1733 70.1842 24.0147 70.1749 23.828L70.1469 22.848C69.8295 23.408 69.3955 23.8467 68.8449 24.164C68.3035 24.4813 67.7155 24.64 67.0809 24.64C66.3155 24.64 65.7369 24.374 65.3449 23.842C64.9529 23.31 64.7569 22.526 64.7569 21.49ZM75.5334 24.64C74.936 24.64 74.3807 24.542 73.8674 24.346C73.354 24.15 72.9107 23.8513 72.5374 23.45L72.9294 22.778C73.34 23.1607 73.7507 23.4407 74.1614 23.618C74.5814 23.786 75.0247 23.87 75.4914 23.87C76.0607 23.87 76.5227 23.758 76.8774 23.534C77.232 23.3007 77.4094 22.9693 77.4094 22.54C77.4094 22.2507 77.3207 22.0313 77.1434 21.882C76.9754 21.7233 76.728 21.5973 76.4014 21.504C76.084 21.4013 75.7014 21.294 75.2534 21.182C74.7494 21.042 74.3247 20.8973 73.9794 20.748C73.6434 20.5893 73.3867 20.3933 73.2094 20.16C73.0414 19.9173 72.9574 19.6047 72.9574 19.222C72.9574 18.746 73.074 18.354 73.3074 18.046C73.55 17.7287 73.8767 17.4907 74.2874 17.332C74.7074 17.164 75.174 17.08 75.6874 17.08C76.2474 17.08 76.742 17.1687 77.1714 17.346C77.6007 17.5233 77.9507 17.7707 78.2214 18.088L77.7594 18.732C77.498 18.4333 77.1854 18.214 76.8214 18.074C76.4667 17.9247 76.07 17.85 75.6314 17.85C75.3327 17.85 75.048 17.892 74.7774 17.976C74.5067 18.0507 74.2827 18.1813 74.1054 18.368C73.9374 18.5453 73.8534 18.7927 73.8534 19.11C73.8534 19.3713 73.9187 19.5767 74.0494 19.726C74.18 19.866 74.376 19.9873 74.6374 20.09C74.8987 20.1833 75.2207 20.286 75.6034 20.398C76.154 20.5473 76.6347 20.7013 77.0454 20.86C77.456 21.0093 77.7734 21.2053 77.9974 21.448C78.2214 21.6907 78.3334 22.0313 78.3334 22.47C78.3334 23.1513 78.0767 23.6833 77.5634 24.066C77.05 24.4487 76.3734 24.64 75.5334 24.64ZM83.0569 24.64C82.5343 24.64 82.0489 24.542 81.6009 24.346C81.1529 24.1407 80.7656 23.8653 80.4389 23.52C80.1123 23.1653 79.8556 22.7593 79.6689 22.302C79.4916 21.8447 79.4029 21.3547 79.4029 20.832C79.4029 20.1507 79.5569 19.5253 79.8649 18.956C80.1823 18.3867 80.6163 17.934 81.1669 17.598C81.7176 17.2527 82.3429 17.08 83.0429 17.08C83.7616 17.08 84.3869 17.2527 84.9189 17.598C85.4603 17.9433 85.8849 18.4007 86.1929 18.97C86.5009 19.53 86.6549 20.146 86.6549 20.818C86.6549 20.8927 86.6549 20.9673 86.6549 21.042C86.6549 21.1073 86.6503 21.1587 86.6409 21.196H80.3969C80.4436 21.7187 80.5883 22.1853 80.8309 22.596C81.0829 22.9973 81.4049 23.3193 81.7969 23.562C82.1983 23.7953 82.6323 23.912 83.0989 23.912C83.5749 23.912 84.0229 23.7907 84.4429 23.548C84.8723 23.3053 85.1709 22.988 85.3389 22.596L86.1649 22.82C86.0156 23.1653 85.7869 23.478 85.4789 23.758C85.1709 24.038 84.8069 24.2573 84.3869 24.416C83.9763 24.5653 83.5329 24.64 83.0569 24.64ZM80.3689 20.51H85.7589C85.7216 19.978 85.5769 19.5113 85.3249 19.11C85.0823 18.7087 84.7603 18.396 84.3589 18.172C83.9669 17.9387 83.5329 17.822 83.0569 17.822C82.5809 17.822 82.1469 17.9387 81.7549 18.172C81.3629 18.396 81.0409 18.7133 80.7889 19.124C80.5463 19.5253 80.4063 19.9873 80.3689 20.51ZM91.7637 18.046C91.1291 18.0647 90.5691 18.242 90.0837 18.578C89.6077 18.914 89.2717 19.376 89.0757 19.964V24.5H88.1237V17.206H89.0197V18.956C89.2717 18.4427 89.6031 18.0273 90.0137 17.71C90.4337 17.3927 90.8771 17.2153 91.3437 17.178C91.4371 17.1687 91.5164 17.164 91.5817 17.164C91.6564 17.164 91.7171 17.1687 91.7637 17.178V18.046ZM99.1639 24.5H98.2119V20.426C98.2119 19.5673 98.0859 18.942 97.8339 18.55C97.5819 18.1487 97.1853 17.948 96.6439 17.948C96.2706 17.948 95.9019 18.0413 95.5379 18.228C95.1739 18.4053 94.8519 18.6527 94.5719 18.97C94.3013 19.278 94.1053 19.6327 93.9839 20.034V24.5H93.0319V17.206H93.8999V18.858C94.0959 18.5033 94.3526 18.1953 94.6699 17.934C94.9873 17.6633 95.3466 17.4533 95.7479 17.304C96.1493 17.1547 96.5646 17.08 96.9939 17.08C97.3953 17.08 97.7359 17.1547 98.0159 17.304C98.2959 17.4533 98.5199 17.668 98.6879 17.948C98.8559 18.2187 98.9773 18.55 99.0519 18.942C99.1266 19.3247 99.1639 19.754 99.1639 20.23V24.5ZM100.606 22.4C100.606 21.9427 100.737 21.5507 100.998 21.224C101.259 20.888 101.619 20.6313 102.076 20.454C102.543 20.2673 103.079 20.174 103.686 20.174C104.041 20.174 104.409 20.202 104.792 20.258C105.175 20.314 105.515 20.398 105.814 20.51V19.894C105.814 19.278 105.632 18.788 105.268 18.424C104.904 18.06 104.4 17.878 103.756 17.878C103.364 17.878 102.977 17.9527 102.594 18.102C102.221 18.242 101.829 18.452 101.418 18.732L101.054 18.06C101.53 17.7333 101.997 17.4907 102.454 17.332C102.911 17.164 103.378 17.08 103.854 17.08C104.75 17.08 105.459 17.3367 105.982 17.85C106.505 18.3633 106.766 19.0727 106.766 19.978V23.352C106.766 23.4827 106.794 23.5807 106.85 23.646C106.906 23.702 106.995 23.7347 107.116 23.744V24.5C107.013 24.5093 106.925 24.5187 106.85 24.528C106.775 24.5373 106.719 24.5373 106.682 24.528C106.449 24.5187 106.271 24.444 106.15 24.304C106.029 24.164 105.963 24.0147 105.954 23.856L105.94 23.324C105.613 23.744 105.189 24.0707 104.666 24.304C104.143 24.528 103.611 24.64 103.07 24.64C102.603 24.64 102.179 24.542 101.796 24.346C101.423 24.1407 101.129 23.87 100.914 23.534C100.709 23.1887 100.606 22.8107 100.606 22.4ZM105.492 22.96C105.595 22.8293 105.674 22.7033 105.73 22.582C105.786 22.4607 105.814 22.3533 105.814 22.26V21.196C105.497 21.0747 105.165 20.9813 104.82 20.916C104.484 20.8507 104.143 20.818 103.798 20.818C103.117 20.818 102.566 20.9533 102.146 21.224C101.726 21.4947 101.516 21.8633 101.516 22.33C101.516 22.6007 101.586 22.8573 101.726 23.1C101.866 23.3333 102.071 23.5293 102.342 23.688C102.613 23.8373 102.93 23.912 103.294 23.912C103.751 23.912 104.176 23.8233 104.568 23.646C104.969 23.4687 105.277 23.24 105.492 22.96ZM119.673 24.5H118.721V20.426C118.721 19.5767 118.586 18.9513 118.315 18.55C118.044 18.1487 117.643 17.948 117.111 17.948C116.56 17.948 116.066 18.144 115.627 18.536C115.198 18.928 114.894 19.432 114.717 20.048V24.5H113.765V20.426C113.765 19.5673 113.634 18.942 113.373 18.55C113.112 18.1487 112.71 17.948 112.169 17.948C111.628 17.948 111.138 18.1393 110.699 18.522C110.26 18.9047 109.952 19.4087 109.775 20.034V24.5H108.823V17.206H109.691V18.858C109.999 18.2887 110.391 17.85 110.867 17.542C111.352 17.234 111.889 17.08 112.477 17.08C113.084 17.08 113.574 17.2527 113.947 17.598C114.32 17.9433 114.549 18.396 114.633 18.956C114.969 18.34 115.37 17.8733 115.837 17.556C116.313 17.2387 116.85 17.08 117.447 17.08C117.858 17.08 118.203 17.1547 118.483 17.304C118.772 17.4533 119.001 17.668 119.169 17.948C119.346 18.2187 119.472 18.55 119.547 18.942C119.631 19.3247 119.673 19.754 119.673 20.23V24.5ZM124.838 24.64C124.316 24.64 123.83 24.542 123.382 24.346C122.934 24.1407 122.547 23.8653 122.22 23.52C121.894 23.1653 121.637 22.7593 121.45 22.302C121.273 21.8447 121.184 21.3547 121.184 20.832C121.184 20.1507 121.338 19.5253 121.646 18.956C121.964 18.3867 122.398 17.934 122.948 17.598C123.499 17.2527 124.124 17.08 124.824 17.08C125.543 17.08 126.168 17.2527 126.7 17.598C127.242 17.9433 127.666 18.4007 127.974 18.97C128.282 19.53 128.436 20.146 128.436 20.818C128.436 20.8927 128.436 20.9673 128.436 21.042C128.436 21.1073 128.432 21.1587 128.422 21.196H122.178C122.225 21.7187 122.37 22.1853 122.612 22.596C122.864 22.9973 123.186 23.3193 123.578 23.562C123.98 23.7953 124.414 23.912 124.88 23.912C125.356 23.912 125.804 23.7907 126.224 23.548C126.654 23.3053 126.952 22.988 127.12 22.596L127.946 22.82C127.797 23.1653 127.568 23.478 127.26 23.758C126.952 24.038 126.588 24.2573 126.168 24.416C125.758 24.5653 125.314 24.64 124.838 24.64ZM122.15 20.51H127.54C127.503 19.978 127.358 19.5113 127.106 19.11C126.864 18.7087 126.542 18.396 126.14 18.172C125.748 17.9387 125.314 17.822 124.838 17.822C124.362 17.822 123.928 17.9387 123.536 18.172C123.144 18.396 122.822 18.7133 122.57 19.124C122.328 19.5253 122.188 19.9873 122.15 20.51Z" fill="#A1A1AA"/>
</svg>
