<svg width="219" height="91" viewBox="0 0 219 91" fill="none" xmlns="http://www.w3.org/2000/svg">
<path d="M0.5 57C0.5 53.9624 2.96243 51.5 6 51.5H162.223C165.261 51.5 167.723 53.9624 167.723 57V85C167.723 88.0376 165.261 90.5 162.223 90.5H6C2.96243 90.5 0.5 88.0376 0.5 85V57Z" fill="#EFEEB7"/>
<path d="M0.5 57C0.5 53.9624 2.96243 51.5 6 51.5H162.223C165.261 51.5 167.723 53.9624 167.723 57V85C167.723 88.0376 165.261 90.5 162.223 90.5H6C2.96243 90.5 0.5 88.0376 0.5 85V57Z" stroke="#E4E4E7"/>
<path d="M17.246 75.5V65.56H20.62C21.6747 65.56 22.552 65.784 23.252 66.232C23.9613 66.6707 24.4933 67.268 24.848 68.024C25.2027 68.7707 25.38 69.6013 25.38 70.516C25.38 71.524 25.184 72.4013 24.792 73.148C24.4093 73.8947 23.8587 74.4733 23.14 74.884C22.4307 75.2947 21.5907 75.5 20.62 75.5H17.246ZM24.4 70.516C24.4 69.7227 24.2507 69.018 23.952 68.402C23.6627 67.786 23.238 67.3053 22.678 66.96C22.118 66.6053 21.432 66.428 20.62 66.428H18.226V74.632H20.62C21.4413 74.632 22.132 74.45 22.692 74.086C23.252 73.722 23.6767 73.232 23.966 72.616C24.2553 71.9907 24.4 71.2907 24.4 70.516ZM30.2078 75.64C29.6851 75.64 29.1998 75.542 28.7518 75.346C28.3038 75.1407 27.9165 74.8653 27.5898 74.52C27.2631 74.1653 27.0065 73.7593 26.8198 73.302C26.6425 72.8447 26.5538 72.3547 26.5538 71.832C26.5538 71.1507 26.7078 70.5253 27.0158 69.956C27.3331 69.3867 27.7671 68.934 28.3178 68.598C28.8685 68.2527 29.4938 68.08 30.1938 68.08C30.9125 68.08 31.5378 68.2527 32.0698 68.598C32.6111 68.9433 33.0358 69.4007 33.3438 69.97C33.6518 70.53 33.8058 71.146 33.8058 71.818C33.8058 71.8927 33.8058 71.9673 33.8058 72.042C33.8058 72.1073 33.8011 72.1587 33.7918 72.196H27.5478C27.5945 72.7187 27.7391 73.1853 27.9818 73.596C28.2338 73.9973 28.5558 74.3193 28.9478 74.562C29.3491 74.7953 29.7831 74.912 30.2498 74.912C30.7258 74.912 31.1738 74.7907 31.5938 74.548C32.0231 74.3053 32.3218 73.988 32.4898 73.596L33.3158 73.82C33.1665 74.1653 32.9378 74.478 32.6298 74.758C32.3218 75.038 31.9578 75.2573 31.5378 75.416C31.1271 75.5653 30.6838 75.64 30.2078 75.64ZM27.5198 71.51H32.9098C32.8725 70.978 32.7278 70.5113 32.4758 70.11C32.2331 69.7087 31.9111 69.396 31.5098 69.172C31.1178 68.9387 30.6838 68.822 30.2078 68.822C29.7318 68.822 29.2978 68.9387 28.9058 69.172C28.5138 69.396 28.1918 69.7133 27.9398 70.124C27.6971 70.5253 27.5571 70.9873 27.5198 71.51ZM37.6686 75.64C37.0713 75.64 36.5159 75.542 36.0026 75.346C35.4893 75.15 35.0459 74.8513 34.6726 74.45L35.0646 73.778C35.4753 74.1607 35.8859 74.4407 36.2966 74.618C36.7166 74.786 37.1599 74.87 37.6266 74.87C38.1959 74.87 38.6579 74.758 39.0126 74.534C39.3673 74.3007 39.5446 73.9693 39.5446 73.54C39.5446 73.2507 39.4559 73.0313 39.2786 72.882C39.1106 72.7233 38.8633 72.5973 38.5366 72.504C38.2193 72.4013 37.8366 72.294 37.3886 72.182C36.8846 72.042 36.4599 71.8973 36.1146 71.748C35.7786 71.5893 35.5219 71.3933 35.3446 71.16C35.1766 70.9173 35.0926 70.6047 35.0926 70.222C35.0926 69.746 35.2093 69.354 35.4426 69.046C35.6853 68.7287 36.0119 68.4907 36.4226 68.332C36.8426 68.164 37.3093 68.08 37.8226 68.08C38.3826 68.08 38.8773 68.1687 39.3066 68.346C39.7359 68.5233 40.0859 68.7707 40.3566 69.088L39.8946 69.732C39.6333 69.4333 39.3206 69.214 38.9566 69.074C38.6019 68.9247 38.2053 68.85 37.7666 68.85C37.4679 68.85 37.1833 68.892 36.9126 68.976C36.6419 69.0507 36.4179 69.1813 36.2406 69.368C36.0726 69.5453 35.9886 69.7927 35.9886 70.11C35.9886 70.3713 36.0539 70.5767 36.1846 70.726C36.3153 70.866 36.5113 70.9873 36.7726 71.09C37.0339 71.1833 37.3559 71.286 37.7386 71.398C38.2893 71.5473 38.7699 71.7013 39.1806 71.86C39.5913 72.0093 39.9086 72.2053 40.1326 72.448C40.3566 72.6907 40.4686 73.0313 40.4686 73.47C40.4686 74.1513 40.2119 74.6833 39.6986 75.066C39.1853 75.4487 38.5086 75.64 37.6686 75.64ZM42.0422 75.5V68.206H42.9942V75.5H42.0422ZM42.0422 66.68V65.28H42.9942V66.68H42.0422ZM48.017 75.598C47.5223 75.598 47.065 75.4953 46.645 75.29C46.225 75.0847 45.861 74.8093 45.553 74.464C45.2543 74.1093 45.021 73.708 44.853 73.26C44.685 72.812 44.601 72.35 44.601 71.874C44.601 71.3607 44.6803 70.88 44.839 70.432C45.007 69.9747 45.2403 69.5687 45.539 69.214C45.847 68.8593 46.2063 68.584 46.617 68.388C47.0277 68.1827 47.485 68.08 47.989 68.08C48.6143 68.08 49.1557 68.2387 49.613 68.556C50.0797 68.8733 50.4717 69.2653 50.789 69.732V68.206H51.643V75.528C51.643 76.2 51.4797 76.7647 51.153 77.222C50.8357 77.6887 50.4017 78.0387 49.851 78.272C49.3097 78.5053 48.717 78.622 48.073 78.622C47.2423 78.622 46.5703 78.4727 46.057 78.174C45.5437 77.8753 45.1237 77.474 44.797 76.97L45.385 76.508C45.6743 76.9653 46.057 77.306 46.533 77.53C47.0183 77.754 47.5317 77.866 48.073 77.866C48.549 77.866 48.983 77.7773 49.375 77.6C49.7763 77.432 50.0937 77.1753 50.327 76.83C50.5697 76.4847 50.691 76.0507 50.691 75.528V74.086C50.411 74.5433 50.0283 74.912 49.543 75.192C49.0577 75.4627 48.549 75.598 48.017 75.598ZM48.283 74.8C48.5723 74.8 48.8477 74.7487 49.109 74.646C49.3797 74.5433 49.627 74.408 49.851 74.24C50.075 74.0627 50.2617 73.8667 50.411 73.652C50.5603 73.4373 50.6537 73.218 50.691 72.994V70.74C50.551 70.3853 50.3503 70.0727 50.089 69.802C49.8277 69.522 49.529 69.3073 49.193 69.158C48.8663 68.9993 48.5257 68.92 48.171 68.92C47.7603 68.92 47.3917 69.0087 47.065 69.186C46.7477 69.354 46.477 69.5827 46.253 69.872C46.0383 70.152 45.8703 70.4693 45.749 70.824C45.6277 71.1787 45.567 71.5333 45.567 71.888C45.567 72.28 45.637 72.6533 45.777 73.008C45.917 73.3533 46.1083 73.666 46.351 73.946C46.603 74.2167 46.8923 74.4267 47.219 74.576C47.555 74.7253 47.9097 74.8 48.283 74.8ZM59.8773 75.5H58.9253V71.426C58.9253 70.5673 58.7993 69.942 58.5473 69.55C58.2953 69.1487 57.8986 68.948 57.3573 68.948C56.984 68.948 56.6153 69.0413 56.2513 69.228C55.8873 69.4053 55.5653 69.6527 55.2853 69.97C55.0146 70.278 54.8186 70.6327 54.6973 71.034V75.5H53.7453V68.206H54.6133V69.858C54.8093 69.5033 55.066 69.1953 55.3833 68.934C55.7006 68.6633 56.06 68.4533 56.4613 68.304C56.8626 68.1547 57.278 68.08 57.7073 68.08C58.1086 68.08 58.4493 68.1547 58.7293 68.304C59.0093 68.4533 59.2333 68.668 59.4013 68.948C59.5693 69.2187 59.6906 69.55 59.7653 69.942C59.84 70.3247 59.8773 70.754 59.8773 71.23V75.5ZM68.3143 65.56H69.1403L73.2703 75.5H72.2343L70.9463 72.392H66.4803L65.2063 75.5H64.1563L68.3143 65.56ZM70.7223 71.622L68.7203 66.708L66.6903 71.622H70.7223ZM74.5832 65.28H75.5352V75.5C75.5352 75.5 75.5026 75.5 75.4372 75.5C75.3719 75.5 75.2879 75.5 75.1852 75.5C75.0826 75.5 74.9752 75.5 74.8632 75.5C74.7606 75.5 74.6672 75.5 74.5832 75.5V65.28ZM80.8484 75.64C80.3258 75.64 79.8404 75.542 79.3924 75.346C78.9444 75.1407 78.5571 74.8653 78.2304 74.52C77.9038 74.1653 77.6471 73.7593 77.4604 73.302C77.2831 72.8447 77.1944 72.3547 77.1944 71.832C77.1944 71.1507 77.3484 70.5253 77.6564 69.956C77.9738 69.3867 78.4078 68.934 78.9584 68.598C79.5091 68.2527 80.1344 68.08 80.8344 68.08C81.5531 68.08 82.1784 68.2527 82.7104 68.598C83.2518 68.9433 83.6764 69.4007 83.9844 69.97C84.2924 70.53 84.4464 71.146 84.4464 71.818C84.4464 71.8927 84.4464 71.9673 84.4464 72.042C84.4464 72.1073 84.4418 72.1587 84.4324 72.196H78.1884C78.2351 72.7187 78.3798 73.1853 78.6224 73.596C78.8744 73.9973 79.1964 74.3193 79.5884 74.562C79.9898 74.7953 80.4238 74.912 80.8904 74.912C81.3664 74.912 81.8144 74.7907 82.2344 74.548C82.6638 74.3053 82.9624 73.988 83.1304 73.596L83.9564 73.82C83.8071 74.1653 83.5784 74.478 83.2704 74.758C82.9624 75.038 82.5984 75.2573 82.1784 75.416C81.7678 75.5653 81.3244 75.64 80.8484 75.64ZM78.1604 71.51H83.5504C83.5131 70.978 83.3684 70.5113 83.1164 70.11C82.8738 69.7087 82.5518 69.396 82.1504 69.172C81.7584 68.9387 81.3244 68.822 80.8484 68.822C80.3724 68.822 79.9384 68.9387 79.5464 69.172C79.1544 69.396 78.8324 69.7133 78.5804 70.124C78.3378 70.5253 78.1978 70.9873 78.1604 71.51ZM89.5552 69.046C88.9206 69.0647 88.3606 69.242 87.8752 69.578C87.3992 69.914 87.0632 70.376 86.8672 70.964V75.5H85.9152V68.206H86.8112V69.956C87.0632 69.4427 87.3946 69.0273 87.8052 68.71C88.2252 68.3927 88.6686 68.2153 89.1352 68.178C89.2286 68.1687 89.3079 68.164 89.3732 68.164C89.4479 68.164 89.5086 68.1687 89.5552 68.178V69.046ZM94.3234 75.15C94.2488 75.178 94.1321 75.2293 93.9734 75.304C93.8148 75.3787 93.6234 75.444 93.3994 75.5C93.1754 75.556 92.9328 75.584 92.6714 75.584C92.4008 75.584 92.1441 75.5327 91.9014 75.43C91.6681 75.3273 91.4814 75.1733 91.3414 74.968C91.2014 74.7533 91.1314 74.492 91.1314 74.184V68.962H90.1234V68.206H91.1314V65.742H92.0834V68.206H93.7634V68.962H92.0834V73.918C92.1021 74.1793 92.1954 74.3753 92.3634 74.506C92.5408 74.6367 92.7414 74.702 92.9654 74.702C93.2268 74.702 93.4648 74.66 93.6794 74.576C93.8941 74.4827 94.0248 74.4173 94.0714 74.38L94.3234 75.15ZM97.9069 75.64C97.3096 75.64 96.7542 75.542 96.2409 75.346C95.7276 75.15 95.2842 74.8513 94.9109 74.45L95.3029 73.778C95.7136 74.1607 96.1242 74.4407 96.5349 74.618C96.9549 74.786 97.3982 74.87 97.8649 74.87C98.4342 74.87 98.8962 74.758 99.2509 74.534C99.6056 74.3007 99.7829 73.9693 99.7829 73.54C99.7829 73.2507 99.6942 73.0313 99.5169 72.882C99.3489 72.7233 99.1016 72.5973 98.7749 72.504C98.4576 72.4013 98.0749 72.294 97.6269 72.182C97.1229 72.042 96.6982 71.8973 96.3529 71.748C96.0169 71.5893 95.7602 71.3933 95.5829 71.16C95.4149 70.9173 95.3309 70.6047 95.3309 70.222C95.3309 69.746 95.4476 69.354 95.6809 69.046C95.9236 68.7287 96.2502 68.4907 96.6609 68.332C97.0809 68.164 97.5476 68.08 98.0609 68.08C98.6209 68.08 99.1156 68.1687 99.5449 68.346C99.9742 68.5233 100.324 68.7707 100.595 69.088L100.133 69.732C99.8716 69.4333 99.5589 69.214 99.1949 69.074C98.8402 68.9247 98.4436 68.85 98.0049 68.85C97.7062 68.85 97.4216 68.892 97.1509 68.976C96.8802 69.0507 96.6562 69.1813 96.4789 69.368C96.3109 69.5453 96.2269 69.7927 96.2269 70.11C96.2269 70.3713 96.2922 70.5767 96.4229 70.726C96.5536 70.866 96.7496 70.9873 97.0109 71.09C97.2722 71.1833 97.5942 71.286 97.9769 71.398C98.5276 71.5473 99.0082 71.7013 99.4189 71.86C99.8296 72.0093 100.147 72.2053 100.371 72.448C100.595 72.6907 100.707 73.0313 100.707 73.47C100.707 74.1513 100.45 74.6833 99.9369 75.066C99.4236 75.4487 98.7469 75.64 97.9069 75.64Z" fill="#838123"/>
<path d="M25.293 36C25.293 31.8579 28.6508 28.5 32.793 28.5H185.016C189.158 28.5 192.516 31.8579 192.516 36V60C192.516 64.1421 189.158 67.5 185.016 67.5H32.793C28.6508 67.5 25.293 64.1421 25.293 60V36Z" fill="white"/>
<path d="M25.293 36C25.293 31.8579 28.6508 28.5 32.793 28.5H185.016C189.158 28.5 192.516 31.8579 192.516 36V60C192.516 64.1421 189.158 67.5 185.016 67.5H32.793C28.6508 67.5 25.293 64.1421 25.293 60V36Z" stroke="#E4E4E7"/>
<path d="M42.039 52.5V42.56H45.413C46.4676 42.56 47.345 42.784 48.045 43.232C48.7543 43.6707 49.2863 44.268 49.641 45.024C49.9956 45.7707 50.173 46.6013 50.173 47.516C50.173 48.524 49.977 49.4013 49.585 50.148C49.2023 50.8947 48.6516 51.4733 47.933 51.884C47.2236 52.2947 46.3836 52.5 45.413 52.5H42.039ZM49.193 47.516C49.193 46.7227 49.0436 46.018 48.745 45.402C48.4556 44.786 48.031 44.3053 47.471 43.96C46.911 43.6053 46.225 43.428 45.413 43.428H43.019V51.632H45.413C46.2343 51.632 46.925 51.45 47.485 51.086C48.045 50.722 48.4696 50.232 48.759 49.616C49.0483 48.9907 49.193 48.2907 49.193 47.516ZM55.0008 52.64C54.4781 52.64 53.9928 52.542 53.5448 52.346C53.0968 52.1407 52.7094 51.8653 52.3828 51.52C52.0561 51.1653 51.7994 50.7593 51.6128 50.302C51.4354 49.8447 51.3468 49.3547 51.3468 48.832C51.3468 48.1507 51.5008 47.5253 51.8088 46.956C52.1261 46.3867 52.5601 45.934 53.1108 45.598C53.6614 45.2527 54.2868 45.08 54.9868 45.08C55.7054 45.08 56.3308 45.2527 56.8628 45.598C57.4041 45.9433 57.8288 46.4007 58.1368 46.97C58.4448 47.53 58.5988 48.146 58.5988 48.818C58.5988 48.8927 58.5988 48.9673 58.5988 49.042C58.5988 49.1073 58.5941 49.1587 58.5848 49.196H52.3408C52.3874 49.7187 52.5321 50.1853 52.7748 50.596C53.0268 50.9973 53.3488 51.3193 53.7408 51.562C54.1421 51.7953 54.5761 51.912 55.0428 51.912C55.5188 51.912 55.9668 51.7907 56.3868 51.548C56.8161 51.3053 57.1148 50.988 57.2828 50.596L58.1088 50.82C57.9594 51.1653 57.7308 51.478 57.4228 51.758C57.1148 52.038 56.7508 52.2573 56.3308 52.416C55.9201 52.5653 55.4768 52.64 55.0008 52.64ZM52.3128 48.51H57.7028C57.6654 47.978 57.5208 47.5113 57.2688 47.11C57.0261 46.7087 56.7041 46.396 56.3028 46.172C55.9108 45.9387 55.4768 45.822 55.0008 45.822C54.5248 45.822 54.0908 45.9387 53.6988 46.172C53.3068 46.396 52.9848 46.7133 52.7328 47.124C52.4901 47.5253 52.3501 47.9873 52.3128 48.51ZM62.4616 52.64C61.8642 52.64 61.3089 52.542 60.7956 52.346C60.2822 52.15 59.8389 51.8513 59.4656 51.45L59.8576 50.778C60.2682 51.1607 60.6789 51.4407 61.0896 51.618C61.5096 51.786 61.9529 51.87 62.4196 51.87C62.9889 51.87 63.4509 51.758 63.8056 51.534C64.1602 51.3007 64.3376 50.9693 64.3376 50.54C64.3376 50.2507 64.2489 50.0313 64.0716 49.882C63.9036 49.7233 63.6562 49.5973 63.3296 49.504C63.0122 49.4013 62.6296 49.294 62.1816 49.182C61.6776 49.042 61.2529 48.8973 60.9076 48.748C60.5716 48.5893 60.3149 48.3933 60.1376 48.16C59.9696 47.9173 59.8856 47.6047 59.8856 47.222C59.8856 46.746 60.0022 46.354 60.2356 46.046C60.4782 45.7287 60.8049 45.4907 61.2156 45.332C61.6356 45.164 62.1022 45.08 62.6156 45.08C63.1756 45.08 63.6702 45.1687 64.0996 45.346C64.5289 45.5233 64.8789 45.7707 65.1496 46.088L64.6876 46.732C64.4262 46.4333 64.1136 46.214 63.7496 46.074C63.3949 45.9247 62.9982 45.85 62.5596 45.85C62.2609 45.85 61.9762 45.892 61.7056 45.976C61.4349 46.0507 61.2109 46.1813 61.0336 46.368C60.8656 46.5453 60.7816 46.7927 60.7816 47.11C60.7816 47.3713 60.8469 47.5767 60.9776 47.726C61.1082 47.866 61.3042 47.9873 61.5656 48.09C61.8269 48.1833 62.1489 48.286 62.5316 48.398C63.0822 48.5473 63.5629 48.7013 63.9736 48.86C64.3842 49.0093 64.7016 49.2053 64.9256 49.448C65.1496 49.6907 65.2616 50.0313 65.2616 50.47C65.2616 51.1513 65.0049 51.6833 64.4916 52.066C63.9782 52.4487 63.3016 52.64 62.4616 52.64ZM66.8352 52.5V45.206H67.7872V52.5H66.8352ZM66.8352 43.68V42.28H67.7872V43.68H66.8352ZM72.81 52.598C72.3153 52.598 71.858 52.4953 71.438 52.29C71.018 52.0847 70.654 51.8093 70.346 51.464C70.0473 51.1093 69.814 50.708 69.646 50.26C69.478 49.812 69.394 49.35 69.394 48.874C69.394 48.3607 69.4733 47.88 69.632 47.432C69.8 46.9747 70.0333 46.5687 70.332 46.214C70.64 45.8593 70.9993 45.584 71.41 45.388C71.8207 45.1827 72.278 45.08 72.782 45.08C73.4073 45.08 73.9487 45.2387 74.406 45.556C74.8727 45.8733 75.2647 46.2653 75.582 46.732V45.206H76.436V52.528C76.436 53.2 76.2727 53.7647 75.946 54.222C75.6287 54.6887 75.1947 55.0387 74.644 55.272C74.1027 55.5053 73.51 55.622 72.866 55.622C72.0353 55.622 71.3633 55.4727 70.85 55.174C70.3367 54.8753 69.9167 54.474 69.59 53.97L70.178 53.508C70.4673 53.9653 70.85 54.306 71.326 54.53C71.8113 54.754 72.3247 54.866 72.866 54.866C73.342 54.866 73.776 54.7773 74.168 54.6C74.5693 54.432 74.8867 54.1753 75.12 53.83C75.3627 53.4847 75.484 53.0507 75.484 52.528V51.086C75.204 51.5433 74.8213 51.912 74.336 52.192C73.8507 52.4627 73.342 52.598 72.81 52.598ZM73.076 51.8C73.3653 51.8 73.6407 51.7487 73.902 51.646C74.1727 51.5433 74.42 51.408 74.644 51.24C74.868 51.0627 75.0547 50.8667 75.204 50.652C75.3533 50.4373 75.4467 50.218 75.484 49.994V47.74C75.344 47.3853 75.1433 47.0727 74.882 46.802C74.6207 46.522 74.322 46.3073 73.986 46.158C73.6593 45.9993 73.3187 45.92 72.964 45.92C72.5533 45.92 72.1847 46.0087 71.858 46.186C71.5407 46.354 71.27 46.5827 71.046 46.872C70.8313 47.152 70.6633 47.4693 70.542 47.824C70.4207 48.1787 70.36 48.5333 70.36 48.888C70.36 49.28 70.43 49.6533 70.57 50.008C70.71 50.3533 70.9013 50.666 71.144 50.946C71.396 51.2167 71.6853 51.4267 72.012 51.576C72.348 51.7253 72.7027 51.8 73.076 51.8ZM84.6703 52.5H83.7183V48.426C83.7183 47.5673 83.5923 46.942 83.3403 46.55C83.0883 46.1487 82.6916 45.948 82.1503 45.948C81.7769 45.948 81.4083 46.0413 81.0443 46.228C80.6803 46.4053 80.3583 46.6527 80.0783 46.97C79.8076 47.278 79.6116 47.6327 79.4903 48.034V52.5H78.5383V45.206H79.4063V46.858C79.6023 46.5033 79.8589 46.1953 80.1763 45.934C80.4936 45.6633 80.8529 45.4533 81.2543 45.304C81.6556 45.1547 82.0709 45.08 82.5003 45.08C82.9016 45.08 83.2423 45.1547 83.5223 45.304C83.8023 45.4533 84.0263 45.668 84.1943 45.948C84.3623 46.2187 84.4836 46.55 84.5583 46.942C84.6329 47.3247 84.6703 47.754 84.6703 48.23V52.5ZM93.1073 42.56H93.9333L98.0633 52.5H97.0273L95.7393 49.392H91.2733L89.9993 52.5H88.9493L93.1073 42.56ZM95.5153 48.622L93.5133 43.708L91.4833 48.622H95.5153ZM99.3762 42.28H100.328V52.5C100.328 52.5 100.296 52.5 100.23 52.5C100.165 52.5 100.081 52.5 99.9782 52.5C99.8755 52.5 99.7682 52.5 99.6562 52.5C99.5535 52.5 99.4602 52.5 99.3762 52.5V42.28ZM105.641 52.64C105.119 52.64 104.633 52.542 104.185 52.346C103.737 52.1407 103.35 51.8653 103.023 51.52C102.697 51.1653 102.44 50.7593 102.253 50.302C102.076 49.8447 101.987 49.3547 101.987 48.832C101.987 48.1507 102.141 47.5253 102.449 46.956C102.767 46.3867 103.201 45.934 103.751 45.598C104.302 45.2527 104.927 45.08 105.627 45.08C106.346 45.08 106.971 45.2527 107.503 45.598C108.045 45.9433 108.469 46.4007 108.777 46.97C109.085 47.53 109.239 48.146 109.239 48.818C109.239 48.8927 109.239 48.9673 109.239 49.042C109.239 49.1073 109.235 49.1587 109.225 49.196H102.981C103.028 49.7187 103.173 50.1853 103.415 50.596C103.667 50.9973 103.989 51.3193 104.381 51.562C104.783 51.7953 105.217 51.912 105.683 51.912C106.159 51.912 106.607 51.7907 107.027 51.548C107.457 51.3053 107.755 50.988 107.923 50.596L108.749 50.82C108.6 51.1653 108.371 51.478 108.063 51.758C107.755 52.038 107.391 52.2573 106.971 52.416C106.561 52.5653 106.117 52.64 105.641 52.64ZM102.953 48.51H108.343C108.306 47.978 108.161 47.5113 107.909 47.11C107.667 46.7087 107.345 46.396 106.943 46.172C106.551 45.9387 106.117 45.822 105.641 45.822C105.165 45.822 104.731 45.9387 104.339 46.172C103.947 46.396 103.625 46.7133 103.373 47.124C103.131 47.5253 102.991 47.9873 102.953 48.51ZM114.348 46.046C113.714 46.0647 113.154 46.242 112.668 46.578C112.192 46.914 111.856 47.376 111.66 47.964V52.5H110.708V45.206H111.604V46.956C111.856 46.4427 112.188 46.0273 112.598 45.71C113.018 45.3927 113.462 45.2153 113.928 45.178C114.022 45.1687 114.101 45.164 114.166 45.164C114.241 45.164 114.302 45.1687 114.348 45.178V46.046ZM119.116 52.15C119.042 52.178 118.925 52.2293 118.766 52.304C118.608 52.3787 118.416 52.444 118.192 52.5C117.968 52.556 117.726 52.584 117.464 52.584C117.194 52.584 116.937 52.5327 116.694 52.43C116.461 52.3273 116.274 52.1733 116.134 51.968C115.994 51.7533 115.924 51.492 115.924 51.184V45.962H114.916V45.206H115.924V42.742H116.876V45.206H118.556V45.962H116.876V50.918C116.895 51.1793 116.988 51.3753 117.156 51.506C117.334 51.6367 117.534 51.702 117.758 51.702C118.02 51.702 118.258 51.66 118.472 51.576C118.687 51.4827 118.818 51.4173 118.864 51.38L119.116 52.15ZM122.7 52.64C122.103 52.64 121.547 52.542 121.034 52.346C120.521 52.15 120.077 51.8513 119.704 51.45L120.096 50.778C120.507 51.1607 120.917 51.4407 121.328 51.618C121.748 51.786 122.191 51.87 122.658 51.87C123.227 51.87 123.689 51.758 124.044 51.534C124.399 51.3007 124.576 50.9693 124.576 50.54C124.576 50.2507 124.487 50.0313 124.31 49.882C124.142 49.7233 123.895 49.5973 123.568 49.504C123.251 49.4013 122.868 49.294 122.42 49.182C121.916 49.042 121.491 48.8973 121.146 48.748C120.81 48.5893 120.553 48.3933 120.376 48.16C120.208 47.9173 120.124 47.6047 120.124 47.222C120.124 46.746 120.241 46.354 120.474 46.046C120.717 45.7287 121.043 45.4907 121.454 45.332C121.874 45.164 122.341 45.08 122.854 45.08C123.414 45.08 123.909 45.1687 124.338 45.346C124.767 45.5233 125.117 45.7707 125.388 46.088L124.926 46.732C124.665 46.4333 124.352 46.214 123.988 46.074C123.633 45.9247 123.237 45.85 122.798 45.85C122.499 45.85 122.215 45.892 121.944 45.976C121.673 46.0507 121.449 46.1813 121.272 46.368C121.104 46.5453 121.02 46.7927 121.02 47.11C121.02 47.3713 121.085 47.5767 121.216 47.726C121.347 47.866 121.543 47.9873 121.804 48.09C122.065 48.1833 122.387 48.286 122.77 48.398C123.321 48.5473 123.801 48.7013 124.212 48.86C124.623 49.0093 124.94 49.2053 125.164 49.448C125.388 49.6907 125.5 50.0313 125.5 50.47C125.5 51.1513 125.243 51.6833 124.73 52.066C124.217 52.4487 123.54 52.64 122.7 52.64Z" fill="#71717A"/>
<g filter="url(#filter0_dd_630_4214)">
<path d="M47.7769 8C47.7769 4.68629 50.4631 2 53.7769 2H210C213.314 2 216 4.68629 216 8V36C216 39.3137 213.314 42 210 42H53.7769C50.4631 42 47.7769 39.3137 47.7769 36V8Z" fill="#EF4343" shape-rendering="crispEdges"/>
<path d="M65.0229 26.5V16.56H68.3969C69.4515 16.56 70.3289 16.784 71.0289 17.232C71.7382 17.6707 72.2702 18.268 72.6249 19.024C72.9795 19.7707 73.1569 20.6013 73.1569 21.516C73.1569 22.524 72.9609 23.4013 72.5689 24.148C72.1862 24.8947 71.6355 25.4733 70.9169 25.884C70.2075 26.2947 69.3675 26.5 68.3969 26.5H65.0229ZM72.1769 21.516C72.1769 20.7227 72.0275 20.018 71.7289 19.402C71.4395 18.786 71.0149 18.3053 70.4549 17.96C69.8949 17.6053 69.2089 17.428 68.3969 17.428H66.0029V25.632H68.3969C69.2182 25.632 69.9089 25.45 70.4689 25.086C71.0289 24.722 71.4535 24.232 71.7429 23.616C72.0322 22.9907 72.1769 22.2907 72.1769 21.516ZM77.9847 26.64C77.462 26.64 76.9767 26.542 76.5287 26.346C76.0807 26.1407 75.6933 25.8653 75.3667 25.52C75.04 25.1653 74.7833 24.7593 74.5967 24.302C74.4193 23.8447 74.3307 23.3547 74.3307 22.832C74.3307 22.1507 74.4847 21.5253 74.7927 20.956C75.11 20.3867 75.544 19.934 76.0947 19.598C76.6453 19.2527 77.2707 19.08 77.9707 19.08C78.6893 19.08 79.3147 19.2527 79.8467 19.598C80.388 19.9433 80.8127 20.4007 81.1207 20.97C81.4287 21.53 81.5827 22.146 81.5827 22.818C81.5827 22.8927 81.5827 22.9673 81.5827 23.042C81.5827 23.1073 81.578 23.1587 81.5687 23.196H75.3247C75.3713 23.7187 75.516 24.1853 75.7587 24.596C76.0107 24.9973 76.3327 25.3193 76.7247 25.562C77.126 25.7953 77.56 25.912 78.0267 25.912C78.5027 25.912 78.9507 25.7907 79.3707 25.548C79.8 25.3053 80.0987 24.988 80.2667 24.596L81.0927 24.82C80.9433 25.1653 80.7147 25.478 80.4067 25.758C80.0987 26.038 79.7347 26.2573 79.3147 26.416C78.904 26.5653 78.4607 26.64 77.9847 26.64ZM75.2967 22.51H80.6867C80.6493 21.978 80.5047 21.5113 80.2527 21.11C80.01 20.7087 79.688 20.396 79.2867 20.172C78.8947 19.9387 78.4607 19.822 77.9847 19.822C77.5087 19.822 77.0747 19.9387 76.6827 20.172C76.2907 20.396 75.9687 20.7133 75.7167 21.124C75.474 21.5253 75.334 21.9873 75.2967 22.51ZM85.4455 26.64C84.8481 26.64 84.2928 26.542 83.7795 26.346C83.2661 26.15 82.8228 25.8513 82.4495 25.45L82.8415 24.778C83.2521 25.1607 83.6628 25.4407 84.0735 25.618C84.4935 25.786 84.9368 25.87 85.4035 25.87C85.9728 25.87 86.4348 25.758 86.7895 25.534C87.1441 25.3007 87.3215 24.9693 87.3215 24.54C87.3215 24.2507 87.2328 24.0313 87.0555 23.882C86.8875 23.7233 86.6401 23.5973 86.3135 23.504C85.9961 23.4013 85.6135 23.294 85.1655 23.182C84.6615 23.042 84.2368 22.8973 83.8915 22.748C83.5555 22.5893 83.2988 22.3933 83.1215 22.16C82.9535 21.9173 82.8695 21.6047 82.8695 21.222C82.8695 20.746 82.9861 20.354 83.2195 20.046C83.4621 19.7287 83.7888 19.4907 84.1995 19.332C84.6195 19.164 85.0861 19.08 85.5995 19.08C86.1595 19.08 86.6541 19.1687 87.0835 19.346C87.5128 19.5233 87.8628 19.7707 88.1335 20.088L87.6715 20.732C87.4101 20.4333 87.0975 20.214 86.7335 20.074C86.3788 19.9247 85.9821 19.85 85.5435 19.85C85.2448 19.85 84.9601 19.892 84.6895 19.976C84.4188 20.0507 84.1948 20.1813 84.0175 20.368C83.8495 20.5453 83.7655 20.7927 83.7655 21.11C83.7655 21.3713 83.8308 21.5767 83.9615 21.726C84.0921 21.866 84.2881 21.9873 84.5495 22.09C84.8108 22.1833 85.1328 22.286 85.5155 22.398C86.0661 22.5473 86.5468 22.7013 86.9575 22.86C87.3681 23.0093 87.6855 23.2053 87.9095 23.448C88.1335 23.6907 88.2455 24.0313 88.2455 24.47C88.2455 25.1513 87.9888 25.6833 87.4755 26.066C86.9621 26.4487 86.2855 26.64 85.4455 26.64ZM89.819 26.5V19.206H90.771V26.5H89.819ZM89.819 17.68V16.28H90.771V17.68H89.819ZM95.7939 26.598C95.2992 26.598 94.8419 26.4953 94.4219 26.29C94.0019 26.0847 93.6379 25.8093 93.3299 25.464C93.0312 25.1093 92.7979 24.708 92.6299 24.26C92.4619 23.812 92.3779 23.35 92.3779 22.874C92.3779 22.3607 92.4572 21.88 92.6159 21.432C92.7839 20.9747 93.0172 20.5687 93.3159 20.214C93.6239 19.8593 93.9832 19.584 94.3939 19.388C94.8045 19.1827 95.2619 19.08 95.7659 19.08C96.3912 19.08 96.9325 19.2387 97.3899 19.556C97.8565 19.8733 98.2485 20.2653 98.5659 20.732V19.206H99.4199V26.528C99.4199 27.2 99.2565 27.7647 98.9299 28.222C98.6125 28.6887 98.1785 29.0387 97.6279 29.272C97.0865 29.5053 96.4939 29.622 95.8499 29.622C95.0192 29.622 94.3472 29.4727 93.8339 29.174C93.3205 28.8753 92.9005 28.474 92.5739 27.97L93.1619 27.508C93.4512 27.9653 93.8339 28.306 94.3099 28.53C94.7952 28.754 95.3085 28.866 95.8499 28.866C96.3259 28.866 96.7599 28.7773 97.1519 28.6C97.5532 28.432 97.8705 28.1753 98.1039 27.83C98.3465 27.4847 98.4679 27.0507 98.4679 26.528V25.086C98.1879 25.5433 97.8052 25.912 97.3199 26.192C96.8345 26.4627 96.3259 26.598 95.7939 26.598ZM96.0599 25.8C96.3492 25.8 96.6245 25.7487 96.8859 25.646C97.1565 25.5433 97.4039 25.408 97.6279 25.24C97.8519 25.0627 98.0385 24.8667 98.1879 24.652C98.3372 24.4373 98.4305 24.218 98.4679 23.994V21.74C98.3279 21.3853 98.1272 21.0727 97.8659 20.802C97.6045 20.522 97.3059 20.3073 96.9699 20.158C96.6432 19.9993 96.3025 19.92 95.9479 19.92C95.5372 19.92 95.1685 20.0087 94.8419 20.186C94.5245 20.354 94.2539 20.5827 94.0299 20.872C93.8152 21.152 93.6472 21.4693 93.5259 21.824C93.4045 22.1787 93.3439 22.5333 93.3439 22.888C93.3439 23.28 93.4139 23.6533 93.5539 24.008C93.6939 24.3533 93.8852 24.666 94.1279 24.946C94.3799 25.2167 94.6692 25.4267 94.9959 25.576C95.3319 25.7253 95.6865 25.8 96.0599 25.8ZM107.654 26.5H106.702V22.426C106.702 21.5673 106.576 20.942 106.324 20.55C106.072 20.1487 105.676 19.948 105.134 19.948C104.761 19.948 104.392 20.0413 104.028 20.228C103.664 20.4053 103.342 20.6527 103.062 20.97C102.792 21.278 102.596 21.6327 102.474 22.034V26.5H101.522V19.206H102.39V20.858C102.586 20.5033 102.843 20.1953 103.16 19.934C103.478 19.6633 103.837 19.4533 104.238 19.304C104.64 19.1547 105.055 19.08 105.484 19.08C105.886 19.08 106.226 19.1547 106.506 19.304C106.786 19.4533 107.01 19.668 107.178 19.948C107.346 20.2187 107.468 20.55 107.542 20.942C107.617 21.3247 107.654 21.754 107.654 22.23V26.5ZM116.091 16.56H116.917L121.047 26.5H120.011L118.723 23.392H114.257L112.983 26.5H111.933L116.091 16.56ZM118.499 22.622L116.497 17.708L114.467 22.622H118.499ZM122.36 16.28H123.312V26.5C123.312 26.5 123.279 26.5 123.214 26.5C123.149 26.5 123.065 26.5 122.962 26.5C122.859 26.5 122.752 26.5 122.64 26.5C122.537 26.5 122.444 26.5 122.36 26.5V16.28ZM128.625 26.64C128.103 26.64 127.617 26.542 127.169 26.346C126.721 26.1407 126.334 25.8653 126.007 25.52C125.681 25.1653 125.424 24.7593 125.237 24.302C125.06 23.8447 124.971 23.3547 124.971 22.832C124.971 22.1507 125.125 21.5253 125.433 20.956C125.751 20.3867 126.185 19.934 126.735 19.598C127.286 19.2527 127.911 19.08 128.611 19.08C129.33 19.08 129.955 19.2527 130.487 19.598C131.029 19.9433 131.453 20.4007 131.761 20.97C132.069 21.53 132.223 22.146 132.223 22.818C132.223 22.8927 132.223 22.9673 132.223 23.042C132.223 23.1073 132.219 23.1587 132.209 23.196H125.965C126.012 23.7187 126.157 24.1853 126.399 24.596C126.651 24.9973 126.973 25.3193 127.365 25.562C127.767 25.7953 128.201 25.912 128.667 25.912C129.143 25.912 129.591 25.7907 130.011 25.548C130.441 25.3053 130.739 24.988 130.907 24.596L131.733 24.82C131.584 25.1653 131.355 25.478 131.047 25.758C130.739 26.038 130.375 26.2573 129.955 26.416C129.545 26.5653 129.101 26.64 128.625 26.64ZM125.937 22.51H131.327C131.29 21.978 131.145 21.5113 130.893 21.11C130.651 20.7087 130.329 20.396 129.927 20.172C129.535 19.9387 129.101 19.822 128.625 19.822C128.149 19.822 127.715 19.9387 127.323 20.172C126.931 20.396 126.609 20.7133 126.357 21.124C126.115 21.5253 125.975 21.9873 125.937 22.51ZM137.332 20.046C136.697 20.0647 136.137 20.242 135.652 20.578C135.176 20.914 134.84 21.376 134.644 21.964V26.5H133.692V19.206H134.588V20.956C134.84 20.4427 135.171 20.0273 135.582 19.71C136.002 19.3927 136.445 19.2153 136.912 19.178C137.005 19.1687 137.085 19.164 137.15 19.164C137.225 19.164 137.285 19.1687 137.332 19.178V20.046ZM142.1 26.15C142.026 26.178 141.909 26.2293 141.75 26.304C141.592 26.3787 141.4 26.444 141.176 26.5C140.952 26.556 140.71 26.584 140.448 26.584C140.178 26.584 139.921 26.5327 139.678 26.43C139.445 26.3273 139.258 26.1733 139.118 25.968C138.978 25.7533 138.908 25.492 138.908 25.184V19.962H137.9V19.206H138.908V16.742H139.86V19.206H141.54V19.962H139.86V24.918C139.879 25.1793 139.972 25.3753 140.14 25.506C140.318 25.6367 140.518 25.702 140.742 25.702C141.004 25.702 141.242 25.66 141.456 25.576C141.671 25.4827 141.802 25.4173 141.848 25.38L142.1 26.15ZM145.684 26.64C145.086 26.64 144.531 26.542 144.018 26.346C143.504 26.15 143.061 25.8513 142.688 25.45L143.08 24.778C143.49 25.1607 143.901 25.4407 144.312 25.618C144.732 25.786 145.175 25.87 145.642 25.87C146.211 25.87 146.673 25.758 147.028 25.534C147.382 25.3007 147.56 24.9693 147.56 24.54C147.56 24.2507 147.471 24.0313 147.294 23.882C147.126 23.7233 146.878 23.5973 146.552 23.504C146.234 23.4013 145.852 23.294 145.404 23.182C144.9 23.042 144.475 22.8973 144.13 22.748C143.794 22.5893 143.537 22.3933 143.36 22.16C143.192 21.9173 143.108 21.6047 143.108 21.222C143.108 20.746 143.224 20.354 143.458 20.046C143.7 19.7287 144.027 19.4907 144.438 19.332C144.858 19.164 145.324 19.08 145.838 19.08C146.398 19.08 146.892 19.1687 147.322 19.346C147.751 19.5233 148.101 19.7707 148.372 20.088L147.91 20.732C147.648 20.4333 147.336 20.214 146.972 20.074C146.617 19.9247 146.22 19.85 145.782 19.85C145.483 19.85 145.198 19.892 144.928 19.976C144.657 20.0507 144.433 20.1813 144.256 20.368C144.088 20.5453 144.004 20.7927 144.004 21.11C144.004 21.3713 144.069 21.5767 144.2 21.726C144.33 21.866 144.526 21.9873 144.788 22.09C145.049 22.1833 145.371 22.286 145.754 22.398C146.304 22.5473 146.785 22.7013 147.196 22.86C147.606 23.0093 147.924 23.2053 148.148 23.448C148.372 23.6907 148.484 24.0313 148.484 24.47C148.484 25.1513 148.227 25.6833 147.714 26.066C147.2 26.4487 146.524 26.64 145.684 26.64Z" fill="#FAFAFA"/>
</g>
<defs>
<filter id="filter0_dd_630_4214" x="44.7769" y="0" width="174.223" height="46" filterUnits="userSpaceOnUse" color-interpolation-filters="sRGB">
<feFlood flood-opacity="0" result="BackgroundImageFix"/>
<feColorMatrix in="SourceAlpha" type="matrix" values="0 0 0 0 0 0 0 0 0 0 0 0 0 0 0 0 0 0 127 0" result="hardAlpha"/>
<feOffset dy="1"/>
<feGaussianBlur stdDeviation="1.5"/>
<feComposite in2="hardAlpha" operator="out"/>
<feColorMatrix type="matrix" values="0 0 0 0 0 0 0 0 0 0 0 0 0 0 0 0 0 0 0.1 0"/>
<feBlend mode="normal" in2="BackgroundImageFix" result="effect1_dropShadow_630_4214"/>
<feColorMatrix in="SourceAlpha" type="matrix" values="0 0 0 0 0 0 0 0 0 0 0 0 0 0 0 0 0 0 127 0" result="hardAlpha"/>
<feOffset dy="1"/>
<feGaussianBlur stdDeviation="1"/>
<feComposite in2="hardAlpha" operator="out"/>
<feColorMatrix type="matrix" values="0 0 0 0 0 0 0 0 0 0 0 0 0 0 0 0 0 0 0.1 0"/>
<feBlend mode="normal" in2="effect1_dropShadow_630_4214" result="effect2_dropShadow_630_4214"/>
<feBlend mode="normal" in="SourceGraphic" in2="effect2_dropShadow_630_4214" result="shape"/>
</filter>
</defs>
</svg>
