<svg width="216" height="80" viewBox="0 0 216 80" fill="none" xmlns="http://www.w3.org/2000/svg">
<mask id="path-1-inside-1_1947_5899" fill="white">
<path d="M0 0H216V40H0V0Z"/>
</mask>
<path d="M216 39H0V41H216V39Z" fill="#E4E4E7" mask="url(#path-1-inside-1_1947_5899)"/>
<path d="M4.326 14.56H5.152L9.282 24.5H8.246L6.958 21.392H2.492L1.218 24.5H0.168L4.326 14.56ZM6.734 20.622L4.732 15.708L2.702 20.622H6.734ZM13.4699 24.64C12.9379 24.64 12.4479 24.542 11.9999 24.346C11.5612 24.1407 11.1739 23.8607 10.8379 23.506C10.5112 23.1513 10.2545 22.7453 10.0679 22.288C9.89053 21.8307 9.80186 21.3453 9.80186 20.832C9.80186 20.1413 9.95586 19.5113 10.2639 18.942C10.5719 18.3727 11.0012 17.92 11.5519 17.584C12.1025 17.248 12.7372 17.08 13.4559 17.08C14.1372 17.08 14.7392 17.2387 15.2619 17.556C15.7845 17.864 16.1719 18.284 16.4239 18.816L15.4999 19.11C15.2945 18.7367 15.0052 18.4473 14.6319 18.242C14.2679 18.0273 13.8619 17.92 13.4139 17.92C12.9285 17.92 12.4852 18.046 12.0839 18.298C11.6825 18.55 11.3605 18.8953 11.1179 19.334C10.8845 19.7727 10.7679 20.272 10.7679 20.832C10.7679 21.3827 10.8892 21.882 11.1319 22.33C11.3745 22.778 11.6965 23.1373 12.0979 23.408C12.4992 23.6693 12.9425 23.8 13.4279 23.8C13.7452 23.8 14.0485 23.744 14.3379 23.632C14.6365 23.52 14.8932 23.3707 15.1079 23.184C15.3319 22.988 15.4812 22.778 15.5559 22.554L16.4939 22.834C16.3632 23.1793 16.1439 23.492 15.8359 23.772C15.5372 24.0427 15.1825 24.2573 14.7719 24.416C14.3705 24.5653 13.9365 24.64 13.4699 24.64ZM21.0851 24.64C20.5531 24.64 20.0631 24.542 19.6151 24.346C19.1764 24.1407 18.7891 23.8607 18.4531 23.506C18.1264 23.1513 17.8698 22.7453 17.6831 22.288C17.5058 21.8307 17.4171 21.3453 17.4171 20.832C17.4171 20.1413 17.5711 19.5113 17.8791 18.942C18.1871 18.3727 18.6164 17.92 19.1671 17.584C19.7178 17.248 20.3524 17.08 21.0711 17.08C21.7524 17.08 22.3544 17.2387 22.8771 17.556C23.3998 17.864 23.7871 18.284 24.0391 18.816L23.1151 19.11C22.9098 18.7367 22.6204 18.4473 22.2471 18.242C21.8831 18.0273 21.4771 17.92 21.0291 17.92C20.5438 17.92 20.1004 18.046 19.6991 18.298C19.2978 18.55 18.9758 18.8953 18.7331 19.334C18.4998 19.7727 18.3831 20.272 18.3831 20.832C18.3831 21.3827 18.5044 21.882 18.7471 22.33C18.9898 22.778 19.3118 23.1373 19.7131 23.408C20.1144 23.6693 20.5578 23.8 21.0431 23.8C21.3604 23.8 21.6638 23.744 21.9531 23.632C22.2518 23.52 22.5084 23.3707 22.7231 23.184C22.9471 22.988 23.0964 22.778 23.1711 22.554L24.1091 22.834C23.9784 23.1793 23.7591 23.492 23.4511 23.772C23.1524 24.0427 22.7978 24.2573 22.3871 24.416C21.9858 24.5653 21.5518 24.64 21.0851 24.64ZM28.6443 24.64C28.1217 24.64 27.6363 24.542 27.1883 24.346C26.7497 24.1407 26.367 23.8653 26.0403 23.52C25.723 23.1653 25.4757 22.764 25.2983 22.316C25.121 21.8587 25.0323 21.378 25.0323 20.874C25.0323 20.3513 25.121 19.866 25.2983 19.418C25.4757 18.9607 25.7277 18.5593 26.0543 18.214C26.381 17.8593 26.7637 17.584 27.2023 17.388C27.6503 17.1827 28.1357 17.08 28.6583 17.08C29.181 17.08 29.6617 17.1827 30.1003 17.388C30.539 17.584 30.9217 17.8593 31.2483 18.214C31.575 18.5593 31.827 18.9607 32.0043 19.418C32.1817 19.866 32.2703 20.3513 32.2703 20.874C32.2703 21.378 32.1817 21.8587 32.0043 22.316C31.827 22.764 31.575 23.1653 31.2483 23.52C30.931 23.8653 30.5483 24.1407 30.1003 24.346C29.6617 24.542 29.1763 24.64 28.6443 24.64ZM25.9983 20.888C25.9983 21.4293 26.115 21.924 26.3483 22.372C26.591 22.8107 26.913 23.1607 27.3143 23.422C27.7157 23.674 28.159 23.8 28.6443 23.8C29.1297 23.8 29.573 23.6693 29.9743 23.408C30.3757 23.1467 30.6977 22.792 30.9403 22.344C31.183 21.8867 31.3043 21.392 31.3043 20.86C31.3043 20.3187 31.183 19.824 30.9403 19.376C30.6977 18.928 30.3757 18.5733 29.9743 18.312C29.573 18.0507 29.1297 17.92 28.6443 17.92C28.159 17.92 27.7157 18.0553 27.3143 18.326C26.9223 18.5967 26.605 18.956 26.3623 19.404C26.1197 19.8427 25.9983 20.3373 25.9983 20.888ZM37.5025 18.046C36.8678 18.0647 36.3078 18.242 35.8225 18.578C35.3465 18.914 35.0105 19.376 34.8145 19.964V24.5H33.8625V17.206H34.7585V18.956C35.0105 18.4427 35.3418 18.0273 35.7525 17.71C36.1725 17.3927 36.6158 17.2153 37.0825 17.178C37.1758 17.1687 37.2552 17.164 37.3205 17.164C37.3952 17.164 37.4558 17.1687 37.5025 17.178V18.046ZM44.1656 24.5V23.142C43.895 23.59 43.5263 23.954 43.0596 24.234C42.593 24.5047 42.0936 24.64 41.5616 24.64C41.0576 24.64 40.591 24.5373 40.1616 24.332C39.7416 24.1267 39.373 23.8467 39.0556 23.492C38.7476 23.1373 38.505 22.736 38.3276 22.288C38.1596 21.8307 38.0756 21.3593 38.0756 20.874C38.0756 20.1833 38.2156 19.5533 38.4956 18.984C38.785 18.4053 39.1816 17.9433 39.6856 17.598C40.1896 17.2527 40.759 17.08 41.3936 17.08C42.0096 17.08 42.551 17.2433 43.0176 17.57C43.4843 17.8873 43.867 18.2747 44.1656 18.732V14.28H45.1176V24.5H44.1656ZM44.1656 19.74C44.0443 19.3947 43.8483 19.0867 43.5776 18.816C43.307 18.536 42.999 18.3167 42.6536 18.158C42.3176 17.9993 41.9816 17.92 41.6456 17.92C41.2536 17.92 40.899 18.004 40.5816 18.172C40.2643 18.3307 39.989 18.5547 39.7556 18.844C39.5316 19.124 39.359 19.4413 39.2376 19.796C39.1163 20.1413 39.0556 20.5007 39.0556 20.874C39.0556 21.266 39.121 21.6393 39.2516 21.994C39.3916 22.3487 39.5876 22.666 39.8396 22.946C40.0916 23.2167 40.381 23.4267 40.7076 23.576C41.0343 23.7253 41.389 23.8 41.7716 23.8C42.0143 23.8 42.2663 23.7533 42.5276 23.66C42.7983 23.5667 43.0503 23.4407 43.2836 23.282C43.5263 23.114 43.727 22.918 43.8856 22.694C44.0443 22.47 44.1376 22.2367 44.1656 21.994V19.74ZM47.2199 24.5V17.206H48.1719V24.5H47.2199ZM47.2199 15.68V14.28H48.1719V15.68H47.2199ZM53.3768 24.64C52.8541 24.64 52.3688 24.542 51.9208 24.346C51.4821 24.1407 51.0994 23.8653 50.7728 23.52C50.4554 23.1653 50.2081 22.764 50.0308 22.316C49.8534 21.8587 49.7648 21.378 49.7648 20.874C49.7648 20.3513 49.8534 19.866 50.0308 19.418C50.2081 18.9607 50.4601 18.5593 50.7868 18.214C51.1134 17.8593 51.4961 17.584 51.9348 17.388C52.3828 17.1827 52.8681 17.08 53.3908 17.08C53.9134 17.08 54.3941 17.1827 54.8328 17.388C55.2714 17.584 55.6541 17.8593 55.9808 18.214C56.3074 18.5593 56.5594 18.9607 56.7368 19.418C56.9141 19.866 57.0028 20.3513 57.0028 20.874C57.0028 21.378 56.9141 21.8587 56.7368 22.316C56.5594 22.764 56.3074 23.1653 55.9808 23.52C55.6634 23.8653 55.2808 24.1407 54.8328 24.346C54.3941 24.542 53.9088 24.64 53.3768 24.64ZM50.7308 20.888C50.7308 21.4293 50.8474 21.924 51.0808 22.372C51.3234 22.8107 51.6454 23.1607 52.0468 23.422C52.4481 23.674 52.8914 23.8 53.3768 23.8C53.8621 23.8 54.3054 23.6693 54.7068 23.408C55.1081 23.1467 55.4301 22.792 55.6728 22.344C55.9154 21.8867 56.0368 21.392 56.0368 20.86C56.0368 20.3187 55.9154 19.824 55.6728 19.376C55.4301 18.928 55.1081 18.5733 54.7068 18.312C54.3054 18.0507 53.8621 17.92 53.3768 17.92C52.8914 17.92 52.4481 18.0553 52.0468 18.326C51.6548 18.5967 51.3374 18.956 51.0948 19.404C50.8521 19.8427 50.7308 20.3373 50.7308 20.888ZM64.7269 24.5H63.7749V20.426C63.7749 19.5673 63.6489 18.942 63.3969 18.55C63.1449 18.1487 62.7483 17.948 62.2069 17.948C61.8336 17.948 61.4649 18.0413 61.1009 18.228C60.7369 18.4053 60.4149 18.6527 60.1349 18.97C59.8643 19.278 59.6683 19.6327 59.5469 20.034V24.5H58.5949V17.206H59.4629V18.858C59.6589 18.5033 59.9156 18.1953 60.2329 17.934C60.5503 17.6633 60.9096 17.4533 61.3109 17.304C61.7123 17.1547 62.1276 17.08 62.5569 17.08C62.9583 17.08 63.2989 17.1547 63.5789 17.304C63.8589 17.4533 64.0829 17.668 64.2509 17.948C64.4189 18.2187 64.5403 18.55 64.6149 18.942C64.6896 19.3247 64.7269 19.754 64.7269 20.23V24.5Z" fill="#09090B"/>
<path d="M204 18L208 22L212 18" stroke="#71717A" stroke-width="2" stroke-linecap="round" stroke-linejoin="round"/>
<mask id="path-5-inside-2_1947_5899" fill="white">
<path d="M0 40H216V80H0V40Z"/>
</mask>
<path d="M216 79H0V81H216V79Z" fill="#E4E4E7" mask="url(#path-5-inside-2_1947_5899)"/>
<path d="M1.246 64.5V54.56H2.226V63.632H7.966V64.5H1.246ZM12.198 64.64C11.6754 64.64 11.19 64.542 10.742 64.346C10.294 64.1407 9.90671 63.8653 9.58005 63.52C9.25338 63.1653 8.99671 62.7593 8.81005 62.302C8.63271 61.8447 8.54405 61.3547 8.54405 60.832C8.54405 60.1507 8.69805 59.5253 9.00605 58.956C9.32338 58.3867 9.75738 57.934 10.308 57.598C10.8587 57.2527 11.484 57.08 12.184 57.08C12.9027 57.08 13.528 57.2527 14.06 57.598C14.6014 57.9433 15.026 58.4007 15.334 58.97C15.642 59.53 15.796 60.146 15.796 60.818C15.796 60.8927 15.796 60.9673 15.796 61.042C15.796 61.1073 15.7914 61.1587 15.782 61.196H9.53805C9.58471 61.7187 9.72938 62.1853 9.97205 62.596C10.224 62.9973 10.546 63.3193 10.938 63.562C11.3394 63.7953 11.7734 63.912 12.24 63.912C12.716 63.912 13.164 63.7907 13.584 63.548C14.0134 63.3053 14.312 62.988 14.48 62.596L15.306 62.82C15.1567 63.1653 14.928 63.478 14.62 63.758C14.312 64.038 13.948 64.2573 13.528 64.416C13.1174 64.5653 12.674 64.64 12.198 64.64ZM9.51005 60.51H14.9C14.8627 59.978 14.718 59.5113 14.466 59.11C14.2234 58.7087 13.9014 58.396 13.5 58.172C13.108 57.9387 12.674 57.822 12.198 57.822C11.722 57.822 11.288 57.9387 10.896 58.172C10.504 58.396 10.182 58.7133 9.93005 59.124C9.68738 59.5253 9.54738 59.9873 9.51005 60.51ZM21.9268 64.5V63.352C21.5908 63.8 21.1708 64.1267 20.6668 64.332C20.1628 64.5373 19.6402 64.64 19.0988 64.64C18.6415 64.64 18.2308 64.542 17.8668 64.346C17.5028 64.1407 17.2135 63.87 16.9988 63.534C16.7842 63.1887 16.6768 62.8013 16.6768 62.372C16.6768 61.9893 16.7655 61.658 16.9428 61.378C17.1295 61.098 17.3675 60.8693 17.6568 60.692C17.9555 60.5147 18.2868 60.384 18.6508 60.3C19.0148 60.216 19.3742 60.174 19.7288 60.174C20.2328 60.174 20.6715 60.216 21.0448 60.3C21.4182 60.384 21.6982 60.468 21.8848 60.552V59.894C21.8848 59.2687 21.7028 58.7647 21.3388 58.382C20.9748 57.99 20.4708 57.794 19.8268 57.794C19.4628 57.794 19.0848 57.8687 18.6928 58.018C18.3008 58.1673 17.8995 58.382 17.4888 58.662L17.1528 58.032C17.5635 57.7613 17.9975 57.5373 18.4548 57.36C18.9215 57.1733 19.4068 57.08 19.9108 57.08C20.5455 57.08 21.0775 57.2013 21.5068 57.444C21.9455 57.6867 22.2768 58.0273 22.5008 58.466C22.7248 58.9047 22.8368 59.4087 22.8368 59.978V64.5H21.9268ZM21.6468 62.89C21.8055 62.694 21.8848 62.512 21.8848 62.344V61.154C21.5582 61.0233 21.2222 60.93 20.8768 60.874C20.5315 60.8087 20.1908 60.776 19.8548 60.776C19.6028 60.776 19.3415 60.804 19.0708 60.86C18.8002 60.916 18.5528 61.0047 18.3288 61.126C18.1048 61.2473 17.9228 61.406 17.7828 61.602C17.6522 61.798 17.5868 62.0313 17.5868 62.302C17.5868 62.6193 17.6662 62.8993 17.8248 63.142C17.9928 63.3847 18.2075 63.576 18.4688 63.716C18.7395 63.8467 19.0242 63.912 19.3228 63.912C19.6028 63.912 19.8922 63.8747 20.1908 63.8C20.4895 63.7253 20.7648 63.6133 21.0168 63.464C21.2782 63.3147 21.4882 63.1233 21.6468 62.89ZM28.4927 58.046C27.8581 58.0647 27.2981 58.242 26.8127 58.578C26.3367 58.914 26.0007 59.376 25.8047 59.964V64.5H24.8527V57.206H25.7487V58.956C26.0007 58.4427 26.3321 58.0273 26.7427 57.71C27.1627 57.3927 27.6061 57.2153 28.0727 57.178C28.1661 57.1687 28.2454 57.164 28.3107 57.164C28.3854 57.164 28.4461 57.1687 28.4927 57.178V58.046ZM35.8929 64.5H34.9409V60.426C34.9409 59.5673 34.8149 58.942 34.5629 58.55C34.3109 58.1487 33.9143 57.948 33.3729 57.948C32.9996 57.948 32.6309 58.0413 32.2669 58.228C31.9029 58.4053 31.5809 58.6527 31.3009 58.97C31.0303 59.278 30.8343 59.6327 30.7129 60.034V64.5H29.7609V57.206H30.6289V58.858C30.8249 58.5033 31.0816 58.1953 31.3989 57.934C31.7163 57.6633 32.0756 57.4533 32.4769 57.304C32.8783 57.1547 33.2936 57.08 33.7229 57.08C34.1243 57.08 34.4649 57.1547 34.7449 57.304C35.0249 57.4533 35.2489 57.668 35.4169 57.948C35.5849 58.2187 35.7063 58.55 35.7809 58.942C35.8556 59.3247 35.8929 59.754 35.8929 60.23V64.5ZM50.4934 64.5V56.408L46.8954 62.694H46.2794L42.6674 56.408V64.5H41.6874V54.56H42.6954L46.5734 61.364L50.4794 54.56H51.4734V64.5H50.4934ZM56.7674 64.64C56.2447 64.64 55.7594 64.542 55.3114 64.346C54.8727 64.1407 54.49 63.8653 54.1634 63.52C53.846 63.1653 53.5987 62.764 53.4214 62.316C53.244 61.8587 53.1554 61.378 53.1554 60.874C53.1554 60.3513 53.244 59.866 53.4214 59.418C53.5987 58.9607 53.8507 58.5593 54.1774 58.214C54.504 57.8593 54.8867 57.584 55.3254 57.388C55.7734 57.1827 56.2587 57.08 56.7814 57.08C57.304 57.08 57.7847 57.1827 58.2234 57.388C58.662 57.584 59.0447 57.8593 59.3714 58.214C59.698 58.5593 59.95 58.9607 60.1274 59.418C60.3047 59.866 60.3934 60.3513 60.3934 60.874C60.3934 61.378 60.3047 61.8587 60.1274 62.316C59.95 62.764 59.698 63.1653 59.3714 63.52C59.054 63.8653 58.6714 64.1407 58.2234 64.346C57.7847 64.542 57.2994 64.64 56.7674 64.64ZM54.1214 60.888C54.1214 61.4293 54.238 61.924 54.4714 62.372C54.714 62.8107 55.036 63.1607 55.4374 63.422C55.8387 63.674 56.282 63.8 56.7674 63.8C57.2527 63.8 57.696 63.6693 58.0974 63.408C58.4987 63.1467 58.8207 62.792 59.0634 62.344C59.306 61.8867 59.4274 61.392 59.4274 60.86C59.4274 60.3187 59.306 59.824 59.0634 59.376C58.8207 58.928 58.4987 58.5733 58.0974 58.312C57.696 58.0507 57.2527 57.92 56.7674 57.92C56.282 57.92 55.8387 58.0553 55.4374 58.326C55.0454 58.5967 54.728 58.956 54.4854 59.404C54.2427 59.8427 54.1214 60.3373 54.1214 60.888ZM65.6255 58.046C64.9909 58.0647 64.4309 58.242 63.9455 58.578C63.4695 58.914 63.1335 59.376 62.9375 59.964V64.5H61.9855V57.206H62.8815V58.956C63.1335 58.4427 63.4649 58.0273 63.8755 57.71C64.2955 57.3927 64.7389 57.2153 65.2055 57.178C65.2989 57.1687 65.3782 57.164 65.4435 57.164C65.5182 57.164 65.5789 57.1687 65.6255 57.178V58.046ZM69.8113 64.64C69.2887 64.64 68.8033 64.542 68.3553 64.346C67.9073 64.1407 67.52 63.8653 67.1933 63.52C66.8667 63.1653 66.61 62.7593 66.4233 62.302C66.246 61.8447 66.1573 61.3547 66.1573 60.832C66.1573 60.1507 66.3113 59.5253 66.6193 58.956C66.9367 58.3867 67.3707 57.934 67.9213 57.598C68.472 57.2527 69.0973 57.08 69.7973 57.08C70.516 57.08 71.1413 57.2527 71.6733 57.598C72.2147 57.9433 72.6393 58.4007 72.9473 58.97C73.2553 59.53 73.4093 60.146 73.4093 60.818C73.4093 60.8927 73.4093 60.9673 73.4093 61.042C73.4093 61.1073 73.4047 61.1587 73.3953 61.196H67.1513C67.198 61.7187 67.3427 62.1853 67.5853 62.596C67.8373 62.9973 68.1593 63.3193 68.5513 63.562C68.9527 63.7953 69.3867 63.912 69.8533 63.912C70.3293 63.912 70.7773 63.7907 71.1973 63.548C71.6267 63.3053 71.9253 62.988 72.0933 62.596L72.9193 62.82C72.77 63.1653 72.5413 63.478 72.2333 63.758C71.9253 64.038 71.5613 64.2573 71.1413 64.416C70.7307 64.5653 70.2873 64.64 69.8113 64.64ZM67.1233 60.51H72.5133C72.476 59.978 72.3313 59.5113 72.0793 59.11C71.8367 58.7087 71.5147 58.396 71.1133 58.172C70.7213 57.9387 70.2873 57.822 69.8113 57.822C69.3353 57.822 68.9013 57.9387 68.5093 58.172C68.1173 58.396 67.7953 58.7133 67.5433 59.124C67.3007 59.5253 67.1607 59.9873 67.1233 60.51Z" fill="#09090B"/>
<path d="M204 58L208 62L212 58" stroke="#71717A" stroke-width="2" stroke-linecap="round" stroke-linejoin="round"/>
</svg>
