<svg width="219" height="90" viewBox="0 0 219 90" fill="none" xmlns="http://www.w3.org/2000/svg">
<path d="M6 54.5H114C117.038 54.5 119.5 56.9624 119.5 60V84C119.5 87.0376 117.038 89.5 114 89.5H6C2.96244 89.5 0.5 87.0376 0.5 84V60C0.5 56.9624 2.96243 54.5 6 54.5Z" stroke="#27272A"/>
<path d="M27.236 77.07C26.5733 77.07 25.9573 76.93 25.388 76.65C24.8187 76.3607 24.324 75.9733 23.904 75.488C23.484 75.0027 23.1573 74.4613 22.924 73.864C22.7 73.2667 22.588 72.6507 22.588 72.016C22.588 71.344 22.7 70.7093 22.924 70.112C23.1573 69.5053 23.4793 68.9687 23.89 68.502C24.3007 68.0353 24.786 67.6667 25.346 67.396C25.906 67.1253 26.5173 66.99 27.18 66.99C28.16 66.99 28.958 67.1907 29.574 67.592C30.19 67.9933 30.6567 68.516 30.974 69.16L30.218 69.664C29.9007 69.048 29.476 68.5953 28.944 68.306C28.412 68.0167 27.8193 67.872 27.166 67.872C26.6153 67.872 26.116 67.9887 25.668 68.222C25.2293 68.4553 24.8513 68.768 24.534 69.16C24.2167 69.552 23.974 69.9953 23.806 70.49C23.6473 70.9847 23.568 71.498 23.568 72.03C23.568 72.59 23.6613 73.122 23.848 73.626C24.0347 74.1207 24.3007 74.564 24.646 74.956C24.9913 75.3387 25.388 75.642 25.836 75.866C26.2933 76.0807 26.7833 76.188 27.306 76.188C27.9127 76.188 28.4867 76.0387 29.028 75.74C29.5693 75.432 30.0873 74.9607 30.582 74.326V75.362C29.6393 76.5007 28.524 77.07 27.236 77.07ZM30.428 72.87H28.216V72.114H31.254V77H30.428V72.87ZM36.2215 77.14C35.6988 77.14 35.2135 77.042 34.7655 76.846C34.3175 76.6407 33.9302 76.3653 33.6035 76.02C33.2768 75.6653 33.0202 75.2593 32.8335 74.802C32.6562 74.3447 32.5675 73.8547 32.5675 73.332C32.5675 72.6507 32.7215 72.0253 33.0295 71.456C33.3468 70.8867 33.7808 70.434 34.3315 70.098C34.8822 69.7527 35.5075 69.58 36.2075 69.58C36.9262 69.58 37.5515 69.7527 38.0835 70.098C38.6248 70.4433 39.0495 70.9007 39.3575 71.47C39.6655 72.03 39.8195 72.646 39.8195 73.318C39.8195 73.3927 39.8195 73.4673 39.8195 73.542C39.8195 73.6073 39.8148 73.6587 39.8055 73.696H33.5615C33.6082 74.2187 33.7528 74.6853 33.9955 75.096C34.2475 75.4973 34.5695 75.8193 34.9615 76.062C35.3628 76.2953 35.7968 76.412 36.2635 76.412C36.7395 76.412 37.1875 76.2907 37.6075 76.048C38.0368 75.8053 38.3355 75.488 38.5035 75.096L39.3295 75.32C39.1802 75.6653 38.9515 75.978 38.6435 76.258C38.3355 76.538 37.9715 76.7573 37.5515 76.916C37.1408 77.0653 36.6975 77.14 36.2215 77.14ZM33.5335 73.01H38.9235C38.8862 72.478 38.7415 72.0113 38.4895 71.61C38.2468 71.2087 37.9248 70.896 37.5235 70.672C37.1315 70.4387 36.6975 70.322 36.2215 70.322C35.7455 70.322 35.3115 70.4387 34.9195 70.672C34.5275 70.896 34.2055 71.2133 33.9535 71.624C33.7108 72.0253 33.5708 72.4873 33.5335 73.01ZM44.7199 76.65C44.6453 76.678 44.5286 76.7293 44.3699 76.804C44.2113 76.8787 44.0199 76.944 43.7959 77C43.5719 77.056 43.3293 77.084 43.0679 77.084C42.7973 77.084 42.5406 77.0327 42.2979 76.93C42.0646 76.8273 41.8779 76.6733 41.7379 76.468C41.5979 76.2533 41.5279 75.992 41.5279 75.684V70.462H40.5199V69.706H41.5279V67.242H42.4799V69.706H44.1599V70.462H42.4799V75.418C42.4986 75.6793 42.5919 75.8753 42.7599 76.006C42.9373 76.1367 43.1379 76.202 43.3619 76.202C43.6233 76.202 43.8613 76.16 44.0759 76.076C44.2906 75.9827 44.4213 75.9173 44.4679 75.88L44.7199 76.65ZM55.4837 68.922C55.3437 68.7633 55.1804 68.6233 54.9937 68.502C54.8071 68.3713 54.5971 68.2593 54.3637 68.166C54.1304 68.0727 53.8784 67.998 53.6077 67.942C53.3464 67.886 53.0664 67.858 52.7677 67.858C51.8997 67.858 51.2604 68.026 50.8497 68.362C50.4484 68.6887 50.2477 69.1367 50.2477 69.706C50.2477 70.098 50.3411 70.406 50.5277 70.63C50.7237 70.854 51.0271 71.036 51.4377 71.176C51.8484 71.316 52.3711 71.4607 53.0057 71.61C53.7151 71.7593 54.3264 71.9367 54.8397 72.142C55.3531 72.3473 55.7497 72.6273 56.0297 72.982C56.3097 73.3273 56.4497 73.7987 56.4497 74.396C56.4497 74.8533 56.3611 75.25 56.1837 75.586C56.0064 75.922 55.7591 76.202 55.4417 76.426C55.1244 76.65 54.7464 76.818 54.3077 76.93C53.8691 77.0327 53.3884 77.084 52.8657 77.084C52.3524 77.084 51.8577 77.0327 51.3817 76.93C50.9151 76.818 50.4717 76.6593 50.0517 76.454C49.6317 76.2393 49.2397 75.9687 48.8757 75.642L49.3657 74.844C49.5431 75.0307 49.7531 75.208 49.9957 75.376C50.2477 75.5347 50.5231 75.6793 50.8217 75.81C51.1297 75.9407 51.4564 76.0433 51.8017 76.118C52.1564 76.1833 52.5204 76.216 52.8937 76.216C53.6871 76.216 54.3031 76.0713 54.7417 75.782C55.1897 75.4927 55.4137 75.0633 55.4137 74.494C55.4137 74.0833 55.3017 73.7567 55.0777 73.514C54.8537 73.262 54.5177 73.0567 54.0697 72.898C53.6217 72.7393 53.0711 72.5853 52.4177 72.436C51.7271 72.2773 51.1437 72.1 50.6677 71.904C50.1917 71.708 49.8324 71.4513 49.5897 71.134C49.3564 70.8073 49.2397 70.378 49.2397 69.846C49.2397 69.23 49.3891 68.712 49.6877 68.292C49.9957 67.8627 50.4157 67.5407 50.9477 67.326C51.4797 67.102 52.0911 66.99 52.7817 66.99C53.2204 66.99 53.6264 67.0367 53.9997 67.13C54.3824 67.214 54.7324 67.34 55.0497 67.508C55.3764 67.676 55.6797 67.886 55.9597 68.138L55.4837 68.922ZM61.3586 76.65C61.2839 76.678 61.1673 76.7293 61.0086 76.804C60.8499 76.8787 60.6586 76.944 60.4346 77C60.2106 77.056 59.9679 77.084 59.7066 77.084C59.4359 77.084 59.1793 77.0327 58.9366 76.93C58.7033 76.8273 58.5166 76.6733 58.3766 76.468C58.2366 76.2533 58.1666 75.992 58.1666 75.684V70.462H57.1586V69.706H58.1666V67.242H59.1186V69.706H60.7986V70.462H59.1186V75.418C59.1373 75.6793 59.2306 75.8753 59.3986 76.006C59.5759 76.1367 59.7766 76.202 60.0006 76.202C60.2619 76.202 60.4999 76.16 60.7146 76.076C60.9293 75.9827 61.0599 75.9173 61.1066 75.88L61.3586 76.65ZM61.96 74.9C61.96 74.4427 62.0907 74.0507 62.352 73.724C62.6134 73.388 62.9727 73.1313 63.43 72.954C63.8967 72.7673 64.4334 72.674 65.04 72.674C65.3947 72.674 65.7634 72.702 66.146 72.758C66.5287 72.814 66.8694 72.898 67.168 73.01V72.394C67.168 71.778 66.986 71.288 66.622 70.924C66.258 70.56 65.754 70.378 65.11 70.378C64.718 70.378 64.3307 70.4527 63.948 70.602C63.5747 70.742 63.1827 70.952 62.772 71.232L62.408 70.56C62.884 70.2333 63.3507 69.9907 63.808 69.832C64.2654 69.664 64.732 69.58 65.208 69.58C66.104 69.58 66.8134 69.8367 67.336 70.35C67.8587 70.8633 68.12 71.5727 68.12 72.478V75.852C68.12 75.9827 68.148 76.0807 68.204 76.146C68.26 76.202 68.3487 76.2347 68.47 76.244V77C68.3674 77.0093 68.2787 77.0187 68.204 77.028C68.1294 77.0373 68.0734 77.0373 68.036 77.028C67.8027 77.0187 67.6254 76.944 67.504 76.804C67.3827 76.664 67.3174 76.5147 67.308 76.356L67.294 75.824C66.9674 76.244 66.5427 76.5707 66.02 76.804C65.4974 77.028 64.9654 77.14 64.424 77.14C63.9574 77.14 63.5327 77.042 63.15 76.846C62.7767 76.6407 62.4827 76.37 62.268 76.034C62.0627 75.6887 61.96 75.3107 61.96 74.9ZM66.846 75.46C66.9487 75.3293 67.028 75.2033 67.084 75.082C67.14 74.9607 67.168 74.8533 67.168 74.76V73.696C66.8507 73.5747 66.5194 73.4813 66.174 73.416C65.838 73.3507 65.4974 73.318 65.152 73.318C64.4707 73.318 63.92 73.4533 63.5 73.724C63.08 73.9947 62.87 74.3633 62.87 74.83C62.87 75.1007 62.94 75.3573 63.08 75.6C63.22 75.8333 63.4254 76.0293 63.696 76.188C63.9667 76.3373 64.284 76.412 64.648 76.412C65.1054 76.412 65.53 76.3233 65.922 76.146C66.3234 75.9687 66.6314 75.74 66.846 75.46ZM73.817 70.546C73.1823 70.5647 72.6223 70.742 72.137 71.078C71.661 71.414 71.325 71.876 71.129 72.464V77H70.177V69.706H71.073V71.456C71.325 70.9427 71.6563 70.5273 72.067 70.21C72.487 69.8927 72.9303 69.7153 73.397 69.678C73.4903 69.6687 73.5696 69.664 73.635 69.664C73.7096 69.664 73.7703 69.6687 73.817 69.678V70.546ZM78.5852 76.65C78.5105 76.678 78.3938 76.7293 78.2352 76.804C78.0765 76.8787 77.8852 76.944 77.6612 77C77.4372 77.056 77.1945 77.084 76.9332 77.084C76.6625 77.084 76.4058 77.0327 76.1632 76.93C75.9298 76.8273 75.7432 76.6733 75.6032 76.468C75.4632 76.2533 75.3932 75.992 75.3932 75.684V70.462H74.3852V69.706H75.3932V67.242H76.3452V69.706H78.0252V70.462H76.3452V75.418C76.3638 75.6793 76.4572 75.8753 76.6252 76.006C76.8025 76.1367 77.0032 76.202 77.2272 76.202C77.4885 76.202 77.7265 76.16 77.9412 76.076C78.1558 75.9827 78.2865 75.9173 78.3332 75.88L78.5852 76.65ZM82.8016 77.14C82.2789 77.14 81.7936 77.042 81.3456 76.846C80.8976 76.6407 80.5102 76.3653 80.1836 76.02C79.8569 75.6653 79.6002 75.2593 79.4136 74.802C79.2362 74.3447 79.1476 73.8547 79.1476 73.332C79.1476 72.6507 79.3016 72.0253 79.6096 71.456C79.9269 70.8867 80.3609 70.434 80.9116 70.098C81.4622 69.7527 82.0876 69.58 82.7876 69.58C83.5062 69.58 84.1316 69.7527 84.6636 70.098C85.2049 70.4433 85.6296 70.9007 85.9376 71.47C86.2456 72.03 86.3996 72.646 86.3996 73.318C86.3996 73.3927 86.3996 73.4673 86.3996 73.542C86.3996 73.6073 86.3949 73.6587 86.3856 73.696H80.1416C80.1882 74.2187 80.3329 74.6853 80.5756 75.096C80.8276 75.4973 81.1496 75.8193 81.5416 76.062C81.9429 76.2953 82.3769 76.412 82.8436 76.412C83.3196 76.412 83.7676 76.2907 84.1876 76.048C84.6169 75.8053 84.9156 75.488 85.0836 75.096L85.9096 75.32C85.7602 75.6653 85.5316 75.978 85.2236 76.258C84.9156 76.538 84.5516 76.7573 84.1316 76.916C83.7209 77.0653 83.2776 77.14 82.8016 77.14ZM80.1136 73.01H85.5036C85.4662 72.478 85.3216 72.0113 85.0696 71.61C84.8269 71.2087 84.5049 70.896 84.1036 70.672C83.7116 70.4387 83.2776 70.322 82.8016 70.322C82.3256 70.322 81.8916 70.4387 81.4996 70.672C81.1076 70.896 80.7856 71.2133 80.5336 71.624C80.2909 72.0253 80.1509 72.4873 80.1136 73.01ZM87.3784 73.374C87.3784 72.6833 87.5184 72.0533 87.7984 71.484C88.0877 70.9053 88.4844 70.4433 88.9884 70.098C89.4924 69.7527 90.0664 69.58 90.7104 69.58C91.317 69.58 91.8584 69.7433 92.3344 70.07C92.8197 70.3873 93.1977 70.7747 93.4684 71.232V66.78H94.4204V75.852C94.4204 75.9827 94.4484 76.0807 94.5044 76.146C94.5604 76.202 94.6444 76.2347 94.7564 76.244V77C94.5697 77.028 94.425 77.0373 94.3224 77.028C94.1264 77.0187 93.9537 76.9393 93.8044 76.79C93.655 76.6407 93.5804 76.4773 93.5804 76.3V75.586C93.291 76.062 92.899 76.44 92.4044 76.72C91.9097 77 91.3964 77.14 90.8644 77.14C90.3604 77.14 89.8937 77.0373 89.4644 76.832C89.0444 76.6267 88.6757 76.3467 88.3584 75.992C88.0504 75.6373 87.8077 75.236 87.6304 74.788C87.4624 74.3307 87.3784 73.8593 87.3784 73.374ZM93.4684 74.494V72.24C93.347 71.904 93.151 71.6007 92.8804 71.33C92.6097 71.05 92.3017 70.8307 91.9564 70.672C91.6204 70.504 91.2844 70.42 90.9484 70.42C90.5564 70.42 90.2017 70.504 89.8844 70.672C89.567 70.8307 89.2917 71.05 89.0584 71.33C88.8344 71.61 88.6617 71.9273 88.5404 72.282C88.419 72.6367 88.3584 73.0007 88.3584 73.374C88.3584 73.766 88.4237 74.1393 88.5544 74.494C88.6944 74.8487 88.8904 75.166 89.1424 75.446C89.3944 75.7167 89.6837 75.9267 90.0104 76.076C90.337 76.2253 90.6917 76.3 91.0744 76.3C91.317 76.3 91.569 76.2533 91.8304 76.16C92.0917 76.0667 92.339 75.9407 92.5724 75.782C92.815 75.614 93.0157 75.418 93.1744 75.194C93.333 74.97 93.431 74.7367 93.4684 74.494Z" fill="#F2F2F2"/>
<g filter="url(#filter0_dd_405_1226)">
<path d="M48 34C48 30.6863 50.6863 28 54 28H162C165.314 28 168 30.6863 168 34V58C168 61.3137 165.314 64 162 64H54C50.6863 64 48 61.3137 48 58V34Z" fill="#292524"/>
<path d="M76.236 53.07C75.5733 53.07 74.9573 52.93 74.388 52.65C73.8187 52.3607 73.324 51.9733 72.904 51.488C72.484 51.0027 72.1573 50.4613 71.924 49.864C71.7 49.2667 71.588 48.6507 71.588 48.016C71.588 47.344 71.7 46.7093 71.924 46.112C72.1573 45.5053 72.4793 44.9687 72.89 44.502C73.3007 44.0353 73.786 43.6667 74.346 43.396C74.906 43.1253 75.5173 42.99 76.18 42.99C77.16 42.99 77.958 43.1907 78.574 43.592C79.19 43.9933 79.6567 44.516 79.974 45.16L79.218 45.664C78.9007 45.048 78.476 44.5953 77.944 44.306C77.412 44.0167 76.8193 43.872 76.166 43.872C75.6153 43.872 75.116 43.9887 74.668 44.222C74.2293 44.4553 73.8513 44.768 73.534 45.16C73.2167 45.552 72.974 45.9953 72.806 46.49C72.6473 46.9847 72.568 47.498 72.568 48.03C72.568 48.59 72.6613 49.122 72.848 49.626C73.0347 50.1207 73.3007 50.564 73.646 50.956C73.9913 51.3387 74.388 51.642 74.836 51.866C75.2933 52.0807 75.7833 52.188 76.306 52.188C76.9127 52.188 77.4867 52.0387 78.028 51.74C78.5693 51.432 79.0873 50.9607 79.582 50.326V51.362C78.6393 52.5007 77.524 53.07 76.236 53.07ZM79.428 48.87H77.216V48.114H80.254V53H79.428V48.87ZM85.2215 53.14C84.6988 53.14 84.2135 53.042 83.7655 52.846C83.3175 52.6407 82.9302 52.3653 82.6035 52.02C82.2768 51.6653 82.0202 51.2593 81.8335 50.802C81.6562 50.3447 81.5675 49.8547 81.5675 49.332C81.5675 48.6507 81.7215 48.0253 82.0295 47.456C82.3468 46.8867 82.7808 46.434 83.3315 46.098C83.8822 45.7527 84.5075 45.58 85.2075 45.58C85.9262 45.58 86.5515 45.7527 87.0835 46.098C87.6248 46.4433 88.0495 46.9007 88.3575 47.47C88.6655 48.03 88.8195 48.646 88.8195 49.318C88.8195 49.3927 88.8195 49.4673 88.8195 49.542C88.8195 49.6073 88.8148 49.6587 88.8055 49.696H82.5615C82.6082 50.2187 82.7528 50.6853 82.9955 51.096C83.2475 51.4973 83.5695 51.8193 83.9615 52.062C84.3628 52.2953 84.7968 52.412 85.2635 52.412C85.7395 52.412 86.1875 52.2907 86.6075 52.048C87.0368 51.8053 87.3355 51.488 87.5035 51.096L88.3295 51.32C88.1802 51.6653 87.9515 51.978 87.6435 52.258C87.3355 52.538 86.9715 52.7573 86.5515 52.916C86.1408 53.0653 85.6975 53.14 85.2215 53.14ZM82.5335 49.01H87.9235C87.8862 48.478 87.7415 48.0113 87.4895 47.61C87.2468 47.2087 86.9248 46.896 86.5235 46.672C86.1315 46.4387 85.6975 46.322 85.2215 46.322C84.7455 46.322 84.3115 46.4387 83.9195 46.672C83.5275 46.896 83.2055 47.2133 82.9535 47.624C82.7108 48.0253 82.5708 48.4873 82.5335 49.01ZM93.7199 52.65C93.6453 52.678 93.5286 52.7293 93.3699 52.804C93.2113 52.8787 93.0199 52.944 92.7959 53C92.5719 53.056 92.3293 53.084 92.0679 53.084C91.7973 53.084 91.5406 53.0327 91.2979 52.93C91.0646 52.8273 90.8779 52.6733 90.7379 52.468C90.5979 52.2533 90.5279 51.992 90.5279 51.684V46.462H89.5199V45.706H90.5279V43.242H91.4799V45.706H93.1599V46.462H91.4799V51.418C91.4986 51.6793 91.5919 51.8753 91.7599 52.006C91.9373 52.1367 92.1379 52.202 92.3619 52.202C92.6233 52.202 92.8613 52.16 93.0759 52.076C93.2906 51.9827 93.4213 51.9173 93.4679 51.88L93.7199 52.65ZM104.484 44.922C104.344 44.7633 104.18 44.6233 103.994 44.502C103.807 44.3713 103.597 44.2593 103.364 44.166C103.13 44.0727 102.878 43.998 102.608 43.942C102.346 43.886 102.066 43.858 101.768 43.858C100.9 43.858 100.26 44.026 99.8497 44.362C99.4484 44.6887 99.2477 45.1367 99.2477 45.706C99.2477 46.098 99.3411 46.406 99.5277 46.63C99.7237 46.854 100.027 47.036 100.438 47.176C100.848 47.316 101.371 47.4607 102.006 47.61C102.715 47.7593 103.326 47.9367 103.84 48.142C104.353 48.3473 104.75 48.6273 105.03 48.982C105.31 49.3273 105.45 49.7987 105.45 50.396C105.45 50.8533 105.361 51.25 105.184 51.586C105.006 51.922 104.759 52.202 104.442 52.426C104.124 52.65 103.746 52.818 103.308 52.93C102.869 53.0327 102.388 53.084 101.866 53.084C101.352 53.084 100.858 53.0327 100.382 52.93C99.9151 52.818 99.4717 52.6593 99.0517 52.454C98.6317 52.2393 98.2397 51.9687 97.8757 51.642L98.3657 50.844C98.5431 51.0307 98.7531 51.208 98.9957 51.376C99.2477 51.5347 99.5231 51.6793 99.8217 51.81C100.13 51.9407 100.456 52.0433 100.802 52.118C101.156 52.1833 101.52 52.216 101.894 52.216C102.687 52.216 103.303 52.0713 103.742 51.782C104.19 51.4927 104.414 51.0633 104.414 50.494C104.414 50.0833 104.302 49.7567 104.078 49.514C103.854 49.262 103.518 49.0567 103.07 48.898C102.622 48.7393 102.071 48.5853 101.418 48.436C100.727 48.2773 100.144 48.1 99.6677 47.904C99.1917 47.708 98.8324 47.4513 98.5897 47.134C98.3564 46.8073 98.2397 46.378 98.2397 45.846C98.2397 45.23 98.3891 44.712 98.6877 44.292C98.9957 43.8627 99.4157 43.5407 99.9477 43.326C100.48 43.102 101.091 42.99 101.782 42.99C102.22 42.99 102.626 43.0367 103 43.13C103.382 43.214 103.732 43.34 104.05 43.508C104.376 43.676 104.68 43.886 104.96 44.138L104.484 44.922ZM110.359 52.65C110.284 52.678 110.167 52.7293 110.009 52.804C109.85 52.8787 109.659 52.944 109.435 53C109.211 53.056 108.968 53.084 108.707 53.084C108.436 53.084 108.179 53.0327 107.937 52.93C107.703 52.8273 107.517 52.6733 107.377 52.468C107.237 52.2533 107.167 51.992 107.167 51.684V46.462H106.159V45.706H107.167V43.242H108.119V45.706H109.799V46.462H108.119V51.418C108.137 51.6793 108.231 51.8753 108.399 52.006C108.576 52.1367 108.777 52.202 109.001 52.202C109.262 52.202 109.5 52.16 109.715 52.076C109.929 51.9827 110.06 51.9173 110.107 51.88L110.359 52.65ZM110.96 50.9C110.96 50.4427 111.091 50.0507 111.352 49.724C111.613 49.388 111.973 49.1313 112.43 48.954C112.897 48.7673 113.433 48.674 114.04 48.674C114.395 48.674 114.763 48.702 115.146 48.758C115.529 48.814 115.869 48.898 116.168 49.01V48.394C116.168 47.778 115.986 47.288 115.622 46.924C115.258 46.56 114.754 46.378 114.11 46.378C113.718 46.378 113.331 46.4527 112.948 46.602C112.575 46.742 112.183 46.952 111.772 47.232L111.408 46.56C111.884 46.2333 112.351 45.9907 112.808 45.832C113.265 45.664 113.732 45.58 114.208 45.58C115.104 45.58 115.813 45.8367 116.336 46.35C116.859 46.8633 117.12 47.5727 117.12 48.478V51.852C117.12 51.9827 117.148 52.0807 117.204 52.146C117.26 52.202 117.349 52.2347 117.47 52.244V53C117.367 53.0093 117.279 53.0187 117.204 53.028C117.129 53.0373 117.073 53.0373 117.036 53.028C116.803 53.0187 116.625 52.944 116.504 52.804C116.383 52.664 116.317 52.5147 116.308 52.356L116.294 51.824C115.967 52.244 115.543 52.5707 115.02 52.804C114.497 53.028 113.965 53.14 113.424 53.14C112.957 53.14 112.533 53.042 112.15 52.846C111.777 52.6407 111.483 52.37 111.268 52.034C111.063 51.6887 110.96 51.3107 110.96 50.9ZM115.846 51.46C115.949 51.3293 116.028 51.2033 116.084 51.082C116.14 50.9607 116.168 50.8533 116.168 50.76V49.696C115.851 49.5747 115.519 49.4813 115.174 49.416C114.838 49.3507 114.497 49.318 114.152 49.318C113.471 49.318 112.92 49.4533 112.5 49.724C112.08 49.9947 111.87 50.3633 111.87 50.83C111.87 51.1007 111.94 51.3573 112.08 51.6C112.22 51.8333 112.425 52.0293 112.696 52.188C112.967 52.3373 113.284 52.412 113.648 52.412C114.105 52.412 114.53 52.3233 114.922 52.146C115.323 51.9687 115.631 51.74 115.846 51.46ZM122.817 46.546C122.182 46.5647 121.622 46.742 121.137 47.078C120.661 47.414 120.325 47.876 120.129 48.464V53H119.177V45.706H120.073V47.456C120.325 46.9427 120.656 46.5273 121.067 46.21C121.487 45.8927 121.93 45.7153 122.397 45.678C122.49 45.6687 122.57 45.664 122.635 45.664C122.71 45.664 122.77 45.6687 122.817 45.678V46.546ZM127.585 52.65C127.51 52.678 127.394 52.7293 127.235 52.804C127.076 52.8787 126.885 52.944 126.661 53C126.437 53.056 126.194 53.084 125.933 53.084C125.662 53.084 125.406 53.0327 125.163 52.93C124.93 52.8273 124.743 52.6733 124.603 52.468C124.463 52.2533 124.393 51.992 124.393 51.684V46.462H123.385V45.706H124.393V43.242H125.345V45.706H127.025V46.462H125.345V51.418C125.364 51.6793 125.457 51.8753 125.625 52.006C125.802 52.1367 126.003 52.202 126.227 52.202C126.488 52.202 126.726 52.16 126.941 52.076C127.156 51.9827 127.286 51.9173 127.333 51.88L127.585 52.65ZM131.802 53.14C131.279 53.14 130.794 53.042 130.346 52.846C129.898 52.6407 129.51 52.3653 129.184 52.02C128.857 51.6653 128.6 51.2593 128.414 50.802C128.236 50.3447 128.148 49.8547 128.148 49.332C128.148 48.6507 128.302 48.0253 128.61 47.456C128.927 46.8867 129.361 46.434 129.912 46.098C130.462 45.7527 131.088 45.58 131.788 45.58C132.506 45.58 133.132 45.7527 133.664 46.098C134.205 46.4433 134.63 46.9007 134.938 47.47C135.246 48.03 135.4 48.646 135.4 49.318C135.4 49.3927 135.4 49.4673 135.4 49.542C135.4 49.6073 135.395 49.6587 135.386 49.696H129.142C129.188 50.2187 129.333 50.6853 129.576 51.096C129.828 51.4973 130.15 51.8193 130.542 52.062C130.943 52.2953 131.377 52.412 131.844 52.412C132.32 52.412 132.768 52.2907 133.188 52.048C133.617 51.8053 133.916 51.488 134.084 51.096L134.91 51.32C134.76 51.6653 134.532 51.978 134.224 52.258C133.916 52.538 133.552 52.7573 133.132 52.916C132.721 53.0653 132.278 53.14 131.802 53.14ZM129.114 49.01H134.504C134.466 48.478 134.322 48.0113 134.07 47.61C133.827 47.2087 133.505 46.896 133.104 46.672C132.712 46.4387 132.278 46.322 131.802 46.322C131.326 46.322 130.892 46.4387 130.5 46.672C130.108 46.896 129.786 47.2133 129.534 47.624C129.291 48.0253 129.151 48.4873 129.114 49.01ZM136.378 49.374C136.378 48.6833 136.518 48.0533 136.798 47.484C137.088 46.9053 137.484 46.4433 137.988 46.098C138.492 45.7527 139.066 45.58 139.71 45.58C140.317 45.58 140.858 45.7433 141.334 46.07C141.82 46.3873 142.198 46.7747 142.468 47.232V42.78H143.42V51.852C143.42 51.9827 143.448 52.0807 143.504 52.146C143.56 52.202 143.644 52.2347 143.756 52.244V53C143.57 53.028 143.425 53.0373 143.322 53.028C143.126 53.0187 142.954 52.9393 142.804 52.79C142.655 52.6407 142.58 52.4773 142.58 52.3V51.586C142.291 52.062 141.899 52.44 141.404 52.72C140.91 53 140.396 53.14 139.864 53.14C139.36 53.14 138.894 53.0373 138.464 52.832C138.044 52.6267 137.676 52.3467 137.358 51.992C137.05 51.6373 136.808 51.236 136.63 50.788C136.462 50.3307 136.378 49.8593 136.378 49.374ZM142.468 50.494V48.24C142.347 47.904 142.151 47.6007 141.88 47.33C141.61 47.05 141.302 46.8307 140.956 46.672C140.62 46.504 140.284 46.42 139.948 46.42C139.556 46.42 139.202 46.504 138.884 46.672C138.567 46.8307 138.292 47.05 138.058 47.33C137.834 47.61 137.662 47.9273 137.54 48.282C137.419 48.6367 137.358 49.0007 137.358 49.374C137.358 49.766 137.424 50.1393 137.554 50.494C137.694 50.8487 137.89 51.166 138.142 51.446C138.394 51.7167 138.684 51.9267 139.01 52.076C139.337 52.2253 139.692 52.3 140.074 52.3C140.317 52.3 140.569 52.2533 140.83 52.16C141.092 52.0667 141.339 51.9407 141.572 51.782C141.815 51.614 142.016 51.418 142.174 51.194C142.333 50.97 142.431 50.7367 142.468 50.494Z" fill="#F2F2F2"/>
</g>
<g filter="url(#filter1_dd_405_1226)">
<g filter="url(#filter2_dd_405_1226)">
<path d="M96 8C96 4.68629 98.6863 2 102 2H210C213.314 2 216 4.68629 216 8V32C216 35.3137 213.314 38 210 38H102C98.6863 38 96 35.3137 96 32V8Z" fill="#21C45D"/>
<path d="M96.5 8C96.5 4.96243 98.9624 2.5 102 2.5H210C213.038 2.5 215.5 4.96243 215.5 8V32C215.5 35.0376 213.038 37.5 210 37.5H102C98.9624 37.5 96.5 35.0376 96.5 32V8Z" stroke="#21C45D"/>
</g>
<path d="M124.236 25.07C123.573 25.07 122.957 24.93 122.388 24.65C121.819 24.3607 121.324 23.9733 120.904 23.488C120.484 23.0027 120.157 22.4613 119.924 21.864C119.7 21.2667 119.588 20.6507 119.588 20.016C119.588 19.344 119.7 18.7093 119.924 18.112C120.157 17.5053 120.479 16.9687 120.89 16.502C121.301 16.0353 121.786 15.6667 122.346 15.396C122.906 15.1253 123.517 14.99 124.18 14.99C125.16 14.99 125.958 15.1907 126.574 15.592C127.19 15.9933 127.657 16.516 127.974 17.16L127.218 17.664C126.901 17.048 126.476 16.5953 125.944 16.306C125.412 16.0167 124.819 15.872 124.166 15.872C123.615 15.872 123.116 15.9887 122.668 16.222C122.229 16.4553 121.851 16.768 121.534 17.16C121.217 17.552 120.974 17.9953 120.806 18.49C120.647 18.9847 120.568 19.498 120.568 20.03C120.568 20.59 120.661 21.122 120.848 21.626C121.035 22.1207 121.301 22.564 121.646 22.956C121.991 23.3387 122.388 23.642 122.836 23.866C123.293 24.0807 123.783 24.188 124.306 24.188C124.913 24.188 125.487 24.0387 126.028 23.74C126.569 23.432 127.087 22.9607 127.582 22.326V23.362C126.639 24.5007 125.524 25.07 124.236 25.07ZM127.428 20.87H125.216V20.114H128.254V25H127.428V20.87ZM133.221 25.14C132.699 25.14 132.213 25.042 131.765 24.846C131.317 24.6407 130.93 24.3653 130.603 24.02C130.277 23.6653 130.02 23.2593 129.833 22.802C129.656 22.3447 129.567 21.8547 129.567 21.332C129.567 20.6507 129.721 20.0253 130.029 19.456C130.347 18.8867 130.781 18.434 131.331 18.098C131.882 17.7527 132.507 17.58 133.207 17.58C133.926 17.58 134.551 17.7527 135.083 18.098C135.625 18.4433 136.049 18.9007 136.357 19.47C136.665 20.03 136.819 20.646 136.819 21.318C136.819 21.3927 136.819 21.4673 136.819 21.542C136.819 21.6073 136.815 21.6587 136.805 21.696H130.561C130.608 22.2187 130.753 22.6853 130.995 23.096C131.247 23.4973 131.569 23.8193 131.961 24.062C132.363 24.2953 132.797 24.412 133.263 24.412C133.739 24.412 134.187 24.2907 134.607 24.048C135.037 23.8053 135.335 23.488 135.503 23.096L136.329 23.32C136.18 23.6653 135.951 23.978 135.643 24.258C135.335 24.538 134.971 24.7573 134.551 24.916C134.141 25.0653 133.697 25.14 133.221 25.14ZM130.533 21.01H135.923C135.886 20.478 135.741 20.0113 135.489 19.61C135.247 19.2087 134.925 18.896 134.523 18.672C134.131 18.4387 133.697 18.322 133.221 18.322C132.745 18.322 132.311 18.4387 131.919 18.672C131.527 18.896 131.205 19.2133 130.953 19.624C130.711 20.0253 130.571 20.4873 130.533 21.01ZM141.72 24.65C141.645 24.678 141.529 24.7293 141.37 24.804C141.211 24.8787 141.02 24.944 140.796 25C140.572 25.056 140.329 25.084 140.068 25.084C139.797 25.084 139.541 25.0327 139.298 24.93C139.065 24.8273 138.878 24.6733 138.738 24.468C138.598 24.2533 138.528 23.992 138.528 23.684V18.462H137.52V17.706H138.528V15.242H139.48V17.706H141.16V18.462H139.48V23.418C139.499 23.6793 139.592 23.8753 139.76 24.006C139.937 24.1367 140.138 24.202 140.362 24.202C140.623 24.202 140.861 24.16 141.076 24.076C141.291 23.9827 141.421 23.9173 141.468 23.88L141.72 24.65ZM152.484 16.922C152.344 16.7633 152.18 16.6233 151.994 16.502C151.807 16.3713 151.597 16.2593 151.364 16.166C151.13 16.0727 150.878 15.998 150.608 15.942C150.346 15.886 150.066 15.858 149.768 15.858C148.9 15.858 148.26 16.026 147.85 16.362C147.448 16.6887 147.248 17.1367 147.248 17.706C147.248 18.098 147.341 18.406 147.528 18.63C147.724 18.854 148.027 19.036 148.438 19.176C148.848 19.316 149.371 19.4607 150.006 19.61C150.715 19.7593 151.326 19.9367 151.84 20.142C152.353 20.3473 152.75 20.6273 153.03 20.982C153.31 21.3273 153.45 21.7987 153.45 22.396C153.45 22.8533 153.361 23.25 153.184 23.586C153.006 23.922 152.759 24.202 152.442 24.426C152.124 24.65 151.746 24.818 151.308 24.93C150.869 25.0327 150.388 25.084 149.866 25.084C149.352 25.084 148.858 25.0327 148.382 24.93C147.915 24.818 147.472 24.6593 147.052 24.454C146.632 24.2393 146.24 23.9687 145.876 23.642L146.366 22.844C146.543 23.0307 146.753 23.208 146.996 23.376C147.248 23.5347 147.523 23.6793 147.822 23.81C148.13 23.9407 148.456 24.0433 148.802 24.118C149.156 24.1833 149.52 24.216 149.894 24.216C150.687 24.216 151.303 24.0713 151.742 23.782C152.19 23.4927 152.414 23.0633 152.414 22.494C152.414 22.0833 152.302 21.7567 152.078 21.514C151.854 21.262 151.518 21.0567 151.07 20.898C150.622 20.7393 150.071 20.5853 149.418 20.436C148.727 20.2773 148.144 20.1 147.668 19.904C147.192 19.708 146.832 19.4513 146.59 19.134C146.356 18.8073 146.24 18.378 146.24 17.846C146.24 17.23 146.389 16.712 146.688 16.292C146.996 15.8627 147.416 15.5407 147.948 15.326C148.48 15.102 149.091 14.99 149.782 14.99C150.22 14.99 150.626 15.0367 151 15.13C151.382 15.214 151.732 15.34 152.05 15.508C152.376 15.676 152.68 15.886 152.96 16.138L152.484 16.922ZM158.359 24.65C158.284 24.678 158.167 24.7293 158.009 24.804C157.85 24.8787 157.659 24.944 157.435 25C157.211 25.056 156.968 25.084 156.707 25.084C156.436 25.084 156.179 25.0327 155.937 24.93C155.703 24.8273 155.517 24.6733 155.377 24.468C155.237 24.2533 155.167 23.992 155.167 23.684V18.462H154.159V17.706H155.167V15.242H156.119V17.706H157.799V18.462H156.119V23.418C156.137 23.6793 156.231 23.8753 156.399 24.006C156.576 24.1367 156.777 24.202 157.001 24.202C157.262 24.202 157.5 24.16 157.715 24.076C157.929 23.9827 158.06 23.9173 158.107 23.88L158.359 24.65ZM158.96 22.9C158.96 22.4427 159.091 22.0507 159.352 21.724C159.613 21.388 159.973 21.1313 160.43 20.954C160.897 20.7673 161.433 20.674 162.04 20.674C162.395 20.674 162.763 20.702 163.146 20.758C163.529 20.814 163.869 20.898 164.168 21.01V20.394C164.168 19.778 163.986 19.288 163.622 18.924C163.258 18.56 162.754 18.378 162.11 18.378C161.718 18.378 161.331 18.4527 160.948 18.602C160.575 18.742 160.183 18.952 159.772 19.232L159.408 18.56C159.884 18.2333 160.351 17.9907 160.808 17.832C161.265 17.664 161.732 17.58 162.208 17.58C163.104 17.58 163.813 17.8367 164.336 18.35C164.859 18.8633 165.12 19.5727 165.12 20.478V23.852C165.12 23.9827 165.148 24.0807 165.204 24.146C165.26 24.202 165.349 24.2347 165.47 24.244V25C165.367 25.0093 165.279 25.0187 165.204 25.028C165.129 25.0373 165.073 25.0373 165.036 25.028C164.803 25.0187 164.625 24.944 164.504 24.804C164.383 24.664 164.317 24.5147 164.308 24.356L164.294 23.824C163.967 24.244 163.543 24.5707 163.02 24.804C162.497 25.028 161.965 25.14 161.424 25.14C160.957 25.14 160.533 25.042 160.15 24.846C159.777 24.6407 159.483 24.37 159.268 24.034C159.063 23.6887 158.96 23.3107 158.96 22.9ZM163.846 23.46C163.949 23.3293 164.028 23.2033 164.084 23.082C164.14 22.9607 164.168 22.8533 164.168 22.76V21.696C163.851 21.5747 163.519 21.4813 163.174 21.416C162.838 21.3507 162.497 21.318 162.152 21.318C161.471 21.318 160.92 21.4533 160.5 21.724C160.08 21.9947 159.87 22.3633 159.87 22.83C159.87 23.1007 159.94 23.3573 160.08 23.6C160.22 23.8333 160.425 24.0293 160.696 24.188C160.967 24.3373 161.284 24.412 161.648 24.412C162.105 24.412 162.53 24.3233 162.922 24.146C163.323 23.9687 163.631 23.74 163.846 23.46ZM170.817 18.546C170.182 18.5647 169.622 18.742 169.137 19.078C168.661 19.414 168.325 19.876 168.129 20.464V25H167.177V17.706H168.073V19.456C168.325 18.9427 168.656 18.5273 169.067 18.21C169.487 17.8927 169.93 17.7153 170.397 17.678C170.49 17.6687 170.57 17.664 170.635 17.664C170.71 17.664 170.77 17.6687 170.817 17.678V18.546ZM175.585 24.65C175.51 24.678 175.394 24.7293 175.235 24.804C175.076 24.8787 174.885 24.944 174.661 25C174.437 25.056 174.194 25.084 173.933 25.084C173.662 25.084 173.406 25.0327 173.163 24.93C172.93 24.8273 172.743 24.6733 172.603 24.468C172.463 24.2533 172.393 23.992 172.393 23.684V18.462H171.385V17.706H172.393V15.242H173.345V17.706H175.025V18.462H173.345V23.418C173.364 23.6793 173.457 23.8753 173.625 24.006C173.802 24.1367 174.003 24.202 174.227 24.202C174.488 24.202 174.726 24.16 174.941 24.076C175.156 23.9827 175.286 23.9173 175.333 23.88L175.585 24.65ZM179.802 25.14C179.279 25.14 178.794 25.042 178.346 24.846C177.898 24.6407 177.51 24.3653 177.184 24.02C176.857 23.6653 176.6 23.2593 176.414 22.802C176.236 22.3447 176.148 21.8547 176.148 21.332C176.148 20.6507 176.302 20.0253 176.61 19.456C176.927 18.8867 177.361 18.434 177.912 18.098C178.462 17.7527 179.088 17.58 179.788 17.58C180.506 17.58 181.132 17.7527 181.664 18.098C182.205 18.4433 182.63 18.9007 182.938 19.47C183.246 20.03 183.4 20.646 183.4 21.318C183.4 21.3927 183.4 21.4673 183.4 21.542C183.4 21.6073 183.395 21.6587 183.386 21.696H177.142C177.188 22.2187 177.333 22.6853 177.576 23.096C177.828 23.4973 178.15 23.8193 178.542 24.062C178.943 24.2953 179.377 24.412 179.844 24.412C180.32 24.412 180.768 24.2907 181.188 24.048C181.617 23.8053 181.916 23.488 182.084 23.096L182.91 23.32C182.76 23.6653 182.532 23.978 182.224 24.258C181.916 24.538 181.552 24.7573 181.132 24.916C180.721 25.0653 180.278 25.14 179.802 25.14ZM177.114 21.01H182.504C182.466 20.478 182.322 20.0113 182.07 19.61C181.827 19.2087 181.505 18.896 181.104 18.672C180.712 18.4387 180.278 18.322 179.802 18.322C179.326 18.322 178.892 18.4387 178.5 18.672C178.108 18.896 177.786 19.2133 177.534 19.624C177.291 20.0253 177.151 20.4873 177.114 21.01ZM184.378 21.374C184.378 20.6833 184.518 20.0533 184.798 19.484C185.088 18.9053 185.484 18.4433 185.988 18.098C186.492 17.7527 187.066 17.58 187.71 17.58C188.317 17.58 188.858 17.7433 189.334 18.07C189.82 18.3873 190.198 18.7747 190.468 19.232V14.78H191.42V23.852C191.42 23.9827 191.448 24.0807 191.504 24.146C191.56 24.202 191.644 24.2347 191.756 24.244V25C191.57 25.028 191.425 25.0373 191.322 25.028C191.126 25.0187 190.954 24.9393 190.804 24.79C190.655 24.6407 190.58 24.4773 190.58 24.3V23.586C190.291 24.062 189.899 24.44 189.404 24.72C188.91 25 188.396 25.14 187.864 25.14C187.36 25.14 186.894 25.0373 186.464 24.832C186.044 24.6267 185.676 24.3467 185.358 23.992C185.05 23.6373 184.808 23.236 184.63 22.788C184.462 22.3307 184.378 21.8593 184.378 21.374ZM190.468 22.494V20.24C190.347 19.904 190.151 19.6007 189.88 19.33C189.61 19.05 189.302 18.8307 188.956 18.672C188.62 18.504 188.284 18.42 187.948 18.42C187.556 18.42 187.202 18.504 186.884 18.672C186.567 18.8307 186.292 19.05 186.058 19.33C185.834 19.61 185.662 19.9273 185.54 20.282C185.419 20.6367 185.358 21.0007 185.358 21.374C185.358 21.766 185.424 22.1393 185.554 22.494C185.694 22.8487 185.89 23.166 186.142 23.446C186.394 23.7167 186.684 23.9267 187.01 24.076C187.337 24.2253 187.692 24.3 188.074 24.3C188.317 24.3 188.569 24.2533 188.83 24.16C189.092 24.0667 189.339 23.9407 189.572 23.782C189.815 23.614 190.016 23.418 190.174 23.194C190.333 22.97 190.431 22.7367 190.468 22.494Z" fill="#052E16"/>
</g>
<defs>
<filter id="filter0_dd_405_1226" x="45" y="26" width="126" height="42" filterUnits="userSpaceOnUse" color-interpolation-filters="sRGB">
<feFlood flood-opacity="0" result="BackgroundImageFix"/>
<feColorMatrix in="SourceAlpha" type="matrix" values="0 0 0 0 0 0 0 0 0 0 0 0 0 0 0 0 0 0 127 0" result="hardAlpha"/>
<feOffset dy="1"/>
<feGaussianBlur stdDeviation="1.5"/>
<feComposite in2="hardAlpha" operator="out"/>
<feColorMatrix type="matrix" values="0 0 0 0 0 0 0 0 0 0 0 0 0 0 0 0 0 0 0.1 0"/>
<feBlend mode="normal" in2="BackgroundImageFix" result="effect1_dropShadow_405_1226"/>
<feColorMatrix in="SourceAlpha" type="matrix" values="0 0 0 0 0 0 0 0 0 0 0 0 0 0 0 0 0 0 127 0" result="hardAlpha"/>
<feOffset dy="1"/>
<feGaussianBlur stdDeviation="1"/>
<feComposite in2="hardAlpha" operator="out"/>
<feColorMatrix type="matrix" values="0 0 0 0 0 0 0 0 0 0 0 0 0 0 0 0 0 0 0.1 0"/>
<feBlend mode="normal" in2="effect1_dropShadow_405_1226" result="effect2_dropShadow_405_1226"/>
<feBlend mode="normal" in="SourceGraphic" in2="effect2_dropShadow_405_1226" result="shape"/>
</filter>
<filter id="filter1_dd_405_1226" x="93" y="0" width="126" height="42" filterUnits="userSpaceOnUse" color-interpolation-filters="sRGB">
<feFlood flood-opacity="0" result="BackgroundImageFix"/>
<feColorMatrix in="SourceAlpha" type="matrix" values="0 0 0 0 0 0 0 0 0 0 0 0 0 0 0 0 0 0 127 0" result="hardAlpha"/>
<feOffset dy="1"/>
<feGaussianBlur stdDeviation="1.5"/>
<feComposite in2="hardAlpha" operator="out"/>
<feColorMatrix type="matrix" values="0 0 0 0 0 0 0 0 0 0 0 0 0 0 0 0 0 0 0.1 0"/>
<feBlend mode="normal" in2="BackgroundImageFix" result="effect1_dropShadow_405_1226"/>
<feColorMatrix in="SourceAlpha" type="matrix" values="0 0 0 0 0 0 0 0 0 0 0 0 0 0 0 0 0 0 127 0" result="hardAlpha"/>
<feOffset dy="1"/>
<feGaussianBlur stdDeviation="1"/>
<feComposite in2="hardAlpha" operator="out"/>
<feColorMatrix type="matrix" values="0 0 0 0 0 0 0 0 0 0 0 0 0 0 0 0 0 0 0.1 0"/>
<feBlend mode="normal" in2="effect1_dropShadow_405_1226" result="effect2_dropShadow_405_1226"/>
<feBlend mode="normal" in="SourceGraphic" in2="effect2_dropShadow_405_1226" result="shape"/>
</filter>
<filter id="filter2_dd_405_1226" x="93" y="0" width="126" height="42" filterUnits="userSpaceOnUse" color-interpolation-filters="sRGB">
<feFlood flood-opacity="0" result="BackgroundImageFix"/>
<feColorMatrix in="SourceAlpha" type="matrix" values="0 0 0 0 0 0 0 0 0 0 0 0 0 0 0 0 0 0 127 0" result="hardAlpha"/>
<feOffset dy="1"/>
<feGaussianBlur stdDeviation="1.5"/>
<feComposite in2="hardAlpha" operator="out"/>
<feColorMatrix type="matrix" values="0 0 0 0 0 0 0 0 0 0 0 0 0 0 0 0 0 0 0.1 0"/>
<feBlend mode="normal" in2="BackgroundImageFix" result="effect1_dropShadow_405_1226"/>
<feColorMatrix in="SourceAlpha" type="matrix" values="0 0 0 0 0 0 0 0 0 0 0 0 0 0 0 0 0 0 127 0" result="hardAlpha"/>
<feOffset dy="1"/>
<feGaussianBlur stdDeviation="1"/>
<feComposite in2="hardAlpha" operator="out"/>
<feColorMatrix type="matrix" values="0 0 0 0 0 0 0 0 0 0 0 0 0 0 0 0 0 0 0.1 0"/>
<feBlend mode="normal" in2="effect1_dropShadow_405_1226" result="effect2_dropShadow_405_1226"/>
<feBlend mode="normal" in="SourceGraphic" in2="effect2_dropShadow_405_1226" result="shape"/>
</filter>
</defs>
</svg>
