<svg width="64" height="64" viewBox="0 0 64 64" fill="none" xmlns="http://www.w3.org/2000/svg">
<rect width="64" height="64" rx="16" fill="#09090B"/>
<path d="M32.17 17.7068L31.8266 17.6503L31.6549 17.7633L31.2544 18.2153L30.396 19.0062L29.881 19.5712L29.7665 19.7972H29.6521L29.5376 19.9667L29.4232 20.2492H29.3087L28.9654 20.7012L28.3931 21.4356L27.8209 22.2266L27.3631 23.0741L26.7908 24.1475L26.5047 25.108L26.3903 25.8425L26.333 25.9554V27.7069L26.4475 28.4413L26.5619 28.8933L26.7908 29.4583L27.2486 30.3623L27.5348 30.8142L27.7064 31.0967L27.8152 31.222L27.8781 31.2662L28.2787 31.7182L28.8509 32.2267L28.9486 32.3458L29.0798 32.4527L29.3659 32.6222L30.2815 33.0741L30.6821 33.1871L31.0255 33.3566L31.426 33.4131L31.5405 33.2436L31.5977 32.6787V29.3453L31.3688 29.0628L30.7966 28.8933L30.396 28.6673L29.5948 28.1024L29.3087 27.7634L28.6074 27.0134L28.1642 25.786L28.0498 25.5035L27.9592 25.3709L27.9353 24.7125L28.1642 24.656L28.4504 24.7125L28.622 25.221L28.7937 25.56L29.0798 26.2944L29.2515 26.5769L30.0526 27.6504L30.6249 28.1024L31.1399 28.3848H31.4833L31.5977 28.2153V22.7916L31.6549 20.7577L31.7122 20.7012L31.9983 20.6447L32.1127 20.8142L32.17 28.3283L32.2272 28.3848H32.5705L33.0283 28.1589L33.4289 27.8764L33.7722 27.6504L34.23 27.1984L35.1845 25.4122L35.5746 24.8255C35.5746 24.8255 35.7716 24.6592 35.8323 24.7125C35.8931 24.7658 35.8896 24.8255 35.8896 24.8255L35.6607 25.9554L34.974 27.1984L34.4589 27.8199L34.0011 28.2718L33.3717 28.6673L32.8567 28.9498L32.3416 29.1758L32.2272 29.5148V30.4188L32.17 30.7012V33.3001L32.2844 33.4131L32.6278 33.4696L32.9711 33.3566L34.0011 32.9046L34.5162 32.5657L34.5734 32.4527L34.6878 32.3962L35.1456 32.0572L35.2828 31.9407L35.3745 31.8312L35.489 31.6052L36.519 30.3623L36.5763 30.2493L36.9393 29.6931L37.288 28.6673L37.4624 26.754L37.3202 24.995L37.0913 24.2472L36.8624 23.6955L36.4046 22.9046L36.2418 22.7776L36.0674 22.4319L35.9468 22.3396L35.8931 22.1725L35.7179 22.0006L35.6315 21.8268L35.3699 21.3081L35.2601 21.1532L35.1456 20.9837L35.1084 20.9623L35.0312 20.8142L34.7451 20.4752L34.6725 20.3572L34.5734 20.2492L33.8867 19.4582L32.9139 18.4978L32.5133 18.0458L32.2844 17.9328L32.17 17.7068Z" fill="white"/>
<path d="M33.3563 12H30.2089L29.9801 12.0565L28.5494 12.226L27.8627 12.3955L26.9471 12.565L25.7454 12.904L25.0587 13.1864L24.2576 13.4689L22.9414 14.0339L21.7397 14.7119L20.8241 15.2769L19.9657 15.8418L19.5079 16.2373L19.4507 16.5763L19.6796 17.1413L19.8513 17.4803L20.2519 18.1017L20.6524 18.5537L20.8012 18.6893L20.8813 18.7797L21.6253 19.5142L21.9686 19.4577L22.3692 19.0622L22.827 18.7232L23.857 18.0452L24.372 17.7627L24.9443 17.4803L25.3449 17.3108L25.8599 17.0283L26.3177 16.8588L26.7182 16.6893L27.5194 16.4633L28.435 16.2938L29.1217 16.1243L29.8084 16.0113L30.8956 15.9548L31.2962 15.8983H32.6124L34.2147 16.0113L34.5008 16.0678L35.2447 16.1808L36.1031 16.3503L37.7626 16.9153L38.3349 17.1978L39.0215 17.4803L39.8227 17.9322L40.4522 18.3277L41.0816 18.7797L42.0545 19.5142L42.6267 20.0227L43.0845 20.5876L43.3706 20.6441L43.5423 20.4746L44.4007 18.7232L44.5037 18.5989L44.5723 18.4972L44.9729 18.0452L45.4307 17.7063L45.7168 17.4803L45.8542 17.3108L45.7741 17.0848L45.3163 16.6328L44.6868 16.1808L43.1417 15.1639L42.2261 14.6554L41.3678 14.2034L40.4522 13.8079L39.5366 13.3559L38.5638 13.017L35.9314 12.339L34.558 12.1695L33.3563 12Z" fill="white"/>
<path d="M43.18 27.914C43.18 27.914 43.1114 27.3038 43.0198 27.1908C42.9282 27.0778 42.5162 27.3038 42.5162 27.3038L41.8181 27.6315L41.1886 27.914L40.7308 28.0835L39.758 28.592L38.6707 29.1005L37.9268 29.5524L37.6407 29.8914L37.469 30.3434L36.9365 31.1551L36.3817 31.8123L36.0384 32.2078L35.2092 32.9621L34.8367 33.2248L34.3216 33.5073V33.6203H34.15L33.8638 33.7898L33.2916 34.0157L32.6049 34.1852L32.4332 34.2982L32.3188 34.5242V36.4451L32.2616 38.4791V39.383L32.3188 39.4395L32.5477 39.496L33.0627 39.1005L33.635 38.705L33.7913 38.6335L33.9592 38.4791L34.15 38.3052L35.0083 37.5751L36.6106 36.2192L37.0684 35.8237L37.1829 35.5977L38.2129 34.6937L38.5563 34.2982L38.6592 34.1398L38.8271 33.9734L38.8996 33.9028L38.9949 33.8069L39.0296 33.7333L39.1285 33.5638L39.3307 33.3076L39.8722 32.4948L40.3302 31.6994L40.6164 31.2474L40.6568 31.0253L40.7308 30.8519L40.7743 30.766C40.7743 30.766 41.3603 30.3281 41.4175 30.3434C41.4747 30.3587 41.4747 30.5129 41.4747 30.5129V30.7954L41.2458 31.4169L40.9025 32.1513L40.3875 33.0553L38.8996 34.8632L38.7852 35.0892H38.6707V35.2022H38.5563V35.3152H38.4418V35.4282H38.3274L38.0985 35.7107L37.6407 36.1062V36.2192H37.5262L37.1829 36.5016V36.7841L37.2973 36.8406L38.0413 36.7841L38.9568 36.4451L39.8724 35.9932C39.8724 35.9932 40.3302 35.7672 40.3875 35.8802C40.4447 35.9932 40.4447 36.1627 40.4447 36.1627L40.2158 36.4451L39.4719 36.8971L38.7852 37.1796L38.2702 37.3491L37.5835 37.5186L36.0956 37.6881L35.695 37.9141L35.6618 37.9647L35.5806 38.0271L35.1228 38.3661L33.5777 39.5525L32.9483 40.061L32.8719 40.1258L32.6621 40.287L32.376 40.626L32.2616 41.4169V42.0949L32.376 42.2079H32.9483L34.15 41.9819L35.2945 41.6429L35.9239 41.4169L36.5534 41.1344L37.6407 40.626L39.0141 39.5525L39.9297 38.7615L40.7308 38.0271L41.4747 37.1231L42.4476 35.2587L42.6765 34.6372L42.8596 34.0722L43.1342 32.9423L43.3631 31.4734V29.8349L43.18 27.914Z" fill="white"/>
<path d="M21.0313 27.2157L20.6307 27.1592L20.459 27.3287L20.4018 28.0632L20.3446 28.2892L20.2873 29.0236L20.2301 29.1931V31.5095L20.2873 31.7355L20.3446 32.47L20.459 33.0349L20.6879 33.9389L20.9168 34.6169L21.2602 35.5208L21.5463 36.0293L21.8324 36.5943L22.1758 37.0463L22.748 37.8372L23.5492 38.7412L24.0642 39.1932L24.6936 39.7017L25.2087 40.0406L25.374 40.1258L25.4948 40.2666L26.2959 40.7186L27.2115 41.1706L28.1271 41.5661L29.0999 41.7921L30.5306 42.0746H31.0456L31.16 41.9616V40.7186L31.1028 40.5491V40.4715L30.9884 40.2666V40.2122L30.8739 40.1536L30.6923 40.0393L30.5306 39.9276L30.4307 39.8664L30.3017 39.7582L29.9583 39.4757L29.3288 39.0237L29.2102 38.9156L29.0427 38.7977L28.5277 38.4022L28.4132 38.3105L28.2416 38.1762L27.9024 37.9647L27.6408 37.7053L27.1177 37.4983H25.7237L25.6665 37.4418L24.8081 37.2723L24.3503 36.9898C24.3503 36.9898 23.7309 36.8056 23.4227 36.5378C23.3278 36.4554 23.2058 36.3118 23.1486 36.3118C23.0914 36.3118 22.9769 36.1423 22.9769 36.1423C22.9769 36.1423 22.9585 35.9146 23.0341 35.8033C23.0694 35.7515 23.0914 35.75 23.1486 35.6903C23.2058 35.6307 23.6097 35.7468 23.6636 35.7468C23.7175 35.7468 23.9791 35.9163 23.9791 35.9163L24.8653 36.5378L25.6092 36.7073L26.067 36.8768L26.3532 36.8203L26.4104 36.5378L26.2959 36.4248L26.0098 36.2553L25.7237 36.1423V36.0293L25.4948 35.9163V35.7468L24.9798 35.2384L24.5792 34.7864L24.415 34.6798L24.3503 34.5039L24.1214 34.2214L23.3203 33.3739L21.9365 31.3318C21.9365 31.3318 21.7064 30.8601 21.7622 30.5538C21.8027 30.3309 21.9365 30.0351 22.0237 30.0351C22.1109 30.0351 22.5468 30.3809 22.5763 30.4361C22.6058 30.4912 22.748 30.888 22.748 30.888L23.0914 31.5095L23.3203 32.018L23.394 32.1729L23.5492 32.357L23.609 32.47L23.6636 32.5265L24.2358 33.3739L25.2659 34.5604L27.0399 36.3118L27.841 36.9898L28.4132 37.47L28.4705 37.4983L28.9283 37.8937L29.8439 38.5717L30.0228 38.6847L30.0728 38.7977L30.4733 39.0802L30.7595 39.3627L31.1028 39.4192L31.16 39.3062L31.2173 38.6847V37.0463L31.16 35.9728V34.2779L31.0456 34.1084L30.645 33.9954L30.2444 33.8259L29.6722 33.6564L29.2716 33.4304L28.6994 33.0914L26.4104 30.7185L25.8381 29.6451L25.1514 29.2496L24.2358 28.7411L23.1486 28.2327L22.233 27.7242L21.4891 27.4417L21.0313 27.2157Z" fill="white"/>
<path d="M13.4878 25.1639L13.0873 25.1074L12.9156 25.3899L12.645 26.0678L12.2289 27.3039L12 28.5141V30.1357L12.1144 34.486L12.2861 35.5594L12.6295 36.9719L12.8011 37.1414L13.2017 37.1979L13.8312 36.9719L14.0601 37.0284V37.2544L13.6023 37.5368L13.3162 37.8193V38.1018L13.774 38.3843V38.6668L13.4306 39.1753V39.5708L13.7167 40.1922L14.0601 40.6442L14.4034 41.2657L14.9185 42.0001L15.4335 42.7911V43.2431L15.3763 43.4126V44.4295L15.5479 44.9945L15.9485 45.7855L16.3491 46.1245L16.9213 46.3505L17.2074 46.294L17.3219 46.1245L17.3791 45.503L17.4363 45.3335L17.6652 44.7685L18.0658 44.1471L18.5808 43.6386L19.2103 43.2431L19.4964 43.0736L19.897 42.9606C19.897 42.9606 20.3173 42.6326 20.2976 42.3956C20.2779 42.1587 19.7942 41.941 19.7942 41.941L19.6198 41.6817L16.6352 36.9154L16.5894 36.8137L16.5207 36.6894L16.2919 36.5764L15.8913 36.6329L15.5479 36.6894L15.6052 36.4069L16.2346 36.1244L16.269 35.7289L16.1774 35.4464L16.1087 35.1865L16.0401 34.825L15.9714 34.4182L16.2346 26.3503L15.4907 26.0678L15.0901 25.8418L14.4607 25.5594L13.4878 25.1639Z" fill="white"/>
<path d="M49.711 21.9436C49.6077 21.8563 49.4249 21.9436 49.4249 21.9436L48.3376 23.017L47.6509 23.4125L46.9642 23.695L45.9342 23.7515L45.877 23.808L45.8197 24.034L45.9914 24.3165L46.2775 24.825L46.6781 25.5029L46.9642 26.1809L47.4793 27.5368L47.7654 28.7233L47.937 29.3448L47.9943 29.9662L48.1087 30.1922H48.5093L49.3104 29.9097H49.8255L49.7682 30.1357L49.3104 30.4747L48.3376 31.0397L48.0515 31.3222V33.4691L47.937 34.3166L47.8226 34.825L47.4793 36.1245L47.0215 37.4804L46.5064 38.4409L45.9914 39.5143L45.4764 40.1923L45.5336 40.4748L46.5637 40.5313L47.0215 40.6443L47.6509 40.8703L48.2232 41.2093L48.6237 41.6612L48.7954 41.9437L48.9671 42.1132L49.196 42.1697L49.3104 42.0567L49.5393 41.4917L50.2833 40.1923L50.8555 39.0623L51.1989 38.0454L51.6567 36.4635L51.9962 33.2686L52 31.3222V30.3617C52 30.3617 51.9953 28.9464 51.9953 28.8599C51.9953 28.7735 51.8856 28.2148 51.8856 28.2148L50.3977 23.469L49.9399 22.2261C49.9399 22.2261 49.8143 22.0309 49.711 21.9436Z" fill="white"/>
<path d="M21.3396 43.4689C21.1412 43.3543 20.7673 43.4689 20.7673 43.4689L20.0234 43.6949L19.5084 43.9209L19.0506 44.2599L18.5928 44.6554L18.2494 45.1638L18.0205 45.8983L17.9633 46.4633L18.135 46.7458L19.3939 47.6497L20.424 48.4407L20.9962 48.7797L21.5112 49.0622L22.0835 49.4012L23.1135 49.9661L23.5141 50.0226L23.6858 49.9096L23.9147 49.4012L24.0863 49.1752L24.4869 48.7797C24.4869 48.7797 24.6586 48.5086 24.773 48.6102C24.8875 48.7118 24.773 49.3169 24.773 49.3169L24.6586 50.0226L24.7158 50.1921L24.8875 50.4181H25.2308L25.5742 50.0791C25.5742 50.0791 25.7586 49.8531 25.8603 49.9661L26.2609 51.2656L27.6915 51.6046L29.1793 51.8871L30.8388 51.9435L31.2966 52H33.0134L34.7873 51.8871L36.6185 51.6046C36.6185 51.6046 37.1777 51.3937 37.248 51.3786C37.3183 51.3634 37.3183 51.277 37.248 51.2656C37.1777 51.2542 36.5337 50.8448 36.5337 50.8448L34.1007 47.4237C33.9345 47.3672 33.7001 47.4802 33.7001 47.4802L32.8417 47.5932H30.381L29.351 47.4237L28.7788 47.3107L27.6343 47.0283L26.6614 46.6893L25.8031 46.3503L24.8875 45.8983L23.9147 45.4463L23.0563 44.8814L22.2551 44.3164C22.2551 44.3164 21.5379 43.5835 21.3396 43.4689Z" fill="white"/>
<path d="M46.341 41.163H45.597L44.6242 41.502L44.2809 41.728L43.5942 42.2364L42.9647 42.7449L42.3925 43.3099L41.4196 44.1009L40.504 44.7223L39.8746 45.1743L38.8445 45.7958L38.8005 45.831L38.7301 45.9088L37.8145 46.3608L37.185 46.8127L36.67 47.3212L36.2694 47.8862L36.0977 48.3382V49.4116L36.155 49.5811L36.4411 50.0896L36.8417 50.4286L37.3567 50.6546L37.9862 50.8806H38.7873L39.5312 50.7676L40.2179 50.5981L40.9618 50.2591L41.9919 49.6941C41.9919 49.6941 42.8024 49.1159 42.8503 49.0726C42.8982 49.0294 42.9853 49.0294 42.9853 48.9429C42.9853 48.8565 42.793 48.7902 42.793 48.7902L41.5913 48.6207L41.0191 48.3382L40.6185 47.8862L40.0462 47.6037L39.5312 47.4907H38.9018L38.6156 47.6037L38.2723 47.9427L37.9289 48.4512V48.9596L38.1578 49.2986L38.444 49.4681H38.9018L39.1307 49.3551L39.2364 49.2887L39.3023 49.1291L39.4383 48.9032L39.5312 48.8467C39.5312 48.8467 39.8746 48.8467 39.9318 48.9032C39.989 48.9596 40.0463 49.2421 39.989 49.2986C39.9318 49.3551 39.6457 49.6941 39.6457 49.6941L39.0734 49.8636H38.3295L37.7573 49.6941L37.5284 49.5246L37.2311 49.1291V48.2514L37.6029 47.6037L37.6894 47.4907L37.8145 47.3777L38.6156 46.9822H39.7029L40.3896 47.2082L41.0763 47.5472L41.5913 47.9427L42.278 48.2252L43.2508 48.3947L43.7086 48.3382L43.8803 48.1687L43.9948 47.8862L43.5942 47.4907L43.2508 46.6997V46.1913C43.2508 46.1913 43.3093 46.0397 43.3653 46.0218C43.4213 46.0038 43.5942 46.5303 43.5942 46.5303L43.7659 47.2082L43.8803 47.3212L44.1664 47.4907H45.0248L45.082 47.4342L45.1392 47.1517L44.6242 46.6997L44.3381 46.4173L44.2059 46.2632L44.1092 46.1348L43.9375 45.7958L43.8803 45.6263L43.8306 44.1009L43.9375 43.8749L43.9948 43.6699L44.1092 43.4794L44.2931 43.2376L44.4339 43.1019L44.8531 42.8014L45.3681 42.4624L45.9976 42.2364C45.9976 42.2364 46.5798 42.1596 46.5699 42.1799C46.5599 42.2003 46.9087 42.2868 46.9087 42.2868L47.1702 42.5461L47.3446 42.8919L47.4855 43.0274L47.5999 43.4229V43.9314L47.4855 44.4398L47.1421 44.9483L46.6843 45.4568L46.2265 45.6828L45.8624 45.5716L45.7115 45.2873L45.6881 45.2258V45.1394L45.7115 45.0613L45.9976 44.7223L46.2837 44.4398L46.5126 44.5528L46.7415 44.6093L46.9704 44.2704L46.9808 43.497C46.9808 43.497 46.9704 43.3241 46.9087 43.2376C46.8469 43.1512 46.6471 43.0132 46.5854 43.0274C46.5236 43.0416 46.1121 42.9709 46.1121 42.9709L45.4613 43.0839L44.9589 43.4904L44.567 43.9879L44.3381 44.7223V45.1178L44.4525 45.5133L44.6814 45.9088L45.1965 46.2478L45.597 46.7562L45.8832 47.0387L46.2837 46.9822L46.9704 46.5303L47.886 45.6263L48.5155 44.5528L48.8016 43.8749V43.2534L48.6872 42.8014H48.5727V42.5189L48.3438 42.1234L47.9433 41.728L47.1421 41.3325L46.341 41.163Z" fill="white"/>
<path d="M20.698 19.8532L18.5349 17.2656C18.5349 17.2656 18.4434 17.1526 18.3289 17.13C18.2145 17.1074 17.8711 17.5594 17.8711 17.5594L17.6651 17.7063L17.4362 17.9661L17.276 18.1469L17.2073 18.2147L16.6923 18.8362L16.1201 19.5707L15.5478 20.4181L15.0328 21.2091L14.4606 22.1696L13.7739 23.4125L13.7166 23.921L13.7739 24.034L14.2317 24.373L14.8611 24.825L15.3189 25.0509L15.7767 25.3334L16.7495 25.6724H17.1501L20.8697 20.0227L20.698 19.8532Z" fill="white"/>
<path d="M46.4467 18.3419H47.4372L47.9585 18.5994L48.5841 19.2689L48.8968 19.7839V20.4534L48.9139 20.8488V21.0217L48.8968 21.4319L48.7926 21.6893L48.7395 21.7923L48.6362 21.9468L48.3755 22.2558L47.6457 22.7708L46.968 23.0798L46.4467 23.1828L45.8211 23.1313L45.1434 22.9768L44.8306 22.7708L44.4657 22.3073L44.0486 21.6378C44.0486 21.6378 43.9444 21.4833 43.9444 21.4319C43.9444 21.3804 43.9965 20.9684 43.9965 20.9684L44.205 20.2474L44.6221 19.5264L45.1955 19.0114L45.7168 18.6509L46.4467 18.3419ZM45.4562 19.4749C45.4041 19.4749 45.1955 19.7814 45.1955 19.7814L45.0778 19.9844C45.0778 19.9844 44.9804 20.1398 44.9349 20.2474C44.8544 20.4376 44.8162 20.6759 44.8162 20.7624C44.8162 20.8488 44.7263 20.9684 44.7263 21.0199C44.7263 21.0714 44.7263 21.2259 44.7263 21.2259L44.8162 21.4539L44.8306 21.4833L44.9349 21.7923L45.1434 22.0498L45.8211 22.3073L46.0296 22.3588H46.4988L47.1765 22.1528L47.6457 21.7923L47.8542 21.5348L48.0627 21.0199V20.1444L47.8021 19.7839L47.4372 19.5779L46.968 19.6294L46.3424 20.0414L46.0818 20.4534L46.0368 20.503L45.9775 20.6594C45.9775 20.6594 45.9182 20.915 45.9775 20.9684C46.0368 21.0217 46.0566 21.1376 46.1339 21.1229C46.2112 21.1081 46.4035 21.121 46.3945 21.0714C46.3856 21.0217 46.6552 20.4534 46.6552 20.4534L46.7595 20.3504C46.7595 20.3504 47.2053 20.2787 47.2574 20.3302C47.3095 20.3816 47.4372 20.6079 47.4372 20.6079L47.4318 20.6759V20.9353L47.385 21.2259L47.3329 21.3804L47.3034 21.4833L47.1702 21.6268L46.9959 21.7133L46.4988 21.7923H45.9254L45.5083 21.5348L45.1955 21.0199V20.4019C45.1955 20.4019 45.4157 20.0708 45.5083 19.9844C45.6009 19.8979 45.5887 19.5779 45.5887 19.5779C45.5887 19.5779 45.5083 19.4749 45.4562 19.4749Z" fill="white"/>
<path d="M31.9141 43.0171L32.2575 43.1301L32.3147 43.1866V45.503L32.0858 45.729L31.6852 45.6725L31.5136 45.277V43.2996L31.6852 43.0736L31.9141 43.0171Z" fill="white"/>
</svg>
