<svg width="28" height="28" viewBox="0 0 28 28" fill="none" xmlns="http://www.w3.org/2000/svg">
<path d="M14.119 3.99487L13.8787 3.95532L13.7585 4.03442L13.4781 4.3508L12.8773 4.90448L12.5168 5.29996L12.4366 5.45816H12.3565L12.2764 5.5768L12.1963 5.77454H12.1162L11.8758 6.09093L11.4753 6.60505L11.0747 7.15873L10.7542 7.75195L10.3537 8.50337L10.1534 9.17569L10.0733 9.68982L10.0332 9.76891V10.9949L10.1133 11.509L10.1934 11.8254L10.3537 12.2209L10.6741 12.8537L10.8744 13.1701L10.9946 13.3678L11.0707 13.4555L11.1147 13.4864L11.3952 13.8028L11.7957 14.1588L11.8641 14.2421L11.956 14.317L12.1562 14.4356L12.7972 14.752L13.0776 14.8311L13.3179 14.9497L13.5983 14.9893L13.6784 14.8706L13.7185 14.4752V12.1418L13.5582 11.9441L13.1577 11.8254L12.8773 11.6672L12.3165 11.2717L12.1162 11.0345L11.6253 10.5095L11.315 9.65027L11.2349 9.45253L11.1715 9.35977L11.1548 8.89885L11.315 8.8593L11.5153 8.89885L11.6355 9.25479L11.7557 9.49208L11.956 10.0062L12.0761 10.2039L12.6369 10.9554L13.0375 11.2717L13.398 11.4695H13.6384L13.7185 11.3508V7.55421L13.7585 6.13048L13.7986 6.09093L13.9989 6.05138L14.079 6.17002L14.119 11.4299L14.1591 11.4695H14.3994L14.7199 11.3113L15.0003 11.1136L15.2406 10.9554L15.5611 10.639L16.2292 9.38865L16.5023 8.97795C16.5023 8.97795 16.6402 8.86151 16.6827 8.89885C16.7252 8.93619 16.7228 8.97795 16.7228 8.97795L16.5625 9.76891L16.0819 10.639L15.7213 11.074L15.4009 11.3904L14.9602 11.6672L14.5997 11.865L14.2392 12.0232L14.1591 12.2605V12.8932L14.119 13.091V14.9102L14.1992 14.9893L14.4395 15.0288L14.6798 14.9497L15.4009 14.6333L15.7614 14.3961L15.8014 14.317L15.8816 14.2774L16.202 14.0401L16.298 13.9586L16.3623 13.8819L16.4424 13.7237L17.1634 12.8537L17.2035 12.7746L17.4576 12.3853L17.7017 11.6672L17.8237 10.3279L17.7242 9.09659L17.564 8.57313L17.4037 8.18698L17.2435 7.91015L17.0833 7.63331L16.9693 7.54445L16.9083 7.42343L16.8473 7.30241L16.7628 7.23783L16.7252 7.12087L16.6026 7.00054L16.5421 6.87883L16.4811 6.75781L16.4201 6.63679L16.359 6.51577L16.2821 6.40731L16.202 6.28867L16.176 6.27373L16.1219 6.17002L15.9216 5.93273L15.8708 5.85015L15.8014 5.77454L15.3208 5.22087L14.6398 4.54855L14.3594 4.23216L14.1992 4.15306L14.119 3.99487Z" fill="#09090B"/>
<path d="M14.9492 0H12.7461L12.5859 0.0395482L11.5844 0.158193L11.1038 0.276838L10.4628 0.395482L9.62163 0.632772L9.14094 0.830513L8.58014 1.02825L7.65883 1.42374L6.81762 1.89832L6.17671 2.2938L5.57585 2.68928L5.25539 2.96612L5.21533 3.20341L5.37556 3.59889L5.49573 3.83618L5.77613 4.27121L6.05653 4.5876L6.16068 4.68251L6.21676 4.74579L6.73751 5.25992L6.97785 5.22037L7.04194 5.15709L7.09802 5.10172L7.20217 4.9989L7.25825 4.94353L7.57871 4.70624L8.29974 4.23166L8.66026 4.03392L9.06083 3.83618L9.34123 3.71754L9.70175 3.51979L10.0222 3.40115L10.3026 3.2825L10.8634 3.12431L11.5043 3.00567L11.985 2.88702L12.4657 2.80793L13.2268 2.76838L13.5072 2.72883H14.4285L15.5501 2.80793L15.7504 2.84747L16.2711 2.92657L16.872 3.04521L18.0337 3.4407L18.4342 3.63844L18.9149 3.83618L19.4757 4.15257L19.9163 4.4294L20.357 4.74579L21.038 5.25992L21.4385 5.61585L21.759 6.01133L21.9593 6.05088L22.0794 5.93224L22.6803 4.70624L22.7524 4.61924L22.8005 4.54805L23.0809 4.23166L23.4013 3.99437L23.6016 3.83618L23.6978 3.71754L23.6417 3.55934L23.3212 3.24296L22.8806 2.92657L21.799 2.2147L21.1581 1.85877L20.5573 1.54238L19.9163 1.26554L19.2754 0.949158L18.5945 0.711868L17.6731 0.474579L16.7518 0.237289L15.7905 0.118645L14.9492 0Z" fill="#09090B"/>
<path d="M21.826 11.1399C21.826 11.1399 21.778 10.7128 21.7139 10.6337C21.6498 10.5546 21.3614 10.7128 21.3614 10.7128L20.8727 10.9422L20.432 11.1399L20.1116 11.2586L19.4306 11.6145L18.6695 11.9705L18.1488 12.2868L17.9485 12.5241L17.8283 12.8405L17.4556 13.4087L17.0672 13.8688L16.8269 14.1456L16.2464 14.6736L15.9857 14.8575L15.6252 15.0552V15.1343H15.505L15.3047 15.253L14.9041 15.4111L14.4234 15.5298L14.3033 15.6089L14.2232 15.7671V17.1117L14.1831 18.5355V19.1682L14.2232 19.2078L14.3834 19.2473L14.7439 18.9705L15.1445 18.6937L15.2539 18.6436L15.3714 18.5355L15.505 18.4138L15.505 18.4138L16.1059 17.9027L17.2275 16.9535L17.5479 16.6767L17.628 16.5185L18.3491 15.8857L18.5894 15.6089L18.6615 15.498L18.779 15.3815L18.8297 15.3321L18.8965 15.265L18.9207 15.2134L18.99 15.0948L19.1315 14.9155L19.5105 14.3465L19.8312 13.7897L20.0315 13.4733L20.0598 13.3178L20.1116 13.1964L20.142 13.1363C20.142 13.1363 20.5522 12.8298 20.5923 12.8405C20.6323 12.8512 20.6323 12.9592 20.6323 12.9592V13.1569L20.4721 13.5919L20.2318 14.1061L19.8712 14.7388L18.8297 16.0044L18.7496 16.1626H18.6695V16.2417H18.5894V16.3208H18.5093V16.3999H18.4292L18.2689 16.5976L17.9485 16.8744V16.9535H17.8684L17.628 17.1513V17.349L17.7081 17.3886L18.2289 17.349L18.8698 17.1117L19.5107 16.7953C19.5107 16.7953 19.8312 16.6371 19.8712 16.7162C19.9113 16.7953 19.9113 16.914 19.9113 16.914L19.7511 17.1117L19.2303 17.4281L18.7496 17.6258L18.3891 17.7445L17.9084 17.8631L16.8669 17.9818L16.5865 18.14L16.5633 18.1754L16.5064 18.2191L16.186 18.4564L15.1044 19.2869L14.6638 19.6428L14.6103 19.6882L14.4635 19.801L14.2632 20.0383L14.1831 20.592V21.0665L14.2632 21.1456H14.6638L15.505 20.9875L16.3061 20.7502L16.7468 20.592L17.1874 20.3942L17.9485 20.0383L18.9099 19.2869L19.5508 18.7332L20.1116 18.2191L20.6323 17.5863L21.3133 16.2812L21.4735 15.8462L21.6017 15.4507L21.794 14.6597L21.9542 13.6315V12.4846L21.826 11.1399Z" fill="#09090B"/>
<path d="M6.32154 10.6511L6.04114 10.6116L5.92097 10.7302L5.88091 11.2443L5.84086 11.4025L5.8008 11.9167L5.76074 12.0353V13.6568L5.8008 13.815L5.84086 14.3291L5.92097 14.7246L6.0812 15.3574L6.24143 15.8319L6.48177 16.4647L6.68206 16.8206L6.88235 17.2161L7.12269 17.5325L7.52326 18.0862L8.08406 18.719L8.44458 19.0353L8.88521 19.3913L9.24572 19.6286L9.36147 19.6882L9.44601 19.7868L10.0068 20.1032L10.6477 20.4195L11.2886 20.6964L11.9696 20.8546L12.971 21.0523H13.3316L13.4117 20.9732V20.1032L13.3716 19.9845V19.9302L13.2915 19.7868V19.7487L13.2114 19.7077L13.0843 19.6277L12.971 19.5495L12.9012 19.5066L12.8108 19.4308L12.5705 19.2331L12.1298 18.9167L12.0468 18.841L11.9296 18.7585L11.569 18.4817L11.4889 18.4174L11.3688 18.3235L11.1313 18.1754L11.0703 18.1149L10.9482 17.9939L10.5821 17.8489H10.167H9.60624L9.56618 17.8094L8.96532 17.6907L8.64487 17.493C8.64487 17.493 8.21131 17.364 7.99552 17.1766C7.9291 17.1189 7.84372 17.0184 7.80366 17.0184C7.76361 17.0184 7.68349 16.8997 7.68349 16.8997C7.68349 16.8997 7.67058 16.7404 7.72355 16.6625C7.74823 16.6262 7.76361 16.6251 7.80366 16.5834C7.84372 16.5416 8.12644 16.6229 8.16418 16.6229C8.20192 16.6229 8.385 16.7415 8.385 16.7415L9.00538 17.1766L9.52612 17.2952L9.84658 17.4139L10.0469 17.3743L10.0869 17.1766L10.0068 17.0975L9.80653 16.9788L9.60624 16.8997V16.8206L9.44601 16.7415V16.6229L9.08549 16.267L8.80509 15.9506L8.69015 15.876L8.64487 15.7528L8.48464 15.5551L7.92383 14.9619L6.95522 13.5324C6.95522 13.5324 6.79417 13.2022 6.83317 12.9878C6.86154 12.8318 6.95522 12.6247 7.01625 12.6247C7.07728 12.6247 7.38243 12.8667 7.40309 12.9054C7.42375 12.944 7.52326 13.2218 7.52326 13.2218L7.76361 13.6568L7.92383 14.0127L7.97544 14.1212L8.08406 14.25L8.12598 14.3291L8.16418 14.3687L8.56475 14.9619L9.28578 15.7924L10.5276 17.0184L11.0884 17.493L11.4889 17.8291L11.529 17.8489L11.8494 18.1257L12.4904 18.6003L12.6156 18.6794L12.6506 18.7585L12.931 18.9563L13.1313 19.154L13.3716 19.1935L13.4117 19.1144L13.4517 18.6794V17.5325L13.4117 16.7811V15.5947L13.3316 15.476L13.0512 15.3969L12.7708 15.2783L12.3702 15.1596L12.0898 15.0014L11.6892 14.7641L10.0869 13.1031L9.68635 12.3517L9.20567 12.0749L8.56475 11.7189L7.80366 11.363L7.16275 11.0071L6.642 10.8093L6.32154 10.6511Z" fill="#09090B"/>
<path d="M1.04149 9.2146L0.761088 9.17505L0.640916 9.37279L0.451522 9.84737L0.160229 10.7126L0 11.5597V12.6948L0.0801145 15.7401L0.200286 16.4915L0.44063 17.4802L0.560802 17.5988L0.841203 17.6384L1.28183 17.4802L1.44206 17.5197V17.6779L1.1216 17.8757L0.921317 18.0734V18.2711L1.24178 18.4689V18.6666L1.00143 19.0226V19.2994L1.20172 19.7344L1.44206 20.0508L1.68241 20.4858L2.04292 21L2.40344 21.5537V21.87L2.36338 21.9887V22.7006L2.48355 23.096L2.76395 23.6497L3.04435 23.887L3.44493 24.0452L3.64521 24.0056L3.72533 23.887L3.76538 23.452L3.80544 23.3333L3.96567 22.9378L4.24607 22.5028L4.60659 22.1469L5.04722 21.87L5.2475 21.7514L5.5279 21.6723C5.5279 21.6723 5.82211 21.4427 5.8083 21.2768C5.7945 21.111 5.45593 20.9586 5.45593 20.9586L5.33387 20.777L3.24464 17.4406L3.21259 17.3694L3.16452 17.2824L3.0043 17.2033L2.72389 17.2429L2.48355 17.2824L2.52361 17.0847L2.96424 16.887L2.98827 16.6101L2.92418 16.4124L2.87611 16.2305L2.82804 15.9773L2.77997 15.6926L2.96424 10.0451L2.44349 9.84737L2.16309 9.68918L1.72246 9.49143L1.04149 9.2146Z" fill="#09090B"/>
<path d="M26.3978 6.9605C26.3255 6.89941 26.1975 6.9605 26.1975 6.9605L26.0774 7.07915L25.4365 7.71192L24.9558 7.98876L24.4751 8.1865L23.7541 8.22605L23.714 8.26559L23.6739 8.42379L23.7941 8.62153L23.9944 8.97746L24.2748 9.45204L24.4751 9.92662L24.8356 10.8758L25.0359 11.7063L25.1561 12.1413L25.1961 12.5764L25.2762 12.7345H25.5566L26.1174 12.5368H26.4779L26.4379 12.695L26.1174 12.9323L25.4365 13.3278L25.2362 13.5255V15.0283L25.1561 15.6216L25.0759 15.9775L24.8356 16.8871L24.5151 17.8363L24.1546 18.5086L23.7941 19.26L23.4336 19.7346L23.4737 19.9323L24.1947 19.9719L24.5151 20.051L24.9558 20.2092L25.3563 20.4465L25.6367 20.7628L25.7569 20.9606L25.8771 21.0792L26.0373 21.1188L26.1174 21.0397L26.2777 20.6442L26.7984 19.7346L27.199 18.9436L27.4393 18.2318L27.7598 17.1244L27.9974 14.888L28.0001 13.5255V13.0727V12.8532C28.0001 12.8532 27.9968 11.8624 27.9968 11.8019C27.9968 11.7414 27.92 11.3504 27.92 11.3504L26.8785 8.02831L26.5581 7.15824C26.5581 7.15824 26.4702 7.0216 26.3978 6.9605Z" fill="#09090B"/>
<path d="M6.53769 22.0281C6.39887 21.9479 6.13712 22.0281 6.13712 22.0281L5.61638 22.1863L5.25586 22.3445L4.9354 22.5818L4.61495 22.8586L4.3746 23.2145L4.21437 23.7287L4.17432 24.1241L4.29449 24.3219L5.17575 24.9546L5.89678 25.5083L6.29735 25.7456L6.65787 25.9434L7.05844 26.1806L7.77947 26.5761L8.05987 26.6157L8.18004 26.5366L8.34027 26.1806L8.46044 26.0225L8.74084 25.7456C8.74084 25.7456 8.86102 25.5558 8.94113 25.627C9.02125 25.6981 8.94113 26.1217 8.94113 26.1217L8.86102 26.6157L8.90107 26.7343L9.02125 26.8925H9.26159L9.50193 26.6552C9.50193 26.6552 9.63106 26.497 9.70222 26.5761L9.98262 27.4857L10.9841 27.723L12.0255 27.9208L13.1872 27.9603L13.5077 27.9999H14.7094L15.9512 27.9208L17.233 27.723C17.233 27.723 17.6244 27.5754 17.6736 27.5648C17.7228 27.5542 17.7228 27.4937 17.6736 27.4857C17.6244 27.4777 17.1736 27.1912 17.1736 27.1912L15.4705 24.7965C15.3541 24.7569 15.1901 24.836 15.1901 24.836L14.5892 24.9151H12.8667L12.1457 24.7965L11.7451 24.7174L10.944 24.5196L10.263 24.2823L9.66216 24.045L9.02125 23.7287L8.34027 23.4123L7.73941 23.0168L7.17861 22.6213C7.17861 22.6213 6.67652 22.1083 6.53769 22.0281Z" fill="#09090B"/>
<path d="M24.0389 20.4141H23.5182L22.8372 20.6514L22.5968 20.8095L22.1162 21.1655L21.6755 21.5214L21.275 21.9169L20.594 22.4706L19.9531 22.9056L19.5124 23.222L18.7914 23.657L18.7606 23.6816L18.7113 23.7361L18.0704 24.0525L17.6297 24.3689L17.2692 24.7248L16.9888 25.1203L16.8687 25.4367V26.1881L16.9087 26.3068L17.109 26.6627L17.3894 26.9L17.7499 27.0582L18.1905 27.2164H18.7513L19.2721 27.1373L19.7528 27.0186L20.2735 26.7813L20.9946 26.3858C20.9946 26.3858 21.5619 25.9811 21.5954 25.9508C21.6289 25.9205 21.69 25.9205 21.69 25.86C21.69 25.7995 21.5554 25.7531 21.5554 25.7531L20.7142 25.6344L20.3136 25.4367L20.0332 25.1203L19.6326 24.9226L19.2721 24.8435H18.8315L18.6312 24.9226L18.3908 25.1599L18.1505 25.5158V25.8717L18.3107 26.109L18.511 26.2277H18.8315L18.9917 26.1486L19.0657 26.1021L19.1119 25.9904L19.207 25.8322L19.2721 25.7926C19.2721 25.7926 19.5124 25.7926 19.5525 25.8322C19.5925 25.8717 19.6326 26.0695 19.5925 26.109C19.5525 26.1486 19.3522 26.3858 19.3522 26.3858L18.9516 26.5045H18.4309L18.0303 26.3858L17.8701 26.2672L17.662 25.9904V25.9205V25.3759L17.9223 24.9226L17.9828 24.8435L18.0704 24.7644L18.6312 24.4875H19.3923L19.8729 24.6457L20.3536 24.883L20.7142 25.1599L21.1948 25.3576L21.8758 25.4762L22.1963 25.4367L22.3164 25.318L22.3966 25.1203L22.1162 24.8435L21.8758 24.2898V23.9339C21.8758 23.9339 21.9167 23.8278 21.9559 23.8152C21.9951 23.8027 22.1162 24.1711 22.1162 24.1711L22.2363 24.6457L22.3164 24.7248L22.5167 24.8435H23.1176L23.1576 24.8039L23.1977 24.6062L22.8372 24.2898L22.6369 24.092L22.5444 23.9842L22.4767 23.8943L22.3565 23.657L22.3164 23.5384L22.2817 22.4706L22.3565 22.3124L22.3966 22.1689L22.4767 22.0355L22.6054 21.8663L22.704 21.7713L22.9974 21.561L23.3579 21.3237L23.7986 21.1655C23.7986 21.1655 24.2061 21.1117 24.1991 21.1259C24.1922 21.1402 24.4363 21.2007 24.4363 21.2007L24.6194 21.3822L24.7414 21.6243L24.84 21.7192L24.9202 21.996V22.3519L24.84 22.7079L24.5997 23.0638L24.2792 23.4197L23.9588 23.5779L23.7039 23.5001L23.5983 23.3011L23.5819 23.2581V23.1975L23.5983 23.1429L23.7986 22.9056L23.9988 22.7079L24.1591 22.787L24.3193 22.8265L24.4795 22.5892L24.4868 22.0478C24.4868 22.0478 24.4795 21.9268 24.4363 21.8663C24.3931 21.8058 24.2532 21.7092 24.21 21.7192C24.1668 21.7291 23.8787 21.6796 23.8787 21.6796L23.4232 21.7587L23.0715 22.0432L22.7971 22.3915L22.6369 22.9056V23.1824L22.717 23.4593L22.8772 23.7361L23.2378 23.9734L23.5182 24.3293L23.7184 24.5271L23.9988 24.4875L24.4795 24.1711L25.1205 23.5384L25.5611 22.787L25.7614 22.3124V21.8773L25.6813 21.561H25.6011V21.3632L25.4409 21.0864L25.1605 20.8095L24.5997 20.5327L24.0389 20.4141Z" fill="#09090B"/>
<path d="M6.08816 5.49713L4.57399 3.68582C4.57399 3.68582 4.5099 3.60673 4.42979 3.59091C4.34967 3.57509 4.10933 3.89147 4.10933 3.89147L3.96512 3.9943L3.80489 4.17622L3.69273 4.30277L3.64467 4.35023L3.28415 4.78526L2.88358 5.29939L2.483 5.89261L2.12249 6.44629L1.72192 7.11861L1.24123 7.98867L1.20117 8.34461L1.24123 8.4237L1.56169 8.66099L2.00232 8.97738L2.32278 9.13557L2.64323 9.33331L3.32421 9.5706H3.60461L6.20833 5.61578L6.08816 5.49713Z" fill="#09090B"/>
<path d="M24.1129 4.43921H24.8063L25.1712 4.61945L25.6091 5.08809L25.828 5.44858V5.84511V5.91721L25.84 6.19402V6.31504L25.828 6.60214L25.7551 6.78239L25.7179 6.85448L25.6456 6.96263L25.4631 7.17892L24.9522 7.53941L24.4779 7.7557L24.1129 7.8278L23.675 7.79175L23.2006 7.68361L22.9817 7.53941L22.7262 7.21497L22.4343 6.74634C22.4343 6.74634 22.3613 6.63819 22.3613 6.60214C22.3613 6.56609 22.3978 6.2777 22.3978 6.2777L22.5438 5.77302L22.8357 5.26833L23.2371 4.90784L23.602 4.6555L24.1129 4.43921ZM23.4196 5.23228C23.3831 5.23228 23.2371 5.44683 23.2371 5.44683L23.1547 5.58891C23.1547 5.58891 23.0865 5.6977 23.0547 5.77302C22.9984 5.90619 22.9716 6.073 22.9716 6.13351C22.9716 6.19402 22.9087 6.2777 22.9087 6.31375C22.9087 6.3498 22.9087 6.45795 22.9087 6.45795L22.9716 6.61759L22.9817 6.63819L23.0547 6.85448L23.2006 7.03473L23.675 7.21497L23.821 7.25102H24.1494L24.6238 7.10683L24.9522 6.85448L25.0982 6.67424L25.2442 6.31375V5.70092L25.0617 5.44858L24.8063 5.30438L24.4779 5.34043L24.04 5.62882L23.8575 5.91721L23.826 5.95197L23.7845 6.06141C23.7845 6.06141 23.743 6.24036 23.7845 6.2777C23.826 6.31504 23.8399 6.39615 23.894 6.38585C23.9481 6.37555 24.0827 6.38456 24.0764 6.3498C24.0702 6.31504 24.2589 5.91721 24.2589 5.91721L24.3319 5.84511C24.3319 5.84511 24.644 5.7949 24.6804 5.83095C24.7169 5.867 24.8063 6.02536 24.8063 6.02536L24.8025 6.073V6.13351L24.8025 6.25453L24.7698 6.45795L24.7333 6.56609L24.7126 6.63819L24.6194 6.73861L24.4974 6.79912L24.1494 6.85448H23.748L23.4561 6.67424L23.2371 6.31375V5.88116C23.2371 5.88116 23.3913 5.64942 23.4561 5.58891C23.5209 5.5284 23.5123 5.30438 23.5123 5.30438C23.5123 5.30438 23.4561 5.23228 23.4196 5.23228Z" fill="#09090B"/>
<path d="M13.9401 21.7119L14.1804 21.791L14.2205 21.8306V23.452L14.0602 23.6102L13.7798 23.5707L13.6597 23.2938V21.9097L13.7798 21.7515L13.9401 21.7119Z" fill="#09090B"/>
</svg>
