<svg width="28" height="29" viewBox="0 0 28 29" fill="none" xmlns="http://www.w3.org/2000/svg">
<path d="M14.1188 4.49475L13.8785 4.4552L13.7583 4.5343L13.4779 4.85068L12.877 5.40436L12.5165 5.79984L12.4364 5.95803H12.3563L12.2762 6.07668L12.1961 6.27442H12.1159L11.8756 6.59081L11.475 7.10493L11.0744 7.65861L10.754 8.25183L10.3534 9.00325L10.1531 9.67557L10.073 10.1897L10.033 10.2688V11.4948L10.1131 12.0089L10.1932 12.3253L10.3534 12.7208L10.6739 13.3536L10.8742 13.6699L10.9943 13.8677L11.0705 13.9554L11.1145 13.9863L11.3949 14.3027L11.7955 14.6586L11.8638 14.742L11.9557 14.8168L12.156 14.9355L12.7969 15.2519L13.0773 15.331L13.3177 15.4496L13.5981 15.4892L13.6782 15.3705L13.7182 14.975V12.6417L13.558 12.4439L13.1574 12.3253L12.877 12.1671L12.3162 11.7716L12.1159 11.5343L11.625 11.0093L11.3148 10.1501L11.2347 9.95241L11.1713 9.85964L11.1546 9.39873L11.3148 9.35918L11.5151 9.39873L11.6352 9.75466L11.7554 9.99195L11.9557 10.5061L12.0759 10.7038L12.6367 11.4552L13.0373 11.7716L13.3978 11.9694H13.6381L13.7182 11.8507V8.05409L13.7583 6.63035L13.7983 6.59081L13.9986 6.55126L14.0787 6.6699L14.1188 11.9298L14.1589 11.9694H14.3992L14.7197 11.8112L15.0001 11.6134L15.2404 11.4552L15.5609 11.1389L16.229 9.88852L16.5021 9.47783C16.5021 9.47783 16.64 9.36139 16.6825 9.39873C16.725 9.43607 16.7225 9.47783 16.7225 9.47783L16.5623 10.2688L16.0816 11.1389L15.7211 11.5739L15.4006 11.8903L14.96 12.1671L14.5995 12.3648L14.239 12.523L14.1589 12.7603V13.3931L14.1188 13.5908V15.4101L14.1989 15.4892L14.4393 15.5287L14.6796 15.4496L15.4006 15.1332L15.7611 14.8959L15.8012 14.8168L15.8813 14.7773L16.2018 14.54L16.2978 14.4584L16.362 14.3818L16.4421 14.2236L17.1632 13.3536L17.2032 13.2745L17.4573 12.8852L17.7014 12.1671L17.8235 10.8278L17.724 9.59647L17.5637 9.07301L17.4035 8.68686L17.2433 8.41002L17.083 8.13319L16.9691 8.04433L16.9081 7.9233L16.847 7.80228L16.7626 7.7377L16.725 7.62075L16.6024 7.50041L16.5419 7.37871L16.4809 7.25769L16.4198 7.13667L16.3588 7.01565L16.2819 6.90719L16.2018 6.78855L16.1757 6.7736L16.1217 6.6699L15.9214 6.43261L15.8706 6.35003L15.8012 6.27442L15.3205 5.72074L14.6395 5.04842L14.3591 4.73204L14.1989 4.65294L14.1188 4.49475Z" fill="#16A249"/>
<path d="M14.9492 0.5H12.7461L12.5859 0.539548L11.5844 0.658193L11.1038 0.776838L10.4628 0.895482L9.62163 1.13277L9.14094 1.33051L8.58014 1.52825L7.65883 1.92374L6.81762 2.39832L6.17671 2.7938L5.57585 3.18928L5.25539 3.46612L5.21533 3.70341L5.37556 4.09889L5.49573 4.33618L5.77613 4.77121L6.05653 5.0876L6.16068 5.18251L6.21676 5.24579L6.73751 5.75992L6.97785 5.72037L7.04194 5.65709L7.09802 5.60172L7.20217 5.4989L7.25825 5.44353L7.57871 5.20624L8.29974 4.73166L8.66026 4.53392L9.06083 4.33618L9.34123 4.21754L9.70175 4.01979L10.0222 3.90115L10.3026 3.7825L10.8634 3.62431L11.5043 3.50567L11.985 3.38702L12.4657 3.30793L13.2268 3.26838L13.5072 3.22883H14.4285L15.5501 3.30793L15.7504 3.34747L16.2711 3.42657L16.872 3.54521L18.0337 3.9407L18.4342 4.13844L18.9149 4.33618L19.4757 4.65257L19.9163 4.9294L20.357 5.24579L21.038 5.75992L21.4385 6.11585L21.759 6.51133L21.9593 6.55088L22.0794 6.43224L22.6803 5.20624L22.7524 5.11924L22.8005 5.04805L23.0809 4.73166L23.4013 4.49437L23.6016 4.33618L23.6978 4.21754L23.6417 4.05934L23.3212 3.74296L22.8806 3.42657L21.799 2.7147L21.1581 2.35877L20.5573 2.04238L19.9163 1.76554L19.2754 1.44916L18.5945 1.21187L17.6731 0.974579L16.7518 0.737289L15.7905 0.618645L14.9492 0.5Z" fill="#16A249"/>
<path d="M21.826 11.6398C21.826 11.6398 21.778 11.2127 21.7139 11.1336C21.6498 11.0545 21.3614 11.2127 21.3614 11.2127L20.8727 11.4421L20.432 11.6398L20.1116 11.7585L19.4306 12.1144L18.6695 12.4703L18.1488 12.7867L17.9485 13.024L17.8283 13.3404L17.4556 13.9086L17.0672 14.3686L16.8269 14.6455L16.2464 15.1735L15.9857 15.3574L15.6252 15.5551V15.6342H15.505L15.3047 15.7528L14.9041 15.911L14.4234 16.0297L14.3033 16.1088L14.2232 16.267V17.6116L14.1831 19.0353V19.6681L14.2232 19.7077L14.3834 19.7472L14.7439 19.4704L15.1445 19.1935L15.2539 19.1434L15.3714 19.0353L15.505 18.9136L15.505 18.9136L16.1059 18.4026L17.2275 17.4534L17.5479 17.1766L17.628 17.0184L18.3491 16.3856L18.5894 16.1088L18.6615 15.9979L18.779 15.8814L18.8297 15.8319L18.8965 15.7649L18.9207 15.7133L18.99 15.5946L19.1315 15.4154L19.5105 14.8464L19.8312 14.2895L20.0315 13.9732L20.0598 13.8177L20.1116 13.6963L20.142 13.6362C20.142 13.6362 20.5522 13.3297 20.5923 13.3404C20.6323 13.3511 20.6323 13.459 20.6323 13.459V13.6568L20.4721 14.0918L20.2318 14.6059L19.8712 15.2387L18.8297 16.5042L18.7496 16.6624H18.6695V16.7415H18.5894V16.8206H18.5093V16.8997H18.4292L18.2689 17.0975L17.9485 17.3743V17.4534H17.8684L17.628 17.6511V17.8489L17.7081 17.8884L18.2289 17.8489L18.8698 17.6116L19.5107 17.2952C19.5107 17.2952 19.8312 17.137 19.8712 17.2161C19.9113 17.2952 19.9113 17.4139 19.9113 17.4139L19.7511 17.6116L19.2303 17.928L18.7496 18.1257L18.3891 18.2444L17.9084 18.363L16.8669 18.4817L16.5865 18.6399L16.5633 18.6753L16.5064 18.719L16.186 18.9562L15.1044 19.7868L14.6638 20.1427L14.6103 20.188L14.4635 20.3009L14.2632 20.5382L14.1831 21.0918V21.5664L14.2632 21.6455H14.6638L15.505 21.4873L16.3061 21.25L16.7468 21.0918L17.1874 20.8941L17.9485 20.5382L18.9099 19.7868L19.5508 19.2331L20.1116 18.719L20.6323 18.0862L21.3133 16.7811L21.4735 16.3461L21.6017 15.9506L21.794 15.1596L21.9542 14.1314V12.9845L21.826 11.6398Z" fill="#16A249"/>
<path d="M6.32179 11.151L6.04139 11.1115L5.92122 11.2301L5.88116 11.7442L5.8411 11.9024L5.80104 12.4165L5.76099 12.5352V14.1567L5.80104 14.3149L5.8411 14.829L5.92122 15.2245L6.08144 15.8572L6.24167 16.3318L6.48202 16.9646L6.6823 17.3205L6.88259 17.716L7.12293 18.0324L7.52351 18.5861L8.08431 19.2188L8.44482 19.5352L8.88545 19.8912L9.24597 20.1285L9.36172 20.188L9.44625 20.2866L10.0071 20.603L10.648 20.9194L11.2889 21.1963L11.9699 21.3544L12.9713 21.5522H13.3318L13.4119 21.4731V20.603L13.3719 20.4844V20.4301L13.2918 20.2866V20.2486L13.2116 20.2075L13.0845 20.1275L12.9713 20.0494L12.9014 20.0065L12.8111 19.9307L12.5707 19.733L12.1301 19.4166L12.047 19.3409L11.9298 19.2584L11.5693 18.9816L11.4892 18.9173L11.369 18.8234L11.1316 18.6753L11.0705 18.6148L10.9485 18.4937L10.5823 18.3488H10.1673H9.60648L9.56643 18.3092L8.96557 18.1906L8.64511 17.9928C8.64511 17.9928 8.21155 17.8639 7.99576 17.6765C7.92934 17.6188 7.84396 17.5183 7.80391 17.5183C7.76385 17.5183 7.68374 17.3996 7.68374 17.3996C7.68374 17.3996 7.67082 17.2402 7.72379 17.1623C7.74847 17.126 7.76385 17.125 7.80391 17.0832C7.84396 17.0415 8.12668 17.1228 8.16442 17.1228C8.20216 17.1228 8.38525 17.2414 8.38525 17.2414L9.00562 17.6765L9.52637 17.7951L9.84683 17.9137L10.0471 17.8742L10.0872 17.6765L10.0071 17.5974L9.80677 17.4787L9.60648 17.3996V17.3205L9.44625 17.2414V17.1228L9.08574 16.7668L8.80534 16.4505L8.6904 16.3759L8.64511 16.2527L8.48488 16.055L7.92408 15.4618L6.95547 14.0322C6.95547 14.0322 6.79442 13.7021 6.83341 13.4876C6.86178 13.3316 6.95547 13.1246 7.0165 13.1246C7.07753 13.1246 7.38267 13.3666 7.40333 13.4052C7.42399 13.4439 7.52351 13.7216 7.52351 13.7216L7.76385 14.1567L7.92408 14.5126L7.97568 14.6211L8.08431 14.7499L8.12623 14.829L8.16442 14.8685L8.565 15.4618L9.28603 16.2923L10.5278 17.5183L11.0886 17.9928L11.4892 18.329L11.5292 18.3488L11.8497 18.6256L12.4906 19.1002L12.6158 19.1793L12.6508 19.2584L12.9312 19.4561L13.1315 19.6539L13.3719 19.6934L13.4119 19.6143L13.452 19.1793V18.0324L13.4119 17.281V16.0945L13.3318 15.9759L13.0514 15.8968L12.771 15.7781L12.3704 15.6595L12.09 15.5013L11.6895 15.264L10.0872 13.603L9.6866 12.8516L9.20591 12.5747L8.565 12.2188L7.80391 11.8629L7.16299 11.5069L6.64225 11.3092L6.32179 11.151Z" fill="#16A249"/>
<path d="M1.04149 9.71472L0.761088 9.67517L0.640916 9.87291L0.451522 10.3475L0.160229 11.2127L0 12.0599V13.195L0.0801145 16.2402L0.200286 16.9916L0.44063 17.9803L0.560802 18.0989L0.841203 18.1385L1.28183 17.9803L1.44206 18.0199V18.178L1.1216 18.3758L0.921317 18.5735V18.7713L1.24178 18.969V19.1668L1.00143 19.5227V19.7995L1.20172 20.2346L1.44206 20.5509L1.68241 20.986L2.04292 21.5001L2.40344 22.0538V22.3702L2.36338 22.4888V23.2007L2.48355 23.5962L2.76395 24.1498L3.04435 24.3871L3.44493 24.5453L3.64521 24.5058L3.72533 24.3871L3.76538 23.9521L3.80544 23.8334L3.96567 23.438L4.24607 23.0029L4.60659 22.647L5.04722 22.3702L5.2475 22.2515L5.5279 22.1724C5.5279 22.1724 5.82211 21.9428 5.8083 21.7769C5.7945 21.6111 5.45593 21.4587 5.45593 21.4587L5.33387 21.2772L3.24464 17.9408L3.21259 17.8696L3.16452 17.7826L3.0043 17.7035L2.72389 17.743L2.48355 17.7826L2.52361 17.5848L2.96424 17.3871L2.98827 17.1102L2.92418 16.9125L2.87611 16.7306L2.82804 16.4775L2.77997 16.1927L2.96424 10.5452L2.44349 10.3475L2.16309 10.1893L1.72246 9.99156L1.04149 9.71472Z" fill="#16A249"/>
<path d="M26.3978 7.4605C26.3255 7.39941 26.1975 7.4605 26.1975 7.4605L26.0774 7.57915L25.4365 8.21192L24.9558 8.48876L24.4751 8.6865L23.7541 8.72605L23.714 8.76559L23.6739 8.92379L23.7941 9.12153L23.9944 9.47746L24.2748 9.95204L24.4751 10.4266L24.8356 11.3758L25.0359 12.2063L25.1561 12.6413L25.1961 13.0764L25.2762 13.2345H25.5566L26.1174 13.0368H26.4779L26.4379 13.195L26.1174 13.4323L25.4365 13.8278L25.2362 14.0255V15.5283L25.1561 16.1216L25.0759 16.4775L24.8356 17.3871L24.5151 18.3363L24.1546 19.0086L23.7941 19.76L23.4336 20.2346L23.4737 20.4323L24.1947 20.4719L24.5151 20.551L24.9558 20.7092L25.3563 20.9465L25.6367 21.2628L25.7569 21.4606L25.8771 21.5792L26.0373 21.6188L26.1174 21.5397L26.2777 21.1442L26.7984 20.2346L27.199 19.4436L27.4393 18.7318L27.7598 17.6244L27.9974 15.388L28.0001 14.0255V13.5727V13.3532C28.0001 13.3532 27.9968 12.3624 27.9968 12.3019C27.9968 12.2414 27.92 11.8504 27.92 11.8504L26.8785 8.52831L26.5581 7.65824C26.5581 7.65824 26.4702 7.5216 26.3978 7.4605Z" fill="#16A249"/>
<path d="M6.53769 22.5282C6.39887 22.448 6.13712 22.5282 6.13712 22.5282L5.61638 22.6864L5.25586 22.8446L4.9354 23.0819L4.61495 23.3587L4.3746 23.7146L4.21437 24.2288L4.17432 24.6243L4.29449 24.822L5.17575 25.4548L5.89678 26.0084L6.29735 26.2457L6.65787 26.4435L7.05844 26.6808L7.77947 27.0762L8.05987 27.1158L8.18004 27.0367L8.34027 26.6808L8.46044 26.5226L8.74084 26.2457C8.74084 26.2457 8.86102 26.056 8.94113 26.1271C9.02125 26.1982 8.94113 26.6218 8.94113 26.6218L8.86102 27.1158L8.90107 27.2344L9.02125 27.3926H9.26159L9.50193 27.1553C9.50193 27.1553 9.63106 26.9972 9.70222 27.0762L9.98262 27.9859L10.9841 28.2231L12.0255 28.4209L13.1872 28.4604L13.5077 28.5H14.7094L15.9512 28.4209L17.233 28.2231C17.233 28.2231 17.6244 28.0755 17.6736 28.065C17.7228 28.0544 17.7228 27.9939 17.6736 27.9859C17.6244 27.9779 17.1736 27.6913 17.1736 27.6913L15.4705 25.2966C15.3541 25.257 15.1901 25.3361 15.1901 25.3361L14.5892 25.4152H12.8667L12.1457 25.2966L11.7451 25.2175L10.944 25.0197L10.263 24.7825L9.66216 24.5452L9.02125 24.2288L8.34027 23.9124L7.73941 23.5169L7.17861 23.1214C7.17861 23.1214 6.67652 22.6084 6.53769 22.5282Z" fill="#16A249"/>
<path d="M24.0387 20.9142H23.5179L22.8369 21.1515L22.5966 21.3097L22.1159 21.6656L21.6753 22.0215L21.2747 22.417L20.5937 22.9707L19.9528 23.4057L19.5122 23.7221L18.7912 24.1571L18.7603 24.1818L18.711 24.2362L18.0701 24.5526L17.6295 24.869L17.269 25.2249L16.9886 25.6204L16.8684 25.9368V26.6882L16.9085 26.8069L17.1088 27.1628L17.3892 27.4001L17.7497 27.5583L18.1903 27.7165H18.7511L19.2718 27.6374L19.7525 27.5187L20.2733 27.2815L20.9943 26.886C20.9943 26.886 21.5616 26.4812 21.5952 26.4509C21.6287 26.4206 21.6897 26.4206 21.6897 26.3601C21.6897 26.2996 21.5551 26.2532 21.5551 26.2532L20.7139 26.1346L20.3133 25.9368L20.0329 25.6204L19.6324 25.4227L19.2718 25.3436H18.8312L18.6309 25.4227L18.3906 25.66L18.1502 26.0159V26.3718L18.3105 26.6091L18.5108 26.7278H18.8312L18.9914 26.6487L19.0655 26.6022L19.1116 26.4905L19.2068 26.3323L19.2718 26.2927C19.2718 26.2927 19.5122 26.2927 19.5522 26.3323C19.5923 26.3718 19.6324 26.5696 19.5923 26.6091C19.5522 26.6487 19.352 26.886 19.352 26.886L18.9514 27.0046H18.4306L18.0301 26.886L17.8698 26.7673L17.6618 26.4905V26.4206V25.8761L17.922 25.4227L17.9826 25.3436L18.0701 25.2645L18.6309 24.9877H19.392L19.8727 25.1458L20.3534 25.3831L20.7139 25.66L21.1946 25.8577L21.8756 25.9764L22.196 25.9368L22.3162 25.8182L22.3963 25.6204L22.1159 25.3436L21.8756 24.7899V24.434C21.8756 24.434 21.9165 24.3279 21.9557 24.3153C21.9949 24.3028 22.1159 24.6713 22.1159 24.6713L22.2361 25.1458L22.3162 25.2249L22.5165 25.3436H23.1173L23.1574 25.304L23.1975 25.1063L22.8369 24.7899L22.6367 24.5922L22.5441 24.4843L22.4764 24.3944L22.3563 24.1571L22.3162 24.0385L22.2814 22.9707L22.3563 22.8125L22.3963 22.669L22.4764 22.5357L22.6052 22.3664L22.7037 22.2714L22.9972 22.0611L23.3577 21.8238L23.7983 21.6656C23.7983 21.6656 24.2058 21.6118 24.1989 21.6261C24.1919 21.6403 24.436 21.7008 24.436 21.7008L24.6191 21.8824L24.7412 22.1244L24.8398 22.2193L24.9199 22.4961V22.852L24.8398 23.208L24.5995 23.5639L24.279 23.9199L23.9585 24.078L23.7037 24.0002L23.598 23.8012L23.5816 23.7582V23.6977L23.598 23.643L23.7983 23.4057L23.9986 23.208L24.1588 23.2871L24.3191 23.3266L24.4793 23.0893L24.4865 22.548C24.4865 22.548 24.4793 22.4269 24.436 22.3664C24.3928 22.3059 24.253 22.2093 24.2097 22.2193C24.1665 22.2292 23.8784 22.1797 23.8784 22.1797L23.4229 22.2588L23.0712 22.5434L22.7969 22.8916L22.6367 23.4057V23.6826L22.7168 23.9594L22.877 24.2362L23.2375 24.4735L23.5179 24.8295L23.7182 25.0272L23.9986 24.9877L24.4793 24.6713L25.1202 24.0385L25.5608 23.2871L25.7611 22.8125V22.3775L25.681 22.0611H25.6009V21.8633L25.4407 21.5865L25.1603 21.3097L24.5995 21.0328L24.0387 20.9142Z" fill="#16A249"/>
<path d="M6.08865 5.99713L4.57448 4.18582C4.57448 4.18582 4.51039 4.10673 4.43028 4.09091C4.35016 4.07509 4.10982 4.39147 4.10982 4.39147L3.96561 4.4943L3.80538 4.67622L3.69322 4.80277L3.64515 4.85023L3.28464 5.28526L2.88407 5.79939L2.48349 6.39261L2.12298 6.94629L1.7224 7.61861L1.24172 8.48867L1.20166 8.84461L1.24172 8.9237L1.56218 9.16099L2.00281 9.47738L2.32326 9.63557L2.64372 9.83331L3.3247 10.0706H3.6051L6.20882 6.11578L6.08865 5.99713Z" fill="#16A249"/>
<path d="M24.1127 4.93933H24.806L25.171 5.11958L25.6089 5.58821L25.8278 5.9487V6.34524V6.41733L25.8398 6.69414V6.81516L25.8278 7.10226L25.7548 7.28251L25.7177 7.35461L25.6453 7.46275L25.4629 7.67905L24.952 8.03953L24.4776 8.25583L24.1127 8.32792L23.6748 8.29188L23.2004 8.18373L22.9814 8.03953L22.726 7.71509L22.4341 7.24646C22.4341 7.24646 22.3611 7.13831 22.3611 7.10226C22.3611 7.06621 22.3976 6.77782 22.3976 6.77782L22.5435 6.27314L22.8355 5.76846L23.2369 5.40797L23.6018 5.15562L24.1127 4.93933ZM23.4193 5.73241C23.3829 5.73241 23.2369 5.94695 23.2369 5.94695L23.1545 6.08903C23.1545 6.08903 23.0863 6.19782 23.0544 6.27314C22.9981 6.40631 22.9714 6.57312 22.9714 6.63363C22.9714 6.69414 22.9085 6.77782 22.9085 6.81387C22.9085 6.84992 22.9085 6.95807 22.9085 6.95807L22.9714 7.11771L22.9814 7.13831L23.0544 7.35461L23.2004 7.53485L23.6748 7.71509L23.8208 7.75114H24.1492L24.6236 7.60695L24.952 7.35461L25.098 7.17436L25.2439 6.81387V6.20104L25.0615 5.9487L24.806 5.8045L24.4776 5.84055L24.0397 6.12894L23.8572 6.41733L23.8258 6.4521L23.7843 6.56153C23.7843 6.56153 23.7427 6.74049 23.7843 6.77782C23.8258 6.81516 23.8396 6.89627 23.8937 6.88597C23.9478 6.87567 24.0825 6.88468 24.0762 6.84992C24.0699 6.81516 24.2587 6.41733 24.2587 6.41733L24.3316 6.34524C24.3316 6.34524 24.6437 6.29503 24.6802 6.33107C24.7167 6.36712 24.806 6.52548 24.806 6.52548L24.8023 6.57312V6.63363L24.8023 6.75465L24.7695 6.95807L24.7331 7.06621L24.7124 7.13831L24.6192 7.23873L24.4971 7.29924L24.1492 7.35461H23.7478L23.4558 7.17436L23.2369 6.81387V6.38129C23.2369 6.38129 23.391 6.14954 23.4558 6.08903C23.5206 6.02852 23.5121 5.8045 23.5121 5.8045C23.5121 5.8045 23.4558 5.73241 23.4193 5.73241Z" fill="#16A249"/>
<path d="M13.9398 22.212L14.1802 22.2911L14.2202 22.3307V23.9522L14.06 24.1104L13.7796 24.0708L13.6594 23.794V22.4098L13.7796 22.2516L13.9398 22.212Z" fill="#16A249"/>
</svg>
