<svg width="150" height="154" viewBox="0 0 150 154" fill="none" xmlns="http://www.w3.org/2000/svg">
<path d="M0.5 6C0.5 2.96244 2.96243 0.5 6 0.5H144C147.038 0.5 149.5 2.96243 149.5 6V148C149.5 151.038 147.038 153.5 144 153.5H6C2.96244 153.5 0.5 151.038 0.5 148V6Z" fill="#1C1917" stroke="#27272A"/>
<path d="M0.5 126C0.5 122.962 2.96243 120.5 6 120.5H144C147.038 120.5 149.5 122.962 149.5 126V148C149.5 151.038 147.038 153.5 144 153.5H6C2.96244 153.5 0.5 151.038 0.5 148V126Z" fill="#21C45D" stroke="#27272A"/>
<path d="M20.12 142V132.06H23.648C24.7213 132.06 25.6173 132.284 26.336 132.732C27.0547 133.171 27.5913 133.768 27.946 134.524C28.31 135.271 28.492 136.101 28.492 137.016C28.492 138.024 28.2913 138.901 27.89 139.648C27.498 140.395 26.938 140.973 26.21 141.384C25.482 141.795 24.628 142 23.648 142H20.12ZM26.896 137.016C26.896 136.316 26.7653 135.7 26.504 135.168C26.252 134.627 25.8833 134.207 25.398 133.908C24.922 133.6 24.3387 133.446 23.648 133.446H21.688V140.614H23.648C24.348 140.614 24.936 140.455 25.412 140.138C25.8973 139.821 26.266 139.391 26.518 138.85C26.77 138.309 26.896 137.697 26.896 137.016ZM33.2355 142.14C32.6568 142.14 32.1388 142.042 31.6815 141.846C31.2242 141.641 30.8275 141.361 30.4915 141.006C30.1648 140.651 29.9128 140.25 29.7355 139.802C29.5582 139.345 29.4695 138.859 29.4695 138.346C29.4695 137.833 29.5582 137.347 29.7355 136.89C29.9128 136.433 30.1648 136.031 30.4915 135.686C30.8275 135.331 31.2242 135.056 31.6815 134.86C32.1482 134.655 32.6662 134.552 33.2355 134.552C33.8048 134.552 34.3182 134.655 34.7755 134.86C35.2422 135.056 35.6388 135.331 35.9655 135.686C36.3015 136.031 36.5582 136.433 36.7355 136.89C36.9128 137.347 37.0015 137.833 37.0015 138.346C37.0015 138.859 36.9128 139.345 36.7355 139.802C36.5582 140.25 36.3015 140.651 35.9655 141.006C35.6388 141.361 35.2422 141.641 34.7755 141.846C34.3182 142.042 33.8048 142.14 33.2355 142.14ZM31.0515 138.36C31.0515 138.827 31.1495 139.247 31.3455 139.62C31.5415 139.993 31.8028 140.287 32.1295 140.502C32.4562 140.717 32.8248 140.824 33.2355 140.824C33.6368 140.824 34.0008 140.717 34.3275 140.502C34.6635 140.278 34.9295 139.979 35.1255 139.606C35.3215 139.223 35.4195 138.803 35.4195 138.346C35.4195 137.879 35.3215 137.459 35.1255 137.086C34.9295 136.713 34.6635 136.419 34.3275 136.204C34.0008 135.98 33.6368 135.868 33.2355 135.868C32.8248 135.868 32.4562 135.98 32.1295 136.204C31.8028 136.428 31.5415 136.727 31.3455 137.1C31.1495 137.464 31.0515 137.884 31.0515 138.36ZM44.9334 142H43.3934V137.898C43.3934 137.217 43.2814 136.717 43.0574 136.4C42.8427 136.083 42.5207 135.924 42.0914 135.924C41.7927 135.924 41.494 135.999 41.1954 136.148C40.906 136.297 40.6447 136.503 40.4114 136.764C40.178 137.016 40.01 137.31 39.9074 137.646V142H38.3674V134.678H39.7674V136.148C39.954 135.821 40.1967 135.541 40.4954 135.308C40.8034 135.065 41.1487 134.879 41.5314 134.748C41.914 134.617 42.32 134.552 42.7494 134.552C43.188 134.552 43.5474 134.631 43.8274 134.79C44.1167 134.949 44.3407 135.168 44.4994 135.448C44.6674 135.719 44.7794 136.036 44.8354 136.4C44.9007 136.755 44.9334 137.133 44.9334 137.534V142ZM50.0389 142.14C49.4695 142.14 48.9515 142.042 48.4849 141.846C48.0275 141.641 47.6309 141.365 47.2949 141.02C46.9589 140.665 46.6975 140.264 46.5109 139.816C46.3335 139.359 46.2449 138.873 46.2449 138.36C46.2449 137.669 46.4035 137.039 46.7209 136.47C47.0382 135.891 47.4815 135.429 48.0509 135.084C48.6202 134.729 49.2875 134.552 50.0529 134.552C50.8182 134.552 51.4762 134.729 52.0269 135.084C52.5869 135.429 53.0209 135.887 53.3289 136.456C53.6369 137.025 53.7909 137.637 53.7909 138.29C53.7909 138.402 53.7862 138.509 53.7769 138.612C53.7675 138.705 53.7582 138.785 53.7489 138.85H47.8829C47.9109 139.279 48.0275 139.657 48.2329 139.984C48.4475 140.301 48.7182 140.553 49.0449 140.74C49.3715 140.917 49.7215 141.006 50.0949 141.006C50.5055 141.006 50.8929 140.903 51.2569 140.698C51.6302 140.493 51.8822 140.222 52.0129 139.886L53.3289 140.264C53.1702 140.619 52.9275 140.941 52.6009 141.23C52.2835 141.51 51.9055 141.734 51.4669 141.902C51.0282 142.061 50.5522 142.14 50.0389 142.14ZM47.8409 137.828H52.2649C52.2369 137.408 52.1155 137.039 51.9009 136.722C51.6955 136.395 51.4295 136.143 51.1029 135.966C50.7855 135.779 50.4309 135.686 50.0389 135.686C49.6562 135.686 49.3015 135.779 48.9749 135.966C48.6575 136.143 48.3962 136.395 48.1909 136.722C47.9855 137.039 47.8689 137.408 47.8409 137.828Z" fill="#F2F2F2"/>
<path d="M43.5 31.5C43.5 36.4467 39.2712 40.5 34 40.5C28.7288 40.5 24.5 36.4467 24.5 31.5C24.5 26.5533 28.7288 22.5 34 22.5C39.2712 22.5 43.5 26.5533 43.5 31.5Z" fill="#0C0A09" stroke="#21C45D"/>
<ellipse cx="34" cy="31.5" rx="6" ry="5.5" fill="#21C45D"/>
<path d="M43.5 55.5C43.5 60.4467 39.2712 64.5 34 64.5C28.7288 64.5 24.5 60.4467 24.5 55.5C24.5 50.5533 28.7288 46.5 34 46.5C39.2712 46.5 43.5 50.5533 43.5 55.5Z" fill="#0C0A09" stroke="#F2F2F2"/>
<path d="M43.5 79.5C43.5 84.4467 39.2712 88.5 34 88.5C28.7288 88.5 24.5 84.4467 24.5 79.5C24.5 74.5533 28.7288 70.5 34 70.5C39.2712 70.5 43.5 74.5533 43.5 79.5Z" fill="#0C0A09" stroke="#F2F2F2"/>
<path d="M62.25 35.07C61.5313 35.07 60.8827 34.93 60.304 34.65C59.7253 34.37 59.226 33.992 58.806 33.516C58.386 33.0307 58.0593 32.4893 57.826 31.892C57.602 31.2853 57.49 30.6647 57.49 30.03C57.49 29.3673 57.6113 28.7373 57.854 28.14C58.0967 27.5333 58.4327 26.9967 58.862 26.53C59.2913 26.054 59.7953 25.6807 60.374 25.41C60.962 25.13 61.5967 24.99 62.278 24.99C62.9873 24.99 63.6313 25.1347 64.21 25.424C64.798 25.7133 65.2973 26.1007 65.708 26.586C66.128 27.0713 66.45 27.6127 66.674 28.21C66.9073 28.8073 67.024 29.4187 67.024 30.044C67.024 30.7067 66.9027 31.3413 66.66 31.948C66.4267 32.5453 66.0953 33.082 65.666 33.558C65.2367 34.0247 64.728 34.3933 64.14 34.664C63.5613 34.9347 62.9313 35.07 62.25 35.07ZM59.086 30.03C59.086 30.4967 59.1607 30.9493 59.31 31.388C59.4593 31.8267 59.6693 32.2187 59.94 32.564C60.22 32.9 60.556 33.166 60.948 33.362C61.34 33.558 61.7787 33.656 62.264 33.656C62.768 33.656 63.216 33.5533 63.608 33.348C64 33.1427 64.3267 32.8673 64.588 32.522C64.8587 32.1673 65.064 31.7753 65.204 31.346C65.344 30.9073 65.414 30.4687 65.414 30.03C65.414 29.5633 65.3393 29.1153 65.19 28.686C65.05 28.2473 64.84 27.86 64.56 27.524C64.28 27.1787 63.944 26.908 63.552 26.712C63.1693 26.516 62.74 26.418 62.264 26.418C61.76 26.418 61.312 26.5207 60.92 26.726C60.528 26.9313 60.1967 27.2067 59.926 27.552C59.6553 27.8973 59.4453 28.2847 59.296 28.714C59.156 29.1433 59.086 29.582 59.086 30.03ZM72.541 35.14C71.953 35.14 71.435 35 70.987 34.72C70.539 34.44 70.1843 34.076 69.923 33.628V37.982H68.383V27.678H69.741V28.994C70.021 28.5553 70.385 28.2053 70.833 27.944C71.281 27.6827 71.7803 27.552 72.331 27.552C72.835 27.552 73.297 27.6547 73.717 27.86C74.137 28.056 74.501 28.3313 74.809 28.686C75.117 29.0407 75.355 29.4467 75.523 29.904C75.7003 30.352 75.789 30.828 75.789 31.332C75.789 32.032 75.649 32.6713 75.369 33.25C75.0983 33.8287 74.7157 34.2907 74.221 34.636C73.7357 34.972 73.1757 35.14 72.541 35.14ZM72.037 33.824C72.3637 33.824 72.6577 33.754 72.919 33.614C73.1897 33.474 73.4183 33.2873 73.605 33.054C73.801 32.8207 73.9503 32.5547 74.053 32.256C74.1557 31.9573 74.207 31.6493 74.207 31.332C74.207 30.996 74.151 30.6787 74.039 30.38C73.927 30.0813 73.7637 29.82 73.549 29.596C73.3437 29.372 73.101 29.1947 72.821 29.064C72.5503 28.9333 72.2517 28.868 71.925 28.868C71.729 28.868 71.5237 28.9053 71.309 28.98C71.0943 29.0547 70.8937 29.1573 70.707 29.288C70.5203 29.4187 70.357 29.5727 70.217 29.75C70.077 29.9273 69.979 30.114 69.923 30.31V32.228C70.0537 32.5267 70.2263 32.7973 70.441 33.04C70.6557 33.2733 70.903 33.4647 71.183 33.614C71.463 33.754 71.7477 33.824 72.037 33.824ZM81.1386 34.622C81.008 34.6873 80.8446 34.7573 80.6486 34.832C80.4526 34.9067 80.2286 34.972 79.9766 35.028C79.734 35.084 79.482 35.112 79.2206 35.112C78.9033 35.112 78.6093 35.056 78.3386 34.944C78.068 34.832 77.8486 34.6547 77.6806 34.412C77.522 34.16 77.4426 33.838 77.4426 33.446V28.868H76.4766V27.678H77.4426V25.27H78.9826V27.678H80.5786V28.868H78.9826V32.956C79.0013 33.208 79.0806 33.3947 79.2206 33.516C79.37 33.6373 79.552 33.698 79.7666 33.698C79.9813 33.698 80.1866 33.6607 80.3826 33.586C80.5786 33.5113 80.7233 33.4507 80.8166 33.404L81.1386 34.622ZM82.2052 35V27.678H83.7453V35H82.2052ZM82.2052 26.474V24.78H83.7453V26.474H82.2052ZM88.8859 35.14C88.3072 35.14 87.7892 35.042 87.3319 34.846C86.8745 34.6407 86.4779 34.3607 86.1419 34.006C85.8152 33.6513 85.5632 33.25 85.3859 32.802C85.2085 32.3447 85.1199 31.8593 85.1199 31.346C85.1199 30.8327 85.2085 30.3473 85.3859 29.89C85.5632 29.4327 85.8152 29.0313 86.1419 28.686C86.4779 28.3313 86.8745 28.056 87.3319 27.86C87.7985 27.6547 88.3165 27.552 88.8859 27.552C89.4552 27.552 89.9685 27.6547 90.4259 27.86C90.8925 28.056 91.2892 28.3313 91.6159 28.686C91.9519 29.0313 92.2085 29.4327 92.3859 29.89C92.5632 30.3473 92.6519 30.8327 92.6519 31.346C92.6519 31.8593 92.5632 32.3447 92.3859 32.802C92.2085 33.25 91.9519 33.6513 91.6159 34.006C91.2892 34.3607 90.8925 34.6407 90.4259 34.846C89.9685 35.042 89.4552 35.14 88.8859 35.14ZM86.7019 31.36C86.7019 31.8267 86.7999 32.2467 86.9959 32.62C87.1919 32.9933 87.4532 33.2873 87.7799 33.502C88.1065 33.7167 88.4752 33.824 88.8859 33.824C89.2872 33.824 89.6512 33.7167 89.9779 33.502C90.3139 33.278 90.5799 32.9793 90.7759 32.606C90.9719 32.2233 91.0699 31.8033 91.0699 31.346C91.0699 30.8793 90.9719 30.4593 90.7759 30.086C90.5799 29.7127 90.3139 29.4187 89.9779 29.204C89.6512 28.98 89.2872 28.868 88.8859 28.868C88.4752 28.868 88.1065 28.98 87.7799 29.204C87.4532 29.428 87.1919 29.7267 86.9959 30.1C86.7999 30.464 86.7019 30.884 86.7019 31.36ZM100.584 35H99.0438V30.898C99.0438 30.2167 98.9318 29.7173 98.7078 29.4C98.4931 29.0827 98.1711 28.924 97.7418 28.924C97.4431 28.924 97.1444 28.9987 96.8458 29.148C96.5564 29.2973 96.2951 29.5027 96.0618 29.764C95.8284 30.016 95.6604 30.31 95.5578 30.646V35H94.0177V27.678H95.4178V29.148C95.6044 28.8213 95.8471 28.5413 96.1458 28.308C96.4538 28.0653 96.7991 27.8787 97.1818 27.748C97.5644 27.6173 97.9704 27.552 98.3998 27.552C98.8384 27.552 99.1978 27.6313 99.4778 27.79C99.7671 27.9487 99.9911 28.168 100.15 28.448C100.318 28.7187 100.43 29.036 100.486 29.4C100.551 29.7547 100.584 30.1327 100.584 30.534V35Z" fill="#F2F2F2"/>
<path d="M111.108 33.614V35H105.83V33.614H107.748V26.53C107.674 26.642 107.548 26.768 107.37 26.908C107.202 27.0387 107.011 27.1693 106.796 27.3C106.582 27.4213 106.358 27.524 106.124 27.608C105.9 27.692 105.695 27.734 105.508 27.734V26.306C105.76 26.306 106.012 26.2407 106.264 26.11C106.526 25.9793 106.768 25.83 106.992 25.662C107.216 25.4847 107.394 25.326 107.524 25.186C107.664 25.046 107.739 24.9713 107.748 24.962H109.33V33.614H111.108Z" fill="black"/>
<path d="M62.25 61.07C61.5313 61.07 60.8827 60.93 60.304 60.65C59.7253 60.37 59.226 59.992 58.806 59.516C58.386 59.0307 58.0593 58.4893 57.826 57.892C57.602 57.2853 57.49 56.6647 57.49 56.03C57.49 55.3673 57.6113 54.7373 57.854 54.14C58.0967 53.5333 58.4327 52.9967 58.862 52.53C59.2913 52.054 59.7953 51.6807 60.374 51.41C60.962 51.13 61.5967 50.99 62.278 50.99C62.9873 50.99 63.6313 51.1347 64.21 51.424C64.798 51.7133 65.2973 52.1007 65.708 52.586C66.128 53.0713 66.45 53.6127 66.674 54.21C66.9073 54.8073 67.024 55.4187 67.024 56.044C67.024 56.7067 66.9027 57.3413 66.66 57.948C66.4267 58.5453 66.0953 59.082 65.666 59.558C65.2367 60.0247 64.728 60.3933 64.14 60.664C63.5613 60.9347 62.9313 61.07 62.25 61.07ZM59.086 56.03C59.086 56.4967 59.1607 56.9493 59.31 57.388C59.4593 57.8267 59.6693 58.2187 59.94 58.564C60.22 58.9 60.556 59.166 60.948 59.362C61.34 59.558 61.7787 59.656 62.264 59.656C62.768 59.656 63.216 59.5533 63.608 59.348C64 59.1427 64.3267 58.8673 64.588 58.522C64.8587 58.1673 65.064 57.7753 65.204 57.346C65.344 56.9073 65.414 56.4687 65.414 56.03C65.414 55.5633 65.3393 55.1153 65.19 54.686C65.05 54.2473 64.84 53.86 64.56 53.524C64.28 53.1787 63.944 52.908 63.552 52.712C63.1693 52.516 62.74 52.418 62.264 52.418C61.76 52.418 61.312 52.5207 60.92 52.726C60.528 52.9313 60.1967 53.2067 59.926 53.552C59.6553 53.8973 59.4453 54.2847 59.296 54.714C59.156 55.1433 59.086 55.582 59.086 56.03ZM72.541 61.14C71.953 61.14 71.435 61 70.987 60.72C70.539 60.44 70.1843 60.076 69.923 59.628V63.982H68.383V53.678H69.741V54.994C70.021 54.5553 70.385 54.2053 70.833 53.944C71.281 53.6827 71.7803 53.552 72.331 53.552C72.835 53.552 73.297 53.6547 73.717 53.86C74.137 54.056 74.501 54.3313 74.809 54.686C75.117 55.0407 75.355 55.4467 75.523 55.904C75.7003 56.352 75.789 56.828 75.789 57.332C75.789 58.032 75.649 58.6713 75.369 59.25C75.0983 59.8287 74.7157 60.2907 74.221 60.636C73.7357 60.972 73.1757 61.14 72.541 61.14ZM72.037 59.824C72.3637 59.824 72.6577 59.754 72.919 59.614C73.1897 59.474 73.4183 59.2873 73.605 59.054C73.801 58.8207 73.9503 58.5547 74.053 58.256C74.1557 57.9573 74.207 57.6493 74.207 57.332C74.207 56.996 74.151 56.6787 74.039 56.38C73.927 56.0813 73.7637 55.82 73.549 55.596C73.3437 55.372 73.101 55.1947 72.821 55.064C72.5503 54.9333 72.2517 54.868 71.925 54.868C71.729 54.868 71.5237 54.9053 71.309 54.98C71.0943 55.0547 70.8937 55.1573 70.707 55.288C70.5203 55.4187 70.357 55.5727 70.217 55.75C70.077 55.9273 69.979 56.114 69.923 56.31V58.228C70.0537 58.5267 70.2263 58.7973 70.441 59.04C70.6557 59.2733 70.903 59.4647 71.183 59.614C71.463 59.754 71.7477 59.824 72.037 59.824ZM81.1386 60.622C81.008 60.6873 80.8446 60.7573 80.6486 60.832C80.4526 60.9067 80.2286 60.972 79.9766 61.028C79.734 61.084 79.482 61.112 79.2206 61.112C78.9033 61.112 78.6093 61.056 78.3386 60.944C78.068 60.832 77.8486 60.6547 77.6806 60.412C77.522 60.16 77.4426 59.838 77.4426 59.446V54.868H76.4766V53.678H77.4426V51.27H78.9826V53.678H80.5786V54.868H78.9826V58.956C79.0013 59.208 79.0806 59.3947 79.2206 59.516C79.37 59.6373 79.552 59.698 79.7666 59.698C79.9813 59.698 80.1866 59.6607 80.3826 59.586C80.5786 59.5113 80.7233 59.4507 80.8166 59.404L81.1386 60.622ZM82.2052 61V53.678H83.7453V61H82.2052ZM82.2052 52.474V50.78H83.7453V52.474H82.2052ZM88.8859 61.14C88.3072 61.14 87.7892 61.042 87.3319 60.846C86.8745 60.6407 86.4779 60.3607 86.1419 60.006C85.8152 59.6513 85.5632 59.25 85.3859 58.802C85.2085 58.3447 85.1199 57.8593 85.1199 57.346C85.1199 56.8327 85.2085 56.3473 85.3859 55.89C85.5632 55.4327 85.8152 55.0313 86.1419 54.686C86.4779 54.3313 86.8745 54.056 87.3319 53.86C87.7985 53.6547 88.3165 53.552 88.8859 53.552C89.4552 53.552 89.9685 53.6547 90.4259 53.86C90.8925 54.056 91.2892 54.3313 91.6159 54.686C91.9519 55.0313 92.2085 55.4327 92.3859 55.89C92.5632 56.3473 92.6519 56.8327 92.6519 57.346C92.6519 57.8593 92.5632 58.3447 92.3859 58.802C92.2085 59.25 91.9519 59.6513 91.6159 60.006C91.2892 60.3607 90.8925 60.6407 90.4259 60.846C89.9685 61.042 89.4552 61.14 88.8859 61.14ZM86.7019 57.36C86.7019 57.8267 86.7999 58.2467 86.9959 58.62C87.1919 58.9933 87.4532 59.2873 87.7799 59.502C88.1065 59.7167 88.4752 59.824 88.8859 59.824C89.2872 59.824 89.6512 59.7167 89.9779 59.502C90.3139 59.278 90.5799 58.9793 90.7759 58.606C90.9719 58.2233 91.0699 57.8033 91.0699 57.346C91.0699 56.8793 90.9719 56.4593 90.7759 56.086C90.5799 55.7127 90.3139 55.4187 89.9779 55.204C89.6512 54.98 89.2872 54.868 88.8859 54.868C88.4752 54.868 88.1065 54.98 87.7799 55.204C87.4532 55.428 87.1919 55.7267 86.9959 56.1C86.7999 56.464 86.7019 56.884 86.7019 57.36ZM100.584 61H99.0438V56.898C99.0438 56.2167 98.9318 55.7173 98.7078 55.4C98.4931 55.0827 98.1711 54.924 97.7418 54.924C97.4431 54.924 97.1444 54.9987 96.8458 55.148C96.5564 55.2973 96.2951 55.5027 96.0618 55.764C95.8284 56.016 95.6604 56.31 95.5578 56.646V61H94.0177V53.678H95.4178V55.148C95.6044 54.8213 95.8471 54.5413 96.1458 54.308C96.4538 54.0653 96.7991 53.8787 97.1818 53.748C97.5644 53.6173 97.9704 53.552 98.3998 53.552C98.8384 53.552 99.1978 53.6313 99.4778 53.79C99.7671 53.9487 99.9911 54.168 100.15 54.448C100.318 54.7187 100.43 55.036 100.486 55.4C100.551 55.7547 100.584 56.1327 100.584 56.534V61ZM105.522 61C105.522 60.4307 105.564 59.9313 105.648 59.502C105.732 59.0727 105.863 58.6853 106.04 58.34C106.218 57.9947 106.442 57.6913 106.712 57.43C106.983 57.1687 107.296 56.9307 107.65 56.716C107.996 56.5107 108.35 56.3193 108.714 56.142C109.088 55.9647 109.433 55.778 109.75 55.582C110.068 55.386 110.32 55.1573 110.506 54.896C110.702 54.6253 110.8 54.2987 110.8 53.916C110.8 53.608 110.735 53.3373 110.604 53.104C110.483 52.8707 110.296 52.6887 110.044 52.558C109.802 52.418 109.489 52.348 109.106 52.348C108.714 52.348 108.35 52.418 108.014 52.558C107.688 52.6887 107.398 52.852 107.146 53.048C106.904 53.244 106.708 53.4353 106.558 53.622L105.578 52.6C105.672 52.488 105.821 52.3387 106.026 52.152C106.241 51.9653 106.502 51.7787 106.81 51.592C107.128 51.4053 107.492 51.2513 107.902 51.13C108.313 50.9993 108.775 50.934 109.288 50.934C109.998 50.934 110.59 51.0647 111.066 51.326C111.552 51.578 111.916 51.928 112.158 52.376C112.41 52.8147 112.536 53.3093 112.536 53.86C112.536 54.308 112.457 54.7 112.298 55.036C112.14 55.3627 111.93 55.6473 111.668 55.89C111.416 56.1233 111.132 56.3333 110.814 56.52C110.506 56.7067 110.198 56.884 109.89 57.052C109.358 57.3227 108.929 57.5653 108.602 57.78C108.285 57.9947 108.033 58.2 107.846 58.396C107.669 58.592 107.543 58.788 107.468 58.984C107.394 59.18 107.342 59.39 107.314 59.614H112.55V61H105.522Z" fill="#F2F2F2"/>
<path d="M62.25 87.07C61.5313 87.07 60.8827 86.93 60.304 86.65C59.7253 86.37 59.226 85.992 58.806 85.516C58.386 85.0307 58.0593 84.4893 57.826 83.892C57.602 83.2853 57.49 82.6647 57.49 82.03C57.49 81.3673 57.6113 80.7373 57.854 80.14C58.0967 79.5333 58.4327 78.9967 58.862 78.53C59.2913 78.054 59.7953 77.6807 60.374 77.41C60.962 77.13 61.5967 76.99 62.278 76.99C62.9873 76.99 63.6313 77.1347 64.21 77.424C64.798 77.7133 65.2973 78.1007 65.708 78.586C66.128 79.0713 66.45 79.6127 66.674 80.21C66.9073 80.8073 67.024 81.4187 67.024 82.044C67.024 82.7067 66.9027 83.3413 66.66 83.948C66.4267 84.5453 66.0953 85.082 65.666 85.558C65.2367 86.0247 64.728 86.3933 64.14 86.664C63.5613 86.9347 62.9313 87.07 62.25 87.07ZM59.086 82.03C59.086 82.4967 59.1607 82.9493 59.31 83.388C59.4593 83.8267 59.6693 84.2187 59.94 84.564C60.22 84.9 60.556 85.166 60.948 85.362C61.34 85.558 61.7787 85.656 62.264 85.656C62.768 85.656 63.216 85.5533 63.608 85.348C64 85.1427 64.3267 84.8673 64.588 84.522C64.8587 84.1673 65.064 83.7753 65.204 83.346C65.344 82.9073 65.414 82.4687 65.414 82.03C65.414 81.5633 65.3393 81.1153 65.19 80.686C65.05 80.2473 64.84 79.86 64.56 79.524C64.28 79.1787 63.944 78.908 63.552 78.712C63.1693 78.516 62.74 78.418 62.264 78.418C61.76 78.418 61.312 78.5207 60.92 78.726C60.528 78.9313 60.1967 79.2067 59.926 79.552C59.6553 79.8973 59.4453 80.2847 59.296 80.714C59.156 81.1433 59.086 81.582 59.086 82.03ZM72.541 87.14C71.953 87.14 71.435 87 70.987 86.72C70.539 86.44 70.1843 86.076 69.923 85.628V89.982H68.383V79.678H69.741V80.994C70.021 80.5553 70.385 80.2053 70.833 79.944C71.281 79.6827 71.7803 79.552 72.331 79.552C72.835 79.552 73.297 79.6547 73.717 79.86C74.137 80.056 74.501 80.3313 74.809 80.686C75.117 81.0407 75.355 81.4467 75.523 81.904C75.7003 82.352 75.789 82.828 75.789 83.332C75.789 84.032 75.649 84.6713 75.369 85.25C75.0983 85.8287 74.7157 86.2907 74.221 86.636C73.7357 86.972 73.1757 87.14 72.541 87.14ZM72.037 85.824C72.3637 85.824 72.6577 85.754 72.919 85.614C73.1897 85.474 73.4183 85.2873 73.605 85.054C73.801 84.8207 73.9503 84.5547 74.053 84.256C74.1557 83.9573 74.207 83.6493 74.207 83.332C74.207 82.996 74.151 82.6787 74.039 82.38C73.927 82.0813 73.7637 81.82 73.549 81.596C73.3437 81.372 73.101 81.1947 72.821 81.064C72.5503 80.9333 72.2517 80.868 71.925 80.868C71.729 80.868 71.5237 80.9053 71.309 80.98C71.0943 81.0547 70.8937 81.1573 70.707 81.288C70.5203 81.4187 70.357 81.5727 70.217 81.75C70.077 81.9273 69.979 82.114 69.923 82.31V84.228C70.0537 84.5267 70.2263 84.7973 70.441 85.04C70.6557 85.2733 70.903 85.4647 71.183 85.614C71.463 85.754 71.7477 85.824 72.037 85.824ZM81.1386 86.622C81.008 86.6873 80.8446 86.7573 80.6486 86.832C80.4526 86.9067 80.2286 86.972 79.9766 87.028C79.734 87.084 79.482 87.112 79.2206 87.112C78.9033 87.112 78.6093 87.056 78.3386 86.944C78.068 86.832 77.8486 86.6547 77.6806 86.412C77.522 86.16 77.4426 85.838 77.4426 85.446V80.868H76.4766V79.678H77.4426V77.27H78.9826V79.678H80.5786V80.868H78.9826V84.956C79.0013 85.208 79.0806 85.3947 79.2206 85.516C79.37 85.6373 79.552 85.698 79.7666 85.698C79.9813 85.698 80.1866 85.6607 80.3826 85.586C80.5786 85.5113 80.7233 85.4507 80.8166 85.404L81.1386 86.622ZM82.2052 87V79.678H83.7453V87H82.2052ZM82.2052 78.474V76.78H83.7453V78.474H82.2052ZM88.8859 87.14C88.3072 87.14 87.7892 87.042 87.3319 86.846C86.8745 86.6407 86.4779 86.3607 86.1419 86.006C85.8152 85.6513 85.5632 85.25 85.3859 84.802C85.2085 84.3447 85.1199 83.8593 85.1199 83.346C85.1199 82.8327 85.2085 82.3473 85.3859 81.89C85.5632 81.4327 85.8152 81.0313 86.1419 80.686C86.4779 80.3313 86.8745 80.056 87.3319 79.86C87.7985 79.6547 88.3165 79.552 88.8859 79.552C89.4552 79.552 89.9685 79.6547 90.4259 79.86C90.8925 80.056 91.2892 80.3313 91.6159 80.686C91.9519 81.0313 92.2085 81.4327 92.3859 81.89C92.5632 82.3473 92.6519 82.8327 92.6519 83.346C92.6519 83.8593 92.5632 84.3447 92.3859 84.802C92.2085 85.25 91.9519 85.6513 91.6159 86.006C91.2892 86.3607 90.8925 86.6407 90.4259 86.846C89.9685 87.042 89.4552 87.14 88.8859 87.14ZM86.7019 83.36C86.7019 83.8267 86.7999 84.2467 86.9959 84.62C87.1919 84.9933 87.4532 85.2873 87.7799 85.502C88.1065 85.7167 88.4752 85.824 88.8859 85.824C89.2872 85.824 89.6512 85.7167 89.9779 85.502C90.3139 85.278 90.5799 84.9793 90.7759 84.606C90.9719 84.2233 91.0699 83.8033 91.0699 83.346C91.0699 82.8793 90.9719 82.4593 90.7759 82.086C90.5799 81.7127 90.3139 81.4187 89.9779 81.204C89.6512 80.98 89.2872 80.868 88.8859 80.868C88.4752 80.868 88.1065 80.98 87.7799 81.204C87.4532 81.428 87.1919 81.7267 86.9959 82.1C86.7999 82.464 86.7019 82.884 86.7019 83.36ZM100.584 87H99.0438V82.898C99.0438 82.2167 98.9318 81.7173 98.7078 81.4C98.4931 81.0827 98.1711 80.924 97.7418 80.924C97.4431 80.924 97.1444 80.9987 96.8458 81.148C96.5564 81.2973 96.2951 81.5027 96.0618 81.764C95.8284 82.016 95.6604 82.31 95.5578 82.646V87H94.0177V79.678H95.4178V81.148C95.6044 80.8213 95.8471 80.5413 96.1458 80.308C96.4538 80.0653 96.7991 79.8787 97.1818 79.748C97.5644 79.6173 97.9704 79.552 98.3998 79.552C98.8384 79.552 99.1978 79.6313 99.4778 79.79C99.7671 79.9487 99.9911 80.168 100.15 80.448C100.318 80.7187 100.43 81.036 100.486 81.4C100.551 81.7547 100.584 82.1327 100.584 82.534V87ZM108.784 87.112C108.234 87.112 107.73 87.0327 107.272 86.874C106.824 86.7153 106.446 86.4867 106.138 86.188C105.83 85.8893 105.606 85.544 105.466 85.152L106.306 84.144C106.372 84.3867 106.507 84.6293 106.712 84.872C106.927 85.1147 107.202 85.3107 107.538 85.46C107.884 85.6093 108.285 85.684 108.742 85.684C109.144 85.684 109.498 85.6233 109.806 85.502C110.124 85.3713 110.376 85.1893 110.562 84.956C110.749 84.7227 110.842 84.4473 110.842 84.13C110.842 83.7753 110.73 83.4767 110.506 83.234C110.282 82.9913 109.96 82.8093 109.54 82.688C109.12 82.5667 108.616 82.506 108.028 82.506H107.552V81.274H108.028C108.803 81.274 109.419 81.148 109.876 80.896C110.343 80.644 110.576 80.2707 110.576 79.776C110.576 79.468 110.492 79.202 110.324 78.978C110.156 78.7447 109.937 78.572 109.666 78.46C109.396 78.3387 109.097 78.278 108.77 78.278C108.238 78.278 107.776 78.3993 107.384 78.642C106.992 78.8847 106.708 79.1833 106.53 79.538L105.522 78.432C105.718 78.124 105.989 77.858 106.334 77.634C106.68 77.41 107.067 77.2373 107.496 77.116C107.935 76.9947 108.378 76.934 108.826 76.934C109.48 76.934 110.063 77.0507 110.576 77.284C111.09 77.5173 111.491 77.8393 111.78 78.25C112.07 78.6513 112.214 79.1087 112.214 79.622C112.214 79.9953 112.135 80.3313 111.976 80.63C111.827 80.9287 111.608 81.1807 111.318 81.386C111.038 81.582 110.702 81.7267 110.31 81.82C110.73 81.8947 111.099 82.0533 111.416 82.296C111.743 82.5387 111.99 82.8373 112.158 83.192C112.336 83.5467 112.424 83.934 112.424 84.354C112.424 84.9327 112.256 85.4273 111.92 85.838C111.594 86.2487 111.155 86.566 110.604 86.79C110.054 87.0047 109.447 87.112 108.784 87.112Z" fill="#F2F2F2"/>
</svg>
