<svg width="188" height="192" viewBox="0 0 188 192" fill="none" xmlns="http://www.w3.org/2000/svg">
<path d="M0.5 6.5C0.5 3.46243 2.96243 1 6 1H182C185.038 1 187.5 3.46243 187.5 6.5V185.5C187.5 188.538 185.038 191 182 191H6C2.96243 191 0.5 188.538 0.5 185.5V6.5Z" fill="#1C1917" stroke="#27272A"/>
<path d="M0.5 162.5C0.5 159.462 2.96243 157 6 157H182C185.038 157 187.5 159.462 187.5 162.5V185.5C187.5 188.538 185.038 191 182 191H6C2.96243 191 0.5 188.538 0.5 185.5V162.5Z" fill="#811D1D" stroke="#27272A"/>
<path d="M31.7515 177.379V178.765H24.9335V168.825H31.6255V170.211H26.5015V173.039H30.9395V174.341H26.5015V177.379H31.7515ZM37.2343 172.773C36.637 172.782 36.105 172.917 35.6383 173.179C35.181 173.44 34.8543 173.809 34.6583 174.285V178.765H33.1183V171.443H34.5463V173.081C34.7983 172.577 35.1297 172.175 35.5403 171.877C35.951 171.569 36.385 171.401 36.8423 171.373C36.9357 171.373 37.0103 171.373 37.0663 171.373C37.1317 171.373 37.1877 171.377 37.2343 171.387V172.773ZM42.4707 172.773C41.8733 172.782 41.3413 172.917 40.8747 173.179C40.4173 173.44 40.0907 173.809 39.8947 174.285V178.765H38.3547V171.443H39.7827V173.081C40.0347 172.577 40.366 172.175 40.7767 171.877C41.1873 171.569 41.6213 171.401 42.0787 171.373C42.172 171.373 42.2467 171.373 42.3027 171.373C42.368 171.373 42.424 171.377 42.4707 171.387V172.773ZM46.7443 178.905C46.1656 178.905 45.6476 178.807 45.1903 178.611C44.7329 178.405 44.3363 178.125 44.0003 177.771C43.6736 177.416 43.4216 177.015 43.2443 176.567C43.0669 176.109 42.9783 175.624 42.9783 175.111C42.9783 174.597 43.0669 174.112 43.2443 173.655C43.4216 173.197 43.6736 172.796 44.0003 172.451C44.3363 172.096 44.7329 171.821 45.1903 171.625C45.6569 171.419 46.1749 171.317 46.7443 171.317C47.3136 171.317 47.8269 171.419 48.2843 171.625C48.7509 171.821 49.1476 172.096 49.4743 172.451C49.8103 172.796 50.0669 173.197 50.2443 173.655C50.4216 174.112 50.5103 174.597 50.5103 175.111C50.5103 175.624 50.4216 176.109 50.2443 176.567C50.0669 177.015 49.8103 177.416 49.4743 177.771C49.1476 178.125 48.7509 178.405 48.2843 178.611C47.8269 178.807 47.3136 178.905 46.7443 178.905ZM44.5603 175.125C44.5603 175.591 44.6583 176.011 44.8543 176.385C45.0503 176.758 45.3116 177.052 45.6383 177.267C45.9649 177.481 46.3336 177.589 46.7443 177.589C47.1456 177.589 47.5096 177.481 47.8363 177.267C48.1723 177.043 48.4383 176.744 48.6343 176.371C48.8303 175.988 48.9283 175.568 48.9283 175.111C48.9283 174.644 48.8303 174.224 48.6343 173.851C48.4383 173.477 48.1723 173.183 47.8363 172.969C47.5096 172.745 47.1456 172.633 46.7443 172.633C46.3336 172.633 45.9649 172.745 45.6383 172.969C45.3116 173.193 45.0503 173.491 44.8543 173.865C44.6583 174.229 44.5603 174.649 44.5603 175.125ZM55.9921 172.773C55.3948 172.782 54.8628 172.917 54.3961 173.179C53.9388 173.44 53.6121 173.809 53.4161 174.285V178.765H51.8761V171.443H53.3041V173.081C53.5561 172.577 53.8875 172.175 54.2981 171.877C54.7088 171.569 55.1428 171.401 55.6001 171.373C55.6935 171.373 55.7681 171.373 55.8241 171.373C55.8895 171.373 55.9455 171.377 55.9921 171.387V172.773Z" fill="#F2F2F2"/>
<path d="M174.632 32.124V34.5H165.584V32.124H168.872V19.98C168.744 20.172 168.528 20.388 168.224 20.628C167.936 20.852 167.608 21.076 167.24 21.3C166.872 21.508 166.488 21.684 166.088 21.828C165.704 21.972 165.352 22.044 165.032 22.044V19.596C165.464 19.596 165.896 19.484 166.328 19.26C166.776 19.036 167.192 18.78 167.576 18.492C167.96 18.188 168.264 17.916 168.488 17.676C168.728 17.436 168.856 17.308 168.872 17.292H171.584V32.124H174.632Z" fill="#F2F2F2"/>
<path d="M41.5 51C41.5 55.9467 37.2712 60 32 60C26.7288 60 22.5 55.9467 22.5 51C22.5 46.0533 26.7288 42 32 42C37.2712 42 41.5 46.0533 41.5 51Z" fill="#0C0A09" stroke="#21C45D"/>
<ellipse cx="32" cy="51" rx="6" ry="5.5" fill="#21C45D"/>
<path d="M60.25 54.57C59.5313 54.57 58.8827 54.43 58.304 54.15C57.7253 53.87 57.226 53.492 56.806 53.016C56.386 52.5307 56.0593 51.9893 55.826 51.392C55.602 50.7853 55.49 50.1647 55.49 49.53C55.49 48.8673 55.6113 48.2373 55.854 47.64C56.0967 47.0333 56.4327 46.4967 56.862 46.03C57.2913 45.554 57.7953 45.1807 58.374 44.91C58.962 44.63 59.5967 44.49 60.278 44.49C60.9873 44.49 61.6313 44.6347 62.21 44.924C62.798 45.2133 63.2973 45.6007 63.708 46.086C64.128 46.5713 64.45 47.1127 64.674 47.71C64.9073 48.3073 65.024 48.9187 65.024 49.544C65.024 50.2067 64.9027 50.8413 64.66 51.448C64.4267 52.0453 64.0953 52.582 63.666 53.058C63.2367 53.5247 62.728 53.8933 62.14 54.164C61.5613 54.4347 60.9313 54.57 60.25 54.57ZM57.086 49.53C57.086 49.9967 57.1607 50.4493 57.31 50.888C57.4593 51.3267 57.6693 51.7187 57.94 52.064C58.22 52.4 58.556 52.666 58.948 52.862C59.34 53.058 59.7787 53.156 60.264 53.156C60.768 53.156 61.216 53.0533 61.608 52.848C62 52.6427 62.3267 52.3673 62.588 52.022C62.8587 51.6673 63.064 51.2753 63.204 50.846C63.344 50.4073 63.414 49.9687 63.414 49.53C63.414 49.0633 63.3393 48.6153 63.19 48.186C63.05 47.7473 62.84 47.36 62.56 47.024C62.28 46.6787 61.944 46.408 61.552 46.212C61.1693 46.016 60.74 45.918 60.264 45.918C59.76 45.918 59.312 46.0207 58.92 46.226C58.528 46.4313 58.1967 46.7067 57.926 47.052C57.6553 47.3973 57.4453 47.7847 57.296 48.214C57.156 48.6433 57.086 49.082 57.086 49.53ZM70.541 54.64C69.953 54.64 69.435 54.5 68.987 54.22C68.539 53.94 68.1843 53.576 67.923 53.128V57.482H66.383V47.178H67.741V48.494C68.021 48.0553 68.385 47.7053 68.833 47.444C69.281 47.1827 69.7803 47.052 70.331 47.052C70.835 47.052 71.297 47.1547 71.717 47.36C72.137 47.556 72.501 47.8313 72.809 48.186C73.117 48.5407 73.355 48.9467 73.523 49.404C73.7003 49.852 73.789 50.328 73.789 50.832C73.789 51.532 73.649 52.1713 73.369 52.75C73.0983 53.3287 72.7157 53.7907 72.221 54.136C71.7357 54.472 71.1757 54.64 70.541 54.64ZM70.037 53.324C70.3637 53.324 70.6577 53.254 70.919 53.114C71.1897 52.974 71.4183 52.7873 71.605 52.554C71.801 52.3207 71.9503 52.0547 72.053 51.756C72.1557 51.4573 72.207 51.1493 72.207 50.832C72.207 50.496 72.151 50.1787 72.039 49.88C71.927 49.5813 71.7637 49.32 71.549 49.096C71.3437 48.872 71.101 48.6947 70.821 48.564C70.5503 48.4333 70.2517 48.368 69.925 48.368C69.729 48.368 69.5237 48.4053 69.309 48.48C69.0943 48.5547 68.8937 48.6573 68.707 48.788C68.5203 48.9187 68.357 49.0727 68.217 49.25C68.077 49.4273 67.979 49.614 67.923 49.81V51.728C68.0537 52.0267 68.2263 52.2973 68.441 52.54C68.6557 52.7733 68.903 52.9647 69.183 53.114C69.463 53.254 69.7477 53.324 70.037 53.324ZM79.1386 54.122C79.008 54.1873 78.8446 54.2573 78.6486 54.332C78.4526 54.4067 78.2286 54.472 77.9766 54.528C77.734 54.584 77.482 54.612 77.2206 54.612C76.9033 54.612 76.6093 54.556 76.3386 54.444C76.068 54.332 75.8486 54.1547 75.6806 53.912C75.522 53.66 75.4426 53.338 75.4426 52.946V48.368H74.4766V47.178H75.4426V44.77H76.9826V47.178H78.5786V48.368H76.9826V52.456C77.0013 52.708 77.0806 52.8947 77.2206 53.016C77.37 53.1373 77.552 53.198 77.7666 53.198C77.9813 53.198 78.1866 53.1607 78.3826 53.086C78.5786 53.0113 78.7233 52.9507 78.8166 52.904L79.1386 54.122ZM80.2052 54.5V47.178H81.7453V54.5H80.2052ZM80.2052 45.974V44.28H81.7453V45.974H80.2052ZM86.8859 54.64C86.3072 54.64 85.7892 54.542 85.3319 54.346C84.8745 54.1407 84.4779 53.8607 84.1419 53.506C83.8152 53.1513 83.5632 52.75 83.3859 52.302C83.2085 51.8447 83.1199 51.3593 83.1199 50.846C83.1199 50.3327 83.2085 49.8473 83.3859 49.39C83.5632 48.9327 83.8152 48.5313 84.1419 48.186C84.4779 47.8313 84.8745 47.556 85.3319 47.36C85.7985 47.1547 86.3165 47.052 86.8859 47.052C87.4552 47.052 87.9685 47.1547 88.4259 47.36C88.8925 47.556 89.2892 47.8313 89.6159 48.186C89.9519 48.5313 90.2085 48.9327 90.3859 49.39C90.5632 49.8473 90.6519 50.3327 90.6519 50.846C90.6519 51.3593 90.5632 51.8447 90.3859 52.302C90.2085 52.75 89.9519 53.1513 89.6159 53.506C89.2892 53.8607 88.8925 54.1407 88.4259 54.346C87.9685 54.542 87.4552 54.64 86.8859 54.64ZM84.7019 50.86C84.7019 51.3267 84.7999 51.7467 84.9959 52.12C85.1919 52.4933 85.4532 52.7873 85.7799 53.002C86.1065 53.2167 86.4752 53.324 86.8859 53.324C87.2872 53.324 87.6512 53.2167 87.9779 53.002C88.3139 52.778 88.5799 52.4793 88.7759 52.106C88.9719 51.7233 89.0699 51.3033 89.0699 50.846C89.0699 50.3793 88.9719 49.9593 88.7759 49.586C88.5799 49.2127 88.3139 48.9187 87.9779 48.704C87.6512 48.48 87.2872 48.368 86.8859 48.368C86.4752 48.368 86.1065 48.48 85.7799 48.704C85.4532 48.928 85.1919 49.2267 84.9959 49.6C84.7999 49.964 84.7019 50.384 84.7019 50.86ZM98.5838 54.5H97.0438V50.398C97.0438 49.7167 96.9318 49.2173 96.7078 48.9C96.4931 48.5827 96.1711 48.424 95.7418 48.424C95.4431 48.424 95.1444 48.4987 94.8458 48.648C94.5564 48.7973 94.2951 49.0027 94.0618 49.264C93.8284 49.516 93.6604 49.81 93.5578 50.146V54.5H92.0177V47.178H93.4178V48.648C93.6044 48.3213 93.8471 48.0413 94.1458 47.808C94.4538 47.5653 94.7991 47.3787 95.1818 47.248C95.5644 47.1173 95.9704 47.052 96.3998 47.052C96.8384 47.052 97.1978 47.1313 97.4778 47.29C97.7671 47.4487 97.9911 47.668 98.1498 47.948C98.3178 48.2187 98.4298 48.536 98.4857 48.9C98.5511 49.2547 98.5838 49.6327 98.5838 50.034V54.5ZM109.108 53.114V54.5H103.83V53.114H105.748V46.03C105.674 46.142 105.548 46.268 105.37 46.408C105.202 46.5387 105.011 46.6693 104.796 46.8C104.582 46.9213 104.358 47.024 104.124 47.108C103.9 47.192 103.695 47.234 103.508 47.234V45.806C103.76 45.806 104.012 45.7407 104.264 45.61C104.526 45.4793 104.768 45.33 104.992 45.162C105.216 44.9847 105.394 44.826 105.524 44.686C105.664 44.546 105.739 44.4713 105.748 44.462H107.33V53.114H109.108Z" fill="#F2F2F2"/>
<path d="M41.5 82C41.5 86.9467 37.2712 91 32 91C26.7288 91 22.5 86.9467 22.5 82C22.5 77.0533 26.7288 73 32 73C37.2712 73 41.5 77.0533 41.5 82Z" fill="#0C0A09" stroke="#21C45D"/>
<ellipse cx="32" cy="82" rx="6" ry="5.5" fill="#21C45D"/>
<path d="M60.25 85.57C59.5313 85.57 58.8827 85.43 58.304 85.15C57.7253 84.87 57.226 84.492 56.806 84.016C56.386 83.5307 56.0593 82.9893 55.826 82.392C55.602 81.7853 55.49 81.1647 55.49 80.53C55.49 79.8673 55.6113 79.2373 55.854 78.64C56.0967 78.0333 56.4327 77.4967 56.862 77.03C57.2913 76.554 57.7953 76.1807 58.374 75.91C58.962 75.63 59.5967 75.49 60.278 75.49C60.9873 75.49 61.6313 75.6347 62.21 75.924C62.798 76.2133 63.2973 76.6007 63.708 77.086C64.128 77.5713 64.45 78.1127 64.674 78.71C64.9073 79.3073 65.024 79.9187 65.024 80.544C65.024 81.2067 64.9027 81.8413 64.66 82.448C64.4267 83.0453 64.0953 83.582 63.666 84.058C63.2367 84.5247 62.728 84.8933 62.14 85.164C61.5613 85.4347 60.9313 85.57 60.25 85.57ZM57.086 80.53C57.086 80.9967 57.1607 81.4493 57.31 81.888C57.4593 82.3267 57.6693 82.7187 57.94 83.064C58.22 83.4 58.556 83.666 58.948 83.862C59.34 84.058 59.7787 84.156 60.264 84.156C60.768 84.156 61.216 84.0533 61.608 83.848C62 83.6427 62.3267 83.3673 62.588 83.022C62.8587 82.6673 63.064 82.2753 63.204 81.846C63.344 81.4073 63.414 80.9687 63.414 80.53C63.414 80.0633 63.3393 79.6153 63.19 79.186C63.05 78.7473 62.84 78.36 62.56 78.024C62.28 77.6787 61.944 77.408 61.552 77.212C61.1693 77.016 60.74 76.918 60.264 76.918C59.76 76.918 59.312 77.0207 58.92 77.226C58.528 77.4313 58.1967 77.7067 57.926 78.052C57.6553 78.3973 57.4453 78.7847 57.296 79.214C57.156 79.6433 57.086 80.082 57.086 80.53ZM70.541 85.64C69.953 85.64 69.435 85.5 68.987 85.22C68.539 84.94 68.1843 84.576 67.923 84.128V88.482H66.383V78.178H67.741V79.494C68.021 79.0553 68.385 78.7053 68.833 78.444C69.281 78.1827 69.7803 78.052 70.331 78.052C70.835 78.052 71.297 78.1547 71.717 78.36C72.137 78.556 72.501 78.8313 72.809 79.186C73.117 79.5407 73.355 79.9467 73.523 80.404C73.7003 80.852 73.789 81.328 73.789 81.832C73.789 82.532 73.649 83.1713 73.369 83.75C73.0983 84.3287 72.7157 84.7907 72.221 85.136C71.7357 85.472 71.1757 85.64 70.541 85.64ZM70.037 84.324C70.3637 84.324 70.6577 84.254 70.919 84.114C71.1897 83.974 71.4183 83.7873 71.605 83.554C71.801 83.3207 71.9503 83.0547 72.053 82.756C72.1557 82.4573 72.207 82.1493 72.207 81.832C72.207 81.496 72.151 81.1787 72.039 80.88C71.927 80.5813 71.7637 80.32 71.549 80.096C71.3437 79.872 71.101 79.6947 70.821 79.564C70.5503 79.4333 70.2517 79.368 69.925 79.368C69.729 79.368 69.5237 79.4053 69.309 79.48C69.0943 79.5547 68.8937 79.6573 68.707 79.788C68.5203 79.9187 68.357 80.0727 68.217 80.25C68.077 80.4273 67.979 80.614 67.923 80.81V82.728C68.0537 83.0267 68.2263 83.2973 68.441 83.54C68.6557 83.7733 68.903 83.9647 69.183 84.114C69.463 84.254 69.7477 84.324 70.037 84.324ZM79.1386 85.122C79.008 85.1873 78.8446 85.2573 78.6486 85.332C78.4526 85.4067 78.2286 85.472 77.9766 85.528C77.734 85.584 77.482 85.612 77.2206 85.612C76.9033 85.612 76.6093 85.556 76.3386 85.444C76.068 85.332 75.8486 85.1547 75.6806 84.912C75.522 84.66 75.4426 84.338 75.4426 83.946V79.368H74.4766V78.178H75.4426V75.77H76.9826V78.178H78.5786V79.368H76.9826V83.456C77.0013 83.708 77.0806 83.8947 77.2206 84.016C77.37 84.1373 77.552 84.198 77.7666 84.198C77.9813 84.198 78.1866 84.1607 78.3826 84.086C78.5786 84.0113 78.7233 83.9507 78.8166 83.904L79.1386 85.122ZM80.2052 85.5V78.178H81.7453V85.5H80.2052ZM80.2052 76.974V75.28H81.7453V76.974H80.2052ZM86.8859 85.64C86.3072 85.64 85.7892 85.542 85.3319 85.346C84.8745 85.1407 84.4779 84.8607 84.1419 84.506C83.8152 84.1513 83.5632 83.75 83.3859 83.302C83.2085 82.8447 83.1199 82.3593 83.1199 81.846C83.1199 81.3327 83.2085 80.8473 83.3859 80.39C83.5632 79.9327 83.8152 79.5313 84.1419 79.186C84.4779 78.8313 84.8745 78.556 85.3319 78.36C85.7985 78.1547 86.3165 78.052 86.8859 78.052C87.4552 78.052 87.9685 78.1547 88.4259 78.36C88.8925 78.556 89.2892 78.8313 89.6159 79.186C89.9519 79.5313 90.2085 79.9327 90.3859 80.39C90.5632 80.8473 90.6519 81.3327 90.6519 81.846C90.6519 82.3593 90.5632 82.8447 90.3859 83.302C90.2085 83.75 89.9519 84.1513 89.6159 84.506C89.2892 84.8607 88.8925 85.1407 88.4259 85.346C87.9685 85.542 87.4552 85.64 86.8859 85.64ZM84.7019 81.86C84.7019 82.3267 84.7999 82.7467 84.9959 83.12C85.1919 83.4933 85.4532 83.7873 85.7799 84.002C86.1065 84.2167 86.4752 84.324 86.8859 84.324C87.2872 84.324 87.6512 84.2167 87.9779 84.002C88.3139 83.778 88.5799 83.4793 88.7759 83.106C88.9719 82.7233 89.0699 82.3033 89.0699 81.846C89.0699 81.3793 88.9719 80.9593 88.7759 80.586C88.5799 80.2127 88.3139 79.9187 87.9779 79.704C87.6512 79.48 87.2872 79.368 86.8859 79.368C86.4752 79.368 86.1065 79.48 85.7799 79.704C85.4532 79.928 85.1919 80.2267 84.9959 80.6C84.7999 80.964 84.7019 81.384 84.7019 81.86ZM98.5838 85.5H97.0438V81.398C97.0438 80.7167 96.9318 80.2173 96.7078 79.9C96.4931 79.5827 96.1711 79.424 95.7418 79.424C95.4431 79.424 95.1444 79.4987 94.8458 79.648C94.5564 79.7973 94.2951 80.0027 94.0618 80.264C93.8284 80.516 93.6604 80.81 93.5578 81.146V85.5H92.0177V78.178H93.4178V79.648C93.6044 79.3213 93.8471 79.0413 94.1458 78.808C94.4538 78.5653 94.7991 78.3787 95.1818 78.248C95.5644 78.1173 95.9704 78.052 96.3998 78.052C96.8384 78.052 97.1978 78.1313 97.4778 78.29C97.7671 78.4487 97.9911 78.668 98.1498 78.948C98.3178 79.2187 98.4298 79.536 98.4857 79.9C98.5511 80.2547 98.5838 80.6327 98.5838 81.034V85.5ZM103.522 85.5C103.522 84.9307 103.564 84.4313 103.648 84.002C103.732 83.5727 103.863 83.1853 104.04 82.84C104.218 82.4947 104.442 82.1913 104.712 81.93C104.983 81.6687 105.296 81.4307 105.65 81.216C105.996 81.0107 106.35 80.8193 106.714 80.642C107.088 80.4647 107.433 80.278 107.75 80.082C108.068 79.886 108.32 79.6573 108.506 79.396C108.702 79.1253 108.8 78.7987 108.8 78.416C108.8 78.108 108.735 77.8373 108.604 77.604C108.483 77.3707 108.296 77.1887 108.044 77.058C107.802 76.918 107.489 76.848 107.106 76.848C106.714 76.848 106.35 76.918 106.014 77.058C105.688 77.1887 105.398 77.352 105.146 77.548C104.904 77.744 104.708 77.9353 104.558 78.122L103.578 77.1C103.672 76.988 103.821 76.8387 104.026 76.652C104.241 76.4653 104.502 76.2787 104.81 76.092C105.128 75.9053 105.492 75.7513 105.902 75.63C106.313 75.4993 106.775 75.434 107.288 75.434C107.998 75.434 108.59 75.5647 109.066 75.826C109.552 76.078 109.916 76.428 110.158 76.876C110.41 77.3147 110.536 77.8093 110.536 78.36C110.536 78.808 110.457 79.2 110.298 79.536C110.14 79.8627 109.93 80.1473 109.668 80.39C109.416 80.6233 109.132 80.8333 108.814 81.02C108.506 81.2067 108.198 81.384 107.89 81.552C107.358 81.8227 106.929 82.0653 106.602 82.28C106.285 82.4947 106.033 82.7 105.846 82.896C105.669 83.092 105.543 83.288 105.468 83.484C105.394 83.68 105.342 83.89 105.314 84.114H110.55V85.5H103.522Z" fill="#F2F2F2"/>
<path d="M41.8271 110C41.8271 114.947 37.5983 119 32.3271 119C27.056 119 22.8271 114.947 22.8271 110C22.8271 105.053 27.056 101 32.3271 101C37.5983 101 41.8271 105.053 41.8271 110Z" fill="#0C0A09" stroke="#F2F2F2"/>
<path d="M60.5771 113.57C59.8585 113.57 59.2098 113.43 58.6311 113.15C58.0525 112.87 57.5531 112.492 57.1331 112.016C56.7131 111.531 56.3865 110.989 56.1531 110.392C55.9291 109.785 55.8171 109.165 55.8171 108.53C55.8171 107.867 55.9385 107.237 56.1811 106.64C56.4238 106.033 56.7598 105.497 57.1891 105.03C57.6185 104.554 58.1225 104.181 58.7011 103.91C59.2891 103.63 59.9238 103.49 60.6051 103.49C61.3145 103.49 61.9585 103.635 62.5371 103.924C63.1251 104.213 63.6245 104.601 64.0351 105.086C64.4551 105.571 64.7771 106.113 65.0011 106.71C65.2345 107.307 65.3511 107.919 65.3511 108.544C65.3511 109.207 65.2298 109.841 64.9871 110.448C64.7538 111.045 64.4225 111.582 63.9931 112.058C63.5638 112.525 63.0551 112.893 62.4671 113.164C61.8885 113.435 61.2585 113.57 60.5771 113.57ZM57.4131 108.53C57.4131 108.997 57.4878 109.449 57.6371 109.888C57.7865 110.327 57.9965 110.719 58.2671 111.064C58.5471 111.4 58.8831 111.666 59.2751 111.862C59.6671 112.058 60.1058 112.156 60.5911 112.156C61.0951 112.156 61.5431 112.053 61.9351 111.848C62.3271 111.643 62.6538 111.367 62.9151 111.022C63.1858 110.667 63.3911 110.275 63.5311 109.846C63.6711 109.407 63.7411 108.969 63.7411 108.53C63.7411 108.063 63.6665 107.615 63.5171 107.186C63.3771 106.747 63.1671 106.36 62.8871 106.024C62.6071 105.679 62.2711 105.408 61.8791 105.212C61.4965 105.016 61.0671 104.918 60.5911 104.918C60.0871 104.918 59.6391 105.021 59.2471 105.226C58.8551 105.431 58.5238 105.707 58.2531 106.052C57.9825 106.397 57.7725 106.785 57.6231 107.214C57.4831 107.643 57.4131 108.082 57.4131 108.53ZM70.8681 113.64C70.2801 113.64 69.7621 113.5 69.3141 113.22C68.8661 112.94 68.5115 112.576 68.2501 112.128V116.482H66.7101V106.178H68.0681V107.494C68.3481 107.055 68.7121 106.705 69.1601 106.444C69.6081 106.183 70.1075 106.052 70.6581 106.052C71.1621 106.052 71.6241 106.155 72.0441 106.36C72.4641 106.556 72.8281 106.831 73.1361 107.186C73.4441 107.541 73.6821 107.947 73.8501 108.404C74.0275 108.852 74.1161 109.328 74.1161 109.832C74.1161 110.532 73.9761 111.171 73.6961 111.75C73.4255 112.329 73.0428 112.791 72.5481 113.136C72.0628 113.472 71.5028 113.64 70.8681 113.64ZM70.3641 112.324C70.6908 112.324 70.9848 112.254 71.2461 112.114C71.5168 111.974 71.7455 111.787 71.9321 111.554C72.1281 111.321 72.2775 111.055 72.3801 110.756C72.4828 110.457 72.5341 110.149 72.5341 109.832C72.5341 109.496 72.4781 109.179 72.3661 108.88C72.2541 108.581 72.0908 108.32 71.8761 108.096C71.6708 107.872 71.4281 107.695 71.1481 107.564C70.8775 107.433 70.5788 107.368 70.2521 107.368C70.0561 107.368 69.8508 107.405 69.6361 107.48C69.4215 107.555 69.2208 107.657 69.0341 107.788C68.8475 107.919 68.6841 108.073 68.5441 108.25C68.4041 108.427 68.3061 108.614 68.2501 108.81V110.728C68.3808 111.027 68.5535 111.297 68.7681 111.54C68.9828 111.773 69.2301 111.965 69.5101 112.114C69.7901 112.254 70.0748 112.324 70.3641 112.324ZM79.4658 113.122C79.3351 113.187 79.1718 113.257 78.9758 113.332C78.7798 113.407 78.5558 113.472 78.3038 113.528C78.0611 113.584 77.8091 113.612 77.5478 113.612C77.2304 113.612 76.9364 113.556 76.6658 113.444C76.3951 113.332 76.1758 113.155 76.0078 112.912C75.8491 112.66 75.7698 112.338 75.7698 111.946V107.368H74.8038V106.178H75.7698V103.77H77.3098V106.178H78.9058V107.368H77.3098V111.456C77.3284 111.708 77.4078 111.895 77.5478 112.016C77.6971 112.137 77.8791 112.198 78.0938 112.198C78.3084 112.198 78.5138 112.161 78.7098 112.086C78.9058 112.011 79.0504 111.951 79.1438 111.904L79.4658 113.122ZM80.5324 113.5V106.178H82.0724V113.5H80.5324ZM80.5324 104.974V103.28H82.0724V104.974H80.5324ZM87.213 113.64C86.6344 113.64 86.1164 113.542 85.659 113.346C85.2017 113.141 84.805 112.861 84.469 112.506C84.1424 112.151 83.8904 111.75 83.713 111.302C83.5357 110.845 83.447 110.359 83.447 109.846C83.447 109.333 83.5357 108.847 83.713 108.39C83.8904 107.933 84.1424 107.531 84.469 107.186C84.805 106.831 85.2017 106.556 85.659 106.36C86.1257 106.155 86.6437 106.052 87.213 106.052C87.7824 106.052 88.2957 106.155 88.753 106.36C89.2197 106.556 89.6164 106.831 89.943 107.186C90.279 107.531 90.5357 107.933 90.713 108.39C90.8904 108.847 90.979 109.333 90.979 109.846C90.979 110.359 90.8904 110.845 90.713 111.302C90.5357 111.75 90.279 112.151 89.943 112.506C89.6164 112.861 89.2197 113.141 88.753 113.346C88.2957 113.542 87.7824 113.64 87.213 113.64ZM85.029 109.86C85.029 110.327 85.127 110.747 85.323 111.12C85.519 111.493 85.7804 111.787 86.107 112.002C86.4337 112.217 86.8024 112.324 87.213 112.324C87.6144 112.324 87.9784 112.217 88.305 112.002C88.641 111.778 88.907 111.479 89.103 111.106C89.299 110.723 89.397 110.303 89.397 109.846C89.397 109.379 89.299 108.959 89.103 108.586C88.907 108.213 88.641 107.919 88.305 107.704C87.9784 107.48 87.6144 107.368 87.213 107.368C86.8024 107.368 86.4337 107.48 86.107 107.704C85.7804 107.928 85.519 108.227 85.323 108.6C85.127 108.964 85.029 109.384 85.029 109.86ZM98.9109 113.5H97.3709V109.398C97.3709 108.717 97.2589 108.217 97.0349 107.9C96.8202 107.583 96.4982 107.424 96.0689 107.424C95.7702 107.424 95.4716 107.499 95.1729 107.648C94.8836 107.797 94.6222 108.003 94.3889 108.264C94.1556 108.516 93.9876 108.81 93.8849 109.146V113.5H92.3449V106.178H93.7449V107.648C93.9316 107.321 94.1742 107.041 94.4729 106.808C94.7809 106.565 95.1262 106.379 95.5089 106.248C95.8916 106.117 96.2976 106.052 96.7269 106.052C97.1656 106.052 97.5249 106.131 97.8049 106.29C98.0942 106.449 98.3182 106.668 98.4769 106.948C98.6449 107.219 98.7569 107.536 98.8129 107.9C98.8782 108.255 98.9109 108.633 98.9109 109.034V113.5ZM107.111 113.612C106.561 113.612 106.057 113.533 105.599 113.374C105.151 113.215 104.773 112.987 104.465 112.688C104.157 112.389 103.933 112.044 103.793 111.652L104.633 110.644C104.699 110.887 104.834 111.129 105.039 111.372C105.254 111.615 105.529 111.811 105.865 111.96C106.211 112.109 106.612 112.184 107.069 112.184C107.471 112.184 107.825 112.123 108.133 112.002C108.451 111.871 108.703 111.689 108.889 111.456C109.076 111.223 109.169 110.947 109.169 110.63C109.169 110.275 109.057 109.977 108.833 109.734C108.609 109.491 108.287 109.309 107.867 109.188C107.447 109.067 106.943 109.006 106.355 109.006H105.879V107.774H106.355C107.13 107.774 107.746 107.648 108.203 107.396C108.67 107.144 108.903 106.771 108.903 106.276C108.903 105.968 108.819 105.702 108.651 105.478C108.483 105.245 108.264 105.072 107.993 104.96C107.723 104.839 107.424 104.778 107.097 104.778C106.565 104.778 106.103 104.899 105.711 105.142C105.319 105.385 105.035 105.683 104.857 106.038L103.849 104.932C104.045 104.624 104.316 104.358 104.661 104.134C105.007 103.91 105.394 103.737 105.823 103.616C106.262 103.495 106.705 103.434 107.153 103.434C107.807 103.434 108.39 103.551 108.903 103.784C109.417 104.017 109.818 104.339 110.107 104.75C110.397 105.151 110.541 105.609 110.541 106.122C110.541 106.495 110.462 106.831 110.303 107.13C110.154 107.429 109.935 107.681 109.645 107.886C109.365 108.082 109.029 108.227 108.637 108.32C109.057 108.395 109.426 108.553 109.743 108.796C110.07 109.039 110.317 109.337 110.485 109.692C110.663 110.047 110.751 110.434 110.751 110.854C110.751 111.433 110.583 111.927 110.247 112.338C109.921 112.749 109.482 113.066 108.931 113.29C108.381 113.505 107.774 113.612 107.111 113.612Z" fill="#F2F2F2"/>
</svg>
