<svg width="330" height="90" viewBox="0 0 330 90" fill="none" xmlns="http://www.w3.org/2000/svg">
<path d="M0.5 6.5C0.5 3.46243 2.96243 1 6 1H324C327.038 1 329.5 3.46243 329.5 6.5V83.5C329.5 86.5376 327.038 89 324 89H5.99999C2.96243 89 0.5 86.5376 0.5 83.5V6.5Z" fill="white" stroke="#E4E4E7"/>
<path d="M0.5 66.8506C0.5 63.8131 2.96243 61.3506 6 61.3506H324C327.038 61.3506 329.5 63.8131 329.5 66.8506V83.5C329.5 86.5376 327.038 89 324 89H5.99999C2.96243 89 0.5 86.5376 0.5 83.5V66.8506Z" fill="#EF4343" stroke="#E4E4E7"/>
<path d="M49.7378 80.0483V81.4343H42.9198V71.4943H49.6118V72.8803H44.4878V75.7083H48.9258V77.0103H44.4878V80.0483H49.7378ZM55.2207 75.4423C54.6233 75.4516 54.0913 75.5869 53.6247 75.8483C53.1673 76.1096 52.8407 76.4783 52.6447 76.9543V81.4343H51.1047V74.1123H52.5327V75.7503C52.7847 75.2463 53.116 74.8449 53.5267 74.5463C53.9373 74.2383 54.3713 74.0703 54.8287 74.0423C54.922 74.0423 54.9967 74.0423 55.0527 74.0423C55.118 74.0423 55.174 74.0469 55.2207 74.0563V75.4423ZM60.457 75.4423C59.8597 75.4516 59.3277 75.5869 58.861 75.8483C58.4037 76.1096 58.077 76.4783 57.881 76.9543V81.4343H56.341V74.1123H57.769V75.7503C58.021 75.2463 58.3523 74.8449 58.763 74.5463C59.1737 74.2383 59.6077 74.0703 60.065 74.0423C60.1583 74.0423 60.233 74.0423 60.289 74.0423C60.3543 74.0423 60.4103 74.0469 60.457 74.0563V75.4423ZM64.7306 81.5743C64.1519 81.5743 63.6339 81.4763 63.1766 81.2803C62.7193 81.0749 62.3226 80.7949 61.9866 80.4403C61.6599 80.0856 61.4079 79.6843 61.2306 79.2363C61.0533 78.7789 60.9646 78.2936 60.9646 77.7803C60.9646 77.2669 61.0533 76.7816 61.2306 76.3243C61.4079 75.8669 61.6599 75.4656 61.9866 75.1203C62.3226 74.7656 62.7193 74.4903 63.1766 74.2943C63.6433 74.0889 64.1613 73.9863 64.7306 73.9863C65.2999 73.9863 65.8133 74.0889 66.2706 74.2943C66.7373 74.4903 67.1339 74.7656 67.4606 75.1203C67.7966 75.4656 68.0533 75.8669 68.2306 76.3243C68.4079 76.7816 68.4966 77.2669 68.4966 77.7803C68.4966 78.2936 68.4079 78.7789 68.2306 79.2363C68.0533 79.6843 67.7966 80.0856 67.4606 80.4403C67.1339 80.7949 66.7373 81.0749 66.2706 81.2803C65.8133 81.4763 65.2999 81.5743 64.7306 81.5743ZM62.5466 77.7943C62.5466 78.2609 62.6446 78.6809 62.8406 79.0543C63.0366 79.4276 63.2979 79.7216 63.6246 79.9363C63.9513 80.1509 64.3199 80.2583 64.7306 80.2583C65.1319 80.2583 65.4959 80.1509 65.8226 79.9363C66.1586 79.7123 66.4246 79.4136 66.6206 79.0403C66.8166 78.6576 66.9146 78.2376 66.9146 77.7803C66.9146 77.3136 66.8166 76.8936 66.6206 76.5203C66.4246 76.1469 66.1586 75.8529 65.8226 75.6383C65.4959 75.4143 65.1319 75.3023 64.7306 75.3023C64.3199 75.3023 63.9513 75.4143 63.6246 75.6383C63.2979 75.8623 63.0366 76.1609 62.8406 76.5343C62.6446 76.8983 62.5466 77.3183 62.5466 77.7943ZM73.9785 75.4423C73.3811 75.4516 72.8491 75.5869 72.3825 75.8483C71.9251 76.1096 71.5985 76.4783 71.4025 76.9543V81.4343H69.8625V74.1123H71.2905V75.7503C71.5425 75.2463 71.8738 74.8449 72.2845 74.5463C72.6951 74.2383 73.1291 74.0703 73.5865 74.0423C73.6798 74.0423 73.7545 74.0423 73.8105 74.0423C73.8758 74.0423 73.9318 74.0469 73.9785 74.0563V75.4423Z" fill="#09090B"/>
<path d="M51.0713 36.7143C51.0713 41.661 46.8425 45.7143 41.5713 45.7143C36.3001 45.7143 32.0713 41.661 32.0713 36.7143C32.0713 31.7676 36.3001 27.7143 41.5713 27.7143C46.8425 27.7143 51.0713 31.7676 51.0713 36.7143Z" fill="white" stroke="#16A249"/>
<ellipse cx="41.5713" cy="36.7143" rx="6" ry="5.5" fill="#16A249"/>
<path d="M69.8213 40.2843C69.1026 40.2843 68.454 40.1443 67.8753 39.8643C67.2966 39.5843 66.7973 39.2063 66.3773 38.7303C65.9573 38.245 65.6306 37.7036 65.3973 37.1063C65.1733 36.4996 65.0613 35.879 65.0613 35.2443C65.0613 34.5816 65.1826 33.9516 65.4253 33.3543C65.668 32.7476 66.004 32.211 66.4333 31.7443C66.8626 31.2683 67.3666 30.895 67.9453 30.6243C68.5333 30.3443 69.168 30.2043 69.8493 30.2043C70.5586 30.2043 71.2026 30.349 71.7813 30.6383C72.3693 30.9276 72.8686 31.315 73.2793 31.8003C73.6993 32.2856 74.0213 32.827 74.2453 33.4243C74.4786 34.0216 74.5953 34.633 74.5953 35.2583C74.5953 35.921 74.474 36.5556 74.2313 37.1623C73.998 37.7596 73.6666 38.2963 73.2373 38.7723C72.808 39.239 72.2993 39.6076 71.7113 39.8783C71.1326 40.149 70.5026 40.2843 69.8213 40.2843ZM66.6573 35.2443C66.6573 35.711 66.732 36.1636 66.8813 36.6023C67.0306 37.041 67.2406 37.433 67.5113 37.7783C67.7913 38.1143 68.1273 38.3803 68.5193 38.5763C68.9113 38.7723 69.35 38.8703 69.8353 38.8703C70.3393 38.8703 70.7873 38.7676 71.1793 38.5623C71.5713 38.357 71.898 38.0816 72.1593 37.7363C72.43 37.3816 72.6353 36.9896 72.7753 36.5603C72.9153 36.1216 72.9853 35.683 72.9853 35.2443C72.9853 34.7776 72.9106 34.3296 72.7613 33.9003C72.6213 33.4616 72.4113 33.0743 72.1313 32.7383C71.8513 32.393 71.5153 32.1223 71.1233 31.9263C70.7406 31.7303 70.3113 31.6323 69.8353 31.6323C69.3313 31.6323 68.8833 31.735 68.4913 31.9403C68.0993 32.1456 67.768 32.421 67.4973 32.7663C67.2266 33.1116 67.0166 33.499 66.8673 33.9283C66.7273 34.3576 66.6573 34.7963 66.6573 35.2443ZM80.1123 40.3543C79.5243 40.3543 79.0063 40.2143 78.5583 39.9343C78.1103 39.6543 77.7556 39.2903 77.4943 38.8423V43.1963H75.9543V32.8923H77.3123V34.2083C77.5923 33.7696 77.9563 33.4196 78.4043 33.1583C78.8523 32.897 79.3516 32.7663 79.9023 32.7663C80.4063 32.7663 80.8683 32.869 81.2883 33.0743C81.7083 33.2703 82.0723 33.5456 82.3803 33.9003C82.6883 34.255 82.9263 34.661 83.0943 35.1183C83.2716 35.5663 83.3603 36.0423 83.3603 36.5463C83.3603 37.2463 83.2203 37.8856 82.9403 38.4643C82.6696 39.043 82.2869 39.505 81.7923 39.8503C81.3069 40.1863 80.7469 40.3543 80.1123 40.3543ZM79.6083 39.0383C79.9349 39.0383 80.2289 38.9683 80.4903 38.8283C80.7609 38.6883 80.9896 38.5016 81.1763 38.2683C81.3723 38.035 81.5216 37.769 81.6243 37.4703C81.7269 37.1716 81.7783 36.8636 81.7783 36.5463C81.7783 36.2103 81.7223 35.893 81.6103 35.5943C81.4983 35.2956 81.3349 35.0343 81.1203 34.8103C80.9149 34.5863 80.6723 34.409 80.3923 34.2783C80.1216 34.1476 79.8229 34.0823 79.4963 34.0823C79.3003 34.0823 79.0949 34.1196 78.8803 34.1943C78.6656 34.269 78.4649 34.3716 78.2783 34.5023C78.0916 34.633 77.9283 34.787 77.7883 34.9643C77.6483 35.1416 77.5503 35.3283 77.4943 35.5243V37.4423C77.6249 37.741 77.7976 38.0116 78.0123 38.2543C78.2269 38.4876 78.4743 38.679 78.7543 38.8283C79.0343 38.9683 79.3189 39.0383 79.6083 39.0383ZM88.7099 39.8363C88.5792 39.9016 88.4159 39.9716 88.2199 40.0463C88.0239 40.121 87.7999 40.1863 87.5479 40.2423C87.3052 40.2983 87.0532 40.3263 86.7919 40.3263C86.4746 40.3263 86.1806 40.2703 85.9099 40.1583C85.6392 40.0463 85.4199 39.869 85.2519 39.6263C85.0932 39.3743 85.0139 39.0523 85.0139 38.6603V34.0823H84.0479V32.8923H85.0139V30.4843H86.5539V32.8923H88.1499V34.0823H86.5539V38.1703C86.5726 38.4223 86.6519 38.609 86.7919 38.7303C86.9412 38.8516 87.1232 38.9123 87.3379 38.9123C87.5526 38.9123 87.7579 38.875 87.9539 38.8003C88.1499 38.7256 88.2946 38.665 88.3879 38.6183L88.7099 39.8363ZM89.7765 40.2143V32.8923H91.3165V40.2143H89.7765ZM89.7765 31.6883V29.9943H91.3165V31.6883H89.7765ZM96.4572 40.3543C95.8785 40.3543 95.3605 40.2563 94.9032 40.0603C94.4458 39.855 94.0492 39.575 93.7132 39.2203C93.3865 38.8656 93.1345 38.4643 92.9572 38.0163C92.7798 37.559 92.6912 37.0736 92.6912 36.5603C92.6912 36.047 92.7798 35.5616 92.9572 35.1043C93.1345 34.647 93.3865 34.2456 93.7132 33.9003C94.0492 33.5456 94.4458 33.2703 94.9032 33.0743C95.3698 32.869 95.8878 32.7663 96.4572 32.7663C97.0265 32.7663 97.5398 32.869 97.9972 33.0743C98.4638 33.2703 98.8605 33.5456 99.1872 33.9003C99.5232 34.2456 99.7798 34.647 99.9572 35.1043C100.134 35.5616 100.223 36.047 100.223 36.5603C100.223 37.0736 100.134 37.559 99.9572 38.0163C99.7798 38.4643 99.5232 38.8656 99.1872 39.2203C98.8605 39.575 98.4638 39.855 97.9972 40.0603C97.5398 40.2563 97.0265 40.3543 96.4572 40.3543ZM94.2732 36.5743C94.2732 37.041 94.3712 37.461 94.5672 37.8343C94.7632 38.2076 95.0245 38.5016 95.3512 38.7163C95.6778 38.931 96.0465 39.0383 96.4572 39.0383C96.8585 39.0383 97.2225 38.931 97.5492 38.7163C97.8852 38.4923 98.1512 38.1936 98.3472 37.8203C98.5432 37.4376 98.6412 37.0176 98.6412 36.5603C98.6412 36.0936 98.5432 35.6736 98.3472 35.3003C98.1512 34.927 97.8852 34.633 97.5492 34.4183C97.2225 34.1943 96.8585 34.0823 96.4572 34.0823C96.0465 34.0823 95.6778 34.1943 95.3512 34.4183C95.0245 34.6423 94.7632 34.941 94.5672 35.3143C94.3712 35.6783 94.2732 36.0983 94.2732 36.5743ZM108.155 40.2143H106.615V36.1123C106.615 35.431 106.503 34.9316 106.279 34.6143C106.064 34.297 105.742 34.1383 105.313 34.1383C105.014 34.1383 104.716 34.213 104.417 34.3623C104.128 34.5116 103.866 34.717 103.633 34.9783C103.4 35.2303 103.232 35.5243 103.129 35.8603V40.2143H101.589V32.8923H102.989V34.3623C103.176 34.0356 103.418 33.7556 103.717 33.5223C104.025 33.2796 104.37 33.093 104.753 32.9623C105.136 32.8316 105.542 32.7663 105.971 32.7663C106.41 32.7663 106.769 32.8456 107.049 33.0043C107.338 33.163 107.562 33.3823 107.721 33.6623C107.889 33.933 108.001 34.2503 108.057 34.6143C108.122 34.969 108.155 35.347 108.155 35.7483V40.2143ZM118.68 38.8283V40.2143H113.402V38.8283H115.32V31.7443C115.245 31.8563 115.119 31.9823 114.942 32.1223C114.774 32.253 114.582 32.3836 114.368 32.5143C114.153 32.6356 113.929 32.7383 113.696 32.8223C113.472 32.9063 113.266 32.9483 113.08 32.9483V31.5203C113.332 31.5203 113.584 31.455 113.836 31.3243C114.097 31.1936 114.34 31.0443 114.564 30.8763C114.788 30.699 114.965 30.5403 115.096 30.4003C115.236 30.2603 115.31 30.1856 115.32 30.1763H116.902V38.8283H118.68Z" fill="#09090B"/>
<path d="M148.071 36.7143C148.071 41.661 143.842 45.7143 138.571 45.7143C133.3 45.7143 129.071 41.661 129.071 36.7143C129.071 31.7676 133.3 27.7143 138.571 27.7143C143.842 27.7143 148.071 31.7676 148.071 36.7143Z" fill="white" stroke="#09090B"/>
<path d="M166.821 40.2843C166.103 40.2843 165.454 40.1443 164.875 39.8643C164.297 39.5843 163.797 39.2063 163.377 38.7303C162.957 38.245 162.631 37.7036 162.397 37.1063C162.173 36.4996 162.061 35.879 162.061 35.2443C162.061 34.5816 162.183 33.9516 162.425 33.3543C162.668 32.7476 163.004 32.211 163.433 31.7443C163.863 31.2683 164.367 30.895 164.945 30.6243C165.533 30.3443 166.168 30.2043 166.849 30.2043C167.559 30.2043 168.203 30.349 168.781 30.6383C169.369 30.9276 169.869 31.315 170.279 31.8003C170.699 32.2856 171.021 32.827 171.245 33.4243C171.479 34.0216 171.595 34.633 171.595 35.2583C171.595 35.921 171.474 36.5556 171.231 37.1623C170.998 37.7596 170.667 38.2963 170.237 38.7723C169.808 39.239 169.299 39.6076 168.711 39.8783C168.133 40.149 167.503 40.2843 166.821 40.2843ZM163.657 35.2443C163.657 35.711 163.732 36.1636 163.881 36.6023C164.031 37.041 164.241 37.433 164.511 37.7783C164.791 38.1143 165.127 38.3803 165.519 38.5763C165.911 38.7723 166.35 38.8703 166.835 38.8703C167.339 38.8703 167.787 38.7676 168.179 38.5623C168.571 38.357 168.898 38.0816 169.159 37.7363C169.43 37.3816 169.635 36.9896 169.775 36.5603C169.915 36.1216 169.985 35.683 169.985 35.2443C169.985 34.7776 169.911 34.3296 169.761 33.9003C169.621 33.4616 169.411 33.0743 169.131 32.7383C168.851 32.393 168.515 32.1223 168.123 31.9263C167.741 31.7303 167.311 31.6323 166.835 31.6323C166.331 31.6323 165.883 31.735 165.491 31.9403C165.099 32.1456 164.768 32.421 164.497 32.7663C164.227 33.1116 164.017 33.499 163.867 33.9283C163.727 34.3576 163.657 34.7963 163.657 35.2443ZM177.112 40.3543C176.524 40.3543 176.006 40.2143 175.558 39.9343C175.11 39.6543 174.756 39.2903 174.494 38.8423V43.1963H172.954V32.8923H174.312V34.2083C174.592 33.7696 174.956 33.4196 175.404 33.1583C175.852 32.897 176.352 32.7663 176.902 32.7663C177.406 32.7663 177.868 32.869 178.288 33.0743C178.708 33.2703 179.072 33.5456 179.38 33.9003C179.688 34.255 179.926 34.661 180.094 35.1183C180.272 35.5663 180.36 36.0423 180.36 36.5463C180.36 37.2463 180.22 37.8856 179.94 38.4643C179.67 39.043 179.287 39.505 178.792 39.8503C178.307 40.1863 177.747 40.3543 177.112 40.3543ZM176.608 39.0383C176.935 39.0383 177.229 38.9683 177.49 38.8283C177.761 38.6883 177.99 38.5016 178.176 38.2683C178.372 38.035 178.522 37.769 178.624 37.4703C178.727 37.1716 178.778 36.8636 178.778 36.5463C178.778 36.2103 178.722 35.893 178.61 35.5943C178.498 35.2956 178.335 35.0343 178.12 34.8103C177.915 34.5863 177.672 34.409 177.392 34.2783C177.122 34.1476 176.823 34.0823 176.496 34.0823C176.3 34.0823 176.095 34.1196 175.88 34.1943C175.666 34.269 175.465 34.3716 175.278 34.5023C175.092 34.633 174.928 34.787 174.788 34.9643C174.648 35.1416 174.55 35.3283 174.494 35.5243V37.4423C174.625 37.741 174.798 38.0116 175.012 38.2543C175.227 38.4876 175.474 38.679 175.754 38.8283C176.034 38.9683 176.319 39.0383 176.608 39.0383ZM185.71 39.8363C185.579 39.9016 185.416 39.9716 185.22 40.0463C185.024 40.121 184.8 40.1863 184.548 40.2423C184.305 40.2983 184.053 40.3263 183.792 40.3263C183.475 40.3263 183.181 40.2703 182.91 40.1583C182.639 40.0463 182.42 39.869 182.252 39.6263C182.093 39.3743 182.014 39.0523 182.014 38.6603V34.0823H181.048V32.8923H182.014V30.4843H183.554V32.8923H185.15V34.0823H183.554V38.1703C183.573 38.4223 183.652 38.609 183.792 38.7303C183.941 38.8516 184.123 38.9123 184.338 38.9123C184.553 38.9123 184.758 38.875 184.954 38.8003C185.15 38.7256 185.295 38.665 185.388 38.6183L185.71 39.8363ZM186.777 40.2143V32.8923H188.317V40.2143H186.777ZM186.777 31.6883V29.9943H188.317V31.6883H186.777ZM193.457 40.3543C192.878 40.3543 192.36 40.2563 191.903 40.0603C191.446 39.855 191.049 39.575 190.713 39.2203C190.386 38.8656 190.134 38.4643 189.957 38.0163C189.78 37.559 189.691 37.0736 189.691 36.5603C189.691 36.047 189.78 35.5616 189.957 35.1043C190.134 34.647 190.386 34.2456 190.713 33.9003C191.049 33.5456 191.446 33.2703 191.903 33.0743C192.37 32.869 192.888 32.7663 193.457 32.7663C194.026 32.7663 194.54 32.869 194.997 33.0743C195.464 33.2703 195.86 33.5456 196.187 33.9003C196.523 34.2456 196.78 34.647 196.957 35.1043C197.134 35.5616 197.223 36.047 197.223 36.5603C197.223 37.0736 197.134 37.559 196.957 38.0163C196.78 38.4643 196.523 38.8656 196.187 39.2203C195.86 39.575 195.464 39.855 194.997 40.0603C194.54 40.2563 194.026 40.3543 193.457 40.3543ZM191.273 36.5743C191.273 37.041 191.371 37.461 191.567 37.8343C191.763 38.2076 192.024 38.5016 192.351 38.7163C192.678 38.931 193.046 39.0383 193.457 39.0383C193.858 39.0383 194.222 38.931 194.549 38.7163C194.885 38.4923 195.151 38.1936 195.347 37.8203C195.543 37.4376 195.641 37.0176 195.641 36.5603C195.641 36.0936 195.543 35.6736 195.347 35.3003C195.151 34.927 194.885 34.633 194.549 34.4183C194.222 34.1943 193.858 34.0823 193.457 34.0823C193.046 34.0823 192.678 34.1943 192.351 34.4183C192.024 34.6423 191.763 34.941 191.567 35.3143C191.371 35.6783 191.273 36.0983 191.273 36.5743ZM205.155 40.2143H203.615V36.1123C203.615 35.431 203.503 34.9316 203.279 34.6143C203.064 34.297 202.742 34.1383 202.313 34.1383C202.014 34.1383 201.716 34.213 201.417 34.3623C201.128 34.5116 200.866 34.717 200.633 34.9783C200.4 35.2303 200.232 35.5243 200.129 35.8603V40.2143H198.589V32.8923H199.989V34.3623C200.176 34.0356 200.418 33.7556 200.717 33.5223C201.025 33.2796 201.37 33.093 201.753 32.9623C202.136 32.8316 202.542 32.7663 202.971 32.7663C203.41 32.7663 203.769 32.8456 204.049 33.0043C204.338 33.163 204.562 33.3823 204.721 33.6623C204.889 33.933 205.001 34.2503 205.057 34.6143C205.122 34.969 205.155 35.347 205.155 35.7483V40.2143ZM210.094 40.2143C210.094 39.645 210.136 39.1456 210.22 38.7163C210.304 38.287 210.434 37.8996 210.612 37.5543C210.789 37.209 211.013 36.9056 211.284 36.6443C211.554 36.383 211.867 36.145 212.222 35.9303C212.567 35.725 212.922 35.5336 213.286 35.3563C213.659 35.179 214.004 34.9923 214.322 34.7963C214.639 34.6003 214.891 34.3716 215.078 34.1103C215.274 33.8396 215.372 33.513 215.372 33.1303C215.372 32.8223 215.306 32.5516 215.176 32.3183C215.054 32.085 214.868 31.903 214.616 31.7723C214.373 31.6323 214.06 31.5623 213.678 31.5623C213.286 31.5623 212.922 31.6323 212.586 31.7723C212.259 31.903 211.97 32.0663 211.718 32.2623C211.475 32.4583 211.279 32.6496 211.13 32.8363L210.15 31.8143C210.243 31.7023 210.392 31.553 210.598 31.3663C210.812 31.1796 211.074 30.993 211.382 30.8063C211.699 30.6196 212.063 30.4656 212.474 30.3443C212.884 30.2136 213.346 30.1483 213.86 30.1483C214.569 30.1483 215.162 30.279 215.638 30.5403C216.123 30.7923 216.487 31.1423 216.73 31.5903C216.982 32.029 217.108 32.5236 217.108 33.0743C217.108 33.5223 217.028 33.9143 216.87 34.2503C216.711 34.577 216.501 34.8616 216.24 35.1043C215.988 35.3376 215.703 35.5476 215.386 35.7343C215.078 35.921 214.77 36.0983 214.462 36.2663C213.93 36.537 213.5 36.7796 213.174 36.9943C212.856 37.209 212.604 37.4143 212.418 37.6103C212.24 37.8063 212.114 38.0023 212.04 38.1983C211.965 38.3943 211.914 38.6043 211.886 38.8283H217.122V40.2143H210.094Z" fill="#09090B"/>
<path d="M245.071 36.7143C245.071 41.661 240.842 45.7143 235.571 45.7143C230.3 45.7143 226.071 41.661 226.071 36.7143C226.071 31.7676 230.3 27.7143 235.571 27.7143C240.842 27.7143 245.071 31.7676 245.071 36.7143Z" fill="white" stroke="#09090B"/>
<path d="M263.821 40.2843C263.103 40.2843 262.454 40.1443 261.875 39.8643C261.297 39.5843 260.797 39.2063 260.377 38.7303C259.957 38.245 259.631 37.7036 259.397 37.1063C259.173 36.4996 259.061 35.879 259.061 35.2443C259.061 34.5816 259.183 33.9516 259.425 33.3543C259.668 32.7476 260.004 32.211 260.433 31.7443C260.863 31.2683 261.367 30.895 261.945 30.6243C262.533 30.3443 263.168 30.2043 263.849 30.2043C264.559 30.2043 265.203 30.349 265.781 30.6383C266.369 30.9276 266.869 31.315 267.279 31.8003C267.699 32.2856 268.021 32.827 268.245 33.4243C268.479 34.0216 268.595 34.633 268.595 35.2583C268.595 35.921 268.474 36.5556 268.231 37.1623C267.998 37.7596 267.667 38.2963 267.237 38.7723C266.808 39.239 266.299 39.6076 265.711 39.8783C265.133 40.149 264.503 40.2843 263.821 40.2843ZM260.657 35.2443C260.657 35.711 260.732 36.1636 260.881 36.6023C261.031 37.041 261.241 37.433 261.511 37.7783C261.791 38.1143 262.127 38.3803 262.519 38.5763C262.911 38.7723 263.35 38.8703 263.835 38.8703C264.339 38.8703 264.787 38.7676 265.179 38.5623C265.571 38.357 265.898 38.0816 266.159 37.7363C266.43 37.3816 266.635 36.9896 266.775 36.5603C266.915 36.1216 266.985 35.683 266.985 35.2443C266.985 34.7776 266.911 34.3296 266.761 33.9003C266.621 33.4616 266.411 33.0743 266.131 32.7383C265.851 32.393 265.515 32.1223 265.123 31.9263C264.741 31.7303 264.311 31.6323 263.835 31.6323C263.331 31.6323 262.883 31.735 262.491 31.9403C262.099 32.1456 261.768 32.421 261.497 32.7663C261.227 33.1116 261.017 33.499 260.867 33.9283C260.727 34.3576 260.657 34.7963 260.657 35.2443ZM274.112 40.3543C273.524 40.3543 273.006 40.2143 272.558 39.9343C272.11 39.6543 271.756 39.2903 271.494 38.8423V43.1963H269.954V32.8923H271.312V34.2083C271.592 33.7696 271.956 33.4196 272.404 33.1583C272.852 32.897 273.352 32.7663 273.902 32.7663C274.406 32.7663 274.868 32.869 275.288 33.0743C275.708 33.2703 276.072 33.5456 276.38 33.9003C276.688 34.255 276.926 34.661 277.094 35.1183C277.272 35.5663 277.36 36.0423 277.36 36.5463C277.36 37.2463 277.22 37.8856 276.94 38.4643C276.67 39.043 276.287 39.505 275.792 39.8503C275.307 40.1863 274.747 40.3543 274.112 40.3543ZM273.608 39.0383C273.935 39.0383 274.229 38.9683 274.49 38.8283C274.761 38.6883 274.99 38.5016 275.176 38.2683C275.372 38.035 275.522 37.769 275.624 37.4703C275.727 37.1716 275.778 36.8636 275.778 36.5463C275.778 36.2103 275.722 35.893 275.61 35.5943C275.498 35.2956 275.335 35.0343 275.12 34.8103C274.915 34.5863 274.672 34.409 274.392 34.2783C274.122 34.1476 273.823 34.0823 273.496 34.0823C273.3 34.0823 273.095 34.1196 272.88 34.1943C272.666 34.269 272.465 34.3716 272.278 34.5023C272.092 34.633 271.928 34.787 271.788 34.9643C271.648 35.1416 271.55 35.3283 271.494 35.5243V37.4423C271.625 37.741 271.798 38.0116 272.012 38.2543C272.227 38.4876 272.474 38.679 272.754 38.8283C273.034 38.9683 273.319 39.0383 273.608 39.0383ZM282.71 39.8363C282.579 39.9016 282.416 39.9716 282.22 40.0463C282.024 40.121 281.8 40.1863 281.548 40.2423C281.305 40.2983 281.053 40.3263 280.792 40.3263C280.475 40.3263 280.181 40.2703 279.91 40.1583C279.639 40.0463 279.42 39.869 279.252 39.6263C279.093 39.3743 279.014 39.0523 279.014 38.6603V34.0823H278.048V32.8923H279.014V30.4843H280.554V32.8923H282.15V34.0823H280.554V38.1703C280.573 38.4223 280.652 38.609 280.792 38.7303C280.941 38.8516 281.123 38.9123 281.338 38.9123C281.553 38.9123 281.758 38.875 281.954 38.8003C282.15 38.7256 282.295 38.665 282.388 38.6183L282.71 39.8363ZM283.777 40.2143V32.8923H285.317V40.2143H283.777ZM283.777 31.6883V29.9943H285.317V31.6883H283.777ZM290.457 40.3543C289.878 40.3543 289.36 40.2563 288.903 40.0603C288.446 39.855 288.049 39.575 287.713 39.2203C287.386 38.8656 287.134 38.4643 286.957 38.0163C286.78 37.559 286.691 37.0736 286.691 36.5603C286.691 36.047 286.78 35.5616 286.957 35.1043C287.134 34.647 287.386 34.2456 287.713 33.9003C288.049 33.5456 288.446 33.2703 288.903 33.0743C289.37 32.869 289.888 32.7663 290.457 32.7663C291.026 32.7663 291.54 32.869 291.997 33.0743C292.464 33.2703 292.86 33.5456 293.187 33.9003C293.523 34.2456 293.78 34.647 293.957 35.1043C294.134 35.5616 294.223 36.047 294.223 36.5603C294.223 37.0736 294.134 37.559 293.957 38.0163C293.78 38.4643 293.523 38.8656 293.187 39.2203C292.86 39.575 292.464 39.855 291.997 40.0603C291.54 40.2563 291.026 40.3543 290.457 40.3543ZM288.273 36.5743C288.273 37.041 288.371 37.461 288.567 37.8343C288.763 38.2076 289.024 38.5016 289.351 38.7163C289.678 38.931 290.046 39.0383 290.457 39.0383C290.858 39.0383 291.222 38.931 291.549 38.7163C291.885 38.4923 292.151 38.1936 292.347 37.8203C292.543 37.4376 292.641 37.0176 292.641 36.5603C292.641 36.0936 292.543 35.6736 292.347 35.3003C292.151 34.927 291.885 34.633 291.549 34.4183C291.222 34.1943 290.858 34.0823 290.457 34.0823C290.046 34.0823 289.678 34.1943 289.351 34.4183C289.024 34.6423 288.763 34.941 288.567 35.3143C288.371 35.6783 288.273 36.0983 288.273 36.5743ZM302.155 40.2143H300.615V36.1123C300.615 35.431 300.503 34.9316 300.279 34.6143C300.064 34.297 299.742 34.1383 299.313 34.1383C299.014 34.1383 298.716 34.213 298.417 34.3623C298.128 34.5116 297.866 34.717 297.633 34.9783C297.4 35.2303 297.232 35.5243 297.129 35.8603V40.2143H295.589V32.8923H296.989V34.3623C297.176 34.0356 297.418 33.7556 297.717 33.5223C298.025 33.2796 298.37 33.093 298.753 32.9623C299.136 32.8316 299.542 32.7663 299.971 32.7663C300.41 32.7663 300.769 32.8456 301.049 33.0043C301.338 33.163 301.562 33.3823 301.721 33.6623C301.889 33.933 302.001 34.2503 302.057 34.6143C302.122 34.969 302.155 35.347 302.155 35.7483V40.2143ZM310.356 40.3263C309.805 40.3263 309.301 40.247 308.844 40.0883C308.396 39.9296 308.018 39.701 307.71 39.4023C307.402 39.1036 307.178 38.7583 307.038 38.3663L307.878 37.3583C307.943 37.601 308.078 37.8436 308.284 38.0863C308.498 38.329 308.774 38.525 309.11 38.6743C309.455 38.8236 309.856 38.8983 310.314 38.8983C310.715 38.8983 311.07 38.8376 311.378 38.7163C311.695 38.5856 311.947 38.4036 312.134 38.1703C312.32 37.937 312.414 37.6616 312.414 37.3443C312.414 36.9896 312.302 36.691 312.078 36.4483C311.854 36.2056 311.532 36.0236 311.112 35.9023C310.692 35.781 310.188 35.7203 309.6 35.7203H309.124V34.4883H309.6C310.374 34.4883 310.99 34.3623 311.448 34.1103C311.914 33.8583 312.148 33.485 312.148 32.9903C312.148 32.6823 312.064 32.4163 311.896 32.1923C311.728 31.959 311.508 31.7863 311.238 31.6743C310.967 31.553 310.668 31.4923 310.342 31.4923C309.81 31.4923 309.348 31.6136 308.956 31.8563C308.564 32.099 308.279 32.3976 308.102 32.7523L307.094 31.6463C307.29 31.3383 307.56 31.0723 307.906 30.8483C308.251 30.6243 308.638 30.4516 309.068 30.3303C309.506 30.209 309.95 30.1483 310.398 30.1483C311.051 30.1483 311.634 30.265 312.148 30.4983C312.661 30.7316 313.062 31.0536 313.352 31.4643C313.641 31.8656 313.786 32.323 313.786 32.8363C313.786 33.2096 313.706 33.5456 313.548 33.8443C313.398 34.143 313.179 34.395 312.89 34.6003C312.61 34.7963 312.274 34.941 311.882 35.0343C312.302 35.109 312.67 35.2676 312.988 35.5103C313.314 35.753 313.562 36.0516 313.73 36.4063C313.907 36.761 313.996 37.1483 313.996 37.5683C313.996 38.147 313.828 38.6416 313.492 39.0523C313.165 39.463 312.726 39.7803 312.176 40.0043C311.625 40.219 311.018 40.3263 310.356 40.3263Z" fill="#09090B"/>
</svg>
