<svg width="188" height="217" viewBox="0 0 188 217" fill="none" xmlns="http://www.w3.org/2000/svg">
<path d="M0.5 6.5C0.5 3.46243 2.96243 1 6 1H182C185.038 1 187.5 3.46243 187.5 6.5V202.5C187.5 205.538 185.038 208 182 208H6C2.96243 208 0.5 205.538 0.5 202.5V6.5Z" fill="white" stroke="#E4E4E7"/>
<path d="M0.5 179.5C0.5 176.462 2.96243 174 6 174H182C185.038 174 187.5 176.462 187.5 179.5V202.5C187.5 205.538 185.038 208 182 208H6C2.96243 208 0.5 205.538 0.5 202.5V179.5Z" fill="#EF4343" stroke="#E4E4E7"/>
<path d="M31.7515 194.379V195.765H24.9335V185.825H31.6255V187.211H26.5015V190.039H30.9395V191.341H26.5015V194.379H31.7515ZM37.2343 189.773C36.637 189.782 36.105 189.917 35.6383 190.179C35.181 190.44 34.8543 190.809 34.6583 191.285V195.765H33.1183V188.443H34.5463V190.081C34.7983 189.577 35.1297 189.175 35.5403 188.877C35.951 188.569 36.385 188.401 36.8423 188.373C36.9357 188.373 37.0103 188.373 37.0663 188.373C37.1317 188.373 37.1877 188.377 37.2343 188.387V189.773ZM42.4707 189.773C41.8733 189.782 41.3413 189.917 40.8747 190.179C40.4173 190.44 40.0907 190.809 39.8947 191.285V195.765H38.3547V188.443H39.7827V190.081C40.0347 189.577 40.366 189.175 40.7767 188.877C41.1873 188.569 41.6213 188.401 42.0787 188.373C42.172 188.373 42.2467 188.373 42.3027 188.373C42.368 188.373 42.424 188.377 42.4707 188.387V189.773ZM46.7443 195.905C46.1656 195.905 45.6476 195.807 45.1903 195.611C44.7329 195.405 44.3363 195.125 44.0003 194.771C43.6736 194.416 43.4216 194.015 43.2443 193.567C43.0669 193.109 42.9783 192.624 42.9783 192.111C42.9783 191.597 43.0669 191.112 43.2443 190.655C43.4216 190.197 43.6736 189.796 44.0003 189.451C44.3363 189.096 44.7329 188.821 45.1903 188.625C45.6569 188.419 46.1749 188.317 46.7443 188.317C47.3136 188.317 47.8269 188.419 48.2843 188.625C48.7509 188.821 49.1476 189.096 49.4743 189.451C49.8103 189.796 50.0669 190.197 50.2443 190.655C50.4216 191.112 50.5103 191.597 50.5103 192.111C50.5103 192.624 50.4216 193.109 50.2443 193.567C50.0669 194.015 49.8103 194.416 49.4743 194.771C49.1476 195.125 48.7509 195.405 48.2843 195.611C47.8269 195.807 47.3136 195.905 46.7443 195.905ZM44.5603 192.125C44.5603 192.591 44.6583 193.011 44.8543 193.385C45.0503 193.758 45.3116 194.052 45.6383 194.267C45.9649 194.481 46.3336 194.589 46.7443 194.589C47.1456 194.589 47.5096 194.481 47.8363 194.267C48.1723 194.043 48.4383 193.744 48.6343 193.371C48.8303 192.988 48.9283 192.568 48.9283 192.111C48.9283 191.644 48.8303 191.224 48.6343 190.851C48.4383 190.477 48.1723 190.183 47.8363 189.969C47.5096 189.745 47.1456 189.633 46.7443 189.633C46.3336 189.633 45.9649 189.745 45.6383 189.969C45.3116 190.193 45.0503 190.491 44.8543 190.865C44.6583 191.229 44.5603 191.649 44.5603 192.125ZM55.9921 189.773C55.3948 189.782 54.8628 189.917 54.3961 190.179C53.9388 190.44 53.6121 190.809 53.4161 191.285V195.765H51.8761V188.443H53.3041V190.081C53.5561 189.577 53.8875 189.175 54.2981 188.877C54.7088 188.569 55.1428 188.401 55.6001 188.373C55.6935 188.373 55.7681 188.373 55.8241 188.373C55.8895 188.373 55.9455 188.377 55.9921 188.387V189.773Z" fill="#09090B"/>
<path d="M41.5 51C41.5 55.9467 37.2712 60 32 60C26.7288 60 22.5 55.9467 22.5 51C22.5 46.0533 26.7288 42 32 42C37.2712 42 41.5 46.0533 41.5 51Z" fill="white" stroke="#16A249"/>
<ellipse cx="32" cy="51" rx="6" ry="5.5" fill="#16A249"/>
<path d="M60.25 54.57C59.5313 54.57 58.8827 54.43 58.304 54.15C57.7253 53.87 57.226 53.492 56.806 53.016C56.386 52.5307 56.0593 51.9893 55.826 51.392C55.602 50.7853 55.49 50.1647 55.49 49.53C55.49 48.8673 55.6113 48.2373 55.854 47.64C56.0967 47.0333 56.4327 46.4967 56.862 46.03C57.2913 45.554 57.7953 45.1807 58.374 44.91C58.962 44.63 59.5967 44.49 60.278 44.49C60.9873 44.49 61.6313 44.6347 62.21 44.924C62.798 45.2133 63.2973 45.6007 63.708 46.086C64.128 46.5713 64.45 47.1127 64.674 47.71C64.9073 48.3073 65.024 48.9187 65.024 49.544C65.024 50.2067 64.9027 50.8413 64.66 51.448C64.4267 52.0453 64.0953 52.582 63.666 53.058C63.2367 53.5247 62.728 53.8933 62.14 54.164C61.5613 54.4347 60.9313 54.57 60.25 54.57ZM57.086 49.53C57.086 49.9967 57.1607 50.4493 57.31 50.888C57.4593 51.3267 57.6693 51.7187 57.94 52.064C58.22 52.4 58.556 52.666 58.948 52.862C59.34 53.058 59.7787 53.156 60.264 53.156C60.768 53.156 61.216 53.0533 61.608 52.848C62 52.6427 62.3267 52.3673 62.588 52.022C62.8587 51.6673 63.064 51.2753 63.204 50.846C63.344 50.4073 63.414 49.9687 63.414 49.53C63.414 49.0633 63.3393 48.6153 63.19 48.186C63.05 47.7473 62.84 47.36 62.56 47.024C62.28 46.6787 61.944 46.408 61.552 46.212C61.1693 46.016 60.74 45.918 60.264 45.918C59.76 45.918 59.312 46.0207 58.92 46.226C58.528 46.4313 58.1967 46.7067 57.926 47.052C57.6553 47.3973 57.4453 47.7847 57.296 48.214C57.156 48.6433 57.086 49.082 57.086 49.53ZM70.541 54.64C69.953 54.64 69.435 54.5 68.987 54.22C68.539 53.94 68.1843 53.576 67.923 53.128V57.482H66.383V47.178H67.741V48.494C68.021 48.0553 68.385 47.7053 68.833 47.444C69.281 47.1827 69.7803 47.052 70.331 47.052C70.835 47.052 71.297 47.1547 71.717 47.36C72.137 47.556 72.501 47.8313 72.809 48.186C73.117 48.5407 73.355 48.9467 73.523 49.404C73.7003 49.852 73.789 50.328 73.789 50.832C73.789 51.532 73.649 52.1713 73.369 52.75C73.0983 53.3287 72.7157 53.7907 72.221 54.136C71.7357 54.472 71.1757 54.64 70.541 54.64ZM70.037 53.324C70.3637 53.324 70.6577 53.254 70.919 53.114C71.1897 52.974 71.4183 52.7873 71.605 52.554C71.801 52.3207 71.9503 52.0547 72.053 51.756C72.1557 51.4573 72.207 51.1493 72.207 50.832C72.207 50.496 72.151 50.1787 72.039 49.88C71.927 49.5813 71.7637 49.32 71.549 49.096C71.3437 48.872 71.101 48.6947 70.821 48.564C70.5503 48.4333 70.2517 48.368 69.925 48.368C69.729 48.368 69.5237 48.4053 69.309 48.48C69.0943 48.5547 68.8937 48.6573 68.707 48.788C68.5203 48.9187 68.357 49.0727 68.217 49.25C68.077 49.4273 67.979 49.614 67.923 49.81V51.728C68.0537 52.0267 68.2263 52.2973 68.441 52.54C68.6557 52.7733 68.903 52.9647 69.183 53.114C69.463 53.254 69.7477 53.324 70.037 53.324ZM79.1386 54.122C79.008 54.1873 78.8446 54.2573 78.6486 54.332C78.4526 54.4067 78.2286 54.472 77.9766 54.528C77.734 54.584 77.482 54.612 77.2206 54.612C76.9033 54.612 76.6093 54.556 76.3386 54.444C76.068 54.332 75.8486 54.1547 75.6806 53.912C75.522 53.66 75.4426 53.338 75.4426 52.946V48.368H74.4766V47.178H75.4426V44.77H76.9826V47.178H78.5786V48.368H76.9826V52.456C77.0013 52.708 77.0806 52.8947 77.2206 53.016C77.37 53.1373 77.552 53.198 77.7666 53.198C77.9813 53.198 78.1866 53.1607 78.3826 53.086C78.5786 53.0113 78.7233 52.9507 78.8166 52.904L79.1386 54.122ZM80.2052 54.5V47.178H81.7453V54.5H80.2052ZM80.2052 45.974V44.28H81.7453V45.974H80.2052ZM86.8859 54.64C86.3072 54.64 85.7892 54.542 85.3319 54.346C84.8745 54.1407 84.4779 53.8607 84.1419 53.506C83.8152 53.1513 83.5632 52.75 83.3859 52.302C83.2085 51.8447 83.1199 51.3593 83.1199 50.846C83.1199 50.3327 83.2085 49.8473 83.3859 49.39C83.5632 48.9327 83.8152 48.5313 84.1419 48.186C84.4779 47.8313 84.8745 47.556 85.3319 47.36C85.7985 47.1547 86.3165 47.052 86.8859 47.052C87.4552 47.052 87.9685 47.1547 88.4259 47.36C88.8925 47.556 89.2892 47.8313 89.6159 48.186C89.9519 48.5313 90.2085 48.9327 90.3859 49.39C90.5632 49.8473 90.6519 50.3327 90.6519 50.846C90.6519 51.3593 90.5632 51.8447 90.3859 52.302C90.2085 52.75 89.9519 53.1513 89.6159 53.506C89.2892 53.8607 88.8925 54.1407 88.4259 54.346C87.9685 54.542 87.4552 54.64 86.8859 54.64ZM84.7019 50.86C84.7019 51.3267 84.7999 51.7467 84.9959 52.12C85.1919 52.4933 85.4532 52.7873 85.7799 53.002C86.1065 53.2167 86.4752 53.324 86.8859 53.324C87.2872 53.324 87.6512 53.2167 87.9779 53.002C88.3139 52.778 88.5799 52.4793 88.7759 52.106C88.9719 51.7233 89.0699 51.3033 89.0699 50.846C89.0699 50.3793 88.9719 49.9593 88.7759 49.586C88.5799 49.2127 88.3139 48.9187 87.9779 48.704C87.6512 48.48 87.2872 48.368 86.8859 48.368C86.4752 48.368 86.1065 48.48 85.7799 48.704C85.4532 48.928 85.1919 49.2267 84.9959 49.6C84.7999 49.964 84.7019 50.384 84.7019 50.86ZM98.5838 54.5H97.0438V50.398C97.0438 49.7167 96.9318 49.2173 96.7078 48.9C96.4931 48.5827 96.1711 48.424 95.7418 48.424C95.4431 48.424 95.1444 48.4987 94.8458 48.648C94.5564 48.7973 94.2951 49.0027 94.0618 49.264C93.8284 49.516 93.6604 49.81 93.5578 50.146V54.5H92.0177V47.178H93.4178V48.648C93.6044 48.3213 93.8471 48.0413 94.1458 47.808C94.4538 47.5653 94.7991 47.3787 95.1818 47.248C95.5644 47.1173 95.9704 47.052 96.3998 47.052C96.8384 47.052 97.1978 47.1313 97.4778 47.29C97.7671 47.4487 97.9911 47.668 98.1498 47.948C98.3178 48.2187 98.4298 48.536 98.4857 48.9C98.5511 49.2547 98.5838 49.6327 98.5838 50.034V54.5ZM109.108 53.114V54.5H103.83V53.114H105.748V46.03C105.674 46.142 105.548 46.268 105.37 46.408C105.202 46.5387 105.011 46.6693 104.796 46.8C104.582 46.9213 104.358 47.024 104.124 47.108C103.9 47.192 103.695 47.234 103.508 47.234V45.806C103.76 45.806 104.012 45.7407 104.264 45.61C104.526 45.4793 104.768 45.33 104.992 45.162C105.216 44.9847 105.394 44.826 105.524 44.686C105.664 44.546 105.739 44.4713 105.748 44.462H107.33V53.114H109.108Z" fill="#09090B"/>
<path d="M61.5 83C61.5 87.9467 57.2712 92 52 92C46.7288 92 42.5 87.9467 42.5 83C42.5 78.0533 46.7288 74 52 74C57.2712 74 61.5 78.0533 61.5 83Z" fill="white" stroke="#16A249"/>
<ellipse cx="52" cy="83" rx="6" ry="5.5" fill="#16A249"/>
<path d="M80.25 86.57C79.5313 86.57 78.8827 86.43 78.304 86.15C77.7253 85.87 77.226 85.492 76.806 85.016C76.386 84.5307 76.0593 83.9893 75.826 83.392C75.602 82.7853 75.49 82.1647 75.49 81.53C75.49 80.8673 75.6113 80.2373 75.854 79.64C76.0967 79.0333 76.4327 78.4967 76.862 78.03C77.2913 77.554 77.7953 77.1807 78.374 76.91C78.962 76.63 79.5967 76.49 80.278 76.49C80.9873 76.49 81.6313 76.6347 82.21 76.924C82.798 77.2133 83.2973 77.6007 83.708 78.086C84.128 78.5713 84.45 79.1127 84.674 79.71C84.9073 80.3073 85.024 80.9187 85.024 81.544C85.024 82.2067 84.9027 82.8413 84.66 83.448C84.4267 84.0453 84.0953 84.582 83.666 85.058C83.2367 85.5247 82.728 85.8933 82.14 86.164C81.5613 86.4347 80.9313 86.57 80.25 86.57ZM77.086 81.53C77.086 81.9967 77.1607 82.4493 77.31 82.888C77.4593 83.3267 77.6693 83.7187 77.94 84.064C78.22 84.4 78.556 84.666 78.948 84.862C79.34 85.058 79.7787 85.156 80.264 85.156C80.768 85.156 81.216 85.0533 81.608 84.848C82 84.6427 82.3267 84.3673 82.588 84.022C82.8587 83.6673 83.064 83.2753 83.204 82.846C83.344 82.4073 83.414 81.9687 83.414 81.53C83.414 81.0633 83.3393 80.6153 83.19 80.186C83.05 79.7473 82.84 79.36 82.56 79.024C82.28 78.6787 81.944 78.408 81.552 78.212C81.1693 78.016 80.74 77.918 80.264 77.918C79.76 77.918 79.312 78.0207 78.92 78.226C78.528 78.4313 78.1967 78.7067 77.926 79.052C77.6553 79.3973 77.4453 79.7847 77.296 80.214C77.156 80.6433 77.086 81.082 77.086 81.53ZM90.541 86.64C89.953 86.64 89.435 86.5 88.987 86.22C88.539 85.94 88.1843 85.576 87.923 85.128V89.482H86.383V79.178H87.741V80.494C88.021 80.0553 88.385 79.7053 88.833 79.444C89.281 79.1827 89.7803 79.052 90.331 79.052C90.835 79.052 91.297 79.1547 91.717 79.36C92.137 79.556 92.501 79.8313 92.809 80.186C93.117 80.5407 93.355 80.9467 93.523 81.404C93.7003 81.852 93.789 82.328 93.789 82.832C93.789 83.532 93.649 84.1713 93.369 84.75C93.0983 85.3287 92.7157 85.7907 92.221 86.136C91.7357 86.472 91.1757 86.64 90.541 86.64ZM90.037 85.324C90.3637 85.324 90.6577 85.254 90.919 85.114C91.1897 84.974 91.4183 84.7873 91.605 84.554C91.801 84.3207 91.9503 84.0547 92.053 83.756C92.1557 83.4573 92.207 83.1493 92.207 82.832C92.207 82.496 92.151 82.1787 92.039 81.88C91.927 81.5813 91.7637 81.32 91.549 81.096C91.3437 80.872 91.101 80.6947 90.821 80.564C90.5503 80.4333 90.2517 80.368 89.925 80.368C89.729 80.368 89.5237 80.4053 89.309 80.48C89.0943 80.5547 88.8937 80.6573 88.707 80.788C88.5203 80.9187 88.357 81.0727 88.217 81.25C88.077 81.4273 87.979 81.614 87.923 81.81V83.728C88.0537 84.0267 88.2263 84.2973 88.441 84.54C88.6557 84.7733 88.903 84.9647 89.183 85.114C89.463 85.254 89.7477 85.324 90.037 85.324ZM99.1386 86.122C99.008 86.1873 98.8446 86.2573 98.6486 86.332C98.4526 86.4067 98.2286 86.472 97.9766 86.528C97.734 86.584 97.482 86.612 97.2206 86.612C96.9033 86.612 96.6093 86.556 96.3386 86.444C96.068 86.332 95.8486 86.1547 95.6806 85.912C95.522 85.66 95.4426 85.338 95.4426 84.946V80.368H94.4766V79.178H95.4426V76.77H96.9826V79.178H98.5786V80.368H96.9826V84.456C97.0013 84.708 97.0806 84.8947 97.2206 85.016C97.37 85.1373 97.552 85.198 97.7666 85.198C97.9813 85.198 98.1866 85.1607 98.3826 85.086C98.5786 85.0113 98.7233 84.9507 98.8166 84.904L99.1386 86.122ZM100.205 86.5V79.178H101.745V86.5H100.205ZM100.205 77.974V76.28H101.745V77.974H100.205ZM106.886 86.64C106.307 86.64 105.789 86.542 105.332 86.346C104.875 86.1407 104.478 85.8607 104.142 85.506C103.815 85.1513 103.563 84.75 103.386 84.302C103.209 83.8447 103.12 83.3593 103.12 82.846C103.12 82.3327 103.209 81.8473 103.386 81.39C103.563 80.9327 103.815 80.5313 104.142 80.186C104.478 79.8313 104.875 79.556 105.332 79.36C105.799 79.1547 106.317 79.052 106.886 79.052C107.455 79.052 107.969 79.1547 108.426 79.36C108.893 79.556 109.289 79.8313 109.616 80.186C109.952 80.5313 110.209 80.9327 110.386 81.39C110.563 81.8473 110.652 82.3327 110.652 82.846C110.652 83.3593 110.563 83.8447 110.386 84.302C110.209 84.75 109.952 85.1513 109.616 85.506C109.289 85.8607 108.893 86.1407 108.426 86.346C107.969 86.542 107.455 86.64 106.886 86.64ZM104.702 82.86C104.702 83.3267 104.8 83.7467 104.996 84.12C105.192 84.4933 105.453 84.7873 105.78 85.002C106.107 85.2167 106.475 85.324 106.886 85.324C107.287 85.324 107.651 85.2167 107.978 85.002C108.314 84.778 108.58 84.4793 108.776 84.106C108.972 83.7233 109.07 83.3033 109.07 82.846C109.07 82.3793 108.972 81.9593 108.776 81.586C108.58 81.2127 108.314 80.9187 107.978 80.704C107.651 80.48 107.287 80.368 106.886 80.368C106.475 80.368 106.107 80.48 105.78 80.704C105.453 80.928 105.192 81.2267 104.996 81.6C104.8 81.964 104.702 82.384 104.702 82.86ZM118.584 86.5H117.044V82.398C117.044 81.7167 116.932 81.2173 116.708 80.9C116.493 80.5827 116.171 80.424 115.742 80.424C115.443 80.424 115.144 80.4987 114.846 80.648C114.556 80.7973 114.295 81.0027 114.062 81.264C113.828 81.516 113.66 81.81 113.558 82.146V86.5H112.018V79.178H113.418V80.648C113.604 80.3213 113.847 80.0413 114.146 79.808C114.454 79.5653 114.799 79.3787 115.182 79.248C115.564 79.1173 115.97 79.052 116.4 79.052C116.838 79.052 117.198 79.1313 117.478 79.29C117.767 79.4487 117.991 79.668 118.15 79.948C118.318 80.2187 118.43 80.536 118.486 80.9C118.551 81.2547 118.584 81.6327 118.584 82.034V86.5ZM129.108 85.114V86.5H123.83V85.114H125.748V78.03C125.674 78.142 125.548 78.268 125.37 78.408C125.202 78.5387 125.011 78.6693 124.796 78.8C124.582 78.9213 124.358 79.024 124.124 79.108C123.9 79.192 123.695 79.234 123.508 79.234V77.806C123.76 77.806 124.012 77.7407 124.264 77.61C124.526 77.4793 124.768 77.33 124.992 77.162C125.216 76.9847 125.394 76.826 125.524 76.686C125.664 76.546 125.739 76.4713 125.748 76.462H127.33V85.114H129.108Z" fill="#09090B"/>
<path d="M61.5 115C61.5 119.947 57.2712 124 52 124C46.7288 124 42.5 119.947 42.5 115C42.5 110.053 46.7288 106 52 106C57.2712 106 61.5 110.053 61.5 115Z" fill="white" stroke="#16A249"/>
<ellipse cx="52" cy="115" rx="6" ry="5.5" fill="#16A249"/>
<path d="M80.25 118.57C79.5313 118.57 78.8827 118.43 78.304 118.15C77.7253 117.87 77.226 117.492 76.806 117.016C76.386 116.531 76.0593 115.989 75.826 115.392C75.602 114.785 75.49 114.165 75.49 113.53C75.49 112.867 75.6113 112.237 75.854 111.64C76.0967 111.033 76.4327 110.497 76.862 110.03C77.2913 109.554 77.7953 109.181 78.374 108.91C78.962 108.63 79.5967 108.49 80.278 108.49C80.9873 108.49 81.6313 108.635 82.21 108.924C82.798 109.213 83.2973 109.601 83.708 110.086C84.128 110.571 84.45 111.113 84.674 111.71C84.9073 112.307 85.024 112.919 85.024 113.544C85.024 114.207 84.9027 114.841 84.66 115.448C84.4267 116.045 84.0953 116.582 83.666 117.058C83.2367 117.525 82.728 117.893 82.14 118.164C81.5613 118.435 80.9313 118.57 80.25 118.57ZM77.086 113.53C77.086 113.997 77.1607 114.449 77.31 114.888C77.4593 115.327 77.6693 115.719 77.94 116.064C78.22 116.4 78.556 116.666 78.948 116.862C79.34 117.058 79.7787 117.156 80.264 117.156C80.768 117.156 81.216 117.053 81.608 116.848C82 116.643 82.3267 116.367 82.588 116.022C82.8587 115.667 83.064 115.275 83.204 114.846C83.344 114.407 83.414 113.969 83.414 113.53C83.414 113.063 83.3393 112.615 83.19 112.186C83.05 111.747 82.84 111.36 82.56 111.024C82.28 110.679 81.944 110.408 81.552 110.212C81.1693 110.016 80.74 109.918 80.264 109.918C79.76 109.918 79.312 110.021 78.92 110.226C78.528 110.431 78.1967 110.707 77.926 111.052C77.6553 111.397 77.4453 111.785 77.296 112.214C77.156 112.643 77.086 113.082 77.086 113.53ZM90.541 118.64C89.953 118.64 89.435 118.5 88.987 118.22C88.539 117.94 88.1843 117.576 87.923 117.128V121.482H86.383V111.178H87.741V112.494C88.021 112.055 88.385 111.705 88.833 111.444C89.281 111.183 89.7803 111.052 90.331 111.052C90.835 111.052 91.297 111.155 91.717 111.36C92.137 111.556 92.501 111.831 92.809 112.186C93.117 112.541 93.355 112.947 93.523 113.404C93.7003 113.852 93.789 114.328 93.789 114.832C93.789 115.532 93.649 116.171 93.369 116.75C93.0983 117.329 92.7157 117.791 92.221 118.136C91.7357 118.472 91.1757 118.64 90.541 118.64ZM90.037 117.324C90.3637 117.324 90.6577 117.254 90.919 117.114C91.1897 116.974 91.4183 116.787 91.605 116.554C91.801 116.321 91.9503 116.055 92.053 115.756C92.1557 115.457 92.207 115.149 92.207 114.832C92.207 114.496 92.151 114.179 92.039 113.88C91.927 113.581 91.7637 113.32 91.549 113.096C91.3437 112.872 91.101 112.695 90.821 112.564C90.5503 112.433 90.2517 112.368 89.925 112.368C89.729 112.368 89.5237 112.405 89.309 112.48C89.0943 112.555 88.8937 112.657 88.707 112.788C88.5203 112.919 88.357 113.073 88.217 113.25C88.077 113.427 87.979 113.614 87.923 113.81V115.728C88.0537 116.027 88.2263 116.297 88.441 116.54C88.6557 116.773 88.903 116.965 89.183 117.114C89.463 117.254 89.7477 117.324 90.037 117.324ZM99.1386 118.122C99.008 118.187 98.8446 118.257 98.6486 118.332C98.4526 118.407 98.2286 118.472 97.9766 118.528C97.734 118.584 97.482 118.612 97.2206 118.612C96.9033 118.612 96.6093 118.556 96.3386 118.444C96.068 118.332 95.8486 118.155 95.6806 117.912C95.522 117.66 95.4426 117.338 95.4426 116.946V112.368H94.4766V111.178H95.4426V108.77H96.9826V111.178H98.5786V112.368H96.9826V116.456C97.0013 116.708 97.0806 116.895 97.2206 117.016C97.37 117.137 97.552 117.198 97.7666 117.198C97.9813 117.198 98.1866 117.161 98.3826 117.086C98.5786 117.011 98.7233 116.951 98.8166 116.904L99.1386 118.122ZM100.205 118.5V111.178H101.745V118.5H100.205ZM100.205 109.974V108.28H101.745V109.974H100.205ZM106.886 118.64C106.307 118.64 105.789 118.542 105.332 118.346C104.875 118.141 104.478 117.861 104.142 117.506C103.815 117.151 103.563 116.75 103.386 116.302C103.209 115.845 103.12 115.359 103.12 114.846C103.12 114.333 103.209 113.847 103.386 113.39C103.563 112.933 103.815 112.531 104.142 112.186C104.478 111.831 104.875 111.556 105.332 111.36C105.799 111.155 106.317 111.052 106.886 111.052C107.455 111.052 107.969 111.155 108.426 111.36C108.893 111.556 109.289 111.831 109.616 112.186C109.952 112.531 110.209 112.933 110.386 113.39C110.563 113.847 110.652 114.333 110.652 114.846C110.652 115.359 110.563 115.845 110.386 116.302C110.209 116.75 109.952 117.151 109.616 117.506C109.289 117.861 108.893 118.141 108.426 118.346C107.969 118.542 107.455 118.64 106.886 118.64ZM104.702 114.86C104.702 115.327 104.8 115.747 104.996 116.12C105.192 116.493 105.453 116.787 105.78 117.002C106.107 117.217 106.475 117.324 106.886 117.324C107.287 117.324 107.651 117.217 107.978 117.002C108.314 116.778 108.58 116.479 108.776 116.106C108.972 115.723 109.07 115.303 109.07 114.846C109.07 114.379 108.972 113.959 108.776 113.586C108.58 113.213 108.314 112.919 107.978 112.704C107.651 112.48 107.287 112.368 106.886 112.368C106.475 112.368 106.107 112.48 105.78 112.704C105.453 112.928 105.192 113.227 104.996 113.6C104.8 113.964 104.702 114.384 104.702 114.86ZM118.584 118.5H117.044V114.398C117.044 113.717 116.932 113.217 116.708 112.9C116.493 112.583 116.171 112.424 115.742 112.424C115.443 112.424 115.144 112.499 114.846 112.648C114.556 112.797 114.295 113.003 114.062 113.264C113.828 113.516 113.66 113.81 113.558 114.146V118.5H112.018V111.178H113.418V112.648C113.604 112.321 113.847 112.041 114.146 111.808C114.454 111.565 114.799 111.379 115.182 111.248C115.564 111.117 115.97 111.052 116.4 111.052C116.838 111.052 117.198 111.131 117.478 111.29C117.767 111.449 117.991 111.668 118.15 111.948C118.318 112.219 118.43 112.536 118.486 112.9C118.551 113.255 118.584 113.633 118.584 114.034V118.5ZM126.784 118.612C126.234 118.612 125.73 118.533 125.272 118.374C124.824 118.215 124.446 117.987 124.138 117.688C123.83 117.389 123.606 117.044 123.466 116.652L124.306 115.644C124.372 115.887 124.507 116.129 124.712 116.372C124.927 116.615 125.202 116.811 125.538 116.96C125.884 117.109 126.285 117.184 126.742 117.184C127.144 117.184 127.498 117.123 127.806 117.002C128.124 116.871 128.376 116.689 128.562 116.456C128.749 116.223 128.842 115.947 128.842 115.63C128.842 115.275 128.73 114.977 128.506 114.734C128.282 114.491 127.96 114.309 127.54 114.188C127.12 114.067 126.616 114.006 126.028 114.006H125.552V112.774H126.028C126.803 112.774 127.419 112.648 127.876 112.396C128.343 112.144 128.576 111.771 128.576 111.276C128.576 110.968 128.492 110.702 128.324 110.478C128.156 110.245 127.937 110.072 127.666 109.96C127.396 109.839 127.097 109.778 126.77 109.778C126.238 109.778 125.776 109.899 125.384 110.142C124.992 110.385 124.708 110.683 124.53 111.038L123.522 109.932C123.718 109.624 123.989 109.358 124.334 109.134C124.68 108.91 125.067 108.737 125.496 108.616C125.935 108.495 126.378 108.434 126.826 108.434C127.48 108.434 128.063 108.551 128.576 108.784C129.09 109.017 129.491 109.339 129.78 109.75C130.07 110.151 130.214 110.609 130.214 111.122C130.214 111.495 130.135 111.831 129.976 112.13C129.827 112.429 129.608 112.681 129.318 112.886C129.038 113.082 128.702 113.227 128.31 113.32C128.73 113.395 129.099 113.553 129.416 113.796C129.743 114.039 129.99 114.337 130.158 114.692C130.336 115.047 130.424 115.434 130.424 115.854C130.424 116.433 130.256 116.927 129.92 117.338C129.594 117.749 129.155 118.066 128.604 118.29C128.054 118.505 127.447 118.612 126.784 118.612Z" fill="#09090B"/>
<path d="M45.5 155C45.5 159.947 41.2712 164 36 164C30.7288 164 26.5 159.947 26.5 155C26.5 150.053 30.7288 146 36 146C41.2712 146 45.5 150.053 45.5 155Z" fill="white" stroke="#09090B"/>
<path d="M64.25 158.57C63.5313 158.57 62.8827 158.43 62.304 158.15C61.7253 157.87 61.226 157.492 60.806 157.016C60.386 156.531 60.0593 155.989 59.826 155.392C59.602 154.785 59.49 154.165 59.49 153.53C59.49 152.867 59.6113 152.237 59.854 151.64C60.0967 151.033 60.4327 150.497 60.862 150.03C61.2913 149.554 61.7953 149.181 62.374 148.91C62.962 148.63 63.5967 148.49 64.278 148.49C64.9873 148.49 65.6313 148.635 66.21 148.924C66.798 149.213 67.2973 149.601 67.708 150.086C68.128 150.571 68.45 151.113 68.674 151.71C68.9073 152.307 69.024 152.919 69.024 153.544C69.024 154.207 68.9027 154.841 68.66 155.448C68.4267 156.045 68.0953 156.582 67.666 157.058C67.2367 157.525 66.728 157.893 66.14 158.164C65.5613 158.435 64.9313 158.57 64.25 158.57ZM61.086 153.53C61.086 153.997 61.1607 154.449 61.31 154.888C61.4593 155.327 61.6693 155.719 61.94 156.064C62.22 156.4 62.556 156.666 62.948 156.862C63.34 157.058 63.7787 157.156 64.264 157.156C64.768 157.156 65.216 157.053 65.608 156.848C66 156.643 66.3267 156.367 66.588 156.022C66.8587 155.667 67.064 155.275 67.204 154.846C67.344 154.407 67.414 153.969 67.414 153.53C67.414 153.063 67.3393 152.615 67.19 152.186C67.05 151.747 66.84 151.36 66.56 151.024C66.28 150.679 65.944 150.408 65.552 150.212C65.1693 150.016 64.74 149.918 64.264 149.918C63.76 149.918 63.312 150.021 62.92 150.226C62.528 150.431 62.1967 150.707 61.926 151.052C61.6553 151.397 61.4453 151.785 61.296 152.214C61.156 152.643 61.086 153.082 61.086 153.53ZM74.541 158.64C73.953 158.64 73.435 158.5 72.987 158.22C72.539 157.94 72.1843 157.576 71.923 157.128V161.482H70.383V151.178H71.741V152.494C72.021 152.055 72.385 151.705 72.833 151.444C73.281 151.183 73.7803 151.052 74.331 151.052C74.835 151.052 75.297 151.155 75.717 151.36C76.137 151.556 76.501 151.831 76.809 152.186C77.117 152.541 77.355 152.947 77.523 153.404C77.7003 153.852 77.789 154.328 77.789 154.832C77.789 155.532 77.649 156.171 77.369 156.75C77.0983 157.329 76.7157 157.791 76.221 158.136C75.7357 158.472 75.1757 158.64 74.541 158.64ZM74.037 157.324C74.3637 157.324 74.6577 157.254 74.919 157.114C75.1897 156.974 75.4183 156.787 75.605 156.554C75.801 156.321 75.9503 156.055 76.053 155.756C76.1557 155.457 76.207 155.149 76.207 154.832C76.207 154.496 76.151 154.179 76.039 153.88C75.927 153.581 75.7637 153.32 75.549 153.096C75.3437 152.872 75.101 152.695 74.821 152.564C74.5503 152.433 74.2517 152.368 73.925 152.368C73.729 152.368 73.5237 152.405 73.309 152.48C73.0943 152.555 72.8937 152.657 72.707 152.788C72.5203 152.919 72.357 153.073 72.217 153.25C72.077 153.427 71.979 153.614 71.923 153.81V155.728C72.0537 156.027 72.2263 156.297 72.441 156.54C72.6557 156.773 72.903 156.965 73.183 157.114C73.463 157.254 73.7477 157.324 74.037 157.324ZM83.1386 158.122C83.008 158.187 82.8446 158.257 82.6486 158.332C82.4526 158.407 82.2286 158.472 81.9766 158.528C81.734 158.584 81.482 158.612 81.2206 158.612C80.9033 158.612 80.6093 158.556 80.3386 158.444C80.068 158.332 79.8486 158.155 79.6806 157.912C79.522 157.66 79.4426 157.338 79.4426 156.946V152.368H78.4766V151.178H79.4426V148.77H80.9826V151.178H82.5786V152.368H80.9826V156.456C81.0013 156.708 81.0806 156.895 81.2206 157.016C81.37 157.137 81.552 157.198 81.7666 157.198C81.9813 157.198 82.1866 157.161 82.3826 157.086C82.5786 157.011 82.7233 156.951 82.8166 156.904L83.1386 158.122ZM84.2052 158.5V151.178H85.7453V158.5H84.2052ZM84.2052 149.974V148.28H85.7453V149.974H84.2052ZM90.8859 158.64C90.3072 158.64 89.7892 158.542 89.3319 158.346C88.8745 158.141 88.4779 157.861 88.1419 157.506C87.8152 157.151 87.5632 156.75 87.3859 156.302C87.2085 155.845 87.1199 155.359 87.1199 154.846C87.1199 154.333 87.2085 153.847 87.3859 153.39C87.5632 152.933 87.8152 152.531 88.1419 152.186C88.4779 151.831 88.8745 151.556 89.3319 151.36C89.7985 151.155 90.3165 151.052 90.8859 151.052C91.4552 151.052 91.9685 151.155 92.4259 151.36C92.8925 151.556 93.2892 151.831 93.6159 152.186C93.9519 152.531 94.2085 152.933 94.3859 153.39C94.5632 153.847 94.6519 154.333 94.6519 154.846C94.6519 155.359 94.5632 155.845 94.3859 156.302C94.2085 156.75 93.9519 157.151 93.6159 157.506C93.2892 157.861 92.8925 158.141 92.4259 158.346C91.9685 158.542 91.4552 158.64 90.8859 158.64ZM88.7019 154.86C88.7019 155.327 88.7999 155.747 88.9959 156.12C89.1919 156.493 89.4532 156.787 89.7799 157.002C90.1065 157.217 90.4752 157.324 90.8859 157.324C91.2872 157.324 91.6512 157.217 91.9779 157.002C92.3139 156.778 92.5799 156.479 92.7759 156.106C92.9719 155.723 93.0699 155.303 93.0699 154.846C93.0699 154.379 92.9719 153.959 92.7759 153.586C92.5799 153.213 92.3139 152.919 91.9779 152.704C91.6512 152.48 91.2872 152.368 90.8859 152.368C90.4752 152.368 90.1065 152.48 89.7799 152.704C89.4532 152.928 89.1919 153.227 88.9959 153.6C88.7999 153.964 88.7019 154.384 88.7019 154.86ZM102.584 158.5H101.044V154.398C101.044 153.717 100.932 153.217 100.708 152.9C100.493 152.583 100.171 152.424 99.7418 152.424C99.4431 152.424 99.1444 152.499 98.8458 152.648C98.5564 152.797 98.2951 153.003 98.0618 153.264C97.8284 153.516 97.6604 153.81 97.5578 154.146V158.5H96.0177V151.178H97.4178V152.648C97.6044 152.321 97.8471 152.041 98.1458 151.808C98.4538 151.565 98.7991 151.379 99.1818 151.248C99.5644 151.117 99.9704 151.052 100.4 151.052C100.838 151.052 101.198 151.131 101.478 151.29C101.767 151.449 101.991 151.668 102.15 151.948C102.318 152.219 102.43 152.536 102.486 152.9C102.551 153.255 102.584 153.633 102.584 154.034V158.5ZM107.522 158.5C107.522 157.931 107.564 157.431 107.648 157.002C107.732 156.573 107.863 156.185 108.04 155.84C108.218 155.495 108.442 155.191 108.712 154.93C108.983 154.669 109.296 154.431 109.65 154.216C109.996 154.011 110.35 153.819 110.714 153.642C111.088 153.465 111.433 153.278 111.75 153.082C112.068 152.886 112.32 152.657 112.506 152.396C112.702 152.125 112.8 151.799 112.8 151.416C112.8 151.108 112.735 150.837 112.604 150.604C112.483 150.371 112.296 150.189 112.044 150.058C111.802 149.918 111.489 149.848 111.106 149.848C110.714 149.848 110.35 149.918 110.014 150.058C109.688 150.189 109.398 150.352 109.146 150.548C108.904 150.744 108.708 150.935 108.558 151.122L107.578 150.1C107.672 149.988 107.821 149.839 108.026 149.652C108.241 149.465 108.502 149.279 108.81 149.092C109.128 148.905 109.492 148.751 109.902 148.63C110.313 148.499 110.775 148.434 111.288 148.434C111.998 148.434 112.59 148.565 113.066 148.826C113.552 149.078 113.916 149.428 114.158 149.876C114.41 150.315 114.536 150.809 114.536 151.36C114.536 151.808 114.457 152.2 114.298 152.536C114.14 152.863 113.93 153.147 113.668 153.39C113.416 153.623 113.132 153.833 112.814 154.02C112.506 154.207 112.198 154.384 111.89 154.552C111.358 154.823 110.929 155.065 110.602 155.28C110.285 155.495 110.033 155.7 109.846 155.896C109.669 156.092 109.543 156.288 109.468 156.484C109.394 156.68 109.342 156.89 109.314 157.114H114.55V158.5H107.522Z" fill="#09090B"/>
<path d="M165.056 34.5C165.056 33.524 165.128 32.668 165.272 31.932C165.416 31.196 165.64 30.532 165.944 29.94C166.248 29.348 166.632 28.828 167.096 28.38C167.56 27.932 168.096 27.524 168.704 27.156C169.296 26.804 169.904 26.476 170.528 26.172C171.168 25.868 171.76 25.548 172.304 25.212C172.848 24.876 173.28 24.484 173.6 24.036C173.936 23.572 174.104 23.012 174.104 22.356C174.104 21.828 173.992 21.364 173.768 20.964C173.56 20.564 173.24 20.252 172.808 20.028C172.392 19.788 171.856 19.668 171.2 19.668C170.528 19.668 169.904 19.788 169.328 20.028C168.768 20.252 168.272 20.532 167.84 20.868C167.424 21.204 167.088 21.532 166.832 21.852L165.152 20.1C165.312 19.908 165.568 19.652 165.92 19.332C166.288 19.012 166.736 18.692 167.264 18.372C167.808 18.052 168.432 17.788 169.136 17.58C169.84 17.356 170.632 17.244 171.512 17.244C172.728 17.244 173.744 17.468 174.56 17.916C175.392 18.348 176.016 18.948 176.432 19.716C176.864 20.468 177.08 21.316 177.08 22.26C177.08 23.028 176.944 23.7 176.672 24.276C176.4 24.836 176.04 25.324 175.592 25.74C175.16 26.14 174.672 26.5 174.128 26.82C173.6 27.14 173.072 27.444 172.544 27.732C171.632 28.196 170.896 28.612 170.336 28.98C169.792 29.348 169.36 29.7 169.04 30.036C168.736 30.372 168.52 30.708 168.392 31.044C168.264 31.38 168.176 31.74 168.128 32.124H177.104V34.5H165.056Z" fill="#09090B"/>
</svg>
