<svg width="203" height="190" viewBox="0 0 203 190" fill="none" xmlns="http://www.w3.org/2000/svg">
<path d="M0.5 6C0.5 2.96244 2.96243 0.5 6 0.5H197C200.038 0.5 202.5 2.96243 202.5 6V184C202.5 187.038 200.038 189.5 197 189.5H6C2.96243 189.5 0.5 187.038 0.5 184V6Z" fill="white" stroke="#E4E4E7"/>
<rect x="57.5" y="114.5" width="31" height="27" fill="white" stroke="#E4E4E7"/>
<path d="M79.5 127.5C79.5 131.336 76.173 134.5 72 134.5C67.827 134.5 64.5 131.336 64.5 127.5C64.5 123.664 67.827 120.5 72 120.5C76.173 120.5 79.5 123.664 79.5 127.5Z" fill="white" stroke="#09090B"/>
<line x1="72.5" y1="167" x2="72.5" y2="142" stroke="black" stroke-dasharray="2 2"/>
<path d="M71.934 180.126C71.3647 180.126 70.8467 180.037 70.38 179.86C69.9227 179.673 69.54 179.417 69.232 179.09C68.9333 178.754 68.7373 178.367 68.644 177.928L69.344 177.186C69.372 177.457 69.4933 177.732 69.708 178.012C69.9227 178.292 70.2167 178.525 70.59 178.712C70.9727 178.889 71.416 178.978 71.92 178.978C72.3493 178.978 72.7367 178.908 73.082 178.768C73.4273 178.619 73.7027 178.413 73.908 178.152C74.1133 177.891 74.216 177.587 74.216 177.242C74.216 176.859 74.09 176.533 73.838 176.262C73.586 175.991 73.2267 175.786 72.76 175.646C72.3027 175.506 71.7567 175.436 71.122 175.436H70.646V174.386H71.122C71.9807 174.386 72.6667 174.251 73.18 173.98C73.6933 173.7 73.95 173.285 73.95 172.734C73.95 172.379 73.852 172.076 73.656 171.824C73.4693 171.563 73.2173 171.367 72.9 171.236C72.592 171.096 72.2607 171.026 71.906 171.026C71.3087 171.026 70.8 171.161 70.38 171.432C69.9693 171.693 69.68 172.001 69.512 172.356L68.686 171.502C68.8727 171.175 69.134 170.895 69.47 170.662C69.806 170.429 70.184 170.251 70.604 170.13C71.024 169.999 71.4533 169.934 71.892 169.934C72.536 169.934 73.11 170.055 73.614 170.298C74.1273 170.541 74.5287 170.867 74.818 171.278C75.1073 171.689 75.252 172.155 75.252 172.678C75.252 173.051 75.1773 173.387 75.028 173.686C74.8787 173.975 74.6593 174.218 74.37 174.414C74.0807 174.61 73.7307 174.759 73.32 174.862C73.7587 174.937 74.1413 175.095 74.468 175.338C74.7947 175.581 75.0467 175.879 75.224 176.234C75.4013 176.589 75.49 176.976 75.49 177.396C75.49 177.975 75.322 178.469 74.986 178.88C74.65 179.281 74.2113 179.589 73.67 179.804C73.138 180.019 72.5593 180.126 71.934 180.126Z" fill="#09090B"/>
<rect x="56.5" y="53.5" width="101" height="27" fill="white" stroke="#E4E4E7"/>
<line x1="90.5" y1="54" x2="90.5" y2="80" stroke="#09090B"/>
<path d="M80.5 66.5C80.5 70.3361 77.173 73.5 73 73.5C68.827 73.5 65.5 70.3361 65.5 66.5C65.5 62.6639 68.827 59.5 73 59.5C77.173 59.5 80.5 62.6639 80.5 66.5Z" fill="white" stroke="#16A249"/>
<circle cx="73" cy="66" r="4" fill="#16A249"/>
<path d="M101.186 71.14C100.635 71.14 100.136 71.042 99.688 70.846C99.24 70.6407 98.8527 70.3653 98.526 70.02C98.1993 69.6653 97.9473 69.2593 97.77 68.802C97.5927 68.3447 97.504 67.864 97.504 67.36C97.504 66.8467 97.5927 66.3613 97.77 65.904C97.9473 65.4467 98.1993 65.0453 98.526 64.7C98.8527 64.3453 99.24 64.07 99.688 63.874C100.145 63.6687 100.645 63.566 101.186 63.566C101.737 63.566 102.236 63.6687 102.684 63.874C103.132 64.07 103.519 64.3453 103.846 64.7C104.182 65.0453 104.439 65.4467 104.616 65.904C104.793 66.3613 104.882 66.8467 104.882 67.36C104.882 67.864 104.793 68.3447 104.616 68.802C104.439 69.2593 104.187 69.6653 103.86 70.02C103.533 70.3653 103.141 70.6407 102.684 70.846C102.236 71.042 101.737 71.14 101.186 71.14ZM98.764 67.374C98.764 67.878 98.8713 68.3353 99.086 68.746C99.31 69.1567 99.604 69.4833 99.968 69.726C100.332 69.9593 100.738 70.076 101.186 70.076C101.634 70.076 102.04 69.9547 102.404 69.712C102.777 69.4693 103.071 69.1427 103.286 68.732C103.51 68.312 103.622 67.85 103.622 67.346C103.622 66.842 103.51 66.3847 103.286 65.974C103.071 65.5633 102.777 65.2367 102.404 64.994C102.04 64.7513 101.634 64.63 101.186 64.63C100.738 64.63 100.332 64.756 99.968 65.008C99.604 65.2507 99.31 65.5773 99.086 65.988C98.8713 66.3987 98.764 66.8607 98.764 67.374ZM110.309 71.14C109.712 71.14 109.18 70.9907 108.713 70.692C108.246 70.3933 107.878 70.0153 107.607 69.558V73.982H106.375V63.692H107.467V65.064C107.756 64.616 108.134 64.2567 108.601 63.986C109.068 63.706 109.576 63.566 110.127 63.566C110.631 63.566 111.093 63.6687 111.513 63.874C111.933 64.0793 112.297 64.3593 112.605 64.714C112.913 65.0687 113.151 65.4747 113.319 65.932C113.496 66.38 113.585 66.8513 113.585 67.346C113.585 68.0367 113.445 68.6713 113.165 69.25C112.894 69.8287 112.512 70.2907 112.017 70.636C111.522 70.972 110.953 71.14 110.309 71.14ZM109.931 70.076C110.295 70.076 110.622 70.0013 110.911 69.852C111.21 69.6933 111.462 69.488 111.667 69.236C111.882 68.9747 112.045 68.6807 112.157 68.354C112.269 68.0273 112.325 67.6913 112.325 67.346C112.325 66.982 112.26 66.6367 112.129 66.31C112.008 65.9833 111.83 65.694 111.597 65.442C111.373 65.19 111.107 64.994 110.799 64.854C110.5 64.7047 110.174 64.63 109.819 64.63C109.595 64.63 109.362 64.672 109.119 64.756C108.886 64.84 108.662 64.9613 108.447 65.12C108.232 65.2693 108.05 65.442 107.901 65.638C107.752 65.834 107.654 66.044 107.607 66.268V68.354C107.747 68.6713 107.934 68.9607 108.167 69.222C108.4 69.4833 108.671 69.6933 108.979 69.852C109.287 70.0013 109.604 70.076 109.931 70.076ZM118.768 70.636C118.665 70.6827 118.525 70.7433 118.348 70.818C118.171 70.8927 117.965 70.958 117.732 71.014C117.499 71.07 117.251 71.098 116.99 71.098C116.691 71.098 116.416 71.0467 116.164 70.944C115.912 70.832 115.711 70.664 115.562 70.44C115.413 70.2067 115.338 69.9173 115.338 69.572V64.658H114.344V63.692H115.338V61.256H116.57V63.692H118.208V64.658H116.57V69.194C116.589 69.4553 116.677 69.6513 116.836 69.782C116.995 69.9033 117.181 69.964 117.396 69.964C117.639 69.964 117.863 69.922 118.068 69.838C118.273 69.754 118.409 69.6933 118.474 69.656L118.768 70.636ZM119.91 71V63.692H121.142V71H119.91ZM119.91 62.32V60.78H121.142V62.32H119.91ZM126.329 71.14C125.778 71.14 125.279 71.042 124.831 70.846C124.383 70.6407 123.995 70.3653 123.669 70.02C123.342 69.6653 123.09 69.2593 122.913 68.802C122.735 68.3447 122.647 67.864 122.647 67.36C122.647 66.8467 122.735 66.3613 122.913 65.904C123.09 65.4467 123.342 65.0453 123.669 64.7C123.995 64.3453 124.383 64.07 124.831 63.874C125.288 63.6687 125.787 63.566 126.329 63.566C126.879 63.566 127.379 63.6687 127.827 63.874C128.275 64.07 128.662 64.3453 128.989 64.7C129.325 65.0453 129.581 65.4467 129.759 65.904C129.936 66.3613 130.025 66.8467 130.025 67.36C130.025 67.864 129.936 68.3447 129.759 68.802C129.581 69.2593 129.329 69.6653 129.003 70.02C128.676 70.3653 128.284 70.6407 127.827 70.846C127.379 71.042 126.879 71.14 126.329 71.14ZM123.907 67.374C123.907 67.878 124.014 68.3353 124.229 68.746C124.453 69.1567 124.747 69.4833 125.111 69.726C125.475 69.9593 125.881 70.076 126.329 70.076C126.777 70.076 127.183 69.9547 127.547 69.712C127.92 69.4693 128.214 69.1427 128.429 68.732C128.653 68.312 128.765 67.85 128.765 67.346C128.765 66.842 128.653 66.3847 128.429 65.974C128.214 65.5633 127.92 65.2367 127.547 64.994C127.183 64.7513 126.777 64.63 126.329 64.63C125.881 64.63 125.475 64.756 125.111 65.008C124.747 65.2507 124.453 65.5773 124.229 65.988C124.014 66.3987 123.907 66.8607 123.907 67.374ZM137.859 71H136.627V66.912C136.627 66.1373 136.506 65.5727 136.263 65.218C136.03 64.854 135.671 64.672 135.185 64.672C134.849 64.672 134.513 64.756 134.177 64.924C133.851 65.092 133.557 65.3207 133.295 65.61C133.043 65.89 132.861 66.2167 132.749 66.59V71H131.517V63.692H132.637V65.26C132.833 64.9147 133.085 64.616 133.393 64.364C133.701 64.112 134.051 63.916 134.443 63.776C134.835 63.636 135.246 63.566 135.675 63.566C136.095 63.566 136.445 63.6453 136.725 63.804C137.015 63.9533 137.239 64.168 137.397 64.448C137.565 64.7187 137.682 65.0407 137.747 65.414C137.822 65.7873 137.859 66.1933 137.859 66.632V71ZM148.188 69.88V71H143.246V69.88H145.15V62.25C145.076 62.362 144.954 62.488 144.786 62.628C144.618 62.7587 144.422 62.8893 144.198 63.02C143.984 63.1413 143.764 63.244 143.54 63.328C143.316 63.412 143.111 63.454 142.924 63.454V62.306C143.176 62.306 143.428 62.2407 143.68 62.11C143.942 61.9793 144.18 61.8253 144.394 61.648C144.618 61.4707 144.796 61.312 144.926 61.172C145.066 61.032 145.141 60.9573 145.15 60.948H146.41V69.88H148.188Z" fill="#09090B"/>
<path d="M101.186 133.14C100.635 133.14 100.136 133.042 99.688 132.846C99.24 132.641 98.8527 132.365 98.526 132.02C98.1993 131.665 97.9473 131.259 97.77 130.802C97.5927 130.345 97.504 129.864 97.504 129.36C97.504 128.847 97.5927 128.361 97.77 127.904C97.9473 127.447 98.1993 127.045 98.526 126.7C98.8527 126.345 99.24 126.07 99.688 125.874C100.145 125.669 100.645 125.566 101.186 125.566C101.737 125.566 102.236 125.669 102.684 125.874C103.132 126.07 103.519 126.345 103.846 126.7C104.182 127.045 104.439 127.447 104.616 127.904C104.793 128.361 104.882 128.847 104.882 129.36C104.882 129.864 104.793 130.345 104.616 130.802C104.439 131.259 104.187 131.665 103.86 132.02C103.533 132.365 103.141 132.641 102.684 132.846C102.236 133.042 101.737 133.14 101.186 133.14ZM98.764 129.374C98.764 129.878 98.8713 130.335 99.086 130.746C99.31 131.157 99.604 131.483 99.968 131.726C100.332 131.959 100.738 132.076 101.186 132.076C101.634 132.076 102.04 131.955 102.404 131.712C102.777 131.469 103.071 131.143 103.286 130.732C103.51 130.312 103.622 129.85 103.622 129.346C103.622 128.842 103.51 128.385 103.286 127.974C103.071 127.563 102.777 127.237 102.404 126.994C102.04 126.751 101.634 126.63 101.186 126.63C100.738 126.63 100.332 126.756 99.968 127.008C99.604 127.251 99.31 127.577 99.086 127.988C98.8713 128.399 98.764 128.861 98.764 129.374ZM110.309 133.14C109.712 133.14 109.18 132.991 108.713 132.692C108.246 132.393 107.878 132.015 107.607 131.558V135.982H106.375V125.692H107.467V127.064C107.756 126.616 108.134 126.257 108.601 125.986C109.068 125.706 109.576 125.566 110.127 125.566C110.631 125.566 111.093 125.669 111.513 125.874C111.933 126.079 112.297 126.359 112.605 126.714C112.913 127.069 113.151 127.475 113.319 127.932C113.496 128.38 113.585 128.851 113.585 129.346C113.585 130.037 113.445 130.671 113.165 131.25C112.894 131.829 112.512 132.291 112.017 132.636C111.522 132.972 110.953 133.14 110.309 133.14ZM109.931 132.076C110.295 132.076 110.622 132.001 110.911 131.852C111.21 131.693 111.462 131.488 111.667 131.236C111.882 130.975 112.045 130.681 112.157 130.354C112.269 130.027 112.325 129.691 112.325 129.346C112.325 128.982 112.26 128.637 112.129 128.31C112.008 127.983 111.83 127.694 111.597 127.442C111.373 127.19 111.107 126.994 110.799 126.854C110.5 126.705 110.174 126.63 109.819 126.63C109.595 126.63 109.362 126.672 109.119 126.756C108.886 126.84 108.662 126.961 108.447 127.12C108.232 127.269 108.05 127.442 107.901 127.638C107.752 127.834 107.654 128.044 107.607 128.268V130.354C107.747 130.671 107.934 130.961 108.167 131.222C108.4 131.483 108.671 131.693 108.979 131.852C109.287 132.001 109.604 132.076 109.931 132.076ZM118.768 132.636C118.665 132.683 118.525 132.743 118.348 132.818C118.171 132.893 117.965 132.958 117.732 133.014C117.499 133.07 117.251 133.098 116.99 133.098C116.691 133.098 116.416 133.047 116.164 132.944C115.912 132.832 115.711 132.664 115.562 132.44C115.413 132.207 115.338 131.917 115.338 131.572V126.658H114.344V125.692H115.338V123.256H116.57V125.692H118.208V126.658H116.57V131.194C116.589 131.455 116.677 131.651 116.836 131.782C116.995 131.903 117.181 131.964 117.396 131.964C117.639 131.964 117.863 131.922 118.068 131.838C118.273 131.754 118.409 131.693 118.474 131.656L118.768 132.636ZM119.91 133V125.692H121.142V133H119.91ZM119.91 124.32V122.78H121.142V124.32H119.91ZM126.329 133.14C125.778 133.14 125.279 133.042 124.831 132.846C124.383 132.641 123.995 132.365 123.669 132.02C123.342 131.665 123.09 131.259 122.913 130.802C122.735 130.345 122.647 129.864 122.647 129.36C122.647 128.847 122.735 128.361 122.913 127.904C123.09 127.447 123.342 127.045 123.669 126.7C123.995 126.345 124.383 126.07 124.831 125.874C125.288 125.669 125.787 125.566 126.329 125.566C126.879 125.566 127.379 125.669 127.827 125.874C128.275 126.07 128.662 126.345 128.989 126.7C129.325 127.045 129.581 127.447 129.759 127.904C129.936 128.361 130.025 128.847 130.025 129.36C130.025 129.864 129.936 130.345 129.759 130.802C129.581 131.259 129.329 131.665 129.003 132.02C128.676 132.365 128.284 132.641 127.827 132.846C127.379 133.042 126.879 133.14 126.329 133.14ZM123.907 129.374C123.907 129.878 124.014 130.335 124.229 130.746C124.453 131.157 124.747 131.483 125.111 131.726C125.475 131.959 125.881 132.076 126.329 132.076C126.777 132.076 127.183 131.955 127.547 131.712C127.92 131.469 128.214 131.143 128.429 130.732C128.653 130.312 128.765 129.85 128.765 129.346C128.765 128.842 128.653 128.385 128.429 127.974C128.214 127.563 127.92 127.237 127.547 126.994C127.183 126.751 126.777 126.63 126.329 126.63C125.881 126.63 125.475 126.756 125.111 127.008C124.747 127.251 124.453 127.577 124.229 127.988C124.014 128.399 123.907 128.861 123.907 129.374ZM137.859 133H136.627V128.912C136.627 128.137 136.506 127.573 136.263 127.218C136.03 126.854 135.671 126.672 135.185 126.672C134.849 126.672 134.513 126.756 134.177 126.924C133.851 127.092 133.557 127.321 133.295 127.61C133.043 127.89 132.861 128.217 132.749 128.59V133H131.517V125.692H132.637V127.26C132.833 126.915 133.085 126.616 133.393 126.364C133.701 126.112 134.051 125.916 134.443 125.776C134.835 125.636 135.246 125.566 135.675 125.566C136.095 125.566 136.445 125.645 136.725 125.804C137.015 125.953 137.239 126.168 137.397 126.448C137.565 126.719 137.682 127.041 137.747 127.414C137.822 127.787 137.859 128.193 137.859 128.632V133ZM142.966 133C142.966 132.44 143.013 131.945 143.106 131.516C143.209 131.077 143.354 130.685 143.54 130.34C143.736 129.995 143.97 129.691 144.24 129.43C144.511 129.169 144.819 128.935 145.164 128.73C145.528 128.515 145.902 128.319 146.284 128.142C146.667 127.965 147.022 127.778 147.348 127.582C147.675 127.386 147.936 127.153 148.132 126.882C148.338 126.602 148.44 126.257 148.44 125.846C148.44 125.519 148.37 125.225 148.23 124.964C148.09 124.693 147.88 124.479 147.6 124.32C147.32 124.161 146.961 124.082 146.522 124.082C146.084 124.082 145.687 124.157 145.332 124.306C144.987 124.455 144.688 124.633 144.436 124.838C144.184 125.043 143.984 125.239 143.834 125.426L143.036 124.628C143.111 124.535 143.242 124.395 143.428 124.208C143.624 124.021 143.872 123.83 144.17 123.634C144.478 123.438 144.838 123.275 145.248 123.144C145.659 123.004 146.126 122.934 146.648 122.934C147.348 122.934 147.932 123.065 148.398 123.326C148.865 123.587 149.215 123.937 149.448 124.376C149.691 124.815 149.812 125.3 149.812 125.832C149.812 126.308 149.724 126.719 149.546 127.064C149.369 127.4 149.14 127.685 148.86 127.918C148.58 128.151 148.272 128.357 147.936 128.534C147.61 128.711 147.292 128.879 146.984 129.038C146.396 129.318 145.93 129.575 145.584 129.808C145.239 130.041 144.973 130.27 144.786 130.494C144.609 130.709 144.488 130.928 144.422 131.152C144.366 131.376 144.334 131.619 144.324 131.88H149.826V133H142.966Z" fill="#09090B"/>
<line x1="72.5" y1="53" x2="72.5" y2="28" stroke="black" stroke-dasharray="2 2"/>
<line x1="126.5" y1="53" x2="126.5" y2="28" stroke="black" stroke-dasharray="2 2"/>
<path d="M123.644 23C123.644 22.44 123.691 21.9453 123.784 21.516C123.887 21.0773 124.031 20.6853 124.218 20.34C124.414 19.9947 124.647 19.6913 124.918 19.43C125.189 19.1687 125.497 18.9353 125.842 18.73C126.206 18.5153 126.579 18.3193 126.962 18.142C127.345 17.9647 127.699 17.778 128.026 17.582C128.353 17.386 128.614 17.1527 128.81 16.882C129.015 16.602 129.118 16.2567 129.118 15.846C129.118 15.5193 129.048 15.2253 128.908 14.964C128.768 14.6933 128.558 14.4787 128.278 14.32C127.998 14.1613 127.639 14.082 127.2 14.082C126.761 14.082 126.365 14.1567 126.01 14.306C125.665 14.4553 125.366 14.6327 125.114 14.838C124.862 15.0433 124.661 15.2393 124.512 15.426L123.714 14.628C123.789 14.5347 123.919 14.3947 124.106 14.208C124.302 14.0213 124.549 13.83 124.848 13.634C125.156 13.438 125.515 13.2747 125.926 13.144C126.337 13.004 126.803 12.934 127.326 12.934C128.026 12.934 128.609 13.0647 129.076 13.326C129.543 13.5873 129.893 13.9373 130.126 14.376C130.369 14.8147 130.49 15.3 130.49 15.832C130.49 16.308 130.401 16.7187 130.224 17.064C130.047 17.4 129.818 17.6847 129.538 17.918C129.258 18.1513 128.95 18.3567 128.614 18.534C128.287 18.7113 127.97 18.8793 127.662 19.038C127.074 19.318 126.607 19.5747 126.262 19.808C125.917 20.0413 125.651 20.27 125.464 20.494C125.287 20.7087 125.165 20.928 125.1 21.152C125.044 21.376 125.011 21.6187 125.002 21.88H130.504V23H123.644Z" fill="#09090B"/>
<path d="M74.866 21.88V23H69.924V21.88H71.828V14.25C71.7533 14.362 71.632 14.488 71.464 14.628C71.296 14.7587 71.1 14.8893 70.876 15.02C70.6613 15.1413 70.442 15.244 70.218 15.328C69.994 15.412 69.7887 15.454 69.602 15.454V14.306C69.854 14.306 70.106 14.2407 70.358 14.11C70.6193 13.9793 70.8573 13.8253 71.072 13.648C71.296 13.4707 71.4733 13.312 71.604 13.172C71.744 13.032 71.8187 12.9573 71.828 12.948H73.088V21.88H74.866Z" fill="#09090B"/>
</svg>
